<svg xmlns="http://www.w3.org/2000/svg" xmlns:xlink="http://www.w3.org/1999/xlink" contentStyleType="text/css" data-diagram-type="CLASS" height="395px" preserveAspectRatio="none" style="width:1738px;height:395px;background:#FFFFFF;" version="1.1" viewBox="0 0 1738 395" width="1738px" zoomAndPan="magnify"><defs/><g><!--class Bike--><g class="entity" data-entity="Bike" data-source-line="6" data-uid="ent0002" id="entity_Bike"><rect fill="#FFFFFF" height="158.0781" rx="2.5" ry="2.5" style="stroke:#000000;stroke-width:1;" width="260.2402" x="778.13" y="12"/><ellipse cx="887.3624" cy="26" fill="#FFFFFF" rx="9" ry="9" style="stroke:#000000;stroke-width:1;"/><path d="M890.3312,31.6406 Q889.753,31.9375 889.1124,32.0781 Q888.4718,32.2344 887.7687,32.2344 Q885.2687,32.2344 883.9405,30.5938 Q882.628,28.9375 882.628,25.8125 Q882.628,22.6875 883.9405,21.0313 Q885.2687,19.375 887.7687,19.375 Q888.4718,19.375 889.1124,19.5313 Q889.7687,19.6875 890.3312,19.9844 L890.3312,22.7031 Q889.7062,22.125 889.1124,21.8594 Q888.5187,21.5781 887.8937,21.5781 Q886.5499,21.5781 885.8624,22.6563 Q885.1749,23.7188 885.1749,25.8125 Q885.1749,27.9063 885.8624,28.9844 Q886.5499,30.0469 887.8937,30.0469 Q888.5187,30.0469 889.1124,29.7813 Q889.7062,29.5 890.3312,28.9219 L890.3312,31.6406 Z " fill="#000000"/><text fill="#000000" font-family="Verdana" font-size="14" font-weight="bold" lengthAdjust="spacing" textLength="34.2754" x="904.8624" y="30.8467">Bike</text><line style="stroke:#000000;stroke-width:1;" x1="779.13" x2="1037.3702" y1="40" y2="40"/><text fill="#000000" font-family="Verdana" font-size="14" lengthAdjust="spacing" textLength="96.9814" x="784.13" y="56.9951">-brand: String</text><text fill="#000000" font-family="Verdana" font-size="14" lengthAdjust="spacing" textLength="99.5928" x="784.13" y="73.292">-model: String</text><line style="stroke:#000000;stroke-width:1;" x1="779.13" x2="1037.3702" y1="80.5938" y2="80.5938"/><text fill="#000000" font-family="Verdana" font-size="14" lengthAdjust="spacing" textLength="248.2402" x="784.13" y="97.5889">+Bike(brand: String, model: String)</text><text fill="#000000" font-family="Verdana" font-size="14" lengthAdjust="spacing" textLength="138.291" x="784.13" y="113.8857">+getBrand(): String</text><text fill="#000000" font-family="Verdana" font-size="14" lengthAdjust="spacing" textLength="138.626" x="784.13" y="130.1826">+getModel(): String</text><text fill="#000000" font-family="Verdana" font-size="14" lengthAdjust="spacing" textLength="137.6553" x="784.13" y="146.4795">+displayInfo(): void</text><text fill="#000000" font-family="Verdana" font-size="14" lengthAdjust="spacing" textLength="102.9287" x="784.13" y="162.7764">+repair(): void</text></g><!--class HumanPoweredBike--><g class="entity" data-entity="HumanPoweredBike" data-source-line="16" data-uid="ent0003" id="entity_HumanPoweredBike"><rect fill="#FFFFFF" height="109.1875" rx="2.5" ry="2.5" style="stroke:#000000;stroke-width:1;" width="446.5059" x="12" y="254.53"/><ellipse cx="152.1582" cy="268.53" fill="#FFFFFF" rx="9" ry="9" style="stroke:#000000;stroke-width:1;"/><path d="M155.127,274.1706 Q154.5488,274.4675 153.9082,274.6081 Q153.2676,274.7644 152.5645,274.7644 Q150.0645,274.7644 148.7363,273.1238 Q147.4238,271.4675 147.4238,268.3425 Q147.4238,265.2175 148.7363,263.5613 Q150.0645,261.905 152.5645,261.905 Q153.2676,261.905 153.9082,262.0613 Q154.5645,262.2175 155.127,262.5144 L155.127,265.2331 Q154.502,264.655 153.9082,264.3894 Q153.3145,264.1081 152.6895,264.1081 Q151.3457,264.1081 150.6582,265.1863 Q149.9707,266.2488 149.9707,268.3425 Q149.9707,270.4363 150.6582,271.5144 Q151.3457,272.5769 152.6895,272.5769 Q153.3145,272.5769 153.9082,272.3113 Q154.502,272.03 155.127,271.4519 L155.127,274.1706 Z " fill="#000000"/><text fill="#000000" font-family="Verdana" font-size="14" font-weight="bold" lengthAdjust="spacing" textLength="158.6895" x="169.6582" y="273.3767">HumanPoweredBike</text><line style="stroke:#000000;stroke-width:1;" x1="13" x2="457.5059" y1="282.53" y2="282.53"/><text fill="#000000" font-family="Verdana" font-size="14" lengthAdjust="spacing" textLength="144.1494" x="18" y="299.5251">-numberOfGears: int</text><line style="stroke:#000000;stroke-width:1;" x1="13" x2="457.5059" y1="306.8269" y2="306.8269"/><text fill="#000000" font-family="Verdana" font-size="14" lengthAdjust="spacing" textLength="434.5059" x="18" y="323.822">+HumanPoweredBike(brand: String, model: String, gears: int)</text><text fill="#000000" font-family="Verdana" font-size="14" lengthAdjust="spacing" textLength="186.3408" x="18" y="340.1189">+getNumberOfGears(): int</text><text fill="#000000" font-family="Verdana" font-size="14" lengthAdjust="spacing" textLength="102.9287" x="18" y="356.4157">+repair(): void</text></g><!--class ElectricBike--><g class="entity" data-entity="ElectricBike" data-source-line="23" data-uid="ent0004" id="entity_ElectricBike"><rect fill="#FFFFFF" height="158.0781" rx="2.5" ry="2.5" style="stroke:#000000;stroke-width:1;" width="407.541" x="493.48" y="230.08"/><ellipse cx="646.9375" cy="244.08" fill="#FFFFFF" rx="9" ry="9" style="stroke:#000000;stroke-width:1;"/><path d="M649.9063,249.7206 Q649.3281,250.0175 648.6875,250.1581 Q648.0469,250.3144 647.3438,250.3144 Q644.8438,250.3144 643.5156,248.6738 Q642.2031,247.0175 642.2031,243.8925 Q642.2031,240.7675 643.5156,239.1113 Q644.8438,237.455 647.3438,237.455 Q648.0469,237.455 648.6875,237.6113 Q649.3438,237.7675 649.9063,238.0644 L649.9063,240.7831 Q649.2813,240.205 648.6875,239.9394 Q648.0938,239.6581 647.4688,239.6581 Q646.125,239.6581 645.4375,240.7363 Q644.75,241.7988 644.75,243.8925 Q644.75,245.9863 645.4375,247.0644 Q646.125,248.1269 647.4688,248.1269 Q648.0938,248.1269 648.6875,247.8613 Q649.2813,247.58 649.9063,247.0019 L649.9063,249.7206 Z " fill="#000000"/><text fill="#000000" font-family="Verdana" font-size="14" font-weight="bold" lengthAdjust="spacing" textLength="93.126" x="664.4375" y="248.9267">ElectricBike</text><line style="stroke:#000000;stroke-width:1;" x1="494.48" x2="900.021" y1="258.08" y2="258.08"/><text fill="#000000" font-family="Verdana" font-size="14" lengthAdjust="spacing" textLength="144.751" x="499.48" y="275.0751">-batteryCapacity: int</text><text fill="#000000" font-family="Verdana" font-size="14" lengthAdjust="spacing" textLength="106.8594" x="499.48" y="291.372">-maxSpeed: int</text><line style="stroke:#000000;stroke-width:1;" x1="494.48" x2="900.021" y1="298.6738" y2="298.6738"/><text fill="#000000" font-family="Verdana" font-size="14" lengthAdjust="spacing" textLength="395.541" x="499.48" y="315.6689">+ElectricBike(brand: String, model: String, capacity: int)</text><text fill="#000000" font-family="Verdana" font-size="14" lengthAdjust="spacing" textLength="186.0605" x="499.48" y="331.9657">+getBatteryCapacity(): int</text><text fill="#000000" font-family="Verdana" font-size="14" lengthAdjust="spacing" textLength="145.8926" x="499.48" y="348.2626">+getMaxSpeed(): int</text><text fill="#000000" font-family="Verdana" font-size="14" lengthAdjust="spacing" textLength="109.8535" x="499.48" y="364.5595">+charge(): void</text><text fill="#000000" font-family="Verdana" font-size="14" lengthAdjust="spacing" textLength="102.9287" x="499.48" y="380.8564">+repair(): void</text></g><!--class CargoBike--><g class="entity" data-entity="CargoBike" data-source-line="33" data-uid="ent0005" id="entity_CargoBike"><rect fill="#FFFFFF" height="125.4844" rx="2.5" ry="2.5" style="stroke:#000000;stroke-width:1;" width="368.043" x="936.23" y="246.38"/><ellipse cx="1076.231" cy="260.38" fill="#FFFFFF" rx="9" ry="9" style="stroke:#000000;stroke-width:1;"/><path d="M1079.1997,266.0206 Q1078.6216,266.3175 1077.981,266.4581 Q1077.3404,266.6144 1076.6372,266.6144 Q1074.1372,266.6144 1072.8091,264.9738 Q1071.4966,263.3175 1071.4966,260.1925 Q1071.4966,257.0675 1072.8091,255.4113 Q1074.1372,253.755 1076.6372,253.755 Q1077.3404,253.755 1077.981,253.9113 Q1078.6372,254.0675 1079.1997,254.3644 L1079.1997,257.0831 Q1078.5747,256.505 1077.981,256.2394 Q1077.3872,255.9581 1076.7622,255.9581 Q1075.4185,255.9581 1074.731,257.0363 Q1074.0435,258.0988 1074.0435,260.1925 Q1074.0435,262.2863 1074.731,263.3644 Q1075.4185,264.4269 1076.7622,264.4269 Q1077.3872,264.4269 1077.981,264.1613 Q1078.5747,263.88 1079.1997,263.3019 L1079.1997,266.0206 Z " fill="#000000"/><text fill="#000000" font-family="Verdana" font-size="14" font-weight="bold" lengthAdjust="spacing" textLength="80.541" x="1093.731" y="265.2267">CargoBike</text><line style="stroke:#000000;stroke-width:1;" x1="937.23" x2="1303.273" y1="274.38" y2="274.38"/><text fill="#000000" font-family="Verdana" font-size="14" lengthAdjust="spacing" textLength="96.8037" x="942.23" y="291.3751">-maxLoad: int</text><line style="stroke:#000000;stroke-width:1;" x1="937.23" x2="1303.273" y1="298.6769" y2="298.6769"/><text fill="#000000" font-family="Verdana" font-size="14" lengthAdjust="spacing" textLength="356.043" x="942.23" y="315.672">+CargoBike(brand: String, model: String, load: int)</text><text fill="#000000" font-family="Verdana" font-size="14" lengthAdjust="spacing" textLength="135.8369" x="942.23" y="331.9689">+getMaxLoad(): int</text><text fill="#000000" font-family="Verdana" font-size="14" lengthAdjust="spacing" textLength="132.9316" x="942.23" y="348.2657">+loadCargo(): void</text><text fill="#000000" font-family="Verdana" font-size="14" lengthAdjust="spacing" textLength="102.9287" x="942.23" y="364.5626">+repair(): void</text></g><!--class BikeCaravan--><g class="entity" data-entity="BikeCaravan" data-source-line="41" data-uid="ent0006" id="entity_BikeCaravan"><rect fill="#FFFFFF" height="125.4844" rx="2.5" ry="2.5" style="stroke:#000000;stroke-width:1;" width="392.5156" x="1339" y="246.38"/><ellipse cx="1482.0635" cy="260.38" fill="#FFFFFF" rx="9" ry="9" style="stroke:#000000;stroke-width:1;"/><path d="M1485.0322,266.0206 Q1484.4541,266.3175 1483.8135,266.4581 Q1483.1729,266.6144 1482.4697,266.6144 Q1479.9697,266.6144 1478.6416,264.9738 Q1477.3291,263.3175 1477.3291,260.1925 Q1477.3291,257.0675 1478.6416,255.4113 Q1479.9697,253.755 1482.4697,253.755 Q1483.1729,253.755 1483.8135,253.9113 Q1484.4697,254.0675 1485.0322,254.3644 L1485.0322,257.0831 Q1484.4072,256.505 1483.8135,256.2394 Q1483.2197,255.9581 1482.5947,255.9581 Q1481.251,255.9581 1480.5635,257.0363 Q1479.876,258.0988 1479.876,260.1925 Q1479.876,262.2863 1480.5635,263.3644 Q1481.251,264.4269 1482.5947,264.4269 Q1483.2197,264.4269 1483.8135,264.1613 Q1484.4072,263.88 1485.0322,263.3019 L1485.0322,266.0206 Z " fill="#000000"/><text fill="#000000" font-family="Verdana" font-size="14" font-weight="bold" lengthAdjust="spacing" textLength="98.8887" x="1499.5635" y="265.2267">BikeCaravan</text><line style="stroke:#000000;stroke-width:1;" x1="1340" x2="1730.5156" y1="274.38" y2="274.38"/><text fill="#000000" font-family="Verdana" font-size="14" lengthAdjust="spacing" textLength="130.5391" x="1345" y="291.3751">-sleepingSpots: int</text><line style="stroke:#000000;stroke-width:1;" x1="1340" x2="1730.5156" y1="298.6769" y2="298.6769"/><text fill="#000000" font-family="Verdana" font-size="14" lengthAdjust="spacing" textLength="380.5156" x="1345" y="315.672">+BikeCaravan(brand: String, model: String, spots: int)</text><text fill="#000000" font-family="Verdana" font-size="14" lengthAdjust="spacing" textLength="172.7236" x="1345" y="331.9689">+getSleepingSpots(): int</text><text fill="#000000" font-family="Verdana" font-size="14" lengthAdjust="spacing" textLength="141.4834" x="1345" y="348.2657">+setupCamp(): void</text><text fill="#000000" font-family="Verdana" font-size="14" lengthAdjust="spacing" textLength="102.9287" x="1345" y="364.5626">+repair(): void</text></g><!--reverse link Bike to HumanPoweredBike--><g class="link" data-entity-1="Bike" data-entity-2="HumanPoweredBike" data-source-line="49" data-uid="lnk7" id="link_Bike_HumanPoweredBike"><path codeLine="49" d="M760.6209,139.059 C674.8909,166.399 577.44,197.53 476.25,230.08 C452.18,237.83 426.76,246.03 401.82,254.09" fill="none" id="Bike-backto-HumanPoweredBike" style="stroke:#000000;stroke-width:1;"/><polygon fill="none" points="777.77,133.59,758.7979,133.3426,762.4439,144.7753,777.77,133.59" style="stroke:#000000;stroke-width:1;"/></g><!--reverse link Bike to ElectricBike--><g class="link" data-entity-1="Bike" data-entity-2="ElectricBike" data-source-line="50" data-uid="lnk8" id="link_Bike_ElectricBike"><path codeLine="50" d="M819.2029,183.237 C800.3329,202.557 792.69,210.38 773.82,229.71" fill="none" id="Bike-backto-ElectricBike" style="stroke:#000000;stroke-width:1;"/><polygon fill="none" points="831.78,170.36,814.9106,179.0446,823.4953,187.4294,831.78,170.36" style="stroke:#000000;stroke-width:1;"/></g><!--reverse link Bike to CargoBike--><g class="link" data-entity-1="Bike" data-entity-2="CargoBike" data-source-line="51" data-uid="lnk9" id="link_Bike_CargoBike"><path codeLine="51" d="M997.696,183.2087 C1022.106,208.0887 1036.15,222.4 1059.28,245.98" fill="none" id="Bike-backto-CargoBike" style="stroke:#000000;stroke-width:1;"/><polygon fill="none" points="985.09,170.36,993.4131,187.4107,1001.9789,179.0067,985.09,170.36" style="stroke:#000000;stroke-width:1;"/></g><!--reverse link Bike to BikeCaravan--><g class="link" data-entity-1="Bike" data-entity-2="BikeCaravan" data-source-line="52" data-uid="lnk10" id="link_Bike_BikeCaravan"><path codeLine="52" d="M1055.7413,140.0467 C1137.4313,166.8767 1227.67,197 1322.25,230.08 C1336.75,235.15 1351.77,240.49 1366.83,245.9" fill="none" id="Bike-backto-BikeCaravan" style="stroke:#000000;stroke-width:1;"/><polygon fill="none" points="1038.64,134.43,1053.869,145.7471,1057.6135,134.3463,1038.64,134.43" style="stroke:#000000;stroke-width:1;"/></g><!--SRC=[ZPBBRi8m44Nt-GftHrGYTOswAQWFfBwaVC4a6OA5OrksGvi-_hqs9Sw4gi3spfqxPyQ-S6jia6a1N2Q9tN2fmK33IW7MtZXdUD4wN9PAvlm3sTMXvKv9bxjE82kKg99a9x8vto3xJ1ZB2WEoch7S1yaw28sgK13XCdWd8zkKZKnfSDNevi4pIMclLv-2TQnMtFfzkgLSgL3OAbu5sQ06RgBotSC-j0t8L_M61gi1NBPDWUPbTOzWx8nnwKB6eVSe-9JLiRbVufd61fPzy7zmjm9B7rQIYu9pQBe5Q2Yvw_g4h87tN2DMCPAsdk0iQLYyztWGWGrdtqyZQha6K-Cv5rzuenesykIF2WRmM3v1BVgcT80AGOGfM7Pnvs25aTuCMv2_O5OWQZygryeDVu3OJW3QsDSJvZIHS5fqhLv0euzpxcvs_PLbVpujAT5t9tAyAj78AiaF]--></g></svg>