<svg xmlns="http://www.w3.org/2000/svg" xmlns:xlink="http://www.w3.org/1999/xlink" contentStyleType="text/css" data-diagram-type="CLASS" height="417px" preserveAspectRatio="none" style="width:1344px;height:417px;background:#FFFFFF;" version="1.1" viewBox="0 0 1344 417" width="1344px" zoomAndPan="magnify"><defs/><g><!--class Electric--><g class="entity" data-entity="Electric" data-source-line="6" data-uid="ent0002" id="entity_Electric"><rect fill="#FFFFFF" height="92.8906" rx="2.5" ry="2.5" style="stroke:#000000;stroke-width:1;" width="205.5938" x="12" y="317.78"/><ellipse cx="81.6216" cy="331.78" fill="#FFFFFF" rx="9" ry="9" style="stroke:#000000;stroke-width:1;"/><path d="M77.5435,327.5456 L77.5435,325.3894 L84.9341,325.3894 L84.9341,327.5456 L82.4653,327.5456 L82.4653,335.6238 L84.9341,335.6238 L84.9341,337.78 L77.5435,337.78 L77.5435,335.6238 L80.0122,335.6238 L80.0122,327.5456 L77.5435,327.5456 Z " fill="#000000"/><text fill="#000000" font-family="Verdana" font-size="14" font-style="italic" font-weight="bold" lengthAdjust="spacing" textLength="58.8506" x="99.1216" y="336.6267">Electric</text><line style="stroke:#000000;stroke-width:1;" x1="13" x2="216.5938" y1="345.78" y2="345.78"/><line style="stroke:#000000;stroke-width:1;" x1="13" x2="216.5938" y1="353.78" y2="353.78"/><text fill="#000000" font-family="Verdana" font-size="14" lengthAdjust="spacing" textLength="162.0801" x="18" y="370.7751">+getBatteryLevel(): int</text><text fill="#000000" font-family="Verdana" font-size="14" lengthAdjust="spacing" textLength="109.8535" x="18" y="387.072">+charge(): void</text><text fill="#000000" font-family="Verdana" font-size="14" lengthAdjust="spacing" textLength="193.5938" x="18" y="403.3689">+needsCharging(): boolean</text></g><!--class Rideable--><g class="entity" data-entity="Rideable" data-source-line="12" data-uid="ent0003" id="entity_Rideable"><rect fill="#FFFFFF" height="76.5938" rx="2.5" ry="2.5" style="stroke:#000000;stroke-width:1;" width="187.3555" x="252.12" y="325.93"/><ellipse cx="307.6185" cy="339.93" fill="#FFFFFF" rx="9" ry="9" style="stroke:#000000;stroke-width:1;"/><path d="M303.5404,335.6956 L303.5404,333.5394 L310.931,333.5394 L310.931,335.6956 L308.4623,335.6956 L308.4623,343.7738 L310.931,343.7738 L310.931,345.93 L303.5404,345.93 L303.5404,343.7738 L306.0092,343.7738 L306.0092,335.6956 L303.5404,335.6956 Z " fill="#000000"/><text fill="#000000" font-family="Verdana" font-size="14" font-style="italic" font-weight="bold" lengthAdjust="spacing" textLength="68.8584" x="325.1185" y="344.7767">Rideable</text><line style="stroke:#000000;stroke-width:1;" x1="253.12" x2="438.4755" y1="353.93" y2="353.93"/><line style="stroke:#000000;stroke-width:1;" x1="253.12" x2="438.4755" y1="361.93" y2="361.93"/><text fill="#000000" font-family="Verdana" font-size="14" lengthAdjust="spacing" textLength="175.3555" x="258.12" y="378.9251">+getMaxSpeed(): double</text><text fill="#000000" font-family="Verdana" font-size="14" lengthAdjust="spacing" textLength="88.5938" x="258.12" y="395.222">+ride(): void</text></g><!--class Loadable--><g class="entity" data-entity="Loadable" data-source-line="17" data-uid="ent0004" id="entity_Loadable"><rect fill="#FFFFFF" height="92.8906" rx="2.5" ry="2.5" style="stroke:#000000;stroke-width:1;" width="162.6777" x="904.46" y="317.78"/><ellipse cx="946.1636" cy="331.78" fill="#FFFFFF" rx="9" ry="9" style="stroke:#000000;stroke-width:1;"/><path d="M942.0855,327.5456 L942.0855,325.3894 L949.4761,325.3894 L949.4761,327.5456 L947.0074,327.5456 L947.0074,335.6238 L949.4761,335.6238 L949.4761,337.78 L942.0855,337.78 L942.0855,335.6238 L944.5542,335.6238 L944.5542,327.5456 L942.0855,327.5456 Z " fill="#000000"/><text fill="#000000" font-family="Verdana" font-size="14" font-style="italic" font-weight="bold" lengthAdjust="spacing" textLength="71.7705" x="963.6636" y="336.6267">Loadable</text><line style="stroke:#000000;stroke-width:1;" x1="905.46" x2="1066.1377" y1="345.78" y2="345.78"/><line style="stroke:#000000;stroke-width:1;" x1="905.46" x2="1066.1377" y1="353.78" y2="353.78"/><text fill="#000000" font-family="Verdana" font-size="14" lengthAdjust="spacing" textLength="135.8369" x="910.46" y="370.7751">+getMaxLoad(): int</text><text fill="#000000" font-family="Verdana" font-size="14" lengthAdjust="spacing" textLength="132.9316" x="910.46" y="387.072">+loadCargo(): void</text><text fill="#000000" font-family="Verdana" font-size="14" lengthAdjust="spacing" textLength="150.6777" x="910.46" y="403.3689">+unloadCargo(): void</text></g><!--class Bike--><g class="entity" data-entity="Bike" data-source-line="23" data-uid="ent0005" id="entity_Bike"><rect fill="#FFFFFF" height="109.1875" rx="2.5" ry="2.5" style="stroke:#000000;stroke-width:1;" width="149.6553" x="435.97" y="12"/><ellipse cx="489.9099" cy="26" fill="#FFFFFF" rx="9" ry="9" style="stroke:#000000;stroke-width:1;"/><path d="M492.8787,31.6406 Q492.3006,31.9375 491.6599,32.0781 Q491.0193,32.2344 490.3162,32.2344 Q487.8162,32.2344 486.4881,30.5938 Q485.1756,28.9375 485.1756,25.8125 Q485.1756,22.6875 486.4881,21.0313 Q487.8162,19.375 490.3162,19.375 Q491.0193,19.375 491.6599,19.5313 Q492.3162,19.6875 492.8787,19.9844 L492.8787,22.7031 Q492.2537,22.125 491.6599,21.8594 Q491.0662,21.5781 490.4412,21.5781 Q489.0974,21.5781 488.4099,22.6563 Q487.7224,23.7188 487.7224,25.8125 Q487.7224,27.9063 488.4099,28.9844 Q489.0974,30.0469 490.4412,30.0469 Q491.0662,30.0469 491.6599,29.7813 Q492.2537,29.5 492.8787,28.9219 L492.8787,31.6406 Z " fill="#000000"/><text fill="#000000" font-family="Verdana" font-size="14" font-weight="bold" lengthAdjust="spacing" textLength="34.2754" x="507.4099" y="30.8467">Bike</text><line style="stroke:#000000;stroke-width:1;" x1="436.97" x2="584.6253" y1="40" y2="40"/><text fill="#000000" font-family="Verdana" font-size="14" lengthAdjust="spacing" textLength="96.9814" x="441.97" y="56.9951">-brand: String</text><text fill="#000000" font-family="Verdana" font-size="14" lengthAdjust="spacing" textLength="99.5928" x="441.97" y="73.292">-model: String</text><line style="stroke:#000000;stroke-width:1;" x1="436.97" x2="584.6253" y1="80.5938" y2="80.5938"/><text fill="#000000" font-family="Verdana" font-size="14" lengthAdjust="spacing" textLength="102.9287" x="441.97" y="97.5889">+repair(): void</text><text fill="#000000" font-family="Verdana" font-size="14" lengthAdjust="spacing" textLength="137.6553" x="441.97" y="113.8857">+displayInfo(): void</text></g><!--class HumanPoweredBike--><g class="entity" data-entity="HumanPoweredBike" data-source-line="30" data-uid="ent0006" id="entity_HumanPoweredBike"><rect fill="#FFFFFF" height="60.2969" rx="2.5" ry="2.5" style="stroke:#000000;stroke-width:1;" width="186.6895" x="326.45" y="189.33"/><ellipse cx="339.45" cy="203.33" fill="#FFFFFF" rx="9" ry="9" style="stroke:#000000;stroke-width:1;"/><path d="M342.4188,208.9706 Q341.8406,209.2675 341.2,209.4081 Q340.5594,209.5644 339.8563,209.5644 Q337.3563,209.5644 336.0281,207.9238 Q334.7156,206.2675 334.7156,203.1425 Q334.7156,200.0175 336.0281,198.3613 Q337.3563,196.705 339.8563,196.705 Q340.5594,196.705 341.2,196.8613 Q341.8563,197.0175 342.4188,197.3144 L342.4188,200.0331 Q341.7938,199.455 341.2,199.1894 Q340.6063,198.9081 339.9813,198.9081 Q338.6375,198.9081 337.95,199.9863 Q337.2625,201.0488 337.2625,203.1425 Q337.2625,205.2363 337.95,206.3144 Q338.6375,207.3769 339.9813,207.3769 Q340.6063,207.3769 341.2,207.1113 Q341.7938,206.83 342.4188,206.2519 L342.4188,208.9706 Z " fill="#000000"/><text fill="#000000" font-family="Verdana" font-size="14" font-weight="bold" lengthAdjust="spacing" textLength="158.6895" x="351.45" y="208.1767">HumanPoweredBike</text><line style="stroke:#000000;stroke-width:1;" x1="327.45" x2="512.1395" y1="217.33" y2="217.33"/><text fill="#000000" font-family="Verdana" font-size="14" lengthAdjust="spacing" textLength="144.1494" x="332.45" y="234.3251">-numberOfGears: int</text><line style="stroke:#000000;stroke-width:1;" x1="327.45" x2="512.1395" y1="241.6269" y2="241.6269"/></g><!--class ElectricBike--><g class="entity" data-entity="ElectricBike" data-source-line="34" data-uid="ent0007" id="entity_ElectricBike"><rect fill="#FFFFFF" height="76.5938" rx="2.5" ry="2.5" style="stroke:#000000;stroke-width:1;" width="156.751" x="134.42" y="181.19"/><ellipse cx="163.4513" cy="195.19" fill="#FFFFFF" rx="9" ry="9" style="stroke:#000000;stroke-width:1;"/><path d="M166.42,200.8306 Q165.8419,201.1275 165.2013,201.2681 Q164.5606,201.4244 163.8575,201.4244 Q161.3575,201.4244 160.0294,199.7838 Q158.7169,198.1275 158.7169,195.0025 Q158.7169,191.8775 160.0294,190.2213 Q161.3575,188.565 163.8575,188.565 Q164.5606,188.565 165.2013,188.7213 Q165.8575,188.8775 166.42,189.1744 L166.42,191.8931 Q165.795,191.315 165.2013,191.0494 Q164.6075,190.7681 163.9825,190.7681 Q162.6388,190.7681 161.9513,191.8463 Q161.2638,192.9088 161.2638,195.0025 Q161.2638,197.0963 161.9513,198.1744 Q162.6388,199.2369 163.9825,199.2369 Q164.6075,199.2369 165.2013,198.9713 Q165.795,198.69 166.42,198.1119 L166.42,200.8306 Z " fill="#000000"/><text fill="#000000" font-family="Verdana" font-size="14" font-weight="bold" lengthAdjust="spacing" textLength="93.126" x="179.0138" y="200.0367">ElectricBike</text><line style="stroke:#000000;stroke-width:1;" x1="135.42" x2="290.171" y1="209.19" y2="209.19"/><text fill="#000000" font-family="Verdana" font-size="14" lengthAdjust="spacing" textLength="144.751" x="140.42" y="226.1851">-batteryCapacity: int</text><text fill="#000000" font-family="Verdana" font-size="14" lengthAdjust="spacing" textLength="120.7705" x="140.42" y="242.482">-batteryLevel: int</text><line style="stroke:#000000;stroke-width:1;" x1="135.42" x2="290.171" y1="249.7838" y2="249.7838"/></g><!--class CargoBike--><g class="entity" data-entity="CargoBike" data-source-line="39" data-uid="ent0008" id="entity_CargoBike"><rect fill="#FFFFFF" height="60.2969" rx="2.5" ry="2.5" style="stroke:#000000;stroke-width:1;" width="108.8037" x="548.4" y="189.33"/><ellipse cx="561.5182" cy="203.33" fill="#FFFFFF" rx="9" ry="9" style="stroke:#000000;stroke-width:1;"/><path d="M564.487,208.9706 Q563.9088,209.2675 563.2682,209.4081 Q562.6276,209.5644 561.9245,209.5644 Q559.4245,209.5644 558.0963,207.9238 Q556.7838,206.2675 556.7838,203.1425 Q556.7838,200.0175 558.0963,198.3613 Q559.4245,196.705 561.9245,196.705 Q562.6276,196.705 563.2682,196.8613 Q563.9245,197.0175 564.487,197.3144 L564.487,200.0331 Q563.862,199.455 563.2682,199.1894 Q562.6745,198.9081 562.0495,198.9081 Q560.7057,198.9081 560.0182,199.9863 Q559.3307,201.0488 559.3307,203.1425 Q559.3307,205.2363 560.0182,206.3144 Q560.7057,207.3769 562.0495,207.3769 Q562.6745,207.3769 563.2682,207.1113 Q563.862,206.83 564.487,206.2519 L564.487,208.9706 Z " fill="#000000"/><text fill="#000000" font-family="Verdana" font-size="14" font-weight="bold" lengthAdjust="spacing" textLength="80.541" x="573.5445" y="208.1767">CargoBike</text><line style="stroke:#000000;stroke-width:1;" x1="549.4" x2="656.2037" y1="217.33" y2="217.33"/><text fill="#000000" font-family="Verdana" font-size="14" lengthAdjust="spacing" textLength="96.8037" x="554.4" y="234.3251">-maxLoad: int</text><line style="stroke:#000000;stroke-width:1;" x1="549.4" x2="656.2037" y1="241.6269" y2="241.6269"/></g><!--class BikeCaravan--><g class="entity" data-entity="BikeCaravan" data-source-line="43" data-uid="ent0009" id="entity_BikeCaravan"><rect fill="#FFFFFF" height="60.2969" rx="2.5" ry="2.5" style="stroke:#000000;stroke-width:1;" width="142.5391" x="840.53" y="189.33"/><ellipse cx="860.5727" cy="203.33" fill="#FFFFFF" rx="9" ry="9" style="stroke:#000000;stroke-width:1;"/><path d="M863.5414,208.9706 Q862.9633,209.2675 862.3227,209.4081 Q861.6821,209.5644 860.9789,209.5644 Q858.4789,209.5644 857.1508,207.9238 Q855.8383,206.2675 855.8383,203.1425 Q855.8383,200.0175 857.1508,198.3613 Q858.4789,196.705 860.9789,196.705 Q861.6821,196.705 862.3227,196.8613 Q862.9789,197.0175 863.5414,197.3144 L863.5414,200.0331 Q862.9164,199.455 862.3227,199.1894 Q861.7289,198.9081 861.1039,198.9081 Q859.7602,198.9081 859.0727,199.9863 Q858.3852,201.0488 858.3852,203.1425 Q858.3852,205.2363 859.0727,206.3144 Q859.7602,207.3769 861.1039,207.3769 Q861.7289,207.3769 862.3227,207.1113 Q862.9164,206.83 863.5414,206.2519 L863.5414,208.9706 Z " fill="#000000"/><text fill="#000000" font-family="Verdana" font-size="14" font-weight="bold" lengthAdjust="spacing" textLength="98.8887" x="874.1377" y="208.1767">BikeCaravan</text><line style="stroke:#000000;stroke-width:1;" x1="841.53" x2="982.0691" y1="217.33" y2="217.33"/><text fill="#000000" font-family="Verdana" font-size="14" lengthAdjust="spacing" textLength="130.5391" x="846.53" y="234.3251">-sleepingSpots: int</text><line style="stroke:#000000;stroke-width:1;" x1="841.53" x2="982.0691" y1="241.6269" y2="241.6269"/></g><g class="entity" data-entity="GMN20" data-source-line="60" data-uid="ent0021" id="entity_GMN20"><path d="M674.33,336.53 L674.33,391.9284 L869.2558,391.9284 L869.2558,346.53 L859.2558,336.53 L674.33,336.53" fill="#FFFFFF" style="stroke:#000000;stroke-width:1;"/><path d="M859.2558,336.53 L859.2558,346.53 L869.2558,346.53 L859.2558,336.53" fill="#FFFFFF" style="stroke:#000000;stroke-width:1;"/><text fill="#000000" font-family="Verdana" font-size="13" lengthAdjust="spacing" textLength="167.7876" x="680.33" y="353.5969">Tous les v&#233;los &#233;lectriques</text><text fill="#000000" font-family="Verdana" font-size="13" lengthAdjust="spacing" textLength="173.9258" x="680.33" y="368.7297">doivent impl&#233;menter cette</text><text fill="#000000" font-family="Verdana" font-size="13" lengthAdjust="spacing" textLength="57.9795" x="680.33" y="383.8625">interface</text></g><g class="entity" data-entity="GMN23" data-source-line="66" data-uid="ent0024" id="entity_GMN23"><path d="M474.53,344.09 L474.53,360.22 L439.76,364.22 L474.53,368.22 L474.53,384.3556 A0,0 0 0 0 474.53,384.3556 L639.0632,384.3556 A0,0 0 0 0 639.0632,384.3556 L639.0632,354.09 L629.0632,344.09 L474.53,344.09 A0,0 0 0 0 474.53,344.09" fill="#FFFFFF" style="stroke:#000000;stroke-width:1;"/><path d="M629.0632,344.09 L629.0632,354.09 L639.0632,354.09 L629.0632,344.09" fill="#FFFFFF" style="stroke:#000000;stroke-width:1;"/><text fill="#000000" font-family="Verdana" font-size="13" lengthAdjust="spacing" textLength="131.4219" x="480.53" y="361.1569">La plupart des v&#233;los</text><text fill="#000000" font-family="Verdana" font-size="13" lengthAdjust="spacing" textLength="143.5332" x="480.53" y="376.2897">peuvent &#234;tre conduits</text></g><g class="entity" data-entity="GMN26" data-source-line="71" data-uid="ent0027" id="entity_GMN26"><path d="M1102.26,344.09 L1102.26,360.22 L1067.61,364.22 L1102.26,368.22 L1102.26,384.3556 A0,0 0 0 0 1102.26,384.3556 L1337.3284,384.3556 A0,0 0 0 0 1337.3284,384.3556 L1337.3284,354.09 L1327.3284,344.09 L1102.26,344.09 A0,0 0 0 0 1102.26,344.09" fill="#FFFFFF" style="stroke:#000000;stroke-width:1;"/><path d="M1327.3284,344.09 L1327.3284,354.09 L1337.3284,354.09 L1327.3284,344.09" fill="#FFFFFF" style="stroke:#000000;stroke-width:1;"/><text fill="#000000" font-family="Verdana" font-size="13" lengthAdjust="spacing" textLength="189.4268" x="1108.26" y="361.1569">Les v&#233;los cargo et caravanes</text><text fill="#000000" font-family="Verdana" font-size="13" lengthAdjust="spacing" textLength="214.0684" x="1108.26" y="376.2897">peuvent transporter des charges</text></g><!--reverse link Bike to HumanPoweredBike--><g class="link" data-entity-1="Bike" data-entity-2="HumanPoweredBike" data-source-line="47" data-uid="lnk10" id="link_Bike_HumanPoweredBike"><path codeLine="47" d="M468.9021,137.0526 C455.2321,159.7126 449.17,169.77 437.63,188.9" fill="none" id="Bike-backto-HumanPoweredBike" style="stroke:#000000;stroke-width:1;"/><polygon fill="none" points="478.2,121.64,463.7646,133.9533,474.0396,140.1519,478.2,121.64" style="stroke:#000000;stroke-width:1;"/></g><!--reverse link Bike to ElectricBike--><g class="link" data-entity-1="Bike" data-entity-2="ElectricBike" data-source-line="48" data-uid="lnk11" id="link_Bike_ElectricBike"><path codeLine="48" d="M419.5408,113.8003 C374.1108,136.8003 332.48,157.88 287.2,180.81" fill="none" id="Bike-backto-ElectricBike" style="stroke:#000000;stroke-width:1;"/><polygon fill="none" points="435.6,105.67,416.8307,108.4473,422.2509,119.1534,435.6,105.67" style="stroke:#000000;stroke-width:1;"/></g><!--reverse link Bike to CargoBike--><g class="link" data-entity-1="Bike" data-entity-2="CargoBike" data-source-line="49" data-uid="lnk12" id="link_Bike_CargoBike"><path codeLine="49" d="M553.1224,137.0074 C566.9424,159.6674 573.1,169.77 584.76,188.9" fill="none" id="Bike-backto-CargoBike" style="stroke:#000000;stroke-width:1;"/><polygon fill="none" points="543.75,121.64,547.9999,140.1316,558.2449,133.8833,543.75,121.64" style="stroke:#000000;stroke-width:1;"/></g><!--reverse link Bike to BikeCaravan--><g class="link" data-entity-1="Bike" data-entity-2="BikeCaravan" data-source-line="50" data-uid="lnk13" id="link_Bike_BikeCaravan"><path codeLine="50" d="M602.5971,102.1385 C675.4771,129.5585 768.54,164.58 840.24,191.56" fill="none" id="Bike-backto-BikeCaravan" style="stroke:#000000;stroke-width:1;"/><polygon fill="none" points="585.75,95.8,600.4843,107.7541,604.7099,96.5228,585.75,95.8" style="stroke:#000000;stroke-width:1;"/></g><!--link HumanPoweredBike to Rideable--><g class="link" data-entity-1="HumanPoweredBike" data-entity-2="Rideable" data-source-line="52" data-uid="lnk14" id="link_HumanPoweredBike_Rideable"><path codeLine="52" d="M404.46,250.06 C393.12,271.94 385.8645,285.9398 373.6245,309.5498" fill="none" id="HumanPoweredBike-to-Rideable" style="stroke:#000000;stroke-width:1;stroke-dasharray:7,7;"/><polygon fill="none" points="365.34,325.53,378.9513,312.3113,368.2978,306.7883,365.34,325.53" style="stroke:#000000;stroke-width:1;"/></g><!--link ElectricBike to Electric--><g class="link" data-entity-1="ElectricBike" data-entity-2="Electric" data-source-line="53" data-uid="lnk15" id="link_ElectricBike_Electric"><path codeLine="53" d="M187.05,257.99 C174.57,276.16 169.6673,283.3002 156.5073,302.4702" fill="none" id="ElectricBike-to-Electric" style="stroke:#000000;stroke-width:1;stroke-dasharray:7,7;"/><polygon fill="none" points="146.32,317.31,161.4539,305.866,151.5607,299.0745,146.32,317.31" style="stroke:#000000;stroke-width:1;"/></g><!--link ElectricBike to Rideable--><g class="link" data-entity-1="ElectricBike" data-entity-2="Rideable" data-source-line="54" data-uid="lnk16" id="link_ElectricBike_Rideable"><path codeLine="54" d="M247.74,257.99 C267.14,278.8 278.9216,291.4486 298.3516,312.3086" fill="none" id="ElectricBike-to-Rideable" style="stroke:#000000;stroke-width:1;stroke-dasharray:7,7;"/><polygon fill="none" points="310.62,325.48,302.742,308.2191,293.9611,316.3981,310.62,325.48" style="stroke:#000000;stroke-width:1;"/></g><!--link CargoBike to Loadable--><g class="link" data-entity-1="CargoBike" data-entity-2="Loadable" data-source-line="55" data-uid="lnk17" id="link_CargoBike_Loadable"><path codeLine="55" d="M657.57,237.44 C715.2,255.71 808.27,286.4 886.8,317.78 C892.42,320.03 881.628,315.3467 887.408,317.8167" fill="none" id="CargoBike-to-Loadable" style="stroke:#000000;stroke-width:1;stroke-dasharray:7,7;"/><polygon fill="none" points="903.96,324.89,889.7657,312.2994,885.0502,323.3341,903.96,324.89" style="stroke:#000000;stroke-width:1;"/></g><!--link CargoBike to Rideable--><g class="link" data-entity-1="CargoBike" data-entity-2="Rideable" data-source-line="56" data-uid="lnk18" id="link_CargoBike_Rideable"><path codeLine="56" d="M549.55,250.06 C510.14,271.94 471.905,293.1787 429.405,316.7887" fill="none" id="CargoBike-to-Rideable" style="stroke:#000000;stroke-width:1;stroke-dasharray:7,7;"/><polygon fill="none" points="413.67,325.53,432.3188,322.0337,426.4913,311.5437,413.67,325.53" style="stroke:#000000;stroke-width:1;"/></g><!--link BikeCaravan to Loadable--><g class="link" data-entity-1="BikeCaravan" data-entity-2="Loadable" data-source-line="57" data-uid="lnk19" id="link_BikeCaravan_Loadable"><path codeLine="57" d="M927.13,250.06 C937.21,269.49 942.3064,279.3293 953.7464,301.3993" fill="none" id="BikeCaravan-to-Loadable" style="stroke:#000000;stroke-width:1;stroke-dasharray:7,7;"/><polygon fill="none" points="962.03,317.38,959.0733,298.6381,948.4195,304.1605,962.03,317.38" style="stroke:#000000;stroke-width:1;"/></g><!--link Electric to GMN20--><g class="link" data-entity-1="Electric" data-entity-2="GMN20" data-source-line="60" data-uid="lnk22" id="link_Electric_GMN20"><path d="M182.89,317.46 C204.18,305.35 228.37,293.98 252.3,287.78 C335.54,266.19 556.22,265.53 639.3,287.78 C674.44,297.19 709.92,318.42 735.31,336.13" fill="none" id="Electric-GMN20" style="stroke:#000000;stroke-width:1;stroke-dasharray:7,7;"/></g><!--SRC=[TLFRZjCm47ttLmnle5LNFAyG4biji58HYF03atYQMklOmPT0OVcWvJVwOumJnN7JvQLApvavSsR6yo8Sg2FeDIeZX7zGfaU77JGQlNyNWbDr37JVM5EfNmIlro7lhGbLE6g2scefX3A1t1uRWZjD3QSty5i0NBKKRZ4mTzpHGFhbgnlWqCGq1tGj9M2mIYR444c_JR0oRI9gQpMX4NzA_QzA4jPSUDR_X3-hdbDJXhIHgKGu3ilYPm8xYt8jaB32c-Q_M_PXItlHNC8iF8u3RjN39BYf7Hfv0nNFmBG9wAmaNG1NZdfKhfIMolCcZlTc_upqnzYX-M9_a2Evb36ngybztdyWT7uodZFc5HIcfXriiST6XUFSw8oFkrc9Z8qk2jqqf5LGuZaG1pHJcDT4FVTPzJOijaQPDu-RpKKp1LMwBk3iey2Aia9SpEVw-l5jVYRYR1WZDIFFK3bhwNx4vpUpndDyEOZp365i872gFGIm-wKum3SRFMZoC9oUjFN0loFtFP9dMbera0cWkbwVdZfA3nWQueKncP-p82CXbLWNojO0TiY77lbw0yXSZl6UubZXz3Su0hvr6LNm_rNCBR7Yuhf94m4AwIErJwLou6FmlNN9UYez7NrHuXy0]--></g></svg>