<svg xmlns="http://www.w3.org/2000/svg" xmlns:xlink="http://www.w3.org/1999/xlink" contentStyleType="text/css" data-diagram-type="CLASS" height="395px" preserveAspectRatio="none" style="width:908px;height:395px;background:#FFFFFF;" version="1.1" viewBox="0 0 908 395" width="908px" zoomAndPan="magnify"><defs/><g><!--class Bike--><g class="entity" data-entity="Bike" data-source-line="6" data-uid="ent0002" id="entity_Bike"><rect fill="#FFFFFF" height="158.0781" rx="2.5" ry="2.5" style="stroke:#000000;stroke-width:1;" width="260.2402" x="336.13" y="12"/><ellipse cx="445.3624" cy="26" fill="#FFFFFF" rx="9" ry="9" style="stroke:#000000;stroke-width:1;"/><path d="M448.3312,31.6406 Q447.753,31.9375 447.1124,32.0781 Q446.4718,32.2344 445.7687,32.2344 Q443.2687,32.2344 441.9405,30.5938 Q440.628,28.9375 440.628,25.8125 Q440.628,22.6875 441.9405,21.0313 Q443.2687,19.375 445.7687,19.375 Q446.4718,19.375 447.1124,19.5313 Q447.7687,19.6875 448.3312,19.9844 L448.3312,22.7031 Q447.7062,22.125 447.1124,21.8594 Q446.5187,21.5781 445.8937,21.5781 Q444.5499,21.5781 443.8624,22.6563 Q443.1749,23.7188 443.1749,25.8125 Q443.1749,27.9063 443.8624,28.9844 Q444.5499,30.0469 445.8937,30.0469 Q446.5187,30.0469 447.1124,29.7813 Q447.7062,29.5 448.3312,28.9219 L448.3312,31.6406 Z " fill="#000000"/><text fill="#000000" font-family="Verdana" font-size="14" font-weight="bold" lengthAdjust="spacing" textLength="34.2754" x="462.8624" y="30.8467">Bike</text><line style="stroke:#000000;stroke-width:1;" x1="337.13" x2="595.3702" y1="40" y2="40"/><text fill="#000000" font-family="Verdana" font-size="14" lengthAdjust="spacing" textLength="96.9814" x="342.13" y="56.9951">-brand: String</text><text fill="#000000" font-family="Verdana" font-size="14" lengthAdjust="spacing" textLength="99.5928" x="342.13" y="73.292">-model: String</text><line style="stroke:#000000;stroke-width:1;" x1="337.13" x2="595.3702" y1="80.5938" y2="80.5938"/><text fill="#000000" font-family="Verdana" font-size="14" lengthAdjust="spacing" textLength="248.2402" x="342.13" y="97.5889">+Bike(brand: String, model: String)</text><text fill="#000000" font-family="Verdana" font-size="14" lengthAdjust="spacing" textLength="138.291" x="342.13" y="113.8857">+getBrand(): String</text><text fill="#000000" font-family="Verdana" font-size="14" lengthAdjust="spacing" textLength="138.626" x="342.13" y="130.1826">+getModel(): String</text><text fill="#000000" font-family="Verdana" font-size="14" lengthAdjust="spacing" textLength="137.6553" x="342.13" y="146.4795">+displayInfo(): void</text><text fill="#000000" font-family="Verdana" font-size="14" lengthAdjust="spacing" textLength="102.9287" x="342.13" y="162.7764">+repair(): void</text></g><!--class HumanPoweredBike--><g class="entity" data-entity="HumanPoweredBike" data-source-line="16" data-uid="ent0003" id="entity_HumanPoweredBike"><rect fill="#FFFFFF" height="109.1875" rx="2.5" ry="2.5" style="stroke:#000000;stroke-width:1;" width="446.5059" x="12" y="254.53"/><ellipse cx="152.1582" cy="268.53" fill="#FFFFFF" rx="9" ry="9" style="stroke:#000000;stroke-width:1;"/><path d="M155.127,274.1706 Q154.5488,274.4675 153.9082,274.6081 Q153.2676,274.7644 152.5645,274.7644 Q150.0645,274.7644 148.7363,273.1238 Q147.4238,271.4675 147.4238,268.3425 Q147.4238,265.2175 148.7363,263.5613 Q150.0645,261.905 152.5645,261.905 Q153.2676,261.905 153.9082,262.0613 Q154.5645,262.2175 155.127,262.5144 L155.127,265.2331 Q154.502,264.655 153.9082,264.3894 Q153.3145,264.1081 152.6895,264.1081 Q151.3457,264.1081 150.6582,265.1863 Q149.9707,266.2488 149.9707,268.3425 Q149.9707,270.4363 150.6582,271.5144 Q151.3457,272.5769 152.6895,272.5769 Q153.3145,272.5769 153.9082,272.3113 Q154.502,272.03 155.127,271.4519 L155.127,274.1706 Z " fill="#000000"/><text fill="#000000" font-family="Verdana" font-size="14" font-weight="bold" lengthAdjust="spacing" textLength="158.6895" x="169.6582" y="273.3767">HumanPoweredBike</text><line style="stroke:#000000;stroke-width:1;" x1="13" x2="457.5059" y1="282.53" y2="282.53"/><text fill="#000000" font-family="Verdana" font-size="14" lengthAdjust="spacing" textLength="144.1494" x="18" y="299.5251">-numberOfGears: int</text><line style="stroke:#000000;stroke-width:1;" x1="13" x2="457.5059" y1="306.8269" y2="306.8269"/><text fill="#000000" font-family="Verdana" font-size="14" lengthAdjust="spacing" textLength="434.5059" x="18" y="323.822">+HumanPoweredBike(brand: String, model: String, gears: int)</text><text fill="#000000" font-family="Verdana" font-size="14" lengthAdjust="spacing" textLength="186.3408" x="18" y="340.1189">+getNumberOfGears(): int</text><text fill="#000000" font-family="Verdana" font-size="14" lengthAdjust="spacing" textLength="102.9287" x="18" y="356.4157">+repair(): void</text></g><!--class ElectricBike--><g class="entity" data-entity="ElectricBike" data-source-line="23" data-uid="ent0004" id="entity_ElectricBike"><rect fill="#FFFFFF" height="158.0781" rx="2.5" ry="2.5" style="stroke:#000000;stroke-width:1;" width="407.541" x="493.48" y="230.08"/><ellipse cx="646.9375" cy="244.08" fill="#FFFFFF" rx="9" ry="9" style="stroke:#000000;stroke-width:1;"/><path d="M649.9063,249.7206 Q649.3281,250.0175 648.6875,250.1581 Q648.0469,250.3144 647.3438,250.3144 Q644.8438,250.3144 643.5156,248.6738 Q642.2031,247.0175 642.2031,243.8925 Q642.2031,240.7675 643.5156,239.1113 Q644.8438,237.455 647.3438,237.455 Q648.0469,237.455 648.6875,237.6113 Q649.3438,237.7675 649.9063,238.0644 L649.9063,240.7831 Q649.2813,240.205 648.6875,239.9394 Q648.0938,239.6581 647.4688,239.6581 Q646.125,239.6581 645.4375,240.7363 Q644.75,241.7988 644.75,243.8925 Q644.75,245.9863 645.4375,247.0644 Q646.125,248.1269 647.4688,248.1269 Q648.0938,248.1269 648.6875,247.8613 Q649.2813,247.58 649.9063,247.0019 L649.9063,249.7206 Z " fill="#000000"/><text fill="#000000" font-family="Verdana" font-size="14" font-weight="bold" lengthAdjust="spacing" textLength="93.126" x="664.4375" y="248.9267">ElectricBike</text><line style="stroke:#000000;stroke-width:1;" x1="494.48" x2="900.021" y1="258.08" y2="258.08"/><text fill="#000000" font-family="Verdana" font-size="14" lengthAdjust="spacing" textLength="144.751" x="499.48" y="275.0751">-batteryCapacity: int</text><text fill="#000000" font-family="Verdana" font-size="14" lengthAdjust="spacing" textLength="120.7705" x="499.48" y="291.372">-batteryLevel: int</text><line style="stroke:#000000;stroke-width:1;" x1="494.48" x2="900.021" y1="298.6738" y2="298.6738"/><text fill="#000000" font-family="Verdana" font-size="14" lengthAdjust="spacing" textLength="395.541" x="499.48" y="315.6689">+ElectricBike(brand: String, model: String, capacity: int)</text><text fill="#000000" font-family="Verdana" font-size="14" lengthAdjust="spacing" textLength="186.0605" x="499.48" y="331.9657">+getBatteryCapacity(): int</text><text fill="#000000" font-family="Verdana" font-size="14" lengthAdjust="spacing" textLength="162.0801" x="499.48" y="348.2626">+getBatteryLevel(): int</text><text fill="#000000" font-family="Verdana" font-size="14" lengthAdjust="spacing" textLength="109.8535" x="499.48" y="364.5595">+charge(): void</text><text fill="#000000" font-family="Verdana" font-size="14" lengthAdjust="spacing" textLength="102.9287" x="499.48" y="380.8564">+repair(): void</text></g><!--reverse link Bike to HumanPoweredBike--><g class="link" data-entity-1="Bike" data-entity-2="HumanPoweredBike" data-source-line="33" data-uid="lnk5" id="link_Bike_HumanPoweredBike"><path codeLine="33" d="M369.3843,182.6559 C339.6843,210.4359 320.1,228.76 293.04,254.06" fill="none" id="Bike-backto-HumanPoweredBike" style="stroke:#000000;stroke-width:1;"/><polygon fill="none" points="382.53,170.36,365.2856,178.274,373.4829,187.0378,382.53,170.36" style="stroke:#000000;stroke-width:1;"/></g><!--reverse link Bike to ElectricBike--><g class="link" data-entity-1="Bike" data-entity-2="ElectricBike" data-source-line="34" data-uid="lnk6" id="link_Bike_ElectricBike"><path codeLine="34" d="M563.1242,182.6576 C583.7742,201.9776 592.76,210.38 613.43,229.71" fill="none" id="Bike-backto-ElectricBike" style="stroke:#000000;stroke-width:1;"/><polygon fill="none" points="549.98,170.36,559.025,187.039,567.2234,178.2762,549.98,170.36" style="stroke:#000000;stroke-width:1;"/></g><!--SRC=[XP39RiCm34Jl-Whsbg0nq7FGIrDq2T0Dy1VG4kC8qMB8T0ft-VTQHkp8APfUPuR3HrxmbYn1PL0x8UgTTXK6j20DrlKDSz15mxIMtkNwW-3gD7Bl7UVS6eB26oL4By9AxmW-1K1M17Hg2NbNvCeeMA_89C9bpCuciGLCGlEOAebNCJERfxET-XoZKrNfkhkdNRkDZyRUQnNbG1NgC2hV0-nZOz6z-NSAf8xWhh45XTVD0s6ebw0TnuxJx5dm1PJZy734IreRMGx5Vy7T6P9TcKm-YimKsbkiK6fkXuP1Vw9z93ZKfkF_iCgqSFpvT5a2V3JxZOaZjnXAEl_v_fphhopxzVt4Ik753m00]--></g></svg>