<svg xmlns="http://www.w3.org/2000/svg" xmlns:xlink="http://www.w3.org/1999/xlink" contentStyleType="text/css" data-diagram-type="CLASS" height="135px" preserveAspectRatio="none" style="width:144px;height:135px;background:#FFFFFF;" version="1.1" viewBox="0 0 144 135" width="144px" zoomAndPan="magnify"><defs/><g><!--class Car--><g class="entity" data-entity="Car" data-source-line="6" data-uid="ent0002" id="entity_Car"><rect fill="#FFFFFF" height="109.1875" rx="2.5" ry="2.5" style="stroke:#000000;stroke-width:1;" width="118.2715" x="12" y="12"/><ellipse cx="54.0728" cy="26" fill="#FFFFFF" rx="9" ry="9" style="stroke:#000000;stroke-width:1;"/><path d="M57.0415,31.6406 Q56.4634,31.9375 55.8228,32.0781 Q55.1821,32.2344 54.479,32.2344 Q51.979,32.2344 50.6509,30.5938 Q49.3384,28.9375 49.3384,25.8125 Q49.3384,22.6875 50.6509,21.0313 Q51.979,19.375 54.479,19.375 Q55.1821,19.375 55.8228,19.5313 Q56.479,19.6875 57.0415,19.9844 L57.0415,22.7031 Q56.4165,22.125 55.8228,21.8594 Q55.229,21.5781 54.604,21.5781 Q53.2603,21.5781 52.5728,22.6563 Q51.8853,23.7188 51.8853,25.8125 Q51.8853,27.9063 52.5728,28.9844 Q53.2603,30.0469 54.604,30.0469 Q55.229,30.0469 55.8228,29.7813 Q56.4165,29.5 57.0415,28.9219 L57.0415,31.6406 Z " fill="#000000"/><text fill="#000000" font-family="Verdana" font-size="14" font-weight="bold" lengthAdjust="spacing" textLength="26.626" x="71.5728" y="30.8467">Car</text><line style="stroke:#000000;stroke-width:1;" x1="13" x2="129.2715" y1="40" y2="40"/><text fill="#000000" font-family="Verdana" font-size="14" lengthAdjust="spacing" textLength="103.6602" x="18" y="56.9951">+brand: String</text><text fill="#000000" font-family="Verdana" font-size="14" lengthAdjust="spacing" textLength="106.2715" x="18" y="73.292">+model: String</text><text fill="#000000" font-family="Verdana" font-size="14" lengthAdjust="spacing" textLength="70.3828" x="18" y="89.5889">+year: int</text><line style="stroke:#000000;stroke-width:1;" x1="13" x2="129.2715" y1="96.8906" y2="96.8906"/><text fill="#000000" font-family="Verdana" font-size="14" lengthAdjust="spacing" textLength="94.0557" x="18" y="113.8857">+start(): void</text></g><!--SRC=[NSn12W8n38NXVKuHTueCkEvE1C5rJv1EWmRRT4YZC8ftTvYTBj_7uz_uZIlZL4WKeDz59pAgE1Rg_UXkaXxEbx5fb1VZuVzoRkhHvyAOMia0A-A93D-0kCTaf3bWN49wNQMspEL7PYOBAEhB6eQLkfFvTXVmsIJ31xu0]--></g></svg>