<svg xmlns="http://www.w3.org/2000/svg" xmlns:xlink="http://www.w3.org/1999/xlink" contentStyleType="text/css" data-diagram-type="CLASS" height="135px" preserveAspectRatio="none" style="width:261px;height:135px;background:#FFFFFF;" version="1.1" viewBox="0 0 261 135" width="261px" zoomAndPan="magnify"><defs/><g><!--class Person--><g class="entity" data-entity="Person" data-source-line="6" data-uid="ent0002" id="entity_Person"><rect fill="#FFFFFF" height="109.1875" rx="2.5" ry="2.5" style="stroke:#000000;stroke-width:1;" width="235.248" x="12" y="12"/><ellipse cx="98.585" cy="26" fill="#FFFFFF" rx="9" ry="9" style="stroke:#000000;stroke-width:1;"/><path d="M101.5537,31.6406 Q100.9756,31.9375 100.335,32.0781 Q99.6943,32.2344 98.9912,32.2344 Q96.4912,32.2344 95.1631,30.5938 Q93.8506,28.9375 93.8506,25.8125 Q93.8506,22.6875 95.1631,21.0313 Q96.4912,19.375 98.9912,19.375 Q99.6943,19.375 100.335,19.5313 Q100.9912,19.6875 101.5537,19.9844 L101.5537,22.7031 Q100.9287,22.125 100.335,21.8594 Q99.7412,21.5781 99.1162,21.5781 Q97.7725,21.5781 97.085,22.6563 Q96.3975,23.7188 96.3975,25.8125 Q96.3975,27.9063 97.085,28.9844 Q97.7725,30.0469 99.1162,30.0469 Q99.7412,30.0469 100.335,29.7813 Q100.9287,29.5 101.5537,28.9219 L101.5537,31.6406 Z " fill="#000000"/><text fill="#000000" font-family="Verdana" font-size="14" font-weight="bold" lengthAdjust="spacing" textLength="54.5781" x="116.085" y="30.8467">Person</text><line style="stroke:#000000;stroke-width:1;" x1="13" x2="246.248" y1="40" y2="40"/><text fill="#000000" font-family="Verdana" font-size="14" lengthAdjust="spacing" textLength="102.3818" x="18" y="56.9951">+name: String</text><text fill="#000000" font-family="Verdana" font-size="14" lengthAdjust="spacing" textLength="65.2285" x="18" y="73.292">+age: int</text><line style="stroke:#000000;stroke-width:1;" x1="13" x2="246.248" y1="80.5938" y2="80.5938"/><text fill="#000000" font-family="Verdana" font-size="14" lengthAdjust="spacing" textLength="223.248" x="18" y="97.5889">+Person(name: String, age: int)</text><text fill="#000000" font-family="Verdana" font-size="14" lengthAdjust="spacing" textLength="137.6553" x="18" y="113.8857">+displayInfo(): void</text></g><!--SRC=[NSx12i8m3CRnUvuYtZPqu7atBy9kGf-WM-CCjkbeep35TxTK4F7u_VaHij4B1SB5MnQ0V6LPRB819szpFgWc7czAmnJ5y8Dm_q-EKTJewWd7w1r0ZNYYbAFW4n2tA3PGZwQSaha6EvVDecLqNIqVt_pAtPUrbJZEvSbra7DisXxlaHsyu0q0]--></g></svg>