<svg xmlns="http://www.w3.org/2000/svg" xmlns:xlink="http://www.w3.org/1999/xlink" contentStyleType="text/css" data-diagram-type="CLASS" height="135px" preserveAspectRatio="none" style="width:146px;height:135px;background:#FFFFFF;" version="1.1" viewBox="0 0 146 135" width="146px" zoomAndPan="magnify"><defs/><g><!--class Book--><g class="entity" data-entity="Book" data-source-line="6" data-uid="ent0002" id="entity_Book"><rect fill="#FFFFFF" height="109.1875" rx="2.5" ry="2.5" style="stroke:#000000;stroke-width:1;" width="120.8145" x="12" y="12"/><ellipse cx="49.1185" cy="26" fill="#FFFFFF" rx="9" ry="9" style="stroke:#000000;stroke-width:1;"/><path d="M52.0873,31.6406 Q51.5091,31.9375 50.8685,32.0781 Q50.2279,32.2344 49.5248,32.2344 Q47.0248,32.2344 45.6966,30.5938 Q44.3841,28.9375 44.3841,25.8125 Q44.3841,22.6875 45.6966,21.0313 Q47.0248,19.375 49.5248,19.375 Q50.2279,19.375 50.8685,19.5313 Q51.5248,19.6875 52.0873,19.9844 L52.0873,22.7031 Q51.4623,22.125 50.8685,21.8594 Q50.2748,21.5781 49.6498,21.5781 Q48.306,21.5781 47.6185,22.6563 Q46.931,23.7188 46.931,25.8125 Q46.931,27.9063 47.6185,28.9844 Q48.306,30.0469 49.6498,30.0469 Q50.2748,30.0469 50.8685,29.7813 Q51.4623,29.5 52.0873,28.9219 L52.0873,31.6406 Z " fill="#000000"/><text fill="#000000" font-family="Verdana" font-size="14" font-weight="bold" lengthAdjust="spacing" textLength="39.2178" x="66.4782" y="30.8467">Book</text><line style="stroke:#000000;stroke-width:1;" x1="13" x2="131.8145" y1="40" y2="40"/><text fill="#000000" font-family="Verdana" font-size="14" lengthAdjust="spacing" textLength="90.0498" x="18" y="56.9951">+title: String</text><text fill="#000000" font-family="Verdana" font-size="14" lengthAdjust="spacing" textLength="108.8145" x="18" y="73.292">+author: String</text><text fill="#000000" font-family="Verdana" font-size="14" lengthAdjust="spacing" textLength="81.4092" x="18" y="89.5889">+pages: int</text><text fill="#000000" font-family="Verdana" font-size="14" lengthAdjust="spacing" textLength="103.4551" x="18" y="105.8857">+price: double</text><line style="stroke:#000000;stroke-width:1;" x1="13" x2="131.8145" y1="113.1875" y2="113.1875"/></g><!--SRC=[NSon3i8m30JGtLzXPXRcRZ0WCUSBajHghRfsb3W3LFmxLPbWlAUxE_bCAs6Ho0hG5jOIQrmnIspjwbuvTQT7DWty8hpyL-wc7lmfXCba13WGRsOBRe1uHcSN6Z3iJpeT4hlFLd-en8dQWAp-ZPNplXcj9o5ummS0]--></g></svg>