<svg xmlns="http://www.w3.org/2000/svg" xmlns:xlink="http://www.w3.org/1999/xlink" contentStyleType="text/css" data-diagram-type="CLASS" height="200px" preserveAspectRatio="none" style="width:347px;height:200px;background:#FFFFFF;" version="1.1" viewBox="0 0 347 200" width="347px" zoomAndPan="magnify"><defs/><g><!--class Car--><g class="entity" data-entity="Car" data-source-line="6" data-uid="ent0002" id="entity_Car"><rect fill="#FFFFFF" height="174.375" rx="2.5" ry="2.5" style="stroke:#000000;stroke-width:1;" width="321.6885" x="12" y="12"/><ellipse cx="155.7813" cy="26" fill="#FFFFFF" rx="9" ry="9" style="stroke:#000000;stroke-width:1;"/><path d="M158.75,31.6406 Q158.1719,31.9375 157.5313,32.0781 Q156.8906,32.2344 156.1875,32.2344 Q153.6875,32.2344 152.3594,30.5938 Q151.0469,28.9375 151.0469,25.8125 Q151.0469,22.6875 152.3594,21.0313 Q153.6875,19.375 156.1875,19.375 Q156.8906,19.375 157.5313,19.5313 Q158.1875,19.6875 158.75,19.9844 L158.75,22.7031 Q158.125,22.125 157.5313,21.8594 Q156.9375,21.5781 156.3125,21.5781 Q154.9688,21.5781 154.2813,22.6563 Q153.5938,23.7188 153.5938,25.8125 Q153.5938,27.9063 154.2813,28.9844 Q154.9688,30.0469 156.3125,30.0469 Q156.9375,30.0469 157.5313,29.7813 Q158.125,29.5 158.75,28.9219 L158.75,31.6406 Z " fill="#000000"/><text fill="#000000" font-family="Verdana" font-size="14" font-weight="bold" lengthAdjust="spacing" textLength="26.626" x="173.2813" y="30.8467">Car</text><line style="stroke:#000000;stroke-width:1;" x1="13" x2="332.6885" y1="40" y2="40"/><text fill="#000000" font-family="Verdana" font-size="14" lengthAdjust="spacing" textLength="103.6602" x="18" y="56.9951">+brand: String</text><text fill="#000000" font-family="Verdana" font-size="14" lengthAdjust="spacing" textLength="106.2715" x="18" y="73.292">+model: String</text><text fill="#000000" font-family="Verdana" font-size="14" lengthAdjust="spacing" textLength="70.3828" x="18" y="89.5889">+year: int</text><text fill="#000000" font-family="Verdana" font-size="14" lengthAdjust="spacing" textLength="146.0498" x="18" y="105.8857">+isRunning: boolean</text><line style="stroke:#000000;stroke-width:1;" x1="13" x2="332.6885" y1="113.1875" y2="113.1875"/><text fill="#000000" font-family="Verdana" font-size="14" lengthAdjust="spacing" textLength="309.6885" x="18" y="130.1826">+Car(brand: String, model: String, year: int)</text><text fill="#000000" font-family="Verdana" font-size="14" lengthAdjust="spacing" textLength="94.0557" x="18" y="146.4795">+start(): void</text><text fill="#000000" font-family="Verdana" font-size="14" lengthAdjust="spacing" textLength="91.6836" x="18" y="162.7764">+stop(): void</text><text fill="#000000" font-family="Verdana" font-size="14" lengthAdjust="spacing" textLength="123.0879" x="18" y="179.0732">+getInfo(): String</text></g><!--SRC=[NSx12i8m383XUvyYtZRSm7Dl8WYxkYV8rZYBNJhQJ9ZYkrlBGEOnNzgVxEH68y7aqB9IyMvvme0Zz0vZF8e4syr2JU-vjK-2m_-JisTfPN44dNT6gOnmmW0l1R27BY0R3MqAyP1bz8RSHXR2eC6ovCd6oyoSTZeblIFan7MTTwbRR8hLDbVzMcN-40M35AM6XxTc5JzjO21f-Eg_jjxqLXy0]--></g></svg>