<svg xmlns="http://www.w3.org/2000/svg" xmlns:xlink="http://www.w3.org/1999/xlink" contentStyleType="text/css" data-diagram-type="CLASS" height="216px" preserveAspectRatio="none" style="width:459px;height:216px;background:#FFFFFF;" version="1.1" viewBox="0 0 459 216" width="459px" zoomAndPan="magnify"><defs/><g><!--class Book--><g class="entity" data-entity="Book" data-source-line="6" data-uid="ent0002" id="entity_Book"><rect fill="#FFFFFF" height="190.6719" rx="2.5" ry="2.5" style="stroke:#000000;stroke-width:1;" width="433.0049" x="12" y="12"/><ellipse cx="205.1436" cy="26" fill="#FFFFFF" rx="9" ry="9" style="stroke:#000000;stroke-width:1;"/><path d="M208.1123,31.6406 Q207.5342,31.9375 206.8936,32.0781 Q206.2529,32.2344 205.5498,32.2344 Q203.0498,32.2344 201.7217,30.5938 Q200.4092,28.9375 200.4092,25.8125 Q200.4092,22.6875 201.7217,21.0313 Q203.0498,19.375 205.5498,19.375 Q206.2529,19.375 206.8936,19.5313 Q207.5498,19.6875 208.1123,19.9844 L208.1123,22.7031 Q207.4873,22.125 206.8936,21.8594 Q206.2998,21.5781 205.6748,21.5781 Q204.3311,21.5781 203.6436,22.6563 Q202.9561,23.7188 202.9561,25.8125 Q202.9561,27.9063 203.6436,28.9844 Q204.3311,30.0469 205.6748,30.0469 Q206.2998,30.0469 206.8936,29.7813 Q207.4873,29.5 208.1123,28.9219 L208.1123,31.6406 Z " fill="#000000"/><text fill="#000000" font-family="Verdana" font-size="14" font-weight="bold" lengthAdjust="spacing" textLength="39.2178" x="222.6436" y="30.8467">Book</text><line style="stroke:#000000;stroke-width:1;" x1="13" x2="444.0049" y1="40" y2="40"/><text fill="#000000" font-family="Verdana" font-size="14" lengthAdjust="spacing" textLength="90.0498" x="18" y="56.9951">+title: String</text><text fill="#000000" font-family="Verdana" font-size="14" lengthAdjust="spacing" textLength="108.8145" x="18" y="73.292">+author: String</text><text fill="#000000" font-family="Verdana" font-size="14" lengthAdjust="spacing" textLength="81.4092" x="18" y="89.5889">+pages: int</text><text fill="#000000" font-family="Verdana" font-size="14" lengthAdjust="spacing" textLength="103.4551" x="18" y="105.8857">+price: double</text><text fill="#000000" font-family="Verdana" font-size="14" lengthAdjust="spacing" textLength="152.2432" x="18" y="122.1826">+isAvailable: boolean</text><line style="stroke:#000000;stroke-width:1;" x1="13" x2="444.0049" y1="129.4844" y2="129.4844"/><text fill="#000000" font-family="Verdana" font-size="14" lengthAdjust="spacing" textLength="421.0049" x="18" y="146.4795">+Book(title: String, author: String, pages: int, price: double)</text><text fill="#000000" font-family="Verdana" font-size="14" lengthAdjust="spacing" textLength="137.6553" x="18" y="162.7764">+displayInfo(): void</text><text fill="#000000" font-family="Verdana" font-size="14" lengthAdjust="spacing" textLength="110.4277" x="18" y="179.0732">+borrow(): void</text><text fill="#000000" font-family="Verdana" font-size="14" lengthAdjust="spacing" textLength="139.6514" x="18" y="195.3701">+returnBook(): void</text></g><!--SRC=[NP112i9034NtSugugrZ1TNUw45pt19asQd1CoanQKV7kjYE2TPdta_yW2plJbQ0BoE9Skh1q6F4AJS2KjcQHVMzqQ5HgVX1i_bVsAbRRFH1u3Qrp6S9EzG9F1x02OmjKGJqsoIaJxEsiSOOwF56gWCK-O-Hcl6crzu4ouRGTa0FwgSkh1a8PW_KwfvEkc8dAFqlveoZd_SjSqN8QVt0_o56BPGM3SfkvrnZrDaEHh8-IdL_yScy0]--></g></svg>