<svg xmlns="http://www.w3.org/2000/svg" xmlns:xlink="http://www.w3.org/1999/xlink" contentStyleType="text/css" data-diagram-type="CLASS" height="134px" preserveAspectRatio="none" style="width:139px;height:134px;background:#FFFFFF;" version="1.1" viewBox="0 0 139 134" width="139px" zoomAndPan="magnify"><defs/><g><!--class Car--><g class="entity" data-entity="Car" data-source-line="5" data-uid="ent0002" id="entity_Car"><rect fill="#F1F1F1" height="113.1875" rx="2.5" ry="2.5" style="stroke:#181818;stroke-width:0.5;" width="118.2715" x="7" y="7"/><ellipse cx="48.8405" cy="23" fill="#ADD1B2" rx="11" ry="11" style="stroke:#181818;stroke-width:1;"/><path d="M51.8092,28.6406 Q51.2311,28.9375 50.5905,29.0781 Q49.9499,29.2344 49.2467,29.2344 Q46.7467,29.2344 45.4186,27.5938 Q44.1061,25.9375 44.1061,22.8125 Q44.1061,19.6875 45.4186,18.0313 Q46.7467,16.375 49.2467,16.375 Q49.9499,16.375 50.5905,16.5313 Q51.2467,16.6875 51.8092,16.9844 L51.8092,19.7031 Q51.1842,19.125 50.5905,18.8594 Q49.9967,18.5781 49.3717,18.5781 Q48.028,18.5781 47.3405,19.6563 Q46.653,20.7188 46.653,22.8125 Q46.653,24.9063 47.3405,25.9844 Q48.028,27.0469 49.3717,27.0469 Q49.9967,27.0469 50.5905,26.7813 Q51.1842,26.5 51.8092,25.9219 L51.8092,28.6406 Z " fill="#000000"/><text fill="#000000" font-family="sans-serif" font-size="14" font-weight="bold" lengthAdjust="spacing" textLength="26.626" x="68.805" y="27.8467">Car</text><line style="stroke:#181818;stroke-width:0.5;" x1="8" x2="124.2715" y1="39" y2="39"/><text fill="#000000" font-family="sans-serif" font-size="14" lengthAdjust="spacing" textLength="103.6602" x="13" y="55.9951">+brand: String</text><text fill="#000000" font-family="sans-serif" font-size="14" lengthAdjust="spacing" textLength="106.2715" x="13" y="72.292">+model: String</text><text fill="#000000" font-family="sans-serif" font-size="14" lengthAdjust="spacing" textLength="70.3828" x="13" y="88.5889">+year: int</text><line style="stroke:#181818;stroke-width:1;" x1="8" x2="124.2715" y1="95.8906" y2="95.8906"/><text fill="#000000" font-family="sans-serif" font-size="14" lengthAdjust="spacing" textLength="94.0557" x="13" y="112.8857">+start(): void</text></g><!--SRC=[LSp12i8m48JX-px571KfUCvD1C5pdc3JX19CDx9PXLPyzvRSUfoFuM-lB6zMdZ4MRkrcfZbyB3t7AZwl2LTgnykZYdbRIaAe9H9rn9qLFm8k2CeI7VmUagdBN6Cg1raIgqCMszSmT6h6QgUpmxVcI7_Q0000]--></g></svg>