<svg xmlns="http://www.w3.org/2000/svg" xmlns:xlink="http://www.w3.org/1999/xlink" contentStyleType="text/css" data-diagram-type="ACTIVITY" height="219px" preserveAspectRatio="none" style="width:226px;height:219px;background:#FFFFFF;" version="1.1" viewBox="0 0 226 219" width="226px" zoomAndPan="magnify"><defs/><g><ellipse cx="101.3601" cy="15" fill="#FFFFFF" rx="10" ry="10" style="stroke:#000000;stroke-width:1;"/><rect fill="#FFFFFF" height="33.9688" rx="12.5" ry="12.5" style="stroke:#000000;stroke-width:1;" width="189.1426" x="6.7888" y="93.4023"/><text fill="#000000" font-family="Verdana" font-size="12" lengthAdjust="spacing" textLength="169.1426" x="16.7888" y="114.541">Afficher "Tout est en ordre."</text><polygon fill="#FFFFFF" points="27,45,175.7202,45,187.7202,57,175.7202,69,27,69,15,57,27,45" style="stroke:#000000;stroke-width:1;"/><text fill="#000000" font-family="Verdana" font-size="11" lengthAdjust="spacing" textLength="22.5747" x="105.3601" y="79.2104">true</text><text fill="#000000" font-family="Verdana" font-size="11" lengthAdjust="spacing" textLength="145.2236" x="27" y="60.8081">!hasError &amp;&amp; !hasWarning</text><polygon fill="#FFFFFF" points="101.3601,147.3711,113.3601,159.3711,101.3601,171.3711,89.3601,159.3711,101.3601,147.3711" style="stroke:#000000;stroke-width:1;"/><ellipse cx="101.3601" cy="202.3711" fill="none" rx="11" ry="11" style="stroke:#000000;stroke-width:1;"/><ellipse cx="101.3601" cy="202.3711" fill="#FFFFFF" rx="6" ry="6" style="stroke:#000000;stroke-width:1;"/><line style="stroke:#000000;stroke-width:1;" x1="101.3601" x2="101.3601" y1="69" y2="93.4023"/><polygon fill="#000000" points="97.3601,83.4023,101.3601,93.4023,105.3601,83.4023,101.3601,87.4023" style="stroke:#000000;stroke-width:1;"/><line style="stroke:#000000;stroke-width:1;" x1="187.7202" x2="205.9314" y1="57" y2="57"/><polygon fill="#000000" points="201.9314,100.3867,205.9314,110.3867,209.9314,100.3867,205.9314,104.3867" style="stroke:#000000;stroke-width:1;"/><line style="stroke:#000000;stroke-width:1;" x1="205.9314" x2="205.9314" y1="57" y2="159.3711"/><line style="stroke:#000000;stroke-width:1;" x1="205.9314" x2="113.3601" y1="159.3711" y2="159.3711"/><polygon fill="#000000" points="123.3601,155.3711,113.3601,159.3711,123.3601,163.3711,119.3601,159.3711" style="stroke:#000000;stroke-width:1;"/><line style="stroke:#000000;stroke-width:1;" x1="101.3601" x2="101.3601" y1="127.3711" y2="147.3711"/><polygon fill="#000000" points="97.3601,137.3711,101.3601,147.3711,105.3601,137.3711,101.3601,141.3711" style="stroke:#000000;stroke-width:1;"/><line style="stroke:#000000;stroke-width:1;" x1="101.3601" x2="101.3601" y1="25" y2="45"/><polygon fill="#000000" points="97.3601,35,101.3601,45,105.3601,35,101.3601,39" style="stroke:#000000;stroke-width:1;"/><line style="stroke:#000000;stroke-width:1;" x1="101.3601" x2="101.3601" y1="171.3711" y2="191.3711"/><polygon fill="#000000" points="97.3601,181.3711,101.3601,191.3711,105.3601,181.3711,101.3601,185.3711" style="stroke:#000000;stroke-width:1;"/><!--SRC=[5Omn3eCm40JxUyL2WQ390qAL8Z-8bDg2StmIEQFryVyunHHJp0nHzAiuZsGkqY8nn3BceQJs92inJVZBEz7DFrZG2ySSl7GHuFx8sRQYnFYgLq1Rnr6vKs_ZAkgxvJwkf_m0]--></g></svg>