<svg xmlns="http://www.w3.org/2000/svg" xmlns:xlink="http://www.w3.org/1999/xlink" contentStyleType="text/css" data-diagram-type="ACTIVITY" height="190px" preserveAspectRatio="none" style="width:475px;height:190px;background:#FFFFFF;" version="1.1" viewBox="0 0 475 190" width="475px" zoomAndPan="magnify"><defs/><g><ellipse cx="237.5303" cy="15" fill="#FFFFFF" rx="10" ry="10" style="stroke:#000000;stroke-width:1;"/><polygon fill="#FFFFFF" points="209.2944,45,265.7661,45,277.7661,57,265.7661,69,209.2944,69,197.2944,57,209.2944,45" style="stroke:#000000;stroke-width:1;"/><text fill="#000000" font-family="Verdana" font-size="11" lengthAdjust="spacing" textLength="56.4717" x="209.2944" y="60.8081">canBook ?</text><text fill="#000000" font-family="Verdana" font-size="11" lengthAdjust="spacing" textLength="22.5747" x="174.7197" y="54.4058">true</text><text fill="#000000" font-family="Verdana" font-size="11" lengthAdjust="spacing" textLength="26.168" x="277.7661" y="54.4058">false</text><rect fill="#FFFFFF" height="33.9688" rx="12.5" ry="12.5" style="stroke:#000000;stroke-width:1;" width="221.2168" x="6" y="79"/><text fill="#000000" font-family="Verdana" font-size="12" lengthAdjust="spacing" textLength="201.2168" x="16" y="100.1387">Afficher "R&#233;servation confirm&#233;e."</text><rect fill="#FFFFFF" height="33.9688" rx="12.5" ry="12.5" style="stroke:#000000;stroke-width:1;" width="222.4707" x="247.2168" y="79"/><text fill="#000000" font-family="Verdana" font-size="12" lengthAdjust="spacing" textLength="202.4707" x="257.2168" y="100.1387">Afficher "Impossible de r&#233;server."</text><polygon fill="#FFFFFF" points="237.5303,118.9688,249.5303,130.9688,237.5303,142.9688,225.5303,130.9688,237.5303,118.9688" style="stroke:#000000;stroke-width:1;"/><ellipse cx="237.5303" cy="173.9688" fill="none" rx="11" ry="11" style="stroke:#000000;stroke-width:1;"/><ellipse cx="237.5303" cy="173.9688" fill="#FFFFFF" rx="6" ry="6" style="stroke:#000000;stroke-width:1;"/><line style="stroke:#000000;stroke-width:1;" x1="197.2944" x2="116.6084" y1="57" y2="57"/><line style="stroke:#000000;stroke-width:1;" x1="116.6084" x2="116.6084" y1="57" y2="79"/><polygon fill="#000000" points="112.6084,69,116.6084,79,120.6084,69,116.6084,73" style="stroke:#000000;stroke-width:1;"/><line style="stroke:#000000;stroke-width:1;" x1="277.7661" x2="358.4521" y1="57" y2="57"/><line style="stroke:#000000;stroke-width:1;" x1="358.4521" x2="358.4521" y1="57" y2="79"/><polygon fill="#000000" points="354.4521,69,358.4521,79,362.4521,69,358.4521,73" style="stroke:#000000;stroke-width:1;"/><line style="stroke:#000000;stroke-width:1;" x1="116.6084" x2="116.6084" y1="112.9688" y2="130.9688"/><line style="stroke:#000000;stroke-width:1;" x1="116.6084" x2="225.5303" y1="130.9688" y2="130.9688"/><polygon fill="#000000" points="215.5303,126.9688,225.5303,130.9688,215.5303,134.9688,219.5303,130.9688" style="stroke:#000000;stroke-width:1;"/><line style="stroke:#000000;stroke-width:1;" x1="358.4521" x2="358.4521" y1="112.9688" y2="130.9688"/><line style="stroke:#000000;stroke-width:1;" x1="358.4521" x2="249.5303" y1="130.9688" y2="130.9688"/><polygon fill="#000000" points="259.5303,126.9688,249.5303,130.9688,259.5303,134.9688,255.5303,130.9688" style="stroke:#000000;stroke-width:1;"/><line style="stroke:#000000;stroke-width:1;" x1="237.5303" x2="237.5303" y1="25" y2="45"/><polygon fill="#000000" points="233.5303,35,237.5303,45,241.5303,35,237.5303,39" style="stroke:#000000;stroke-width:1;"/><line style="stroke:#000000;stroke-width:1;" x1="237.5303" x2="237.5303" y1="142.9688" y2="162.9688"/><polygon fill="#000000" points="233.5303,152.9688,237.5303,162.9688,241.5303,152.9688,237.5303,156.9688" style="stroke:#000000;stroke-width:1;"/><!--SRC=[NOwn4S8m34LxJI5IEGq3GC51Hyi6nf4kEcmf9plib3co63xeg5xptxztQ3CLmYL7KO3QeZSGnf2YtinUU1cnBnH3yvL6G3nTcINDv3WyzgsIlsCJKqocB5xsZOx36IXNmi2nuq-wbyLgbMScd0ZzTq7-bNGIxWssm0S0]--></g></svg>