<svg xmlns="http://www.w3.org/2000/svg" xmlns:xlink="http://www.w3.org/1999/xlink" contentStyleType="text/css" data-diagram-type="ACTIVITY" height="190px" preserveAspectRatio="none" style="width:613px;height:190px;background:#FFFFFF;" version="1.1" viewBox="0 0 613 190" width="613px" zoomAndPan="magnify"><defs/><g><ellipse cx="269.5166" cy="15" fill="#FFFFFF" rx="10" ry="10" style="stroke:#000000;stroke-width:1;"/><polygon fill="#FFFFFF" points="130.502,45,408.5313,45,420.5313,57,408.5313,69,130.502,69,118.502,57,130.502,45" style="stroke:#000000;stroke-width:1;"/><text fill="#000000" font-family="Verdana" font-size="11" lengthAdjust="spacing" textLength="278.0293" x="130.502" y="60.8081">hasMinLength &amp;&amp; hasUpperCase &amp;&amp; hasNumber ?</text><text fill="#000000" font-family="Verdana" font-size="11" lengthAdjust="spacing" textLength="22.5747" x="95.9272" y="54.4058">true</text><text fill="#000000" font-family="Verdana" font-size="11" lengthAdjust="spacing" textLength="26.168" x="420.5313" y="54.4058">false</text><rect fill="#FFFFFF" height="33.9688" rx="12.5" ry="12.5" style="stroke:#000000;stroke-width:1;" width="205.0039" x="6" y="79"/><text fill="#000000" font-family="Verdana" font-size="12" lengthAdjust="spacing" textLength="185.0039" x="16" y="100.1387">Afficher "Mot de passe valide."</text><rect fill="#FFFFFF" height="33.9688" rx="12.5" ry="12.5" style="stroke:#000000;stroke-width:1;" width="354.3125" x="253.375" y="79"/><text fill="#000000" font-family="Verdana" font-size="12" lengthAdjust="spacing" textLength="334.3125" x="263.375" y="100.1387">Afficher "Le mot de passe ne respecte pas les crit&#232;res."</text><polygon fill="#FFFFFF" points="269.5166,118.9688,281.5166,130.9688,269.5166,142.9688,257.5166,130.9688,269.5166,118.9688" style="stroke:#000000;stroke-width:1;"/><ellipse cx="269.5166" cy="173.9688" fill="none" rx="11" ry="11" style="stroke:#000000;stroke-width:1;"/><ellipse cx="269.5166" cy="173.9688" fill="#FFFFFF" rx="6" ry="6" style="stroke:#000000;stroke-width:1;"/><line style="stroke:#000000;stroke-width:1;" x1="118.502" x2="108.502" y1="57" y2="57"/><line style="stroke:#000000;stroke-width:1;" x1="108.502" x2="108.502" y1="57" y2="79"/><polygon fill="#000000" points="104.502,69,108.502,79,112.502,69,108.502,73" style="stroke:#000000;stroke-width:1;"/><line style="stroke:#000000;stroke-width:1;" x1="420.5313" x2="430.5313" y1="57" y2="57"/><line style="stroke:#000000;stroke-width:1;" x1="430.5313" x2="430.5313" y1="57" y2="79"/><polygon fill="#000000" points="426.5313,69,430.5313,79,434.5313,69,430.5313,73" style="stroke:#000000;stroke-width:1;"/><line style="stroke:#000000;stroke-width:1;" x1="108.502" x2="108.502" y1="112.9688" y2="130.9688"/><line style="stroke:#000000;stroke-width:1;" x1="108.502" x2="257.5166" y1="130.9688" y2="130.9688"/><polygon fill="#000000" points="247.5166,126.9688,257.5166,130.9688,247.5166,134.9688,251.5166,130.9688" style="stroke:#000000;stroke-width:1;"/><line style="stroke:#000000;stroke-width:1;" x1="430.5313" x2="430.5313" y1="112.9688" y2="130.9688"/><line style="stroke:#000000;stroke-width:1;" x1="430.5313" x2="281.5166" y1="130.9688" y2="130.9688"/><polygon fill="#000000" points="291.5166,126.9688,281.5166,130.9688,291.5166,134.9688,287.5166,130.9688" style="stroke:#000000;stroke-width:1;"/><line style="stroke:#000000;stroke-width:1;" x1="269.5166" x2="269.5166" y1="25" y2="45"/><polygon fill="#000000" points="265.5166,35,269.5166,45,273.5166,35,269.5166,39" style="stroke:#000000;stroke-width:1;"/><line style="stroke:#000000;stroke-width:1;" x1="269.5166" x2="269.5166" y1="142.9688" y2="162.9688"/><polygon fill="#000000" points="265.5166,152.9688,269.5166,162.9688,273.5166,152.9688,269.5166,156.9688" style="stroke:#000000;stroke-width:1;"/><!--SRC=[NOun3i8m40Hxls994IKD3u028Tg4ZWSSpXbRSXpBll0c_i77E4KKYEeqkvhLxSJppCYHGZAc2XKnmQ7pLCUG1auFyMXRADzovdAXob- -hlET2quzT2EXax9oRu33sRbWlLRDk0WcNQUgrfDYc7ZV70r7nSwHdZzXOCo_Jc8KhfcjR0aYLzWIvFtIU9jAKt3wzvBD1m00]--></g></svg>