<svg xmlns="http://www.w3.org/2000/svg" xmlns:xlink="http://www.w3.org/1999/xlink" contentStyleType="text/css" data-diagram-type="ACTIVITY" height="219px" preserveAspectRatio="none" style="width:229px;height:219px;background:#FFFFFF;" version="1.1" viewBox="0 0 229 219" width="229px" zoomAndPan="magnify"><defs/><g><ellipse cx="104.2793" cy="15" fill="#FFFFFF" rx="10" ry="10" style="stroke:#000000;stroke-width:1;"/><rect fill="#FFFFFF" height="33.9688" rx="12.5" ry="12.5" style="stroke:#000000;stroke-width:1;" width="189.1426" x="9.708" y="93.4023"/><text fill="#000000" font-family="Verdana" font-size="12" lengthAdjust="spacing" textLength="169.1426" x="19.708" y="114.541">Afficher "Tout est en ordre."</text><polygon fill="#FFFFFF" points="27,45,181.5586,45,193.5586,57,181.5586,69,27,69,15,57,27,45" style="stroke:#000000;stroke-width:1;"/><text fill="#000000" font-family="Verdana" font-size="11" lengthAdjust="spacing" textLength="22.5747" x="108.2793" y="79.2104">true</text><text fill="#000000" font-family="Verdana" font-size="11" lengthAdjust="spacing" textLength="154.5586" x="27" y="60.8081">!hasError &amp;&amp; !hasWarning ?</text><polygon fill="#FFFFFF" points="104.2793,147.3711,116.2793,159.3711,104.2793,171.3711,92.2793,159.3711,104.2793,147.3711" style="stroke:#000000;stroke-width:1;"/><ellipse cx="104.2793" cy="202.3711" fill="none" rx="11" ry="11" style="stroke:#000000;stroke-width:1;"/><ellipse cx="104.2793" cy="202.3711" fill="#FFFFFF" rx="6" ry="6" style="stroke:#000000;stroke-width:1;"/><line style="stroke:#000000;stroke-width:1;" x1="104.2793" x2="104.2793" y1="69" y2="93.4023"/><polygon fill="#000000" points="100.2793,83.4023,104.2793,93.4023,108.2793,83.4023,104.2793,87.4023" style="stroke:#000000;stroke-width:1;"/><line style="stroke:#000000;stroke-width:1;" x1="193.5586" x2="208.8506" y1="57" y2="57"/><polygon fill="#000000" points="204.8506,100.3867,208.8506,110.3867,212.8506,100.3867,208.8506,104.3867" style="stroke:#000000;stroke-width:1;"/><line style="stroke:#000000;stroke-width:1;" x1="208.8506" x2="208.8506" y1="57" y2="159.3711"/><line style="stroke:#000000;stroke-width:1;" x1="208.8506" x2="116.2793" y1="159.3711" y2="159.3711"/><polygon fill="#000000" points="126.2793,155.3711,116.2793,159.3711,126.2793,163.3711,122.2793,159.3711" style="stroke:#000000;stroke-width:1;"/><line style="stroke:#000000;stroke-width:1;" x1="104.2793" x2="104.2793" y1="127.3711" y2="147.3711"/><polygon fill="#000000" points="100.2793,137.3711,104.2793,147.3711,108.2793,137.3711,104.2793,141.3711" style="stroke:#000000;stroke-width:1;"/><line style="stroke:#000000;stroke-width:1;" x1="104.2793" x2="104.2793" y1="25" y2="45"/><polygon fill="#000000" points="100.2793,35,104.2793,45,108.2793,35,104.2793,39" style="stroke:#000000;stroke-width:1;"/><line style="stroke:#000000;stroke-width:1;" x1="104.2793" x2="104.2793" y1="171.3711" y2="191.3711"/><polygon fill="#000000" points="100.2793,181.3711,104.2793,191.3711,108.2793,181.3711,104.2793,185.3711" style="stroke:#000000;stroke-width:1;"/><!--SRC=[5Omn3i8m40JxUyKcHPGqF80KY88V855Rv1oV1ETeVVa_ffXYYfaXYduLnoUPYxH83B6CUIYfFSXAJ1F-yafqynst1JrnpC5J5m6kzvpjNPGOd_KCQEiuAZVgPLn5VRFSp_MG7m00]--></g></svg>