<svg xmlns="http://www.w3.org/2000/svg" xmlns:xlink="http://www.w3.org/1999/xlink" contentStyleType="text/css" data-diagram-type="ACTIVITY" height="219px" preserveAspectRatio="none" style="width:227px;height:219px;background:#FFFFFF;" version="1.1" viewBox="0 0 227 219" width="227px" zoomAndPan="magnify"><defs/><g><ellipse cx="101.4944" cy="15" fill="#FFFFFF" rx="10" ry="10" style="stroke:#000000;stroke-width:1;"/><rect fill="#FFFFFF" height="33.9688" rx="12.5" ry="12.5" style="stroke:#000000;stroke-width:1;" width="189.1426" x="6.9231" y="93.4023"/><text fill="#000000" font-family="Verdana" font-size="12" lengthAdjust="spacing" textLength="169.1426" x="16.9231" y="114.541">Afficher "Tout est en ordre."</text><polygon fill="#FFFFFF" points="27,45,175.9888,45,187.9888,57,175.9888,69,27,69,15,57,27,45" style="stroke:#000000;stroke-width:1;"/><text fill="#000000" font-family="Verdana" font-size="11" lengthAdjust="spacing" textLength="22.5747" x="105.4944" y="79.2104">true</text><text fill="#000000" font-family="Verdana" font-size="11" lengthAdjust="spacing" textLength="148.9888" x="27" y="60.8081">!(hasError || hasWarning) ?</text><polygon fill="#FFFFFF" points="101.4944,147.3711,113.4944,159.3711,101.4944,171.3711,89.4944,159.3711,101.4944,147.3711" style="stroke:#000000;stroke-width:1;"/><ellipse cx="101.4944" cy="202.3711" fill="none" rx="11" ry="11" style="stroke:#000000;stroke-width:1;"/><ellipse cx="101.4944" cy="202.3711" fill="#FFFFFF" rx="6" ry="6" style="stroke:#000000;stroke-width:1;"/><line style="stroke:#000000;stroke-width:1;" x1="101.4944" x2="101.4944" y1="69" y2="93.4023"/><polygon fill="#000000" points="97.4944,83.4023,101.4944,93.4023,105.4944,83.4023,101.4944,87.4023" style="stroke:#000000;stroke-width:1;"/><line style="stroke:#000000;stroke-width:1;" x1="187.9888" x2="206.0657" y1="57" y2="57"/><polygon fill="#000000" points="202.0657,100.3867,206.0657,110.3867,210.0657,100.3867,206.0657,104.3867" style="stroke:#000000;stroke-width:1;"/><line style="stroke:#000000;stroke-width:1;" x1="206.0657" x2="206.0657" y1="57" y2="159.3711"/><line style="stroke:#000000;stroke-width:1;" x1="206.0657" x2="113.4944" y1="159.3711" y2="159.3711"/><polygon fill="#000000" points="123.4944,155.3711,113.4944,159.3711,123.4944,163.3711,119.4944,159.3711" style="stroke:#000000;stroke-width:1;"/><line style="stroke:#000000;stroke-width:1;" x1="101.4944" x2="101.4944" y1="127.3711" y2="147.3711"/><polygon fill="#000000" points="97.4944,137.3711,101.4944,147.3711,105.4944,137.3711,101.4944,141.3711" style="stroke:#000000;stroke-width:1;"/><line style="stroke:#000000;stroke-width:1;" x1="101.4944" x2="101.4944" y1="25" y2="45"/><polygon fill="#000000" points="97.4944,35,101.4944,45,105.4944,35,101.4944,39" style="stroke:#000000;stroke-width:1;"/><line style="stroke:#000000;stroke-width:1;" x1="101.4944" x2="101.4944" y1="171.3711" y2="191.3711"/><polygon fill="#000000" points="97.4944,181.3711,101.4944,191.3711,105.4944,181.3711,101.4944,185.3711" style="stroke:#000000;stroke-width:1;"/><!--SRC=[3Omn3eCm34Ltd-B3b2mSe1qGGszGYJa2XrYY3dBCnk6RuKblUM_mmZ_6TIPHekR9d2GZ3A6azZ6hXkT1zpMPYXuHSqHl5C7jvaZ0QybPjiA6yLjl1xUEejfkF8rlOjqbztMzw0y0]--></g></svg>