<svg xmlns="http://www.w3.org/2000/svg" xmlns:xlink="http://www.w3.org/1999/xlink" contentStyleType="text/css" data-diagram-type="ACTIVITY" height="219px" preserveAspectRatio="none" style="width:344px;height:219px;background:#FFFFFF;" version="1.1" viewBox="0 0 344 219" width="344px" zoomAndPan="magnify"><defs/><g><ellipse cx="163.0256" cy="15" fill="#FFFFFF" rx="10" ry="10" style="stroke:#000000;stroke-width:1;"/><rect fill="#FFFFFF" height="33.9688" rx="12.5" ry="12.5" style="stroke:#000000;stroke-width:1;" width="230.7266" x="47.6624" y="93.4023"/><text fill="#000000" font-family="Verdana" font-size="12" lengthAdjust="spacing" textLength="210.7266" x="57.6624" y="114.541">Afficher "Nom d'utilisatrice valide."</text><polygon fill="#FFFFFF" points="27,45,299.0513,45,311.0513,57,299.0513,69,27,69,15,57,27,45" style="stroke:#000000;stroke-width:1;"/><text fill="#000000" font-family="Verdana" font-size="11" lengthAdjust="spacing" textLength="22.5747" x="167.0256" y="79.2104">true</text><text fill="#000000" font-family="Verdana" font-size="11" lengthAdjust="spacing" textLength="272.0513" x="27" y="60.8081">(username != null) &amp;&amp; (username.length() &gt; 0) ?</text><polygon fill="#FFFFFF" points="163.0256,147.3711,175.0256,159.3711,163.0256,171.3711,151.0256,159.3711,163.0256,147.3711" style="stroke:#000000;stroke-width:1;"/><ellipse cx="163.0256" cy="202.3711" fill="none" rx="11" ry="11" style="stroke:#000000;stroke-width:1;"/><ellipse cx="163.0256" cy="202.3711" fill="#FFFFFF" rx="6" ry="6" style="stroke:#000000;stroke-width:1;"/><line style="stroke:#000000;stroke-width:1;" x1="163.0256" x2="163.0256" y1="69" y2="93.4023"/><polygon fill="#000000" points="159.0256,83.4023,163.0256,93.4023,167.0256,83.4023,163.0256,87.4023" style="stroke:#000000;stroke-width:1;"/><line style="stroke:#000000;stroke-width:1;" x1="311.0513" x2="323.0513" y1="57" y2="57"/><polygon fill="#000000" points="319.0513,100.3867,323.0513,110.3867,327.0513,100.3867,323.0513,104.3867" style="stroke:#000000;stroke-width:1;"/><line style="stroke:#000000;stroke-width:1;" x1="323.0513" x2="323.0513" y1="57" y2="159.3711"/><line style="stroke:#000000;stroke-width:1;" x1="323.0513" x2="175.0256" y1="159.3711" y2="159.3711"/><polygon fill="#000000" points="185.0256,155.3711,175.0256,159.3711,185.0256,163.3711,181.0256,159.3711" style="stroke:#000000;stroke-width:1;"/><line style="stroke:#000000;stroke-width:1;" x1="163.0256" x2="163.0256" y1="127.3711" y2="147.3711"/><polygon fill="#000000" points="159.0256,137.3711,163.0256,147.3711,167.0256,137.3711,163.0256,141.3711" style="stroke:#000000;stroke-width:1;"/><line style="stroke:#000000;stroke-width:1;" x1="163.0256" x2="163.0256" y1="25" y2="45"/><polygon fill="#000000" points="159.0256,35,163.0256,45,167.0256,35,163.0256,39" style="stroke:#000000;stroke-width:1;"/><line style="stroke:#000000;stroke-width:1;" x1="163.0256" x2="163.0256" y1="171.3711" y2="191.3711"/><polygon fill="#000000" points="159.0256,181.3711,163.0256,191.3711,167.0256,181.3711,163.0256,185.3711" style="stroke:#000000;stroke-width:1;"/><!--SRC=[FOqn3i8m40JxUyKcHR2RY1e4A1_W3rPynYTTdCW-ytvIqSv8CuDbtXY71Yb4pK8raWJdUkDQmgc61qfNzPWc_EciN3wMdSSJLu-NnzafS5OxUm9kIqgoPguOt_k6UEacAYrObPNn3IgHv_5ENAAaSxiVz0C0]--></g></svg>