<svg xmlns="http://www.w3.org/2000/svg" xmlns:xlink="http://www.w3.org/1999/xlink" contentStyleType="text/css" data-diagram-type="ACTIVITY" height="190px" preserveAspectRatio="none" style="width:432px;height:190px;background:#FFFFFF;" version="1.1" viewBox="0 0 432 190" width="432px" zoomAndPan="magnify"><defs/><g><ellipse cx="235.3389" cy="15" fill="#FFFFFF" rx="10" ry="10" style="stroke:#000000;stroke-width:1;"/><polygon fill="#FFFFFF" points="190.1895,45,280.4883,45,292.4883,57,280.4883,69,190.1895,69,178.1895,57,190.1895,45" style="stroke:#000000;stroke-width:1;"/><text fill="#000000" font-family="Verdana" font-size="11" lengthAdjust="spacing" textLength="90.2988" x="190.1895" y="60.8081">canUseService ?</text><text fill="#000000" font-family="Verdana" font-size="11" lengthAdjust="spacing" textLength="22.5747" x="155.6147" y="54.4058">true</text><text fill="#000000" font-family="Verdana" font-size="11" lengthAdjust="spacing" textLength="26.168" x="292.4883" y="54.4058">false</text><rect fill="#FFFFFF" height="33.9688" rx="12.5" ry="12.5" style="stroke:#000000;stroke-width:1;" width="238.5137" x="6" y="79"/><text fill="#000000" font-family="Verdana" font-size="12" lengthAdjust="spacing" textLength="218.5137" x="16" y="100.1387">Afficher "Acc&#232;s autoris&#233; au service."</text><rect fill="#FFFFFF" height="33.9688" rx="12.5" ry="12.5" style="stroke:#000000;stroke-width:1;" width="161.8145" x="264.5137" y="79"/><text fill="#000000" font-family="Verdana" font-size="12" lengthAdjust="spacing" textLength="141.8145" x="274.5137" y="100.1387">Afficher "Acc&#232;s refus&#233;."</text><polygon fill="#FFFFFF" points="235.3389,118.9688,247.3389,130.9688,235.3389,142.9688,223.3389,130.9688,235.3389,118.9688" style="stroke:#000000;stroke-width:1;"/><ellipse cx="235.3389" cy="173.9688" fill="none" rx="11" ry="11" style="stroke:#000000;stroke-width:1;"/><ellipse cx="235.3389" cy="173.9688" fill="#FFFFFF" rx="6" ry="6" style="stroke:#000000;stroke-width:1;"/><line style="stroke:#000000;stroke-width:1;" x1="178.1895" x2="125.2568" y1="57" y2="57"/><line style="stroke:#000000;stroke-width:1;" x1="125.2568" x2="125.2568" y1="57" y2="79"/><polygon fill="#000000" points="121.2568,69,125.2568,79,129.2568,69,125.2568,73" style="stroke:#000000;stroke-width:1;"/><line style="stroke:#000000;stroke-width:1;" x1="292.4883" x2="345.4209" y1="57" y2="57"/><line style="stroke:#000000;stroke-width:1;" x1="345.4209" x2="345.4209" y1="57" y2="79"/><polygon fill="#000000" points="341.4209,69,345.4209,79,349.4209,69,345.4209,73" style="stroke:#000000;stroke-width:1;"/><line style="stroke:#000000;stroke-width:1;" x1="125.2568" x2="125.2568" y1="112.9688" y2="130.9688"/><line style="stroke:#000000;stroke-width:1;" x1="125.2568" x2="223.3389" y1="130.9688" y2="130.9688"/><polygon fill="#000000" points="213.3389,126.9688,223.3389,130.9688,213.3389,134.9688,217.3389,130.9688" style="stroke:#000000;stroke-width:1;"/><line style="stroke:#000000;stroke-width:1;" x1="345.4209" x2="345.4209" y1="112.9688" y2="130.9688"/><line style="stroke:#000000;stroke-width:1;" x1="345.4209" x2="247.3389" y1="130.9688" y2="130.9688"/><polygon fill="#000000" points="257.3389,126.9688,247.3389,130.9688,257.3389,134.9688,253.3389,130.9688" style="stroke:#000000;stroke-width:1;"/><line style="stroke:#000000;stroke-width:1;" x1="235.3389" x2="235.3389" y1="25" y2="45"/><polygon fill="#000000" points="231.3389,35,235.3389,45,239.3389,35,235.3389,39" style="stroke:#000000;stroke-width:1;"/><line style="stroke:#000000;stroke-width:1;" x1="235.3389" x2="235.3389" y1="142.9688" y2="162.9688"/><polygon fill="#000000" points="231.3389,152.9688,235.3389,162.9688,239.3389,152.9688,235.3389,156.9688" style="stroke:#000000;stroke-width:1;"/><!--SRC=[ROwn3S9034LxJ_59TMaO00gK6H03d0vRiHGkaUrZ9fWZYt62bkg_uZtf7sBc1sDRibOYZsn1AaWbrvlpbUsfXN4PqRsA5DPu9E0qYMYPsJ1CfUmlHswnclh-xWJ_TSVXJBmu8qdkypyqbjQphrllAlt4kj47]--></g></svg>