<svg xmlns="http://www.w3.org/2000/svg" xmlns:xlink="http://www.w3.org/1999/xlink" contentStyleType="text/css" data-diagram-type="ACTIVITY" height="219px" preserveAspectRatio="none" style="width:356px;height:219px;background:#FFFFFF;" version="1.1" viewBox="0 0 356 219" width="356px" zoomAndPan="magnify"><defs/><g><ellipse cx="165.8125" cy="15" fill="#FFFFFF" rx="10" ry="10" style="stroke:#000000;stroke-width:1;"/><rect fill="#FFFFFF" height="33.9688" rx="12.5" ry="12.5" style="stroke:#000000;stroke-width:1;" width="319.625" x="6" y="93.4023"/><text fill="#000000" font-family="Verdana" font-size="12" lengthAdjust="spacing" textLength="299.625" x="16" y="114.541">Afficher "Conditions id&#233;ales pour une sortie v&#233;lo."</text><polygon fill="#FFFFFF" points="73.3867,45,258.2383,45,270.2383,57,258.2383,69,73.3867,69,61.3867,57,73.3867,45" style="stroke:#000000;stroke-width:1;"/><text fill="#000000" font-family="Verdana" font-size="11" lengthAdjust="spacing" textLength="22.5747" x="169.8125" y="79.2104">true</text><text fill="#000000" font-family="Verdana" font-size="11" lengthAdjust="spacing" textLength="184.8516" x="73.3867" y="60.8081">(temperature &gt; 20) &amp;&amp; isSunny ?</text><polygon fill="#FFFFFF" points="165.8125,147.3711,177.8125,159.3711,165.8125,171.3711,153.8125,159.3711,165.8125,147.3711" style="stroke:#000000;stroke-width:1;"/><ellipse cx="165.8125" cy="202.3711" fill="none" rx="11" ry="11" style="stroke:#000000;stroke-width:1;"/><ellipse cx="165.8125" cy="202.3711" fill="#FFFFFF" rx="6" ry="6" style="stroke:#000000;stroke-width:1;"/><line style="stroke:#000000;stroke-width:1;" x1="165.8125" x2="165.8125" y1="69" y2="93.4023"/><polygon fill="#000000" points="161.8125,83.4023,165.8125,93.4023,169.8125,83.4023,165.8125,87.4023" style="stroke:#000000;stroke-width:1;"/><line style="stroke:#000000;stroke-width:1;" x1="270.2383" x2="335.625" y1="57" y2="57"/><polygon fill="#000000" points="331.625,100.3867,335.625,110.3867,339.625,100.3867,335.625,104.3867" style="stroke:#000000;stroke-width:1;"/><line style="stroke:#000000;stroke-width:1;" x1="335.625" x2="335.625" y1="57" y2="159.3711"/><line style="stroke:#000000;stroke-width:1;" x1="335.625" x2="177.8125" y1="159.3711" y2="159.3711"/><polygon fill="#000000" points="187.8125,155.3711,177.8125,159.3711,187.8125,163.3711,183.8125,159.3711" style="stroke:#000000;stroke-width:1;"/><line style="stroke:#000000;stroke-width:1;" x1="165.8125" x2="165.8125" y1="127.3711" y2="147.3711"/><polygon fill="#000000" points="161.8125,137.3711,165.8125,147.3711,169.8125,137.3711,165.8125,141.3711" style="stroke:#000000;stroke-width:1;"/><line style="stroke:#000000;stroke-width:1;" x1="165.8125" x2="165.8125" y1="25" y2="45"/><polygon fill="#000000" points="161.8125,35,165.8125,45,169.8125,35,165.8125,39" style="stroke:#000000;stroke-width:1;"/><line style="stroke:#000000;stroke-width:1;" x1="165.8125" x2="165.8125" y1="171.3711" y2="191.3711"/><polygon fill="#000000" points="161.8125,181.3711,165.8125,191.3711,169.8125,181.3711,165.8125,185.3711" style="stroke:#000000;stroke-width:1;"/><!--SRC=[3Sr12i8m44RXVKxnsqL9DY8k5HJf4Jn1i1Cwa4x2P29uf9wZ5xFxz_5Ejj1Ag3coEDSigZbEyDvehQJHkX8Uk5u2nX7StbtaXsV0uGJUj5DmmEsL4dyMKWnJaPcDYpJml6ynKqCjNT65q8eQ4xxxbijvk3iwsdHiItL_]--></g></svg>