<svg xmlns="http://www.w3.org/2000/svg" xmlns:xlink="http://www.w3.org/1999/xlink" contentStyleType="text/css" data-diagram-type="ACTIVITY" height="219px" preserveAspectRatio="none" style="width:323px;height:219px;background:#FFFFFF;" version="1.1" viewBox="0 0 323 219" width="323px" zoomAndPan="magnify"><defs/><g><ellipse cx="149.1133" cy="15" fill="#FFFFFF" rx="10" ry="10" style="stroke:#000000;stroke-width:1;"/><rect fill="#FFFFFF" height="33.9688" rx="12.5" ry="12.5" style="stroke:#000000;stroke-width:1;" width="286.2266" x="6" y="93.4023"/><text fill="#000000" font-family="Verdana" font-size="12" lengthAdjust="spacing" textLength="266.2266" x="16" y="114.541">Afficher "Batterie faible, veuillez recharger."</text><polygon fill="#FFFFFF" points="97.5723,45,200.6543,45,212.6543,57,200.6543,69,97.5723,69,85.5723,57,97.5723,45" style="stroke:#000000;stroke-width:1;"/><text fill="#000000" font-family="Verdana" font-size="11" lengthAdjust="spacing" textLength="22.5747" x="153.1133" y="79.2104">true</text><text fill="#000000" font-family="Verdana" font-size="11" lengthAdjust="spacing" textLength="99.5854" x="97.5723" y="60.8081">batteryLevel &lt; 20</text><polygon fill="#FFFFFF" points="149.1133,147.3711,161.1133,159.3711,149.1133,171.3711,137.1133,159.3711,149.1133,147.3711" style="stroke:#000000;stroke-width:1;"/><ellipse cx="149.1133" cy="202.3711" fill="none" rx="11" ry="11" style="stroke:#000000;stroke-width:1;"/><ellipse cx="149.1133" cy="202.3711" fill="#FFFFFF" rx="6" ry="6" style="stroke:#000000;stroke-width:1;"/><line style="stroke:#000000;stroke-width:1;" x1="149.1133" x2="149.1133" y1="69" y2="93.4023"/><polygon fill="#000000" points="145.1133,83.4023,149.1133,93.4023,153.1133,83.4023,149.1133,87.4023" style="stroke:#000000;stroke-width:1;"/><line style="stroke:#000000;stroke-width:1;" x1="212.6543" x2="302.2266" y1="57" y2="57"/><polygon fill="#000000" points="298.2266,100.3867,302.2266,110.3867,306.2266,100.3867,302.2266,104.3867" style="stroke:#000000;stroke-width:1;"/><line style="stroke:#000000;stroke-width:1;" x1="302.2266" x2="302.2266" y1="57" y2="159.3711"/><line style="stroke:#000000;stroke-width:1;" x1="302.2266" x2="161.1133" y1="159.3711" y2="159.3711"/><polygon fill="#000000" points="171.1133,155.3711,161.1133,159.3711,171.1133,163.3711,167.1133,159.3711" style="stroke:#000000;stroke-width:1;"/><line style="stroke:#000000;stroke-width:1;" x1="149.1133" x2="149.1133" y1="127.3711" y2="147.3711"/><polygon fill="#000000" points="145.1133,137.3711,149.1133,147.3711,153.1133,137.3711,149.1133,141.3711" style="stroke:#000000;stroke-width:1;"/><line style="stroke:#000000;stroke-width:1;" x1="149.1133" x2="149.1133" y1="25" y2="45"/><polygon fill="#000000" points="145.1133,35,149.1133,45,153.1133,35,149.1133,39" style="stroke:#000000;stroke-width:1;"/><line style="stroke:#000000;stroke-width:1;" x1="149.1133" x2="149.1133" y1="171.3711" y2="191.3711"/><polygon fill="#000000" points="145.1133,181.3711,149.1133,191.3711,153.1133,181.3711,149.1133,185.3711" style="stroke:#000000;stroke-width:1;"/><!--SRC=[7Sqn2i9040NGVaxnJPM0IB1K6wszn2J-TGVMDOoJW9u-mVx1sqNcYvYAMXNvX7g89RI3Hj2_TouikE3OeyD6AzhmcPq0fsjADcOwcjiV6v7KXi8z5ivM2dzmZbdzIJyqPs5zMDgEzoGh]--></g></svg>