<svg xmlns="http://www.w3.org/2000/svg" xmlns:xlink="http://www.w3.org/1999/xlink" contentStyleType="text/css" data-diagram-type="ACTIVITY" height="219px" preserveAspectRatio="none" style="width:304px;height:219px;background:#FFFFFF;" version="1.1" viewBox="0 0 304 219" width="304px" zoomAndPan="magnify"><defs/><g><ellipse cx="143.4238" cy="15" fill="#FFFFFF" rx="10" ry="10" style="stroke:#000000;stroke-width:1;"/><rect fill="#FFFFFF" height="33.9688" rx="12.5" ry="12.5" style="stroke:#000000;stroke-width:1;" width="196.8184" x="45.0146" y="93.4023"/><text fill="#000000" font-family="Verdana" font-size="12" lengthAdjust="spacing" textLength="176.8184" x="55.0146" y="114.541">Afficher "C'est le week-end !"</text><polygon fill="#FFFFFF" points="27,45,259.8477,45,271.8477,57,259.8477,69,27,69,15,57,27,45" style="stroke:#000000;stroke-width:1;"/><text fill="#000000" font-family="Verdana" font-size="11" lengthAdjust="spacing" textLength="22.5747" x="147.4238" y="79.2104">true</text><text fill="#000000" font-family="Verdana" font-size="11" lengthAdjust="spacing" textLength="232.8477" x="27" y="60.8081">(dayOfWeek == 6) || (dayOfWeek == 7) ?</text><polygon fill="#FFFFFF" points="143.4238,147.3711,155.4238,159.3711,143.4238,171.3711,131.4238,159.3711,143.4238,147.3711" style="stroke:#000000;stroke-width:1;"/><ellipse cx="143.4238" cy="202.3711" fill="none" rx="11" ry="11" style="stroke:#000000;stroke-width:1;"/><ellipse cx="143.4238" cy="202.3711" fill="#FFFFFF" rx="6" ry="6" style="stroke:#000000;stroke-width:1;"/><line style="stroke:#000000;stroke-width:1;" x1="143.4238" x2="143.4238" y1="69" y2="93.4023"/><polygon fill="#000000" points="139.4238,83.4023,143.4238,93.4023,147.4238,83.4023,143.4238,87.4023" style="stroke:#000000;stroke-width:1;"/><line style="stroke:#000000;stroke-width:1;" x1="271.8477" x2="283.8477" y1="57" y2="57"/><polygon fill="#000000" points="279.8477,100.3867,283.8477,110.3867,287.8477,100.3867,283.8477,104.3867" style="stroke:#000000;stroke-width:1;"/><line style="stroke:#000000;stroke-width:1;" x1="283.8477" x2="283.8477" y1="57" y2="159.3711"/><line style="stroke:#000000;stroke-width:1;" x1="283.8477" x2="155.4238" y1="159.3711" y2="159.3711"/><polygon fill="#000000" points="165.4238,155.3711,155.4238,159.3711,165.4238,163.3711,161.4238,159.3711" style="stroke:#000000;stroke-width:1;"/><line style="stroke:#000000;stroke-width:1;" x1="143.4238" x2="143.4238" y1="127.3711" y2="147.3711"/><polygon fill="#000000" points="139.4238,137.3711,143.4238,147.3711,147.4238,137.3711,143.4238,141.3711" style="stroke:#000000;stroke-width:1;"/><line style="stroke:#000000;stroke-width:1;" x1="143.4238" x2="143.4238" y1="25" y2="45"/><polygon fill="#000000" points="139.4238,35,143.4238,45,147.4238,35,143.4238,39" style="stroke:#000000;stroke-width:1;"/><line style="stroke:#000000;stroke-width:1;" x1="143.4238" x2="143.4238" y1="171.3711" y2="191.3711"/><polygon fill="#000000" points="139.4238,181.3711,143.4238,191.3711,147.4238,181.3711,143.4238,185.3711" style="stroke:#000000;stroke-width:1;"/><!--SRC=[Kop9ICrDLIZ8ISpCu-8gBaaiAk7AJ5FGq4X9hFHF2qzDpLQmjLKmqrIegL505JFNLB3NL01gprFGA2agJTNaKb2mSanBoqpEI2rIK79MJoqkKSX9LIW7gjTDpKjHK5IovWBIcMb0Q_8Bk000]--></g></svg>