<svg xmlns="http://www.w3.org/2000/svg" xmlns:xlink="http://www.w3.org/1999/xlink" contentStyleType="text/css" data-diagram-type="ACTIVITY" height="219px" preserveAspectRatio="none" style="width:304px;height:219px;background:#FFFFFF;" version="1.1" viewBox="0 0 304 219" width="304px" zoomAndPan="magnify"><defs/><g><ellipse cx="143.0613" cy="15" fill="#FFFFFF" rx="10" ry="10" style="stroke:#000000;stroke-width:1;"/><rect fill="#FFFFFF" height="33.9688" rx="12.5" ry="12.5" style="stroke:#000000;stroke-width:1;" width="172.9414" x="56.5906" y="93.4023"/><text fill="#000000" font-family="Verdana" font-size="12" lengthAdjust="spacing" textLength="152.9414" x="66.5906" y="114.541">Afficher "Acc&#232;s autoris&#233;."</text><polygon fill="#FFFFFF" points="27,45,259.1226,45,271.1226,57,259.1226,69,27,69,15,57,27,45" style="stroke:#000000;stroke-width:1;"/><text fill="#000000" font-family="Verdana" font-size="11" lengthAdjust="spacing" textLength="22.5747" x="147.0613" y="79.2104">true</text><text fill="#000000" font-family="Verdana" font-size="11" lengthAdjust="spacing" textLength="232.1226" x="27" y="60.8081">hasAdminRights || hasSpecialPermission ?</text><polygon fill="#FFFFFF" points="143.0613,147.3711,155.0613,159.3711,143.0613,171.3711,131.0613,159.3711,143.0613,147.3711" style="stroke:#000000;stroke-width:1;"/><ellipse cx="143.0613" cy="202.3711" fill="none" rx="11" ry="11" style="stroke:#000000;stroke-width:1;"/><ellipse cx="143.0613" cy="202.3711" fill="#FFFFFF" rx="6" ry="6" style="stroke:#000000;stroke-width:1;"/><line style="stroke:#000000;stroke-width:1;" x1="143.0613" x2="143.0613" y1="69" y2="93.4023"/><polygon fill="#000000" points="139.0613,83.4023,143.0613,93.4023,147.0613,83.4023,143.0613,87.4023" style="stroke:#000000;stroke-width:1;"/><line style="stroke:#000000;stroke-width:1;" x1="271.1226" x2="283.1226" y1="57" y2="57"/><polygon fill="#000000" points="279.1226,100.3867,283.1226,110.3867,287.1226,100.3867,283.1226,104.3867" style="stroke:#000000;stroke-width:1;"/><line style="stroke:#000000;stroke-width:1;" x1="283.1226" x2="283.1226" y1="57" y2="159.3711"/><line style="stroke:#000000;stroke-width:1;" x1="283.1226" x2="155.0613" y1="159.3711" y2="159.3711"/><polygon fill="#000000" points="165.0613,155.3711,155.0613,159.3711,165.0613,163.3711,161.0613,159.3711" style="stroke:#000000;stroke-width:1;"/><line style="stroke:#000000;stroke-width:1;" x1="143.0613" x2="143.0613" y1="127.3711" y2="147.3711"/><polygon fill="#000000" points="139.0613,137.3711,143.0613,147.3711,147.0613,137.3711,143.0613,141.3711" style="stroke:#000000;stroke-width:1;"/><line style="stroke:#000000;stroke-width:1;" x1="143.0613" x2="143.0613" y1="25" y2="45"/><polygon fill="#000000" points="139.0613,35,143.0613,45,147.0613,35,143.0613,39" style="stroke:#000000;stroke-width:1;"/><line style="stroke:#000000;stroke-width:1;" x1="143.0613" x2="143.0613" y1="171.3711" y2="191.3711"/><polygon fill="#000000" points="139.0613,181.3711,143.0613,191.3711,147.0613,181.3711,143.0613,185.3711" style="stroke:#000000;stroke-width:1;"/><!--SRC=[3Ssz3S8m48RX_gRuI9Kq3005yWO89h2SCpuf_f7lqcKWc2EBuVOjdlTYYJEZRLuAaPhlHX8n9wzkpL9UyaccE0wCycuSn6zFxbbKfHOy5WoWOBQ-yqB0pSKe8N77v48ulmg_M-sYv-ywtOdBAd5iQgC_]--></g></svg>