<svg xmlns="http://www.w3.org/2000/svg" xmlns:xlink="http://www.w3.org/1999/xlink" contentStyleType="text/css" data-diagram-type="ACTIVITY" height="219px" preserveAspectRatio="none" style="width:241px;height:219px;background:#FFFFFF;" version="1.1" viewBox="0 0 241 219" width="241px" zoomAndPan="magnify"><defs/><g><ellipse cx="108.2178" cy="15" fill="#FFFFFF" rx="10" ry="10" style="stroke:#000000;stroke-width:1;"/><rect fill="#FFFFFF" height="33.9688" rx="12.5" ry="12.5" style="stroke:#000000;stroke-width:1;" width="204.4355" x="6" y="93.4023"/><text fill="#000000" font-family="Verdana" font-size="12" lengthAdjust="spacing" textLength="184.4355" x="16" y="114.541">Afficher "Le syst&#232;me est pr&#234;t."</text><polygon fill="#FFFFFF" points="81.835,45,134.6006,45,146.6006,57,134.6006,69,81.835,69,69.835,57,81.835,45" style="stroke:#000000;stroke-width:1;"/><text fill="#000000" font-family="Verdana" font-size="11" lengthAdjust="spacing" textLength="22.5747" x="112.2178" y="79.2104">true</text><text fill="#000000" font-family="Verdana" font-size="11" lengthAdjust="spacing" textLength="52.7656" x="81.835" y="60.8081">isReady ?</text><polygon fill="#FFFFFF" points="108.2178,147.3711,120.2178,159.3711,108.2178,171.3711,96.2178,159.3711,108.2178,147.3711" style="stroke:#000000;stroke-width:1;"/><ellipse cx="108.2178" cy="202.3711" fill="none" rx="11" ry="11" style="stroke:#000000;stroke-width:1;"/><ellipse cx="108.2178" cy="202.3711" fill="#FFFFFF" rx="6" ry="6" style="stroke:#000000;stroke-width:1;"/><line style="stroke:#000000;stroke-width:1;" x1="108.2178" x2="108.2178" y1="69" y2="93.4023"/><polygon fill="#000000" points="104.2178,83.4023,108.2178,93.4023,112.2178,83.4023,108.2178,87.4023" style="stroke:#000000;stroke-width:1;"/><line style="stroke:#000000;stroke-width:1;" x1="146.6006" x2="220.4355" y1="57" y2="57"/><polygon fill="#000000" points="216.4355,100.3867,220.4355,110.3867,224.4355,100.3867,220.4355,104.3867" style="stroke:#000000;stroke-width:1;"/><line style="stroke:#000000;stroke-width:1;" x1="220.4355" x2="220.4355" y1="57" y2="159.3711"/><line style="stroke:#000000;stroke-width:1;" x1="220.4355" x2="120.2178" y1="159.3711" y2="159.3711"/><polygon fill="#000000" points="130.2178,155.3711,120.2178,159.3711,130.2178,163.3711,126.2178,159.3711" style="stroke:#000000;stroke-width:1;"/><line style="stroke:#000000;stroke-width:1;" x1="108.2178" x2="108.2178" y1="127.3711" y2="147.3711"/><polygon fill="#000000" points="104.2178,137.3711,108.2178,147.3711,112.2178,137.3711,108.2178,141.3711" style="stroke:#000000;stroke-width:1;"/><line style="stroke:#000000;stroke-width:1;" x1="108.2178" x2="108.2178" y1="25" y2="45"/><polygon fill="#000000" points="104.2178,35,108.2178,45,112.2178,35,108.2178,39" style="stroke:#000000;stroke-width:1;"/><line style="stroke:#000000;stroke-width:1;" x1="108.2178" x2="108.2178" y1="171.3711" y2="191.3711"/><polygon fill="#000000" points="104.2178,181.3711,108.2178,191.3711,112.2178,181.3711,108.2178,185.3711" style="stroke:#000000;stroke-width:1;"/><!--SRC=[3Smn3a1040NGVaxngMWSW4BqAZVOC9kTXBNP6OKRYMkucErVNcM13qRQdKGYDPUDnACHNTXjDyOMHKGqbYzk2UWdxsKDd57F3BtLlgS4h8QKlzUwUY2Ec_YIdOb-]--></g></svg>