<svg xmlns="http://www.w3.org/2000/svg" xmlns:xlink="http://www.w3.org/1999/xlink" contentStyleType="text/css" data-diagram-type="ACTIVITY" height="492px" preserveAspectRatio="none" style="width:479px;height:492px;background:#FFFFFF;" version="1.1" viewBox="0 0 479 492" width="479px" zoomAndPan="magnify"><defs/><g><ellipse cx="235.2588" cy="15" fill="#FFFFFF" rx="10" ry="10" style="stroke:#000000;stroke-width:1;"/><rect fill="#FFFFFF" height="33.9688" rx="12.5" ry="12.5" style="stroke:#000000;stroke-width:1;" width="207.0254" x="131.7461" y="45"/><text fill="#000000" font-family="Verdana" font-size="12" lengthAdjust="spacing" textLength="187.0254" x="141.7461" y="66.1387">Initialiser foundOptimal = false</text><rect fill="#FFFFFF" height="33.9688" rx="12.5" ry="12.5" style="stroke:#000000;stroke-width:1;" width="48.6523" x="210.9326" y="98.9688"/><text fill="#000000" font-family="Verdana" font-size="12" lengthAdjust="spacing" textLength="28.6523" x="220.9326" y="120.1074">i = 0</text><rect fill="#FFFFFF" height="33.9688" rx="12.5" ry="12.5" style="stroke:#000000;stroke-width:1;" width="390.5176" x="40" y="262.1445"/><text fill="#000000" font-family="Verdana" font-size="12" lengthAdjust="spacing" textLength="370.5176" x="50" y="283.2832">Afficher "Temp&#233;rature optimale trouv&#233;e : " + temperatures[i]</text><rect fill="#FFFFFF" height="33.9688" rx="12.5" ry="12.5" style="stroke:#000000;stroke-width:1;" width="144.1836" x="163.167" y="331.1133"/><text fill="#000000" font-family="Verdana" font-size="12" lengthAdjust="spacing" textLength="124.1836" x="173.167" y="352.252">foundOptimal = true</text><polygon fill="#FFFFFF" points="83.7563,213.7422,386.7612,213.7422,398.7612,225.7422,386.7612,237.7422,83.7563,237.7422,71.7563,225.7422,83.7563,213.7422" style="stroke:#000000;stroke-width:1;"/><text fill="#000000" font-family="Verdana" font-size="11" lengthAdjust="spacing" textLength="22.5747" x="239.2588" y="247.9526">true</text><text fill="#000000" font-family="Verdana" font-size="11" lengthAdjust="spacing" textLength="303.0049" x="83.7563" y="229.5503">(temperatures[i] &gt;= 20) &amp;&amp; (temperatures[i] &lt;= 22) ?</text><polygon fill="#FFFFFF" points="235.2588,385.082,247.2588,397.082,235.2588,409.082,223.2588,397.082,235.2588,385.082" style="stroke:#000000;stroke-width:1;"/><rect fill="#FFFFFF" height="33.9688" rx="12.5" ry="12.5" style="stroke:#000000;stroke-width:1;" width="43.4434" x="213.5371" y="429.082"/><text fill="#000000" font-family="Verdana" font-size="12" lengthAdjust="spacing" textLength="23.4434" x="223.5371" y="450.2207">i++</text><polygon fill="#FFFFFF" points="112.3171,152.9375,358.2004,152.9375,370.2004,164.9375,358.2004,176.9375,112.3171,176.9375,100.3171,164.9375,112.3171,152.9375" style="stroke:#000000;stroke-width:1;"/><text fill="#000000" font-family="Verdana" font-size="11" lengthAdjust="spacing" textLength="22.5747" x="239.2588" y="187.1479">true</text><text fill="#000000" font-family="Verdana" font-size="11" lengthAdjust="spacing" textLength="245.8833" x="112.3171" y="168.7456">i &lt; temperatures.length &amp;&amp; !foundOptimal ?</text><text fill="#000000" font-family="Verdana" font-size="11" lengthAdjust="spacing" textLength="26.168" x="74.1492" y="162.3433">false</text><ellipse cx="19" cy="211.9375" fill="none" rx="11" ry="11" style="stroke:#000000;stroke-width:1;"/><ellipse cx="19" cy="211.9375" fill="#FFFFFF" rx="6" ry="6" style="stroke:#000000;stroke-width:1;"/><line style="stroke:#000000;stroke-width:1;" x1="235.2588" x2="235.2588" y1="25" y2="45"/><polygon fill="#000000" points="231.2588,35,235.2588,45,239.2588,35,235.2588,39" style="stroke:#000000;stroke-width:1;"/><line style="stroke:#000000;stroke-width:1;" x1="235.2588" x2="235.2588" y1="78.9688" y2="98.9688"/><polygon fill="#000000" points="231.2588,88.9688,235.2588,98.9688,239.2588,88.9688,235.2588,92.9688" style="stroke:#000000;stroke-width:1;"/><line style="stroke:#000000;stroke-width:1;" x1="235.2588" x2="235.2588" y1="296.1133" y2="331.1133"/><polygon fill="#000000" points="231.2588,321.1133,235.2588,331.1133,239.2588,321.1133,235.2588,325.1133" style="stroke:#000000;stroke-width:1;"/><line style="stroke:#000000;stroke-width:1;" x1="235.2588" x2="235.2588" y1="237.7422" y2="262.1445"/><polygon fill="#000000" points="231.2588,252.1445,235.2588,262.1445,239.2588,252.1445,235.2588,256.1445" style="stroke:#000000;stroke-width:1;"/><line style="stroke:#000000;stroke-width:1;" x1="398.7612" x2="440.5176" y1="225.7422" y2="225.7422"/><polygon fill="#000000" points="436.5176,303.6133,440.5176,313.6133,444.5176,303.6133,440.5176,307.6133" style="stroke:#000000;stroke-width:1;"/><line style="stroke:#000000;stroke-width:1;" x1="440.5176" x2="440.5176" y1="225.7422" y2="397.082"/><line style="stroke:#000000;stroke-width:1;" x1="440.5176" x2="247.2588" y1="397.082" y2="397.082"/><polygon fill="#000000" points="257.2588,393.082,247.2588,397.082,257.2588,401.082,253.2588,397.082" style="stroke:#000000;stroke-width:1;"/><line style="stroke:#000000;stroke-width:1;" x1="235.2588" x2="235.2588" y1="365.082" y2="385.082"/><polygon fill="#000000" points="231.2588,375.082,235.2588,385.082,239.2588,375.082,235.2588,379.082" style="stroke:#000000;stroke-width:1;"/><line style="stroke:#000000;stroke-width:1;" x1="235.2588" x2="235.2588" y1="409.082" y2="429.082"/><polygon fill="#000000" points="231.2588,419.082,235.2588,429.082,239.2588,419.082,235.2588,423.082" style="stroke:#000000;stroke-width:1;"/><line style="stroke:#000000;stroke-width:1;" x1="235.2588" x2="235.2588" y1="176.9375" y2="213.7422"/><polygon fill="#000000" points="231.2588,203.7422,235.2588,213.7422,239.2588,203.7422,235.2588,207.7422" style="stroke:#000000;stroke-width:1;"/><line style="stroke:#000000;stroke-width:1;" x1="235.2588" x2="235.2588" y1="463.0508" y2="473.0508"/><line style="stroke:#000000;stroke-width:1;" x1="235.2588" x2="458.5176" y1="473.0508" y2="473.0508"/><polygon fill="#000000" points="454.5176,339.6953,458.5176,329.6953,462.5176,339.6953,458.5176,335.6953" style="stroke:#000000;stroke-width:1;"/><line style="stroke:#000000;stroke-width:1;" x1="458.5176" x2="458.5176" y1="164.9375" y2="473.0508"/><line style="stroke:#000000;stroke-width:1;" x1="458.5176" x2="370.2004" y1="164.9375" y2="164.9375"/><polygon fill="#000000" points="380.2004,160.9375,370.2004,164.9375,380.2004,168.9375,376.2004,164.9375" style="stroke:#000000;stroke-width:1;"/><line style="stroke:#000000;stroke-width:1;" x1="100.3171" x2="19" y1="164.9375" y2="164.9375"/><line style="stroke:#000000;stroke-width:1;" x1="19" x2="19" y1="164.9375" y2="200.9375"/><polygon fill="#000000" points="15,190.9375,19,200.9375,23,190.9375,19,194.9375" style="stroke:#000000;stroke-width:1;"/><line style="stroke:#000000;stroke-width:1;" x1="235.2588" x2="235.2588" y1="132.9375" y2="152.9375"/><polygon fill="#000000" points="231.2588,142.9375,235.2588,152.9375,239.2588,142.9375,235.2588,146.9375" style="stroke:#000000;stroke-width:1;"/><!--SRC=[PP11Zi8m34NtESM71MfK2I6MASo89Iisx12BQ72cbjAqIbmu4-VWOgGKQO1PsTRNV_xsH6fg29st79HAOgCeimqiR3qdYd1j7qwxJhYn7ciuwnDLod3k5vMwrEm91MC5eQQZQAMFbEQUmg_KcCqmUGDyQt128R4dhG1sA8fNuu6F-5fZkT23zv-qoj9I3vGSE_nn0BDnZd_g77YwpwRRTNIX7HSJ9BRz-NOb64nHueDSZP2FOmVye50uiSlLS5bMAa_Fin_FqFbhRQVk]--></g></svg>