<svg xmlns="http://www.w3.org/2000/svg" xmlns:xlink="http://www.w3.org/1999/xlink" contentStyleType="text/css" data-diagram-type="ACTIVITY" height="538px" preserveAspectRatio="none" style="width:582px;height:538px;background:#FFFFFF;" version="1.1" viewBox="0 0 582 538" width="582px" zoomAndPan="magnify"><defs/><g><ellipse cx="251.4434" cy="15" fill="#FFFFFF" rx="10" ry="10" style="stroke:#000000;stroke-width:1;"/><rect fill="#FFFFFF" height="33.9688" rx="12.5" ry="12.5" style="stroke:#000000;stroke-width:1;" width="158.6504" x="172.1182" y="45"/><text fill="#000000" font-family="Verdana" font-size="12" lengthAdjust="spacing" textLength="138.6504" x="182.1182" y="66.1387">Initialiser attempts = 0</text><rect fill="#FFFFFF" height="33.9688" rx="12.5" ry="12.5" style="stroke:#000000;stroke-width:1;" width="183.043" x="159.9219" y="98.9688"/><text fill="#000000" font-family="Verdana" font-size="12" lengthAdjust="spacing" textLength="163.043" x="169.9219" y="120.1074">Initialiser isSuccess = false</text><rect fill="#FFFFFF" height="33.9688" rx="12.5" ry="12.5" style="stroke:#000000;stroke-width:1;" width="248.8555" x="127.0156" y="208.6479"/><text fill="#000000" font-family="Verdana" font-size="12" lengthAdjust="spacing" textLength="228.8555" x="137.0156" y="229.7866">Afficher "Tentative " + (attempts + 1)</text><rect fill="#FFFFFF" height="33.9688" rx="12.5" ry="12.5" style="stroke:#000000;stroke-width:1;" width="171.2949" x="165.7959" y="262.6167"/><text fill="#000000" font-family="Verdana" font-size="12" lengthAdjust="spacing" textLength="151.2949" x="175.7959" y="283.7554">isSuccess = tryConnect()</text><rect fill="#FFFFFF" height="33.9688" rx="12.5" ry="12.5" style="stroke:#000000;stroke-width:1;" width="94.5195" x="204.1836" y="316.5854"/><text fill="#000000" font-family="Verdana" font-size="12" lengthAdjust="spacing" textLength="74.5195" x="214.1836" y="337.7241">attempts++</text><polygon fill="#FFFFFF" points="131.3162,152.9375,371.5706,152.9375,383.5706,164.9375,371.5706,176.9375,131.3162,176.9375,119.3162,164.9375,131.3162,152.9375" style="stroke:#000000;stroke-width:1;"/><text fill="#000000" font-family="Verdana" font-size="11" lengthAdjust="spacing" textLength="22.5747" x="255.4434" y="187.1479">true</text><text fill="#000000" font-family="Verdana" font-size="11" lengthAdjust="spacing" textLength="240.2544" x="131.3162" y="168.7456">(attempts &lt; maxAttempts) &amp;&amp; !isSuccess ?</text><text fill="#000000" font-family="Verdana" font-size="11" lengthAdjust="spacing" textLength="26.168" x="93.1482" y="162.3433">false</text><polygon fill="#FFFFFF" points="220.2427,392.5542,282.644,392.5542,294.644,404.5542,282.644,416.5542,220.2427,416.5542,208.2427,404.5542,220.2427,392.5542" style="stroke:#000000;stroke-width:1;"/><text fill="#000000" font-family="Verdana" font-size="11" lengthAdjust="spacing" textLength="62.4014" x="220.2427" y="408.3623">isSuccess ?</text><text fill="#000000" font-family="Verdana" font-size="11" lengthAdjust="spacing" textLength="22.5747" x="185.668" y="401.96">true</text><text fill="#000000" font-family="Verdana" font-size="11" lengthAdjust="spacing" textLength="26.168" x="294.644" y="401.96">false</text><rect fill="#FFFFFF" height="33.9688" rx="12.5" ry="12.5" style="stroke:#000000;stroke-width:1;" width="195.834" x="6" y="426.5542"/><text fill="#000000" font-family="Verdana" font-size="12" lengthAdjust="spacing" textLength="175.834" x="16" y="447.6929">Afficher "Connexion r&#233;ussie."</text><rect fill="#FFFFFF" height="33.9688" rx="12.5" ry="12.5" style="stroke:#000000;stroke-width:1;" width="354.2715" x="221.834" y="426.5542"/><text fill="#000000" font-family="Verdana" font-size="12" lengthAdjust="spacing" textLength="334.2715" x="231.834" y="447.6929">Afficher "&#201;chec apr&#232;s " + maxAttempts + " tentatives."</text><polygon fill="#FFFFFF" points="251.4434,466.5229,263.4434,478.5229,251.4434,490.5229,239.4434,478.5229,251.4434,466.5229" style="stroke:#000000;stroke-width:1;"/><ellipse cx="251.4434" cy="521.5229" fill="none" rx="11" ry="11" style="stroke:#000000;stroke-width:1;"/><ellipse cx="251.4434" cy="521.5229" fill="#FFFFFF" rx="6" ry="6" style="stroke:#000000;stroke-width:1;"/><line style="stroke:#000000;stroke-width:1;" x1="251.4434" x2="251.4434" y1="25" y2="45"/><polygon fill="#000000" points="247.4434,35,251.4434,45,255.4434,35,251.4434,39" style="stroke:#000000;stroke-width:1;"/><line style="stroke:#000000;stroke-width:1;" x1="251.4434" x2="251.4434" y1="78.9688" y2="98.9688"/><polygon fill="#000000" points="247.4434,88.9688,251.4434,98.9688,255.4434,88.9688,251.4434,92.9688" style="stroke:#000000;stroke-width:1;"/><line style="stroke:#000000;stroke-width:1;" x1="251.4434" x2="251.4434" y1="242.6167" y2="262.6167"/><polygon fill="#000000" points="247.4434,252.6167,251.4434,262.6167,255.4434,252.6167,251.4434,256.6167" style="stroke:#000000;stroke-width:1;"/><line style="stroke:#000000;stroke-width:1;" x1="251.4434" x2="251.4434" y1="296.5854" y2="316.5854"/><polygon fill="#000000" points="247.4434,306.5854,251.4434,316.5854,255.4434,306.5854,251.4434,310.5854" style="stroke:#000000;stroke-width:1;"/><line style="stroke:#000000;stroke-width:1;" x1="251.4434" x2="251.4434" y1="176.9375" y2="208.6479"/><polygon fill="#000000" points="247.4434,198.6479,251.4434,208.6479,255.4434,198.6479,251.4434,202.6479" style="stroke:#000000;stroke-width:1;"/><line style="stroke:#000000;stroke-width:1;" x1="251.4434" x2="251.4434" y1="350.5542" y2="360.5542"/><line style="stroke:#000000;stroke-width:1;" x1="251.4434" x2="395.5706" y1="360.5542" y2="360.5542"/><polygon fill="#000000" points="391.5706,271.1987,395.5706,261.1987,399.5706,271.1987,395.5706,267.1987" style="stroke:#000000;stroke-width:1;"/><line style="stroke:#000000;stroke-width:1;" x1="395.5706" x2="395.5706" y1="164.9375" y2="360.5542"/><line style="stroke:#000000;stroke-width:1;" x1="395.5706" x2="383.5706" y1="164.9375" y2="164.9375"/><polygon fill="#000000" points="393.5706,160.9375,383.5706,164.9375,393.5706,168.9375,389.5706,164.9375" style="stroke:#000000;stroke-width:1;"/><line style="stroke:#000000;stroke-width:1;" x1="119.3162" x2="107.3162" y1="164.9375" y2="164.9375"/><polygon fill="#000000" points="103.3162,257.1987,107.3162,267.1987,111.3162,257.1987,107.3162,261.1987" style="stroke:#000000;stroke-width:1;"/><line style="stroke:#000000;stroke-width:1;" x1="107.3162" x2="107.3162" y1="164.9375" y2="372.5542"/><line style="stroke:#000000;stroke-width:1;" x1="107.3162" x2="251.4434" y1="372.5542" y2="372.5542"/><line style="stroke:#000000;stroke-width:1;" x1="251.4434" x2="251.4434" y1="372.5542" y2="392.5542"/><polygon fill="#000000" points="247.4434,382.5542,251.4434,392.5542,255.4434,382.5542,251.4434,386.5542" style="stroke:#000000;stroke-width:1;"/><line style="stroke:#000000;stroke-width:1;" x1="251.4434" x2="251.4434" y1="132.9375" y2="152.9375"/><polygon fill="#000000" points="247.4434,142.9375,251.4434,152.9375,255.4434,142.9375,251.4434,146.9375" style="stroke:#000000;stroke-width:1;"/><line style="stroke:#000000;stroke-width:1;" x1="208.2427" x2="103.917" y1="404.5542" y2="404.5542"/><line style="stroke:#000000;stroke-width:1;" x1="103.917" x2="103.917" y1="404.5542" y2="426.5542"/><polygon fill="#000000" points="99.917,416.5542,103.917,426.5542,107.917,416.5542,103.917,420.5542" style="stroke:#000000;stroke-width:1;"/><line style="stroke:#000000;stroke-width:1;" x1="294.644" x2="398.9697" y1="404.5542" y2="404.5542"/><line style="stroke:#000000;stroke-width:1;" x1="398.9697" x2="398.9697" y1="404.5542" y2="426.5542"/><polygon fill="#000000" points="394.9697,416.5542,398.9697,426.5542,402.9697,416.5542,398.9697,420.5542" style="stroke:#000000;stroke-width:1;"/><line style="stroke:#000000;stroke-width:1;" x1="103.917" x2="103.917" y1="460.5229" y2="478.5229"/><line style="stroke:#000000;stroke-width:1;" x1="103.917" x2="239.4434" y1="478.5229" y2="478.5229"/><polygon fill="#000000" points="229.4434,474.5229,239.4434,478.5229,229.4434,482.5229,233.4434,478.5229" style="stroke:#000000;stroke-width:1;"/><line style="stroke:#000000;stroke-width:1;" x1="398.9697" x2="398.9697" y1="460.5229" y2="478.5229"/><line style="stroke:#000000;stroke-width:1;" x1="398.9697" x2="263.4434" y1="478.5229" y2="478.5229"/><polygon fill="#000000" points="273.4434,474.5229,263.4434,478.5229,273.4434,482.5229,269.4434,478.5229" style="stroke:#000000;stroke-width:1;"/><line style="stroke:#000000;stroke-width:1;" x1="251.4434" x2="251.4434" y1="490.5229" y2="510.5229"/><polygon fill="#000000" points="247.4434,500.5229,251.4434,510.5229,255.4434,500.5229,251.4434,504.5229" style="stroke:#000000;stroke-width:1;"/><!--SRC=[RP1DJiD038NtSuhNBAg98Y7ODg2gOiKQBZ2QUXHBoIGQEr2Em4tW7BaOqz2_IAmiwpr_VlPA6-e8G-iu6YFgafhDIsHbrx9GWbEbRb314-xhfSJoEdfFSjI2QuLgyz5mIx3sClM8pXrsfwx4UetLTMnRPWQiff5A0sns8R1lChbuewXE-PrGeC8LL-6Xh8_MszsQFf_x6Cch_HFFzggg3SNzATGSiJGSO1SHyWVYlo5cw87xY3JzZ29CTqK6Pie5jl1FNxbwk25Dtp87lxazTmNqV9RCfBZda7_U3-ON]--></g></svg>