<svg xmlns="http://www.w3.org/2000/svg" xmlns:xlink="http://www.w3.org/1999/xlink" contentStyleType="text/css" data-diagram-type="ACTIVITY" height="219px" preserveAspectRatio="none" style="width:226px;height:219px;background:#FFFFFF;" version="1.1" viewBox="0 0 226 219" width="226px" zoomAndPan="magnify"><defs/><g><ellipse cx="100.5713" cy="15" fill="#FFFFFF" rx="10" ry="10" style="stroke:#000000;stroke-width:1;"/><rect fill="#FFFFFF" height="33.9688" rx="12.5" ry="12.5" style="stroke:#000000;stroke-width:1;" width="189.1426" x="6" y="93.4023"/><text fill="#000000" font-family="Verdana" font-size="12" lengthAdjust="spacing" textLength="169.1426" x="16" y="114.541">Afficher "Tout est en ordre."</text><polygon fill="#FFFFFF" points="28.9961,45,172.1465,45,184.1465,57,172.1465,69,28.9961,69,16.9961,57,28.9961,45" style="stroke:#000000;stroke-width:1;"/><text fill="#000000" font-family="Verdana" font-size="11" lengthAdjust="spacing" textLength="22.5747" x="104.5713" y="79.2104">true</text><text fill="#000000" font-family="Verdana" font-size="11" lengthAdjust="spacing" textLength="139.6538" x="28.9961" y="60.8081">!(hasError || hasWarning)</text><polygon fill="#FFFFFF" points="100.5713,147.3711,112.5713,159.3711,100.5713,171.3711,88.5713,159.3711,100.5713,147.3711" style="stroke:#000000;stroke-width:1;"/><ellipse cx="100.5713" cy="202.3711" fill="none" rx="11" ry="11" style="stroke:#000000;stroke-width:1;"/><ellipse cx="100.5713" cy="202.3711" fill="#FFFFFF" rx="6" ry="6" style="stroke:#000000;stroke-width:1;"/><line style="stroke:#000000;stroke-width:1;" x1="100.5713" x2="100.5713" y1="69" y2="93.4023"/><polygon fill="#000000" points="96.5713,83.4023,100.5713,93.4023,104.5713,83.4023,100.5713,87.4023" style="stroke:#000000;stroke-width:1;"/><line style="stroke:#000000;stroke-width:1;" x1="184.1465" x2="205.1426" y1="57" y2="57"/><polygon fill="#000000" points="201.1426,100.3867,205.1426,110.3867,209.1426,100.3867,205.1426,104.3867" style="stroke:#000000;stroke-width:1;"/><line style="stroke:#000000;stroke-width:1;" x1="205.1426" x2="205.1426" y1="57" y2="159.3711"/><line style="stroke:#000000;stroke-width:1;" x1="205.1426" x2="112.5713" y1="159.3711" y2="159.3711"/><polygon fill="#000000" points="122.5713,155.3711,112.5713,159.3711,122.5713,163.3711,118.5713,159.3711" style="stroke:#000000;stroke-width:1;"/><line style="stroke:#000000;stroke-width:1;" x1="100.5713" x2="100.5713" y1="127.3711" y2="147.3711"/><polygon fill="#000000" points="96.5713,137.3711,100.5713,147.3711,104.5713,137.3711,100.5713,141.3711" style="stroke:#000000;stroke-width:1;"/><line style="stroke:#000000;stroke-width:1;" x1="100.5713" x2="100.5713" y1="25" y2="45"/><polygon fill="#000000" points="96.5713,35,100.5713,45,104.5713,35,100.5713,39" style="stroke:#000000;stroke-width:1;"/><line style="stroke:#000000;stroke-width:1;" x1="100.5713" x2="100.5713" y1="171.3711" y2="191.3711"/><polygon fill="#000000" points="96.5713,181.3711,100.5713,191.3711,104.5713,181.3711,100.5713,185.3711" style="stroke:#000000;stroke-width:1;"/><!--SRC=[3Omn3i8m40JxUyKcbTtm0AWe-04IjKNE-2GuH-jBbyVZOgHfPfPe-bFits8kCg8mn2hIabeP3x8Jvudfhq8t_sHapCIHWeTc0QxtMktTb5YV_GZec3WwD-fblOdwPdMU-ov_]--></g></svg>