<svg xmlns="http://www.w3.org/2000/svg" xmlns:xlink="http://www.w3.org/1999/xlink" contentStyleType="text/css" data-diagram-type="ACTIVITY" height="190px" preserveAspectRatio="none" style="width:521px;height:190px;background:#FFFFFF;" version="1.1" viewBox="0 0 521 190" width="521px" zoomAndPan="magnify"><defs/><g><ellipse cx="256.0137" cy="15" fill="#FFFFFF" rx="10" ry="10" style="stroke:#000000;stroke-width:1;"/><polygon fill="#FFFFFF" points="216.3831,45,295.6443,45,307.6443,57,295.6443,69,216.3831,69,204.3831,57,216.3831,45" style="stroke:#000000;stroke-width:1;"/><text fill="#000000" font-family="Verdana" font-size="11" lengthAdjust="spacing" textLength="75.7646" x="216.3831" y="60.8081">!isBatteryLow</text><text fill="#000000" font-family="Verdana" font-size="11" lengthAdjust="spacing" textLength="22.5747" x="181.8083" y="54.4058">true</text><text fill="#000000" font-family="Verdana" font-size="11" lengthAdjust="spacing" textLength="26.168" x="307.6443" y="54.4058">false</text><rect fill="#FFFFFF" height="33.9688" rx="12.5" ry="12.5" style="stroke:#000000;stroke-width:1;" width="235.3555" x="6" y="79"/><text fill="#000000" font-family="Verdana" font-size="12" lengthAdjust="spacing" textLength="215.3555" x="16" y="100.1387">Afficher "La batterie est suffisante."</text><rect fill="#FFFFFF" height="33.9688" rx="12.5" ry="12.5" style="stroke:#000000;stroke-width:1;" width="253.9883" x="261.3555" y="79"/><text fill="#000000" font-family="Verdana" font-size="12" lengthAdjust="spacing" textLength="233.9883" x="271.3555" y="100.1387">Afficher "Veuillez recharger l'appareil."</text><polygon fill="#FFFFFF" points="256.0137,118.9688,268.0137,130.9688,256.0137,142.9688,244.0137,130.9688,256.0137,118.9688" style="stroke:#000000;stroke-width:1;"/><ellipse cx="256.0137" cy="173.9688" fill="none" rx="11" ry="11" style="stroke:#000000;stroke-width:1;"/><ellipse cx="256.0137" cy="173.9688" fill="#FFFFFF" rx="6" ry="6" style="stroke:#000000;stroke-width:1;"/><line style="stroke:#000000;stroke-width:1;" x1="204.3831" x2="123.6777" y1="57" y2="57"/><line style="stroke:#000000;stroke-width:1;" x1="123.6777" x2="123.6777" y1="57" y2="79"/><polygon fill="#000000" points="119.6777,69,123.6777,79,127.6777,69,123.6777,73" style="stroke:#000000;stroke-width:1;"/><line style="stroke:#000000;stroke-width:1;" x1="307.6443" x2="388.3496" y1="57" y2="57"/><line style="stroke:#000000;stroke-width:1;" x1="388.3496" x2="388.3496" y1="57" y2="79"/><polygon fill="#000000" points="384.3496,69,388.3496,79,392.3496,69,388.3496,73" style="stroke:#000000;stroke-width:1;"/><line style="stroke:#000000;stroke-width:1;" x1="123.6777" x2="123.6777" y1="112.9688" y2="130.9688"/><line style="stroke:#000000;stroke-width:1;" x1="123.6777" x2="244.0137" y1="130.9688" y2="130.9688"/><polygon fill="#000000" points="234.0137,126.9688,244.0137,130.9688,234.0137,134.9688,238.0137,130.9688" style="stroke:#000000;stroke-width:1;"/><line style="stroke:#000000;stroke-width:1;" x1="388.3496" x2="388.3496" y1="112.9688" y2="130.9688"/><line style="stroke:#000000;stroke-width:1;" x1="388.3496" x2="268.0137" y1="130.9688" y2="130.9688"/><polygon fill="#000000" points="278.0137,126.9688,268.0137,130.9688,278.0137,134.9688,274.0137,130.9688" style="stroke:#000000;stroke-width:1;"/><line style="stroke:#000000;stroke-width:1;" x1="256.0137" x2="256.0137" y1="25" y2="45"/><polygon fill="#000000" points="252.0137,35,256.0137,45,260.0137,35,256.0137,39" style="stroke:#000000;stroke-width:1;"/><line style="stroke:#000000;stroke-width:1;" x1="256.0137" x2="256.0137" y1="142.9688" y2="162.9688"/><polygon fill="#000000" points="252.0137,152.9688,256.0137,162.9688,260.0137,152.9688,256.0137,156.9688" style="stroke:#000000;stroke-width:1;"/><!--SRC=[NOwn3i8m44FtV8NRXNRX0s22kJFxKHnwKaYZorK8lfwe8vCb-pt9dIzy4IM9vX2gYtdGYA7JUXLtscTQtnZHi8p1RUCOWDCbHfqN6lf9SDz19LWTTMjJbUmyzkV0L8aXIei_xyPDK-8NndaHUxOk7QGKCMhQrVpGs1wj9Vm0]--></g></svg>