<svg xmlns="http://www.w3.org/2000/svg" xmlns:xlink="http://www.w3.org/1999/xlink" contentStyleType="text/css" data-diagram-type="ACTIVITY" height="219px" preserveAspectRatio="none" style="width:338px;height:219px;background:#FFFFFF;" version="1.1" viewBox="0 0 338 219" width="338px" zoomAndPan="magnify"><defs/><g><ellipse cx="160.1064" cy="15" fill="#FFFFFF" rx="10" ry="10" style="stroke:#000000;stroke-width:1;"/><rect fill="#FFFFFF" height="33.9688" rx="12.5" ry="12.5" style="stroke:#000000;stroke-width:1;" width="230.7266" x="44.7432" y="93.4023"/><text fill="#000000" font-family="Verdana" font-size="12" lengthAdjust="spacing" textLength="210.7266" x="54.7432" y="114.541">Afficher "Nom d'utilisatrice valide."</text><polygon fill="#FFFFFF" points="27,45,293.2129,45,305.2129,57,293.2129,69,27,69,15,57,27,45" style="stroke:#000000;stroke-width:1;"/><text fill="#000000" font-family="Verdana" font-size="11" lengthAdjust="spacing" textLength="22.5747" x="164.1064" y="79.2104">true</text><text fill="#000000" font-family="Verdana" font-size="11" lengthAdjust="spacing" textLength="262.7163" x="27" y="60.8081">(username != null) &amp;&amp; (username.length() &gt; 0)</text><polygon fill="#FFFFFF" points="160.1064,147.3711,172.1064,159.3711,160.1064,171.3711,148.1064,159.3711,160.1064,147.3711" style="stroke:#000000;stroke-width:1;"/><ellipse cx="160.1064" cy="202.3711" fill="none" rx="11" ry="11" style="stroke:#000000;stroke-width:1;"/><ellipse cx="160.1064" cy="202.3711" fill="#FFFFFF" rx="6" ry="6" style="stroke:#000000;stroke-width:1;"/><line style="stroke:#000000;stroke-width:1;" x1="160.1064" x2="160.1064" y1="69" y2="93.4023"/><polygon fill="#000000" points="156.1064,83.4023,160.1064,93.4023,164.1064,83.4023,160.1064,87.4023" style="stroke:#000000;stroke-width:1;"/><line style="stroke:#000000;stroke-width:1;" x1="305.2129" x2="317.2129" y1="57" y2="57"/><polygon fill="#000000" points="313.2129,100.3867,317.2129,110.3867,321.2129,100.3867,317.2129,104.3867" style="stroke:#000000;stroke-width:1;"/><line style="stroke:#000000;stroke-width:1;" x1="317.2129" x2="317.2129" y1="57" y2="159.3711"/><line style="stroke:#000000;stroke-width:1;" x1="317.2129" x2="172.1064" y1="159.3711" y2="159.3711"/><polygon fill="#000000" points="182.1064,155.3711,172.1064,159.3711,182.1064,163.3711,178.1064,159.3711" style="stroke:#000000;stroke-width:1;"/><line style="stroke:#000000;stroke-width:1;" x1="160.1064" x2="160.1064" y1="127.3711" y2="147.3711"/><polygon fill="#000000" points="156.1064,137.3711,160.1064,147.3711,164.1064,137.3711,160.1064,141.3711" style="stroke:#000000;stroke-width:1;"/><line style="stroke:#000000;stroke-width:1;" x1="160.1064" x2="160.1064" y1="25" y2="45"/><polygon fill="#000000" points="156.1064,35,160.1064,45,164.1064,35,160.1064,39" style="stroke:#000000;stroke-width:1;"/><line style="stroke:#000000;stroke-width:1;" x1="160.1064" x2="160.1064" y1="171.3711" y2="191.3711"/><polygon fill="#000000" points="156.1064,181.3711,160.1064,191.3711,164.1064,181.3711,160.1064,185.3711" style="stroke:#000000;stroke-width:1;"/><!--SRC=[FOqn3i8m40JxUyKcHR2RY1e44X_W3rPynYSvbyW-ytvSqSv8CvDbtXbd2Q94pK8raWJdUkEgOQZf0UsbU2mB_dGjh1_BpkE9guV7o2YSrSwUWDih9TaoLyplOqUyT9CYBLYLZV4DHIAlyvrOewHnFKxw0G00]--></g></svg>