<svg xmlns="http://www.w3.org/2000/svg" xmlns:xlink="http://www.w3.org/1999/xlink" contentStyleType="text/css" data-diagram-type="ACTIVITY" height="219px" preserveAspectRatio="none" style="width:298px;height:219px;background:#FFFFFF;" version="1.1" viewBox="0 0 298 219" width="298px" zoomAndPan="magnify"><defs/><g><ellipse cx="140.1421" cy="15" fill="#FFFFFF" rx="10" ry="10" style="stroke:#000000;stroke-width:1;"/><rect fill="#FFFFFF" height="33.9688" rx="12.5" ry="12.5" style="stroke:#000000;stroke-width:1;" width="172.9414" x="53.6714" y="93.4023"/><text fill="#000000" font-family="Verdana" font-size="12" lengthAdjust="spacing" textLength="152.9414" x="63.6714" y="114.541">Afficher "Acc&#232;s autoris&#233;."</text><polygon fill="#FFFFFF" points="27,45,253.2842,45,265.2842,57,253.2842,69,27,69,15,57,27,45" style="stroke:#000000;stroke-width:1;"/><text fill="#000000" font-family="Verdana" font-size="11" lengthAdjust="spacing" textLength="22.5747" x="144.1421" y="79.2104">true</text><text fill="#000000" font-family="Verdana" font-size="11" lengthAdjust="spacing" textLength="222.7876" x="27" y="60.8081">hasAdminRights || hasSpecialPermission</text><polygon fill="#FFFFFF" points="140.1421,147.3711,152.1421,159.3711,140.1421,171.3711,128.1421,159.3711,140.1421,147.3711" style="stroke:#000000;stroke-width:1;"/><ellipse cx="140.1421" cy="202.3711" fill="none" rx="11" ry="11" style="stroke:#000000;stroke-width:1;"/><ellipse cx="140.1421" cy="202.3711" fill="#FFFFFF" rx="6" ry="6" style="stroke:#000000;stroke-width:1;"/><line style="stroke:#000000;stroke-width:1;" x1="140.1421" x2="140.1421" y1="69" y2="93.4023"/><polygon fill="#000000" points="136.1421,83.4023,140.1421,93.4023,144.1421,83.4023,140.1421,87.4023" style="stroke:#000000;stroke-width:1;"/><line style="stroke:#000000;stroke-width:1;" x1="265.2842" x2="277.2842" y1="57" y2="57"/><polygon fill="#000000" points="273.2842,100.3867,277.2842,110.3867,281.2842,100.3867,277.2842,104.3867" style="stroke:#000000;stroke-width:1;"/><line style="stroke:#000000;stroke-width:1;" x1="277.2842" x2="277.2842" y1="57" y2="159.3711"/><line style="stroke:#000000;stroke-width:1;" x1="277.2842" x2="152.1421" y1="159.3711" y2="159.3711"/><polygon fill="#000000" points="162.1421,155.3711,152.1421,159.3711,162.1421,163.3711,158.1421,159.3711" style="stroke:#000000;stroke-width:1;"/><line style="stroke:#000000;stroke-width:1;" x1="140.1421" x2="140.1421" y1="127.3711" y2="147.3711"/><polygon fill="#000000" points="136.1421,137.3711,140.1421,147.3711,144.1421,137.3711,140.1421,141.3711" style="stroke:#000000;stroke-width:1;"/><line style="stroke:#000000;stroke-width:1;" x1="140.1421" x2="140.1421" y1="25" y2="45"/><polygon fill="#000000" points="136.1421,35,140.1421,45,144.1421,35,140.1421,39" style="stroke:#000000;stroke-width:1;"/><line style="stroke:#000000;stroke-width:1;" x1="140.1421" x2="140.1421" y1="171.3711" y2="191.3711"/><polygon fill="#000000" points="136.1421,181.3711,140.1421,191.3711,144.1421,181.3711,140.1421,185.3711" style="stroke:#000000;stroke-width:1;"/><!--SRC=[3Ssx3SCm34NHdbEykBAR391KsY189X1aAY9WVI3IdGTovl1YKNk1Wtkpn9dHDY-5ICrt8ucOarUtPYbl-IPJ70T6-JGEuhSNzoogKWiM35ymMzzv8U3XOfIGk6Do8LodmkzMk-ZrkqzFuh9A79VQw0y0]--></g></svg>