<svg xmlns="http://www.w3.org/2000/svg" xmlns:xlink="http://www.w3.org/1999/xlink" contentStyleType="text/css" data-diagram-type="ACTIVITY" height="219px" preserveAspectRatio="none" style="width:299px;height:219px;background:#FFFFFF;" version="1.1" viewBox="0 0 299 219" width="299px" zoomAndPan="magnify"><defs/><g><ellipse cx="140.5046" cy="15" fill="#FFFFFF" rx="10" ry="10" style="stroke:#000000;stroke-width:1;"/><rect fill="#FFFFFF" height="33.9688" rx="12.5" ry="12.5" style="stroke:#000000;stroke-width:1;" width="196.8184" x="42.0955" y="93.4023"/><text fill="#000000" font-family="Verdana" font-size="12" lengthAdjust="spacing" textLength="176.8184" x="52.0955" y="114.541">Afficher "C'est le week-end !"</text><polygon fill="#FFFFFF" points="27,45,254.0093,45,266.0093,57,254.0093,69,27,69,15,57,27,45" style="stroke:#000000;stroke-width:1;"/><text fill="#000000" font-family="Verdana" font-size="11" lengthAdjust="spacing" textLength="22.5747" x="144.5046" y="79.2104">true</text><text fill="#000000" font-family="Verdana" font-size="11" lengthAdjust="spacing" textLength="223.5127" x="27" y="60.8081">(dayOfWeek == 6) || (dayOfWeek == 7)</text><polygon fill="#FFFFFF" points="140.5046,147.3711,152.5046,159.3711,140.5046,171.3711,128.5046,159.3711,140.5046,147.3711" style="stroke:#000000;stroke-width:1;"/><ellipse cx="140.5046" cy="202.3711" fill="none" rx="11" ry="11" style="stroke:#000000;stroke-width:1;"/><ellipse cx="140.5046" cy="202.3711" fill="#FFFFFF" rx="6" ry="6" style="stroke:#000000;stroke-width:1;"/><line style="stroke:#000000;stroke-width:1;" x1="140.5046" x2="140.5046" y1="69" y2="93.4023"/><polygon fill="#000000" points="136.5046,83.4023,140.5046,93.4023,144.5046,83.4023,140.5046,87.4023" style="stroke:#000000;stroke-width:1;"/><line style="stroke:#000000;stroke-width:1;" x1="266.0093" x2="278.0093" y1="57" y2="57"/><polygon fill="#000000" points="274.0093,100.3867,278.0093,110.3867,282.0093,100.3867,278.0093,104.3867" style="stroke:#000000;stroke-width:1;"/><line style="stroke:#000000;stroke-width:1;" x1="278.0093" x2="278.0093" y1="57" y2="159.3711"/><line style="stroke:#000000;stroke-width:1;" x1="278.0093" x2="152.5046" y1="159.3711" y2="159.3711"/><polygon fill="#000000" points="162.5046,155.3711,152.5046,159.3711,162.5046,163.3711,158.5046,159.3711" style="stroke:#000000;stroke-width:1;"/><line style="stroke:#000000;stroke-width:1;" x1="140.5046" x2="140.5046" y1="127.3711" y2="147.3711"/><polygon fill="#000000" points="136.5046,137.3711,140.5046,147.3711,144.5046,137.3711,140.5046,141.3711" style="stroke:#000000;stroke-width:1;"/><line style="stroke:#000000;stroke-width:1;" x1="140.5046" x2="140.5046" y1="25" y2="45"/><polygon fill="#000000" points="136.5046,35,140.5046,45,144.5046,35,140.5046,39" style="stroke:#000000;stroke-width:1;"/><line style="stroke:#000000;stroke-width:1;" x1="140.5046" x2="140.5046" y1="171.3711" y2="191.3711"/><polygon fill="#000000" points="136.5046,181.3711,140.5046,191.3711,144.5046,181.3711,140.5046,185.3711" style="stroke:#000000;stroke-width:1;"/><!--SRC=[Kop9ICrDLIZ8ISpCu-8gBaaiAk7AJ5FGq4X9hFHF2qzDpLQmjLKmqrIegL505JFNLD1K0EhEKz0eAIfDrUHIKB1oJ4lBJCv8BL9GSbPFBIvHo4bLA0SgrqtDIr5GLBBc0jAPQK1RyWku0000]--></g></svg>