<svg xmlns="http://www.w3.org/2000/svg" xmlns:xlink="http://www.w3.org/1999/xlink" contentStyleType="text/css" data-diagram-type="ACTIVITY" height="190px" preserveAspectRatio="none" style="width:607px;height:190px;background:#FFFFFF;" version="1.1" viewBox="0 0 607 190" width="607px" zoomAndPan="magnify"><defs/><g><ellipse cx="266.5974" cy="15" fill="#FFFFFF" rx="10" ry="10" style="stroke:#000000;stroke-width:1;"/><polygon fill="#FFFFFF" points="130.502,45,402.6929,45,414.6929,57,402.6929,69,130.502,69,118.502,57,130.502,45" style="stroke:#000000;stroke-width:1;"/><text fill="#000000" font-family="Verdana" font-size="11" lengthAdjust="spacing" textLength="268.6943" x="130.502" y="60.8081">hasMinLength &amp;&amp; hasUpperCase &amp;&amp; hasNumber</text><text fill="#000000" font-family="Verdana" font-size="11" lengthAdjust="spacing" textLength="22.5747" x="95.9272" y="54.4058">true</text><text fill="#000000" font-family="Verdana" font-size="11" lengthAdjust="spacing" textLength="26.168" x="414.6929" y="54.4058">false</text><rect fill="#FFFFFF" height="33.9688" rx="12.5" ry="12.5" style="stroke:#000000;stroke-width:1;" width="205.0039" x="6" y="79"/><text fill="#000000" font-family="Verdana" font-size="12" lengthAdjust="spacing" textLength="185.0039" x="16" y="100.1387">Afficher "Mot de passe valide."</text><rect fill="#FFFFFF" height="33.9688" rx="12.5" ry="12.5" style="stroke:#000000;stroke-width:1;" width="354.3125" x="247.5366" y="79"/><text fill="#000000" font-family="Verdana" font-size="12" lengthAdjust="spacing" textLength="334.3125" x="257.5366" y="100.1387">Afficher "Le mot de passe ne respecte pas les crit&#232;res."</text><polygon fill="#FFFFFF" points="266.5974,118.9688,278.5974,130.9688,266.5974,142.9688,254.5974,130.9688,266.5974,118.9688" style="stroke:#000000;stroke-width:1;"/><ellipse cx="266.5974" cy="173.9688" fill="none" rx="11" ry="11" style="stroke:#000000;stroke-width:1;"/><ellipse cx="266.5974" cy="173.9688" fill="#FFFFFF" rx="6" ry="6" style="stroke:#000000;stroke-width:1;"/><line style="stroke:#000000;stroke-width:1;" x1="118.502" x2="108.502" y1="57" y2="57"/><line style="stroke:#000000;stroke-width:1;" x1="108.502" x2="108.502" y1="57" y2="79"/><polygon fill="#000000" points="104.502,69,108.502,79,112.502,69,108.502,73" style="stroke:#000000;stroke-width:1;"/><line style="stroke:#000000;stroke-width:1;" x1="414.6929" x2="424.6929" y1="57" y2="57"/><line style="stroke:#000000;stroke-width:1;" x1="424.6929" x2="424.6929" y1="57" y2="79"/><polygon fill="#000000" points="420.6929,69,424.6929,79,428.6929,69,424.6929,73" style="stroke:#000000;stroke-width:1;"/><line style="stroke:#000000;stroke-width:1;" x1="108.502" x2="108.502" y1="112.9688" y2="130.9688"/><line style="stroke:#000000;stroke-width:1;" x1="108.502" x2="254.5974" y1="130.9688" y2="130.9688"/><polygon fill="#000000" points="244.5974,126.9688,254.5974,130.9688,244.5974,134.9688,248.5974,130.9688" style="stroke:#000000;stroke-width:1;"/><line style="stroke:#000000;stroke-width:1;" x1="424.6929" x2="424.6929" y1="112.9688" y2="130.9688"/><line style="stroke:#000000;stroke-width:1;" x1="424.6929" x2="278.5974" y1="130.9688" y2="130.9688"/><polygon fill="#000000" points="288.5974,126.9688,278.5974,130.9688,288.5974,134.9688,284.5974,130.9688" style="stroke:#000000;stroke-width:1;"/><line style="stroke:#000000;stroke-width:1;" x1="266.5974" x2="266.5974" y1="25" y2="45"/><polygon fill="#000000" points="262.5974,35,266.5974,45,270.5974,35,266.5974,39" style="stroke:#000000;stroke-width:1;"/><line style="stroke:#000000;stroke-width:1;" x1="266.5974" x2="266.5974" y1="142.9688" y2="162.9688"/><polygon fill="#000000" points="262.5974,152.9688,266.5974,162.9688,270.5974,152.9688,266.5974,156.9688" style="stroke:#000000;stroke-width:1;"/><!--SRC=[NOun3i8m34NtdC9qgCh20M12h2qR1p3j3x6Kfb7YSYRkmSMmAWR4PBt_zRwyqu0Pb2DBSgug5tNYgGjS1qazqaC3jIqPtt96kN35bw_hV4UXFTb4eaxBYhqZEfwzbp5OqmoBqcJZN4rwSfG9X-Ra40qxptR-X1uq_pe9L50pHjqIYgWq5j7to-9jAatYxUqbkmy0]--></g></svg>