<svg xmlns="http://www.w3.org/2000/svg" xmlns:xlink="http://www.w3.org/1999/xlink" contentStyleType="text/css" data-diagram-type="ACTIVITY" height="219px" preserveAspectRatio="none" style="width:364px;height:219px;background:#FFFFFF;" version="1.1" viewBox="0 0 364 219" width="364px" zoomAndPan="magnify"><defs/><g><ellipse cx="169.7559" cy="15" fill="#FFFFFF" rx="10" ry="10" style="stroke:#000000;stroke-width:1;"/><rect fill="#FFFFFF" height="33.9688" rx="12.5" ry="12.5" style="stroke:#000000;stroke-width:1;" width="327.5117" x="6" y="93.4023"/><text fill="#000000" font-family="Verdana" font-size="12" lengthAdjust="spacing" textLength="307.5117" x="16" y="114.541">Afficher "Une source d'&#233;nergie unique est utilis&#233;e."</text><polygon fill="#FFFFFF" points="75.4932,45,264.0186,45,276.0186,57,264.0186,69,75.4932,69,63.4932,57,75.4932,45" style="stroke:#000000;stroke-width:1;"/><text fill="#000000" font-family="Verdana" font-size="11" lengthAdjust="spacing" textLength="22.5747" x="173.7559" y="79.2104">true</text><text fill="#000000" font-family="Verdana" font-size="11" lengthAdjust="spacing" textLength="185.0288" x="75.4932" y="60.8081">usesSolarPower ^ usesGridPower</text><polygon fill="#FFFFFF" points="169.7559,147.3711,181.7559,159.3711,169.7559,171.3711,157.7559,159.3711,169.7559,147.3711" style="stroke:#000000;stroke-width:1;"/><ellipse cx="169.7559" cy="202.3711" fill="none" rx="11" ry="11" style="stroke:#000000;stroke-width:1;"/><ellipse cx="169.7559" cy="202.3711" fill="#FFFFFF" rx="6" ry="6" style="stroke:#000000;stroke-width:1;"/><line style="stroke:#000000;stroke-width:1;" x1="169.7559" x2="169.7559" y1="69" y2="93.4023"/><polygon fill="#000000" points="165.7559,83.4023,169.7559,93.4023,173.7559,83.4023,169.7559,87.4023" style="stroke:#000000;stroke-width:1;"/><line style="stroke:#000000;stroke-width:1;" x1="276.0186" x2="343.5117" y1="57" y2="57"/><polygon fill="#000000" points="339.5117,100.3867,343.5117,110.3867,347.5117,100.3867,343.5117,104.3867" style="stroke:#000000;stroke-width:1;"/><line style="stroke:#000000;stroke-width:1;" x1="343.5117" x2="343.5117" y1="57" y2="159.3711"/><line style="stroke:#000000;stroke-width:1;" x1="343.5117" x2="181.7559" y1="159.3711" y2="159.3711"/><polygon fill="#000000" points="191.7559,155.3711,181.7559,159.3711,191.7559,163.3711,187.7559,159.3711" style="stroke:#000000;stroke-width:1;"/><line style="stroke:#000000;stroke-width:1;" x1="169.7559" x2="169.7559" y1="127.3711" y2="147.3711"/><polygon fill="#000000" points="165.7559,137.3711,169.7559,147.3711,173.7559,137.3711,169.7559,141.3711" style="stroke:#000000;stroke-width:1;"/><line style="stroke:#000000;stroke-width:1;" x1="169.7559" x2="169.7559" y1="25" y2="45"/><polygon fill="#000000" points="165.7559,35,169.7559,45,173.7559,35,169.7559,39" style="stroke:#000000;stroke-width:1;"/><line style="stroke:#000000;stroke-width:1;" x1="169.7559" x2="169.7559" y1="171.3711" y2="191.3711"/><polygon fill="#000000" points="165.7559,181.3711,169.7559,191.3711,173.7559,181.3711,169.7559,185.3711" style="stroke:#000000;stroke-width:1;"/><!--SRC=[9Oqn3i8m40Hxls99GzBm0AYeQ94GBPALhCb9nWvddtXJtf6FOKIvCnhjhivy4KlqafmhrMjr4j1RORdbwFMQFrGyy0CNbUc_1xGkeQzg71nmF8SWuznCTqz4oQOZCUstDL6VGbYIjn4i5LObIjbM7hgJOveajD-yk2y0]--></g></svg>