<?xml version="1.0" encoding="UTF-8" standalone="no"?>
<svg
   xml:space="preserve"
   width="222.783"
   height="323.556"
   viewBox="0 0 167.087 242.667"
   version="1.1"
   id="svg8"
   xmlns="http://www.w3.org/2000/svg"
   xmlns:svg="http://www.w3.org/2000/svg"><defs
     id="defs8" /><g
     style="fill-rule:nonzero;clip-rule:nonzero;stroke:#000;stroke-miterlimit:4"
     id="g1"><path
       d="M166.837 235.548c0 3.777-3.087 6.869-6.871 6.869H7.11c-3.775 0-6.861-3.092-6.861-6.87V7.12C.25 3.343 3.336.25 7.11.25h152.856c3.784 0 6.87 3.093 6.87 6.87z"
       style="fill:#fff;stroke-width:.5"
       id="path1" /></g><path
     d="M50.291 22.698s2.375-1.9 2.375-4.534c0-1.542-1.369-4.102-4.534-4.102s-4.534 2.561-4.534 4.102c0 2.634 2.375 4.534 2.375 4.534-2.638-2.055-7.34-.652-7.34 3.455 0 2.056 1.68 4.318 4.317 4.318 3.165 0 4.534-3.455 4.534-3.455s.402 3.938-1.943 6.046h5.182c-2.345-2.107-1.943-6.046-1.943-6.046s1.37 3.455 4.534 3.455c2.64 0 4.318-2.263 4.318-4.318 0-4.107-4.703-5.51-7.34-3.455"
     style="fill:#000"
     transform="translate(-54.025 10.018)scale(1.48565)"
     id="path2" /><path
     d="M50.291 22.698s2.375-1.9 2.375-4.534c0-1.542-1.369-4.102-4.534-4.102s-4.534 2.561-4.534 4.102c0 2.634 2.375 4.534 2.375 4.534-2.638-2.055-7.34-.652-7.34 3.455 0 2.056 1.68 4.318 4.317 4.318 3.165 0 4.534-3.455 4.534-3.455s.402 3.938-1.943 6.046h5.182c-2.345-2.107-1.943-6.046-1.943-6.046s1.37 3.455 4.534 3.455c2.64 0 4.318-2.263 4.318-4.318 0-4.107-4.703-5.51-7.34-3.455"
     style="fill:#000"
     transform="translate(221.2 232.462)scale(-1.48565)"
     id="path3" /><path
     d="M57.573 25.1s5.967-4.774 5.967-11.392C63.54 9.834 60.1 3.4 52.148 3.4S40.756 9.836 40.756 13.708c0 6.618 5.968 11.392 5.968 11.392-6.629-5.163-18.445-1.638-18.445 8.68 0 5.167 4.22 10.85 10.849 10.85 7.952 0 11.392-8.68 11.392-8.68s1.01 9.894-4.882 15.19h13.02c-5.892-5.294-4.882-15.19-4.882-15.19s3.44 8.68 11.392 8.68c6.631 0 10.85-5.686 10.85-10.85 0-10.318-11.817-13.843-18.445-8.68m-.463 68.1s5.968-4.773 5.968-11.391c0-3.875-3.44-10.307-11.392-10.307-7.953 0-11.392 6.435-11.392 10.307 0 6.618 5.967 11.392 5.967 11.392-6.628-5.164-18.445-1.638-18.445 8.68 0 5.167 4.221 10.85 10.85 10.85 7.952 0 11.392-8.68 11.392-8.68s1.01 9.894-4.882 15.19h13.02c-5.892-5.294-4.882-15.19-4.882-15.19s3.44 8.68 11.392 8.68c6.63 0 10.85-5.686 10.85-10.85 0-10.318-11.817-13.844-18.446-8.68m64.448-68.275s5.967-4.774 5.967-11.392c0-3.874-3.44-10.306-11.392-10.306s-11.392 6.434-11.392 10.306c0 6.618 5.968 11.392 5.968 11.392-6.629-5.163-18.445-1.638-18.445 8.681 0 5.166 4.22 10.85 10.85 10.85 7.951 0 11.391-8.681 11.391-8.681s1.01 9.894-4.882 15.19h13.02c-5.892-5.293-4.882-15.19-4.882-15.19s3.44 8.68 11.392 8.68c6.631 0 10.85-5.685 10.85-10.849 0-10.319-11.817-13.844-18.445-8.68m0 68.1s5.967-4.774 5.967-11.392c0-3.874-3.44-10.307-11.392-10.307s-11.392 6.435-11.392 10.307c0 6.618 5.968 11.392 5.968 11.392-6.629-5.163-18.445-1.638-18.445 8.681 0 5.166 4.22 10.85 10.85 10.85 7.951 0 11.391-8.682 11.391-8.682s1.01 9.895-4.882 15.191h13.02c-5.892-5.294-4.882-15.19-4.882-15.19s3.44 8.68 11.392 8.68c6.631 0 10.85-5.686 10.85-10.849 0-10.32-11.817-13.844-18.445-8.681"
     style="fill:#000"
     id="path4" /><path
     d="M89.577 59.281s5.967-4.774 5.967-11.392c0-3.874-3.44-10.307-11.392-10.307S72.76 44.017 72.76 47.89c0 6.618 5.967 11.392 5.967 11.392-6.628-5.163-18.444-1.638-18.444 8.681 0 5.166 4.22 10.85 10.849 10.85 7.952 0 11.392-8.682 11.392-8.682s1.01 9.895-4.882 15.191h13.02c-5.892-5.294-4.882-15.19-4.882-15.19s3.44 8.68 11.392 8.68c6.631 0 10.85-5.686 10.85-10.849 0-10.32-11.817-13.844-18.445-8.68m20.486 158.519s-5.968 4.774-5.968 11.392c0 3.875 3.44 10.307 11.392 10.307 7.953 0 11.392-6.435 11.392-10.307 0-6.618-5.967-11.392-5.967-11.392 6.628 5.164 18.445 1.638 18.445-8.68 0-5.167-4.221-10.85-10.85-10.85-7.952 0-11.392 8.68-11.392 8.68s-1.01-9.894 4.882-15.19h-13.02c5.892 5.294 4.882 15.19 4.882 15.19s-3.44-8.68-11.392-8.68c-6.63 0-10.85 5.686-10.85 10.85 0 10.318 11.817 13.844 18.446 8.68m.645-68.101s-5.967 4.774-5.967 11.392c0 3.875 3.44 10.307 11.392 10.307s11.392-6.435 11.392-10.307c0-6.618-5.967-11.392-5.967-11.392 6.628 5.164 18.444 1.639 18.444-8.68 0-5.166-4.22-10.85-10.849-10.85-7.952 0-11.392 8.681-11.392 8.681s-1.01-9.894 4.882-15.191h-13.02c5.892 5.294 4.882 15.191 4.882 15.191s-3.44-8.68-11.392-8.68c-6.63 0-10.85 5.685-10.85 10.848 0 10.32 11.817 13.845 18.445 8.681m-64.63 68.275s-5.968 4.773-5.968 11.392c0 3.874 3.44 10.306 11.392 10.306 7.953 0 11.392-6.435 11.392-10.306 0-6.619-5.967-11.392-5.967-11.392 6.628 5.163 18.445 1.638 18.445-8.681 0-5.166-4.221-10.85-10.85-10.85-7.952 0-11.392 8.681-11.392 8.681s-1.01-9.894 4.882-15.19h-13.02c5.892 5.293 4.882 15.19 4.882 15.19s-3.44-8.68-11.392-8.68c-6.63 0-10.85 5.685-10.85 10.849 0 10.319 11.817 13.844 18.446 8.68m.183-68.1s-5.967 4.774-5.967 11.392c0 3.875 3.44 10.307 11.392 10.307s11.392-6.435 11.392-10.307c0-6.618-5.968-11.392-5.968-11.392 6.629 5.163 18.445 1.638 18.445-8.68 0-5.167-4.22-10.85-10.849-10.85-7.952 0-11.392 8.68-11.392 8.68s-1.01-9.894 4.882-15.19h-13.02c5.892 5.294 4.882 15.19 4.882 15.19s-3.44-8.68-11.392-8.68c-6.631 0-10.85 5.686-10.85 10.85 0 10.318 11.817 13.843 18.445 8.68"
     style="fill:#000"
     id="path5" /><path
     style="font-size:32px;line-height:125%;font-family:Arial;-inkscape-font-specification:Arial;letter-spacing:0;word-spacing:0"
     d="m 1.2755001,27.17 v -2.390625 h 5.609375 V 7.8418751 L 1.9161251,11.38875 V 8.7325001 l 5.203125,-3.578125 h 2.59375 V 24.779375 H 15.072375 V 27.17 Z"
     id="text5"
     aria-label="1" /><path
     d="m 21.171875,6.2490005 q -2.4375,0 -3.671875,2.40625 -1.21875,2.3906255 -1.21875,7.2031255 0,4.796875 1.21875,7.203125 1.234375,2.390625 3.671875,2.390625 2.453125,0 3.671875,-2.390625 1.234375,-2.40625 1.234375,-7.203125 0,-4.8125 -1.234375,-7.2031255 -1.21875,-2.40625 -3.671875,-2.40625 z m 0,-2.5 q 3.921875,0 5.984375,3.109375 2.078125,3.09375 2.078125,9.0000005 0,5.890625 -2.078125,9 -2.0625,3.09375 -5.984375,3.09375 -3.921875,0 -6,-3.09375 -2.0625,-3.109375 -2.0625,-9 0,-5.9062505 2.0625,-9.0000005 2.078125,-3.109375 6,-3.109375 z"
     id="text6"
     style="font-size:32px;line-height:125%;font-family:'Bitstream Vera Sans';letter-spacing:0;word-spacing:0"
     aria-label="0" /><path
     d="M78.07 183.938s-5.968 4.773-5.968 11.392c0 3.874 3.44 10.306 11.392 10.306 7.953 0 11.392-6.434 11.392-10.306 0-6.619-5.967-11.392-5.967-11.392 6.628 5.163 18.445 1.638 18.445-8.681 0-5.166-4.221-10.85-10.85-10.85-7.952 0-11.391 8.681-11.391 8.681s-1.01-9.894 4.882-15.19h-13.02c5.891 5.293 4.881 15.19 4.881 15.19s-3.44-8.68-11.392-8.68c-6.63 0-10.849 5.685-10.849 10.849 0 10.319 11.817 13.844 18.445 8.68"
     style="fill:#000"
     id="path6" /><path
     style="font-size:32px;line-height:125%;font-family:Arial;-inkscape-font-specification:Arial;letter-spacing:0;word-spacing:0"
     d="m -166.37151,-216.226 v -2.39062 h 5.60938 v -16.9375 l -4.96875,3.54687 v -2.65625 l 5.20312,-3.57812 h 2.59375 v 19.625 h 5.35938 v 2.39062 z"
     id="text7"
     transform="scale(-1)"
     aria-label="1" /><path
     d="m -146.47412,-237.147 q -2.4375,0 -3.67188,2.40625 -1.21875,2.39062 -1.21875,7.20312 0,4.79688 1.21875,7.20313 1.23438,2.39062 3.67188,2.39062 2.45312,0 3.67187,-2.39062 1.23438,-2.40625 1.23438,-7.20313 0,-4.8125 -1.23438,-7.20312 -1.21875,-2.40625 -3.67187,-2.40625 z m 0,-2.5 q 3.92187,0 5.98437,3.10937 2.07813,3.09375 2.07813,9 0,5.89063 -2.07813,9 -2.0625,3.09375 -5.98437,3.09375 -3.92188,0 -6,-3.09375 -2.0625,-3.10937 -2.0625,-9 0,-5.90625 2.0625,-9 2.07812,-3.10937 6,-3.10937 z"
     id="text8"
     style="font-size:32px;line-height:125%;font-family:'Bitstream Vera Sans';letter-spacing:0;word-spacing:0"
     transform="scale(-1)"
     aria-label="0" /></svg>
