<?xml version="1.0" encoding="UTF-8" standalone="no"?>
<svg
   xml:space="preserve"
   width="222.783"
   height="323.556"
   viewBox="0 0 167.087 242.667"
   version="1.1"
   id="svg15"
   xmlns="http://www.w3.org/2000/svg"
   xmlns:svg="http://www.w3.org/2000/svg"><defs
     id="defs15" /><g
     style="fill-rule:nonzero;clip-rule:nonzero;stroke:#000;stroke-miterlimit:4"
     id="g1"><path
       d="M166.837 235.548c0 3.777-3.087 6.869-6.871 6.869H7.11c-3.775 0-6.861-3.092-6.861-6.87V7.12C.25 3.343 3.336.25 7.11.25h152.856c3.784 0 6.87 3.093 6.87 6.87z"
       style="fill:#fff;stroke-width:.5"
       id="path1" /></g><path
     style="font-size:32px;line-height:125%;font-family:Arial;-inkscape-font-specification:Arial;letter-spacing:0;word-spacing:0;fill:#df0000"
     d="M 2.8455,26.413 V 24.022375 H 8.454875 V 7.0848751 L 3.486125,10.63175 V 7.9755001 L 8.68925,4.3973751 H 11.283 V 24.022375 h 5.359375 V 26.413 Z"
     id="text1"
     aria-label="1" /><path
     d="M3.243-4.725C1.126-7.59 0-10.5 0-10.5s-1.126 2.91-3.243 5.775C-5.361-1.862-8 0-8 0s2.639 1.861 4.757 4.726C-1.126 7.59 0 10.5 0 10.5s1.126-2.91 3.243-5.774C5.361 1.861 8 0 8 0S5.361-1.862 3.243-4.725"
     style="fill:#df0000"
     transform="translate(16.968 44.236)scale(1.4769)"
     id="path2" /><path
     d="M3.243-4.725C1.126-7.59 0-10.5 0-10.5s-1.126 2.91-3.243 5.775C-5.361-1.862-8 0-8 0s2.639 1.861 4.757 4.726C-1.126 7.59 0 10.5 0 10.5s1.126-2.91 3.243-5.774C5.361 1.861 8 0 8 0S5.361-1.862 3.243-4.725"
     style="fill:#df0000"
     transform="translate(150.62 198.503)scale(1.4769)"
     id="path3" /><path
     d="M3.243-4.725C1.126-7.59 0-10.5 0-10.5s-1.126 2.91-3.243 5.775C-5.361-1.862-8 0-8 0s2.639 1.861 4.757 4.726C-1.126 7.59 0 10.5 0 10.5s1.126-2.91 3.243-5.774C5.361 1.861 8 0 8 0S5.361-1.862 3.243-4.725"
     style="fill:#df0000"
     transform="translate(54.129 210.915)scale(2.5883)"
     id="path4" /><path
     d="M3.243-4.725C1.126-7.59 0-10.5 0-10.5s-1.126 2.91-3.243 5.775C-5.361-1.862-8 0-8 0s2.639 1.861 4.757 4.726C-1.126 7.59 0 10.5 0 10.5s1.126-2.91 3.243-5.774C5.361 1.861 8 0 8 0S5.361-1.862 3.243-4.725"
     style="fill:#df0000"
     transform="translate(54.129 31.62)scale(2.5883)"
     id="path5" /><path
     d="M3.243-4.725C1.126-7.59 0-10.5 0-10.5s-1.126 2.91-3.243 5.775C-5.361-1.862-8 0-8 0s2.639 1.861 4.757 4.726C-1.126 7.59 0 10.5 0 10.5s1.126-2.91 3.243-5.774C5.361 1.861 8 0 8 0S5.361-1.862 3.243-4.725"
     style="fill:#df0000"
     transform="translate(54.129 151.183)scale(2.5883)"
     id="path6" /><path
     d="M3.243-4.725C1.126-7.59 0-10.5 0-10.5s-1.126 2.91-3.243 5.775C-5.361-1.862-8 0-8 0s2.639 1.861 4.757 4.726C-1.126 7.59 0 10.5 0 10.5s1.126-2.91 3.243-5.774C5.361 1.861 8 0 8 0S5.361-1.862 3.243-4.725"
     style="fill:#df0000"
     transform="translate(54.129 91.352)scale(2.5883)"
     id="path7" /><path
     d="M3.243-4.725C1.126-7.59 0-10.5 0-10.5s-1.126 2.91-3.243 5.775C-5.361-1.862-8 0-8 0s2.639 1.861 4.757 4.726C-1.126 7.59 0 10.5 0 10.5s1.126-2.91 3.243-5.774C5.361 1.861 8 0 8 0S5.361-1.862 3.243-4.725"
     style="fill:#df0000"
     transform="translate(112.896 210.915)scale(2.5883)"
     id="path8" /><path
     d="M3.243-4.725C1.126-7.59 0-10.5 0-10.5s-1.126 2.91-3.243 5.775C-5.361-1.862-8 0-8 0s2.639 1.861 4.757 4.726C-1.126 7.59 0 10.5 0 10.5s1.126-2.91 3.243-5.774C5.361 1.861 8 0 8 0S5.361-1.862 3.243-4.725"
     style="fill:#df0000"
     transform="translate(112.896 31.62)scale(2.5883)"
     id="path9" /><path
     d="M3.243-4.725C1.126-7.59 0-10.5 0-10.5s-1.126 2.91-3.243 5.775C-5.361-1.862-8 0-8 0s2.639 1.861 4.757 4.726C-1.126 7.59 0 10.5 0 10.5s1.126-2.91 3.243-5.774C5.361 1.861 8 0 8 0S5.361-1.862 3.243-4.725"
     style="fill:#df0000"
     transform="translate(112.896 151.183)scale(2.5883)"
     id="path10" /><path
     d="M3.243-4.725C1.126-7.59 0-10.5 0-10.5s-1.126 2.91-3.243 5.775C-5.361-1.862-8 0-8 0s2.639 1.861 4.757 4.726C-1.126 7.59 0 10.5 0 10.5s1.126-2.91 3.243-5.774C5.361 1.861 8 0 8 0S5.361-1.862 3.243-4.725"
     style="fill:#df0000"
     transform="translate(112.896 91.352)scale(2.5883)"
     id="path11" /><path
     d="M3.243-4.725C1.126-7.59 0-10.5 0-10.5s-1.126 2.91-3.243 5.775C-5.361-1.862-8 0-8 0s2.639 1.861 4.757 4.726C-1.126 7.59 0 10.5 0 10.5s1.126-2.91 3.243-5.774C5.361 1.861 8 0 8 0S5.361-1.862 3.243-4.725"
     style="fill:#df0000"
     transform="translate(83.213 61.829)scale(2.5883)"
     id="path12" /><path
     d="M3.243-4.725C1.126-7.59 0-10.5 0-10.5s-1.126 2.91-3.243 5.775C-5.361-1.862-8 0-8 0s2.639 1.861 4.757 4.726C-1.126 7.59 0 10.5 0 10.5s1.126-2.91 3.243-5.774C5.361 1.861 8 0 8 0S5.361-1.862 3.243-4.725"
     style="fill:#df0000"
     transform="translate(83.008 180.838)scale(2.5883)"
     id="path13" /><path
     style="font-size:32px;line-height:125%;font-family:Arial;-inkscape-font-specification:Arial;letter-spacing:0;word-spacing:0;fill:#df0000"
     d="m 29.762875,15.360374 q 0,5.515625 -1.953125,8.421875 -1.9375,2.90625 -5.734375,2.90625 -3.796875,0 -5.703125,-2.890625 -1.90625,-2.890625 -1.90625,-8.4375 0,-5.6718745 1.84375,-8.4999995 1.859375,-2.828125 5.859375,-2.828125 3.890625,0 5.734375,2.859375 1.859375,2.859375 1.859375,8.4687495 z m -2.859375,0 q 0,-4.765625 -1.109375,-6.9062495 -1.09375,-2.140625 -3.625,-2.140625 -2.59375,0 -3.734375,2.109375 -1.125,2.1093745 -1.125,6.9374995 0,4.6875 1.140625,6.859375 1.15625,2.171875 3.65625,2.171875 2.484375,0 3.640625,-2.21875 1.15625,-2.21875 1.15625,-6.8125 z"
     id="text13"
     aria-label="0" /><path
     style="font-size:32px;line-height:125%;font-family:Arial;-inkscape-font-specification:Arial;letter-spacing:0;word-spacing:0;fill:#df0000"
     d="m -163.9975,-215.98399 v -2.39063 h 5.60938 v -16.9375 l -4.96875,3.54688 v -2.65625 l 5.20312,-3.57813 h 2.59375 v 19.625 h 5.35938 v 2.39063 z"
     id="text14"
     transform="scale(-1)"
     aria-label="1" /><path
     style="font-size:32px;line-height:125%;font-family:Arial;-inkscape-font-specification:Arial;letter-spacing:0;word-spacing:0;fill:#df0000"
     d="m -137.08012,-227.03662 q 0,5.51562 -1.95313,8.42187 -1.9375,2.90625 -5.73437,2.90625 -3.79688,0 -5.70313,-2.89062 -1.90625,-2.89063 -1.90625,-8.4375 0,-5.67188 1.84375,-8.5 1.85938,-2.82813 5.85938,-2.82813 3.89062,0 5.73437,2.85938 1.85938,2.85937 1.85938,8.46875 z m -2.85938,0 q 0,-4.76563 -1.10937,-6.90625 -1.09375,-2.14063 -3.625,-2.14063 -2.59375,0 -3.73438,2.10938 -1.125,2.10937 -1.125,6.9375 0,4.6875 1.14063,6.85937 1.15625,2.17188 3.65625,2.17188 2.48437,0 3.64062,-2.21875 1.15625,-2.21875 1.15625,-6.8125 z"
     id="text15"
     transform="scale(-1)"
     aria-label="0" /></svg>
