<?xml version="1.0" encoding="UTF-8" standalone="no"?>
<svg
   xml:space="preserve"
   width="222.783"
   height="323.556"
   viewBox="0 0 167.087 242.667"
   version="1.1"
   id="svg15"
   xmlns="http://www.w3.org/2000/svg"
   xmlns:svg="http://www.w3.org/2000/svg"><defs
     id="defs15" /><g
     style="fill-rule:nonzero;clip-rule:nonzero;stroke:#000;stroke-miterlimit:4"
     id="g1"><path
       d="M166.837 235.548c0 3.777-3.087 6.869-6.871 6.869H7.11c-3.775 0-6.861-3.092-6.861-6.87V7.12C.25 3.343 3.336.25 7.11.25h152.856c3.784 0 6.87 3.093 6.87 6.87z"
       style="fill:#fff;stroke-width:.5"
       id="path1" /></g><path
     style="font-size:32px;line-height:125%;font-family:Arial;-inkscape-font-specification:Arial;letter-spacing:0;word-spacing:0"
     d="M 2.4815,28.341999 V 25.951374 H 8.090875 V 9.0138741 L 3.122125,12.560749 V 9.9044991 L 8.32525,6.3263741 H 10.919 V 25.951374 h 5.359375 v 2.390625 z"
     id="text1"
     aria-label="1" /><path
     d="M7.989 3.103C7.747-.954.242-8.59 0-10.5-.242-8.591-7.747-.955-7.989 3.103c-.169 2.868 1.695 4.057 3.39 4.057 1.835-.022 3.35-2.8 3.873-3.341.242.716-1.603 6.682-2.179 6.682h5.811c-.576 0-2.421-5.966-2.179-6.682.457.496 1.797 3.258 3.874 3.341 1.694-.001 3.557-1.189 3.388-4.057"
     style="fill:#000"
     transform="matrix(1.5086 0 0 1.37933 16.929 45.066)"
     id="path2" /><path
     d="M7.989 3.103C7.747-.954.242-8.59 0-10.5-.242-8.591-7.747-.955-7.989 3.103c-.169 2.868 1.695 4.057 3.39 4.057 1.835-.022 3.35-2.8 3.873-3.341.242.716-1.603 6.682-2.179 6.682h5.811c-.576 0-2.421-5.966-2.179-6.682.457.496 1.797 3.258 3.874 3.341 1.694-.001 3.557-1.189 3.388-4.057"
     style="fill:#000"
     transform="matrix(2.64868 0 0 2.42172 53.01 31.766)"
     id="path3" /><path
     d="M7.989 3.103C7.747-.954.242-8.59 0-10.5-.242-8.591-7.747-.955-7.989 3.103c-.169 2.868 1.695 4.057 3.39 4.057 1.835-.022 3.35-2.8 3.873-3.341.242.716-1.603 6.682-2.179 6.682h5.811c-.576 0-2.421-5.966-2.179-6.682.457.496 1.797 3.258 3.874 3.341 1.694-.001 3.557-1.189 3.388-4.057"
     style="fill:#000"
     transform="matrix(-1.5086 0 0 -1.37933 150.225 198.044)"
     id="path4" /><path
     d="M7.989 3.103C7.747-.954.242-8.59 0-10.5-.242-8.591-7.747-.955-7.989 3.103c-.169 2.868 1.695 4.057 3.39 4.057 1.835-.022 3.35-2.8 3.873-3.341.242.716-1.603 6.682-2.179 6.682h5.811c-.576 0-2.421-5.966-2.179-6.682.457.496 1.797 3.258 3.874 3.341 1.694-.001 3.557-1.189 3.388-4.057"
     style="fill:#000"
     transform="matrix(2.64868 0 0 2.42172 53.34 94.698)"
     id="path5" /><path
     d="M7.989 3.103C7.747-.954.242-8.59 0-10.5-.242-8.591-7.747-.955-7.989 3.103c-.169 2.868 1.695 4.057 3.39 4.057 1.835-.022 3.35-2.8 3.873-3.341.242.716-1.603 6.682-2.179 6.682h5.811c-.576 0-2.421-5.966-2.179-6.682.457.496 1.797 3.258 3.874 3.341 1.694-.001 3.557-1.189 3.388-4.057"
     style="fill:#000"
     transform="matrix(-2.64868 0 0 -2.42172 53.79 212.664)"
     id="path6" /><path
     d="M7.989 3.103C7.747-.954.242-8.59 0-10.5-.242-8.591-7.747-.955-7.989 3.103c-.169 2.868 1.695 4.057 3.39 4.057 1.835-.022 3.35-2.8 3.873-3.341.242.716-1.603 6.682-2.179 6.682h5.811c-.576 0-2.421-5.966-2.179-6.682.457.496 1.797 3.258 3.874 3.341 1.694-.001 3.557-1.189 3.388-4.057"
     style="fill:#000"
     transform="matrix(-2.64868 0 0 -2.42172 53.46 151.331)"
     id="path7" /><path
     d="M7.989 3.103C7.747-.954.242-8.59 0-10.5-.242-8.591-7.747-.955-7.989 3.103c-.169 2.868 1.695 4.057 3.39 4.057 1.835-.022 3.35-2.8 3.873-3.341.242.716-1.603 6.682-2.179 6.682h5.811c-.576 0-2.421-5.966-2.179-6.682.457.496 1.797 3.258 3.874 3.341 1.694-.001 3.557-1.189 3.388-4.057"
     style="fill:#000"
     transform="matrix(2.64868 0 0 2.42172 114.978 31.578)"
     id="path8" /><path
     d="M7.989 3.103C7.747-.954.242-8.59 0-10.5-.242-8.591-7.747-.955-7.989 3.103c-.169 2.868 1.695 4.057 3.39 4.057 1.835-.022 3.35-2.8 3.873-3.341.242.716-1.603 6.682-2.179 6.682h5.811c-.576 0-2.421-5.966-2.179-6.682.457.496 1.797 3.258 3.874 3.341 1.694-.001 3.557-1.189 3.388-4.057"
     style="fill:#000"
     transform="matrix(2.64868 0 0 2.42172 115.307 94.51)"
     id="path9" /><path
     d="M7.989 3.103C7.747-.954.242-8.59 0-10.5-.242-8.591-7.747-.955-7.989 3.103c-.169 2.868 1.695 4.057 3.39 4.057 1.835-.022 3.35-2.8 3.873-3.341.242.716-1.603 6.682-2.179 6.682h5.811c-.576 0-2.421-5.966-2.179-6.682.457.496 1.797 3.258 3.874 3.341 1.694-.001 3.557-1.189 3.388-4.057"
     style="fill:#000"
     transform="matrix(-2.64868 0 0 -2.42172 115.757 212.476)"
     id="path10" /><path
     d="M7.989 3.103C7.747-.954.242-8.59 0-10.5-.242-8.591-7.747-.955-7.989 3.103c-.169 2.868 1.695 4.057 3.39 4.057 1.835-.022 3.35-2.8 3.873-3.341.242.716-1.603 6.682-2.179 6.682h5.811c-.576 0-2.421-5.966-2.179-6.682.457.496 1.797 3.258 3.874 3.341 1.694-.001 3.557-1.189 3.388-4.057"
     style="fill:#000"
     transform="matrix(-2.64868 0 0 -2.42172 115.428 151.143)"
     id="path11" /><path
     d="M7.989 3.103C7.747-.954.242-8.59 0-10.5-.242-8.591-7.747-.955-7.989 3.103c-.169 2.868 1.695 4.057 3.39 4.057 1.835-.022 3.35-2.8 3.873-3.341.242.716-1.603 6.682-2.179 6.682h5.811c-.576 0-2.421-5.966-2.179-6.682.457.496 1.797 3.258 3.874 3.341 1.694-.001 3.557-1.189 3.388-4.057"
     style="fill:#000"
     transform="matrix(2.64868 0 0 2.42172 84.152 64.171)"
     id="path12" /><path
     d="M7.989 3.103C7.747-.954.242-8.59 0-10.5-.242-8.591-7.747-.955-7.989 3.103c-.169 2.868 1.695 4.057 3.39 4.057 1.835-.022 3.35-2.8 3.873-3.341.242.716-1.603 6.682-2.179 6.682h5.811c-.576 0-2.421-5.966-2.179-6.682.457.496 1.797 3.258 3.874 3.341 1.694-.001 3.557-1.189 3.388-4.057"
     style="fill:#000"
     transform="matrix(-2.64868 0 0 -2.42172 84.48 180.54)"
     id="path13" /><path
     d="m 22.377875,7.4209995 q -2.4375,0 -3.671875,2.40625 -1.21875,2.3906255 -1.21875,7.2031255 0,4.796875 1.21875,7.203125 1.234375,2.390625 3.671875,2.390625 2.453125,0 3.671875,-2.390625 1.234375,-2.40625 1.234375,-7.203125 0,-4.8125 -1.234375,-7.2031255 -1.21875,-2.40625 -3.671875,-2.40625 z m 0,-2.5 q 3.921875,0 5.984375,3.109375 2.078125,3.0937505 2.078125,9.0000005 0,5.890625 -2.078125,9 -2.0625,3.09375 -5.984375,3.09375 -3.921875,0 -6,-3.09375 -2.0625,-3.109375 -2.0625,-9 0,-5.90625 2.0625,-9.0000005 2.078125,-3.109375 6,-3.109375 z"
     id="text13"
     style="font-size:32px;line-height:125%;font-family:'Bitstream Vera Sans';letter-spacing:0;word-spacing:0"
     aria-label="0" /><path
     style="font-size:32px;line-height:125%;font-family:Arial;-inkscape-font-specification:Arial;letter-spacing:0;word-spacing:0"
     d="m -164.39951,-214.58299 v -2.39063 h 5.60938 v -16.9375 l -4.96875,3.54688 v -2.65625 l 5.20312,-3.57813 h 2.59375 v 19.625 h 5.35938 v 2.39063 z"
     id="text14"
     transform="scale(-1)"
     aria-label="1" /><path
     d="m -144.50212,-235.504 q -2.4375,0 -3.67188,2.40625 -1.21875,2.39063 -1.21875,7.20313 0,4.79687 1.21875,7.20312 1.23438,2.39063 3.67188,2.39063 2.45312,0 3.67187,-2.39063 1.23438,-2.40625 1.23438,-7.20312 0,-4.8125 -1.23438,-7.20313 -1.21875,-2.40625 -3.67187,-2.40625 z m 0,-2.5 q 3.92187,0 5.98437,3.10938 2.07813,3.09375 2.07813,9 0,5.89062 -2.07813,9 -2.0625,3.09375 -5.98437,3.09375 -3.92188,0 -6,-3.09375 -2.0625,-3.10938 -2.0625,-9 0,-5.90625 2.0625,-9 2.07812,-3.10938 6,-3.10938 z"
     id="text15"
     style="font-size:32px;line-height:125%;font-family:'Bitstream Vera Sans';letter-spacing:0;word-spacing:0"
     transform="scale(-1)"
     aria-label="0" /></svg>
