<?xml version="1.0" encoding="UTF-8" standalone="no"?>
<svg
   xml:space="preserve"
   width="222.783"
   height="323.556"
   viewBox="0 0 167.087 242.667"
   version="1.1"
   id="svg5"
   xmlns="http://www.w3.org/2000/svg"
   xmlns:svg="http://www.w3.org/2000/svg"><defs
     id="defs5" /><g
     style="fill-rule:nonzero;clip-rule:nonzero;stroke:#000;stroke-miterlimit:4"
     id="g1"><path
       d="M166.837 235.548c0 3.777-3.087 6.869-6.871 6.869H7.11c-3.775 0-6.861-3.092-6.861-6.87V7.12C.25 3.343 3.336.25 7.11.25h152.856c3.784 0 6.87 3.093 6.87 6.87z"
       style="fill:#fff;stroke-width:.5"
       id="path1" /></g><path
     style="font-size:32px;line-height:125%;font-family:Arial;-inkscape-font-specification:Arial;letter-spacing:0;word-spacing:0;fill:#df0000"
     d="m 10.384375,28.013 v -1.984375 q 0.796875,-1.828125 1.9375,-3.21875 1.15625,-1.40625 2.421875,-2.53125 1.265625,-1.140625 2.5,-2.109375 1.25,-0.96875 2.25,-1.9375 1,-0.96875 1.609375,-2.03125 0.625,-1.0625 0.625,-2.40625 0,-1.8124995 -1.0625,-2.8124995 -1.0625,-1 -2.953125,-1 -1.796875,0 -2.96875,0.984375 -1.15625,0.96875 -1.359375,2.7343745 l -2.875,-0.265625 q 0.3125,-2.6406245 2.234375,-4.2031245 1.9375,-1.5625 4.96875,-1.5625 3.328125,0 5.109375,1.578125 1.796875,1.5625 1.796875,4.4531245 0,1.28125 -0.59375,2.546875 -0.578125,1.265625 -1.734375,2.53125 -1.15625,1.265625 -4.421875,3.921875 -1.796875,1.46875 -2.859375,2.65625 -1.0625,1.171875 -1.53125,2.265625 H 24.9625 V 28.013 Z"
     id="text1"
     aria-label="2" /><path
     d="M3.676-9C.433-9 0-5.523 0-5.523S-.433-9-3.676-9C-5.946-9-8-7.441-8-4.5-8-.614-1.42 3.294 0 9 1.352 3.299 8-.614 8-4.5 8-7.441 5.946-9 3.676-9"
     style="fill:#df0000;fill-opacity:1"
     transform="matrix(1.6743 0 0 1.567 17.178 46.385)"
     id="path2" /><path
     style="font-size:32px;line-height:125%;font-family:Arial;-inkscape-font-specification:Arial;letter-spacing:0;word-spacing:0;fill:#df0000"
     d="m -157.20862,-213.515 v -1.98437 q 0.79688,-1.82813 1.9375,-3.21875 1.15625,-1.40625 2.42188,-2.53125 1.26562,-1.14063 2.5,-2.10938 1.25,-0.96875 2.25,-1.9375 1,-0.96875 1.60937,-2.03125 0.625,-1.0625 0.625,-2.40625 0,-1.8125 -1.0625,-2.8125 -1.0625,-1 -2.95312,-1 -1.79688,0 -2.96875,0.98438 -1.15625,0.96875 -1.35938,2.73437 l -2.875,-0.26562 q 0.3125,-2.64063 2.23438,-4.20313 1.9375,-1.5625 4.96875,-1.5625 3.32812,0 5.10937,1.57813 1.79688,1.5625 1.79688,4.45312 0,1.28125 -0.59375,2.54688 -0.57813,1.26562 -1.73438,2.53125 -1.15625,1.26562 -4.42187,3.92187 -1.79688,1.46875 -2.85938,2.65625 -1.0625,1.17188 -1.53125,2.26563 h 11.48438 v 2.39062 z"
     id="text2"
     transform="scale(-1)"
     aria-label="2" /><path
     d="M3.676-9C.433-9 0-5.523 0-5.523S-.433-9-3.676-9C-5.946-9-8-7.441-8-4.5-8-.614-1.42 3.294 0 9 1.352 3.299 8-.614 8-4.5 8-7.441 5.946-9 3.676-9"
     style="fill:#df0000;fill-opacity:1"
     transform="matrix(-1.6743 0 0 -1.567 150.156 195.143)"
     id="path3" /><path
     d="M3.676-9C.433-9 0-5.523 0-5.523S-.433-9-3.676-9C-5.946-9-8-7.441-8-4.5-8-.614-1.42 3.294 0 9 1.352 3.299 8-.614 8-4.5 8-7.441 5.946-9 3.676-9"
     style="fill:#df0000;fill-opacity:1"
     transform="matrix(2.779 0 0 2.60089 83.701 56.86)"
     id="path4" /><path
     d="M3.676-9C.433-9 0-5.523 0-5.523S-.433-9-3.676-9C-5.946-9-8-7.441-8-4.5-8-.614-1.42 3.294 0 9 1.352 3.299 8-.614 8-4.5 8-7.441 5.946-9 3.676-9"
     style="fill:#df0000;fill-opacity:1"
     transform="matrix(-2.779 0 0 -2.60089 83.701 185.262)"
     id="path5" /></svg>
