<?xml version="1.0" encoding="UTF-8" standalone="no"?>
<svg
   xml:space="preserve"
   width="222.783"
   height="323.556"
   viewBox="0 0 167.087 242.667"
   version="1.1"
   id="svg8"
   xmlns="http://www.w3.org/2000/svg"
   xmlns:svg="http://www.w3.org/2000/svg"><defs
     id="defs8" /><g
     style="fill-rule:nonzero;clip-rule:nonzero;stroke:#000;stroke-miterlimit:4"
     id="g1"><path
       d="M166.837 235.548c0 3.777-3.087 6.869-6.871 6.869H7.11c-3.775 0-6.861-3.092-6.861-6.87V7.12C.25 3.343 3.336.25 7.11.25h152.856c3.784 0 6.87 3.093 6.87 6.87z"
       style="fill:#fff;stroke-width:.5"
       id="path1" /></g><path
     style="font-size:32px;line-height:125%;font-family:Arial;-inkscape-font-specification:Arial;letter-spacing:0;word-spacing:0"
     d="m 10.156375,28.013 v -1.984375 q 0.796875,-1.828125 1.9375,-3.21875 1.15625,-1.40625 2.421875,-2.53125 1.265625,-1.140625 2.5,-2.109375 1.25,-0.96875 2.25,-1.9375 1,-0.96875 1.609375,-2.03125 0.625,-1.0625 0.625,-2.40625 0,-1.8124995 -1.0625,-2.8124995 -1.0625,-1 -2.953125,-1 -1.796875,0 -2.96875,0.984375 -1.15625,0.96875 -1.359375,2.7343745 l -2.875,-0.265625 q 0.3125,-2.6406245 2.234375,-4.2031245 1.9375,-1.5625 4.96875,-1.5625 3.328125,0 5.109375,1.578125 1.796875,1.5625 1.796875,4.4531245 0,1.28125 -0.59375,2.546875 -0.578125,1.265625 -1.734375,2.53125 -1.15625,1.265625 -4.421875,3.921875 -1.796875,1.46875 -2.859375,2.65625 -1.0625,1.171875 -1.53125,2.265625 H 24.7345 V 28.013 Z"
     id="text1"
     aria-label="2" /><path
     d="M7.989 3.103C7.747-.954.242-8.59 0-10.5-.242-8.591-7.747-.955-7.989 3.103c-.169 2.868 1.695 4.057 3.39 4.057 1.835-.022 3.35-2.8 3.873-3.341.242.716-1.603 6.682-2.179 6.682h5.811c-.576 0-2.421-5.966-2.179-6.682.457.496 1.797 3.258 3.874 3.341 1.694-.001 3.557-1.189 3.388-4.057"
     style="fill:#000"
     transform="matrix(1.5086 0 0 1.37933 16.929 45.066)"
     id="path2" /><path
     d="M7.989 3.103C7.747-.954.242-8.59 0-10.5-.242-8.591-7.747-.955-7.989 3.103c-.169 2.868 1.695 4.057 3.39 4.057 1.835-.022 3.35-2.8 3.873-3.341.242.716-1.603 6.682-2.179 6.682h5.811c-.576 0-2.421-5.966-2.179-6.682.457.496 1.797 3.258 3.874 3.341 1.694-.001 3.557-1.189 3.388-4.057"
     style="fill:#000"
     transform="matrix(2.64868 0 0 2.42172 83.41 57.366)"
     id="path3" /><path
     style="font-size:32px;line-height:125%;font-family:Arial;-inkscape-font-specification:Arial;letter-spacing:0;word-spacing:0"
     d="m -157.36862,-215.12399 v -1.98438 q 0.79687,-1.82812 1.9375,-3.21875 1.15625,-1.40625 2.42187,-2.53125 1.26563,-1.14062 2.5,-2.10937 1.25,-0.96875 2.25,-1.9375 1,-0.96875 1.60938,-2.03125 0.625,-1.0625 0.625,-2.40625 0,-1.8125 -1.0625,-2.8125 -1.0625,-1 -2.95313,-1 -1.79687,0 -2.96875,0.98437 -1.15625,0.96875 -1.35937,2.73438 l -2.875,-0.26563 q 0.3125,-2.64062 2.23437,-4.20312 1.9375,-1.5625 4.96875,-1.5625 3.32813,0 5.10938,1.57812 1.79687,1.5625 1.79687,4.45313 0,1.28125 -0.59375,2.54687 -0.57812,1.26563 -1.73437,2.53125 -1.15625,1.26563 -4.42188,3.92188 -1.79687,1.46875 -2.85937,2.65625 -1.0625,1.17187 -1.53125,2.26562 h 11.48437 v 2.39063 z"
     id="text3"
     transform="scale(-1)"
     aria-label="2" /><path
     d="M7.989 3.103C7.747-.954.242-8.59 0-10.5-.242-8.591-7.747-.955-7.989 3.103c-.169 2.868 1.695 4.057 3.39 4.057 1.835-.022 3.35-2.8 3.873-3.341.242.716-1.603 6.682-2.179 6.682h5.811c-.576 0-2.421-5.966-2.179-6.682.457.496 1.797 3.258 3.874 3.341 1.694-.001 3.557-1.189 3.388-4.057"
     style="fill:#000"
     transform="matrix(-1.5086 0 0 -1.37933 150.225 198.044)"
     id="path4" /><path
     d="M7.989 3.103C7.747-.954.242-8.59 0-10.5-.242-8.591-7.747-.955-7.989 3.103c-.169 2.868 1.695 4.057 3.39 4.057 1.835-.022 3.35-2.8 3.873-3.341.242.716-1.603 6.682-2.179 6.682h5.811c-.576 0-2.421-5.966-2.179-6.682.457.496 1.797 3.258 3.874 3.341 1.694-.001 3.557-1.189 3.388-4.057"
     style="fill:#000"
     transform="matrix(-2.64868 0 0 -2.42172 83.456 185.771)"
     id="path5" /><path
     fill="none"
     stroke="#fff"
     stroke-linecap="round"
     stroke-linejoin="round"
     stroke-width="18"
     d="m53.54 121.33 20 20 40-50"
     id="path6" /><path
     fill="none"
     stroke="#0a0"
     stroke-linecap="round"
     stroke-linejoin="round"
     stroke-width="12"
     d="m53.54 121.33 20 20 40-50"
     id="path7" /><path
     fill="none"
     stroke="#0a0"
     stroke-width="5"
     d="M0 0h167.087v242.667H0z"
     id="path8" /></svg>
