<?xml version="1.0" encoding="UTF-8" standalone="no"?>
<svg
   xml:space="preserve"
   width="222.783"
   height="323.556"
   viewBox="0 0 167.087 242.667"
   version="1.1"
   id="svg8"
   xmlns="http://www.w3.org/2000/svg"
   xmlns:svg="http://www.w3.org/2000/svg"><defs
     id="defs8" /><g
     style="fill-rule:nonzero;clip-rule:nonzero;stroke:#000;stroke-miterlimit:4"
     id="g1"><path
       d="M166.837 235.548c0 3.777-3.087 6.869-6.871 6.869H7.11c-3.775 0-6.861-3.092-6.861-6.87V7.12C.25 3.343 3.336.25 7.11.25h152.856c3.784 0 6.87 3.093 6.87 6.87z"
       style="fill:#fff;stroke-width:.5"
       id="path1" /></g><path
     style="font-size:32px;line-height:125%;font-family:Arial;-inkscape-font-specification:Arial;letter-spacing:0;word-spacing:0"
     d="m 9.9203749,27.548 v -1.984375 q 0.7968751,-1.828125 1.9375001,-3.21875 1.15625,-1.40625 2.421875,-2.53125 1.265625,-1.140625 2.5,-2.109375 1.25,-0.96875 2.25,-1.9375 1,-0.96875 1.609375,-2.03125 0.625,-1.0625 0.625,-2.40625 0,-1.8124997 -1.0625,-2.8124997 -1.0625,-1 -2.953125,-1 -1.796875,0 -2.96875,0.984375 -1.15625,0.96875 -1.359375,2.7343747 l -2.875,-0.265625 q 0.3125,-2.6406247 2.234375,-4.2031247 1.9375,-1.5625 4.96875,-1.5625 3.328125,0 5.109375,1.578125 1.796875,1.5625 1.796875,4.4531247 0,1.28125 -0.59375,2.546875 -0.578125,1.265625 -1.734375,2.53125 -1.15625,1.265625 -4.421875,3.921875 -1.796875,1.46875 -2.859375,2.65625 -1.0625,1.171875 -1.53125,2.265625 H 24.4985 V 27.548 Z"
     id="text1"
     aria-label="2" /><path
     d="M50.291 22.698s2.375-1.9 2.375-4.534c0-1.542-1.369-4.102-4.534-4.102s-4.534 2.561-4.534 4.102c0 2.634 2.375 4.534 2.375 4.534-2.638-2.055-7.34-.652-7.34 3.455 0 2.056 1.68 4.318 4.317 4.318 3.165 0 4.534-3.455 4.534-3.455s.402 3.938-1.943 6.046h5.182c-2.345-2.107-1.943-6.046-1.943-6.046s1.37 3.455 4.534 3.455c2.64 0 4.318-2.263 4.318-4.318 0-4.107-4.703-5.51-7.34-3.455"
     style="fill:#000"
     transform="translate(-54.025 10.018)scale(1.48565)"
     id="path2" /><path
     style="font-size:32px;line-height:125%;font-family:Arial;-inkscape-font-specification:Arial;letter-spacing:0;word-spacing:0"
     d="m -157.25462,-214.467 v -1.98437 q 0.79687,-1.82813 1.9375,-3.21875 1.15625,-1.40625 2.42187,-2.53125 1.26563,-1.14063 2.5,-2.10938 1.25,-0.96875 2.25,-1.9375 1,-0.96875 1.60938,-2.03125 0.625,-1.0625 0.625,-2.40625 0,-1.8125 -1.0625,-2.8125 -1.0625,-1 -2.95313,-1 -1.79687,0 -2.96875,0.98438 -1.15625,0.96875 -1.35937,2.73437 l -2.875,-0.26562 q 0.3125,-2.64063 2.23437,-4.20313 1.9375,-1.5625 4.96875,-1.5625 3.32813,0 5.10938,1.57813 1.79687,1.5625 1.79687,4.45312 0,1.28125 -0.59375,2.54688 -0.57812,1.26562 -1.73437,2.53125 -1.15625,1.26562 -4.42188,3.92187 -1.79687,1.46875 -2.85937,2.65625 -1.0625,1.17188 -1.53125,2.26563 h 11.48437 v 2.39062 z"
     id="text2"
     transform="scale(-1)"
     aria-label="2" /><path
     d="M50.291 22.698s2.375-1.9 2.375-4.534c0-1.542-1.369-4.102-4.534-4.102s-4.534 2.561-4.534 4.102c0 2.634 2.375 4.534 2.375 4.534-2.638-2.055-7.34-.652-7.34 3.455 0 2.056 1.68 4.318 4.317 4.318 3.165 0 4.534-3.455 4.534-3.455s.402 3.938-1.943 6.046h5.182c-2.345-2.107-1.943-6.046-1.943-6.046s1.37 3.455 4.534 3.455c2.64 0 4.318-2.263 4.318-4.318 0-4.107-4.703-5.51-7.34-3.455"
     style="fill:#000"
     transform="translate(221.2 232.462)scale(-1.48565)"
     id="path3" /><path
     d="M50.291 22.698s2.375-1.9 2.375-4.534c0-1.542-1.369-4.102-4.534-4.102s-4.534 2.561-4.534 4.102c0 2.634 2.375 4.534 2.375 4.534-2.638-2.055-7.34-.652-7.34 3.455 0 2.056 1.68 4.318 4.317 4.318 3.165 0 4.534-3.455 4.534-3.455s.402 3.938-1.943 6.046h5.182c-2.345-2.107-1.943-6.046-1.943-6.046s1.37 3.455 4.534 3.455c2.64 0 4.318-2.263 4.318-4.318 0-4.107-4.703-5.51-7.34-3.455"
     style="fill:#000"
     transform="translate(-36.788 -1.531)scale(2.51258)"
     id="path4" /><path
     d="M50.291 22.698s2.375-1.9 2.375-4.534c0-1.542-1.369-4.102-4.534-4.102s-4.534 2.561-4.534 4.102c0 2.634 2.375 4.534 2.375 4.534-2.638-2.055-7.34-.652-7.34 3.455 0 2.056 1.68 4.318 4.317 4.318 3.165 0 4.534-3.455 4.534-3.455s.402 3.938-1.943 6.046h5.182c-2.345-2.107-1.943-6.046-1.943-6.046s1.37 3.455 4.534 3.455c2.64 0 4.318-2.263 4.318-4.318 0-4.107-4.703-5.51-7.34-3.455"
     style="fill:#000"
     transform="translate(205.13 245.275)scale(-2.51258)"
     id="path5" /><path
     fill="none"
     stroke="#fff"
     stroke-linecap="round"
     stroke-linejoin="round"
     stroke-width="18"
     d="m53.54 121.33 20 20 40-50"
     id="path6" /><path
     fill="none"
     stroke="#0a0"
     stroke-linecap="round"
     stroke-linejoin="round"
     stroke-width="12"
     d="m53.54 121.33 20 20 40-50"
     id="path7" /><path
     fill="none"
     stroke="#0a0"
     stroke-width="5"
     d="M0 0h167.087v242.667H0z"
     id="path8" /></svg>
