<?xml version="1.0" encoding="UTF-8" standalone="no"?>
<svg
   xml:space="preserve"
   width="222.783"
   height="323.556"
   viewBox="0 0 167.087 242.667"
   version="1.1"
   id="svg5"
   xmlns="http://www.w3.org/2000/svg"
   xmlns:svg="http://www.w3.org/2000/svg"><defs
     id="defs5" /><g
     style="fill-rule:nonzero;clip-rule:nonzero;stroke:#000;stroke-miterlimit:4"
     id="g1"><path
       d="M166.837 235.548c0 3.777-3.087 6.869-6.871 6.869H7.11c-3.775 0-6.861-3.092-6.861-6.87V7.12C.25 3.343 3.336.25 7.11.25h152.856c3.784 0 6.87 3.093 6.87 6.87z"
       style="fill:#fff;stroke-width:.5"
       id="path1" /></g><path
     style="font-size:32px;line-height:125%;font-family:Arial;-inkscape-font-specification:Arial;letter-spacing:0;word-spacing:0;fill:#df0000"
     d="m 9.4553752,26.413 v -1.984375 q 0.7968748,-1.828125 1.9374998,-3.21875 1.15625,-1.40625 2.421875,-2.53125 1.265625,-1.140625 2.5,-2.109375 1.25,-0.96875 2.25,-1.9375 1,-0.96875 1.609375,-2.03125 0.625,-1.0625 0.625,-2.40625 0,-1.8124999 -1.0625,-2.8124999 -1.0625,-1 -2.953125,-1 -1.796875,0 -2.96875,0.984375 -1.15625,0.96875 -1.359375,2.7343749 L 9.5803752,9.8348751 q 0.3125,-2.640625 2.2343748,-4.203125 1.9375,-1.5625 4.96875,-1.5625 3.328125,0 5.109375,1.578125 1.796875,1.5625 1.796875,4.4531249 0,1.28125 -0.59375,2.546875 -0.578125,1.265625 -1.734375,2.53125 -1.15625,1.265625 -4.421875,3.921875 -1.796875,1.46875 -2.859375,2.65625 -1.0625,1.171875 -1.53125,2.265625 H 24.0335 V 26.413 Z"
     id="text1"
     aria-label="2" /><path
     style="font-size:32px;line-height:125%;font-family:Arial;-inkscape-font-specification:Arial;letter-spacing:0;word-spacing:0;fill:#df0000"
     d="m -157.87863,-216.715 v -1.98437 q 0.79687,-1.82813 1.9375,-3.21875 1.15625,-1.40625 2.42187,-2.53125 1.26563,-1.14063 2.5,-2.10938 1.25,-0.96875 2.25,-1.9375 1,-0.96875 1.60938,-2.03125 0.625,-1.0625 0.625,-2.40625 0,-1.8125 -1.0625,-2.8125 -1.0625,-1 -2.95313,-1 -1.79687,0 -2.96875,0.98438 -1.15625,0.96875 -1.35937,2.73437 l -2.875,-0.26562 q 0.3125,-2.64063 2.23437,-4.20313 1.9375,-1.5625 4.96875,-1.5625 3.32813,0 5.10938,1.57813 1.79687,1.5625 1.79687,4.45312 0,1.28125 -0.59375,2.54688 -0.57812,1.26562 -1.73437,2.53125 -1.15625,1.26562 -4.42188,3.92187 -1.79687,1.46875 -2.85937,2.65625 -1.0625,1.17188 -1.53125,2.26563 h 11.48437 v 2.39062 z"
     id="text2"
     transform="scale(-1)"
     aria-label="2" /><path
     d="M3.243-4.725C1.126-7.59 0-10.5 0-10.5s-1.126 2.91-3.243 5.775C-5.361-1.862-8 0-8 0s2.639 1.861 4.757 4.726C-1.126 7.59 0 10.5 0 10.5s1.126-2.91 3.243-5.774C5.361 1.861 8 0 8 0S5.361-1.862 3.243-4.725"
     style="fill:#df0000"
     transform="translate(16.968 44.236)scale(1.4769)"
     id="path2" /><path
     d="M3.243-4.725C1.126-7.59 0-10.5 0-10.5s-1.126 2.91-3.243 5.775C-5.361-1.862-8 0-8 0s2.639 1.861 4.757 4.726C-1.126 7.59 0 10.5 0 10.5s1.126-2.91 3.243-5.774C5.361 1.861 8 0 8 0S5.361-1.862 3.243-4.725"
     style="fill:#df0000"
     transform="translate(150.62 198.503)scale(1.4769)"
     id="path3" /><path
     d="M3.243-4.725C1.126-7.59 0-10.5 0-10.5s-1.126 2.91-3.243 5.775C-5.361-1.862-8 0-8 0s2.639 1.861 4.757 4.726C-1.126 7.59 0 10.5 0 10.5s1.126-2.91 3.243-5.774C5.361 1.861 8 0 8 0S5.361-1.862 3.243-4.725"
     style="fill:#df0000"
     transform="translate(82.929 184.022)scale(2.5883)"
     id="path4" /><path
     d="M3.243-4.725C1.126-7.59 0-10.5 0-10.5s-1.126 2.91-3.243 5.775C-5.361-1.862-8 0-8 0s2.639 1.861 4.757 4.726C-1.126 7.59 0 10.5 0 10.5s1.126-2.91 3.243-5.774C5.361 1.861 8 0 8 0S5.361-1.862 3.243-4.725"
     style="fill:#df0000"
     transform="translate(82.929 55.62)scale(2.5883)"
     id="path5" /></svg>
