<?xml version="1.0" encoding="UTF-8" standalone="no"?>
<svg
   xml:space="preserve"
   width="222.783"
   height="323.556"
   viewBox="0 0 167.087 242.667"
   version="1.1"
   id="svg6"
   xmlns="http://www.w3.org/2000/svg"
   xmlns:svg="http://www.w3.org/2000/svg"><defs
     id="defs6" /><g
     style="fill-rule:nonzero;clip-rule:nonzero;stroke:#000;stroke-miterlimit:4"
     id="g1"><path
       d="M166.837 235.548c0 3.777-3.087 6.869-6.871 6.869H7.11c-3.775 0-6.861-3.092-6.861-6.87V7.12C.25 3.343 3.336.25 7.11.25h152.856c3.784 0 6.87 3.093 6.87 6.87z"
       style="fill:#fff;stroke-width:.5"
       id="path1" /></g><path
     style="font-size:32px;line-height:125%;font-family:Arial;-inkscape-font-specification:Arial;letter-spacing:0;word-spacing:0;fill:#df0000"
     d="m 25.165625,21.934875 q 0,3.046875 -1.9375,4.71875 -1.9375,1.671875 -5.53125,1.671875 -3.34375,0 -5.34375,-1.5 Q 10.36875,25.309875 9.9937496,22.35675 L 12.9,22.091125 q 0.5625,3.90625 4.796875,3.90625 2.125,0 3.328125,-1.046875 1.21875,-1.046875 1.21875,-3.109375 0,-1.796875 -1.390625,-2.796875 -1.375,-1.015625 -3.984375,-1.015625 H 15.275 v -2.4375 h 1.53125 q 2.3125,0 3.578125,-1 1.28125,-1.015625 1.28125,-2.796875 0,-1.765625 -1.046875,-2.7812495 -1.03125,-1.03125 -3.078125,-1.03125 -1.859375,0 -3.015625,0.953125 -1.140625,0.953125 -1.328125,2.6874995 l -2.828125,-0.21875 q 0.3125,-2.7031245 2.234375,-4.2187495 1.9375,-1.515625 4.96875,-1.515625 3.3125,0 5.140625,1.546875 1.84375,1.53125 1.84375,4.2812495 0,2.109375 -1.1875,3.4375 -1.171875,1.3125 -3.421875,1.78125 v 0.0625 q 2.46875,0.265625 3.84375,1.65625 1.375,1.390625 1.375,3.5 z"
     id="text1"
     aria-label="3" /><path
     d="M3.676-9C.433-9 0-5.523 0-5.523S-.433-9-3.676-9C-5.946-9-8-7.441-8-4.5-8-.614-1.42 3.294 0 9 1.352 3.299 8-.614 8-4.5 8-7.441 5.946-9 3.676-9"
     style="fill:#df0000;fill-opacity:1"
     transform="matrix(1.6743 0 0 1.567 17.178 46.385)"
     id="path2" /><path
     style="font-size:32px;line-height:125%;font-family:Arial;-inkscape-font-specification:Arial;letter-spacing:0;word-spacing:0;fill:#df0000"
     d="m -142.42737,-219.59312 q 0,3.04687 -1.9375,4.71875 -1.9375,1.67187 -5.53125,1.67187 -3.34375,0 -5.34375,-1.5 -1.98437,-1.51562 -2.35937,-4.46875 l 2.90625,-0.26562 q 0.5625,3.90625 4.79687,3.90625 2.125,0 3.32813,-1.04688 1.21875,-1.04687 1.21875,-3.10937 0,-1.79688 -1.39063,-2.79688 -1.375,-1.01562 -3.98437,-1.01562 h -1.59375 v -2.4375 h 1.53125 q 2.3125,0 3.57812,-1 1.28125,-1.01563 1.28125,-2.79688 0,-1.76562 -1.04687,-2.78125 -1.03125,-1.03125 -3.07813,-1.03125 -1.85937,0 -3.01562,0.95313 -1.14063,0.95312 -1.32813,2.6875 l -2.82812,-0.21875 q 0.3125,-2.70313 2.23437,-4.21875 1.9375,-1.51563 4.96875,-1.51563 3.3125,0 5.14063,1.54688 1.84375,1.53125 1.84375,4.28125 0,2.10937 -1.1875,3.4375 -1.17188,1.3125 -3.42188,1.78125 v 0.0625 q 2.46875,0.26562 3.84375,1.65625 1.375,1.39062 1.375,3.5 z"
     id="text2"
     transform="scale(-1)"
     aria-label="3" /><path
     d="M3.676-9C.433-9 0-5.523 0-5.523S-.433-9-3.676-9C-5.946-9-8-7.441-8-4.5-8-.614-1.42 3.294 0 9 1.352 3.299 8-.614 8-4.5 8-7.441 5.946-9 3.676-9"
     style="fill:#df0000;fill-opacity:1"
     transform="matrix(-1.6743 0 0 -1.567 150.156 195.143)"
     id="path3" /><path
     d="M3.676-9C.433-9 0-5.523 0-5.523S-.433-9-3.676-9C-5.946-9-8-7.441-8-4.5-8-.614-1.42 3.294 0 9 1.352 3.299 8-.614 8-4.5 8-7.441 5.946-9 3.676-9"
     style="fill:#df0000;fill-opacity:1"
     transform="matrix(2.779 0 0 2.60089 83.312 47.604)"
     id="path4" /><path
     d="M3.676-9C.433-9 0-5.523 0-5.523S-.433-9-3.676-9C-5.946-9-8-7.441-8-4.5-8-.614-1.42 3.294 0 9 1.352 3.299 8-.614 8-4.5 8-7.441 5.946-9 3.676-9"
     style="fill:#df0000;fill-opacity:1"
     transform="matrix(-2.779 0 0 -2.60089 83.312 192.006)"
     id="path5" /><path
     d="M3.676-9C.433-9 0-5.523 0-5.523S-.433-9-3.676-9C-5.946-9-8-7.441-8-4.5-8-.614-1.42 3.294 0 9 1.352 3.299 8-.614 8-4.5 8-7.441 5.946-9 3.676-9"
     style="fill:#df0000;fill-opacity:1"
     transform="matrix(2.779 0 0 2.60089 83.312 118.905)"
     id="path6" /></svg>
