<?xml version="1.0" encoding="UTF-8" standalone="no"?>
<svg
   xml:space="preserve"
   width="222.783"
   height="323.556"
   viewBox="0 0 167.087 242.667"
   version="1.1"
   id="svg6"
   xmlns="http://www.w3.org/2000/svg"
   xmlns:svg="http://www.w3.org/2000/svg"><defs
     id="defs6" /><g
     style="fill-rule:nonzero;clip-rule:nonzero;stroke:#000;stroke-miterlimit:4"
     id="g1"><path
       d="M166.837 235.548c0 3.777-3.087 6.869-6.871 6.869H7.11c-3.775 0-6.861-3.092-6.861-6.87V7.12C.25 3.343 3.336.25 7.11.25h152.856c3.784 0 6.87 3.093 6.87 6.87z"
       style="fill:#fff;stroke-width:.5"
       id="path1" /></g><path
     style="font-size:32px;line-height:125%;font-family:Arial;-inkscape-font-specification:Arial;letter-spacing:0;word-spacing:0"
     d="m 24.701625,21.469875 q 0,3.046875 -1.9375,4.71875 -1.9375,1.671875 -5.53125,1.671875 -3.34375,0 -5.34375,-1.5 Q 9.9047499,24.844875 9.5297499,21.89175 L 12.436,21.626125 q 0.5625,3.90625 4.796875,3.90625 2.125,0 3.328125,-1.046875 1.21875,-1.046875 1.21875,-3.109375 0,-1.796875 -1.390625,-2.796875 -1.375,-1.015625 -3.984375,-1.015625 H 14.811 v -2.4375 h 1.53125 q 2.3125,0 3.578125,-1 1.28125,-1.015625 1.28125,-2.796875 0,-1.7656247 -1.046875,-2.7812497 -1.03125,-1.03125 -3.078125,-1.03125 -1.859375,0 -3.015625,0.953125 -1.140625,0.953125 -1.328125,2.6874997 L 9.9047499,10.938625 Q 10.21725,8.2355003 12.139125,6.7198753 q 1.9375,-1.515625 4.96875,-1.515625 3.3125,0 5.140625,1.546875 1.84375,1.53125 1.84375,4.2812497 0,2.109375 -1.1875,3.4375 -1.171875,1.3125 -3.421875,1.78125 v 0.0625 q 2.46875,0.265625 3.84375,1.65625 1.375,1.390625 1.375,3.5 z"
     id="text1"
     aria-label="3" /><path
     d="M50.291 22.698s2.375-1.9 2.375-4.534c0-1.542-1.369-4.102-4.534-4.102s-4.534 2.561-4.534 4.102c0 2.634 2.375 4.534 2.375 4.534-2.638-2.055-7.34-.652-7.34 3.455 0 2.056 1.68 4.318 4.317 4.318 3.165 0 4.534-3.455 4.534-3.455s.402 3.938-1.943 6.046h5.182c-2.345-2.107-1.943-6.046-1.943-6.046s1.37 3.455 4.534 3.455c2.64 0 4.318-2.263 4.318-4.318 0-4.107-4.703-5.51-7.34-3.455"
     style="fill:#000"
     transform="translate(-54.025 10.018)scale(1.48565)"
     id="path2" /><path
     style="font-size:32px;line-height:125%;font-family:Arial;-inkscape-font-specification:Arial;letter-spacing:0;word-spacing:0"
     d="m -142.47337,-220.54512 q 0,3.04687 -1.9375,4.71875 -1.9375,1.67187 -5.53125,1.67187 -3.34375,0 -5.34375,-1.5 -1.98438,-1.51562 -2.35938,-4.46875 l 2.90625,-0.26562 q 0.5625,3.90625 4.79688,3.90625 2.125,0 3.32812,-1.04688 1.21875,-1.04687 1.21875,-3.10937 0,-1.79688 -1.39062,-2.79688 -1.375,-1.01562 -3.98438,-1.01562 h -1.59375 v -2.4375 h 1.53125 q 2.3125,0 3.57813,-1 1.28125,-1.01563 1.28125,-2.79688 0,-1.76562 -1.04688,-2.78125 -1.03125,-1.03125 -3.07812,-1.03125 -1.85938,0 -3.01563,0.95313 -1.14062,0.95312 -1.32812,2.6875 l -2.82813,-0.21875 q 0.3125,-2.70313 2.23438,-4.21875 1.9375,-1.51563 4.96875,-1.51563 3.3125,0 5.14062,1.54688 1.84375,1.53125 1.84375,4.28125 0,2.10937 -1.1875,3.4375 -1.17187,1.3125 -3.42187,1.78125 v 0.0625 q 2.46875,0.26562 3.84375,1.65625 1.375,1.39062 1.375,3.5 z"
     id="text2"
     transform="scale(-1)"
     aria-label="3" /><path
     d="M50.291 22.698s2.375-1.9 2.375-4.534c0-1.542-1.369-4.102-4.534-4.102s-4.534 2.561-4.534 4.102c0 2.634 2.375 4.534 2.375 4.534-2.638-2.055-7.34-.652-7.34 3.455 0 2.056 1.68 4.318 4.317 4.318 3.165 0 4.534-3.455 4.534-3.455s.402 3.938-1.943 6.046h5.182c-2.345-2.107-1.943-6.046-1.943-6.046s1.37 3.455 4.534 3.455c2.64 0 4.318-2.263 4.318-4.318 0-4.107-4.703-5.51-7.34-3.455"
     style="fill:#000"
     transform="translate(221.2 232.462)scale(-1.48565)"
     id="path3" /><path
     d="M50.291 22.698s2.375-1.9 2.375-4.534c0-1.542-1.369-4.102-4.534-4.102s-4.534 2.561-4.534 4.102c0 2.634 2.375 4.534 2.375 4.534-2.638-2.055-7.34-.652-7.34 3.455 0 2.056 1.68 4.318 4.317 4.318 3.165 0 4.534-3.455 4.534-3.455s.402 3.938-1.943 6.046h5.182c-2.345-2.107-1.943-6.046-1.943-6.046s1.37 3.455 4.534 3.455c2.64 0 4.318-2.263 4.318-4.318 0-4.107-4.703-5.51-7.34-3.455"
     style="fill:#000"
     transform="translate(-36.788 -9.531)scale(2.51258)"
     id="path4" /><path
     d="M50.291 22.698s2.375-1.9 2.375-4.534c0-1.542-1.369-4.102-4.534-4.102s-4.534 2.561-4.534 4.102c0 2.634 2.375 4.534 2.375 4.534-2.638-2.055-7.34-.652-7.34 3.455 0 2.056 1.68 4.318 4.317 4.318 3.165 0 4.534-3.455 4.534-3.455s.402 3.938-1.943 6.046h5.182c-2.345-2.107-1.943-6.046-1.943-6.046s1.37 3.455 4.534 3.455c2.64 0 4.318-2.263 4.318-4.318 0-4.107-4.703-5.51-7.34-3.455"
     style="fill:#000"
     transform="translate(205.13 253.275)scale(-2.51258)"
     id="path5" /><path
     d="M50.291 22.698s2.375-1.9 2.375-4.534c0-1.542-1.369-4.102-4.534-4.102s-4.534 2.561-4.534 4.102c0 2.634 2.375 4.534 2.375 4.534-2.638-2.055-7.34-.652-7.34 3.455 0 2.056 1.68 4.318 4.317 4.318 3.165 0 4.534-3.455 4.534-3.455s.402 3.938-1.943 6.046h5.182c-2.345-2.107-1.943-6.046-1.943-6.046s1.37 3.455 4.534 3.455c2.64 0 4.318-2.263 4.318-4.318 0-4.107-4.703-5.51-7.34-3.455"
     style="fill:#000"
     transform="translate(-36.788 60.17)scale(2.51258)"
     id="path6" /></svg>
