<?xml version="1.0" encoding="UTF-8" standalone="no"?>
<svg
   xml:space="preserve"
   width="222.783"
   height="323.556"
   viewBox="0 0 167.087 242.667"
   version="1.1"
   id="svg9"
   xmlns="http://www.w3.org/2000/svg"
   xmlns:svg="http://www.w3.org/2000/svg"><defs
     id="defs9" /><g
     style="fill-rule:nonzero;clip-rule:nonzero;stroke:#000;stroke-miterlimit:4"
     id="g1"><path
       d="M166.837 235.548c0 3.777-3.087 6.869-6.871 6.869H7.11c-3.775 0-6.861-3.092-6.861-6.87V7.12C.25 3.343 3.336.25 7.11.25h152.856c3.784 0 6.87 3.093 6.87 6.87z"
       style="fill:#fff;stroke-width:.5"
       id="path1" /></g><path
     style="font-size:32px;line-height:125%;font-family:Arial;-inkscape-font-specification:Arial;letter-spacing:0;word-spacing:0;fill:#df0000"
     d="m 24.236625,20.334875 q 0,3.046875 -1.9375,4.71875 -1.9375,1.671875 -5.53125,1.671875 -3.34375,0 -5.34375,-1.5 Q 9.4397502,23.709875 9.0647502,20.75675 L 11.971,20.491125 q 0.5625,3.90625 4.796875,3.90625 2.125,0 3.328125,-1.046875 1.21875,-1.046875 1.21875,-3.109375 0,-1.796875 -1.390625,-2.796875 -1.375,-1.015625 -3.984375,-1.015625 H 14.346 v -2.4375 h 1.53125 q 2.3125,0 3.578125,-1 1.28125,-1.015625 1.28125,-2.796875 0,-1.7656249 -1.046875,-2.7812499 -1.03125,-1.03125 -3.078125,-1.03125 -1.859375,0 -3.015625,0.953125 -1.140625,0.953125 -1.328125,2.6874999 L 9.4397502,9.8036251 q 0.3125,-2.703125 2.2343748,-4.21875 1.9375,-1.515625 4.96875,-1.515625 3.3125,0 5.140625,1.546875 1.84375,1.53125 1.84375,4.28125 0,2.1093749 -1.1875,3.4374999 -1.171875,1.3125 -3.421875,1.78125 v 0.0625 q 2.46875,0.265625 3.84375,1.65625 1.375,1.390625 1.375,3.5 z"
     id="text1"
     aria-label="3" /><path
     style="font-size:32px;line-height:125%;font-family:Arial;-inkscape-font-specification:Arial;letter-spacing:0;word-spacing:0;fill:#df0000"
     d="m -143.09738,-222.79312 q 0,3.04687 -1.9375,4.71875 -1.9375,1.67187 -5.53125,1.67187 -3.34375,0 -5.34375,-1.5 -1.98438,-1.51562 -2.35938,-4.46875 l 2.90625,-0.26562 q 0.5625,3.90625 4.79688,3.90625 2.125,0 3.32812,-1.04688 1.21875,-1.04687 1.21875,-3.10937 0,-1.79688 -1.39062,-2.79688 -1.375,-1.01562 -3.98438,-1.01562 h -1.59375 v -2.4375 h 1.53125 q 2.3125,0 3.57813,-1 1.28125,-1.01563 1.28125,-2.79688 0,-1.76562 -1.04688,-2.78125 -1.03125,-1.03125 -3.07812,-1.03125 -1.85938,0 -3.01563,0.95313 -1.14062,0.95312 -1.32812,2.6875 l -2.82813,-0.21875 q 0.3125,-2.70313 2.23438,-4.21875 1.9375,-1.51563 4.96875,-1.51563 3.3125,0 5.14062,1.54688 1.84375,1.53125 1.84375,4.28125 0,2.10937 -1.1875,3.4375 -1.17187,1.3125 -3.42187,1.78125 v 0.0625 q 2.46875,0.26562 3.84375,1.65625 1.375,1.39062 1.375,3.5 z"
     id="text2"
     transform="scale(-1)"
     aria-label="3" /><path
     d="M3.243-4.725C1.126-7.59 0-10.5 0-10.5s-1.126 2.91-3.243 5.775C-5.361-1.862-8 0-8 0s2.639 1.861 4.757 4.726C-1.126 7.59 0 10.5 0 10.5s1.126-2.91 3.243-5.774C5.361 1.861 8 0 8 0S5.361-1.862 3.243-4.725"
     style="fill:#df0000"
     transform="translate(16.968 44.236)scale(1.4769)"
     id="path2" /><path
     d="M3.243-4.725C1.126-7.59 0-10.5 0-10.5s-1.126 2.91-3.243 5.775C-5.361-1.862-8 0-8 0s2.639 1.861 4.757 4.726C-1.126 7.59 0 10.5 0 10.5s1.126-2.91 3.243-5.774C5.361 1.861 8 0 8 0S5.361-1.862 3.243-4.725"
     style="fill:#df0000"
     transform="translate(150.62 198.503)scale(1.4769)"
     id="path3" /><path
     d="M3.243-4.725C1.126-7.59 0-10.5 0-10.5s-1.126 2.91-3.243 5.775C-5.361-1.862-8 0-8 0s2.639 1.861 4.757 4.726C-1.126 7.59 0 10.5 0 10.5s1.126-2.91 3.243-5.774C5.361 1.861 8 0 8 0S5.361-1.862 3.243-4.725"
     style="fill:#df0000"
     transform="translate(82.929 192.022)scale(2.5883)"
     id="path4" /><path
     d="M3.243-4.725C1.126-7.59 0-10.5 0-10.5s-1.126 2.91-3.243 5.775C-5.361-1.862-8 0-8 0s2.639 1.861 4.757 4.726C-1.126 7.59 0 10.5 0 10.5s1.126-2.91 3.243-5.774C5.361 1.861 8 0 8 0S5.361-1.862 3.243-4.725"
     style="fill:#df0000"
     transform="translate(82.929 50.82)scale(2.5883)"
     id="path5" /><path
     d="M3.243-4.725C1.126-7.59 0-10.5 0-10.5s-1.126 2.91-3.243 5.775C-5.361-1.862-8 0-8 0s2.639 1.861 4.757 4.726C-1.126 7.59 0 10.5 0 10.5s1.126-2.91 3.243-5.774C5.361 1.861 8 0 8 0S5.361-1.862 3.243-4.725"
     style="fill:#df0000"
     transform="translate(82.929 120.52)scale(2.5883)"
     id="path6" /><path
     fill="none"
     stroke="#fff"
     stroke-linecap="round"
     stroke-linejoin="round"
     stroke-width="18"
     d="m53.54 121.33 20 20 40-50"
     id="path7" /><path
     fill="none"
     stroke="#0a0"
     stroke-linecap="round"
     stroke-linejoin="round"
     stroke-width="12"
     d="m53.54 121.33 20 20 40-50"
     id="path8" /><path
     fill="none"
     stroke="#0a0"
     stroke-width="5"
     d="M0 0h167.087v242.667H0z"
     id="path9" /></svg>
