<?xml version="1.0" encoding="UTF-8" standalone="no"?>
<svg
   xml:space="preserve"
   width="222.783"
   height="323.556"
   viewBox="0 0 167.087 242.667"
   version="1.1"
   id="svg7"
   xmlns="http://www.w3.org/2000/svg"
   xmlns:svg="http://www.w3.org/2000/svg"><defs
     id="defs7" /><g
     style="fill-rule:nonzero;clip-rule:nonzero;stroke:#000;stroke-miterlimit:4"
     id="g1"><path
       d="M166.837 235.548c0 3.777-3.087 6.869-6.871 6.869H7.11c-3.775 0-6.861-3.092-6.861-6.87V7.12C.25 3.343 3.336.25 7.11.25h152.856c3.784 0 6.87 3.093 6.87 6.87z"
       style="fill:#fff;stroke-width:.5"
       id="path1" /></g><path
     style="font-size:32px;line-height:125%;font-family:Arial;-inkscape-font-specification:Arial;letter-spacing:0;word-spacing:0;fill:#df0000"
     d="M 21.611625,21.428625 V 26.413 h -2.65625 V 21.428625 H 8.5803752 v -2.1875 L 18.6585,4.3973751 h 2.953125 V 19.209875 h 3.09375 v 2.21875 z m -2.65625,-2.21875 V 7.5692501 q -0.359375,0.6875 -0.609375,1.125 -0.234375,0.4375 -0.4375,0.734375 l -5.046875,7.4687499 q -0.4375,0.640625 -1.6875,2.3125 z"
     id="text1"
     aria-label="4" /><path
     style="font-size:32px;line-height:125%;font-family:Arial;-inkscape-font-specification:Arial;letter-spacing:0;word-spacing:0;fill:#df0000"
     d="m -145.72238,-221.69937 v 4.98437 h -2.65625 v -4.98437 h -10.375 v -2.1875 l 10.07812,-14.84375 h 2.95313 v 14.8125 h 3.09375 v 2.21875 z m -2.65625,-2.21875 v -11.64063 q -0.35938,0.6875 -0.60938,1.125 -0.23437,0.4375 -0.4375,0.73438 l -5.04687,7.46875 q -0.4375,0.64062 -1.6875,2.3125 z"
     id="text2"
     transform="scale(-1)"
     aria-label="4" /><path
     d="M3.243-4.725C1.126-7.59 0-10.5 0-10.5s-1.126 2.91-3.243 5.775C-5.361-1.862-8 0-8 0s2.639 1.861 4.757 4.726C-1.126 7.59 0 10.5 0 10.5s1.126-2.91 3.243-5.774C5.361 1.861 8 0 8 0S5.361-1.862 3.243-4.725"
     style="fill:#df0000"
     transform="translate(16.968 44.236)scale(1.4769)"
     id="path2" /><path
     d="M3.243-4.725C1.126-7.59 0-10.5 0-10.5s-1.126 2.91-3.243 5.775C-5.361-1.862-8 0-8 0s2.639 1.861 4.757 4.726C-1.126 7.59 0 10.5 0 10.5s1.126-2.91 3.243-5.774C5.361 1.861 8 0 8 0S5.361-1.862 3.243-4.725"
     style="fill:#df0000"
     transform="translate(150.62 198.503)scale(1.4769)"
     id="path3" /><path
     d="M3.243-4.725C1.126-7.59 0-10.5 0-10.5s-1.126 2.91-3.243 5.775C-5.361-1.862-8 0-8 0s2.639 1.861 4.757 4.726C-1.126 7.59 0 10.5 0 10.5s1.126-2.91 3.243-5.774C5.361 1.861 8 0 8 0S5.361-1.862 3.243-4.725"
     style="fill:#df0000"
     transform="translate(112.206 184.022)scale(2.5883)"
     id="path4" /><path
     d="M3.243-4.725C1.126-7.59 0-10.5 0-10.5s-1.126 2.91-3.243 5.775C-5.361-1.862-8 0-8 0s2.639 1.861 4.757 4.726C-1.126 7.59 0 10.5 0 10.5s1.126-2.91 3.243-5.774C5.361 1.861 8 0 8 0S5.361-1.862 3.243-4.725"
     style="fill:#df0000"
     transform="translate(112.206 55.62)scale(2.5883)"
     id="path5" /><path
     d="M3.243-4.725C1.126-7.59 0-10.5 0-10.5s-1.126 2.91-3.243 5.775C-5.361-1.862-8 0-8 0s2.639 1.861 4.757 4.726C-1.126 7.59 0 10.5 0 10.5s1.126-2.91 3.243-5.774C5.361 1.861 8 0 8 0S5.361-1.862 3.243-4.725"
     style="fill:#df0000"
     transform="translate(54.129 184.022)scale(2.5883)"
     id="path6" /><path
     d="M3.243-4.725C1.126-7.59 0-10.5 0-10.5s-1.126 2.91-3.243 5.775C-5.361-1.862-8 0-8 0s2.639 1.861 4.757 4.726C-1.126 7.59 0 10.5 0 10.5s1.126-2.91 3.243-5.774C5.361 1.861 8 0 8 0S5.361-1.862 3.243-4.725"
     style="fill:#df0000"
     transform="translate(54.129 55.62)scale(2.5883)"
     id="path7" /></svg>
