<?xml version="1.0" encoding="UTF-8" standalone="no"?>
<svg
   xml:space="preserve"
   width="222.783"
   height="323.556"
   viewBox="0 0 167.087 242.667"
   version="1.1"
   id="svg7"
   xmlns="http://www.w3.org/2000/svg"
   xmlns:svg="http://www.w3.org/2000/svg"><defs
     id="defs7" /><g
     style="fill-rule:nonzero;clip-rule:nonzero;stroke:#000;stroke-miterlimit:4"
     id="g1"><path
       d="M166.837 235.548c0 3.777-3.087 6.869-6.871 6.869H7.11c-3.775 0-6.861-3.092-6.861-6.87V7.12C.25 3.343 3.336.25 7.11.25h152.856c3.784 0 6.87 3.093 6.87 6.87z"
       style="fill:#fff;stroke-width:.5"
       id="path1" /></g><path
     style="font-size:32px;line-height:125%;font-family:Arial;-inkscape-font-specification:Arial;letter-spacing:0;word-spacing:0;fill:#df0000"
     d="M 22.540625,23.028625 V 28.013 h -2.65625 V 23.028625 H 9.5093746 v -2.1875 L 19.5875,5.9973755 h 2.953125 V 20.809875 h 3.09375 v 2.21875 z m -2.65625,-2.21875 V 9.1692505 Q 19.525,9.8567505 19.275,10.29425 q -0.234375,0.4375 -0.4375,0.734375 l -5.046875,7.46875 q -0.4375,0.640625 -1.6875,2.3125 z"
     id="text1"
     aria-label="4" /><path
     d="M3.676-9C.433-9 0-5.523 0-5.523S-.433-9-3.676-9C-5.946-9-8-7.441-8-4.5-8-.614-1.42 3.294 0 9 1.352 3.299 8-.614 8-4.5 8-7.441 5.946-9 3.676-9"
     style="fill:#df0000;fill-opacity:1"
     transform="matrix(1.6743 0 0 1.567 17.178 46.385)"
     id="path2" /><path
     style="font-size:32px;line-height:125%;font-family:Arial;-inkscape-font-specification:Arial;letter-spacing:0;word-spacing:0;fill:#df0000"
     d="m -145.05237,-218.49937 v 4.98437 h -2.65625 v -4.98437 h -10.375 v -2.1875 l 10.07813,-14.84375 h 2.95312 v 14.8125 h 3.09375 v 2.21875 z m -2.65625,-2.21875 v -11.64063 q -0.35937,0.6875 -0.60937,1.125 -0.23438,0.4375 -0.4375,0.73438 l -5.04688,7.46875 q -0.4375,0.64062 -1.6875,2.3125 z"
     id="text2"
     transform="scale(-1)"
     aria-label="4" /><path
     d="M3.676-9C.433-9 0-5.523 0-5.523S-.433-9-3.676-9C-5.946-9-8-7.441-8-4.5-8-.614-1.42 3.294 0 9 1.352 3.299 8-.614 8-4.5 8-7.441 5.946-9 3.676-9"
     style="fill:#df0000;fill-opacity:1"
     transform="matrix(-1.6743 0 0 -1.567 150.156 195.143)"
     id="path3" /><path
     d="M3.676-9C.433-9 0-5.523 0-5.523S-.433-9-3.676-9C-5.946-9-8-7.441-8-4.5-8-.614-1.42 3.294 0 9 1.352 3.299 8-.614 8-4.5 8-7.441 5.946-9 3.676-9"
     style="fill:#df0000;fill-opacity:1"
     transform="matrix(2.779 0 0 2.60089 56.112 64.86)"
     id="path4" /><path
     d="M3.676-9C.433-9 0-5.523 0-5.523S-.433-9-3.676-9C-5.946-9-8-7.441-8-4.5-8-.614-1.42 3.294 0 9 1.352 3.299 8-.614 8-4.5 8-7.441 5.946-9 3.676-9"
     style="fill:#df0000;fill-opacity:1"
     transform="matrix(-2.779 0 0 -2.60089 56.112 177.262)"
     id="path5" /><path
     d="M3.676-9C.433-9 0-5.523 0-5.523S-.433-9-3.676-9C-5.946-9-8-7.441-8-4.5-8-.614-1.42 3.294 0 9 1.352 3.299 8-.614 8-4.5 8-7.441 5.946-9 3.676-9"
     style="fill:#df0000;fill-opacity:1"
     transform="matrix(2.779 0 0 2.60089 110.705 65.132)"
     id="path6" /><path
     d="M3.676-9C.433-9 0-5.523 0-5.523S-.433-9-3.676-9C-5.946-9-8-7.441-8-4.5-8-.614-1.42 3.294 0 9 1.352 3.299 8-.614 8-4.5 8-7.441 5.946-9 3.676-9"
     style="fill:#df0000;fill-opacity:1"
     transform="matrix(-2.779 0 0 -2.60089 110.705 177.535)"
     id="path7" /></svg>
