<?xml version="1.0" encoding="UTF-8" standalone="no"?>
<svg
   xml:space="preserve"
   width="222.783"
   height="323.556"
   viewBox="0 0 167.087 242.667"
   version="1.1"
   id="svg35"
   xmlns="http://www.w3.org/2000/svg"
   xmlns:svg="http://www.w3.org/2000/svg"><defs
     id="defs35" /><g
     style="fill-rule:nonzero;clip-rule:nonzero;stroke:#000;stroke-miterlimit:4"
     id="g1"><path
       d="M166.837 235.548c0 3.777-3.087 6.869-6.871 6.869H7.11c-3.775 0-6.861-3.092-6.861-6.87V7.12C.25 3.343 3.336.25 7.11.25h152.856c3.784 0 6.87 3.093 6.87 6.87z"
       style="fill:#fff;stroke-width:.5"
       id="path1" /></g><path
     style="font-size:32px;line-height:125%;font-family:Arial;-inkscape-font-specification:Arial;letter-spacing:0;word-spacing:0;fill:#df0000"
     d="M 22.540625,23.028625 V 28.013 h -2.65625 V 23.028625 H 9.5093746 v -2.1875 L 19.5875,5.9973755 h 2.953125 V 20.809875 h 3.09375 v 2.21875 z m -2.65625,-2.21875 V 9.1692505 Q 19.525,9.8567505 19.275,10.29425 q -0.234375,0.4375 -0.4375,0.734375 l -5.046875,7.46875 q -0.4375,0.640625 -1.6875,2.3125 z"
     id="text1"
     aria-label="4" /><path
     d="M3.676-9C.433-9 0-5.523 0-5.523S-.433-9-3.676-9C-5.946-9-8-7.441-8-4.5-8-.614-1.42 3.294 0 9 1.352 3.299 8-.614 8-4.5 8-7.441 5.946-9 3.676-9"
     style="fill:#df0000;fill-opacity:1"
     transform="matrix(1.6743 0 0 1.567 17.178 46.385)"
     id="path2" /><path
     style="font-size:32px;line-height:125%;font-family:Arial;-inkscape-font-specification:Arial;letter-spacing:0;word-spacing:0;fill:#df0000"
     d="m -145.05237,-218.49937 v 4.98437 h -2.65625 v -4.98437 h -10.375 v -2.1875 l 10.07813,-14.84375 h 2.95312 v 14.8125 h 3.09375 v 2.21875 z m -2.65625,-2.21875 v -11.64063 q -0.35937,0.6875 -0.60937,1.125 -0.23438,0.4375 -0.4375,0.73438 l -5.04688,7.46875 q -0.4375,0.64062 -1.6875,2.3125 z"
     id="text2"
     transform="scale(-1)"
     aria-label="4" /><path
     d="M3.676-9C.433-9 0-5.523 0-5.523S-.433-9-3.676-9C-5.946-9-8-7.441-8-4.5-8-.614-1.42 3.294 0 9 1.352 3.299 8-.614 8-4.5 8-7.441 5.946-9 3.676-9"
     style="fill:#df0000;fill-opacity:1"
     transform="matrix(-1.6743 0 0 -1.567 150.156 195.143)"
     id="path3" /><path
     d="M3.676-9C.433-9 0-5.523 0-5.523S-.433-9-3.676-9C-5.946-9-8-7.441-8-4.5-8-.614-1.42 3.294 0 9 1.352 3.299 8-.614 8-4.5 8-7.441 5.946-9 3.676-9"
     style="fill:#df0000;fill-opacity:1"
     transform="matrix(2.779 0 0 2.60089 56.112 64.86)"
     id="path4" /><path
     d="M3.676-9C.433-9 0-5.523 0-5.523S-.433-9-3.676-9C-5.946-9-8-7.441-8-4.5-8-.614-1.42 3.294 0 9 1.352 3.299 8-.614 8-4.5 8-7.441 5.946-9 3.676-9"
     style="fill:#df0000;fill-opacity:1"
     transform="matrix(-2.779 0 0 -2.60089 56.112 177.262)"
     id="path5" /><path
     d="M3.676-9C.433-9 0-5.523 0-5.523S-.433-9-3.676-9C-5.946-9-8-7.441-8-4.5-8-.614-1.42 3.294 0 9 1.352 3.299 8-.614 8-4.5 8-7.441 5.946-9 3.676-9"
     style="fill:#df0000;fill-opacity:1"
     transform="matrix(2.779 0 0 2.60089 110.705 65.132)"
     id="path6" /><path
     d="M3.676-9C.433-9 0-5.523 0-5.523S-.433-9-3.676-9C-5.946-9-8-7.441-8-4.5-8-.614-1.42 3.294 0 9 1.352 3.299 8-.614 8-4.5 8-7.441 5.946-9 3.676-9"
     style="fill:#df0000;fill-opacity:1"
     transform="matrix(-2.779 0 0 -2.60089 110.705 177.535)"
     id="path7" /><g
     id="stripes">
  <line
   x1="0.00"
   y1="238.00"
   x2="4.67"
   y2="242.67"
   stroke="#f80"
   stroke-width="5"
   opacity="0.5"
   id="line7" />
  <line
   x1="0.00"
   y1="224.00"
   x2="18.67"
   y2="242.67"
   stroke="#f80"
   stroke-width="5"
   opacity="0.5"
   id="line8" />
  <line
   x1="0.00"
   y1="210.00"
   x2="32.67"
   y2="242.67"
   stroke="#f80"
   stroke-width="5"
   opacity="0.5"
   id="line9" />
  <line
   x1="0.00"
   y1="196.00"
   x2="46.67"
   y2="242.67"
   stroke="#f80"
   stroke-width="5"
   opacity="0.5"
   id="line10" />
  <line
   x1="0.00"
   y1="182.00"
   x2="60.67"
   y2="242.67"
   stroke="#f80"
   stroke-width="5"
   opacity="0.5"
   id="line11" />
  <line
   x1="0.00"
   y1="168.00"
   x2="74.67"
   y2="242.67"
   stroke="#f80"
   stroke-width="5"
   opacity="0.5"
   id="line12" />
  <line
   x1="0.00"
   y1="154.00"
   x2="88.67"
   y2="242.67"
   stroke="#f80"
   stroke-width="5"
   opacity="0.5"
   id="line13" />
  <line
   x1="0.00"
   y1="140.00"
   x2="102.67"
   y2="242.67"
   stroke="#f80"
   stroke-width="5"
   opacity="0.5"
   id="line14" />
  <line
   x1="0.00"
   y1="126.00"
   x2="116.67"
   y2="242.67"
   stroke="#f80"
   stroke-width="5"
   opacity="0.5"
   id="line15" />
  <line
   x1="0.00"
   y1="112.00"
   x2="130.67"
   y2="242.67"
   stroke="#f80"
   stroke-width="5"
   opacity="0.5"
   id="line16" />
  <line
   x1="0.00"
   y1="98.00"
   x2="144.67"
   y2="242.67"
   stroke="#f80"
   stroke-width="5"
   opacity="0.5"
   id="line17" />
  <line
   x1="0.00"
   y1="84.00"
   x2="158.67"
   y2="242.67"
   stroke="#f80"
   stroke-width="5"
   opacity="0.5"
   id="line18" />
  <line
   x1="0.00"
   y1="70.00"
   x2="167.09"
   y2="237.09"
   stroke="#f80"
   stroke-width="5"
   opacity="0.5"
   id="line19" />
  <line
   x1="0.00"
   y1="56.00"
   x2="167.09"
   y2="223.09"
   stroke="#f80"
   stroke-width="5"
   opacity="0.5"
   id="line20" />
  <line
   x1="0.00"
   y1="42.00"
   x2="167.09"
   y2="209.09"
   stroke="#f80"
   stroke-width="5"
   opacity="0.5"
   id="line21" />
  <line
   x1="0.00"
   y1="28.00"
   x2="167.09"
   y2="195.09"
   stroke="#f80"
   stroke-width="5"
   opacity="0.5"
   id="line22" />
  <line
   x1="0.00"
   y1="14.00"
   x2="167.09"
   y2="181.09"
   stroke="#f80"
   stroke-width="5"
   opacity="0.5"
   id="line23" />
  <line
   x1="0.00"
   y1="0.00"
   x2="167.09"
   y2="167.09"
   stroke="#f80"
   stroke-width="5"
   opacity="0.5"
   id="line24" />
  <line
   x1="14.00"
   y1="0.00"
   x2="167.09"
   y2="153.09"
   stroke="#f80"
   stroke-width="5"
   opacity="0.5"
   id="line25" />
  <line
   x1="28.00"
   y1="0.00"
   x2="167.09"
   y2="139.09"
   stroke="#f80"
   stroke-width="5"
   opacity="0.5"
   id="line26" />
  <line
   x1="42.00"
   y1="0.00"
   x2="167.09"
   y2="125.09"
   stroke="#f80"
   stroke-width="5"
   opacity="0.5"
   id="line27" />
  <line
   x1="56.00"
   y1="0.00"
   x2="167.09"
   y2="111.09"
   stroke="#f80"
   stroke-width="5"
   opacity="0.5"
   id="line28" />
  <line
   x1="70.00"
   y1="0.00"
   x2="167.09"
   y2="97.09"
   stroke="#f80"
   stroke-width="5"
   opacity="0.5"
   id="line29" />
  <line
   x1="84.00"
   y1="0.00"
   x2="167.09"
   y2="83.09"
   stroke="#f80"
   stroke-width="5"
   opacity="0.5"
   id="line30" />
  <line
   x1="98.00"
   y1="0.00"
   x2="167.09"
   y2="69.09"
   stroke="#f80"
   stroke-width="5"
   opacity="0.5"
   id="line31" />
  <line
   x1="112.00"
   y1="0.00"
   x2="167.09"
   y2="55.09"
   stroke="#f80"
   stroke-width="5"
   opacity="0.5"
   id="line32" />
  <line
   x1="126.00"
   y1="0.00"
   x2="167.09"
   y2="41.09"
   stroke="#f80"
   stroke-width="5"
   opacity="0.5"
   id="line33" />
  <line
   x1="140.00"
   y1="0.00"
   x2="167.09"
   y2="27.09"
   stroke="#f80"
   stroke-width="5"
   opacity="0.5"
   id="line34" />
  <line
   x1="154.00"
   y1="0.00"
   x2="167.09"
   y2="13.09"
   stroke="#f80"
   stroke-width="5"
   opacity="0.5"
   id="line35" />
</g><path
     fill="none"
     stroke="#f80"
     stroke-width="5"
     d="M0 0h167.087v242.667H0z"
     id="path35" /></svg>
