<?xml version="1.0" encoding="UTF-8" standalone="no"?>
<svg
   xml:space="preserve"
   width="222.783"
   height="323.556"
   viewBox="0 0 167.087 242.667"
   version="1.1"
   id="svg36"
   xmlns="http://www.w3.org/2000/svg"
   xmlns:svg="http://www.w3.org/2000/svg"><defs
     id="defs36" /><pattern
     id="a"
     width="10"
     height="10"
     patternTransform="rotate(45)"
     patternUnits="userSpaceOnUse"><path
       stroke="#f80"
       stroke-width="10"
       d="M0 0v10"
       opacity=".5"
       id="path1" /></pattern><g
     style="fill-rule:nonzero;clip-rule:nonzero;stroke:#000;stroke-miterlimit:4"
     id="g2"><path
       d="M166.837 235.548c0 3.777-3.087 6.869-6.871 6.869H7.11c-3.775 0-6.861-3.092-6.861-6.87V7.12C.25 3.343 3.336.25 7.11.25h152.856c3.784 0 6.87 3.093 6.87 6.87z"
       style="fill:#fff;stroke-width:.5"
       id="path2" /></g><path
     style="font-size:32px;line-height:125%;font-family:Arial;-inkscape-font-specification:Arial;letter-spacing:0;word-spacing:0"
     d="M 22.312625,23.028625 V 28.013 h -2.65625 V 23.028625 H 9.2813749 v -2.1875 L 19.3595,5.9973755 h 2.953125 V 20.809875 h 3.09375 v 2.21875 z m -2.65625,-2.21875 V 9.1692505 Q 19.297,9.8567505 19.047,10.29425 q -0.234375,0.4375 -0.4375,0.734375 l -5.046875,7.46875 q -0.4375,0.640625 -1.6875,2.3125 z"
     id="text2"
     aria-label="4" /><path
     d="M7.989 3.103C7.747-.954.242-8.59 0-10.5-.242-8.591-7.747-.955-7.989 3.103c-.169 2.868 1.695 4.057 3.39 4.057 1.835-.022 3.35-2.8 3.873-3.341.242.716-1.603 6.682-2.179 6.682h5.811c-.576 0-2.421-5.966-2.179-6.682.457.496 1.797 3.258 3.874 3.341 1.694-.001 3.557-1.189 3.388-4.057"
     style="fill:#000"
     transform="matrix(1.5086 0 0 1.37933 16.929 45.066)"
     id="path3" /><path
     d="M7.989 3.103C7.747-.954.242-8.59 0-10.5-.242-8.591-7.747-.955-7.989 3.103c-.169 2.868 1.695 4.057 3.39 4.057 1.835-.022 3.35-2.8 3.873-3.341.242.716-1.603 6.682-2.179 6.682h5.811c-.576 0-2.421-5.966-2.179-6.682.457.496 1.797 3.258 3.874 3.341 1.694-.001 3.557-1.189 3.388-4.057"
     style="fill:#000"
     transform="matrix(2.64868 0 0 2.42172 54.61 57.366)"
     id="path4" /><path
     style="font-size:32px;line-height:125%;font-family:Arial;-inkscape-font-specification:Arial;letter-spacing:0;word-spacing:0"
     d="m -145.21237,-220.10837 v 4.98438 h -2.65625 v -4.98438 h -10.375 v -2.1875 l 10.07812,-14.84375 h 2.95313 v 14.8125 h 3.09375 v 2.21875 z m -2.65625,-2.21875 v -11.64062 q -0.35938,0.6875 -0.60938,1.125 -0.23437,0.4375 -0.4375,0.73437 l -5.04687,7.46875 q -0.4375,0.64063 -1.6875,2.3125 z"
     id="text4"
     transform="scale(-1)"
     aria-label="4" /><path
     d="M7.989 3.103C7.747-.954.242-8.59 0-10.5-.242-8.591-7.747-.955-7.989 3.103c-.169 2.868 1.695 4.057 3.39 4.057 1.835-.022 3.35-2.8 3.873-3.341.242.716-1.603 6.682-2.179 6.682h5.811c-.576 0-2.421-5.966-2.179-6.682.457.496 1.797 3.258 3.874 3.341 1.694-.001 3.557-1.189 3.388-4.057"
     style="fill:#000"
     transform="matrix(-1.5086 0 0 -1.37933 150.225 198.044)"
     id="path5" /><path
     d="M7.989 3.103C7.747-.954.242-8.59 0-10.5-.242-8.591-7.747-.955-7.989 3.103c-.169 2.868 1.695 4.057 3.39 4.057 1.835-.022 3.35-2.8 3.873-3.341.242.716-1.603 6.682-2.179 6.682h5.811c-.576 0-2.421-5.966-2.179-6.682.457.496 1.797 3.258 3.874 3.341 1.694-.001 3.557-1.189 3.388-4.057"
     style="fill:#000"
     transform="matrix(-2.64868 0 0 -2.42172 54.656 185.771)"
     id="path6" /><path
     d="M7.989 3.103C7.747-.954.242-8.59 0-10.5-.242-8.591-7.747-.955-7.989 3.103c-.169 2.868 1.695 4.057 3.39 4.057 1.835-.022 3.35-2.8 3.873-3.341.242.716-1.603 6.682-2.179 6.682h5.811c-.576 0-2.421-5.966-2.179-6.682.457.496 1.797 3.258 3.874 3.341 1.694-.001 3.557-1.189 3.388-4.057"
     style="fill:#000"
     transform="matrix(2.64868 0 0 2.42172 112.688 57.354)"
     id="path7" /><path
     d="M7.989 3.103C7.747-.954.242-8.59 0-10.5-.242-8.591-7.747-.955-7.989 3.103c-.169 2.868 1.695 4.057 3.39 4.057 1.835-.022 3.35-2.8 3.873-3.341.242.716-1.603 6.682-2.179 6.682h5.811c-.576 0-2.421-5.966-2.179-6.682.457.496 1.797 3.258 3.874 3.341 1.694-.001 3.557-1.189 3.388-4.057"
     style="fill:#000"
     transform="matrix(-2.64868 0 0 -2.42172 112.733 185.76)"
     id="path8" /><g
     id="stripes">
  <line
   x1="0.00"
   y1="238.00"
   x2="4.67"
   y2="242.67"
   stroke="#f80"
   stroke-width="5"
   opacity="0.5"
   id="line8" />
  <line
   x1="0.00"
   y1="224.00"
   x2="18.67"
   y2="242.67"
   stroke="#f80"
   stroke-width="5"
   opacity="0.5"
   id="line9" />
  <line
   x1="0.00"
   y1="210.00"
   x2="32.67"
   y2="242.67"
   stroke="#f80"
   stroke-width="5"
   opacity="0.5"
   id="line10" />
  <line
   x1="0.00"
   y1="196.00"
   x2="46.67"
   y2="242.67"
   stroke="#f80"
   stroke-width="5"
   opacity="0.5"
   id="line11" />
  <line
   x1="0.00"
   y1="182.00"
   x2="60.67"
   y2="242.67"
   stroke="#f80"
   stroke-width="5"
   opacity="0.5"
   id="line12" />
  <line
   x1="0.00"
   y1="168.00"
   x2="74.67"
   y2="242.67"
   stroke="#f80"
   stroke-width="5"
   opacity="0.5"
   id="line13" />
  <line
   x1="0.00"
   y1="154.00"
   x2="88.67"
   y2="242.67"
   stroke="#f80"
   stroke-width="5"
   opacity="0.5"
   id="line14" />
  <line
   x1="0.00"
   y1="140.00"
   x2="102.67"
   y2="242.67"
   stroke="#f80"
   stroke-width="5"
   opacity="0.5"
   id="line15" />
  <line
   x1="0.00"
   y1="126.00"
   x2="116.67"
   y2="242.67"
   stroke="#f80"
   stroke-width="5"
   opacity="0.5"
   id="line16" />
  <line
   x1="0.00"
   y1="112.00"
   x2="130.67"
   y2="242.67"
   stroke="#f80"
   stroke-width="5"
   opacity="0.5"
   id="line17" />
  <line
   x1="0.00"
   y1="98.00"
   x2="144.67"
   y2="242.67"
   stroke="#f80"
   stroke-width="5"
   opacity="0.5"
   id="line18" />
  <line
   x1="0.00"
   y1="84.00"
   x2="158.67"
   y2="242.67"
   stroke="#f80"
   stroke-width="5"
   opacity="0.5"
   id="line19" />
  <line
   x1="0.00"
   y1="70.00"
   x2="167.09"
   y2="237.09"
   stroke="#f80"
   stroke-width="5"
   opacity="0.5"
   id="line20" />
  <line
   x1="0.00"
   y1="56.00"
   x2="167.09"
   y2="223.09"
   stroke="#f80"
   stroke-width="5"
   opacity="0.5"
   id="line21" />
  <line
   x1="0.00"
   y1="42.00"
   x2="167.09"
   y2="209.09"
   stroke="#f80"
   stroke-width="5"
   opacity="0.5"
   id="line22" />
  <line
   x1="0.00"
   y1="28.00"
   x2="167.09"
   y2="195.09"
   stroke="#f80"
   stroke-width="5"
   opacity="0.5"
   id="line23" />
  <line
   x1="0.00"
   y1="14.00"
   x2="167.09"
   y2="181.09"
   stroke="#f80"
   stroke-width="5"
   opacity="0.5"
   id="line24" />
  <line
   x1="0.00"
   y1="0.00"
   x2="167.09"
   y2="167.09"
   stroke="#f80"
   stroke-width="5"
   opacity="0.5"
   id="line25" />
  <line
   x1="14.00"
   y1="0.00"
   x2="167.09"
   y2="153.09"
   stroke="#f80"
   stroke-width="5"
   opacity="0.5"
   id="line26" />
  <line
   x1="28.00"
   y1="0.00"
   x2="167.09"
   y2="139.09"
   stroke="#f80"
   stroke-width="5"
   opacity="0.5"
   id="line27" />
  <line
   x1="42.00"
   y1="0.00"
   x2="167.09"
   y2="125.09"
   stroke="#f80"
   stroke-width="5"
   opacity="0.5"
   id="line28" />
  <line
   x1="56.00"
   y1="0.00"
   x2="167.09"
   y2="111.09"
   stroke="#f80"
   stroke-width="5"
   opacity="0.5"
   id="line29" />
  <line
   x1="70.00"
   y1="0.00"
   x2="167.09"
   y2="97.09"
   stroke="#f80"
   stroke-width="5"
   opacity="0.5"
   id="line30" />
  <line
   x1="84.00"
   y1="0.00"
   x2="167.09"
   y2="83.09"
   stroke="#f80"
   stroke-width="5"
   opacity="0.5"
   id="line31" />
  <line
   x1="98.00"
   y1="0.00"
   x2="167.09"
   y2="69.09"
   stroke="#f80"
   stroke-width="5"
   opacity="0.5"
   id="line32" />
  <line
   x1="112.00"
   y1="0.00"
   x2="167.09"
   y2="55.09"
   stroke="#f80"
   stroke-width="5"
   opacity="0.5"
   id="line33" />
  <line
   x1="126.00"
   y1="0.00"
   x2="167.09"
   y2="41.09"
   stroke="#f80"
   stroke-width="5"
   opacity="0.5"
   id="line34" />
  <line
   x1="140.00"
   y1="0.00"
   x2="167.09"
   y2="27.09"
   stroke="#f80"
   stroke-width="5"
   opacity="0.5"
   id="line35" />
  <line
   x1="154.00"
   y1="0.00"
   x2="167.09"
   y2="13.09"
   stroke="#f80"
   stroke-width="5"
   opacity="0.5"
   id="line36" />
</g><path
     fill="none"
     stroke="#f80"
     stroke-width="5"
     d="M0 0h167.087v242.667H0z"
     id="path36" /></svg>
