<?xml version="1.0" encoding="UTF-8" standalone="no"?>
<svg
   xml:space="preserve"
   width="222.783"
   height="323.556"
   viewBox="0 0 167.087 242.667"
   version="1.1"
   id="svg13"
   xmlns="http://www.w3.org/2000/svg"
   xmlns:svg="http://www.w3.org/2000/svg"><defs
     id="defs13" /><g
     style="fill-rule:nonzero;clip-rule:nonzero;stroke:#000;stroke-miterlimit:4"
     id="g1"><path
       d="M166.837 235.548c0 3.777-3.087 6.869-6.871 6.869H7.11c-3.775 0-6.861-3.092-6.861-6.87V7.12C.25 3.343 3.336.25 7.11.25h152.856c3.784 0 6.87 3.093 6.87 6.87z"
       style="fill:#fff;stroke-width:.5"
       id="path1" /></g><path
     style="font-size:32px;line-height:125%;font-family:Arial;-inkscape-font-specification:Arial;letter-spacing:0;word-spacing:0"
     d="m 24.4985,7.8136253 q -3.375,5.1562497 -4.765625,8.0781247 -1.390625,2.921875 -2.09375,5.765625 -0.6875,2.84375 -0.6875,5.890625 h -2.9375 q 0,-4.21875 1.78125,-8.875 Q 17.59225,14.001125 21.77975,7.9230003 H 9.9516249 V 5.5323753 H 24.4985 Z"
     id="text1"
     aria-label="7" /><path
     d="M50.291 22.698s2.375-1.9 2.375-4.534c0-1.542-1.369-4.102-4.534-4.102s-4.534 2.561-4.534 4.102c0 2.634 2.375 4.534 2.375 4.534-2.638-2.055-7.34-.652-7.34 3.455 0 2.056 1.68 4.318 4.317 4.318 3.165 0 4.534-3.455 4.534-3.455s.402 3.938-1.943 6.046h5.182c-2.345-2.107-1.943-6.046-1.943-6.046s1.37 3.455 4.534 3.455c2.64 0 4.318-2.263 4.318-4.318 0-4.107-4.703-5.51-7.34-3.455"
     style="fill:#000"
     transform="translate(-54.025 10.018)scale(1.48565)"
     id="path2" /><path
     style="font-size:32px;line-height:125%;font-family:Arial;-inkscape-font-specification:Arial;letter-spacing:0;word-spacing:0"
     d="m -142.6765,-234.20137 q -3.375,5.15625 -4.76562,8.07812 -1.39063,2.92188 -2.09375,5.76563 -0.6875,2.84375 -0.6875,5.89062 h -2.9375 q 0,-4.21875 1.78125,-8.875 1.79687,-4.67187 5.98437,-10.75 h -11.82812 v -2.39062 h 14.54687 z"
     id="text2"
     transform="scale(-1)"
     aria-label="7" /><path
     d="M50.291 22.698s2.375-1.9 2.375-4.534c0-1.542-1.369-4.102-4.534-4.102s-4.534 2.561-4.534 4.102c0 2.634 2.375 4.534 2.375 4.534-2.638-2.055-7.34-.652-7.34 3.455 0 2.056 1.68 4.318 4.317 4.318 3.165 0 4.534-3.455 4.534-3.455s.402 3.938-1.943 6.046h5.182c-2.345-2.107-1.943-6.046-1.943-6.046s1.37 3.455 4.534 3.455c2.64 0 4.318-2.263 4.318-4.318 0-4.107-4.703-5.51-7.34-3.455"
     style="fill:#000"
     transform="translate(221.2 232.462)scale(-1.48565)"
     id="path3" /><path
     d="M50.291 22.698s2.375-1.9 2.375-4.534c0-1.542-1.369-4.102-4.534-4.102s-4.534 2.561-4.534 4.102c0 2.634 2.375 4.534 2.375 4.534-2.638-2.055-7.34-.652-7.34 3.455 0 2.056 1.68 4.318 4.317 4.318 3.165 0 4.534-3.455 4.534-3.455s.402 3.938-1.943 6.046h5.182c-2.345-2.107-1.943-6.046-1.943-6.046s1.37 3.455 4.534 3.455c2.64 0 4.318-2.263 4.318-4.318 0-4.107-4.703-5.51-7.34-3.455"
     style="fill:#000"
     transform="translate(-63.988 -27.131)scale(2.51258)"
     id="path4" /><path
     d="M50.291 22.698s2.375-1.9 2.375-4.534c0-1.542-1.369-4.102-4.534-4.102s-4.534 2.561-4.534 4.102c0 2.634 2.375 4.534 2.375 4.534-2.638-2.055-7.34-.652-7.34 3.455 0 2.056 1.68 4.318 4.317 4.318 3.165 0 4.534-3.455 4.534-3.455s.402 3.938-1.943 6.046h5.182c-2.345-2.107-1.943-6.046-1.943-6.046s1.37 3.455 4.534 3.455c2.64 0 4.318-2.263 4.318-4.318 0-4.107-4.703-5.51-7.34-3.455"
     style="fill:#000"
     transform="translate(177.93 269.275)scale(-2.51258)"
     id="path5" /><path
     d="M50.291 22.698s2.375-1.9 2.375-4.534c0-1.542-1.369-4.102-4.534-4.102s-4.534 2.561-4.534 4.102c0 2.634 2.375 4.534 2.375 4.534-2.638-2.055-7.34-.652-7.34 3.455 0 2.056 1.68 4.318 4.317 4.318 3.165 0 4.534-3.455 4.534-3.455s.402 3.938-1.943 6.046h5.182c-2.345-2.107-1.943-6.046-1.943-6.046s1.37 3.455 4.534 3.455c2.64 0 4.318-2.263 4.318-4.318 0-4.107-4.703-5.51-7.34-3.455"
     style="fill:#000"
     transform="translate(-63.988 63.37)scale(2.51258)"
     id="path6" /><path
     d="M50.291 22.698s2.375-1.9 2.375-4.534c0-1.542-1.369-4.102-4.534-4.102s-4.534 2.561-4.534 4.102c0 2.634 2.375 4.534 2.375 4.534-2.638-2.055-7.34-.652-7.34 3.455 0 2.056 1.68 4.318 4.317 4.318 3.165 0 4.534-3.455 4.534-3.455s.402 3.938-1.943 6.046h5.182c-2.345-2.107-1.943-6.046-1.943-6.046s1.37 3.455 4.534 3.455c2.64 0 4.318-2.263 4.318-4.318 0-4.107-4.703-5.51-7.34-3.455"
     style="fill:#000"
     transform="translate(-11.203 -27.305)scale(2.51258)"
     id="path7" /><path
     d="M50.291 22.698s2.375-1.9 2.375-4.534c0-1.542-1.369-4.102-4.534-4.102s-4.534 2.561-4.534 4.102c0 2.634 2.375 4.534 2.375 4.534-2.638-2.055-7.34-.652-7.34 3.455 0 2.056 1.68 4.318 4.317 4.318 3.165 0 4.534-3.455 4.534-3.455s.402 3.938-1.943 6.046h5.182c-2.345-2.107-1.943-6.046-1.943-6.046s1.37 3.455 4.534 3.455c2.64 0 4.318-2.263 4.318-4.318 0-4.107-4.703-5.51-7.34-3.455"
     style="fill:#000"
     transform="translate(230.715 269.101)scale(-2.51258)"
     id="path8" /><path
     d="M50.291 22.698s2.375-1.9 2.375-4.534c0-1.542-1.369-4.102-4.534-4.102s-4.534 2.561-4.534 4.102c0 2.634 2.375 4.534 2.375 4.534-2.638-2.055-7.34-.652-7.34 3.455 0 2.056 1.68 4.318 4.317 4.318 3.165 0 4.534-3.455 4.534-3.455s.402 3.938-1.943 6.046h5.182c-2.345-2.107-1.943-6.046-1.943-6.046s1.37 3.455 4.534 3.455c2.64 0 4.318-2.263 4.318-4.318 0-4.107-4.703-5.51-7.34-3.455"
     style="fill:#000"
     transform="translate(-11.203 63.196)scale(2.51258)"
     id="path9" /><path
     d="M50.291 22.698s2.375-1.9 2.375-4.534c0-1.542-1.369-4.102-4.534-4.102s-4.534 2.561-4.534 4.102c0 2.634 2.375 4.534 2.375 4.534-2.638-2.055-7.34-.652-7.34 3.455 0 2.056 1.68 4.318 4.317 4.318 3.165 0 4.534-3.455 4.534-3.455s.402 3.938-1.943 6.046h5.182c-2.345-2.107-1.943-6.046-1.943-6.046s1.37 3.455 4.534 3.455c2.64 0 4.318-2.263 4.318-4.318 0-4.107-4.703-5.51-7.34-3.455"
     style="fill:#000"
     transform="translate(-38.056 18.622)scale(2.51258)"
     id="path10" /><path
     fill="none"
     stroke="#fff"
     stroke-linecap="round"
     stroke-linejoin="round"
     stroke-width="18"
     d="m53.54 121.33 20 20 40-50"
     id="path11" /><path
     fill="none"
     stroke="#0a0"
     stroke-linecap="round"
     stroke-linejoin="round"
     stroke-width="12"
     d="m53.54 121.33 20 20 40-50"
     id="path12" /><path
     fill="none"
     stroke="#0a0"
     stroke-width="5"
     d="M0 0h167.087v242.667H0z"
     id="path13" /></svg>
