<?xml version="1.0" encoding="UTF-8" standalone="no"?>
<svg
   xml:space="preserve"
   width="222.783"
   height="323.556"
   viewBox="0 0 167.087 242.667"
   version="1.1"
   id="svg10"
   xmlns="http://www.w3.org/2000/svg"
   xmlns:svg="http://www.w3.org/2000/svg"><defs
     id="defs10" /><g
     style="fill-rule:nonzero;clip-rule:nonzero;stroke:#000;stroke-miterlimit:4"
     id="g1"><path
       d="M166.837 235.548c0 3.777-3.087 6.869-6.871 6.869H7.11c-3.775 0-6.861-3.092-6.861-6.87V7.12C.25 3.343 3.336.25 7.11.25h152.856c3.784 0 6.87 3.093 6.87 6.87z"
       style="fill:#fff;stroke-width:.5"
       id="path1" /></g><path
     style="font-size:32px;line-height:125%;font-family:Arial;-inkscape-font-specification:Arial;letter-spacing:0;word-spacing:0;fill:#df0000"
     d="m 24.9625,8.2786255 q -3.375,5.1562495 -4.765625,8.0781245 -1.390625,2.921875 -2.09375,5.765625 -0.6875,2.84375 -0.6875,5.890625 h -2.9375 q 0,-4.21875 1.78125,-8.875 Q 18.05625,14.466125 22.24375,8.3880005 H 10.415625 V 5.9973755 H 24.9625 Z"
     id="text1"
     aria-label="7" /><path
     d="M3.676-9C.433-9 0-5.523 0-5.523S-.433-9-3.676-9C-5.946-9-8-7.441-8-4.5-8-.614-1.42 3.294 0 9 1.352 3.299 8-.614 8-4.5 8-7.441 5.946-9 3.676-9"
     style="fill:#df0000;fill-opacity:1"
     transform="matrix(1.6743 0 0 1.567 17.178 46.385)"
     id="path2" /><path
     style="font-size:32px;line-height:125%;font-family:Arial;-inkscape-font-specification:Arial;letter-spacing:0;word-spacing:0;fill:#df0000"
     d="m -142.63049,-233.24937 q -3.375,5.15625 -4.76563,8.07812 -1.39062,2.92188 -2.09375,5.76563 -0.6875,2.84375 -0.6875,5.89062 h -2.9375 q 0,-4.21875 1.78125,-8.875 1.79688,-4.67187 5.98438,-10.75 h -11.82813 v -2.39062 h 14.54688 z"
     id="text2"
     transform="scale(-1)"
     aria-label="7" /><path
     d="M3.676-9C.433-9 0-5.523 0-5.523S-.433-9-3.676-9C-5.946-9-8-7.441-8-4.5-8-.614-1.42 3.294 0 9 1.352 3.299 8-.614 8-4.5 8-7.441 5.946-9 3.676-9"
     style="fill:#df0000;fill-opacity:1"
     transform="matrix(-1.6743 0 0 -1.567 150.156 195.143)"
     id="path3" /><path
     d="M3.676-9C.433-9 0-5.523 0-5.523S-.433-9-3.676-9C-5.946-9-8-7.441-8-4.5-8-.614-1.42 3.294 0 9 1.352 3.299 8-.614 8-4.5 8-7.441 5.946-9 3.676-9"
     style="fill:#df0000;fill-opacity:1"
     transform="matrix(2.779 0 0 2.60089 54.512 31.604)"
     id="path4" /><path
     d="M3.676-9C.433-9 0-5.523 0-5.523S-.433-9-3.676-9C-5.946-9-8-7.441-8-4.5-8-.614-1.42 3.294 0 9 1.352 3.299 8-.614 8-4.5 8-7.441 5.946-9 3.676-9"
     style="fill:#df0000;fill-opacity:1"
     transform="matrix(-2.779 0 0 -2.60089 54.512 208.006)"
     id="path5" /><path
     d="M3.676-9C.433-9 0-5.523 0-5.523S-.433-9-3.676-9C-5.946-9-8-7.441-8-4.5-8-.614-1.42 3.294 0 9 1.352 3.299 8-.614 8-4.5 8-7.441 5.946-9 3.676-9"
     style="fill:#df0000;fill-opacity:1"
     transform="matrix(2.779 0 0 2.60089 54.512 125.305)"
     id="path6" /><path
     d="M3.676-9C.433-9 0-5.523 0-5.523S-.433-9-3.676-9C-5.946-9-8-7.441-8-4.5-8-.614-1.42 3.294 0 9 1.352 3.299 8-.614 8-4.5 8-7.441 5.946-9 3.676-9"
     style="fill:#df0000;fill-opacity:1"
     transform="matrix(2.779 0 0 2.60089 112.25 31.273)"
     id="path7" /><path
     d="M3.676-9C.433-9 0-5.523 0-5.523S-.433-9-3.676-9C-5.946-9-8-7.441-8-4.5-8-.614-1.42 3.294 0 9 1.352 3.299 8-.614 8-4.5 8-7.441 5.946-9 3.676-9"
     style="fill:#df0000;fill-opacity:1"
     transform="matrix(-2.779 0 0 -2.60089 112.25 209.275)"
     id="path8" /><path
     d="M3.676-9C.433-9 0-5.523 0-5.523S-.433-9-3.676-9C-5.946-9-8-7.441-8-4.5-8-.614-1.42 3.294 0 9 1.352 3.299 8-.614 8-4.5 8-7.441 5.946-9 3.676-9"
     style="fill:#df0000;fill-opacity:1"
     transform="matrix(2.779 0 0 2.60089 112.25 124.974)"
     id="path9" /><path
     d="M3.676-9C.433-9 0-5.523 0-5.523S-.433-9-3.676-9C-5.946-9-8-7.441-8-4.5-8-.614-1.42 3.294 0 9 1.352 3.299 8-.614 8-4.5 8-7.441 5.946-9 3.676-9"
     style="fill:#df0000;fill-opacity:1"
     transform="matrix(2.779 0 0 2.60089 83.678 76.705)"
     id="path10" /></svg>
