<?xml version="1.0" encoding="UTF-8" standalone="no"?>
<svg
   xml:space="preserve"
   width="222.783"
   height="323.556"
   viewBox="0 0 167.087 242.667"
   version="1.1"
   id="svg14"
   xmlns="http://www.w3.org/2000/svg"
   xmlns:svg="http://www.w3.org/2000/svg"><defs
     id="defs14" /><g
     style="fill-rule:nonzero;clip-rule:nonzero;stroke:#000;stroke-miterlimit:4"
     id="g1"><path
       d="M166.837 235.548c0 3.777-3.087 6.869-6.871 6.869H7.11c-3.775 0-6.861-3.092-6.861-6.87V7.12C.25 3.343 3.336.25 7.11.25h152.856c3.784 0 6.87 3.093 6.87 6.87z"
       style="fill:#fff;stroke-width:.5"
       id="path1" /></g><path
     style="font-size:32px;line-height:125%;font-family:Arial;-inkscape-font-specification:Arial;letter-spacing:0;word-spacing:0"
     d="m 24.95325,21.872375 q 0,3.046875 -1.9375,4.75 -1.9375,1.703125 -5.5625,1.703125 -3.53125,0 -5.53125,-1.671875 -1.9843751,-1.671875 -1.9843751,-4.75 0,-2.15625 1.2343751,-3.625 1.234375,-1.46875 3.15625,-1.78125 v -0.0625 Q 12.531375,16.013 11.4845,14.60675 10.45325,13.2005 10.45325,11.309875 q 0,-2.5156245 1.875,-4.0781245 1.890625,-1.5625 5.0625,-1.5625 3.25,0 5.125,1.53125 1.890625,1.53125 1.890625,4.1406245 0,1.890625 -1.046875,3.296875 -1.046875,1.40625 -2.859375,1.765625 v 0.0625 q 2.109375,0.34375 3.28125,1.796875 1.171875,1.4375 1.171875,3.609375 z M 22.031375,21.60675 q 0,-2.046875 -1.21875,-3.078125 -1.21875,-1.046875 -3.421875,-1.046875 -2.140625,0 -3.34375,1.125 -1.203125,1.109375 -1.203125,3.0625 0,4.546875 4.640625,4.546875 2.296875,0 3.421875,-1.09375 1.125,-1.109375 1.125,-3.515625 z M 21.4845,11.497375 q 0,-3.7343745 -4.09375,-3.7343745 -1.984375,0 -3.03125,0.9375 -1.03125,0.9375 -1.03125,2.7968745 0,1.890625 1.0625,2.890625 1.078125,0.984375 3.03125,0.984375 1.984375,0 3.015625,-0.90625 1.046875,-0.921875 1.046875,-2.96875 z"
     id="text1"
     aria-label="8" /><path
     d="M7.989 3.103C7.747-.954.242-8.59 0-10.5-.242-8.591-7.747-.955-7.989 3.103c-.169 2.868 1.695 4.057 3.39 4.057 1.835-.022 3.35-2.8 3.873-3.341.242.716-1.603 6.682-2.179 6.682h5.811c-.576 0-2.421-5.966-2.179-6.682.457.496 1.797 3.258 3.874 3.341 1.694-.001 3.557-1.189 3.388-4.057"
     style="fill:#000"
     transform="matrix(1.5086 0 0 1.37933 16.93 45.066)"
     id="path2" /><path
     d="M7.989 3.103C7.747-.954.242-8.59 0-10.5-.242-8.591-7.747-.955-7.989 3.103c-.169 2.868 1.695 4.057 3.39 4.057 1.835-.022 3.35-2.8 3.873-3.341.242.716-1.603 6.682-2.179 6.682h5.811c-.576 0-2.421-5.966-2.179-6.682.457.496 1.797 3.258 3.874 3.341 1.694-.001 3.557-1.189 3.388-4.057"
     style="fill:#000"
     transform="matrix(2.64868 0 0 2.42172 54.61 44.566)"
     id="path3" /><path
     style="font-size:32px;line-height:125%;font-family:Arial;-inkscape-font-specification:Arial;letter-spacing:0;word-spacing:0"
     d="m -142.57175,-221.26462 q 0,3.04688 -1.9375,4.75 -1.9375,1.70313 -5.5625,1.70313 -3.53125,0 -5.53125,-1.67188 -1.98437,-1.67187 -1.98437,-4.75 0,-2.15625 1.23437,-3.625 1.23438,-1.46875 3.15625,-1.78125 v -0.0625 q -1.79687,-0.42187 -2.84375,-1.82812 -1.03125,-1.40625 -1.03125,-3.29688 0,-2.51562 1.875,-4.07812 1.89063,-1.5625 5.0625,-1.5625 3.25,0 5.125,1.53125 1.89063,1.53125 1.89063,4.14062 0,1.89063 -1.04688,3.29688 -1.04687,1.40625 -2.85937,1.76562 v 0.0625 q 2.10937,0.34375 3.28125,1.79688 1.17187,1.4375 1.17187,3.60937 z m -2.92187,-0.26562 q 0,-2.04688 -1.21875,-3.07813 -1.21875,-1.04687 -3.42188,-1.04687 -2.14062,0 -3.34375,1.125 -1.20312,1.10937 -1.20312,3.0625 0,4.54687 4.64062,4.54687 2.29688,0 3.42188,-1.09375 1.125,-1.10937 1.125,-3.51562 z m -0.54688,-10.10938 q 0,-3.73437 -4.09375,-3.73437 -1.98437,0 -3.03125,0.9375 -1.03125,0.9375 -1.03125,2.79687 0,1.89063 1.0625,2.89063 1.07813,0.98437 3.03125,0.98437 1.98438,0 3.01563,-0.90625 1.04687,-0.92187 1.04687,-2.96875 z"
     id="text3"
     transform="scale(-1)"
     aria-label="8" /><path
     d="M7.989 3.103C7.747-.954.242-8.59 0-10.5-.242-8.591-7.747-.955-7.989 3.103c-.169 2.868 1.695 4.057 3.39 4.057 1.835-.022 3.35-2.8 3.873-3.341.242.716-1.603 6.682-2.179 6.682h5.811c-.576 0-2.421-5.966-2.179-6.682.457.496 1.797 3.258 3.874 3.341 1.694-.001 3.557-1.189 3.388-4.057"
     style="fill:#000"
     transform="matrix(-1.5086 0 0 -1.37933 150.225 198.044)"
     id="path4" /><path
     d="M7.989 3.103C7.747-.954.242-8.59 0-10.5-.242-8.591-7.747-.955-7.989 3.103c-.169 2.868 1.695 4.057 3.39 4.057 1.835-.022 3.35-2.8 3.873-3.341.242.716-1.603 6.682-2.179 6.682h5.811c-.576 0-2.421-5.966-2.179-6.682.457.496 1.797 3.258 3.874 3.341 1.694-.001 3.557-1.189 3.388-4.057"
     style="fill:#000"
     transform="matrix(-2.64868 0 0 -2.42172 54.656 198.571)"
     id="path5" /><path
     d="M7.989 3.103C7.747-.954.242-8.59 0-10.5-.242-8.591-7.747-.955-7.989 3.103c-.169 2.868 1.695 4.057 3.39 4.057 1.835-.022 3.35-2.8 3.873-3.341.242.716-1.603 6.682-2.179 6.682h5.811c-.576 0-2.421-5.966-2.179-6.682.457.496 1.797 3.258 3.874 3.341 1.694-.001 3.557-1.189 3.388-4.057"
     style="fill:#000"
     transform="matrix(2.64868 0 0 2.42172 54.695 119.067)"
     id="path6" /><path
     d="M7.989 3.103C7.747-.954.242-8.59 0-10.5-.242-8.591-7.747-.955-7.989 3.103c-.169 2.868 1.695 4.057 3.39 4.057 1.835-.022 3.35-2.8 3.873-3.341.242.716-1.603 6.682-2.179 6.682h5.811c-.576 0-2.421-5.966-2.179-6.682.457.496 1.797 3.258 3.874 3.341 1.694-.001 3.557-1.189 3.388-4.057"
     style="fill:#000"
     transform="matrix(2.64868 0 0 2.42172 112.498 44.367)"
     id="path7" /><path
     d="M7.989 3.103C7.747-.954.242-8.59 0-10.5-.242-8.591-7.747-.955-7.989 3.103c-.169 2.868 1.695 4.057 3.39 4.057 1.835-.022 3.35-2.8 3.873-3.341.242.716-1.603 6.682-2.179 6.682h5.811c-.576 0-2.421-5.966-2.179-6.682.457.496 1.797 3.258 3.874 3.341 1.694-.001 3.557-1.189 3.388-4.057"
     style="fill:#000"
     transform="matrix(-2.64868 0 0 -2.42172 112.543 198.372)"
     id="path8" /><path
     d="M7.989 3.103C7.747-.954.242-8.59 0-10.5-.242-8.591-7.747-.955-7.989 3.103c-.169 2.868 1.695 4.057 3.39 4.057 1.835-.022 3.35-2.8 3.873-3.341.242.716-1.603 6.682-2.179 6.682h5.811c-.576 0-2.421-5.966-2.179-6.682.457.496 1.797 3.258 3.874 3.341 1.694-.001 3.557-1.189 3.388-4.057"
     style="fill:#000"
     transform="matrix(2.64868 0 0 2.42172 112.582 118.868)"
     id="path9" /><path
     d="M7.989 3.103C7.747-.954.242-8.59 0-10.5-.242-8.591-7.747-.955-7.989 3.103c-.169 2.868 1.695 4.057 3.39 4.057 1.835-.022 3.35-2.8 3.873-3.341.242.716-1.603 6.682-2.179 6.682h5.811c-.576 0-2.421-5.966-2.179-6.682.457.496 1.797 3.258 3.874 3.341 1.694-.001 3.557-1.189 3.388-4.057"
     style="fill:#000"
     transform="matrix(2.64868 0 0 2.42172 83.495 83.938)"
     id="path10" /><path
     d="M7.989 3.103C7.747-.954.242-8.59 0-10.5-.242-8.591-7.747-.955-7.989 3.103c-.169 2.868 1.695 4.057 3.39 4.057 1.835-.022 3.35-2.8 3.873-3.341.242.716-1.603 6.682-2.179 6.682h5.811c-.576 0-2.421-5.966-2.179-6.682.457.496 1.797 3.258 3.874 3.341 1.694-.001 3.557-1.189 3.388-4.057"
     style="fill:#000"
     transform="matrix(-2.64868 0 0 -2.42172 83.166 161.803)"
     id="path11" /><path
     fill="none"
     stroke="#fff"
     stroke-linecap="round"
     stroke-linejoin="round"
     stroke-width="18"
     d="m53.54 121.33 20 20 40-50"
     id="path12" /><path
     fill="none"
     stroke="#0a0"
     stroke-linecap="round"
     stroke-linejoin="round"
     stroke-width="12"
     d="m53.54 121.33 20 20 40-50"
     id="path13" /><path
     fill="none"
     stroke="#0a0"
     stroke-width="5"
     d="M0 0h167.087v242.667H0z"
     id="path14" /></svg>
