<?xml version="1.0" encoding="UTF-8" standalone="no"?>
<svg
   xml:space="preserve"
   width="222.783"
   height="323.556"
   viewBox="0 0 167.087 242.667"
   version="1.1"
   id="svg14"
   xmlns="http://www.w3.org/2000/svg"
   xmlns:svg="http://www.w3.org/2000/svg"><defs
     id="defs14" /><g
     style="fill-rule:nonzero;clip-rule:nonzero;stroke:#000;stroke-miterlimit:4"
     id="g1"><path
       d="M166.837 235.548c0 3.777-3.087 6.869-6.871 6.869H7.11c-3.775 0-6.861-3.092-6.861-6.87V7.12C.25 3.343 3.336.25 7.11.25h152.856c3.784 0 6.87 3.093 6.87 6.87z"
       style="fill:#fff;stroke-width:.5"
       id="path1" /></g><path
     style="font-size:32px;line-height:125%;font-family:Arial;-inkscape-font-specification:Arial;letter-spacing:0;word-spacing:0;fill:#df0000"
     d="m 24.25225,20.272375 q 0,3.046875 -1.9375,4.75 -1.9375,1.703125 -5.5625,1.703125 -3.53125,0 -5.53125,-1.671875 -1.9843748,-1.671875 -1.9843748,-4.75 0,-2.15625 1.2343748,-3.625 1.234375,-1.46875 3.15625,-1.78125 v -0.0625 Q 11.830375,14.413 10.7835,13.00675 9.7522502,11.6005 9.7522502,9.7098751 q 0,-2.515625 1.8749998,-4.078125 1.890625,-1.5625 5.0625,-1.5625 3.25,0 5.125,1.53125 1.890625,1.53125 1.890625,4.140625 0,1.8906249 -1.046875,3.2968749 -1.046875,1.40625 -2.859375,1.765625 v 0.0625 q 2.109375,0.34375 3.28125,1.796875 1.171875,1.4375 1.171875,3.609375 z M 21.330375,20.00675 q 0,-2.046875 -1.21875,-3.078125 -1.21875,-1.046875 -3.421875,-1.046875 -2.140625,0 -3.34375,1.125 -1.203125,1.109375 -1.203125,3.0625 0,4.546875 4.640625,4.546875 2.296875,0 3.421875,-1.09375 1.125,-1.109375 1.125,-3.515625 z M 20.7835,9.8973751 q 0,-3.734375 -4.09375,-3.734375 -1.984375,0 -3.03125,0.9375 -1.03125,0.9375 -1.03125,2.796875 0,1.8906249 1.0625,2.8906249 1.078125,0.984375 3.03125,0.984375 1.984375,0 3.015625,-0.90625 Q 20.7835,11.94425 20.7835,9.8973751 Z"
     id="text1"
     aria-label="8" /><path
     style="font-size:32px;line-height:125%;font-family:Arial;-inkscape-font-specification:Arial;letter-spacing:0;word-spacing:0;fill:#df0000"
     d="m -143.08176,-222.85562 q 0,3.04687 -1.9375,4.75 -1.9375,1.70312 -5.5625,1.70312 -3.53125,0 -5.53125,-1.67187 -1.98437,-1.67188 -1.98437,-4.75 0,-2.15625 1.23437,-3.625 1.23438,-1.46875 3.15625,-1.78125 v -0.0625 q -1.79687,-0.42188 -2.84375,-1.82813 -1.03125,-1.40625 -1.03125,-3.29687 0,-2.51563 1.875,-4.07813 1.89063,-1.5625 5.0625,-1.5625 3.25,0 5.125,1.53125 1.89063,1.53125 1.89063,4.14063 0,1.89062 -1.04688,3.29687 -1.04687,1.40625 -2.85937,1.76563 v 0.0625 q 2.10937,0.34375 3.28125,1.79687 1.17187,1.4375 1.17187,3.60938 z m -2.92187,-0.26563 q 0,-2.04687 -1.21875,-3.07812 -1.21875,-1.04688 -3.42188,-1.04688 -2.14062,0 -3.34375,1.125 -1.20312,1.10938 -1.20312,3.0625 0,4.54688 4.64062,4.54688 2.29688,0 3.42188,-1.09375 1.125,-1.10938 1.125,-3.51563 z m -0.54688,-10.10937 q 0,-3.73438 -4.09375,-3.73438 -1.98437,0 -3.03125,0.9375 -1.03125,0.9375 -1.03125,2.79688 0,1.89062 1.0625,2.89062 1.07813,0.98438 3.03125,0.98438 1.98438,0 3.01563,-0.90625 1.04687,-0.92188 1.04687,-2.96875 z"
     id="text2"
     transform="scale(-1)"
     aria-label="8" /><path
     d="M3.243-4.725C1.126-7.59 0-10.5 0-10.5s-1.126 2.91-3.243 5.775C-5.361-1.862-8 0-8 0s2.639 1.861 4.757 4.726C-1.126 7.59 0 10.5 0 10.5s1.126-2.91 3.243-5.774C5.361 1.861 8 0 8 0S5.361-1.862 3.243-4.725"
     style="fill:#df0000"
     transform="translate(16.968 44.236)scale(1.4769)"
     id="path2" /><path
     d="M3.243-4.725C1.126-7.59 0-10.5 0-10.5s-1.126 2.91-3.243 5.775C-5.361-1.862-8 0-8 0s2.639 1.861 4.757 4.726C-1.126 7.59 0 10.5 0 10.5s1.126-2.91 3.243-5.774C5.361 1.861 8 0 8 0S5.361-1.862 3.243-4.725"
     style="fill:#df0000"
     transform="translate(150.62 198.503)scale(1.4769)"
     id="path3" /><path
     d="M3.243-4.725C1.126-7.59 0-10.5 0-10.5s-1.126 2.91-3.243 5.775C-5.361-1.862-8 0-8 0s2.639 1.861 4.757 4.726C-1.126 7.59 0 10.5 0 10.5s1.126-2.91 3.243-5.774C5.361 1.861 8 0 8 0S5.361-1.862 3.243-4.725"
     style="fill:#df0000"
     transform="translate(111.729 193.622)scale(2.5883)"
     id="path4" /><path
     d="M3.243-4.725C1.126-7.59 0-10.5 0-10.5s-1.126 2.91-3.243 5.775C-5.361-1.862-8 0-8 0s2.639 1.861 4.757 4.726C-1.126 7.59 0 10.5 0 10.5s1.126-2.91 3.243-5.774C5.361 1.861 8 0 8 0S5.361-1.862 3.243-4.725"
     style="fill:#df0000"
     transform="translate(111.729 49.22)scale(2.5883)"
     id="path5" /><path
     d="M3.243-4.725C1.126-7.59 0-10.5 0-10.5s-1.126 2.91-3.243 5.775C-5.361-1.862-8 0-8 0s2.639 1.861 4.757 4.726C-1.126 7.59 0 10.5 0 10.5s1.126-2.91 3.243-5.774C5.361 1.861 8 0 8 0S5.361-1.862 3.243-4.725"
     style="fill:#df0000"
     transform="translate(111.729 120.52)scale(2.5883)"
     id="path6" /><path
     d="M3.243-4.725C1.126-7.59 0-10.5 0-10.5s-1.126 2.91-3.243 5.775C-5.361-1.862-8 0-8 0s2.639 1.861 4.757 4.726C-1.126 7.59 0 10.5 0 10.5s1.126-2.91 3.243-5.774C5.361 1.861 8 0 8 0S5.361-1.862 3.243-4.725"
     style="fill:#df0000"
     transform="translate(54.413 193.74)scale(2.5883)"
     id="path7" /><path
     d="M3.243-4.725C1.126-7.59 0-10.5 0-10.5s-1.126 2.91-3.243 5.775C-5.361-1.862-8 0-8 0s2.639 1.861 4.757 4.726C-1.126 7.59 0 10.5 0 10.5s1.126-2.91 3.243-5.774C5.361 1.861 8 0 8 0S5.361-1.862 3.243-4.725"
     style="fill:#df0000"
     transform="translate(54.413 49.338)scale(2.5883)"
     id="path8" /><path
     d="M3.243-4.725C1.126-7.59 0-10.5 0-10.5s-1.126 2.91-3.243 5.775C-5.361-1.862-8 0-8 0s2.639 1.861 4.757 4.726C-1.126 7.59 0 10.5 0 10.5s1.126-2.91 3.243-5.774C5.361 1.861 8 0 8 0S5.361-1.862 3.243-4.725"
     style="fill:#df0000"
     transform="translate(54.413 120.638)scale(2.5883)"
     id="path9" /><path
     d="M3.243-4.725C1.126-7.59 0-10.5 0-10.5s-1.126 2.91-3.243 5.775C-5.361-1.862-8 0-8 0s2.639 1.861 4.757 4.726C-1.126 7.59 0 10.5 0 10.5s1.126-2.91 3.243-5.774C5.361 1.861 8 0 8 0S5.361-1.862 3.243-4.725"
     style="fill:#df0000"
     transform="translate(83.213 85.538)scale(2.5883)"
     id="path10" /><path
     d="M3.243-4.725C1.126-7.59 0-10.5 0-10.5s-1.126 2.91-3.243 5.775C-5.361-1.862-8 0-8 0s2.639 1.861 4.757 4.726C-1.126 7.59 0 10.5 0 10.5s1.126-2.91 3.243-5.774C5.361 1.861 8 0 8 0S5.361-1.862 3.243-4.725"
     style="fill:#df0000"
     transform="translate(83.213 156.924)scale(2.5883)"
     id="path11" /><path
     fill="none"
     stroke="#fff"
     stroke-linecap="round"
     stroke-linejoin="round"
     stroke-width="18"
     d="m53.54 121.33 20 20 40-50"
     id="path12" /><path
     fill="none"
     stroke="#0a0"
     stroke-linecap="round"
     stroke-linejoin="round"
     stroke-width="12"
     d="m53.54 121.33 20 20 40-50"
     id="path13" /><path
     fill="none"
     stroke="#0a0"
     stroke-width="5"
     d="M0 0h167.087v242.667H0z"
     id="path14" /></svg>
