<?xml version="1.0" encoding="UTF-8" standalone="no"?>
<svg
   xml:space="preserve"
   width="222.783"
   height="323.556"
   viewBox="0 0 167.087 242.667"
   version="1.1"
   id="svg15"
   xmlns="http://www.w3.org/2000/svg"
   xmlns:svg="http://www.w3.org/2000/svg"><defs
     id="defs15" /><g
     style="fill-rule:nonzero;clip-rule:nonzero;stroke:#000;stroke-miterlimit:4"
     id="g1"><path
       d="M166.837 235.548c0 3.777-3.087 6.869-6.871 6.869H7.11c-3.775 0-6.861-3.092-6.861-6.87V7.12C.25 3.343 3.336.25 7.11.25h152.856c3.784 0 6.87 3.093 6.87 6.87z"
       style="fill:#fff;stroke-width:.5"
       id="path1" /></g><path
     style="font-size:32px;line-height:125%;font-family:Arial;-inkscape-font-specification:Arial;letter-spacing:0;word-spacing:0;fill:#df0000"
     d="m 24.12725,14.959875 q 0,5.671875 -2.078125,8.71875 -2.0625,3.046875 -5.890625,3.046875 -2.578125,0 -4.140625,-1.078125 Q 10.471,24.553625 9.7991252,22.13175 l 2.6874998,-0.421875 q 0.84375,2.75 3.71875,2.75 2.421875,0 3.75,-2.25 1.328125,-2.25 1.390625,-6.421875 -0.625,1.40625 -2.140625,2.265625 -1.515625,0.84375 -3.328125,0.84375 -2.96875,0 -4.75,-2.03125 -1.7812498,-2.03125 -1.7812498,-5.390625 0,-3.4531249 1.9374998,-5.4218749 1.9375,-1.984375 5.390625,-1.984375 3.671875,0 5.5625,2.71875 1.890625,2.71875 1.890625,8.1718749 z m -3.0625,-2.71875 q 0,-2.6562499 -1.21875,-4.2656249 -1.21875,-1.625 -3.265625,-1.625 -2.03125,0 -3.203125,1.390625 -1.171875,1.375 -1.171875,3.7343749 0,2.40625 1.171875,3.8125 1.171875,1.390625 3.171875,1.390625 1.21875,0 2.265625,-0.546875 1.046875,-0.5625 1.640625,-1.578125 0.609375,-1.015625 0.609375,-2.3125 z"
     id="text1"
     aria-label="9" /><path
     style="font-size:32px;line-height:125%;font-family:Arial;-inkscape-font-specification:Arial;letter-spacing:0;word-spacing:0;fill:#df0000"
     d="m -143.20676,-228.16812 q 0,5.67187 -2.07812,8.71875 -2.0625,3.04687 -5.89063,3.04687 -2.57812,0 -4.14062,-1.07812 -1.54688,-1.09375 -2.21875,-3.51563 l 2.6875,-0.42187 q 0.84375,2.75 3.71875,2.75 2.42187,0 3.75,-2.25 1.32812,-2.25 1.39062,-6.42188 -0.625,1.40625 -2.14062,2.26563 -1.51563,0.84375 -3.32813,0.84375 -2.96875,0 -4.75,-2.03125 -1.78125,-2.03125 -1.78125,-5.39063 0,-3.45312 1.9375,-5.42187 1.9375,-1.98438 5.39063,-1.98438 3.67187,0 5.5625,2.71875 1.89062,2.71875 1.89062,8.17188 z m -3.0625,-2.71875 q 0,-2.65625 -1.21875,-4.26563 -1.21875,-1.625 -3.26562,-1.625 -2.03125,0 -3.20313,1.39063 -1.17187,1.375 -1.17187,3.73437 0,2.40625 1.17187,3.8125 1.17188,1.39063 3.17188,1.39063 1.21875,0 2.26562,-0.54688 1.04688,-0.5625 1.64063,-1.57812 0.60937,-1.01563 0.60937,-2.3125 z"
     id="text2"
     transform="scale(-1)"
     aria-label="9" /><path
     d="M3.243-4.725C1.126-7.59 0-10.5 0-10.5s-1.126 2.91-3.243 5.775C-5.361-1.862-8 0-8 0s2.639 1.861 4.757 4.726C-1.126 7.59 0 10.5 0 10.5s1.126-2.91 3.243-5.774C5.361 1.861 8 0 8 0S5.361-1.862 3.243-4.725"
     style="fill:#df0000"
     transform="translate(16.968 44.236)scale(1.4769)"
     id="path2" /><path
     d="M3.243-4.725C1.126-7.59 0-10.5 0-10.5s-1.126 2.91-3.243 5.775C-5.361-1.862-8 0-8 0s2.639 1.861 4.757 4.726C-1.126 7.59 0 10.5 0 10.5s1.126-2.91 3.243-5.774C5.361 1.861 8 0 8 0S5.361-1.862 3.243-4.725"
     style="fill:#df0000"
     transform="translate(150.62 198.503)scale(1.4769)"
     id="path3" /><path
     d="M3.243-4.725C1.126-7.59 0-10.5 0-10.5s-1.126 2.91-3.243 5.775C-5.361-1.862-8 0-8 0s2.639 1.861 4.757 4.726C-1.126 7.59 0 10.5 0 10.5s1.126-2.91 3.243-5.774C5.361 1.861 8 0 8 0S5.361-1.862 3.243-4.725"
     style="fill:#df0000"
     transform="translate(54.129 210.915)scale(2.5883)"
     id="path4" /><path
     d="M3.243-4.725C1.126-7.59 0-10.5 0-10.5s-1.126 2.91-3.243 5.775C-5.361-1.862-8 0-8 0s2.639 1.861 4.757 4.726C-1.126 7.59 0 10.5 0 10.5s1.126-2.91 3.243-5.774C5.361 1.861 8 0 8 0S5.361-1.862 3.243-4.725"
     style="fill:#df0000"
     transform="translate(54.129 31.62)scale(2.5883)"
     id="path5" /><path
     d="M3.243-4.725C1.126-7.59 0-10.5 0-10.5s-1.126 2.91-3.243 5.775C-5.361-1.862-8 0-8 0s2.639 1.861 4.757 4.726C-1.126 7.59 0 10.5 0 10.5s1.126-2.91 3.243-5.774C5.361 1.861 8 0 8 0S5.361-1.862 3.243-4.725"
     style="fill:#df0000"
     transform="translate(54.129 151.183)scale(2.5883)"
     id="path6" /><path
     d="M3.243-4.725C1.126-7.59 0-10.5 0-10.5s-1.126 2.91-3.243 5.775C-5.361-1.862-8 0-8 0s2.639 1.861 4.757 4.726C-1.126 7.59 0 10.5 0 10.5s1.126-2.91 3.243-5.774C5.361 1.861 8 0 8 0S5.361-1.862 3.243-4.725"
     style="fill:#df0000"
     transform="translate(54.129 91.352)scale(2.5883)"
     id="path7" /><path
     d="M3.243-4.725C1.126-7.59 0-10.5 0-10.5s-1.126 2.91-3.243 5.775C-5.361-1.862-8 0-8 0s2.639 1.861 4.757 4.726C-1.126 7.59 0 10.5 0 10.5s1.126-2.91 3.243-5.774C5.361 1.861 8 0 8 0S5.361-1.862 3.243-4.725"
     style="fill:#df0000"
     transform="translate(112.896 210.915)scale(2.5883)"
     id="path8" /><path
     d="M3.243-4.725C1.126-7.59 0-10.5 0-10.5s-1.126 2.91-3.243 5.775C-5.361-1.862-8 0-8 0s2.639 1.861 4.757 4.726C-1.126 7.59 0 10.5 0 10.5s1.126-2.91 3.243-5.774C5.361 1.861 8 0 8 0S5.361-1.862 3.243-4.725"
     style="fill:#df0000"
     transform="translate(112.896 31.62)scale(2.5883)"
     id="path9" /><path
     d="M3.243-4.725C1.126-7.59 0-10.5 0-10.5s-1.126 2.91-3.243 5.775C-5.361-1.862-8 0-8 0s2.639 1.861 4.757 4.726C-1.126 7.59 0 10.5 0 10.5s1.126-2.91 3.243-5.774C5.361 1.861 8 0 8 0S5.361-1.862 3.243-4.725"
     style="fill:#df0000"
     transform="translate(112.896 151.183)scale(2.5883)"
     id="path10" /><path
     d="M3.243-4.725C1.126-7.59 0-10.5 0-10.5s-1.126 2.91-3.243 5.775C-5.361-1.862-8 0-8 0s2.639 1.861 4.757 4.726C-1.126 7.59 0 10.5 0 10.5s1.126-2.91 3.243-5.774C5.361 1.861 8 0 8 0S5.361-1.862 3.243-4.725"
     style="fill:#df0000"
     transform="translate(112.896 91.352)scale(2.5883)"
     id="path11" /><path
     d="M3.243-4.725C1.126-7.59 0-10.5 0-10.5s-1.126 2.91-3.243 5.775C-5.361-1.862-8 0-8 0s2.639 1.861 4.757 4.726C-1.126 7.59 0 10.5 0 10.5s1.126-2.91 3.243-5.774C5.361 1.861 8 0 8 0S5.361-1.862 3.243-4.725"
     style="fill:#df0000"
     transform="translate(83.213 61.829)scale(2.5883)"
     id="path12" /><path
     fill="none"
     stroke="#fff"
     stroke-linecap="round"
     stroke-linejoin="round"
     stroke-width="18"
     d="m53.54 121.33 20 20 40-50"
     id="path13" /><path
     fill="none"
     stroke="#0a0"
     stroke-linecap="round"
     stroke-linejoin="round"
     stroke-width="12"
     d="m53.54 121.33 20 20 40-50"
     id="path14" /><path
     fill="none"
     stroke="#0a0"
     stroke-width="5"
     d="M0 0h167.087v242.667H0z"
     id="path15" /></svg>
