<?xml version="1.0" encoding="UTF-8" standalone="no"?>
<svg
   xml:space="preserve"
   width="222.783"
   height="323.556"
   viewBox="0 0 167.087 242.667"
   version="1.1"
   id="svg15"
   xmlns="http://www.w3.org/2000/svg"
   xmlns:svg="http://www.w3.org/2000/svg"><defs
     id="defs15" /><g
     style="fill-rule:nonzero;clip-rule:nonzero;stroke:#000;stroke-miterlimit:4"
     id="g1"><path
       d="M166.837 235.548c0 3.777-3.087 6.869-6.871 6.869H7.11c-3.775 0-6.861-3.092-6.861-6.87V7.12C.25 3.343 3.336.25 7.11.25h152.856c3.784 0 6.87 3.093 6.87 6.87z"
       style="fill:#fff;stroke-width:.5"
       id="path1" /></g><path
     d="M3.676-9C.433-9 0-5.523 0-5.523S-.433-9-3.676-9C-5.946-9-8-7.441-8-4.5-8-.614-1.42 3.294 0 9 1.352 3.299 8-.614 8-4.5 8-7.441 5.946-9 3.676-9"
     style="fill:#df0000;fill-opacity:1"
     transform="matrix(1.6743 0 0 1.567 17.178 46.385)"
     id="path2" /><path
     d="M3.676-9C.433-9 0-5.523 0-5.523S-.433-9-3.676-9C-5.946-9-8-7.441-8-4.5-8-.614-1.42 3.294 0 9 1.352 3.299 8-.614 8-4.5 8-7.441 5.946-9 3.676-9"
     style="fill:#df0000;fill-opacity:1"
     transform="matrix(-1.6743 0 0 -1.567 150.156 195.143)"
     id="path3" /><path
     d="M3.676-9C.433-9 0-5.523 0-5.523S-.433-9-3.676-9C-5.946-9-8-7.441-8-4.5-8-.614-1.42 3.294 0 9 1.352 3.299 8-.614 8-4.5 8-7.441 5.946-9 3.676-9"
     style="fill:#df0000;fill-opacity:1"
     transform="matrix(2.779 0 0 2.60089 54.512 30.004)"
     id="path4" /><path
     d="M3.676-9C.433-9 0-5.523 0-5.523S-.433-9-3.676-9C-5.946-9-8-7.441-8-4.5-8-.614-1.42 3.294 0 9 1.352 3.299 8-.614 8-4.5 8-7.441 5.946-9 3.676-9"
     style="fill:#df0000;fill-opacity:1"
     transform="matrix(-2.779 0 0 -2.60089 54.512 212.806)"
     id="path5" /><path
     d="M3.676-9C.433-9 0-5.523 0-5.523S-.433-9-3.676-9C-5.946-9-8-7.441-8-4.5-8-.614-1.42 3.294 0 9 1.352 3.299 8-.614 8-4.5 8-7.441 5.946-9 3.676-9"
     style="fill:#df0000;fill-opacity:1"
     transform="matrix(2.779 0 0 2.60089 54.512 95.239)"
     id="path6" /><path
     d="M3.676-9C.433-9 0-5.523 0-5.523S-.433-9-3.676-9C-5.946-9-8-7.441-8-4.5-8-.614-1.42 3.294 0 9 1.352 3.299 8-.614 8-4.5 8-7.441 5.946-9 3.676-9"
     style="fill:#df0000;fill-opacity:1"
     transform="matrix(-2.779 0 0 -2.60089 54.512 145.356)"
     id="path7" /><path
     d="M3.676-9C.433-9 0-5.523 0-5.523S-.433-9-3.676-9C-5.946-9-8-7.441-8-4.5-8-.614-1.42 3.294 0 9 1.352 3.299 8-.614 8-4.5 8-7.441 5.946-9 3.676-9"
     style="fill:#df0000;fill-opacity:1"
     transform="matrix(2.779 0 0 2.60089 111.99 30.603)"
     id="path8" /><path
     d="M3.676-9C.433-9 0-5.523 0-5.523S-.433-9-3.676-9C-5.946-9-8-7.441-8-4.5-8-.614-1.42 3.294 0 9 1.352 3.299 8-.614 8-4.5 8-7.441 5.946-9 3.676-9"
     style="fill:#df0000;fill-opacity:1"
     transform="matrix(-2.779 0 0 -2.60089 111.99 213.405)"
     id="path9" /><path
     d="M3.676-9C.433-9 0-5.523 0-5.523S-.433-9-3.676-9C-5.946-9-8-7.441-8-4.5-8-.614-1.42 3.294 0 9 1.352 3.299 8-.614 8-4.5 8-7.441 5.946-9 3.676-9"
     style="fill:#df0000;fill-opacity:1"
     transform="matrix(2.779 0 0 2.60089 111.99 95.837)"
     id="path10" /><path
     d="M3.676-9C.433-9 0-5.523 0-5.523S-.433-9-3.676-9C-5.946-9-8-7.441-8-4.5-8-.614-1.42 3.294 0 9 1.352 3.299 8-.614 8-4.5 8-7.441 5.946-9 3.676-9"
     style="fill:#df0000;fill-opacity:1"
     transform="matrix(-2.779 0 0 -2.60089 111.99 145.955)"
     id="path11" /><path
     d="M3.676-9C.433-9 0-5.523 0-5.523S-.433-9-3.676-9C-5.946-9-8-7.441-8-4.5-8-.614-1.42 3.294 0 9 1.352 3.299 8-.614 8-4.5 8-7.441 5.946-9 3.676-9"
     style="fill:#df0000;fill-opacity:1"
     transform="matrix(2.779 0 0 2.60089 83.213 62.705)"
     id="path12" /><path
     style="font-size:32px;line-height:125%;font-family:Arial;-inkscape-font-specification:Arial;letter-spacing:0;word-spacing:0;fill:#df0000"
     d="m 25.02525,16.559875 q 0,5.671875 -2.078125,8.71875 -2.0625,3.046875 -5.890625,3.046875 -2.578125,0 -4.140625,-1.078125 -1.546875,-1.09375 -2.21875,-3.515625 l 2.6875,-0.421875 q 0.84375,2.75 3.71875,2.75 2.421875,0 3.75,-2.25 1.328125,-2.25 1.390625,-6.421875 -0.625,1.40625 -2.140625,2.265625 -1.515625,0.84375 -3.328125,0.84375 -2.96875,0 -4.75,-2.03125 Q 10.244,16.434875 10.244,13.0755 q 0,-3.4531245 1.9375,-5.4218745 1.9375,-1.984375 5.390625,-1.984375 3.671875,0 5.5625,2.71875 1.890625,2.7187495 1.890625,8.1718745 z m -3.0625,-2.71875 q 0,-2.65625 -1.21875,-4.2656245 -1.21875,-1.625 -3.265625,-1.625 -2.03125,0 -3.203125,1.390625 -1.171875,1.3749995 -1.171875,3.7343745 0,2.40625 1.171875,3.8125 1.171875,1.390625 3.171875,1.390625 1.21875,0 2.265625,-0.546875 1.046875,-0.5625 1.640625,-1.578125 0.609375,-1.015625 0.609375,-2.3125 z"
     id="text12"
     aria-label="9" /><path
     style="font-size:32px;line-height:125%;font-family:Arial;-inkscape-font-specification:Arial;letter-spacing:0;word-spacing:0;fill:#df0000"
     d="m -142.53674,-224.96812 q 0,5.67187 -2.07813,8.71875 -2.0625,3.04687 -5.89062,3.04687 -2.57813,0 -4.14063,-1.07812 -1.54687,-1.09375 -2.21875,-3.51563 l 2.6875,-0.42187 q 0.84375,2.75 3.71875,2.75 2.42188,0 3.75,-2.25 1.32813,-2.25 1.39063,-6.42188 -0.625,1.40625 -2.14063,2.26563 -1.51562,0.84375 -3.32812,0.84375 -2.96875,0 -4.75,-2.03125 -1.78125,-2.03125 -1.78125,-5.39063 0,-3.45312 1.9375,-5.42187 1.9375,-1.98438 5.39062,-1.98438 3.67188,0 5.5625,2.71875 1.89063,2.71875 1.89063,8.17188 z m -3.0625,-2.71875 q 0,-2.65625 -1.21875,-4.26563 -1.21875,-1.625 -3.26563,-1.625 -2.03125,0 -3.20312,1.39063 -1.17188,1.375 -1.17188,3.73437 0,2.40625 1.17188,3.8125 1.17187,1.39063 3.17187,1.39063 1.21875,0 2.26563,-0.54688 1.04687,-0.5625 1.64062,-1.57812 0.60938,-1.01563 0.60938,-2.3125 z"
     id="text13"
     transform="scale(-1)"
     aria-label="9" /><path
     fill="none"
     stroke="#fff"
     stroke-linecap="round"
     stroke-linejoin="round"
     stroke-width="18"
     d="m53.54 121.33 20 20 40-50"
     id="path13" /><path
     fill="none"
     stroke="#0a0"
     stroke-linecap="round"
     stroke-linejoin="round"
     stroke-width="12"
     d="m53.54 121.33 20 20 40-50"
     id="path14" /><path
     fill="none"
     stroke="#0a0"
     stroke-width="5"
     d="M0 0h167.087v242.667H0z"
     id="path15" /></svg>
