<?xml version="1.0" encoding="UTF-8" standalone="no"?>
<svg
   xml:space="preserve"
   width="222.783"
   height="323.556"
   viewBox="0 0 167.087 242.667"
   version="1.1"
   id="svg12"
   xmlns="http://www.w3.org/2000/svg"
   xmlns:svg="http://www.w3.org/2000/svg"><defs
     id="defs12" /><g
     style="fill-rule:nonzero;clip-rule:nonzero;stroke:#000;stroke-miterlimit:4"
     id="g1"><path
       d="M166.837 235.548c0 3.777-3.087 6.869-6.871 6.869H7.11c-3.775 0-6.861-3.092-6.861-6.87V7.12C.25 3.343 3.336.25 7.11.25h152.856c3.784 0 6.87 3.093 6.87 6.87z"
       style="fill:#fff;stroke-width:.5"
       id="path1" /></g><path
     style="font-size:32px;line-height:125%;font-family:Arial;-inkscape-font-specification:Arial;letter-spacing:0;word-spacing:0"
     d="m 24.82825,16.559875 q 0,5.671875 -2.078125,8.71875 -2.0625,3.046875 -5.890625,3.046875 -2.578125,0 -4.140625,-1.078125 -1.546875,-1.09375 -2.21875,-3.515625 l 2.6875,-0.421875 q 0.84375,2.75 3.71875,2.75 2.421875,0 3.75,-2.25 1.328125,-2.25 1.390625,-6.421875 -0.625,1.40625 -2.140625,2.265625 -1.515625,0.84375 -3.328125,0.84375 -2.96875,0 -4.75,-2.03125 Q 10.047,16.434875 10.047,13.0755 q 0,-3.4531245 1.9375,-5.4218745 1.9375,-1.984375 5.390625,-1.984375 3.671875,0 5.5625,2.71875 1.890625,2.7187495 1.890625,8.1718745 z m -3.0625,-2.71875 q 0,-2.65625 -1.21875,-4.2656245 -1.21875,-1.625 -3.265625,-1.625 -2.03125,0 -3.203125,1.390625 -1.171875,1.3749995 -1.171875,3.7343745 0,2.40625 1.171875,3.8125 1.171875,1.390625 3.171875,1.390625 1.21875,0 2.265625,-0.546875 1.046875,-0.5625 1.640625,-1.578125 0.609375,-1.015625 0.609375,-2.3125 z"
     id="text1"
     aria-label="9" /><path
     d="M7.989 3.103C7.747-.954.242-8.59 0-10.5-.242-8.591-7.747-.955-7.989 3.103c-.169 2.868 1.695 4.057 3.39 4.057 1.835-.022 3.35-2.8 3.873-3.341.242.716-1.603 6.682-2.179 6.682h5.811c-.576 0-2.421-5.966-2.179-6.682.457.496 1.797 3.258 3.874 3.341 1.694-.001 3.557-1.189 3.388-4.057"
     style="fill:#000"
     transform="matrix(1.5086 0 0 1.37933 16.929 45.066)"
     id="path2" /><path
     d="M7.989 3.103C7.747-.954.242-8.59 0-10.5-.242-8.591-7.747-.955-7.989 3.103c-.169 2.868 1.695 4.057 3.39 4.057 1.835-.022 3.35-2.8 3.873-3.341.242.716-1.603 6.682-2.179 6.682h5.811c-.576 0-2.421-5.966-2.179-6.682.457.496 1.797 3.258 3.874 3.341 1.694-.001 3.557-1.189 3.388-4.057"
     style="fill:#000"
     transform="matrix(2.64868 0 0 2.42172 53.01 31.766)"
     id="path3" /><path
     style="font-size:32px;line-height:125%;font-family:Arial;-inkscape-font-specification:Arial;letter-spacing:0;word-spacing:0"
     d="m -142.69675,-226.57712 q 0,5.67188 -2.07812,8.71875 -2.0625,3.04688 -5.89063,3.04688 -2.57812,0 -4.14062,-1.07813 -1.54688,-1.09375 -2.21875,-3.51562 l 2.6875,-0.42188 q 0.84375,2.75 3.71875,2.75 2.42187,0 3.75,-2.25 1.32812,-2.25 1.39062,-6.42187 -0.625,1.40625 -2.14062,2.26562 -1.51563,0.84375 -3.32813,0.84375 -2.96875,0 -4.75,-2.03125 -1.78125,-2.03125 -1.78125,-5.39062 0,-3.45313 1.9375,-5.42188 1.9375,-1.98437 5.39063,-1.98437 3.67187,0 5.5625,2.71875 1.89062,2.71875 1.89062,8.17187 z m -3.0625,-2.71875 q 0,-2.65625 -1.21875,-4.26562 -1.21875,-1.625 -3.26562,-1.625 -2.03125,0 -3.20313,1.39062 -1.17187,1.375 -1.17187,3.73438 0,2.40625 1.17187,3.8125 1.17188,1.39062 3.17188,1.39062 1.21875,0 2.26562,-0.54687 1.04688,-0.5625 1.64063,-1.57813 0.60937,-1.01562 0.60937,-2.3125 z"
     id="text3"
     transform="scale(-1)"
     aria-label="9" /><path
     d="M7.989 3.103C7.747-.954.242-8.59 0-10.5-.242-8.591-7.747-.955-7.989 3.103c-.169 2.868 1.695 4.057 3.39 4.057 1.835-.022 3.35-2.8 3.873-3.341.242.716-1.603 6.682-2.179 6.682h5.811c-.576 0-2.421-5.966-2.179-6.682.457.496 1.797 3.258 3.874 3.341 1.694-.001 3.557-1.189 3.388-4.057"
     style="fill:#000"
     transform="matrix(-1.5086 0 0 -1.37933 150.225 198.044)"
     id="path4" /><path
     d="M7.989 3.103C7.747-.954.242-8.59 0-10.5-.242-8.591-7.747-.955-7.989 3.103c-.169 2.868 1.695 4.057 3.39 4.057 1.835-.022 3.35-2.8 3.873-3.341.242.716-1.603 6.682-2.179 6.682h5.811c-.576 0-2.421-5.966-2.179-6.682.457.496 1.797 3.258 3.874 3.341 1.694-.001 3.557-1.189 3.388-4.057"
     style="fill:#000"
     transform="matrix(2.64868 0 0 2.42172 53.34 94.698)"
     id="path5" /><path
     d="M7.989 3.103C7.747-.954.242-8.59 0-10.5-.242-8.591-7.747-.955-7.989 3.103c-.169 2.868 1.695 4.057 3.39 4.057 1.835-.022 3.35-2.8 3.873-3.341.242.716-1.603 6.682-2.179 6.682h5.811c-.576 0-2.421-5.966-2.179-6.682.457.496 1.797 3.258 3.874 3.341 1.694-.001 3.557-1.189 3.388-4.057"
     style="fill:#000"
     transform="matrix(-2.64868 0 0 -2.42172 53.79 212.664)"
     id="path6" /><path
     d="M7.989 3.103C7.747-.954.242-8.59 0-10.5-.242-8.591-7.747-.955-7.989 3.103c-.169 2.868 1.695 4.057 3.39 4.057 1.835-.022 3.35-2.8 3.873-3.341.242.716-1.603 6.682-2.179 6.682h5.811c-.576 0-2.421-5.966-2.179-6.682.457.496 1.797 3.258 3.874 3.341 1.694-.001 3.557-1.189 3.388-4.057"
     style="fill:#000"
     transform="matrix(-2.64868 0 0 -2.42172 53.46 151.331)"
     id="path7" /><path
     d="M7.989 3.103C7.747-.954.242-8.59 0-10.5-.242-8.591-7.747-.955-7.989 3.103c-.169 2.868 1.695 4.057 3.39 4.057 1.835-.022 3.35-2.8 3.873-3.341.242.716-1.603 6.682-2.179 6.682h5.811c-.576 0-2.421-5.966-2.179-6.682.457.496 1.797 3.258 3.874 3.341 1.694-.001 3.557-1.189 3.388-4.057"
     style="fill:#000"
     transform="matrix(2.64868 0 0 2.42172 114.978 31.578)"
     id="path8" /><path
     d="M7.989 3.103C7.747-.954.242-8.59 0-10.5-.242-8.591-7.747-.955-7.989 3.103c-.169 2.868 1.695 4.057 3.39 4.057 1.835-.022 3.35-2.8 3.873-3.341.242.716-1.603 6.682-2.179 6.682h5.811c-.576 0-2.421-5.966-2.179-6.682.457.496 1.797 3.258 3.874 3.341 1.694-.001 3.557-1.189 3.388-4.057"
     style="fill:#000"
     transform="matrix(2.64868 0 0 2.42172 115.307 94.51)"
     id="path9" /><path
     d="M7.989 3.103C7.747-.954.242-8.59 0-10.5-.242-8.591-7.747-.955-7.989 3.103c-.169 2.868 1.695 4.057 3.39 4.057 1.835-.022 3.35-2.8 3.873-3.341.242.716-1.603 6.682-2.179 6.682h5.811c-.576 0-2.421-5.966-2.179-6.682.457.496 1.797 3.258 3.874 3.341 1.694-.001 3.557-1.189 3.388-4.057"
     style="fill:#000"
     transform="matrix(-2.64868 0 0 -2.42172 115.757 212.476)"
     id="path10" /><path
     d="M7.989 3.103C7.747-.954.242-8.59 0-10.5-.242-8.591-7.747-.955-7.989 3.103c-.169 2.868 1.695 4.057 3.39 4.057 1.835-.022 3.35-2.8 3.873-3.341.242.716-1.603 6.682-2.179 6.682h5.811c-.576 0-2.421-5.966-2.179-6.682.457.496 1.797 3.258 3.874 3.341 1.694-.001 3.557-1.189 3.388-4.057"
     style="fill:#000"
     transform="matrix(-2.64868 0 0 -2.42172 115.428 151.143)"
     id="path11" /><path
     d="M7.989 3.103C7.747-.954.242-8.59 0-10.5-.242-8.591-7.747-.955-7.989 3.103c-.169 2.868 1.695 4.057 3.39 4.057 1.835-.022 3.35-2.8 3.873-3.341.242.716-1.603 6.682-2.179 6.682h5.811c-.576 0-2.421-5.966-2.179-6.682.457.496 1.797 3.258 3.874 3.341 1.694-.001 3.557-1.189 3.388-4.057"
     style="fill:#000"
     transform="matrix(2.64868 0 0 2.42172 84.152 64.171)"
     id="path12" /></svg>
