<?xml version="1.0" encoding="UTF-8" standalone="no"?>
<svg
   xml:space="preserve"
   width="222.783"
   height="323.556"
   viewBox="0 0 167.087 242.667"
   version="1.1"
   id="svg33"
   xmlns="http://www.w3.org/2000/svg"
   xmlns:svg="http://www.w3.org/2000/svg"><defs
     id="defs33" /><g
     style="fill-rule:nonzero;clip-rule:nonzero;stroke:#000;stroke-miterlimit:4"
     id="g1"><path
       d="M166.837 235.548c0 3.777-3.087 6.869-6.871 6.869H7.11c-3.775 0-6.861-3.092-6.861-6.87V7.12C.25 3.343 3.336.25 7.11.25h152.856c3.784 0 6.87 3.093 6.87 6.87z"
       style="fill:#fff;stroke-width:.5"
       id="path1" /></g><path
     style="font-size:32px;line-height:125%;font-family:Arial;-inkscape-font-specification:Arial;letter-spacing:0;word-spacing:0"
     d="m 24.59225,16.094875 q 0,5.671875 -2.078125,8.71875 -2.0625,3.046875 -5.890625,3.046875 -2.578125,0 -4.140625,-1.078125 -1.546875,-1.09375 -2.21875,-3.515625 l 2.6875,-0.421875 q 0.84375,2.75 3.71875,2.75 2.421875,0 3.75,-2.25 1.328125,-2.25 1.390625,-6.421875 -0.625,1.40625 -2.140625,2.265625 -1.515625,0.84375 -3.328125,0.84375 -2.96875,0 -4.75,-2.03125 -1.7812501,-2.03125 -1.7812501,-5.390625 0,-3.4531247 1.9375001,-5.4218747 1.9375,-1.984375 5.390625,-1.984375 3.671875,0 5.5625,2.71875 1.890625,2.7187497 1.890625,8.1718747 z m -3.0625,-2.71875 q 0,-2.65625 -1.21875,-4.2656247 -1.21875,-1.625 -3.265625,-1.625 -2.03125,0 -3.203125,1.390625 -1.171875,1.3749997 -1.171875,3.7343747 0,2.40625 1.171875,3.8125 1.171875,1.390625 3.171875,1.390625 1.21875,0 2.265625,-0.546875 1.046875,-0.5625 1.640625,-1.578125 0.609375,-1.015625 0.609375,-2.3125 z"
     id="text1"
     aria-label="9" /><path
     d="M50.291 22.698s2.375-1.9 2.375-4.534c0-1.542-1.369-4.102-4.534-4.102s-4.534 2.561-4.534 4.102c0 2.634 2.375 4.534 2.375 4.534-2.638-2.055-7.34-.652-7.34 3.455 0 2.056 1.68 4.318 4.317 4.318 3.165 0 4.534-3.455 4.534-3.455s.402 3.938-1.943 6.046h5.182c-2.345-2.107-1.943-6.046-1.943-6.046s1.37 3.455 4.534 3.455c2.64 0 4.318-2.263 4.318-4.318 0-4.107-4.703-5.51-7.34-3.455"
     style="fill:#000"
     transform="translate(-54.025 10.018)scale(1.48565)"
     id="path2" /><path
     style="font-size:32px;line-height:125%;font-family:Arial;-inkscape-font-specification:Arial;letter-spacing:0;word-spacing:0"
     d="m -142.58275,-225.92012 q 0,5.67187 -2.07812,8.71875 -2.0625,3.04687 -5.89063,3.04687 -2.57812,0 -4.14062,-1.07812 -1.54688,-1.09375 -2.21875,-3.51563 l 2.6875,-0.42187 q 0.84375,2.75 3.71875,2.75 2.42187,0 3.75,-2.25 1.32812,-2.25 1.39062,-6.42188 -0.625,1.40625 -2.14062,2.26563 -1.51563,0.84375 -3.32813,0.84375 -2.96875,0 -4.75,-2.03125 -1.78125,-2.03125 -1.78125,-5.39063 0,-3.45312 1.9375,-5.42187 1.9375,-1.98438 5.39063,-1.98438 3.67187,0 5.5625,2.71875 1.89062,2.71875 1.89062,8.17188 z m -3.0625,-2.71875 q 0,-2.65625 -1.21875,-4.26563 -1.21875,-1.625 -3.26562,-1.625 -2.03125,0 -3.20313,1.39063 -1.17187,1.375 -1.17187,3.73437 0,2.40625 1.17187,3.8125 1.17188,1.39063 3.17188,1.39063 1.21875,0 2.26562,-0.54688 1.04688,-0.5625 1.64063,-1.57812 0.60937,-1.01563 0.60937,-2.3125 z"
     id="text2"
     transform="scale(-1)"
     aria-label="9" /><path
     d="M50.291 22.698s2.375-1.9 2.375-4.534c0-1.542-1.369-4.102-4.534-4.102s-4.534 2.561-4.534 4.102c0 2.634 2.375 4.534 2.375 4.534-2.638-2.055-7.34-.652-7.34 3.455 0 2.056 1.68 4.318 4.317 4.318 3.165 0 4.534-3.455 4.534-3.455s.402 3.938-1.943 6.046h5.182c-2.345-2.107-1.943-6.046-1.943-6.046s1.37 3.455 4.534 3.455c2.64 0 4.318-2.263 4.318-4.318 0-4.107-4.703-5.51-7.34-3.455"
     style="fill:#000"
     transform="translate(221.2 232.462)scale(-1.48565)"
     id="path3" /><path
     d="M57.573 25.1s5.967-4.774 5.967-11.392C63.54 9.834 60.1 3.4 52.148 3.4S40.756 9.836 40.756 13.708c0 6.618 5.968 11.392 5.968 11.392-6.629-5.163-18.445-1.638-18.445 8.68 0 5.167 4.22 10.85 10.849 10.85 7.952 0 11.392-8.68 11.392-8.68s1.01 9.894-4.882 15.19h13.02c-5.892-5.294-4.882-15.19-4.882-15.19s3.44 8.68 11.392 8.68c6.631 0 10.85-5.686 10.85-10.85 0-10.318-11.817-13.843-18.445-8.68m-.463 68.1s5.968-4.773 5.968-11.391c0-3.875-3.44-10.307-11.392-10.307-7.953 0-11.392 6.435-11.392 10.307 0 6.618 5.967 11.392 5.967 11.392-6.628-5.164-18.445-1.638-18.445 8.68 0 5.167 4.221 10.85 10.85 10.85 7.952 0 11.392-8.68 11.392-8.68s1.01 9.894-4.882 15.19h13.02c-5.892-5.294-4.882-15.19-4.882-15.19s3.44 8.68 11.392 8.68c6.63 0 10.85-5.686 10.85-10.85 0-10.318-11.817-13.844-18.446-8.68m64.448-68.275s5.967-4.774 5.967-11.392c0-3.874-3.44-10.306-11.392-10.306s-11.392 6.434-11.392 10.306c0 6.618 5.968 11.392 5.968 11.392-6.629-5.163-18.445-1.638-18.445 8.681 0 5.166 4.22 10.85 10.85 10.85 7.951 0 11.391-8.681 11.391-8.681s1.01 9.894-4.882 15.19h13.02c-5.892-5.293-4.882-15.19-4.882-15.19s3.44 8.68 11.392 8.68c6.631 0 10.85-5.685 10.85-10.849 0-10.319-11.817-13.844-18.445-8.68m0 68.1s5.967-4.774 5.967-11.392c0-3.874-3.44-10.307-11.392-10.307s-11.392 6.435-11.392 10.307c0 6.618 5.968 11.392 5.968 11.392-6.629-5.163-18.445-1.638-18.445 8.681 0 5.166 4.22 10.85 10.85 10.85 7.951 0 11.391-8.682 11.391-8.682s1.01 9.895-4.882 15.191h13.02c-5.892-5.294-4.882-15.19-4.882-15.19s3.44 8.68 11.392 8.68c6.631 0 10.85-5.686 10.85-10.849 0-10.32-11.817-13.844-18.445-8.681"
     style="fill:#000"
     id="path4" /><path
     d="M89.577 59.281s5.967-4.774 5.967-11.392c0-3.874-3.44-10.307-11.392-10.307S72.76 44.017 72.76 47.89c0 6.618 5.967 11.392 5.967 11.392-6.628-5.163-18.445-1.638-18.445 8.681 0 5.166 4.222 10.85 10.85 10.85 7.952 0 11.392-8.682 11.392-8.682s1.01 9.895-4.882 15.191h13.02c-5.892-5.294-4.882-15.19-4.882-15.19s3.44 8.68 11.392 8.68c6.63 0 10.85-5.686 10.85-10.849 0-10.32-11.817-13.844-18.445-8.68m20.486 158.519s-5.968 4.774-5.968 11.392c0 3.875 3.44 10.307 11.392 10.307 7.953 0 11.392-6.435 11.392-10.307 0-6.618-5.967-11.392-5.967-11.392 6.628 5.164 18.445 1.638 18.445-8.68 0-5.167-4.221-10.85-10.85-10.85-7.952 0-11.392 8.68-11.392 8.68s-1.01-9.894 4.882-15.19h-13.02c5.892 5.294 4.882 15.19 4.882 15.19s-3.44-8.68-11.392-8.68c-6.63 0-10.85 5.686-10.85 10.85 0 10.318 11.817 13.844 18.446 8.68m.645-68.101s-5.967 4.774-5.967 11.392c0 3.875 3.44 10.307 11.392 10.307s11.392-6.435 11.392-10.307c0-6.618-5.967-11.392-5.967-11.392 6.628 5.164 18.444 1.639 18.444-8.68 0-5.166-4.22-10.85-10.849-10.85-7.952 0-11.392 8.681-11.392 8.681s-1.01-9.894 4.882-15.191h-13.02c5.892 5.294 4.882 15.191 4.882 15.191s-3.44-8.68-11.392-8.68c-6.63 0-10.85 5.685-10.85 10.848 0 10.32 11.817 13.845 18.445 8.681m-64.63 68.275s-5.968 4.774-5.968 11.392c0 3.874 3.44 10.307 11.392 10.307s11.392-6.435 11.392-10.307c0-6.618-5.967-11.392-5.967-11.392 6.628 5.163 18.445 1.638 18.445-8.681 0-5.166-4.221-10.85-10.85-10.85-7.952 0-11.392 8.682-11.392 8.682s-1.01-9.895 4.882-15.191h-13.02c5.892 5.294 4.882 15.19 4.882 15.19s-3.44-8.68-11.392-8.68c-6.63 0-10.85 5.686-10.85 10.849 0 10.32 11.817 13.844 18.446 8.68m.183-68.1s-5.967 4.774-5.967 11.392c0 3.875 3.44 10.307 11.392 10.307s11.392-6.435 11.392-10.307c0-6.618-5.968-11.392-5.968-11.392 6.629 5.163 18.445 1.638 18.445-8.68 0-5.167-4.22-10.85-10.849-10.85-7.952 0-11.392 8.68-11.392 8.68s-1.01-9.894 4.882-15.19h-13.02c5.892 5.294 4.882 15.19 4.882 15.19s-3.44-8.68-11.392-8.68c-6.631 0-10.85 5.686-10.85 10.85 0 10.318 11.817 13.843 18.445 8.68"
     style="fill:#000"
     id="path5" /><g
     id="stripes">
  <line
   x1="0.00"
   y1="238.00"
   x2="4.67"
   y2="242.67"
   stroke="#f80"
   stroke-width="5"
   opacity="0.5"
   id="line5" />
  <line
   x1="0.00"
   y1="224.00"
   x2="18.67"
   y2="242.67"
   stroke="#f80"
   stroke-width="5"
   opacity="0.5"
   id="line6" />
  <line
   x1="0.00"
   y1="210.00"
   x2="32.67"
   y2="242.67"
   stroke="#f80"
   stroke-width="5"
   opacity="0.5"
   id="line7" />
  <line
   x1="0.00"
   y1="196.00"
   x2="46.67"
   y2="242.67"
   stroke="#f80"
   stroke-width="5"
   opacity="0.5"
   id="line8" />
  <line
   x1="0.00"
   y1="182.00"
   x2="60.67"
   y2="242.67"
   stroke="#f80"
   stroke-width="5"
   opacity="0.5"
   id="line9" />
  <line
   x1="0.00"
   y1="168.00"
   x2="74.67"
   y2="242.67"
   stroke="#f80"
   stroke-width="5"
   opacity="0.5"
   id="line10" />
  <line
   x1="0.00"
   y1="154.00"
   x2="88.67"
   y2="242.67"
   stroke="#f80"
   stroke-width="5"
   opacity="0.5"
   id="line11" />
  <line
   x1="0.00"
   y1="140.00"
   x2="102.67"
   y2="242.67"
   stroke="#f80"
   stroke-width="5"
   opacity="0.5"
   id="line12" />
  <line
   x1="0.00"
   y1="126.00"
   x2="116.67"
   y2="242.67"
   stroke="#f80"
   stroke-width="5"
   opacity="0.5"
   id="line13" />
  <line
   x1="0.00"
   y1="112.00"
   x2="130.67"
   y2="242.67"
   stroke="#f80"
   stroke-width="5"
   opacity="0.5"
   id="line14" />
  <line
   x1="0.00"
   y1="98.00"
   x2="144.67"
   y2="242.67"
   stroke="#f80"
   stroke-width="5"
   opacity="0.5"
   id="line15" />
  <line
   x1="0.00"
   y1="84.00"
   x2="158.67"
   y2="242.67"
   stroke="#f80"
   stroke-width="5"
   opacity="0.5"
   id="line16" />
  <line
   x1="0.00"
   y1="70.00"
   x2="167.09"
   y2="237.09"
   stroke="#f80"
   stroke-width="5"
   opacity="0.5"
   id="line17" />
  <line
   x1="0.00"
   y1="56.00"
   x2="167.09"
   y2="223.09"
   stroke="#f80"
   stroke-width="5"
   opacity="0.5"
   id="line18" />
  <line
   x1="0.00"
   y1="42.00"
   x2="167.09"
   y2="209.09"
   stroke="#f80"
   stroke-width="5"
   opacity="0.5"
   id="line19" />
  <line
   x1="0.00"
   y1="28.00"
   x2="167.09"
   y2="195.09"
   stroke="#f80"
   stroke-width="5"
   opacity="0.5"
   id="line20" />
  <line
   x1="0.00"
   y1="14.00"
   x2="167.09"
   y2="181.09"
   stroke="#f80"
   stroke-width="5"
   opacity="0.5"
   id="line21" />
  <line
   x1="0.00"
   y1="0.00"
   x2="167.09"
   y2="167.09"
   stroke="#f80"
   stroke-width="5"
   opacity="0.5"
   id="line22" />
  <line
   x1="14.00"
   y1="0.00"
   x2="167.09"
   y2="153.09"
   stroke="#f80"
   stroke-width="5"
   opacity="0.5"
   id="line23" />
  <line
   x1="28.00"
   y1="0.00"
   x2="167.09"
   y2="139.09"
   stroke="#f80"
   stroke-width="5"
   opacity="0.5"
   id="line24" />
  <line
   x1="42.00"
   y1="0.00"
   x2="167.09"
   y2="125.09"
   stroke="#f80"
   stroke-width="5"
   opacity="0.5"
   id="line25" />
  <line
   x1="56.00"
   y1="0.00"
   x2="167.09"
   y2="111.09"
   stroke="#f80"
   stroke-width="5"
   opacity="0.5"
   id="line26" />
  <line
   x1="70.00"
   y1="0.00"
   x2="167.09"
   y2="97.09"
   stroke="#f80"
   stroke-width="5"
   opacity="0.5"
   id="line27" />
  <line
   x1="84.00"
   y1="0.00"
   x2="167.09"
   y2="83.09"
   stroke="#f80"
   stroke-width="5"
   opacity="0.5"
   id="line28" />
  <line
   x1="98.00"
   y1="0.00"
   x2="167.09"
   y2="69.09"
   stroke="#f80"
   stroke-width="5"
   opacity="0.5"
   id="line29" />
  <line
   x1="112.00"
   y1="0.00"
   x2="167.09"
   y2="55.09"
   stroke="#f80"
   stroke-width="5"
   opacity="0.5"
   id="line30" />
  <line
   x1="126.00"
   y1="0.00"
   x2="167.09"
   y2="41.09"
   stroke="#f80"
   stroke-width="5"
   opacity="0.5"
   id="line31" />
  <line
   x1="140.00"
   y1="0.00"
   x2="167.09"
   y2="27.09"
   stroke="#f80"
   stroke-width="5"
   opacity="0.5"
   id="line32" />
  <line
   x1="154.00"
   y1="0.00"
   x2="167.09"
   y2="13.09"
   stroke="#f80"
   stroke-width="5"
   opacity="0.5"
   id="line33" />
</g><path
     fill="none"
     stroke="#f80"
     stroke-width="5"
     d="M0 0h167.087v242.667H0z"
     id="path33" /></svg>
