<svg xmlns="http://www.w3.org/2000/svg" width="233" height="167" data-diagram-type="CLASS" preserveAspectRatio="none" style="width:233px;height:167px;background:#fff" viewBox="0 0 233 167"><g class="entity" data-entity="Card" data-source-line="6" data-uid="ent0002"><rect width="207.829" height="141.781" x="12" y="12" fill="#fff" rx="2.5" ry="2.5" style="stroke:#000;stroke-width:1"/><circle cx="93.841" cy="26" r="9" fill="#fff" style="stroke:#000;stroke-width:1"/><path d="M96.81 31.64q-.579.297-1.22.438-.64.156-1.343.156-2.5 0-3.828-1.64-1.313-1.657-1.313-4.782t1.313-4.78q1.328-1.657 3.828-1.657.703 0 1.344.156.656.157 1.219.453v2.72q-.625-.579-1.22-.845-.593-.28-1.218-.28-1.344 0-2.031 1.077-.688 1.063-.688 3.157 0 2.093.688 3.171.687 1.063 2.031 1.063.625 0 1.219-.266.594-.281 1.219-.86z"/><text x="111.341" y="30.847" font-family="Verdana" font-size="14" font-weight="bold" textLength="36.648">Card</text><path d="M13 40h205.829" style="stroke:#000;stroke-width:1"/><text x="18" y="56.995" font-family="Verdana" font-size="14" textLength="70.711">-value: int</text><text x="18" y="73.292" font-family="Verdana" font-size="14" textLength="70.67">-suit: char</text><path d="M13 80.594h205.829" style="stroke:#000;stroke-width:1"/><text x="18" y="97.589" font-family="Verdana" font-size="14" textLength="195.829">+Card(value: int, suit: char)</text><text x="18" y="113.886" font-family="Verdana" font-size="14" textLength="112.595">+getValue(): int</text><text x="18" y="130.183" font-family="Verdana" font-size="14" textLength="112.855">+getSuit(): char</text><text x="18" y="146.48" font-family="Verdana" font-size="14" textLength="129.439">+toString(): String</text></g></svg>