<svg xmlns="http://www.w3.org/2000/svg" xmlns:xlink="http://www.w3.org/1999/xlink" contentStyleType="text/css" data-diagram-type="CLASS" height="264px" preserveAspectRatio="none" style="width:366px;height:264px;background:#FFFFFF;" version="1.1" viewBox="0 0 366 264" width="366px" zoomAndPan="magnify"><defs/><g><!--class Animal--><g class="entity" data-entity="Animal" data-source-line="6" data-uid="ent0002" id="entity_Animal"><rect fill="#FFFFFF" height="125.4844" rx="2.5" ry="2.5" style="stroke:#000000;stroke-width:1;" width="156.4707" x="107" y="12"/><ellipse cx="154.2681" cy="26" fill="#FFFFFF" rx="9" ry="9" style="stroke:#000000;stroke-width:1;"/><path d="M154.3774,21.3438 L153.2212,26.4219 L155.5493,26.4219 L154.3774,21.3438 Z M152.8931,19.1094 L155.8774,19.1094 L159.2368,31.5 L156.7837,31.5 L156.0181,28.4375 L152.7368,28.4375 L151.9868,31.5 L149.5493,31.5 L152.8931,19.1094 Z " fill="#000000"/><text fill="#000000" font-family="Verdana" font-size="14" font-style="italic" font-weight="bold" lengthAdjust="spacing" textLength="54.4346" x="171.7681" y="30.8467">Animal</text><line style="stroke:#000000;stroke-width:1;" x1="108" x2="262.4707" y1="40" y2="40"/><text fill="#000000" font-family="Verdana" font-size="14" lengthAdjust="spacing" textLength="102.3818" x="113" y="56.9951">#name: String</text><text fill="#000000" font-family="Verdana" font-size="14" lengthAdjust="spacing" textLength="65.2285" x="113" y="73.292">#age: int</text><line style="stroke:#000000;stroke-width:1;" x1="108" x2="262.4707" y1="80.5938" y2="80.5938"/><text fill="#000000" font-family="Verdana" font-size="14" lengthAdjust="spacing" textLength="84.1299" x="113" y="97.5889">+eat(): void</text><text fill="#000000" font-family="Verdana" font-size="14" lengthAdjust="spacing" textLength="98.7451" x="113" y="113.8857">+sleep(): void</text><text fill="#000000" font-family="Verdana" font-size="14" font-style="italic" lengthAdjust="spacing" textLength="144.4707" x="113" y="130.1826">+makeSound(): void</text></g><!--class Cat--><g class="entity" data-entity="Cat" data-source-line="15" data-uid="ent0003" id="entity_Cat"><rect fill="#FFFFFF" height="60.2969" rx="2.5" ry="2.5" style="stroke:#000000;stroke-width:1;" width="156.4707" x="12" y="197.48"/><ellipse cx="73.2783" cy="211.48" fill="#FFFFFF" rx="9" ry="9" style="stroke:#000000;stroke-width:1;"/><path d="M76.2471,217.1206 Q75.6689,217.4175 75.0283,217.5581 Q74.3877,217.7144 73.6846,217.7144 Q71.1846,217.7144 69.8564,216.0738 Q68.5439,214.4175 68.5439,211.2925 Q68.5439,208.1675 69.8564,206.5113 Q71.1846,204.855 73.6846,204.855 Q74.3877,204.855 75.0283,205.0113 Q75.6846,205.1675 76.2471,205.4644 L76.2471,208.1831 Q75.6221,207.605 75.0283,207.3394 Q74.4346,207.0581 73.8096,207.0581 Q72.4658,207.0581 71.7783,208.1363 Q71.0908,209.1988 71.0908,211.2925 Q71.0908,213.3863 71.7783,214.4644 Q72.4658,215.5269 73.8096,215.5269 Q74.4346,215.5269 75.0283,215.2613 Q75.6221,214.98 76.2471,214.4019 L76.2471,217.1206 Z " fill="#000000"/><text fill="#000000" font-family="Verdana" font-size="14" font-weight="bold" lengthAdjust="spacing" textLength="26.4141" x="90.7783" y="216.3267">Cat</text><line style="stroke:#000000;stroke-width:1;" x1="13" x2="167.4707" y1="225.48" y2="225.48"/><line style="stroke:#000000;stroke-width:1;" x1="13" x2="167.4707" y1="233.48" y2="233.48"/><text fill="#000000" font-family="Verdana" font-size="14" lengthAdjust="spacing" textLength="144.4707" x="18" y="250.4751">+makeSound(): void</text></g><!--class Dog--><g class="entity" data-entity="Dog" data-source-line="19" data-uid="ent0004" id="entity_Dog"><rect fill="#FFFFFF" height="60.2969" rx="2.5" ry="2.5" style="stroke:#000000;stroke-width:1;" width="156.4707" x="203" y="197.48"/><ellipse cx="261.855" cy="211.48" fill="#FFFFFF" rx="9" ry="9" style="stroke:#000000;stroke-width:1;"/><path d="M264.8237,217.1206 Q264.2456,217.4175 263.605,217.5581 Q262.9644,217.7144 262.2612,217.7144 Q259.7612,217.7144 258.4331,216.0738 Q257.1206,214.4175 257.1206,211.2925 Q257.1206,208.1675 258.4331,206.5113 Q259.7612,204.855 262.2612,204.855 Q262.9644,204.855 263.605,205.0113 Q264.2612,205.1675 264.8237,205.4644 L264.8237,208.1831 Q264.1987,207.605 263.605,207.3394 Q263.0112,207.0581 262.3862,207.0581 Q261.0425,207.0581 260.355,208.1363 Q259.6675,209.1988 259.6675,211.2925 Q259.6675,213.3863 260.355,214.4644 Q261.0425,215.5269 262.3862,215.5269 Q263.0112,215.5269 263.605,215.2613 Q264.1987,214.98 264.8237,214.4019 L264.8237,217.1206 Z " fill="#000000"/><text fill="#000000" font-family="Verdana" font-size="14" font-weight="bold" lengthAdjust="spacing" textLength="31.2607" x="279.355" y="216.3267">Dog</text><line style="stroke:#000000;stroke-width:1;" x1="204" x2="358.4707" y1="225.48" y2="225.48"/><line style="stroke:#000000;stroke-width:1;" x1="204" x2="358.4707" y1="233.48" y2="233.48"/><text fill="#000000" font-family="Verdana" font-size="14" lengthAdjust="spacing" textLength="144.4707" x="209" y="250.4751">+makeSound(): void</text></g><!--reverse link Animal to Cat--><g class="link" data-entity-1="Animal" data-entity-2="Cat" data-source-line="23" data-uid="lnk5" id="link_Animal_Cat"><path codeLine="23" d="M136.7317,152.7837 C123.7217,173.4537 119.4,180.31 108.69,197.32" fill="none" id="Animal-backto-Cat" style="stroke:#000000;stroke-width:1;"/><polygon fill="none" points="146.32,137.55,131.6538,149.5876,141.8096,155.9798,146.32,137.55" style="stroke:#000000;stroke-width:1;"/></g><!--reverse link Animal to Dog--><g class="link" data-entity-1="Animal" data-entity-2="Dog" data-source-line="24" data-uid="lnk6" id="link_Animal_Dog"><path codeLine="24" d="M234.2219,152.7371 C247.3719,173.4071 251.76,180.31 262.58,197.32" fill="none" id="Animal-backto-Dog" style="stroke:#000000;stroke-width:1;"/><polygon fill="none" points="224.56,137.55,229.1595,155.9577,239.2842,149.5165,224.56,137.55" style="stroke:#000000;stroke-width:1;"/></g><!--SRC=[VOxD2i9038JlUOg85wKiU1OlHH4yzmdIDjIbkzdIJGN_tjsr_a0zU0dCvCjCPdfapzWviW8GMoiTzUInSXHZhjhRSb0-L44AUs5S_IBx85hesJ6MmTK0L4RjgTBN5dEndXnU0N6EGfxNMAHCQKQ3cgIjQ1B6f94XaowMQpm5MuywEkPkubm_3NVqr78H1gc_m1tWrRib7KkpVz0kDF-Wz- -Rcp7Fl8bEfm3m0000]--></g></svg>