<svg xmlns="http://www.w3.org/2000/svg" xmlns:xlink="http://www.w3.org/1999/xlink" contentStyleType="text/css" data-diagram-type="CLASS" height="248px" preserveAspectRatio="none" style="width:507px;height:248px;background:#FFFFFF;" version="1.1" viewBox="0 0 507 248" width="507px" zoomAndPan="magnify"><defs/><g><!--class Animal--><g class="entity" data-entity="Animal" data-source-line="6" data-uid="ent0002" id="entity_Animal"><rect fill="#FFFFFF" height="92.8906" rx="2.5" ry="2.5" style="stroke:#000000;stroke-width:1;" width="236.1504" x="52.2" y="12"/><ellipse cx="139.3079" cy="26" fill="#FFFFFF" rx="9" ry="9" style="stroke:#000000;stroke-width:1;"/><path d="M142.2767,31.6406 Q141.6985,31.9375 141.0579,32.0781 Q140.4173,32.2344 139.7142,32.2344 Q137.2142,32.2344 135.886,30.5938 Q134.5735,28.9375 134.5735,25.8125 Q134.5735,22.6875 135.886,21.0313 Q137.2142,19.375 139.7142,19.375 Q140.4173,19.375 141.0579,19.5313 Q141.7142,19.6875 142.2767,19.9844 L142.2767,22.7031 Q141.6517,22.125 141.0579,21.8594 Q140.4642,21.5781 139.8392,21.5781 Q138.4954,21.5781 137.8079,22.6563 Q137.1204,23.7188 137.1204,25.8125 Q137.1204,27.9063 137.8079,28.9844 Q138.4954,30.0469 139.8392,30.0469 Q140.4642,30.0469 141.0579,29.7813 Q141.6517,29.5 142.2767,28.9219 L142.2767,31.6406 Z " fill="#000000"/><text fill="#000000" font-family="Verdana" font-size="14" font-weight="bold" lengthAdjust="spacing" textLength="54.4346" x="156.8079" y="30.8467">Animal</text><line style="stroke:#000000;stroke-width:1;" x1="53.2" x2="287.3504" y1="40" y2="40"/><text fill="#000000" font-family="Verdana" font-size="14" lengthAdjust="spacing" textLength="102.3818" x="58.2" y="56.9951">#name: String</text><text fill="#000000" font-family="Verdana" font-size="14" lengthAdjust="spacing" textLength="65.2285" x="58.2" y="73.292">#age: int</text><line style="stroke:#000000;stroke-width:1;" x1="53.2" x2="287.3504" y1="80.5938" y2="80.5938"/><text fill="#000000" font-family="Verdana" font-size="14" lengthAdjust="spacing" textLength="224.1504" x="58.2" y="97.5889">+Animal(name: String, age: int)</text></g><!--class Dog--><g class="entity" data-entity="Dog" data-source-line="13" data-uid="ent0003" id="entity_Dog"><rect fill="#FFFFFF" height="76.5938" rx="2.5" ry="2.5" style="stroke:#000000;stroke-width:1;" width="316.541" x="12" y="164.89"/><ellipse cx="150.8901" cy="178.89" fill="#FFFFFF" rx="9" ry="9" style="stroke:#000000;stroke-width:1;"/><path d="M153.8589,184.5306 Q153.2808,184.8275 152.6401,184.9681 Q151.9995,185.1244 151.2964,185.1244 Q148.7964,185.1244 147.4683,183.4838 Q146.1558,181.8275 146.1558,178.7025 Q146.1558,175.5775 147.4683,173.9213 Q148.7964,172.265 151.2964,172.265 Q151.9995,172.265 152.6401,172.4213 Q153.2964,172.5775 153.8589,172.8744 L153.8589,175.5931 Q153.2339,175.015 152.6401,174.7494 Q152.0464,174.4681 151.4214,174.4681 Q150.0776,174.4681 149.3901,175.5463 Q148.7026,176.6088 148.7026,178.7025 Q148.7026,180.7963 149.3901,181.8744 Q150.0776,182.9369 151.4214,182.9369 Q152.0464,182.9369 152.6401,182.6713 Q153.2339,182.39 153.8589,181.8119 L153.8589,184.5306 Z " fill="#000000"/><text fill="#000000" font-family="Verdana" font-size="14" font-weight="bold" lengthAdjust="spacing" textLength="31.2607" x="168.3901" y="183.7367">Dog</text><line style="stroke:#000000;stroke-width:1;" x1="13" x2="327.541" y1="192.89" y2="192.89"/><text fill="#000000" font-family="Verdana" font-size="14" lengthAdjust="spacing" textLength="96.7559" x="18" y="209.8851">-breed: String</text><line style="stroke:#000000;stroke-width:1;" x1="13" x2="327.541" y1="217.1869" y2="217.1869"/><text fill="#000000" font-family="Verdana" font-size="14" lengthAdjust="spacing" textLength="304.541" x="18" y="234.182">+Dog(name: String, age: int, breed: String)</text></g><path d="M363.72,185.62 L363.72,194.1864 L322.541,229.3353 L363.72,202.1864 L363.72,210.7528 A0,0 0 0 0 363.72,210.7528 L500.8186,210.7528 A0,0 0 0 0 500.8186,210.7528 L500.8186,195.62 L490.8186,185.62 L363.72,185.62 A0,0 0 0 0 363.72,185.62" fill="#FFFFFF" style="stroke:#000000;stroke-width:1;"/><path d="M490.8186,185.62 L490.8186,195.62 L500.8186,195.62 L490.8186,185.62" fill="#FFFFFF" style="stroke:#000000;stroke-width:1;"/><text fill="#000000" font-family="Verdana" font-size="13" lengthAdjust="spacing" textLength="116.0986" x="369.72" y="202.6869">super(name, age)</text><!--reverse link Animal to Dog--><g class="link" data-entity-1="Animal" data-entity-2="Dog" data-source-line="19" data-uid="lnk4" id="link_Animal_Dog"><path codeLine="19" d="M170.27,123 C170.27,142.25 170.27,146.41 170.27,164.69" fill="none" id="Animal-backto-Dog" style="stroke:#000000;stroke-width:1;"/><polygon fill="none" points="170.27,105,164.27,123,176.27,123,170.27,105" style="stroke:#000000;stroke-width:1;"/></g><!--SRC=[TOxB2i8m44NtynKZRYmsuBguAOZWkb-GjcCRJ2SbdIvy_Rjfg585DmFtSkvXLj9IHzXRRHXWk1ZkjTSTLbOFGoxYJJaAdIh7XRaHxdwHesCfv6e9IsThW5XYpgRJ5k-0k4RM7MLO11KtiT1Do8Ob1AN2sSxyPacc7oo1vzjxS4sKAYmzKRsmpg80_B6atvCedT_SFvIQbW3iXD2RfXLqvwdAigb77CQUV3H7OmB4DKuq0Bm0]--></g></svg>