<svg xmlns="http://www.w3.org/2000/svg" xmlns:xlink="http://www.w3.org/1999/xlink" contentStyleType="text/css" data-diagram-type="CLASS" height="297px" preserveAspectRatio="none" style="width:335px;height:297px;background:#FFFFFF;" version="1.1" viewBox="0 0 335 297" width="335px" zoomAndPan="magnify"><defs/><g><!--class Animal--><g class="entity" data-entity="Animal" data-source-line="3" data-uid="ent0002" id="entity_Animal"><rect fill="#FFFFFF" height="125.4844" rx="2.5" ry="2.5" style="stroke:#000000;stroke-width:1;" width="236.4199" x="52.2" y="12"/><ellipse cx="142.4368" cy="26" fill="#FFFFFF" rx="9" ry="9" style="stroke:#000000;stroke-width:1;"/><path d="M145.4056,31.6406 Q144.8274,31.9375 144.1868,32.0781 Q143.5462,32.2344 142.8431,32.2344 Q140.3431,32.2344 139.0149,30.5938 Q137.7024,28.9375 137.7024,25.8125 Q137.7024,22.6875 139.0149,21.0313 Q140.3431,19.375 142.8431,19.375 Q143.5462,19.375 144.1868,19.5313 Q144.8431,19.6875 145.4056,19.9844 L145.4056,22.7031 Q144.7806,22.125 144.1868,21.8594 Q143.5931,21.5781 142.9681,21.5781 Q141.6243,21.5781 140.9368,22.6563 Q140.2493,23.7188 140.2493,25.8125 Q140.2493,27.9063 140.9368,28.9844 Q141.6243,30.0469 142.9681,30.0469 Q143.5931,30.0469 144.1868,29.7813 Q144.7806,29.5 145.4056,28.9219 L145.4056,31.6406 Z " fill="#000000"/><text fill="#000000" font-family="Verdana" font-size="14" lengthAdjust="spacing" textLength="48.4463" x="159.9368" y="30.8467">Animal</text><line style="stroke:#000000;stroke-width:1;" x1="53.2" x2="287.6199" y1="40" y2="40"/><polygon fill="none" points="63.2,48.6484,67.2,52.6484,63.2,56.6484,59.2,52.6484" style="stroke:#000000;stroke-width:1;"/><text fill="#000000" font-family="Verdana" font-size="14" lengthAdjust="spacing" textLength="90.6514" x="70.2" y="56.9951">name: String</text><polygon fill="none" points="63.2,64.9453,67.2,68.9453,63.2,72.9453,59.2,68.9453" style="stroke:#000000;stroke-width:1;"/><text fill="#000000" font-family="Verdana" font-size="14" lengthAdjust="spacing" textLength="53.498" x="70.2" y="73.292">age: int</text><line style="stroke:#000000;stroke-width:1;" x1="53.2" x2="287.6199" y1="80.5938" y2="80.5938"/><ellipse cx="63.2" cy="94.2422" fill="#FFFFFF" rx="3" ry="3" style="stroke:#000000;stroke-width:1;"/><text fill="#000000" font-family="Verdana" font-size="14" lengthAdjust="spacing" textLength="212.4199" x="70.2" y="97.5889">Animal(name: String, age: int)</text><ellipse cx="63.2" cy="110.5391" fill="#FFFFFF" rx="3" ry="3" style="stroke:#000000;stroke-width:1;"/><text fill="#000000" font-family="Verdana" font-size="14" lengthAdjust="spacing" textLength="72.3994" x="70.2" y="113.8857">eat(): void</text><ellipse cx="63.2" cy="126.8359" fill="#FFFFFF" rx="3" ry="3" style="stroke:#000000;stroke-width:1;"/><text fill="#000000" font-family="Verdana" font-size="14" lengthAdjust="spacing" textLength="87.0146" x="70.2" y="130.1826">sleep(): void</text></g><!--class Dog--><g class="entity" data-entity="Dog" data-source-line="12" data-uid="ent0003" id="entity_Dog"><rect fill="#FFFFFF" height="92.8906" rx="2.5" ry="2.5" style="stroke:#000000;stroke-width:1;" width="316.8105" x="12" y="197.49"/><ellipse cx="152.5391" cy="211.49" fill="#FFFFFF" rx="9" ry="9" style="stroke:#000000;stroke-width:1;"/><path d="M155.5078,217.1306 Q154.9297,217.4275 154.2891,217.5681 Q153.6484,217.7244 152.9453,217.7244 Q150.4453,217.7244 149.1172,216.0838 Q147.8047,214.4275 147.8047,211.3025 Q147.8047,208.1775 149.1172,206.5213 Q150.4453,204.865 152.9453,204.865 Q153.6484,204.865 154.2891,205.0213 Q154.9453,205.1775 155.5078,205.4744 L155.5078,208.1931 Q154.8828,207.615 154.2891,207.3494 Q153.6953,207.0681 153.0703,207.0681 Q151.7266,207.0681 151.0391,208.1463 Q150.3516,209.2088 150.3516,211.3025 Q150.3516,213.3963 151.0391,214.4744 Q151.7266,215.5369 153.0703,215.5369 Q153.6953,215.5369 154.2891,215.2713 Q154.8828,214.99 155.5078,214.4119 L155.5078,217.1306 Z " fill="#000000"/><text fill="#000000" font-family="Verdana" font-size="14" lengthAdjust="spacing" textLength="28.2324" x="170.0391" y="216.3367">Dog</text><line style="stroke:#000000;stroke-width:1;" x1="13" x2="327.8105" y1="225.49" y2="225.49"/><rect fill="none" height="6" style="stroke:#000000;stroke-width:1;" width="6" x="20" y="236.1384"/><text fill="#000000" font-family="Verdana" font-size="14" lengthAdjust="spacing" textLength="91.7041" x="30" y="242.4851">breed: String</text><line style="stroke:#000000;stroke-width:1;" x1="13" x2="327.8105" y1="249.7869" y2="249.7869"/><ellipse cx="23" cy="263.4353" fill="#FFFFFF" rx="3" ry="3" style="stroke:#000000;stroke-width:1;"/><text fill="#000000" font-family="Verdana" font-size="14" lengthAdjust="spacing" textLength="292.8105" x="30" y="266.782">Dog(name: String, age: int, breed: String)</text><ellipse cx="23" cy="279.7322" fill="#FFFFFF" rx="3" ry="3" style="stroke:#000000;stroke-width:1;"/><text fill="#000000" font-family="Verdana" font-size="14" lengthAdjust="spacing" textLength="81.0469" x="30" y="283.0789">bark(): void</text></g><!--reverse link Animal to Dog--><g class="link" data-entity-1="Animal" data-entity-2="Dog" data-source-line="19" data-uid="lnk4" id="link_Animal_Dog"><path codeLine="19" d="M170.41,155.53 C170.41,175.25 170.41,178.71 170.41,197.09" fill="none" id="Animal-backto-Dog" style="stroke:#000000;stroke-width:1;"/><polygon fill="none" points="170.41,137.53,164.41,155.53,176.41,155.53,170.41,137.53" style="stroke:#000000;stroke-width:1;"/></g><!--SRC=[Kop9ICrDLIZ8ISpCu-9ApaaiBbPmpClCJSnHgEPIK51Mo4lCJRLI22ufoinB1miafWFvcNabG8wkBf3GXghNG5Qf0rUc2LQIcbYYeMcbK9QVcGBc5-UafXR0HMfXDhlafuEjrLL8AafDJK6o5seLK04EUtHGjK2iJKeioaQs1UepcnfTNP1HN000]--></g></svg>