<svg xmlns="http://www.w3.org/2000/svg" xmlns:xlink="http://www.w3.org/1999/xlink" contentStyleType="text/css" data-diagram-type="CLASS" height="199px" preserveAspectRatio="none" style="width:175px;height:199px;background:#FFFFFF;" version="1.1" viewBox="0 0 175 199" width="175px" zoomAndPan="magnify"><defs/><g><!--class Animal--><g class="entity" data-entity="Animal" data-source-line="3" data-uid="ent0002" id="entity_Animal"><rect fill="#FFFFFF" height="60.2969" rx="2.5" ry="2.5" style="stroke:#000000;stroke-width:1;" width="156.7402" x="12" y="12"/><ellipse cx="62.397" cy="26" fill="#FFFFFF" rx="9" ry="9" style="stroke:#000000;stroke-width:1;"/><path d="M65.3657,31.6406 Q64.7876,31.9375 64.147,32.0781 Q63.5063,32.2344 62.8032,32.2344 Q60.3032,32.2344 58.9751,30.5938 Q57.6626,28.9375 57.6626,25.8125 Q57.6626,22.6875 58.9751,21.0313 Q60.3032,19.375 62.8032,19.375 Q63.5063,19.375 64.147,19.5313 Q64.8032,19.6875 65.3657,19.9844 L65.3657,22.7031 Q64.7407,22.125 64.147,21.8594 Q63.5532,21.5781 62.9282,21.5781 Q61.5845,21.5781 60.897,22.6563 Q60.2095,23.7188 60.2095,25.8125 Q60.2095,27.9063 60.897,28.9844 Q61.5845,30.0469 62.9282,30.0469 Q63.5532,30.0469 64.147,29.7813 Q64.7407,29.5 65.3657,28.9219 L65.3657,31.6406 Z " fill="#000000"/><text fill="#000000" font-family="Verdana" font-size="14" lengthAdjust="spacing" textLength="48.4463" x="79.897" y="30.8467">Animal</text><line style="stroke:#000000;stroke-width:1;" x1="13" x2="167.7402" y1="40" y2="40"/><line style="stroke:#000000;stroke-width:1;" x1="13" x2="167.7402" y1="48" y2="48"/><ellipse cx="23" cy="61.6484" fill="#FFFFFF" rx="3" ry="3" style="stroke:#000000;stroke-width:1;"/><text fill="#000000" font-family="Verdana" font-size="14" lengthAdjust="spacing" textLength="132.7402" x="30" y="64.9951">makeSound(): void</text></g><!--class Dog--><g class="entity" data-entity="Dog" data-source-line="7" data-uid="ent0003" id="entity_Dog"><rect fill="#FFFFFF" height="60.2969" rx="2.5" ry="2.5" style="stroke:#000000;stroke-width:1;" width="156.7402" x="12" y="132.29"/><ellipse cx="72.5039" cy="146.29" fill="#FFFFFF" rx="9" ry="9" style="stroke:#000000;stroke-width:1;"/><path d="M75.4727,151.9306 Q74.8945,152.2275 74.2539,152.3681 Q73.6133,152.5244 72.9102,152.5244 Q70.4102,152.5244 69.082,150.8838 Q67.7695,149.2275 67.7695,146.1025 Q67.7695,142.9775 69.082,141.3213 Q70.4102,139.665 72.9102,139.665 Q73.6133,139.665 74.2539,139.8213 Q74.9102,139.9775 75.4727,140.2744 L75.4727,142.9931 Q74.8477,142.415 74.2539,142.1494 Q73.6602,141.8681 73.0352,141.8681 Q71.6914,141.8681 71.0039,142.9463 Q70.3164,144.0088 70.3164,146.1025 Q70.3164,148.1963 71.0039,149.2744 Q71.6914,150.3369 73.0352,150.3369 Q73.6602,150.3369 74.2539,150.0713 Q74.8477,149.79 75.4727,149.2119 L75.4727,151.9306 Z " fill="#000000"/><text fill="#000000" font-family="Verdana" font-size="14" lengthAdjust="spacing" textLength="28.2324" x="90.0039" y="151.1367">Dog</text><line style="stroke:#000000;stroke-width:1;" x1="13" x2="167.7402" y1="160.29" y2="160.29"/><line style="stroke:#000000;stroke-width:1;" x1="13" x2="167.7402" y1="168.29" y2="168.29"/><ellipse cx="23" cy="181.9384" fill="#FFFFFF" rx="3" ry="3" style="stroke:#000000;stroke-width:1;"/><text fill="#000000" font-family="Verdana" font-size="14" lengthAdjust="spacing" textLength="132.7402" x="30" y="185.2851">makeSound(): void</text></g><!--reverse link Animal to Dog--><g class="link" data-entity-1="Animal" data-entity-2="Dog" data-source-line="11" data-uid="lnk4" id="link_Animal_Dog"><path codeLine="11" d="M90.37,90.69 C90.37,108.76 90.37,113.79 90.37,131.86" fill="none" id="Animal-backto-Dog" style="stroke:#000000;stroke-width:1;"/><polygon fill="none" points="90.37,72.69,84.37,90.69,96.37,90.69,90.37,72.69" style="stroke:#000000;stroke-width:1;"/></g><!--SRC=[Kop9ICrDLIZ8ISpCu-9ApaaiBbPmpClCJSnHgEPIKD1Mo4tCJWtEByrBqT2qKYZBpqpXgeMfSybFnwS8QenDZQukI2aN0000]--></g></svg>