<svg xmlns="http://www.w3.org/2000/svg" xmlns:xlink="http://www.w3.org/1999/xlink" contentStyleType="text/css" data-diagram-type="CLASS" height="199px" preserveAspectRatio="none" style="width:175px;height:199px;background:#FFFFFF;" version="1.1" viewBox="0 0 175 199" width="175px" zoomAndPan="magnify"><defs/><g><!--class Animal--><g class="entity" data-entity="Animal" data-source-line="6" data-uid="ent0002" id="entity_Animal"><rect fill="#FFFFFF" height="60.2969" rx="2.5" ry="2.5" style="stroke:#000000;stroke-width:1;" width="156.4707" x="12" y="12"/><ellipse cx="59.2681" cy="26" fill="#FFFFFF" rx="9" ry="9" style="stroke:#000000;stroke-width:1;"/><path d="M62.2368,31.6406 Q61.6587,31.9375 61.0181,32.0781 Q60.3774,32.2344 59.6743,32.2344 Q57.1743,32.2344 55.8462,30.5938 Q54.5337,28.9375 54.5337,25.8125 Q54.5337,22.6875 55.8462,21.0313 Q57.1743,19.375 59.6743,19.375 Q60.3774,19.375 61.0181,19.5313 Q61.6743,19.6875 62.2368,19.9844 L62.2368,22.7031 Q61.6118,22.125 61.0181,21.8594 Q60.4243,21.5781 59.7993,21.5781 Q58.4556,21.5781 57.7681,22.6563 Q57.0806,23.7188 57.0806,25.8125 Q57.0806,27.9063 57.7681,28.9844 Q58.4556,30.0469 59.7993,30.0469 Q60.4243,30.0469 61.0181,29.7813 Q61.6118,29.5 62.2368,28.9219 L62.2368,31.6406 Z " fill="#000000"/><text fill="#000000" font-family="Verdana" font-size="14" font-weight="bold" lengthAdjust="spacing" textLength="54.4346" x="76.7681" y="30.8467">Animal</text><line style="stroke:#000000;stroke-width:1;" x1="13" x2="167.4707" y1="40" y2="40"/><line style="stroke:#000000;stroke-width:1;" x1="13" x2="167.4707" y1="48" y2="48"/><text fill="#000000" font-family="Verdana" font-size="14" lengthAdjust="spacing" textLength="144.4707" x="18" y="64.9951">+makeSound(): void</text></g><!--class Dog--><g class="entity" data-entity="Dog" data-source-line="10" data-uid="ent0003" id="entity_Dog"><rect fill="#FFFFFF" height="60.2969" rx="2.5" ry="2.5" style="stroke:#000000;stroke-width:1;" width="156.4707" x="12" y="132.29"/><ellipse cx="70.855" cy="146.29" fill="#FFFFFF" rx="9" ry="9" style="stroke:#000000;stroke-width:1;"/><path d="M73.8237,151.9306 Q73.2456,152.2275 72.605,152.3681 Q71.9644,152.5244 71.2612,152.5244 Q68.7612,152.5244 67.4331,150.8838 Q66.1206,149.2275 66.1206,146.1025 Q66.1206,142.9775 67.4331,141.3213 Q68.7612,139.665 71.2612,139.665 Q71.9644,139.665 72.605,139.8213 Q73.2612,139.9775 73.8237,140.2744 L73.8237,142.9931 Q73.1987,142.415 72.605,142.1494 Q72.0112,141.8681 71.3862,141.8681 Q70.0425,141.8681 69.355,142.9463 Q68.6675,144.0088 68.6675,146.1025 Q68.6675,148.1963 69.355,149.2744 Q70.0425,150.3369 71.3862,150.3369 Q72.0112,150.3369 72.605,150.0713 Q73.1987,149.79 73.8237,149.2119 L73.8237,151.9306 Z " fill="#000000"/><text fill="#000000" font-family="Verdana" font-size="14" font-weight="bold" lengthAdjust="spacing" textLength="31.2607" x="88.355" y="151.1367">Dog</text><line style="stroke:#000000;stroke-width:1;" x1="13" x2="167.4707" y1="160.29" y2="160.29"/><line style="stroke:#000000;stroke-width:1;" x1="13" x2="167.4707" y1="168.29" y2="168.29"/><text fill="#000000" font-family="Verdana" font-size="14" lengthAdjust="spacing" textLength="144.4707" x="18" y="185.2851">+makeSound(): void</text></g><!--reverse link Animal to Dog--><g class="link" data-entity-1="Animal" data-entity-2="Dog" data-source-line="14" data-uid="lnk4" id="link_Animal_Dog"><path codeLine="14" d="M90.24,90.69 C90.24,108.76 90.24,113.79 90.24,131.86" fill="none" id="Animal-backto-Dog" style="stroke:#000000;stroke-width:1;"/><polygon fill="none" points="90.24,72.69,84.24,90.69,96.24,90.69,90.24,72.69" style="stroke:#000000;stroke-width:1;"/></g><!--SRC=[VSon2i90383XFKyHDqKApk9I4C7vdY3j1GszIqelBTZgkukYYuFhpyU_yYjdnZwHA43fH7iQA6ERg9JQVP1cT3wtfa5cnjqlEPbwy5jYR2n5W7V4MYLJmWKGjvYfus2ZnlLcZvD9XCVN7Uto3tqsXtjLlIW0F040]--></g></svg>