<svg xmlns="http://www.w3.org/2000/svg" xmlns:xlink="http://www.w3.org/1999/xlink" contentStyleType="text/css" data-diagram-type="CLASS" height="248px" preserveAspectRatio="none" style="width:507px;height:248px;background:#FFFFFF;" version="1.1" viewBox="0 0 507 248" width="507px" zoomAndPan="magnify"><defs/><g><!--class Animal--><g class="entity" data-entity="Animal" data-source-line="3" data-uid="ent0002" id="entity_Animal"><rect fill="#FFFFFF" height="92.8906" rx="2.5" ry="2.5" style="stroke:#000000;stroke-width:1;" width="236.4199" x="52.2" y="12"/><ellipse cx="142.4368" cy="26" fill="#FFFFFF" rx="9" ry="9" style="stroke:#000000;stroke-width:1;"/><path d="M145.4056,31.6406 Q144.8274,31.9375 144.1868,32.0781 Q143.5462,32.2344 142.8431,32.2344 Q140.3431,32.2344 139.0149,30.5938 Q137.7024,28.9375 137.7024,25.8125 Q137.7024,22.6875 139.0149,21.0313 Q140.3431,19.375 142.8431,19.375 Q143.5462,19.375 144.1868,19.5313 Q144.8431,19.6875 145.4056,19.9844 L145.4056,22.7031 Q144.7806,22.125 144.1868,21.8594 Q143.5931,21.5781 142.9681,21.5781 Q141.6243,21.5781 140.9368,22.6563 Q140.2493,23.7188 140.2493,25.8125 Q140.2493,27.9063 140.9368,28.9844 Q141.6243,30.0469 142.9681,30.0469 Q143.5931,30.0469 144.1868,29.7813 Q144.7806,29.5 145.4056,28.9219 L145.4056,31.6406 Z " fill="#000000"/><text fill="#000000" font-family="Verdana" font-size="14" lengthAdjust="spacing" textLength="48.4463" x="159.9368" y="30.8467">Animal</text><line style="stroke:#000000;stroke-width:1;" x1="53.2" x2="287.6199" y1="40" y2="40"/><polygon fill="none" points="63.2,48.6484,67.2,52.6484,63.2,56.6484,59.2,52.6484" style="stroke:#000000;stroke-width:1;"/><text fill="#000000" font-family="Verdana" font-size="14" lengthAdjust="spacing" textLength="90.6514" x="70.2" y="56.9951">name: String</text><polygon fill="none" points="63.2,64.9453,67.2,68.9453,63.2,72.9453,59.2,68.9453" style="stroke:#000000;stroke-width:1;"/><text fill="#000000" font-family="Verdana" font-size="14" lengthAdjust="spacing" textLength="53.498" x="70.2" y="73.292">age: int</text><line style="stroke:#000000;stroke-width:1;" x1="53.2" x2="287.6199" y1="80.5938" y2="80.5938"/><ellipse cx="63.2" cy="94.2422" fill="#FFFFFF" rx="3" ry="3" style="stroke:#000000;stroke-width:1;"/><text fill="#000000" font-family="Verdana" font-size="14" lengthAdjust="spacing" textLength="212.4199" x="70.2" y="97.5889">Animal(name: String, age: int)</text></g><!--class Dog--><g class="entity" data-entity="Dog" data-source-line="10" data-uid="ent0003" id="entity_Dog"><rect fill="#FFFFFF" height="76.5938" rx="2.5" ry="2.5" style="stroke:#000000;stroke-width:1;" width="316.8105" x="12" y="164.89"/><ellipse cx="152.5391" cy="178.89" fill="#FFFFFF" rx="9" ry="9" style="stroke:#000000;stroke-width:1;"/><path d="M155.5078,184.5306 Q154.9297,184.8275 154.2891,184.9681 Q153.6484,185.1244 152.9453,185.1244 Q150.4453,185.1244 149.1172,183.4838 Q147.8047,181.8275 147.8047,178.7025 Q147.8047,175.5775 149.1172,173.9213 Q150.4453,172.265 152.9453,172.265 Q153.6484,172.265 154.2891,172.4213 Q154.9453,172.5775 155.5078,172.8744 L155.5078,175.5931 Q154.8828,175.015 154.2891,174.7494 Q153.6953,174.4681 153.0703,174.4681 Q151.7266,174.4681 151.0391,175.5463 Q150.3516,176.6088 150.3516,178.7025 Q150.3516,180.7963 151.0391,181.8744 Q151.7266,182.9369 153.0703,182.9369 Q153.6953,182.9369 154.2891,182.6713 Q154.8828,182.39 155.5078,181.8119 L155.5078,184.5306 Z " fill="#000000"/><text fill="#000000" font-family="Verdana" font-size="14" lengthAdjust="spacing" textLength="28.2324" x="170.0391" y="183.7367">Dog</text><line style="stroke:#000000;stroke-width:1;" x1="13" x2="327.8105" y1="192.89" y2="192.89"/><rect fill="none" height="6" style="stroke:#000000;stroke-width:1;" width="6" x="20" y="203.5384"/><text fill="#000000" font-family="Verdana" font-size="14" lengthAdjust="spacing" textLength="91.7041" x="30" y="209.8851">breed: String</text><line style="stroke:#000000;stroke-width:1;" x1="13" x2="327.8105" y1="217.1869" y2="217.1869"/><ellipse cx="23" cy="230.8353" fill="#FFFFFF" rx="3" ry="3" style="stroke:#000000;stroke-width:1;"/><text fill="#000000" font-family="Verdana" font-size="14" lengthAdjust="spacing" textLength="292.8105" x="30" y="234.182">Dog(name: String, age: int, breed: String)</text></g><path d="M363.86,185.62 L363.86,194.1864 L322.8105,229.3353 L363.86,202.1864 L363.86,210.7528 A0,0 0 0 0 363.86,210.7528 L500.9586,210.7528 A0,0 0 0 0 500.9586,210.7528 L500.9586,195.62 L490.9586,185.62 L363.86,185.62 A0,0 0 0 0 363.86,185.62" fill="#FFFFFF" style="stroke:#000000;stroke-width:1;"/><path d="M490.9586,185.62 L490.9586,195.62 L500.9586,195.62 L490.9586,185.62" fill="#FFFFFF" style="stroke:#000000;stroke-width:1;"/><text fill="#000000" font-family="Verdana" font-size="13" lengthAdjust="spacing" textLength="116.0986" x="369.86" y="202.6869">super(name, age)</text><!--reverse link Animal to Dog--><g class="link" data-entity-1="Animal" data-entity-2="Dog" data-source-line="16" data-uid="lnk4" id="link_Animal_Dog"><path codeLine="16" d="M170.41,123 C170.41,142.25 170.41,146.41 170.41,164.69" fill="none" id="Animal-backto-Dog" style="stroke:#000000;stroke-width:1;"/><polygon fill="none" points="170.41,105,164.41,123,176.41,123,170.41,105" style="stroke:#000000;stroke-width:1;"/></g><!--SRC=[TOv12i8m44NtSuelRYms5oXk16_W2Q8Tqq0oAKbSgNSt2LNgmit0_xp_c4sUs3DcfwqGNPrE2KUnNZiy2DX2jES1vnojc5PeKxALN89IvUmNVhSc-o_MqUlZFGNJf0gNo3okh8ke07yi_U-aIPSt3q-bwf98GcP4QwQCSAlLCDGUIFUPOpCtOqSi8ofDRm00]--></g></svg>