<svg xmlns="http://www.w3.org/2000/svg" xmlns:xlink="http://www.w3.org/1999/xlink" contentStyleType="text/css" data-diagram-type="CLASS" height="264px" preserveAspectRatio="none" style="width:367px;height:264px;background:#FFFFFF;" version="1.1" viewBox="0 0 367 264" width="367px" zoomAndPan="magnify"><defs/><g><!--class Animal--><g class="entity" data-entity="Animal" data-source-line="3" data-uid="ent0002" id="entity_Animal"><rect fill="#FFFFFF" height="125.4844" rx="2.5" ry="2.5" style="stroke:#000000;stroke-width:1;" width="156.7402" x="108" y="12"/><ellipse cx="158.397" cy="26" fill="#FFFFFF" rx="9" ry="9" style="stroke:#000000;stroke-width:1;"/><path d="M158.5063,21.3438 L157.3501,26.4219 L159.6782,26.4219 L158.5063,21.3438 Z M157.022,19.1094 L160.0063,19.1094 L163.3657,31.5 L160.9126,31.5 L160.147,28.4375 L156.8657,28.4375 L156.1157,31.5 L153.6782,31.5 L157.022,19.1094 Z " fill="#000000"/><text fill="#000000" font-family="Verdana" font-size="14" font-style="italic" lengthAdjust="spacing" textLength="48.4463" x="175.897" y="30.8467">Animal</text><line style="stroke:#000000;stroke-width:1;" x1="109" x2="263.7402" y1="40" y2="40"/><polygon fill="none" points="119,48.6484,123,52.6484,119,56.6484,115,52.6484" style="stroke:#000000;stroke-width:1;"/><text fill="#000000" font-family="Verdana" font-size="14" lengthAdjust="spacing" textLength="90.6514" x="126" y="56.9951">name: String</text><polygon fill="none" points="119,64.9453,123,68.9453,119,72.9453,115,68.9453" style="stroke:#000000;stroke-width:1;"/><text fill="#000000" font-family="Verdana" font-size="14" lengthAdjust="spacing" textLength="53.498" x="126" y="73.292">age: int</text><line style="stroke:#000000;stroke-width:1;" x1="109" x2="263.7402" y1="80.5938" y2="80.5938"/><ellipse cx="119" cy="94.2422" fill="#FFFFFF" rx="3" ry="3" style="stroke:#000000;stroke-width:1;"/><text fill="#000000" font-family="Verdana" font-size="14" lengthAdjust="spacing" textLength="72.3994" x="126" y="97.5889">eat(): void</text><ellipse cx="119" cy="110.5391" fill="#FFFFFF" rx="3" ry="3" style="stroke:#000000;stroke-width:1;"/><text fill="#000000" font-family="Verdana" font-size="14" lengthAdjust="spacing" textLength="87.0146" x="126" y="113.8857">sleep(): void</text><ellipse cx="119" cy="126.8359" fill="#FFFFFF" rx="3" ry="3" style="stroke:#000000;stroke-width:1;"/><text fill="#000000" font-family="Verdana" font-size="14" font-style="italic" lengthAdjust="spacing" textLength="132.7402" x="126" y="130.1826">makeSound(): void</text></g><!--class Cat--><g class="entity" data-entity="Cat" data-source-line="12" data-uid="ent0003" id="entity_Cat"><rect fill="#FFFFFF" height="60.2969" rx="2.5" ry="2.5" style="stroke:#000000;stroke-width:1;" width="156.7402" x="12" y="197.48"/><ellipse cx="74.6982" cy="211.48" fill="#FFFFFF" rx="9" ry="9" style="stroke:#000000;stroke-width:1;"/><path d="M77.667,217.1206 Q77.0889,217.4175 76.4482,217.5581 Q75.8076,217.7144 75.1045,217.7144 Q72.6045,217.7144 71.2764,216.0738 Q69.9639,214.4175 69.9639,211.2925 Q69.9639,208.1675 71.2764,206.5113 Q72.6045,204.855 75.1045,204.855 Q75.8076,204.855 76.4482,205.0113 Q77.1045,205.1675 77.667,205.4644 L77.667,208.1831 Q77.042,207.605 76.4482,207.3394 Q75.8545,207.0581 75.2295,207.0581 Q73.8857,207.0581 73.1982,208.1363 Q72.5107,209.1988 72.5107,211.2925 Q72.5107,213.3863 73.1982,214.4644 Q73.8857,215.5269 75.2295,215.5269 Q75.8545,215.5269 76.4482,215.2613 Q77.042,214.98 77.667,214.4019 L77.667,217.1206 Z " fill="#000000"/><text fill="#000000" font-family="Verdana" font-size="14" lengthAdjust="spacing" textLength="23.8438" x="92.1982" y="216.3267">Cat</text><line style="stroke:#000000;stroke-width:1;" x1="13" x2="167.7402" y1="225.48" y2="225.48"/><line style="stroke:#000000;stroke-width:1;" x1="13" x2="167.7402" y1="233.48" y2="233.48"/><ellipse cx="23" cy="247.1284" fill="#FFFFFF" rx="3" ry="3" style="stroke:#000000;stroke-width:1;"/><text fill="#000000" font-family="Verdana" font-size="14" lengthAdjust="spacing" textLength="132.7402" x="30" y="250.4751">makeSound(): void</text></g><!--class Dog--><g class="entity" data-entity="Dog" data-source-line="16" data-uid="ent0004" id="entity_Dog"><rect fill="#FFFFFF" height="60.2969" rx="2.5" ry="2.5" style="stroke:#000000;stroke-width:1;" width="156.7402" x="204" y="197.48"/><ellipse cx="264.5039" cy="211.48" fill="#FFFFFF" rx="9" ry="9" style="stroke:#000000;stroke-width:1;"/><path d="M267.4727,217.1206 Q266.8945,217.4175 266.2539,217.5581 Q265.6133,217.7144 264.9102,217.7144 Q262.4102,217.7144 261.082,216.0738 Q259.7695,214.4175 259.7695,211.2925 Q259.7695,208.1675 261.082,206.5113 Q262.4102,204.855 264.9102,204.855 Q265.6133,204.855 266.2539,205.0113 Q266.9102,205.1675 267.4727,205.4644 L267.4727,208.1831 Q266.8477,207.605 266.2539,207.3394 Q265.6602,207.0581 265.0352,207.0581 Q263.6914,207.0581 263.0039,208.1363 Q262.3164,209.1988 262.3164,211.2925 Q262.3164,213.3863 263.0039,214.4644 Q263.6914,215.5269 265.0352,215.5269 Q265.6602,215.5269 266.2539,215.2613 Q266.8477,214.98 267.4727,214.4019 L267.4727,217.1206 Z " fill="#000000"/><text fill="#000000" font-family="Verdana" font-size="14" lengthAdjust="spacing" textLength="28.2324" x="282.0039" y="216.3267">Dog</text><line style="stroke:#000000;stroke-width:1;" x1="205" x2="359.7402" y1="225.48" y2="225.48"/><line style="stroke:#000000;stroke-width:1;" x1="205" x2="359.7402" y1="233.48" y2="233.48"/><ellipse cx="215" cy="247.1284" fill="#FFFFFF" rx="3" ry="3" style="stroke:#000000;stroke-width:1;"/><text fill="#000000" font-family="Verdana" font-size="14" lengthAdjust="spacing" textLength="132.7402" x="222" y="250.4751">makeSound(): void</text></g><!--reverse link Animal to Cat--><g class="link" data-entity-1="Animal" data-entity-2="Cat" data-source-line="20" data-uid="lnk5" id="link_Animal_Cat"><path codeLine="20" d="M137.3829,152.7338 C124.2229,173.4038 119.84,180.31 109.02,197.32" fill="none" id="Animal-backto-Cat" style="stroke:#000000;stroke-width:1;"/><polygon fill="none" points="147.05,137.55,132.3217,149.5114,142.4442,155.9562,147.05,137.55" style="stroke:#000000;stroke-width:1;"/></g><!--reverse link Animal to Dog--><g class="link" data-entity-1="Animal" data-entity-2="Dog" data-source-line="21" data-uid="lnk6" id="link_Animal_Dog"><path codeLine="21" d="M235.3571,152.7338 C248.5171,173.4038 252.9,180.31 263.72,197.32" fill="none" id="Animal-backto-Dog" style="stroke:#000000;stroke-width:1;"/><polygon fill="none" points="225.69,137.55,230.2958,155.9562,240.4183,149.5114,225.69,137.55" style="stroke:#000000;stroke-width:1;"/></g><!--SRC=[VOuz3i8m34PtdyA81LJb0XKBWXlq1AQrGaJYL8rXARrxq_0ZTUbYwNtwxEUTtZamzfwS0D0jwK2jOkif9JoB2-Hn1CGz2WMkiT71YIq1sSnED8CnULJ8f8TZZQ_ekiB9C_UhPFmP9Wpqu2O-fViN9e2Fzq9QfDLMwHhjLkdx- -bjp79lnNaLPW00]--></g></svg>