<svg xmlns="http://www.w3.org/2000/svg" xmlns:xlink="http://www.w3.org/1999/xlink" contentStyleType="text/css" data-diagram-type="CLASS" height="297px" preserveAspectRatio="none" style="width:335px;height:297px;background:#FFFFFF;" version="1.1" viewBox="0 0 335 297" width="335px" zoomAndPan="magnify"><defs/><g><!--class Animal--><g class="entity" data-entity="Animal" data-source-line="6" data-uid="ent0002" id="entity_Animal"><rect fill="#FFFFFF" height="125.4844" rx="2.5" ry="2.5" style="stroke:#000000;stroke-width:1;" width="236.1504" x="52.2" y="12"/><ellipse cx="139.3079" cy="26" fill="#FFFFFF" rx="9" ry="9" style="stroke:#000000;stroke-width:1;"/><path d="M142.2767,31.6406 Q141.6985,31.9375 141.0579,32.0781 Q140.4173,32.2344 139.7142,32.2344 Q137.2142,32.2344 135.886,30.5938 Q134.5735,28.9375 134.5735,25.8125 Q134.5735,22.6875 135.886,21.0313 Q137.2142,19.375 139.7142,19.375 Q140.4173,19.375 141.0579,19.5313 Q141.7142,19.6875 142.2767,19.9844 L142.2767,22.7031 Q141.6517,22.125 141.0579,21.8594 Q140.4642,21.5781 139.8392,21.5781 Q138.4954,21.5781 137.8079,22.6563 Q137.1204,23.7188 137.1204,25.8125 Q137.1204,27.9063 137.8079,28.9844 Q138.4954,30.0469 139.8392,30.0469 Q140.4642,30.0469 141.0579,29.7813 Q141.6517,29.5 142.2767,28.9219 L142.2767,31.6406 Z " fill="#000000"/><text fill="#000000" font-family="Verdana" font-size="14" font-weight="bold" lengthAdjust="spacing" textLength="54.4346" x="156.8079" y="30.8467">Animal</text><line style="stroke:#000000;stroke-width:1;" x1="53.2" x2="287.3504" y1="40" y2="40"/><text fill="#000000" font-family="Verdana" font-size="14" lengthAdjust="spacing" textLength="102.3818" x="58.2" y="56.9951">#name: String</text><text fill="#000000" font-family="Verdana" font-size="14" lengthAdjust="spacing" textLength="65.2285" x="58.2" y="73.292">#age: int</text><line style="stroke:#000000;stroke-width:1;" x1="53.2" x2="287.3504" y1="80.5938" y2="80.5938"/><text fill="#000000" font-family="Verdana" font-size="14" lengthAdjust="spacing" textLength="224.1504" x="58.2" y="97.5889">+Animal(name: String, age: int)</text><text fill="#000000" font-family="Verdana" font-size="14" lengthAdjust="spacing" textLength="84.1299" x="58.2" y="113.8857">+eat(): void</text><text fill="#000000" font-family="Verdana" font-size="14" lengthAdjust="spacing" textLength="98.7451" x="58.2" y="130.1826">+sleep(): void</text></g><!--class Dog--><g class="entity" data-entity="Dog" data-source-line="15" data-uid="ent0003" id="entity_Dog"><rect fill="#FFFFFF" height="92.8906" rx="2.5" ry="2.5" style="stroke:#000000;stroke-width:1;" width="316.541" x="12" y="197.49"/><ellipse cx="150.8901" cy="211.49" fill="#FFFFFF" rx="9" ry="9" style="stroke:#000000;stroke-width:1;"/><path d="M153.8589,217.1306 Q153.2808,217.4275 152.6401,217.5681 Q151.9995,217.7244 151.2964,217.7244 Q148.7964,217.7244 147.4683,216.0838 Q146.1558,214.4275 146.1558,211.3025 Q146.1558,208.1775 147.4683,206.5213 Q148.7964,204.865 151.2964,204.865 Q151.9995,204.865 152.6401,205.0213 Q153.2964,205.1775 153.8589,205.4744 L153.8589,208.1931 Q153.2339,207.615 152.6401,207.3494 Q152.0464,207.0681 151.4214,207.0681 Q150.0776,207.0681 149.3901,208.1463 Q148.7026,209.2088 148.7026,211.3025 Q148.7026,213.3963 149.3901,214.4744 Q150.0776,215.5369 151.4214,215.5369 Q152.0464,215.5369 152.6401,215.2713 Q153.2339,214.99 153.8589,214.4119 L153.8589,217.1306 Z " fill="#000000"/><text fill="#000000" font-family="Verdana" font-size="14" font-weight="bold" lengthAdjust="spacing" textLength="31.2607" x="168.3901" y="216.3367">Dog</text><line style="stroke:#000000;stroke-width:1;" x1="13" x2="327.541" y1="225.49" y2="225.49"/><text fill="#000000" font-family="Verdana" font-size="14" lengthAdjust="spacing" textLength="96.7559" x="18" y="242.4851">-breed: String</text><line style="stroke:#000000;stroke-width:1;" x1="13" x2="327.541" y1="249.7869" y2="249.7869"/><text fill="#000000" font-family="Verdana" font-size="14" lengthAdjust="spacing" textLength="304.541" x="18" y="266.782">+Dog(name: String, age: int, breed: String)</text><text fill="#000000" font-family="Verdana" font-size="14" lengthAdjust="spacing" textLength="92.7773" x="18" y="283.0789">+bark(): void</text></g><!--reverse link Animal to Dog--><g class="link" data-entity-1="Animal" data-entity-2="Dog" data-source-line="22" data-uid="lnk4" id="link_Animal_Dog"><path codeLine="22" d="M170.27,155.53 C170.27,175.25 170.27,178.71 170.27,197.09" fill="none" id="Animal-backto-Dog" style="stroke:#000000;stroke-width:1;"/><polygon fill="none" points="170.27,137.53,164.27,155.53,176.27,155.53,170.27,137.53" style="stroke:#000000;stroke-width:1;"/></g><!--SRC=[TO_B2i8m44NtynKZRbfim7LnKn31TRzWqWurc2ObYOAlVpV6MghWPk1UpinX5k70FUEWIHa0VrHc84SzDfgyhq9mIfu2xnjhQdLbNFyYEsj27IwQKLhT0gGIAwDwqdW3n2KQwhd4EfuoNIgeYrcP48CGSQn6FfkJnOJb2M4AMLxYsQesPQ-PXwbvVCnRsoMjGEcOsvbtL4NWZwVuNdbh9RdZt39-jhaByJe504y0]--></g></svg>