<svg xmlns="http://www.w3.org/2000/svg" xmlns:xlink="http://www.w3.org/1999/xlink" contentStyleType="text/css" data-diagram-type="CLASS" height="232px" preserveAspectRatio="none" style="width:407px;height:232px;background:#FFFFFF;" version="1.1" viewBox="0 0 407 232" width="407px" zoomAndPan="magnify"><defs/><g><!--class BankAccount--><g class="entity" data-entity="BankAccount" data-source-line="3" data-uid="ent0002" id="entity_BankAccount"><rect fill="#FFFFFF" height="206.9688" rx="2.5" ry="2.5" style="stroke:#000000;stroke-width:1;" width="381.1846" x="12" y="12"/><ellipse cx="152.874" cy="26" fill="#FFFFFF" rx="9" ry="9" style="stroke:#000000;stroke-width:1;"/><path d="M155.8428,31.6406 Q155.2646,31.9375 154.624,32.0781 Q153.9834,32.2344 153.2803,32.2344 Q150.7803,32.2344 149.4521,30.5938 Q148.1396,28.9375 148.1396,25.8125 Q148.1396,22.6875 149.4521,21.0313 Q150.7803,19.375 153.2803,19.375 Q153.9834,19.375 154.624,19.5313 Q155.2803,19.6875 155.8428,19.9844 L155.8428,22.7031 Q155.2178,22.125 154.624,21.8594 Q154.0303,21.5781 153.4053,21.5781 Q152.0615,21.5781 151.374,22.6563 Q150.6865,23.7188 150.6865,25.8125 Q150.6865,27.9063 151.374,28.9844 Q152.0615,30.0469 153.4053,30.0469 Q154.0303,30.0469 154.624,29.7813 Q155.2178,29.5 155.8428,28.9219 L155.8428,31.6406 Z " fill="#000000"/><text fill="#000000" font-family="Verdana" font-size="14" lengthAdjust="spacing" textLength="91.9365" x="170.374" y="30.8467">BankAccount</text><line style="stroke:#000000;stroke-width:1;" x1="13" x2="392.1846" y1="40" y2="40"/><rect fill="none" height="6" style="stroke:#000000;stroke-width:1;" width="6" x="20" y="50.6484"/><text fill="#000000" font-family="Verdana" font-size="14" lengthAdjust="spacing" textLength="94.2061" x="30" y="56.9951">owner: String</text><rect fill="none" height="6" style="stroke:#000000;stroke-width:1;" width="6" x="20" y="66.9453"/><text fill="#000000" font-family="Verdana" font-size="14" lengthAdjust="spacing" textLength="112" x="30" y="73.292">balance: double</text><line style="stroke:#000000;stroke-width:1;" x1="13" x2="392.1846" y1="80.5938" y2="80.5938"/><ellipse cx="23" cy="94.2422" fill="#FFFFFF" rx="3" ry="3" style="stroke:#000000;stroke-width:1;"/><text fill="#000000" font-family="Verdana" font-size="14" lengthAdjust="spacing" textLength="357.1846" x="30" y="97.5889">BankAccount(owner: String, initialBalance: double)</text><ellipse cx="23" cy="110.5391" fill="#FFFFFF" rx="3" ry="3" style="stroke:#000000;stroke-width:1;"/><text fill="#000000" font-family="Verdana" font-size="14" lengthAdjust="spacing" textLength="130.5732" x="30" y="113.8857">getOwner(): String</text><ellipse cx="23" cy="126.8359" fill="#FFFFFF" rx="3" ry="3" style="stroke:#000000;stroke-width:1;"/><text fill="#000000" font-family="Verdana" font-size="14" lengthAdjust="spacing" textLength="146.6309" x="30" y="130.1826">getBalance(): double</text><ellipse cx="23" cy="143.1328" fill="#FFFFFF" rx="3" ry="3" style="stroke:#000000;stroke-width:1;"/><text fill="#000000" font-family="Verdana" font-size="14" lengthAdjust="spacing" textLength="211.0322" x="30" y="146.4795">setOwner(owner: String): void</text><ellipse cx="23" cy="159.4297" fill="#FFFFFF" rx="3" ry="3" style="stroke:#000000;stroke-width:1;"/><text fill="#000000" font-family="Verdana" font-size="14" lengthAdjust="spacing" textLength="238.9502" x="30" y="162.7764">setBalance(balance: double): void</text><ellipse cx="23" cy="175.7266" fill="#FFFFFF" rx="3" ry="3" style="stroke:#000000;stroke-width:1;"/><text fill="#000000" font-family="Verdana" font-size="14" lengthAdjust="spacing" textLength="212.2422" x="30" y="179.0732">deposit(amount: double): void</text><ellipse cx="23" cy="192.0234" fill="#FFFFFF" rx="3" ry="3" style="stroke:#000000;stroke-width:1;"/><text fill="#000000" font-family="Verdana" font-size="14" lengthAdjust="spacing" textLength="224.9912" x="30" y="195.3701">withdraw(amount: double): void</text><ellipse cx="23" cy="208.3203" fill="#FFFFFF" rx="3" ry="3" style="stroke:#000000;stroke-width:1;"/><text fill="#000000" font-family="Verdana" font-size="14" lengthAdjust="spacing" textLength="125.9248" x="30" y="211.667">displayInfo(): void</text></g><!--SRC=[VP113e8m44NtFSMuAq4km4vshbnuWg6jCB5C2IqIOxoxb5W3nhYPnP_tyYUp2wtf3FGMYOLG5hs72lbwKCgD7E0X00fm4vkXX7COY9ibgT4YArE2TcDjJSoAUUHhMMwqFH1J8BJLLiqMhJ7X56cPhMgM-8t7nQSh1v_uJSVCt1pfH2JrwzWrfKtlF0M9NRpu5p5HQFM0qnz4avyVU3_onScKFyKB]--></g></svg>