<svg xmlns="http://www.w3.org/2000/svg" xmlns:xlink="http://www.w3.org/1999/xlink" contentStyleType="text/css" data-diagram-type="CLASS" height="118px" preserveAspectRatio="none" style="width:175px;height:118px;background:#FFFFFF;" version="1.1" viewBox="0 0 175 118" width="175px" zoomAndPan="magnify"><defs/><g><!--class BankAccount--><g class="entity" data-entity="BankAccount" data-source-line="3" data-uid="ent0002" id="entity_BankAccount"><rect fill="#FFFFFF" height="92.8906" rx="2.5" ry="2.5" style="stroke:#000000;stroke-width:1;" width="149.9248" x="12" y="12"/><ellipse cx="38.4947" cy="26" fill="#FFFFFF" rx="9" ry="9" style="stroke:#000000;stroke-width:1;"/><path d="M41.4635,31.6406 Q40.8854,31.9375 40.2447,32.0781 Q39.6041,32.2344 38.901,32.2344 Q36.401,32.2344 35.0729,30.5938 Q33.7604,28.9375 33.7604,25.8125 Q33.7604,22.6875 35.0729,21.0313 Q36.401,19.375 38.901,19.375 Q39.6041,19.375 40.2447,19.5313 Q40.901,19.6875 41.4635,19.9844 L41.4635,22.7031 Q40.8385,22.125 40.2447,21.8594 Q39.651,21.5781 39.026,21.5781 Q37.6822,21.5781 36.9947,22.6563 Q36.3072,23.7188 36.3072,25.8125 Q36.3072,27.9063 36.9947,28.9844 Q37.6822,30.0469 39.026,30.0469 Q39.651,30.0469 40.2447,29.7813 Q40.8385,29.5 41.4635,28.9219 L41.4635,31.6406 Z " fill="#000000"/><text fill="#000000" font-family="Verdana" font-size="14" lengthAdjust="spacing" textLength="91.9365" x="53.4936" y="30.8467">BankAccount</text><line style="stroke:#000000;stroke-width:1;" x1="13" x2="160.9248" y1="40" y2="40"/><ellipse cx="23" cy="53.6484" fill="none" rx="3" ry="3" style="stroke:#000000;stroke-width:1;"/><text fill="#000000" font-family="Verdana" font-size="14" lengthAdjust="spacing" textLength="94.2061" x="30" y="56.9951">owner: String</text><ellipse cx="23" cy="69.9453" fill="none" rx="3" ry="3" style="stroke:#000000;stroke-width:1;"/><text fill="#000000" font-family="Verdana" font-size="14" lengthAdjust="spacing" textLength="112" x="30" y="73.292">balance: double</text><line style="stroke:#000000;stroke-width:1;" x1="13" x2="160.9248" y1="80.5938" y2="80.5938"/><ellipse cx="23" cy="94.2422" fill="#FFFFFF" rx="3" ry="3" style="stroke:#000000;stroke-width:1;"/><text fill="#000000" font-family="Verdana" font-size="14" lengthAdjust="spacing" textLength="125.9248" x="30" y="97.5889">displayInfo(): void</text></g><!--SRC=[Kop9ICrDLIZ8ISpCu-9ApaaiBbPmIipBTanEpY_DAr6evb9Gq5R8ByzBBR9I22ufoinB1uia9UOavYMdMYcav9ScvQG2nNHrmH8fcSL0moezyzBoDJIj5ChoCrEuQha0]--></g></svg>