<svg xmlns="http://www.w3.org/2000/svg" xmlns:xlink="http://www.w3.org/1999/xlink" contentStyleType="text/css" data-diagram-type="CLASS" height="118px" preserveAspectRatio="none" style="width:175px;height:118px;background:#FFFFFF;" version="1.1" viewBox="0 0 175 118" width="175px" zoomAndPan="magnify"><defs/><g><!--class BankAccount--><g class="entity" data-entity="BankAccount" data-source-line="6" data-uid="ent0002" id="entity_BankAccount"><rect fill="#FFFFFF" height="92.8906" rx="2.5" ry="2.5" style="stroke:#000000;stroke-width:1;" width="149.6553" x="12" y="12"/><ellipse cx="33.3624" cy="26" fill="#FFFFFF" rx="9" ry="9" style="stroke:#000000;stroke-width:1;"/><path d="M36.3311,31.6406 Q35.753,31.9375 35.1124,32.0781 Q34.4717,32.2344 33.7686,32.2344 Q31.2686,32.2344 29.9405,30.5938 Q28.628,28.9375 28.628,25.8125 Q28.628,22.6875 29.9405,21.0313 Q31.2686,19.375 33.7686,19.375 Q34.4717,19.375 35.1124,19.5313 Q35.7686,19.6875 36.3311,19.9844 L36.3311,22.7031 Q35.7061,22.125 35.1124,21.8594 Q34.5186,21.5781 33.8936,21.5781 Q32.5499,21.5781 31.8624,22.6563 Q31.1749,23.7188 31.1749,25.8125 Q31.1749,27.9063 31.8624,28.9844 Q32.5499,30.0469 33.8936,30.0469 Q34.5186,30.0469 35.1124,29.7813 Q35.7061,29.5 36.3311,28.9219 L36.3311,31.6406 Z " fill="#000000"/><text fill="#000000" font-family="Verdana" font-size="14" font-weight="bold" lengthAdjust="spacing" textLength="103.0723" x="47.2207" y="30.8467">BankAccount</text><line style="stroke:#000000;stroke-width:1;" x1="13" x2="160.6553" y1="40" y2="40"/><text fill="#000000" font-family="Verdana" font-size="14" lengthAdjust="spacing" textLength="99.2578" x="18" y="56.9951">-owner: String</text><text fill="#000000" font-family="Verdana" font-size="14" lengthAdjust="spacing" textLength="117.0518" x="18" y="73.292">-balance: double</text><line style="stroke:#000000;stroke-width:1;" x1="13" x2="160.6553" y1="80.5938" y2="80.5938"/><text fill="#000000" font-family="Verdana" font-size="14" lengthAdjust="spacing" textLength="137.6553" x="18" y="97.5889">+displayInfo(): void</text></g><!--SRC=[NSwn3i8m30JGtLzXDX2gnDoj34YTymLEOY1gQbUD2og8VoTqPBdXwNIwdTrvP9mo9G4eGvA9PXenP2gbCvkJNupxeEBIY_7qNxcecBCrCthD4M13F9CCNGYwYE4R41lKf_3Segk3Sjl4KoO9t6BKnMV-MLFZY36LUcVjvQhxGuiFJH4-0F05]--></g></svg>