<svg xmlns="http://www.w3.org/2000/svg" xmlns:xlink="http://www.w3.org/1999/xlink" contentStyleType="text/css" data-diagram-type="CLASS" height="118px" preserveAspectRatio="none" style="width:284px;height:118px;background:#FFFFFF;" version="1.1" viewBox="0 0 284 118" width="284px" zoomAndPan="magnify"><defs/><g><!--class Calculator--><g class="entity" data-entity="Calculator" data-source-line="3" data-uid="ent0002" id="entity_Calculator"><rect fill="#FFFFFF" height="92.8906" rx="2.5" ry="2.5" style="stroke:#000000;stroke-width:1;" width="258.2881" x="12" y="12"/><ellipse cx="101.8472" cy="26" fill="#FFFFFF" rx="9" ry="9" style="stroke:#000000;stroke-width:1;"/><path d="M104.8159,31.6406 Q104.2378,31.9375 103.5972,32.0781 Q102.9565,32.2344 102.2534,32.2344 Q99.7534,32.2344 98.4253,30.5938 Q97.1128,28.9375 97.1128,25.8125 Q97.1128,22.6875 98.4253,21.0313 Q99.7534,19.375 102.2534,19.375 Q102.9565,19.375 103.5972,19.5313 Q104.2534,19.6875 104.8159,19.9844 L104.8159,22.7031 Q104.1909,22.125 103.5972,21.8594 Q103.0034,21.5781 102.3784,21.5781 Q101.0347,21.5781 100.3472,22.6563 Q99.6597,23.7188 99.6597,25.8125 Q99.6597,27.9063 100.3472,28.9844 Q101.0347,30.0469 102.3784,30.0469 Q103.0034,30.0469 103.5972,29.7813 Q104.1909,29.5 104.8159,28.9219 L104.8159,31.6406 Z " fill="#000000"/><text fill="#000000" font-family="Verdana" font-size="14" lengthAdjust="spacing" textLength="71.0938" x="119.3472" y="30.8467">Calculator</text><line style="stroke:#000000;stroke-width:1;" x1="13" x2="269.2881" y1="40" y2="40"/><line style="stroke:#000000;stroke-width:1;" x1="13" x2="269.2881" y1="48" y2="48"/><ellipse cx="23" cy="61.6484" fill="#FFFFFF" rx="3" ry="3" style="stroke:#000000;stroke-width:1;"/><text fill="#000000" font-family="Verdana" font-size="14" lengthAdjust="spacing" textLength="145.8994" x="30" y="64.9951">add(a: int, b: int): int</text><ellipse cx="23" cy="77.9453" fill="#FFFFFF" rx="3" ry="3" style="stroke:#000000;stroke-width:1;"/><text fill="#000000" font-family="Verdana" font-size="14" lengthAdjust="spacing" textLength="234.2881" x="30" y="81.292">add(a: double, b: double): double</text><ellipse cx="23" cy="94.2422" fill="#FFFFFF" rx="3" ry="3" style="stroke:#000000;stroke-width:1;"/><text fill="#000000" font-family="Verdana" font-size="14" lengthAdjust="spacing" textLength="189.916" x="30" y="97.5889">add(a: int, b: int, c: int): int</text></g><!--SRC=[Kop9ICrDLIZ8ISpCu-9ApaaiBbPmJin9Bir9BCalKgZcKb3GLaXCIT58j5B8p2lHKKW2qvfW4bao9RyqAISLB0zXQi8OE8pGKKX6DggM2m00]--></g></svg>