<svg xmlns="http://www.w3.org/2000/svg" xmlns:xlink="http://www.w3.org/1999/xlink" contentStyleType="text/css" data-diagram-type="CLASS" height="118px" preserveAspectRatio="none" style="width:284px;height:118px;background:#FFFFFF;" version="1.1" viewBox="0 0 284 118" width="284px" zoomAndPan="magnify"><defs/><g><!--class Calculator--><g class="entity" data-entity="Calculator" data-source-line="6" data-uid="ent0002" id="entity_Calculator"><rect fill="#FFFFFF" height="92.8906" rx="2.5" ry="2.5" style="stroke:#000000;stroke-width:1;" width="258.0186" x="12" y="12"/><ellipse cx="97.1357" cy="26" fill="#FFFFFF" rx="9" ry="9" style="stroke:#000000;stroke-width:1;"/><path d="M100.1045,31.6406 Q99.5264,31.9375 98.8857,32.0781 Q98.2451,32.2344 97.542,32.2344 Q95.042,32.2344 93.7139,30.5938 Q92.4014,28.9375 92.4014,25.8125 Q92.4014,22.6875 93.7139,21.0313 Q95.042,19.375 97.542,19.375 Q98.2451,19.375 98.8857,19.5313 Q99.542,19.6875 100.1045,19.9844 L100.1045,22.7031 Q99.4795,22.125 98.8857,21.8594 Q98.292,21.5781 97.667,21.5781 Q96.3232,21.5781 95.6357,22.6563 Q94.9482,23.7188 94.9482,25.8125 Q94.9482,27.9063 95.6357,28.9844 Q96.3232,30.0469 97.667,30.0469 Q98.292,30.0469 98.8857,29.7813 Q99.4795,29.5 100.1045,28.9219 L100.1045,31.6406 Z " fill="#000000"/><text fill="#000000" font-family="Verdana" font-size="14" font-weight="bold" lengthAdjust="spacing" textLength="80.2471" x="114.6357" y="30.8467">Calculator</text><line style="stroke:#000000;stroke-width:1;" x1="13" x2="269.0186" y1="40" y2="40"/><line style="stroke:#000000;stroke-width:1;" x1="13" x2="269.0186" y1="48" y2="48"/><text fill="#000000" font-family="Verdana" font-size="14" lengthAdjust="spacing" textLength="157.6299" x="18" y="64.9951">+add(a: int, b: int): int</text><text fill="#000000" font-family="Verdana" font-size="14" lengthAdjust="spacing" textLength="246.0186" x="18" y="81.292">+add(a: double, b: double): double</text><text fill="#000000" font-family="Verdana" font-size="14" lengthAdjust="spacing" textLength="201.6465" x="18" y="97.5889">+add(a: int, b: int, c: int): int</text></g><!--SRC=[TOon2W8n44Jx_Ogny_0AQpiH1ElxWasoO70lEP9DeUA_2n7X46nc7ZF3REmgis1HZecetc9QkF0ChrphqQn4rqmkFgSfFWJxtyav9vlihWANDH3r42TMtvGj5pm9s853sF81CTa8rttekYv3RawbznySll3dOeHVNxs8w0q0]--></g></svg>