<svg xmlns="http://www.w3.org/2000/svg" xmlns:xlink="http://www.w3.org/1999/xlink" contentStyleType="text/css" data-diagram-type="CLASS" height="144px" preserveAspectRatio="none" style="width:280px;height:144px;background:#FFFFFF;" version="1.1" viewBox="0 0 280 144" width="280px" zoomAndPan="magnify"><defs/><g><!--class Cat--><g class="entity" data-entity="Cat" data-source-line="6" data-uid="ent0002" id="entity_Cat"><rect fill="#FFFFFF" height="125.4844" rx="2.5" ry="2.5" style="stroke:#000000;stroke-width:1;" width="115.7148" x="12" y="12"/><ellipse cx="52.9004" cy="26" fill="#FFFFFF" rx="9" ry="9" style="stroke:#000000;stroke-width:1;"/><path d="M55.8691,31.6406 Q55.291,31.9375 54.6504,32.0781 Q54.0098,32.2344 53.3066,32.2344 Q50.8066,32.2344 49.4785,30.5938 Q48.166,28.9375 48.166,25.8125 Q48.166,22.6875 49.4785,21.0313 Q50.8066,19.375 53.3066,19.375 Q54.0098,19.375 54.6504,19.5313 Q55.3066,19.6875 55.8691,19.9844 L55.8691,22.7031 Q55.2441,22.125 54.6504,21.8594 Q54.0566,21.5781 53.4316,21.5781 Q52.0879,21.5781 51.4004,22.6563 Q50.7129,23.7188 50.7129,25.8125 Q50.7129,27.9063 51.4004,28.9844 Q52.0879,30.0469 53.4316,30.0469 Q54.0566,30.0469 54.6504,29.7813 Q55.2441,29.5 55.8691,28.9219 L55.8691,31.6406 Z " fill="#000000"/><text fill="#000000" font-family="Verdana" font-size="14" font-weight="bold" lengthAdjust="spacing" textLength="26.4141" x="70.4004" y="30.8467">Cat</text><line style="stroke:#000000;stroke-width:1;" x1="13" x2="126.7148" y1="40" y2="40"/><text fill="#000000" font-family="Verdana" font-size="14" lengthAdjust="spacing" textLength="95.7031" x="18" y="56.9951">-name: String</text><text fill="#000000" font-family="Verdana" font-size="14" lengthAdjust="spacing" textLength="58.5498" x="18" y="73.292">-age: int</text><line style="stroke:#000000;stroke-width:1;" x1="13" x2="126.7148" y1="80.5938" y2="80.5938"/><text fill="#000000" font-family="Verdana" font-size="14" lengthAdjust="spacing" textLength="84.1299" x="18" y="97.5889">+eat(): void</text><text fill="#000000" font-family="Verdana" font-size="14" lengthAdjust="spacing" textLength="98.7451" x="18" y="113.8857">+sleep(): void</text><text fill="#000000" font-family="Verdana" font-size="14" lengthAdjust="spacing" textLength="103.7148" x="18" y="130.1826">+meow(): void</text></g><!--class Dog--><g class="entity" data-entity="Dog" data-source-line="15" data-uid="ent0003" id="entity_Dog"><rect fill="#FFFFFF" height="125.4844" rx="2.5" ry="2.5" style="stroke:#000000;stroke-width:1;" width="110.7451" x="162.48" y="12"/><ellipse cx="198.648" cy="26" fill="#FFFFFF" rx="9" ry="9" style="stroke:#000000;stroke-width:1;"/><path d="M201.6167,31.6406 Q201.0386,31.9375 200.398,32.0781 Q199.7573,32.2344 199.0542,32.2344 Q196.5542,32.2344 195.2261,30.5938 Q193.9136,28.9375 193.9136,25.8125 Q193.9136,22.6875 195.2261,21.0313 Q196.5542,19.375 199.0542,19.375 Q199.7573,19.375 200.398,19.5313 Q201.0542,19.6875 201.6167,19.9844 L201.6167,22.7031 Q200.9917,22.125 200.398,21.8594 Q199.8042,21.5781 199.1792,21.5781 Q197.8355,21.5781 197.148,22.6563 Q196.4605,23.7188 196.4605,25.8125 Q196.4605,27.9063 197.148,28.9844 Q197.8355,30.0469 199.1792,30.0469 Q199.8042,30.0469 200.398,29.7813 Q200.9917,29.5 201.6167,28.9219 L201.6167,31.6406 Z " fill="#000000"/><text fill="#000000" font-family="Verdana" font-size="14" font-weight="bold" lengthAdjust="spacing" textLength="31.2607" x="215.7964" y="30.8467">Dog</text><line style="stroke:#000000;stroke-width:1;" x1="163.48" x2="272.2251" y1="40" y2="40"/><text fill="#000000" font-family="Verdana" font-size="14" lengthAdjust="spacing" textLength="95.7031" x="168.48" y="56.9951">-name: String</text><text fill="#000000" font-family="Verdana" font-size="14" lengthAdjust="spacing" textLength="58.5498" x="168.48" y="73.292">-age: int</text><line style="stroke:#000000;stroke-width:1;" x1="163.48" x2="272.2251" y1="80.5938" y2="80.5938"/><text fill="#000000" font-family="Verdana" font-size="14" lengthAdjust="spacing" textLength="84.1299" x="168.48" y="97.5889">+eat(): void</text><text fill="#000000" font-family="Verdana" font-size="14" lengthAdjust="spacing" textLength="98.7451" x="168.48" y="113.8857">+sleep(): void</text><text fill="#000000" font-family="Verdana" font-size="14" lengthAdjust="spacing" textLength="92.7773" x="168.48" y="130.1826">+bark(): void</text></g><!--SRC=[hOr12W8n34NtFKNSAJBWUdQY2AvxWdGcr39jMjgeg7XtQq5Hrsu2x_79cyc10a7ow5YfCZbEc370uB6KjKXsvYYq7o9hToLO_KvsaKNBnHEOw4UbceGD2jmKG0UCWNhGzG_R9j1MTYnFwEfP0g7C5psSeXiR5q-KlaoWU7wB-okoZVQV4ODv-eoe1m00]--></g></svg>