<svg xmlns="http://www.w3.org/2000/svg" xmlns:xlink="http://www.w3.org/1999/xlink" contentStyleType="text/css" data-diagram-type="CLASS" height="144px" preserveAspectRatio="none" style="width:284px;height:144px;background:#FFFFFF;" version="1.1" viewBox="0 0 284 144" width="284px" zoomAndPan="magnify"><defs/><g><!--class Cat--><g class="entity" data-entity="Cat" data-source-line="3" data-uid="ent0002" id="entity_Cat"><rect fill="#FFFFFF" height="125.4844" rx="2.5" ry="2.5" style="stroke:#000000;stroke-width:1;" width="115.9844" x="12" y="12"/><ellipse cx="54.3203" cy="26" fill="#FFFFFF" rx="9" ry="9" style="stroke:#000000;stroke-width:1;"/><path d="M57.2891,31.6406 Q56.7109,31.9375 56.0703,32.0781 Q55.4297,32.2344 54.7266,32.2344 Q52.2266,32.2344 50.8984,30.5938 Q49.5859,28.9375 49.5859,25.8125 Q49.5859,22.6875 50.8984,21.0313 Q52.2266,19.375 54.7266,19.375 Q55.4297,19.375 56.0703,19.5313 Q56.7266,19.6875 57.2891,19.9844 L57.2891,22.7031 Q56.6641,22.125 56.0703,21.8594 Q55.4766,21.5781 54.8516,21.5781 Q53.5078,21.5781 52.8203,22.6563 Q52.1328,23.7188 52.1328,25.8125 Q52.1328,27.9063 52.8203,28.9844 Q53.5078,30.0469 54.8516,30.0469 Q55.4766,30.0469 56.0703,29.7813 Q56.6641,29.5 57.2891,28.9219 L57.2891,31.6406 Z " fill="#000000"/><text fill="#000000" font-family="Verdana" font-size="14" lengthAdjust="spacing" textLength="23.8438" x="71.8203" y="30.8467">Cat</text><line style="stroke:#000000;stroke-width:1;" x1="13" x2="126.9844" y1="40" y2="40"/><rect fill="none" height="6" style="stroke:#000000;stroke-width:1;" width="6" x="20" y="50.6484"/><text fill="#000000" font-family="Verdana" font-size="14" lengthAdjust="spacing" textLength="90.6514" x="30" y="56.9951">name: String</text><rect fill="none" height="6" style="stroke:#000000;stroke-width:1;" width="6" x="20" y="66.9453"/><text fill="#000000" font-family="Verdana" font-size="14" lengthAdjust="spacing" textLength="53.498" x="30" y="73.292">age: int</text><line style="stroke:#000000;stroke-width:1;" x1="13" x2="126.9844" y1="80.5938" y2="80.5938"/><ellipse cx="23" cy="94.2422" fill="#FFFFFF" rx="3" ry="3" style="stroke:#000000;stroke-width:1;"/><text fill="#000000" font-family="Verdana" font-size="14" lengthAdjust="spacing" textLength="72.3994" x="30" y="97.5889">eat(): void</text><ellipse cx="23" cy="110.5391" fill="#FFFFFF" rx="3" ry="3" style="stroke:#000000;stroke-width:1;"/><text fill="#000000" font-family="Verdana" font-size="14" lengthAdjust="spacing" textLength="87.0146" x="30" y="113.8857">sleep(): void</text><ellipse cx="23" cy="126.8359" fill="#FFFFFF" rx="3" ry="3" style="stroke:#000000;stroke-width:1;"/><text fill="#000000" font-family="Verdana" font-size="14" lengthAdjust="spacing" textLength="91.9844" x="30" y="130.1826">meow(): void</text></g><!--class Dog--><g class="entity" data-entity="Dog" data-source-line="12" data-uid="ent0003" id="entity_Dog"><rect fill="#FFFFFF" height="125.4844" rx="2.5" ry="2.5" style="stroke:#000000;stroke-width:1;" width="114.6514" x="162.67" y="12"/><ellipse cx="202.1295" cy="26" fill="#FFFFFF" rx="9" ry="9" style="stroke:#000000;stroke-width:1;"/><path d="M205.0982,31.6406 Q204.5201,31.9375 203.8795,32.0781 Q203.2388,32.2344 202.5357,32.2344 Q200.0357,32.2344 198.7076,30.5938 Q197.3951,28.9375 197.3951,25.8125 Q197.3951,22.6875 198.7076,21.0313 Q200.0357,19.375 202.5357,19.375 Q203.2388,19.375 203.8795,19.5313 Q204.5357,19.6875 205.0982,19.9844 L205.0982,22.7031 Q204.4732,22.125 203.8795,21.8594 Q203.2857,21.5781 202.6607,21.5781 Q201.317,21.5781 200.6295,22.6563 Q199.942,23.7188 199.942,25.8125 Q199.942,27.9063 200.6295,28.9844 Q201.317,30.0469 202.6607,30.0469 Q203.2857,30.0469 203.8795,29.7813 Q204.4732,29.5 205.0982,28.9219 L205.0982,31.6406 Z " fill="#000000"/><text fill="#000000" font-family="Verdana" font-size="14" lengthAdjust="spacing" textLength="28.2324" x="219.6295" y="30.8467">Dog</text><line style="stroke:#000000;stroke-width:1;" x1="163.67" x2="276.3214" y1="40" y2="40"/><rect fill="none" height="6" style="stroke:#000000;stroke-width:1;" width="6" x="170.67" y="50.6484"/><text fill="#000000" font-family="Verdana" font-size="14" lengthAdjust="spacing" textLength="90.6514" x="180.67" y="56.9951">name: String</text><rect fill="none" height="6" style="stroke:#000000;stroke-width:1;" width="6" x="170.67" y="66.9453"/><text fill="#000000" font-family="Verdana" font-size="14" lengthAdjust="spacing" textLength="53.498" x="180.67" y="73.292">age: int</text><line style="stroke:#000000;stroke-width:1;" x1="163.67" x2="276.3214" y1="80.5938" y2="80.5938"/><ellipse cx="173.67" cy="94.2422" fill="#FFFFFF" rx="3" ry="3" style="stroke:#000000;stroke-width:1;"/><text fill="#000000" font-family="Verdana" font-size="14" lengthAdjust="spacing" textLength="72.3994" x="180.67" y="97.5889">eat(): void</text><ellipse cx="173.67" cy="110.5391" fill="#FFFFFF" rx="3" ry="3" style="stroke:#000000;stroke-width:1;"/><text fill="#000000" font-family="Verdana" font-size="14" lengthAdjust="spacing" textLength="87.0146" x="180.67" y="113.8857">sleep(): void</text><ellipse cx="173.67" cy="126.8359" fill="#FFFFFF" rx="3" ry="3" style="stroke:#000000;stroke-width:1;"/><text fill="#000000" font-family="Verdana" font-size="14" lengthAdjust="spacing" textLength="81.0469" x="180.67" y="130.1826">bark(): void</text></g><!--SRC=[Kop9ICrDLIZ8ISpCu-9ApaaiBbPmJYnHgEPIKD1Lo4lCJRLI22ufoinB1miafWFvcNab88ukaD1MI4qiqT2qKYZBpqm1yujpKbCBK4HoK_FBuGArC4jSyjEfQKbIOb4saYK0]--></g></svg>