<svg xmlns="http://www.w3.org/2000/svg" xmlns:xlink="http://www.w3.org/1999/xlink" contentStyleType="text/css" data-diagram-type="CLASS" height="118px" preserveAspectRatio="none" style="width:202px;height:118px;background:#FFFFFF;" version="1.1" viewBox="0 0 202 118" width="202px" zoomAndPan="magnify"><defs/><g><!--class Circle--><g class="entity" data-entity="Circle" data-source-line="3" data-uid="ent0002" id="entity_Circle"><rect fill="#FFFFFF" height="92.8906" rx="2.5" ry="2.5" style="stroke:#000000;stroke-width:1;" width="176.585" x="12" y="12"/><ellipse cx="76.7319" cy="26" fill="#FFFFFF" rx="9" ry="9" style="stroke:#000000;stroke-width:1;"/><path d="M79.7007,31.6406 Q79.1226,31.9375 78.4819,32.0781 Q77.8413,32.2344 77.1382,32.2344 Q74.6382,32.2344 73.3101,30.5938 Q71.9976,28.9375 71.9976,25.8125 Q71.9976,22.6875 73.3101,21.0313 Q74.6382,19.375 77.1382,19.375 Q77.8413,19.375 78.4819,19.5313 Q79.1382,19.6875 79.7007,19.9844 L79.7007,22.7031 Q79.0757,22.125 78.4819,21.8594 Q77.8882,21.5781 77.2632,21.5781 Q75.9194,21.5781 75.2319,22.6563 Q74.5444,23.7188 74.5444,25.8125 Q74.5444,27.9063 75.2319,28.9844 Q75.9194,30.0469 77.2632,30.0469 Q77.8882,30.0469 78.4819,29.7813 Q79.0757,29.5 79.7007,28.9219 L79.7007,31.6406 Z " fill="#000000"/><text fill="#000000" font-family="Verdana" font-size="14" lengthAdjust="spacing" textLength="39.6211" x="94.2319" y="30.8467">Circle</text><line style="stroke:#000000;stroke-width:1;" x1="13" x2="187.585" y1="40" y2="40"/><rect fill="none" height="6" style="stroke:#000000;stroke-width:1;" width="6" x="20" y="50.6484"/><text fill="#000000" font-family="Verdana" font-size="14" lengthAdjust="spacing" textLength="152.585" x="30" y="56.9951">radius: double {final}</text><line style="stroke:#000000;stroke-width:1;" x1="13" x2="187.585" y1="64.2969" y2="64.2969"/><ellipse cx="23" cy="77.9453" fill="#FFFFFF" rx="3" ry="3" style="stroke:#000000;stroke-width:1;"/><text fill="#000000" font-family="Verdana" font-size="14" lengthAdjust="spacing" textLength="150.7051" x="30" y="81.292">Circle(radius: double)</text><ellipse cx="23" cy="94.2422" fill="#FFFFFF" rx="3" ry="3" style="stroke:#000000;stroke-width:1;"/><text fill="#000000" font-family="Verdana" font-size="14" lengthAdjust="spacing" textLength="138.0449" x="30" y="97.5889">getRadius(): double</text></g><!--SRC=[Kop9ICrDLIZ8ISpCu-9ApaaiBbPmpYnApabLgEPIKD1LA4fCoImjjb98oIzD0WccPUObvjI2f7I1X3PKiGQgCasmL7fgIH1OM4CJ9i5LomK0]--></g></svg>