<svg xmlns="http://www.w3.org/2000/svg" xmlns:xlink="http://www.w3.org/1999/xlink" contentStyleType="text/css" data-diagram-type="CLASS" height="118px" preserveAspectRatio="none" style="width:200px;height:118px;background:#FFFFFF;" version="1.1" viewBox="0 0 200 118" width="200px" zoomAndPan="magnify"><defs/><g><!--class Circle--><g class="entity" data-entity="Circle" data-source-line="6" data-uid="ent0002" id="entity_Circle"><rect fill="#FFFFFF" height="92.8906" rx="2.5" ry="2.5" style="stroke:#000000;stroke-width:1;" width="174.4355" x="12" y="12"/><ellipse cx="73.1826" cy="26" fill="#FFFFFF" rx="9" ry="9" style="stroke:#000000;stroke-width:1;"/><path d="M76.1514,31.6406 Q75.5732,31.9375 74.9326,32.0781 Q74.292,32.2344 73.5889,32.2344 Q71.0889,32.2344 69.7607,30.5938 Q68.4482,28.9375 68.4482,25.8125 Q68.4482,22.6875 69.7607,21.0313 Q71.0889,19.375 73.5889,19.375 Q74.292,19.375 74.9326,19.5313 Q75.5889,19.6875 76.1514,19.9844 L76.1514,22.7031 Q75.5264,22.125 74.9326,21.8594 Q74.3389,21.5781 73.7139,21.5781 Q72.3701,21.5781 71.6826,22.6563 Q70.9951,23.7188 70.9951,25.8125 Q70.9951,27.9063 71.6826,28.9844 Q72.3701,30.0469 73.7139,30.0469 Q74.3389,30.0469 74.9326,29.7813 Q75.5264,29.5 76.1514,28.9219 L76.1514,31.6406 Z " fill="#000000"/><text fill="#000000" font-family="Verdana" font-size="14" font-weight="bold" lengthAdjust="spacing" textLength="44.5703" x="90.6826" y="30.8467">Circle</text><line style="stroke:#000000;stroke-width:1;" x1="13" x2="185.4355" y1="40" y2="40"/><text fill="#000000" font-family="Verdana" font-size="14" lengthAdjust="spacing" textLength="157.6367" x="18" y="56.9951">-radius: double {final}</text><line style="stroke:#000000;stroke-width:1;" x1="13" x2="185.4355" y1="64.2969" y2="64.2969"/><text fill="#000000" font-family="Verdana" font-size="14" lengthAdjust="spacing" textLength="162.4355" x="18" y="81.292">+Circle(radius: double)</text><text fill="#000000" font-family="Verdana" font-size="14" lengthAdjust="spacing" textLength="149.7754" x="18" y="97.5889">+getRadius(): double</text></g><!--SRC=[NOen3i8m301tly9ihL0bPZQ4XCHAN-0a1YpIf4gSeQ3-dJQ20PORxcwZTnuOHqyI0F93maY91hIUSZwe9Z55-MnZwEN9kFjVJZ5ehvDdDD4xW2hnACakwWM87IPoKl8UNIncbLS9vESrTGksdxdvtTgQRgoNgfls6s06W3S0]--></g></svg>