<svg xmlns="http://www.w3.org/2000/svg" xmlns:xlink="http://www.w3.org/1999/xlink" contentStyleType="text/css" data-diagram-type="CLASS" height="678px" preserveAspectRatio="none" style="width:1553px;height:678px;background:#FFFFFF;" version="1.1" viewBox="0 0 1553 678" width="1553px" zoomAndPan="magnify"><defs/><g><!--class PlantBase--><g class="entity" data-entity="PlantBase" data-source-line="6" data-uid="ent0002" id="entity_PlantBase"><rect fill="#FFFFFF" height="337.3438" rx="2.5" ry="2.5" style="stroke:#000000;stroke-width:1;" width="340.6855" x="560.44" y="132.29"/><ellipse cx="687.4766" cy="146.29" fill="#FFFFFF" rx="9" ry="9" style="stroke:#000000;stroke-width:1;"/><path d="M687.586,141.6337 L686.4297,146.7119 L688.7579,146.7119 L687.586,141.6337 Z M686.1016,139.3994 L689.086,139.3994 L692.4454,151.79 L689.9922,151.79 L689.2266,148.7275 L685.9454,148.7275 L685.1954,151.79 L682.7579,151.79 L686.1016,139.3994 Z " fill="#000000"/><text fill="#000000" font-family="Verdana" font-size="14" font-style="italic" font-weight="bold" lengthAdjust="spacing" textLength="79.1123" x="704.9766" y="151.1367">PlantBase</text><line style="stroke:#000000;stroke-width:1;" x1="561.44" x2="900.1255" y1="160.29" y2="160.29"/><text fill="#000000" font-family="Verdana" font-size="14" lengthAdjust="spacing" textLength="102.3818" x="566.44" y="177.2851">#name: String</text><text fill="#000000" font-family="Verdana" font-size="14" lengthAdjust="spacing" textLength="114.9668" x="566.44" y="193.582">#species: String</text><text fill="#000000" font-family="Verdana" font-size="14" lengthAdjust="spacing" textLength="153.5078" x="566.44" y="209.8789">#plantingDate: String</text><text fill="#000000" font-family="Verdana" font-size="14" lengthAdjust="spacing" textLength="95.7578" x="566.44" y="226.1757">#size: double</text><text fill="#000000" font-family="Verdana" font-size="14" lengthAdjust="spacing" textLength="160.0977" x="566.44" y="242.4726">#isHarvested: boolean</text><line style="stroke:#000000;stroke-width:1;" x1="561.44" x2="900.1255" y1="249.7744" y2="249.7744"/><text fill="#000000" font-family="Verdana" font-size="14" lengthAdjust="spacing" textLength="328.6855" x="566.44" y="266.7695">+PlantBase(name, species, plantingDate, size)</text><text fill="#000000" font-family="Verdana" font-size="14" lengthAdjust="spacing" textLength="137.8945" x="566.44" y="283.0664">+getName(): String</text><text fill="#000000" font-family="Verdana" font-size="14" lengthAdjust="spacing" textLength="150.4727" x="566.44" y="299.3632">+getSpecies(): String</text><text fill="#000000" font-family="Verdana" font-size="14" lengthAdjust="spacing" textLength="186.9766" x="566.44" y="315.6601">+getPlantingDate(): String</text><text fill="#000000" font-family="Verdana" font-size="14" lengthAdjust="spacing" textLength="131.2637" x="566.44" y="331.957">+getSize(): double</text><text fill="#000000" font-family="Verdana" font-size="14" lengthAdjust="spacing" textLength="171.0215" x="566.44" y="348.2539">+isHarvested(): boolean</text><text fill="#000000" font-family="Verdana" font-size="14" lengthAdjust="spacing" textLength="163.8506" x="566.44" y="364.5507">+setName(name): void</text><text fill="#000000" font-family="Verdana" font-size="14" lengthAdjust="spacing" textLength="189.0137" x="566.44" y="380.8476">+setSpecies(species): void</text><text fill="#000000" font-family="Verdana" font-size="14" lengthAdjust="spacing" textLength="138.7285" x="566.44" y="397.1445">+setSize(size): void</text><text fill="#000000" font-family="Verdana" font-size="14" lengthAdjust="spacing" textLength="264.0586" x="566.44" y="413.4414">+setPlantingDate(plantingDate): void</text><text fill="#000000" font-family="Verdana" font-size="14" lengthAdjust="spacing" textLength="114.3379" x="566.44" y="429.7382">+harvest(): void</text><text fill="#000000" font-family="Verdana" font-size="14" font-style="italic" lengthAdjust="spacing" textLength="137.6553" x="566.44" y="446.0351">+displayInfo(): void</text><text fill="#000000" font-family="Verdana" font-size="14" font-style="italic" lengthAdjust="spacing" textLength="166.2021" x="566.44" y="462.332">+getPlantType(): String</text></g><!--class VegetablePlant--><g class="entity" data-entity="VegetablePlant" data-source-line="28" data-uid="ent0003" id="entity_VegetablePlant"><rect fill="#FFFFFF" height="141.7813" rx="2.5" ry="2.5" style="stroke:#000000;stroke-width:1;" width="485.5596" x="12" y="529.64"/><ellipse cx="190.2959" cy="543.64" fill="#FFFFFF" rx="9" ry="9" style="stroke:#000000;stroke-width:1;"/><path d="M193.2646,549.2806 Q192.6865,549.5775 192.0459,549.7181 Q191.4053,549.8744 190.7021,549.8744 Q188.2021,549.8744 186.874,548.2338 Q185.5615,546.5775 185.5615,543.4525 Q185.5615,540.3275 186.874,538.6713 Q188.2021,537.015 190.7021,537.015 Q191.4053,537.015 192.0459,537.1713 Q192.7021,537.3275 193.2646,537.6244 L193.2646,540.3431 Q192.6396,539.765 192.0459,539.4994 Q191.4521,539.2181 190.8271,539.2181 Q189.4834,539.2181 188.7959,540.2963 Q188.1084,541.3588 188.1084,543.4525 Q188.1084,545.5463 188.7959,546.6244 Q189.4834,547.6869 190.8271,547.6869 Q191.4521,547.6869 192.0459,547.4213 Q192.6396,547.14 193.2646,546.5619 L193.2646,549.2806 Z " fill="#000000"/><text fill="#000000" font-family="Verdana" font-size="14" font-weight="bold" lengthAdjust="spacing" textLength="121.4678" x="207.7959" y="548.4867">VegetablePlant</text><line style="stroke:#000000;stroke-width:1;" x1="13" x2="496.5596" y1="557.64" y2="557.64"/><text fill="#000000" font-family="Verdana" font-size="14" lengthAdjust="spacing" textLength="131.3867" x="18" y="574.6351">-expectedYield: int</text><line style="stroke:#000000;stroke-width:1;" x1="13" x2="496.5596" y1="581.9369" y2="581.9369"/><text fill="#000000" font-family="Verdana" font-size="14" lengthAdjust="spacing" textLength="473.5596" x="18" y="598.932">+VegetablePlant(name, species, plantingDate, size, expectedYield)</text><text fill="#000000" font-family="Verdana" font-size="14" lengthAdjust="spacing" textLength="172.2109" x="18" y="615.2289">+getExpectedYield(): int</text><text fill="#000000" font-family="Verdana" font-size="14" lengthAdjust="spacing" textLength="280.9092" x="18" y="631.5257">+setExpectedYield(expectedYield): void</text><text fill="#000000" font-family="Verdana" font-size="14" lengthAdjust="spacing" textLength="137.6553" x="18" y="647.8226">+displayInfo(): void</text><text fill="#000000" font-family="Verdana" font-size="14" lengthAdjust="spacing" textLength="166.2021" x="18" y="664.1195">+getPlantType(): String</text></g><!--class FlowerPlant--><g class="entity" data-entity="FlowerPlant" data-source-line="38" data-uid="ent0004" id="entity_FlowerPlant"><rect fill="#FFFFFF" height="141.7813" rx="2.5" ry="2.5" style="stroke:#000000;stroke-width:1;" width="396.2959" x="532.63" y="529.64"/><ellipse cx="679.7882" cy="543.64" fill="#FFFFFF" rx="9" ry="9" style="stroke:#000000;stroke-width:1;"/><path d="M682.757,549.2806 Q682.1788,549.5775 681.5382,549.7181 Q680.8976,549.8744 680.1945,549.8744 Q677.6945,549.8744 676.3663,548.2338 Q675.0538,546.5775 675.0538,543.4525 Q675.0538,540.3275 676.3663,538.6713 Q677.6945,537.015 680.1945,537.015 Q680.8976,537.015 681.5382,537.1713 Q682.1945,537.3275 682.757,537.6244 L682.757,540.3431 Q682.132,539.765 681.5382,539.4994 Q680.9445,539.2181 680.3195,539.2181 Q678.9757,539.2181 678.2882,540.2963 Q677.6007,541.3588 677.6007,543.4525 Q677.6007,545.5463 678.2882,546.6244 Q678.9757,547.6869 680.3195,547.6869 Q680.9445,547.6869 681.5382,547.4213 Q682.132,547.14 682.757,546.5619 L682.757,549.2806 Z " fill="#000000"/><text fill="#000000" font-family="Verdana" font-size="14" font-weight="bold" lengthAdjust="spacing" textLength="94.4795" x="697.2882" y="548.4867">FlowerPlant</text><line style="stroke:#000000;stroke-width:1;" x1="533.63" x2="927.9259" y1="557.64" y2="557.64"/><text fill="#000000" font-family="Verdana" font-size="14" lengthAdjust="spacing" textLength="90.4736" x="538.63" y="574.6351">-color: String</text><line style="stroke:#000000;stroke-width:1;" x1="533.63" x2="927.9259" y1="581.9369" y2="581.9369"/><text fill="#000000" font-family="Verdana" font-size="14" lengthAdjust="spacing" textLength="384.2959" x="538.63" y="598.932">+FlowerPlant(name, species, plantingDate, size, color)</text><text fill="#000000" font-family="Verdana" font-size="14" lengthAdjust="spacing" textLength="133.1436" x="538.63" y="615.2289">+getColor(): String</text><text fill="#000000" font-family="Verdana" font-size="14" lengthAdjust="spacing" textLength="153.8701" x="538.63" y="631.5257">+setColor(color): void</text><text fill="#000000" font-family="Verdana" font-size="14" lengthAdjust="spacing" textLength="137.6553" x="538.63" y="647.8226">+displayInfo(): void</text><text fill="#000000" font-family="Verdana" font-size="14" lengthAdjust="spacing" textLength="166.2021" x="538.63" y="664.1195">+getPlantType(): String</text></g><!--class TreePlant--><g class="entity" data-entity="TreePlant" data-source-line="48" data-uid="ent0005" id="entity_TreePlant"><rect fill="#FFFFFF" height="141.7813" rx="2.5" ry="2.5" style="stroke:#000000;stroke-width:1;" width="421.8076" x="963.88" y="529.64"/><ellipse cx="1132.7286" cy="543.64" fill="#FFFFFF" rx="9" ry="9" style="stroke:#000000;stroke-width:1;"/><path d="M1135.6974,549.2806 Q1135.1193,549.5775 1134.4786,549.7181 Q1133.838,549.8744 1133.1349,549.8744 Q1130.6349,549.8744 1129.3068,548.2338 Q1127.9943,546.5775 1127.9943,543.4525 Q1127.9943,540.3275 1129.3068,538.6713 Q1130.6349,537.015 1133.1349,537.015 Q1133.838,537.015 1134.4786,537.1713 Q1135.1349,537.3275 1135.6974,537.6244 L1135.6974,540.3431 Q1135.0724,539.765 1134.4786,539.4994 Q1133.8849,539.2181 1133.2599,539.2181 Q1131.9161,539.2181 1131.2286,540.2963 Q1130.5411,541.3588 1130.5411,543.4525 Q1130.5411,545.5463 1131.2286,546.6244 Q1131.9161,547.6869 1133.2599,547.6869 Q1133.8849,547.6869 1134.4786,547.4213 Q1135.0724,547.14 1135.6974,546.5619 L1135.6974,549.2806 Z " fill="#000000"/><text fill="#000000" font-family="Verdana" font-size="14" font-weight="bold" lengthAdjust="spacing" textLength="76.6104" x="1150.2286" y="548.4867">TreePlant</text><line style="stroke:#000000;stroke-width:1;" x1="964.88" x2="1384.6876" y1="557.64" y2="557.64"/><text fill="#000000" font-family="Verdana" font-size="14" lengthAdjust="spacing" textLength="144.9697" x="969.88" y="574.6351">-isFruitTree: boolean</text><line style="stroke:#000000;stroke-width:1;" x1="964.88" x2="1384.6876" y1="581.9369" y2="581.9369"/><text fill="#000000" font-family="Verdana" font-size="14" lengthAdjust="spacing" textLength="409.8076" x="969.88" y="598.932">+TreePlant(name, species, plantingDate, size, isFruitTree)</text><text fill="#000000" font-family="Verdana" font-size="14" lengthAdjust="spacing" textLength="162.5723" x="969.88" y="615.2289">+isFruitTree(): boolean</text><text fill="#000000" font-family="Verdana" font-size="14" lengthAdjust="spacing" textLength="221.2178" x="969.88" y="631.5257">+setFruitTree(isFruitTree): void</text><text fill="#000000" font-family="Verdana" font-size="14" lengthAdjust="spacing" textLength="137.6553" x="969.88" y="647.8226">+displayInfo(): void</text><text fill="#000000" font-family="Verdana" font-size="14" lengthAdjust="spacing" textLength="166.2021" x="969.88" y="664.1195">+getPlantType(): String</text></g><!--class Plot--><g class="entity" data-entity="Plot" data-source-line="58" data-uid="ent0006" id="entity_Plot"><rect fill="#FFFFFF" height="223.2656" rx="2.5" ry="2.5" style="stroke:#000000;stroke-width:1;" width="216.1758" x="935.69" y="189.33"/><ellipse cx="1024.3428" cy="203.33" fill="#FFFFFF" rx="9" ry="9" style="stroke:#000000;stroke-width:1;"/><path d="M1027.3116,208.9706 Q1026.7335,209.2675 1026.0928,209.4081 Q1025.4522,209.5644 1024.7491,209.5644 Q1022.2491,209.5644 1020.921,207.9237 Q1019.6085,206.2675 1019.6085,203.1425 Q1019.6085,200.0175 1020.921,198.3612 Q1022.2491,196.705 1024.7491,196.705 Q1025.4522,196.705 1026.0928,196.8612 Q1026.7491,197.0175 1027.3116,197.3144 L1027.3116,200.0331 Q1026.6866,199.455 1026.0928,199.1894 Q1025.4991,198.9081 1024.8741,198.9081 Q1023.5303,198.9081 1022.8428,199.9862 Q1022.1553,201.0487 1022.1553,203.1425 Q1022.1553,205.2362 1022.8428,206.3144 Q1023.5303,207.3769 1024.8741,207.3769 Q1025.4991,207.3769 1026.0928,207.1112 Q1026.6866,206.83 1027.3116,206.2519 L1027.3116,208.9706 Z " fill="#000000"/><text fill="#000000" font-family="Verdana" font-size="14" font-weight="bold" lengthAdjust="spacing" textLength="31.3701" x="1041.8428" y="208.1767">Plot</text><line style="stroke:#000000;stroke-width:1;" x1="936.69" x2="1150.8658" y1="217.33" y2="217.33"/><text fill="#000000" font-family="Verdana" font-size="14" lengthAdjust="spacing" textLength="87.1104" x="941.69" y="234.3251">-number: int</text><text fill="#000000" font-family="Verdana" font-size="14" lengthAdjust="spacing" textLength="89.0791" x="941.69" y="250.622">-size: double</text><text fill="#000000" font-family="Verdana" font-size="14" lengthAdjust="spacing" textLength="111.5488" x="941.69" y="266.9189">-location: String</text><line style="stroke:#000000;stroke-width:1;" x1="936.69" x2="1150.8658" y1="274.2206" y2="274.2206"/><text fill="#000000" font-family="Verdana" font-size="14" lengthAdjust="spacing" textLength="204.1758" x="941.69" y="291.2157">+Plot(number, size, location)</text><text fill="#000000" font-family="Verdana" font-size="14" lengthAdjust="spacing" textLength="129.3018" x="941.69" y="307.5126">+getNumber(): int</text><text fill="#000000" font-family="Verdana" font-size="14" lengthAdjust="spacing" textLength="131.2637" x="941.69" y="323.8095">+getSize(): double</text><text fill="#000000" font-family="Verdana" font-size="14" lengthAdjust="spacing" textLength="156.0508" x="941.69" y="340.1064">+getLocation(): String</text><text fill="#000000" font-family="Verdana" font-size="14" lengthAdjust="spacing" textLength="193.7236" x="941.69" y="356.4032">+setNumber(number): void</text><text fill="#000000" font-family="Verdana" font-size="14" lengthAdjust="spacing" textLength="138.7285" x="941.69" y="372.7001">+setSize(size): void</text><text fill="#000000" font-family="Verdana" font-size="14" lengthAdjust="spacing" textLength="197.8525" x="941.69" y="388.997">+setLocation(location): void</text><text fill="#000000" font-family="Verdana" font-size="14" lengthAdjust="spacing" textLength="137.6553" x="941.69" y="405.2939">+displayInfo(): void</text></g><!--class Gardener--><g class="entity" data-entity="Gardener" data-source-line="73" data-uid="ent0007" id="entity_Gardener"><rect fill="#FFFFFF" height="223.2656" rx="2.5" ry="2.5" style="stroke:#000000;stroke-width:1;" width="360.209" x="1186.68" y="189.33"/><ellipse cx="1326.1717" cy="203.33" fill="#FFFFFF" rx="9" ry="9" style="stroke:#000000;stroke-width:1;"/><path d="M1329.1404,208.9706 Q1328.5623,209.2675 1327.9217,209.4081 Q1327.2811,209.5644 1326.5779,209.5644 Q1324.0779,209.5644 1322.7498,207.9237 Q1321.4373,206.2675 1321.4373,203.1425 Q1321.4373,200.0175 1322.7498,198.3612 Q1324.0779,196.705 1326.5779,196.705 Q1327.2811,196.705 1327.9217,196.8612 Q1328.5779,197.0175 1329.1404,197.3144 L1329.1404,200.0331 Q1328.5154,199.455 1327.9217,199.1894 Q1327.3279,198.9081 1326.7029,198.9081 Q1325.3592,198.9081 1324.6717,199.9862 Q1323.9842,201.0487 1323.9842,203.1425 Q1323.9842,205.2362 1324.6717,206.3144 Q1325.3592,207.3769 1326.7029,207.3769 Q1327.3279,207.3769 1327.9217,207.1112 Q1328.5154,206.83 1329.1404,206.2519 L1329.1404,208.9706 Z " fill="#000000"/><text fill="#000000" font-family="Verdana" font-size="14" font-weight="bold" lengthAdjust="spacing" textLength="73.7256" x="1343.6717" y="208.1767">Gardener</text><line style="stroke:#000000;stroke-width:1;" x1="1187.68" x2="1545.889" y1="217.33" y2="217.33"/><text fill="#000000" font-family="Verdana" font-size="14" lengthAdjust="spacing" textLength="95.7031" x="1192.68" y="234.3251">-name: String</text><text fill="#000000" font-family="Verdana" font-size="14" lengthAdjust="spacing" textLength="94.6094" x="1192.68" y="250.622">-email: String</text><text fill="#000000" font-family="Verdana" font-size="14" lengthAdjust="spacing" textLength="165.0195" x="1192.68" y="266.9189">-yearsOfExperience: int</text><line style="stroke:#000000;stroke-width:1;" x1="1187.68" x2="1545.889" y1="274.2206" y2="274.2206"/><text fill="#000000" font-family="Verdana" font-size="14" lengthAdjust="spacing" textLength="317.2422" x="1192.68" y="291.2157">+Gardener(name, email, yearsOfExperience)</text><text fill="#000000" font-family="Verdana" font-size="14" lengthAdjust="spacing" textLength="137.8945" x="1192.68" y="307.5126">+getName(): String</text><text fill="#000000" font-family="Verdana" font-size="14" lengthAdjust="spacing" textLength="135.4336" x="1192.68" y="323.8095">+getEmail(): String</text><text fill="#000000" font-family="Verdana" font-size="14" lengthAdjust="spacing" textLength="205.8779" x="1192.68" y="340.1064">+getYearsOfExperience(): int</text><text fill="#000000" font-family="Verdana" font-size="14" lengthAdjust="spacing" textLength="163.8506" x="1192.68" y="356.4032">+setName(name): void</text><text fill="#000000" font-family="Verdana" font-size="14" lengthAdjust="spacing" textLength="160.2959" x="1192.68" y="372.7001">+setEmail(email): void</text><text fill="#000000" font-family="Verdana" font-size="14" lengthAdjust="spacing" textLength="348.209" x="1192.68" y="388.997">+setYearsOfExperience(yearsOfExperience): void</text><text fill="#000000" font-family="Verdana" font-size="14" lengthAdjust="spacing" textLength="137.6553" x="1192.68" y="405.2939">+displayInfo(): void</text></g><!--class GardenManagementSystem--><g class="entity" data-entity="GardenManagementSystem" data-source-line="88" data-uid="ent0008" id="entity_GardenManagementSystem"><rect fill="#FFFFFF" height="60.2969" rx="2.5" ry="2.5" style="stroke:#000000;stroke-width:1;" width="246.6953" x="920.43" y="12"/><ellipse cx="933.43" cy="26" fill="#FFFFFF" rx="9" ry="9" style="stroke:#000000;stroke-width:1;"/><path d="M936.3988,31.6406 Q935.8206,31.9375 935.18,32.0781 Q934.5394,32.2344 933.8363,32.2344 Q931.3363,32.2344 930.0081,30.5938 Q928.6956,28.9375 928.6956,25.8125 Q928.6956,22.6875 930.0081,21.0313 Q931.3363,19.375 933.8363,19.375 Q934.5394,19.375 935.18,19.5313 Q935.8363,19.6875 936.3988,19.9844 L936.3988,22.7031 Q935.7738,22.125 935.18,21.8594 Q934.5863,21.5781 933.9613,21.5781 Q932.6175,21.5781 931.93,22.6563 Q931.2425,23.7188 931.2425,25.8125 Q931.2425,27.9063 931.93,28.9844 Q932.6175,30.0469 933.9613,30.0469 Q934.5863,30.0469 935.18,29.7813 Q935.7738,29.5 936.3988,28.9219 L936.3988,31.6406 Z " fill="#000000"/><text fill="#000000" font-family="Verdana" font-size="14" font-weight="bold" lengthAdjust="spacing" textLength="218.6953" x="945.43" y="30.8467">GardenManagementSystem</text><line style="stroke:#000000;stroke-width:1;" x1="921.43" x2="1166.1253" y1="40" y2="40"/><line style="stroke:#000000;stroke-width:1;" x1="921.43" x2="1166.1253" y1="48" y2="48"/><text fill="#000000" font-family="Verdana" font-size="14" lengthAdjust="spacing" text-decoration="underline" textLength="188.8154" x="926.43" y="64.9951">+main(args: String[]): void</text></g><!--reverse link PlantBase to VegetablePlant--><g class="link" data-entity-1="PlantBase" data-entity-2="VegetablePlant" data-source-line="92" data-uid="lnk9" id="link_PlantBase_VegetablePlant"><path codeLine="92" d="M544.677,418.3015 C480.547,458.3915 424.6,493.37 367.1,529.31" fill="none" id="PlantBase-backto-VegetablePlant" style="stroke:#000000;stroke-width:1;"/><polygon fill="none" points="559.94,408.76,541.4965,413.2138,547.8575,423.3892,559.94,408.76" style="stroke:#000000;stroke-width:1;"/></g><!--reverse link PlantBase to FlowerPlant--><g class="link" data-entity-1="PlantBase" data-entity-2="FlowerPlant" data-source-line="93" data-uid="lnk10" id="link_PlantBase_FlowerPlant"><path codeLine="93" d="M730.78,487.88 C730.78,508.71 730.78,511.03 730.78,529.17" fill="none" id="PlantBase-backto-FlowerPlant" style="stroke:#000000;stroke-width:1;"/><polygon fill="none" points="730.78,469.88,724.78,487.88,736.78,487.88,730.78,469.88" style="stroke:#000000;stroke-width:1;"/></g><!--reverse link PlantBase to TreePlant--><g class="link" data-entity-1="PlantBase" data-entity-2="TreePlant" data-source-line="94" data-uid="lnk11" id="link_PlantBase_TreePlant"><path codeLine="94" d="M916.0981,468.797 C921.4981,472.747 912.38,465.95 917.78,469.64 C949.25,491.15 984.78,511.36 1019.15,529.15" fill="none" id="PlantBase-backto-TreePlant" style="stroke:#000000;stroke-width:1;"/><polygon fill="none" points="901.57,458.17,912.5558,473.6397,919.6405,463.9543,901.57,458.17" style="stroke:#000000;stroke-width:1;"/></g><!--link GardenManagementSystem to PlantBase--><g class="link" data-entity-1="GardenManagementSystem" data-entity-2="PlantBase" data-source-line="96" data-uid="lnk12" id="link_GardenManagementSystem_PlantBase"><path codeLine="96" d="M999.43,72.68 C974.86,89.49 944.07,111.32 917.78,132.29 C912.41,136.58 911.6358,137.1608 906.1958,141.6308" fill="none" id="GardenManagementSystem-to-PlantBase" style="stroke:#000000;stroke-width:1;stroke-dasharray:7,7;"/><polygon fill="#000000" points="901.56,145.44,911.0531,142.8168,905.4231,142.2657,905.9742,136.6357,901.56,145.44" style="stroke:#000000;stroke-width:1;"/></g><!--link GardenManagementSystem to Plot--><g class="link" data-entity-1="GardenManagementSystem" data-entity-2="Plot" data-source-line="97" data-uid="lnk13" id="link_GardenManagementSystem_Plot"><path codeLine="97" d="M1043.78,72.61 C1043.78,101.2 1043.78,140.39 1043.78,182.98" fill="none" id="GardenManagementSystem-to-Plot" style="stroke:#000000;stroke-width:1;stroke-dasharray:7,7;"/><polygon fill="#000000" points="1043.78,188.98,1047.78,179.98,1043.78,183.98,1039.78,179.98,1043.78,188.98" style="stroke:#000000;stroke-width:1;"/></g><!--link GardenManagementSystem to Gardener--><g class="link" data-entity-1="GardenManagementSystem" data-entity-2="Gardener" data-source-line="98" data-uid="lnk14" id="link_GardenManagementSystem_Gardener"><path codeLine="98" d="M1087.63,72.74 C1112.18,89.66 1143.12,111.58 1169.78,132.29 C1192.75,150.14 1212.1012,165.8263 1235.0612,185.0663" fill="none" id="GardenManagementSystem-to-Gardener" style="stroke:#000000;stroke-width:1;stroke-dasharray:7,7;"/><polygon fill="#000000" points="1239.66,188.92,1235.3309,180.0736,1235.8277,185.7086,1230.1927,186.2053,1239.66,188.92" style="stroke:#000000;stroke-width:1;"/></g><!--SRC=[hLLBQnin4BxhLwZqOcDlwDcKGXzn6-Z3u508eGTvT-A8QYKZoMdTrF-z8-rgLzBQiGkvBEmylfblNdfXxw46kX6CIqBCJoutJBEQbe8PyzPQpLTR2rUbaal-1-Yht6Ikf5tQdG2wKg8YXAsCrQoqZPOk19Fs7JD07mcbBwbaDSpe4c7bsWlC1aeE9f5jd1F-V60sCyOKPhHIsvK0B-3c4zCFO2nKCqn02M0I5KM1dqaVVEJ2JaEiQH9Wwb77tc4DzYjQZiPHL2zTDfv3nI92Ek26o4xQPJo9CtQQFkS9DMrqboog7XIlWZp4RndaMXV6iqZbIN8nvzZklabd5CiUGnVtjE86FNTNyauTCmbbkDvjuXhi2Mbcu3kW1SC2U2i_20M5tqW5Yt33GM3lkBHztrA7qysRfcXTBozZgSkiYU9ha-fI_uZcCVgdEC-5-WKw9bmgeNGq82tNoF0SeXwb8_ZU_MLZPuAuCNq6BjSQajPnCzTRRftumD9rrkVGYQ36xNfqWWFhqUjYnsUWk10gi9FRUWMwcyZyvXHKg99PhkImbmvbrFW7Wi6ulozU7G_ZuJk1qi-jxx31BKWJwinZqA5rAPseMrUSZqnN84670gKd75UvPbmaaXqmRRxTkHtJ76G9sO87n7P4FC1qw7NYA5ywjw7u9eV9Dl_OZMtWV2wPPeWuJFN_Ylc5IRR6TnVVpXq-1RKlBHvLOx4rvPvY4dB4zBfx5sz_H4Zze_hwRr5avpBNHWScLtMhIiYHj2uktlIlwDD6oZwb3nqdXFm3]--></g></svg>