<svg xmlns="http://www.w3.org/2000/svg" xmlns:xlink="http://www.w3.org/1999/xlink" contentStyleType="text/css" data-diagram-type="CLASS" height="685px" preserveAspectRatio="none" style="width:1558px;height:685px;background:#FFFFFF;" version="1.1" viewBox="0 0 1558 685" width="1558px" zoomAndPan="magnify"><defs/><g><!--class PlantBase--><g class="entity" data-entity="PlantBase" data-source-line="2" data-uid="ent0002" id="entity_PlantBase"><rect fill="#F1F1F1" height="341.3438" rx="2.5" ry="2.5" style="stroke:#181818;stroke-width:0.5;" width="342.9551" x="557.44" y="131.3"/><ellipse cx="689.9854" cy="147.3" fill="#A9DCDF" rx="11" ry="11" style="stroke:#181818;stroke-width:1;"/><path d="M690.0948,142.6437 L688.9385,147.7219 L691.2667,147.7219 L690.0948,142.6437 Z M688.6104,140.4094 L691.5948,140.4094 L694.9542,152.8 L692.501,152.8 L691.7354,149.7375 L688.4542,149.7375 L687.7042,152.8 L685.2667,152.8 L688.6104,140.4094 Z " fill="#000000"/><text fill="#000000" font-family="sans-serif" font-size="14" font-style="italic" lengthAdjust="spacing" textLength="69.3643" x="710.4854" y="152.1467">PlantBase</text><line style="stroke:#181818;stroke-width:0.5;" x1="558.44" x2="899.3951" y1="163.3" y2="163.3"/><polygon fill="none" points="568.44,171.9484,572.44,175.9484,568.44,179.9484,564.44,175.9484" style="stroke:#B38D22;stroke-width:1;"/><text fill="#000000" font-family="sans-serif" font-size="14" lengthAdjust="spacing" textLength="90.6514" x="577.44" y="180.2951">name: String</text><polygon fill="none" points="568.44,188.2453,572.44,192.2453,568.44,196.2453,564.44,192.2453" style="stroke:#B38D22;stroke-width:1;"/><text fill="#000000" font-family="sans-serif" font-size="14" lengthAdjust="spacing" textLength="103.2363" x="577.44" y="196.592">species: String</text><polygon fill="none" points="568.44,204.5422,572.44,208.5422,568.44,212.5422,564.44,208.5422" style="stroke:#B38D22;stroke-width:1;"/><text fill="#000000" font-family="sans-serif" font-size="14" lengthAdjust="spacing" textLength="141.7773" x="577.44" y="212.8889">plantingDate: String</text><polygon fill="none" points="568.44,220.8391,572.44,224.8391,568.44,228.8391,564.44,224.8391" style="stroke:#B38D22;stroke-width:1;"/><text fill="#000000" font-family="sans-serif" font-size="14" lengthAdjust="spacing" textLength="84.0273" x="577.44" y="229.1857">size: double</text><polygon fill="none" points="568.44,237.1359,572.44,241.1359,568.44,245.1359,564.44,241.1359" style="stroke:#B38D22;stroke-width:1;"/><text fill="#000000" font-family="sans-serif" font-size="14" lengthAdjust="spacing" textLength="148.3672" x="577.44" y="245.4826">isHarvested: boolean</text><line style="stroke:#181818;stroke-width:1;" x1="558.44" x2="899.3951" y1="252.7844" y2="252.7844"/><ellipse cx="568.44" cy="266.4328" fill="#84BE84" rx="3" ry="3" style="stroke:#038048;stroke-width:1;"/><text fill="#000000" font-family="sans-serif" font-size="14" lengthAdjust="spacing" textLength="316.9551" x="577.44" y="269.7795">PlantBase(name, species, plantingDate, size)</text><ellipse cx="568.44" cy="282.7297" fill="#84BE84" rx="3" ry="3" style="stroke:#038048;stroke-width:1;"/><text fill="#000000" font-family="sans-serif" font-size="14" lengthAdjust="spacing" textLength="126.1641" x="577.44" y="286.0764">getName(): String</text><ellipse cx="568.44" cy="299.0266" fill="#84BE84" rx="3" ry="3" style="stroke:#038048;stroke-width:1;"/><text fill="#000000" font-family="sans-serif" font-size="14" lengthAdjust="spacing" textLength="138.7422" x="577.44" y="302.3732">getSpecies(): String</text><ellipse cx="568.44" cy="315.3234" fill="#84BE84" rx="3" ry="3" style="stroke:#038048;stroke-width:1;"/><text fill="#000000" font-family="sans-serif" font-size="14" lengthAdjust="spacing" textLength="175.2461" x="577.44" y="318.6701">getPlantingDate(): String</text><ellipse cx="568.44" cy="331.6203" fill="#84BE84" rx="3" ry="3" style="stroke:#038048;stroke-width:1;"/><text fill="#000000" font-family="sans-serif" font-size="14" lengthAdjust="spacing" textLength="119.5332" x="577.44" y="334.967">getSize(): double</text><ellipse cx="568.44" cy="347.9172" fill="#84BE84" rx="3" ry="3" style="stroke:#038048;stroke-width:1;"/><text fill="#000000" font-family="sans-serif" font-size="14" lengthAdjust="spacing" textLength="159.291" x="577.44" y="351.2639">isHarvested(): boolean</text><ellipse cx="568.44" cy="364.2141" fill="#84BE84" rx="3" ry="3" style="stroke:#038048;stroke-width:1;"/><text fill="#000000" font-family="sans-serif" font-size="14" lengthAdjust="spacing" textLength="152.1201" x="577.44" y="367.5607">setName(name): void</text><ellipse cx="568.44" cy="380.5109" fill="#84BE84" rx="3" ry="3" style="stroke:#038048;stroke-width:1;"/><text fill="#000000" font-family="sans-serif" font-size="14" lengthAdjust="spacing" textLength="177.2832" x="577.44" y="383.8576">setSpecies(species): void</text><ellipse cx="568.44" cy="396.8078" fill="#84BE84" rx="3" ry="3" style="stroke:#038048;stroke-width:1;"/><text fill="#000000" font-family="sans-serif" font-size="14" lengthAdjust="spacing" textLength="126.998" x="577.44" y="400.1545">setSize(size): void</text><ellipse cx="568.44" cy="413.1047" fill="#84BE84" rx="3" ry="3" style="stroke:#038048;stroke-width:1;"/><text fill="#000000" font-family="sans-serif" font-size="14" lengthAdjust="spacing" textLength="252.3281" x="577.44" y="416.4514">setPlantingDate(plantingDate): void</text><ellipse cx="568.44" cy="429.4016" fill="#84BE84" rx="3" ry="3" style="stroke:#038048;stroke-width:1;"/><text fill="#000000" font-family="sans-serif" font-size="14" lengthAdjust="spacing" textLength="102.6074" x="577.44" y="432.7482">harvest(): void</text><ellipse cx="568.44" cy="445.6984" fill="#84BE84" rx="3" ry="3" style="stroke:#038048;stroke-width:1;"/><text fill="#000000" font-family="sans-serif" font-size="14" font-style="italic" lengthAdjust="spacing" textLength="125.9248" x="577.44" y="449.0451">displayInfo(): void</text><ellipse cx="568.44" cy="461.9953" fill="#84BE84" rx="3" ry="3" style="stroke:#038048;stroke-width:1;"/><text fill="#000000" font-family="sans-serif" font-size="14" font-style="italic" lengthAdjust="spacing" textLength="154.4717" x="577.44" y="465.342">getPlantType(): String</text></g><!--class VegetablePlant--><g class="entity" data-entity="VegetablePlant" data-source-line="24" data-uid="ent0003" id="entity_VegetablePlant"><rect fill="#F1F1F1" height="145.7813" rx="2.5" ry="2.5" style="stroke:#181818;stroke-width:0.5;" width="487.8291" x="7" y="532.64"/><ellipse cx="193.4536" cy="548.64" fill="#ADD1B2" rx="11" ry="11" style="stroke:#181818;stroke-width:1;"/><path d="M196.4224,554.2806 Q195.8442,554.5775 195.2036,554.7181 Q194.563,554.8744 193.8599,554.8744 Q191.3599,554.8744 190.0317,553.2338 Q188.7192,551.5775 188.7192,548.4525 Q188.7192,545.3275 190.0317,543.6713 Q191.3599,542.015 193.8599,542.015 Q194.563,542.015 195.2036,542.1713 Q195.8599,542.3275 196.4224,542.6244 L196.4224,545.3431 Q195.7974,544.765 195.2036,544.4994 Q194.6099,544.2181 193.9849,544.2181 Q192.6411,544.2181 191.9536,545.2963 Q191.2661,546.3588 191.2661,548.4525 Q191.2661,550.5463 191.9536,551.6244 Q192.6411,552.6869 193.9849,552.6869 Q194.6099,552.6869 195.2036,552.4213 Q195.7974,552.14 196.4224,551.5619 L196.4224,554.2806 Z " fill="#000000"/><text fill="#000000" font-family="sans-serif" font-size="14" lengthAdjust="spacing" textLength="106.4219" x="213.9536" y="553.4867">VegetablePlant</text><line style="stroke:#181818;stroke-width:0.5;" x1="8" x2="493.8291" y1="564.64" y2="564.64"/><rect fill="none" height="6" style="stroke:#C82930;stroke-width:1;" width="6" x="15" y="575.2884"/><text fill="#000000" font-family="sans-serif" font-size="14" lengthAdjust="spacing" textLength="126.335" x="27" y="581.6351">expectedYield: int</text><line style="stroke:#181818;stroke-width:1;" x1="8" x2="493.8291" y1="588.9369" y2="588.9369"/><ellipse cx="18" cy="602.5853" fill="#84BE84" rx="3" ry="3" style="stroke:#038048;stroke-width:1;"/><text fill="#000000" font-family="sans-serif" font-size="14" lengthAdjust="spacing" textLength="461.8291" x="27" y="605.932">VegetablePlant(name, species, plantingDate, size, expectedYield)</text><ellipse cx="18" cy="618.8822" fill="#84BE84" rx="3" ry="3" style="stroke:#038048;stroke-width:1;"/><text fill="#000000" font-family="sans-serif" font-size="14" lengthAdjust="spacing" textLength="160.4805" x="27" y="622.2289">getExpectedYield(): int</text><ellipse cx="18" cy="635.1791" fill="#84BE84" rx="3" ry="3" style="stroke:#038048;stroke-width:1;"/><text fill="#000000" font-family="sans-serif" font-size="14" lengthAdjust="spacing" textLength="269.1787" x="27" y="638.5257">setExpectedYield(expectedYield): void</text><ellipse cx="18" cy="651.4759" fill="#84BE84" rx="3" ry="3" style="stroke:#038048;stroke-width:1;"/><text fill="#000000" font-family="sans-serif" font-size="14" lengthAdjust="spacing" textLength="125.9248" x="27" y="654.8226">displayInfo(): void</text><ellipse cx="18" cy="667.7728" fill="#84BE84" rx="3" ry="3" style="stroke:#038048;stroke-width:1;"/><text fill="#000000" font-family="sans-serif" font-size="14" lengthAdjust="spacing" textLength="154.4717" x="27" y="671.1195">getPlantType(): String</text></g><!--class FlowerPlant--><g class="entity" data-entity="FlowerPlant" data-source-line="34" data-uid="ent0004" id="entity_FlowerPlant"><rect fill="#F1F1F1" height="145.7813" rx="2.5" ry="2.5" style="stroke:#181818;stroke-width:0.5;" width="398.5654" x="529.63" y="532.64"/><ellipse cx="683.8624" cy="548.64" fill="#ADD1B2" rx="11" ry="11" style="stroke:#181818;stroke-width:1;"/><path d="M686.8312,554.2806 Q686.253,554.5775 685.6124,554.7181 Q684.9718,554.8744 684.2687,554.8744 Q681.7687,554.8744 680.4405,553.2338 Q679.128,551.5775 679.128,548.4525 Q679.128,545.3275 680.4405,543.6713 Q681.7687,542.015 684.2687,542.015 Q684.9718,542.015 685.6124,542.1713 Q686.2687,542.3275 686.8312,542.6244 L686.8312,545.3431 Q686.2062,544.765 685.6124,544.4994 Q685.0187,544.2181 684.3937,544.2181 Q683.0499,544.2181 682.3624,545.2963 Q681.6749,546.3588 681.6749,548.4525 Q681.6749,550.5463 682.3624,551.6244 Q683.0499,552.6869 684.3937,552.6869 Q685.0187,552.6869 685.6124,552.4213 Q686.2062,552.14 686.8312,551.5619 L686.8312,554.2806 Z " fill="#000000"/><text fill="#000000" font-family="sans-serif" font-size="14" lengthAdjust="spacing" textLength="81.6006" x="704.3624" y="553.4867">FlowerPlant</text><line style="stroke:#181818;stroke-width:0.5;" x1="530.63" x2="927.1954" y1="564.64" y2="564.64"/><rect fill="none" height="6" style="stroke:#C82930;stroke-width:1;" width="6" x="537.63" y="575.2884"/><text fill="#000000" font-family="sans-serif" font-size="14" lengthAdjust="spacing" textLength="85.4219" x="549.63" y="581.6351">color: String</text><line style="stroke:#181818;stroke-width:1;" x1="530.63" x2="927.1954" y1="588.9369" y2="588.9369"/><ellipse cx="540.63" cy="602.5853" fill="#84BE84" rx="3" ry="3" style="stroke:#038048;stroke-width:1;"/><text fill="#000000" font-family="sans-serif" font-size="14" lengthAdjust="spacing" textLength="372.5654" x="549.63" y="605.932">FlowerPlant(name, species, plantingDate, size, color)</text><ellipse cx="540.63" cy="618.8822" fill="#84BE84" rx="3" ry="3" style="stroke:#038048;stroke-width:1;"/><text fill="#000000" font-family="sans-serif" font-size="14" lengthAdjust="spacing" textLength="121.4131" x="549.63" y="622.2289">getColor(): String</text><ellipse cx="540.63" cy="635.1791" fill="#84BE84" rx="3" ry="3" style="stroke:#038048;stroke-width:1;"/><text fill="#000000" font-family="sans-serif" font-size="14" lengthAdjust="spacing" textLength="142.1396" x="549.63" y="638.5257">setColor(color): void</text><ellipse cx="540.63" cy="651.4759" fill="#84BE84" rx="3" ry="3" style="stroke:#038048;stroke-width:1;"/><text fill="#000000" font-family="sans-serif" font-size="14" lengthAdjust="spacing" textLength="125.9248" x="549.63" y="654.8226">displayInfo(): void</text><ellipse cx="540.63" cy="667.7728" fill="#84BE84" rx="3" ry="3" style="stroke:#038048;stroke-width:1;"/><text fill="#000000" font-family="sans-serif" font-size="14" lengthAdjust="spacing" textLength="154.4717" x="549.63" y="671.1195">getPlantType(): String</text></g><!--class TreePlant--><g class="entity" data-entity="TreePlant" data-source-line="44" data-uid="ent0005" id="entity_TreePlant"><rect fill="#F1F1F1" height="145.7813" rx="2.5" ry="2.5" style="stroke:#181818;stroke-width:0.5;" width="424.0771" x="962.88" y="532.64"/><ellipse cx="1137.2648" cy="548.64" fill="#ADD1B2" rx="11" ry="11" style="stroke:#181818;stroke-width:1;"/><path d="M1140.2335,554.2806 Q1139.6554,554.5775 1139.0148,554.7181 Q1138.3741,554.8744 1137.671,554.8744 Q1135.171,554.8744 1133.8429,553.2338 Q1132.5304,551.5775 1132.5304,548.4525 Q1132.5304,545.3275 1133.8429,543.6713 Q1135.171,542.015 1137.671,542.015 Q1138.3741,542.015 1139.0148,542.1713 Q1139.671,542.3275 1140.2335,542.6244 L1140.2335,545.3431 Q1139.6085,544.765 1139.0148,544.4994 Q1138.421,544.2181 1137.796,544.2181 Q1136.4523,544.2181 1135.7648,545.2963 Q1135.0773,546.3588 1135.0773,548.4525 Q1135.0773,550.5463 1135.7648,551.6244 Q1136.4523,552.6869 1137.796,552.6869 Q1138.421,552.6869 1139.0148,552.4213 Q1139.6085,552.14 1140.2335,551.5619 L1140.2335,554.2806 Z " fill="#000000"/><text fill="#000000" font-family="sans-serif" font-size="14" lengthAdjust="spacing" textLength="66.8076" x="1157.7648" y="553.4867">TreePlant</text><line style="stroke:#181818;stroke-width:0.5;" x1="963.88" x2="1385.9571" y1="564.64" y2="564.64"/><rect fill="none" height="6" style="stroke:#C82930;stroke-width:1;" width="6" x="970.88" y="575.2884"/><text fill="#000000" font-family="sans-serif" font-size="14" lengthAdjust="spacing" textLength="139.918" x="982.88" y="581.6351">isFruitTree: boolean</text><line style="stroke:#181818;stroke-width:1;" x1="963.88" x2="1385.9571" y1="588.9369" y2="588.9369"/><ellipse cx="973.88" cy="602.5853" fill="#84BE84" rx="3" ry="3" style="stroke:#038048;stroke-width:1;"/><text fill="#000000" font-family="sans-serif" font-size="14" lengthAdjust="spacing" textLength="398.0771" x="982.88" y="605.932">TreePlant(name, species, plantingDate, size, isFruitTree)</text><ellipse cx="973.88" cy="618.8822" fill="#84BE84" rx="3" ry="3" style="stroke:#038048;stroke-width:1;"/><text fill="#000000" font-family="sans-serif" font-size="14" lengthAdjust="spacing" textLength="150.8418" x="982.88" y="622.2289">isFruitTree(): boolean</text><ellipse cx="973.88" cy="635.1791" fill="#84BE84" rx="3" ry="3" style="stroke:#038048;stroke-width:1;"/><text fill="#000000" font-family="sans-serif" font-size="14" lengthAdjust="spacing" textLength="209.4873" x="982.88" y="638.5257">setFruitTree(isFruitTree): void</text><ellipse cx="973.88" cy="651.4759" fill="#84BE84" rx="3" ry="3" style="stroke:#038048;stroke-width:1;"/><text fill="#000000" font-family="sans-serif" font-size="14" lengthAdjust="spacing" textLength="125.9248" x="982.88" y="654.8226">displayInfo(): void</text><ellipse cx="973.88" cy="667.7728" fill="#84BE84" rx="3" ry="3" style="stroke:#038048;stroke-width:1;"/><text fill="#000000" font-family="sans-serif" font-size="14" lengthAdjust="spacing" textLength="154.4717" x="982.88" y="671.1195">getPlantType(): String</text></g><!--class Plot--><g class="entity" data-entity="Plot" data-source-line="54" data-uid="ent0006" id="entity_Plot"><rect fill="#F1F1F1" height="227.2656" rx="2.5" ry="2.5" style="stroke:#181818;stroke-width:0.5;" width="218.4453" x="935.69" y="188.33"/><ellipse cx="1027.4693" cy="204.33" fill="#ADD1B2" rx="11" ry="11" style="stroke:#181818;stroke-width:1;"/><path d="M1030.438,209.9706 Q1029.8599,210.2675 1029.2193,210.4081 Q1028.5787,210.5644 1027.8755,210.5644 Q1025.3755,210.5644 1024.0474,208.9237 Q1022.7349,207.2675 1022.7349,204.1425 Q1022.7349,201.0175 1024.0474,199.3612 Q1025.3755,197.705 1027.8755,197.705 Q1028.5787,197.705 1029.2193,197.8612 Q1029.8755,198.0175 1030.438,198.3144 L1030.438,201.0331 Q1029.813,200.455 1029.2193,200.1894 Q1028.6255,199.9081 1028.0005,199.9081 Q1026.6568,199.9081 1025.9693,200.9862 Q1025.2818,202.0487 1025.2818,204.1425 Q1025.2818,206.2362 1025.9693,207.3144 Q1026.6568,208.3769 1028.0005,208.3769 Q1028.6255,208.3769 1029.2193,208.1112 Q1029.813,207.83 1030.438,207.2519 L1030.438,209.9706 Z " fill="#000000"/><text fill="#000000" font-family="sans-serif" font-size="14" lengthAdjust="spacing" textLength="26.3867" x="1047.9693" y="209.1767">Plot</text><line style="stroke:#181818;stroke-width:0.5;" x1="936.69" x2="1153.1353" y1="220.33" y2="220.33"/><rect fill="none" height="6" style="stroke:#C82930;stroke-width:1;" width="6" x="943.69" y="230.9784"/><text fill="#000000" font-family="sans-serif" font-size="14" lengthAdjust="spacing" textLength="82.0586" x="955.69" y="237.3251">number: int</text><rect fill="none" height="6" style="stroke:#C82930;stroke-width:1;" width="6" x="943.69" y="247.2753"/><text fill="#000000" font-family="sans-serif" font-size="14" lengthAdjust="spacing" textLength="84.0273" x="955.69" y="253.622">size: double</text><rect fill="none" height="6" style="stroke:#C82930;stroke-width:1;" width="6" x="943.69" y="263.5722"/><text fill="#000000" font-family="sans-serif" font-size="14" lengthAdjust="spacing" textLength="106.4971" x="955.69" y="269.9189">location: String</text><line style="stroke:#181818;stroke-width:1;" x1="936.69" x2="1153.1353" y1="277.2206" y2="277.2206"/><ellipse cx="946.69" cy="290.8691" fill="#84BE84" rx="3" ry="3" style="stroke:#038048;stroke-width:1;"/><text fill="#000000" font-family="sans-serif" font-size="14" lengthAdjust="spacing" textLength="192.4453" x="955.69" y="294.2157">Plot(number, size, location)</text><ellipse cx="946.69" cy="307.1659" fill="#84BE84" rx="3" ry="3" style="stroke:#038048;stroke-width:1;"/><text fill="#000000" font-family="sans-serif" font-size="14" lengthAdjust="spacing" textLength="117.5713" x="955.69" y="310.5126">getNumber(): int</text><ellipse cx="946.69" cy="323.4628" fill="#84BE84" rx="3" ry="3" style="stroke:#038048;stroke-width:1;"/><text fill="#000000" font-family="sans-serif" font-size="14" lengthAdjust="spacing" textLength="119.5332" x="955.69" y="326.8095">getSize(): double</text><ellipse cx="946.69" cy="339.7597" fill="#84BE84" rx="3" ry="3" style="stroke:#038048;stroke-width:1;"/><text fill="#000000" font-family="sans-serif" font-size="14" lengthAdjust="spacing" textLength="144.3203" x="955.69" y="343.1064">getLocation(): String</text><ellipse cx="946.69" cy="356.0566" fill="#84BE84" rx="3" ry="3" style="stroke:#038048;stroke-width:1;"/><text fill="#000000" font-family="sans-serif" font-size="14" lengthAdjust="spacing" textLength="181.9932" x="955.69" y="359.4032">setNumber(number): void</text><ellipse cx="946.69" cy="372.3534" fill="#84BE84" rx="3" ry="3" style="stroke:#038048;stroke-width:1;"/><text fill="#000000" font-family="sans-serif" font-size="14" lengthAdjust="spacing" textLength="126.998" x="955.69" y="375.7001">setSize(size): void</text><ellipse cx="946.69" cy="388.6503" fill="#84BE84" rx="3" ry="3" style="stroke:#038048;stroke-width:1;"/><text fill="#000000" font-family="sans-serif" font-size="14" lengthAdjust="spacing" textLength="186.1221" x="955.69" y="391.997">setLocation(location): void</text><ellipse cx="946.69" cy="404.9472" fill="#84BE84" rx="3" ry="3" style="stroke:#038048;stroke-width:1;"/><text fill="#000000" font-family="sans-serif" font-size="14" lengthAdjust="spacing" textLength="125.9248" x="955.69" y="408.2939">displayInfo(): void</text></g><!--class Gardener--><g class="entity" data-entity="Gardener" data-source-line="69" data-uid="ent0007" id="entity_Gardener"><rect fill="#F1F1F1" height="227.2656" rx="2.5" ry="2.5" style="stroke:#181818;stroke-width:0.5;" width="362.4785" x="1188.68" y="188.33"/><ellipse cx="1332.7064" cy="204.33" fill="#ADD1B2" rx="11" ry="11" style="stroke:#181818;stroke-width:1;"/><path d="M1335.6751,209.9706 Q1335.097,210.2675 1334.4564,210.4081 Q1333.8157,210.5644 1333.1126,210.5644 Q1330.6126,210.5644 1329.2845,208.9237 Q1327.972,207.2675 1327.972,204.1425 Q1327.972,201.0175 1329.2845,199.3612 Q1330.6126,197.705 1333.1126,197.705 Q1333.8157,197.705 1334.4564,197.8612 Q1335.1126,198.0175 1335.6751,198.3144 L1335.6751,201.0331 Q1335.0501,200.455 1334.4564,200.1894 Q1333.8626,199.9081 1333.2376,199.9081 Q1331.8939,199.9081 1331.2064,200.9862 Q1330.5189,202.0487 1330.5189,204.1425 Q1330.5189,206.2362 1331.2064,207.3144 Q1331.8939,208.3769 1333.2376,208.3769 Q1333.8626,208.3769 1334.4564,208.1112 Q1335.0501,207.83 1335.6751,207.2519 L1335.6751,209.9706 Z " fill="#000000"/><text fill="#000000" font-family="sans-serif" font-size="14" lengthAdjust="spacing" textLength="65.9258" x="1353.2064" y="209.1767">Gardener</text><line style="stroke:#181818;stroke-width:0.5;" x1="1189.68" x2="1550.1585" y1="220.33" y2="220.33"/><rect fill="none" height="6" style="stroke:#C82930;stroke-width:1;" width="6" x="1196.68" y="230.9784"/><text fill="#000000" font-family="sans-serif" font-size="14" lengthAdjust="spacing" textLength="90.6514" x="1208.68" y="237.3251">name: String</text><rect fill="none" height="6" style="stroke:#C82930;stroke-width:1;" width="6" x="1196.68" y="247.2753"/><text fill="#000000" font-family="sans-serif" font-size="14" lengthAdjust="spacing" textLength="89.5576" x="1208.68" y="253.622">email: String</text><rect fill="none" height="6" style="stroke:#C82930;stroke-width:1;" width="6" x="1196.68" y="263.5722"/><text fill="#000000" font-family="sans-serif" font-size="14" lengthAdjust="spacing" textLength="159.9678" x="1208.68" y="269.9189">yearsOfExperience: int</text><line style="stroke:#181818;stroke-width:1;" x1="1189.68" x2="1550.1585" y1="277.2206" y2="277.2206"/><ellipse cx="1199.68" cy="290.8691" fill="#84BE84" rx="3" ry="3" style="stroke:#038048;stroke-width:1;"/><text fill="#000000" font-family="sans-serif" font-size="14" lengthAdjust="spacing" textLength="305.5117" x="1208.68" y="294.2157">Gardener(name, email, yearsOfExperience)</text><ellipse cx="1199.68" cy="307.1659" fill="#84BE84" rx="3" ry="3" style="stroke:#038048;stroke-width:1;"/><text fill="#000000" font-family="sans-serif" font-size="14" lengthAdjust="spacing" textLength="126.1641" x="1208.68" y="310.5126">getName(): String</text><ellipse cx="1199.68" cy="323.4628" fill="#84BE84" rx="3" ry="3" style="stroke:#038048;stroke-width:1;"/><text fill="#000000" font-family="sans-serif" font-size="14" lengthAdjust="spacing" textLength="123.7031" x="1208.68" y="326.8095">getEmail(): String</text><ellipse cx="1199.68" cy="339.7597" fill="#84BE84" rx="3" ry="3" style="stroke:#038048;stroke-width:1;"/><text fill="#000000" font-family="sans-serif" font-size="14" lengthAdjust="spacing" textLength="194.1475" x="1208.68" y="343.1064">getYearsOfExperience(): int</text><ellipse cx="1199.68" cy="356.0566" fill="#84BE84" rx="3" ry="3" style="stroke:#038048;stroke-width:1;"/><text fill="#000000" font-family="sans-serif" font-size="14" lengthAdjust="spacing" textLength="152.1201" x="1208.68" y="359.4032">setName(name): void</text><ellipse cx="1199.68" cy="372.3534" fill="#84BE84" rx="3" ry="3" style="stroke:#038048;stroke-width:1;"/><text fill="#000000" font-family="sans-serif" font-size="14" lengthAdjust="spacing" textLength="148.5654" x="1208.68" y="375.7001">setEmail(email): void</text><ellipse cx="1199.68" cy="388.6503" fill="#84BE84" rx="3" ry="3" style="stroke:#038048;stroke-width:1;"/><text fill="#000000" font-family="sans-serif" font-size="14" lengthAdjust="spacing" textLength="336.4785" x="1208.68" y="391.997">setYearsOfExperience(yearsOfExperience): void</text><ellipse cx="1199.68" cy="404.9472" fill="#84BE84" rx="3" ry="3" style="stroke:#038048;stroke-width:1;"/><text fill="#000000" font-family="sans-serif" font-size="14" lengthAdjust="spacing" textLength="125.9248" x="1208.68" y="408.2939">displayInfo(): void</text></g><!--class GardenManagementSystem--><g class="entity" data-entity="GardenManagementSystem" data-source-line="84" data-uid="ent0008" id="entity_GardenManagementSystem"><rect fill="#F1F1F1" height="64.2969" rx="2.5" ry="2.5" style="stroke:#181818;stroke-width:0.5;" width="227.9863" x="930.92" y="7"/><ellipse cx="945.92" cy="23" fill="#ADD1B2" rx="11" ry="11" style="stroke:#181818;stroke-width:1;"/><path d="M948.8888,28.6406 Q948.3106,28.9375 947.67,29.0781 Q947.0294,29.2344 946.3263,29.2344 Q943.8263,29.2344 942.4981,27.5938 Q941.1856,25.9375 941.1856,22.8125 Q941.1856,19.6875 942.4981,18.0313 Q943.8263,16.375 946.3263,16.375 Q947.0294,16.375 947.67,16.5313 Q948.3263,16.6875 948.8888,16.9844 L948.8888,19.7031 Q948.2638,19.125 947.67,18.8594 Q947.0763,18.5781 946.4513,18.5781 Q945.1075,18.5781 944.42,19.6563 Q943.7325,20.7188 943.7325,22.8125 Q943.7325,24.9063 944.42,25.9844 Q945.1075,27.0469 946.4513,27.0469 Q947.0763,27.0469 947.67,26.7813 Q948.2638,26.5 948.8888,25.9219 L948.8888,28.6406 Z " fill="#000000"/><text fill="#000000" font-family="sans-serif" font-size="14" lengthAdjust="spacing" textLength="195.9863" x="959.92" y="27.8467">GardenManagementSystem</text><line style="stroke:#181818;stroke-width:0.5;" x1="931.92" x2="1157.9063" y1="39" y2="39"/><line style="stroke:#181818;stroke-width:0.5;" x1="931.92" x2="1157.9063" y1="47" y2="47"/><ellipse cx="941.92" cy="60.6484" fill="#84BE84" rx="3" ry="3" style="stroke:#038048;stroke-width:1;"/><text fill="#000000" font-family="sans-serif" font-size="14" lengthAdjust="spacing" text-decoration="underline" textLength="177.085" x="950.92" y="63.9951">main(args: String[]): void</text></g><!--reverse link PlantBase to VegetablePlant--><g class="link" data-entity-1="PlantBase" data-entity-2="VegetablePlant" data-source-line="88" data-uid="lnk9" id="link_PlantBase_VegetablePlant"><path codeLine="88" d="M541.7967,421.0148 C478.0967,461.2048 422.7,496.15 365.35,532.33" fill="none" id="PlantBase-backto-VegetablePlant" style="stroke:#181818;stroke-width:1;"/><polygon fill="none" points="557.02,411.41,538.5951,415.9403,544.9983,426.0892,557.02,411.41" style="stroke:#181818;stroke-width:1;"/></g><!--reverse link PlantBase to FlowerPlant--><g class="link" data-entity-1="PlantBase" data-entity-2="FlowerPlant" data-source-line="89" data-uid="lnk10" id="link_PlantBase_FlowerPlant"><path codeLine="89" d="M728.91,491.14 C728.91,511.84 728.91,514.06 728.91,532.17" fill="none" id="PlantBase-backto-FlowerPlant" style="stroke:#181818;stroke-width:1;"/><polygon fill="none" points="728.91,473.14,722.91,491.14,734.91,491.14,728.91,473.14" style="stroke:#181818;stroke-width:1;"/></g><!--reverse link PlantBase to TreePlant--><g class="link" data-entity-1="PlantBase" data-entity-2="TreePlant" data-source-line="90" data-uid="lnk11" id="link_PlantBase_TreePlant"><path codeLine="90" d="M915.2246,471.0762 C920.9446,475.2962 912.19,468.7 917.91,472.64 C949.1,494.11 984.25,514.38 1018.31,532.31" fill="none" id="PlantBase-backto-TreePlant" style="stroke:#181818;stroke-width:1;"/><polygon fill="none" points="900.74,460.39,911.6626,475.9044,918.7867,466.248,900.74,460.39" style="stroke:#181818;stroke-width:1;"/></g><!--link GardenManagementSystem to PlantBase--><g class="link" data-entity-1="GardenManagementSystem" data-entity-2="PlantBase" data-source-line="92" data-uid="lnk12" id="link_GardenManagementSystem_PlantBase"><path codeLine="92" d="M998.47,71.66 C974.02,88.7 943.83,110.47 917.91,131.3 C912.24,135.85 911.1418,136.7039 905.3918,141.4639" fill="none" id="GardenManagementSystem-to-PlantBase" style="stroke:#181818;stroke-width:1;stroke-dasharray:7,7;"/><polygon fill="#181818" points="900.77,145.29,910.2534,142.6321,904.6215,142.1016,905.152,136.4697,900.77,145.29" style="stroke:#181818;stroke-width:1;"/></g><!--link GardenManagementSystem to Plot--><g class="link" data-entity-1="GardenManagementSystem" data-entity-2="Plot" data-source-line="93" data-uid="lnk13" id="link_GardenManagementSystem_Plot"><path codeLine="93" d="M1044.91,71.61 C1044.91,100.67 1044.91,139.64 1044.91,182.08" fill="none" id="GardenManagementSystem-to-Plot" style="stroke:#181818;stroke-width:1;stroke-dasharray:7,7;"/><polygon fill="#181818" points="1044.91,188.08,1048.91,179.08,1044.91,183.08,1040.91,179.08,1044.91,188.08" style="stroke:#181818;stroke-width:1;"/></g><!--link GardenManagementSystem to Gardener--><g class="link" data-entity-1="GardenManagementSystem" data-entity-2="Gardener" data-source-line="94" data-uid="lnk14" id="link_GardenManagementSystem_Gardener"><path codeLine="94" d="M1090.87,71.7 C1115.31,88.84 1145.66,110.68 1171.91,131.3 C1194.7,149.18 1213.8831,164.8621 1236.7231,184.1221" fill="none" id="GardenManagementSystem-to-Gardener" style="stroke:#181818;stroke-width:1;stroke-dasharray:7,7;"/><polygon fill="#181818" points="1241.31,187.99,1237.0083,179.1302,1237.4876,184.7667,1231.8511,185.246,1241.31,187.99" style="stroke:#181818;stroke-width:1;"/></g><!--SRC=[hLNRRjim37ttLmZOYuFO_O1YsCEste1T0gGOK0nxK6ms4o1BWQHqoxhy-oZPaYKvQJAWBm5oI1xoa29DLzeesXZISAerMN0gp7kgWJmNXBmXWdPmIPP6CR5sWDv0mq0dsCO6uP-Fr6JEx0y2hTokE3Y0wLkgda0RQ2_9IaeELA2Xhl5dFYOlRThAvwgI19LZdRc0DPWlw5dEegmENVQHKyCYOZeGXimM3HNFuugjPQnvJlIGtHQBfYV9Me_x_8E2t6hJE1KfdXGNQuxzVlRbb37sJ8SfxadBD4RkxiIZFERYst2_syGzs1T5_mQ-0NfGR83pSW-X9l0RfM0J7XXmd1qJPfnR6d1wU5NA5cPv5QEsiZwBwqrgI-CZcSVadz9ypUKlKB7WHdAfeWSoQ8qSpn7gM8B03_PVzkoqXtlNLz1oho0P7TFNQikCXGyiNV0-Hqv4DHlM8m07rcEqnO6l8771fLSdjjqAL7YH-Ssf2PSDDKoAwImjIzd7Uu7UURmlpXm_niDt0j5FG-nqm0D9d-hCOn3OGaad-XQQSqDL2mAKRr1wmd6LEyfuWko0AltrqUwOOY0Qo1RSCmvFn15KqwWJH_dAXatXXvmcs_nZDxQdSxLabYdZjDJ_Q-PdAkWQEX1ckSDFGUTQYqTL6nnDioTOX2YfMeVlulSV4TFuKNtxjwwpSvbRemEJcyAg5iMHiYukterVqPUTf7d9xYTU_0C0]--></g></svg>