<svg xmlns="http://www.w3.org/2000/svg" xmlns:xlink="http://www.w3.org/1999/xlink" contentStyleType="text/css" data-diagram-type="CLASS" height="313px" preserveAspectRatio="none" style="width:1010px;height:313px;background:#FFFFFF;" version="1.1" viewBox="0 0 1010 313" width="1010px" zoomAndPan="magnify"><defs/><g><!--class Employee--><g class="entity" data-entity="Employee" data-source-line="3" data-uid="ent0002" id="entity_Employee"><rect fill="#FFFFFF" height="125.4844" rx="2.5" ry="2.5" style="stroke:#000000;stroke-width:1;" width="338.043" x="297.7" y="12"/><ellipse cx="428.303" cy="26" fill="#FFFFFF" rx="9" ry="9" style="stroke:#000000;stroke-width:1;"/><path d="M428.4124,21.3438 L427.2562,26.4219 L429.5843,26.4219 L428.4124,21.3438 Z M426.928,19.1094 L429.9124,19.1094 L433.2718,31.5 L430.8187,31.5 L430.053,28.4375 L426.7718,28.4375 L426.0218,31.5 L423.5843,31.5 L426.928,19.1094 Z " fill="#000000"/><text fill="#000000" font-family="Verdana" font-size="14" font-style="italic" lengthAdjust="spacing" textLength="69.3369" x="445.803" y="30.8467">Employee</text><line style="stroke:#000000;stroke-width:1;" x1="298.7" x2="634.743" y1="40" y2="40"/><polygon fill="none" points="308.7,48.6484,312.7,52.6484,308.7,56.6484,304.7,52.6484" style="stroke:#000000;stroke-width:1;"/><text fill="#000000" font-family="Verdana" font-size="14" lengthAdjust="spacing" textLength="90.6514" x="315.7" y="56.9951">name: String</text><polygon fill="none" points="308.7,64.9453,312.7,68.9453,308.7,72.9453,304.7,68.9453" style="stroke:#000000;stroke-width:1;"/><text fill="#000000" font-family="Verdana" font-size="14" lengthAdjust="spacing" textLength="134.2305" x="315.7" y="73.292">baseSalary: double</text><line style="stroke:#000000;stroke-width:1;" x1="298.7" x2="634.743" y1="80.5938" y2="80.5938"/><ellipse cx="308.7" cy="94.2422" fill="#FFFFFF" rx="3" ry="3" style="stroke:#000000;stroke-width:1;"/><text fill="#000000" font-family="Verdana" font-size="14" lengthAdjust="spacing" textLength="314.043" x="315.7" y="97.5889">Employee(name: String, baseSalary: double)</text><ellipse cx="308.7" cy="110.5391" fill="#FFFFFF" rx="3" ry="3" style="stroke:#000000;stroke-width:1;"/><text fill="#000000" font-family="Verdana" font-size="14" font-style="italic" lengthAdjust="spacing" textLength="175.0889" x="315.7" y="113.8857">calculateSalary(): double</text><ellipse cx="308.7" cy="126.8359" fill="#FFFFFF" rx="3" ry="3" style="stroke:#000000;stroke-width:1;"/><text fill="#000000" font-family="Verdana" font-size="14" lengthAdjust="spacing" textLength="125.9248" x="315.7" y="130.1826">displayInfo(): void</text></g><!--class FullTimeEmployee--><g class="entity" data-entity="FullTimeEmployee" data-source-line="12" data-uid="ent0003" id="entity_FullTimeEmployee"><rect fill="#FFFFFF" height="76.5938" rx="2.5" ry="2.5" style="stroke:#000000;stroke-width:1;" width="397.4404" x="12" y="213.78"/><ellipse cx="142.603" cy="227.78" fill="#FFFFFF" rx="9" ry="9" style="stroke:#000000;stroke-width:1;"/><path d="M145.5718,233.4206 Q144.9937,233.7175 144.353,233.8581 Q143.7124,234.0144 143.0093,234.0144 Q140.5093,234.0144 139.1812,232.3738 Q137.8687,230.7175 137.8687,227.5925 Q137.8687,224.4675 139.1812,222.8113 Q140.5093,221.155 143.0093,221.155 Q143.7124,221.155 144.353,221.3113 Q145.0093,221.4675 145.5718,221.7644 L145.5718,224.4831 Q144.9468,223.905 144.353,223.6394 Q143.7593,223.3581 143.1343,223.3581 Q141.7905,223.3581 141.103,224.4363 Q140.4155,225.4988 140.4155,227.5925 Q140.4155,229.6863 141.103,230.7644 Q141.7905,231.8269 143.1343,231.8269 Q143.7593,231.8269 144.353,231.5613 Q144.9468,231.28 145.5718,230.7019 L145.5718,233.4206 Z " fill="#000000"/><text fill="#000000" font-family="Verdana" font-size="14" lengthAdjust="spacing" textLength="128.7344" x="160.103" y="232.6267">FullTimeEmployee</text><line style="stroke:#000000;stroke-width:1;" x1="13" x2="408.4404" y1="241.78" y2="241.78"/><line style="stroke:#000000;stroke-width:1;" x1="13" x2="408.4404" y1="249.78" y2="249.78"/><ellipse cx="23" cy="263.4284" fill="#FFFFFF" rx="3" ry="3" style="stroke:#000000;stroke-width:1;"/><text fill="#000000" font-family="Verdana" font-size="14" lengthAdjust="spacing" textLength="373.4404" x="30" y="266.7751">FullTimeEmployee(name: String, baseSalary: double)</text><ellipse cx="23" cy="279.7253" fill="#FFFFFF" rx="3" ry="3" style="stroke:#000000;stroke-width:1;"/><text fill="#000000" font-family="Verdana" font-size="14" lengthAdjust="spacing" textLength="175.0889" x="30" y="283.072">calculateSalary(): double</text></g><!--class PartTimeEmployee--><g class="entity" data-entity="PartTimeEmployee" data-source-line="17" data-uid="ent0004" id="entity_PartTimeEmployee"><rect fill="#FFFFFF" height="109.1875" rx="2.5" ry="2.5" style="stroke:#000000;stroke-width:1;" width="559.2197" x="444.11" y="197.48"/><ellipse cx="653.8219" cy="211.48" fill="#FFFFFF" rx="9" ry="9" style="stroke:#000000;stroke-width:1;"/><path d="M656.7907,217.1206 Q656.2125,217.4175 655.5719,217.5581 Q654.9313,217.7144 654.2282,217.7144 Q651.7282,217.7144 650.4,216.0738 Q649.0875,214.4175 649.0875,211.2925 Q649.0875,208.1675 650.4,206.5113 Q651.7282,204.855 654.2282,204.855 Q654.9313,204.855 655.5719,205.0113 Q656.2282,205.1675 656.7907,205.4644 L656.7907,208.1831 Q656.1657,207.605 655.5719,207.3394 Q654.9782,207.0581 654.3532,207.0581 Q653.0094,207.0581 652.3219,208.1363 Q651.6344,209.1988 651.6344,211.2925 Q651.6344,213.3863 652.3219,214.4644 Q653.0094,215.5269 654.3532,215.5269 Q654.9782,215.5269 655.5719,215.2613 Q656.1657,214.98 656.7907,214.4019 L656.7907,217.1206 Z " fill="#000000"/><text fill="#000000" font-family="Verdana" font-size="14" lengthAdjust="spacing" textLength="132.2959" x="671.3219" y="216.3267">PartTimeEmployee</text><line style="stroke:#000000;stroke-width:1;" x1="445.11" x2="1002.3297" y1="225.48" y2="225.48"/><rect fill="none" height="6" style="stroke:#000000;stroke-width:1;" width="6" x="452.11" y="236.1284"/><text fill="#000000" font-family="Verdana" font-size="14" lengthAdjust="spacing" textLength="150.0146" x="462.11" y="242.4751">hoursWorked: double</text><rect fill="none" height="6" style="stroke:#000000;stroke-width:1;" width="6" x="452.11" y="252.4253"/><text fill="#000000" font-family="Verdana" font-size="14" lengthAdjust="spacing" textLength="133.5332" x="462.11" y="258.772">hourlyRate: double</text><line style="stroke:#000000;stroke-width:1;" x1="445.11" x2="1002.3297" y1="266.0738" y2="266.0738"/><ellipse cx="455.11" cy="279.7222" fill="#FFFFFF" rx="3" ry="3" style="stroke:#000000;stroke-width:1;"/><text fill="#000000" font-family="Verdana" font-size="14" lengthAdjust="spacing" textLength="535.2197" x="462.11" y="283.0689">PartTimeEmployee(name: String, hoursWorked: double, hourlyRate: double)</text><ellipse cx="455.11" cy="296.0191" fill="#FFFFFF" rx="3" ry="3" style="stroke:#000000;stroke-width:1;"/><text fill="#000000" font-family="Verdana" font-size="14" lengthAdjust="spacing" textLength="175.0889" x="462.11" y="299.3657">calculateSalary(): double</text></g><!--reverse link Employee to FullTimeEmployee--><g class="link" data-entity-1="Employee" data-entity-2="FullTimeEmployee" data-source-line="25" data-uid="lnk5" id="link_Employee_FullTimeEmployee"><path codeLine="25" d="M361.2496,147.9718 C324.4296,173.1918 297.94,191.34 265.8,213.35" fill="none" id="Employee-backto-FullTimeEmployee" style="stroke:#000000;stroke-width:1;"/><polygon fill="none" points="376.1,137.8,357.859,143.0217,364.6402,152.922,376.1,137.8" style="stroke:#000000;stroke-width:1;"/></g><!--reverse link Employee to PartTimeEmployee--><g class="link" data-entity-1="Employee" data-entity-2="PartTimeEmployee" data-source-line="26" data-uid="lnk6" id="link_Employee_PartTimeEmployee"><path codeLine="26" d="M572.5591,147.9444 C601.0091,167.3544 617.27,178.45 644.82,197.24" fill="none" id="Employee-backto-PartTimeEmployee" style="stroke:#000000;stroke-width:1;"/><polygon fill="none" points="557.69,137.8,569.1776,152.9008,575.9406,142.9881,557.69,137.8" style="stroke:#000000;stroke-width:1;"/></g><!--SRC=[ZP112u9048Nl-oickXIwVo2w5dIB33gFEkNIwChk6eZrtpChCJNmCeStyzvyl9bBA2N86LKc18RM6OmSH8pMmYRDMPT4K0c0EMIOqWe2PrHsQOGGBGN8QCeLnBe8cMfPodfuhNVHTVaZbcLpNdrVFo12ZWf6zxbRB3lX7iJArh3bBZlhr-QcLImUGho1jmNpKQNq0-uDv8bC_q7QXtiqRl1GGg8BOq_QN2dkDjFeN1xgo65X_QWUv4YaFv8tWRnbNT-b77JJM_Ufn1C0]--></g></svg>