<svg xmlns="http://www.w3.org/2000/svg" xmlns:xlink="http://www.w3.org/1999/xlink" contentStyleType="text/css" data-diagram-type="CLASS" height="313px" preserveAspectRatio="none" style="width:1010px;height:313px;background:#FFFFFF;" version="1.1" viewBox="0 0 1010 313" width="1010px" zoomAndPan="magnify"><defs/><g><!--class Employee--><g class="entity" data-entity="Employee" data-source-line="6" data-uid="ent0002" id="entity_Employee"><rect fill="#FFFFFF" height="125.4844" rx="2.5" ry="2.5" style="stroke:#000000;stroke-width:1;" width="337.7734" x="297.7" y="12"/><ellipse cx="424.4837" cy="26" fill="#FFFFFF" rx="9" ry="9" style="stroke:#000000;stroke-width:1;"/><path d="M424.5931,21.3438 L423.4368,26.4219 L425.7649,26.4219 L424.5931,21.3438 Z M423.1087,19.1094 L426.0931,19.1094 L429.4524,31.5 L426.9993,31.5 L426.2337,28.4375 L422.9524,28.4375 L422.2024,31.5 L419.7649,31.5 L423.1087,19.1094 Z " fill="#000000"/><text fill="#000000" font-family="Verdana" font-size="14" font-style="italic" font-weight="bold" lengthAdjust="spacing" textLength="76.7061" x="441.9837" y="30.8467">Employee</text><line style="stroke:#000000;stroke-width:1;" x1="298.7" x2="634.4734" y1="40" y2="40"/><text fill="#000000" font-family="Verdana" font-size="14" lengthAdjust="spacing" textLength="102.3818" x="303.7" y="56.9951">#name: String</text><text fill="#000000" font-family="Verdana" font-size="14" lengthAdjust="spacing" textLength="145.9609" x="303.7" y="73.292">#baseSalary: double</text><line style="stroke:#000000;stroke-width:1;" x1="298.7" x2="634.4734" y1="80.5938" y2="80.5938"/><text fill="#000000" font-family="Verdana" font-size="14" lengthAdjust="spacing" textLength="325.7734" x="303.7" y="97.5889">+Employee(name: String, baseSalary: double)</text><text fill="#000000" font-family="Verdana" font-size="14" font-style="italic" lengthAdjust="spacing" textLength="186.8193" x="303.7" y="113.8857">+calculateSalary(): double</text><text fill="#000000" font-family="Verdana" font-size="14" lengthAdjust="spacing" textLength="137.6553" x="303.7" y="130.1826">+displayInfo(): void</text></g><!--class FullTimeEmployee--><g class="entity" data-entity="FullTimeEmployee" data-source-line="15" data-uid="ent0003" id="entity_FullTimeEmployee"><rect fill="#FFFFFF" height="76.5938" rx="2.5" ry="2.5" style="stroke:#000000;stroke-width:1;" width="397.1709" x="12" y="213.78"/><ellipse cx="134.7026" cy="227.78" fill="#FFFFFF" rx="9" ry="9" style="stroke:#000000;stroke-width:1;"/><path d="M137.6714,233.4206 Q137.0933,233.7175 136.4526,233.8581 Q135.812,234.0144 135.1089,234.0144 Q132.6089,234.0144 131.2808,232.3738 Q129.9683,230.7175 129.9683,227.5925 Q129.9683,224.4675 131.2808,222.8113 Q132.6089,221.155 135.1089,221.155 Q135.812,221.155 136.4526,221.3113 Q137.1089,221.4675 137.6714,221.7644 L137.6714,224.4831 Q137.0464,223.905 136.4526,223.6394 Q135.8589,223.3581 135.2339,223.3581 Q133.8901,223.3581 133.2026,224.4363 Q132.5151,225.4988 132.5151,227.5925 Q132.5151,229.6863 133.2026,230.7644 Q133.8901,231.8269 135.2339,231.8269 Q135.8589,231.8269 136.4526,231.5613 Q137.0464,231.28 137.6714,230.7019 L137.6714,233.4206 Z " fill="#000000"/><text fill="#000000" font-family="Verdana" font-size="14" font-weight="bold" lengthAdjust="spacing" textLength="144.2656" x="152.2026" y="232.6267">FullTimeEmployee</text><line style="stroke:#000000;stroke-width:1;" x1="13" x2="408.1709" y1="241.78" y2="241.78"/><line style="stroke:#000000;stroke-width:1;" x1="13" x2="408.1709" y1="249.78" y2="249.78"/><text fill="#000000" font-family="Verdana" font-size="14" lengthAdjust="spacing" textLength="385.1709" x="18" y="266.7751">+FullTimeEmployee(name: String, baseSalary: double)</text><text fill="#000000" font-family="Verdana" font-size="14" lengthAdjust="spacing" textLength="186.8193" x="18" y="283.072">+calculateSalary(): double</text></g><!--class PartTimeEmployee--><g class="entity" data-entity="PartTimeEmployee" data-source-line="20" data-uid="ent0004" id="entity_PartTimeEmployee"><rect fill="#FFFFFF" height="109.1875" rx="2.5" ry="2.5" style="stroke:#000000;stroke-width:1;" width="558.9502" x="444.11" y="197.48"/><ellipse cx="645.6139" cy="211.48" fill="#FFFFFF" rx="9" ry="9" style="stroke:#000000;stroke-width:1;"/><path d="M648.5827,217.1206 Q648.0045,217.4175 647.3639,217.5581 Q646.7233,217.7144 646.0202,217.7144 Q643.5202,217.7144 642.192,216.0738 Q640.8795,214.4175 640.8795,211.2925 Q640.8795,208.1675 642.192,206.5113 Q643.5202,204.855 646.0202,204.855 Q646.7233,204.855 647.3639,205.0113 Q648.0202,205.1675 648.5827,205.4644 L648.5827,208.1831 Q647.9577,207.605 647.3639,207.3394 Q646.7702,207.0581 646.1452,207.0581 Q644.8014,207.0581 644.1139,208.1363 Q643.4264,209.1988 643.4264,211.2925 Q643.4264,213.3863 644.1139,214.4644 Q644.8014,215.5269 646.1452,215.5269 Q646.7702,215.5269 647.3639,215.2613 Q647.9577,214.98 648.5827,214.4019 L648.5827,217.1206 Z " fill="#000000"/><text fill="#000000" font-family="Verdana" font-size="14" font-weight="bold" lengthAdjust="spacing" textLength="148.4424" x="663.1139" y="216.3267">PartTimeEmployee</text><line style="stroke:#000000;stroke-width:1;" x1="445.11" x2="1002.0602" y1="225.48" y2="225.48"/><text fill="#000000" font-family="Verdana" font-size="14" lengthAdjust="spacing" textLength="155.0664" x="450.11" y="242.4751">-hoursWorked: double</text><text fill="#000000" font-family="Verdana" font-size="14" lengthAdjust="spacing" textLength="138.585" x="450.11" y="258.772">-hourlyRate: double</text><line style="stroke:#000000;stroke-width:1;" x1="445.11" x2="1002.0602" y1="266.0738" y2="266.0738"/><text fill="#000000" font-family="Verdana" font-size="14" lengthAdjust="spacing" textLength="546.9502" x="450.11" y="283.0689">+PartTimeEmployee(name: String, hoursWorked: double, hourlyRate: double)</text><text fill="#000000" font-family="Verdana" font-size="14" lengthAdjust="spacing" textLength="186.8193" x="450.11" y="299.3657">+calculateSalary(): double</text></g><!--reverse link Employee to FullTimeEmployee--><g class="link" data-entity-1="Employee" data-entity-2="FullTimeEmployee" data-source-line="28" data-uid="lnk5" id="link_Employee_FullTimeEmployee"><path codeLine="28" d="M361.1196,147.9718 C324.2996,173.1918 297.8,191.34 265.66,213.35" fill="none" id="Employee-backto-FullTimeEmployee" style="stroke:#000000;stroke-width:1;"/><polygon fill="none" points="375.97,137.8,357.729,143.0217,364.5102,152.922,375.97,137.8" style="stroke:#000000;stroke-width:1;"/></g><!--reverse link Employee to PartTimeEmployee--><g class="link" data-entity-1="Employee" data-entity-2="PartTimeEmployee" data-source-line="29" data-uid="lnk6" id="link_Employee_PartTimeEmployee"><path codeLine="29" d="M572.4274,147.9469 C600.8674,167.3569 617.14,178.45 644.68,197.24" fill="none" id="Employee-backto-PartTimeEmployee" style="stroke:#000000;stroke-width:1;"/><polygon fill="none" points="557.56,137.8,569.0452,152.9027,575.8097,142.9911,557.56,137.8" style="stroke:#000000;stroke-width:1;"/></g><!--SRC=[ZP0nJyCm48Nt-nM7M5gbaPWh5WOgTQj89UPpSb2hPpkodKgczByJKeX24gGk7jxTlVVvtSK36yPQI5k0SDIs9ay6Iw4GdcBqMZMHjwMpXVvWV1YlR9oDHKp2g9nK0AH2z5J6wnIVJIqkCUCP4E_Hak4r5gshVUy4HO4B4l9fZPLhb70hvtdxPFtjOdYrcZbPTkldt-WBbYHb8nH_zXRBWNc6bGxjTzFMlhdloSdf2Yu0L-1D8xBNXl-0PnFvHgR_GVh07Vau2Spnu1eVNfq_SZLifjCblRIMqyB6LYF86SlLZDyDv3thusUUJxePZSTK0F05]--></g></svg>