<svg xmlns="http://www.w3.org/2000/svg" xmlns:xlink="http://www.w3.org/1999/xlink" contentStyleType="text/css" data-diagram-type="CLASS" height="346px" preserveAspectRatio="none" style="width:1684px;height:346px;background:#FFFFFF;" version="1.1" viewBox="0 0 1684 346" width="1684px" zoomAndPan="magnify"><defs/><g><!--class BankAccount--><g class="entity" data-entity="BankAccount" data-source-line="6" data-uid="ent0002" id="entity_BankAccount"><rect fill="#FFFFFF" height="158.0781" rx="2.5" ry="2.5" style="stroke:#000000;stroke-width:1;" width="433.9619" x="523.87" y="12"/><ellipse cx="685.5648" cy="26" fill="#FFFFFF" rx="9" ry="9" style="stroke:#000000;stroke-width:1;"/><path d="M688.5336,31.6406 Q687.9554,31.9375 687.3148,32.0781 Q686.6742,32.2344 685.9711,32.2344 Q683.4711,32.2344 682.1429,30.5938 Q680.8304,28.9375 680.8304,25.8125 Q680.8304,22.6875 682.1429,21.0313 Q683.4711,19.375 685.9711,19.375 Q686.6742,19.375 687.3148,19.5313 Q687.9711,19.6875 688.5336,19.9844 L688.5336,22.7031 Q687.9086,22.125 687.3148,21.8594 Q686.7211,21.5781 686.0961,21.5781 Q684.7523,21.5781 684.0648,22.6563 Q683.3773,23.7188 683.3773,25.8125 Q683.3773,27.9063 684.0648,28.9844 Q684.7523,30.0469 686.0961,30.0469 Q686.7211,30.0469 687.3148,29.7813 Q687.9086,29.5 688.5336,28.9219 L688.5336,31.6406 Z " fill="#000000"/><text fill="#000000" font-family="Verdana" font-size="14" font-weight="bold" lengthAdjust="spacing" textLength="103.0723" x="703.0648" y="30.8467">BankAccount</text><line style="stroke:#000000;stroke-width:1;" x1="524.87" x2="956.8319" y1="40" y2="40"/><text fill="#000000" font-family="Verdana" font-size="14" lengthAdjust="spacing" textLength="174.6924" x="529.87" y="56.9951">#accountNumber: String</text><text fill="#000000" font-family="Verdana" font-size="14" lengthAdjust="spacing" textLength="147.2393" x="529.87" y="73.292">#ownerName: String</text><text fill="#000000" font-family="Verdana" font-size="14" lengthAdjust="spacing" textLength="123.7305" x="529.87" y="89.5889">#balance: double</text><line style="stroke:#000000;stroke-width:1;" x1="524.87" x2="956.8319" y1="96.8906" y2="96.8906"/><text fill="#000000" font-family="Verdana" font-size="14" lengthAdjust="spacing" textLength="421.9619" x="529.87" y="113.8857">+BankAccount(accountNumber: String, ownerName: String)</text><text fill="#000000" font-family="Verdana" font-size="14" lengthAdjust="spacing" textLength="223.9727" x="529.87" y="130.1826">+deposit(amount: double): void</text><text fill="#000000" font-family="Verdana" font-size="14" lengthAdjust="spacing" textLength="236.7217" x="529.87" y="146.4795">+withdraw(amount: double): void</text><text fill="#000000" font-family="Verdana" font-size="14" lengthAdjust="spacing" textLength="137.6553" x="529.87" y="162.7764">+displayInfo(): void</text></g><!--class SavingsAccount--><g class="entity" data-entity="SavingsAccount" data-source-line="17" data-uid="ent0003" id="entity_SavingsAccount"><rect fill="#FFFFFF" height="109.1875" rx="2.5" ry="2.5" style="stroke:#000000;stroke-width:1;" width="605.7012" x="12" y="230.08"/><ellipse cx="248.374" cy="244.08" fill="#FFFFFF" rx="9" ry="9" style="stroke:#000000;stroke-width:1;"/><path d="M251.3428,249.7206 Q250.7646,250.0175 250.124,250.1581 Q249.4834,250.3144 248.7803,250.3144 Q246.2803,250.3144 244.9521,248.6737 Q243.6396,247.0175 243.6396,243.8925 Q243.6396,240.7675 244.9521,239.1112 Q246.2803,237.455 248.7803,237.455 Q249.4834,237.455 250.124,237.6112 Q250.7803,237.7675 251.3428,238.0644 L251.3428,240.7831 Q250.7178,240.205 250.124,239.9394 Q249.5303,239.6581 248.9053,239.6581 Q247.5615,239.6581 246.874,240.7362 Q246.1865,241.7987 246.1865,243.8925 Q246.1865,245.9862 246.874,247.0644 Q247.5615,248.1269 248.9053,248.1269 Q249.5303,248.1269 250.124,247.8612 Q250.7178,247.58 251.3428,247.0019 L251.3428,249.7206 Z " fill="#000000"/><text fill="#000000" font-family="Verdana" font-size="14" font-weight="bold" lengthAdjust="spacing" textLength="125.4531" x="265.874" y="248.9267">SavingsAccount</text><line style="stroke:#000000;stroke-width:1;" x1="13" x2="616.7012" y1="258.08" y2="258.08"/><text fill="#000000" font-family="Verdana" font-size="14" lengthAdjust="spacing" textLength="148.3604" x="18" y="275.0751">-interestRate: double</text><line style="stroke:#000000;stroke-width:1;" x1="13" x2="616.7012" y1="282.3769" y2="282.3769"/><text fill="#000000" font-family="Verdana" font-size="14" lengthAdjust="spacing" textLength="593.7012" x="18" y="299.372">+SavingsAccount(accountNumber: String, ownerName: String, interestRate: double)</text><text fill="#000000" font-family="Verdana" font-size="14" lengthAdjust="spacing" textLength="154.2324" x="18" y="315.6689">+applyInterest(): void</text><text fill="#000000" font-family="Verdana" font-size="14" lengthAdjust="spacing" textLength="137.6553" x="18" y="331.9657">+displayInfo(): void</text></g><!--class CheckingAccount--><g class="entity" data-entity="CheckingAccount" data-source-line="25" data-uid="ent0004" id="entity_CheckingAccount"><rect fill="#FFFFFF" height="109.1875" rx="2.5" ry="2.5" style="stroke:#000000;stroke-width:1;" width="628.8613" x="852.42" y="230.08"/><ellipse cx="1095.1959" cy="244.08" fill="#FFFFFF" rx="9" ry="9" style="stroke:#000000;stroke-width:1;"/><path d="M1098.1646,249.7206 Q1097.5865,250.0175 1096.9459,250.1581 Q1096.3053,250.3144 1095.6021,250.3144 Q1093.1021,250.3144 1091.774,248.6737 Q1090.4615,247.0175 1090.4615,243.8925 Q1090.4615,240.7675 1091.774,239.1112 Q1093.1021,237.455 1095.6021,237.455 Q1096.3053,237.455 1096.9459,237.6112 Q1097.6021,237.7675 1098.1646,238.0644 L1098.1646,240.7831 Q1097.5396,240.205 1096.9459,239.9394 Q1096.3521,239.6581 1095.7271,239.6581 Q1094.3834,239.6581 1093.6959,240.7362 Q1093.0084,241.7987 1093.0084,243.8925 Q1093.0084,245.9862 1093.6959,247.0644 Q1094.3834,248.1269 1095.7271,248.1269 Q1096.3521,248.1269 1096.9459,247.8612 Q1097.5396,247.58 1098.1646,247.0019 L1098.1646,249.7206 Z " fill="#000000"/><text fill="#000000" font-family="Verdana" font-size="14" font-weight="bold" lengthAdjust="spacing" textLength="135.8096" x="1112.6959" y="248.9267">CheckingAccount</text><line style="stroke:#000000;stroke-width:1;" x1="853.42" x2="1480.2813" y1="258.08" y2="258.08"/><text fill="#000000" font-family="Verdana" font-size="14" lengthAdjust="spacing" textLength="161.499" x="858.42" y="275.0751">-overdraftLimit: double</text><line style="stroke:#000000;stroke-width:1;" x1="853.42" x2="1480.2813" y1="282.3769" y2="282.3769"/><text fill="#000000" font-family="Verdana" font-size="14" lengthAdjust="spacing" textLength="616.8613" x="858.42" y="299.372">+CheckingAccount(accountNumber: String, ownerName: String, overdraftLimit: double)</text><text fill="#000000" font-family="Verdana" font-size="14" lengthAdjust="spacing" textLength="236.7217" x="858.42" y="315.6689">+withdraw(amount: double): void</text><text fill="#000000" font-family="Verdana" font-size="14" lengthAdjust="spacing" textLength="137.6553" x="858.42" y="331.9657">+displayInfo(): void</text></g><g class="entity" data-entity="GMN7" data-source-line="37" data-uid="ent0008" id="entity_GMN7"><path d="M652.27,264.54 L652.27,280.68 L617.96,284.68 L652.27,288.68 L652.27,304.8056 A0,0 0 0 0 652.27,304.8056 L817.4316,304.8056 A0,0 0 0 0 817.4316,304.8056 L817.4316,274.54 L807.4316,264.54 L652.27,264.54 A0,0 0 0 0 652.27,264.54" fill="#FFFFFF" style="stroke:#000000;stroke-width:1;"/><path d="M807.4316,264.54 L807.4316,274.54 L817.4316,274.54 L807.4316,264.54" fill="#FFFFFF" style="stroke:#000000;stroke-width:1;"/><text fill="#000000" font-family="Verdana" font-size="13" lengthAdjust="spacing" textLength="144.1616" x="658.27" y="281.6069">Compte &#233;pargne avec</text><text fill="#000000" font-family="Verdana" font-size="13" lengthAdjust="spacing" textLength="88.3403" x="658.27" y="296.7397">taux d'int&#233;r&#234;t</text></g><g class="entity" data-entity="GMN10" data-source-line="42" data-uid="ent0011" id="entity_GMN10"><path d="M1516.3,264.54 L1516.3,280.68 L1481.37,284.68 L1516.3,288.68 L1516.3,304.8056 A0,0 0 0 0 1516.3,304.8056 L1677.3991,304.8056 A0,0 0 0 0 1677.3991,304.8056 L1677.3991,274.54 L1667.3991,264.54 L1516.3,264.54 A0,0 0 0 0 1516.3,264.54" fill="#FFFFFF" style="stroke:#000000;stroke-width:1;"/><path d="M1667.3991,264.54 L1667.3991,274.54 L1677.3991,274.54 L1667.3991,264.54" fill="#FFFFFF" style="stroke:#000000;stroke-width:1;"/><text fill="#000000" font-family="Verdana" font-size="13" lengthAdjust="spacing" textLength="140.0991" x="1522.3" y="281.6069">Compte courant avec</text><text fill="#000000" font-family="Verdana" font-size="13" lengthAdjust="spacing" textLength="122.8398" x="1522.3" y="296.7397">d&#233;couvert autoris&#233;</text></g><!--reverse link BankAccount to SavingsAccount--><g class="link" data-entity-1="BankAccount" data-entity-2="SavingsAccount" data-source-line="33" data-uid="lnk5" id="link_BankAccount_SavingsAccount"><path codeLine="33" d="M549.9349,177.9253 C505.8149,197.7753 475.84,211.26 435.07,229.59" fill="none" id="BankAccount-backto-SavingsAccount" style="stroke:#000000;stroke-width:1;"/><polygon fill="none" points="566.35,170.54,547.4731,172.4536,552.3966,183.397,566.35,170.54" style="stroke:#000000;stroke-width:1;"/></g><!--reverse link BankAccount to CheckingAccount--><g class="link" data-entity-1="BankAccount" data-entity-2="CheckingAccount" data-source-line="34" data-uid="lnk6" id="link_BankAccount_CheckingAccount"><path codeLine="34" d="M931.7651,177.9253 C975.8851,197.7753 1005.86,211.26 1046.63,229.59" fill="none" id="BankAccount-backto-CheckingAccount" style="stroke:#000000;stroke-width:1;"/><polygon fill="none" points="915.35,170.54,929.3034,183.397,934.2269,172.4536,915.35,170.54" style="stroke:#000000;stroke-width:1;"/></g><!--SRC=[fPDDQiD038NtSmgLBfhG6BeEtQI1Gg1aKPz0zYZs47l6Z6MdwS-1t6luObMSfZXEA2dT6EP9-aPF6bznIZb1aQ6nIfLhOmlqc4ESOLdEcBs9AgP5x6neNWdkXYcFpdB8sumWSfbMgXFX0Urw5iUkiWnl2k0QS7zQLdb4VWgXW6tIHTp6abzYJaTgX1dQM3JjgYWZqO90FhTzzEWiT79A77ULcWfN6gdATqK7ydWAjJEwozWOJhN7pIyfsfGog-t2hjpee7ySR8TOosrbtta0nZ9vAlaP-OoTuvAB7KtEOlS-iIWoQN0V7btS_3obM7QR77VlQl8oaXK_cTpmQV-3gZyOE4yU_tCH_PTt_nu4Wm6VnWS6bBAE2Rn9KWQt6fO3p5rUI4BRo4-GM0AiAHQPiNe1VIDRQHlVVh8Ygs676WA7z_qGvUXHkle6whOHHMOaIiNEcx9jUb3r1G00]--></g></svg>