<svg xmlns="http://www.w3.org/2000/svg" xmlns:xlink="http://www.w3.org/1999/xlink" contentStyleType="text/css" data-diagram-type="CLASS" height="492px" preserveAspectRatio="none" style="width:1250px;height:492px;background:#FFFFFF;" version="1.1" viewBox="0 0 1250 492" width="1250px" zoomAndPan="magnify"><defs/><g><!--class Shape--><g class="entity" data-entity="Shape" data-source-line="6" data-uid="ent0002" id="entity_Shape"><rect fill="#FFFFFF" height="141.7813" rx="2.5" ry="2.5" style="stroke:#000000;stroke-width:1;" width="225.6025" x="473.81" y="141.53"/><ellipse cx="558.3544" cy="155.53" fill="#FFFFFF" rx="9" ry="9" style="stroke:#000000;stroke-width:1;"/><path d="M558.4638,150.8737 L557.3076,155.9519 L559.6357,155.9519 L558.4638,150.8737 Z M556.9794,148.6394 L559.9638,148.6394 L563.3232,161.03 L560.8701,161.03 L560.1044,157.9675 L556.8232,157.9675 L556.0732,161.03 L553.6357,161.03 L556.9794,148.6394 Z " fill="#000000"/><text fill="#000000" font-family="Verdana" font-size="14" font-style="italic" font-weight="bold" lengthAdjust="spacing" textLength="49.0137" x="575.8544" y="160.3767">Shape</text><line style="stroke:#000000;stroke-width:1;" x1="474.81" x2="698.4125" y1="169.53" y2="169.53"/><text fill="#000000" font-family="Verdana" font-size="14" lengthAdjust="spacing" textLength="97.1523" x="479.81" y="186.5251">#color: String</text><line style="stroke:#000000;stroke-width:1;" x1="474.81" x2="698.4125" y1="193.8269" y2="193.8269"/><text fill="#000000" font-family="Verdana" font-size="14" lengthAdjust="spacing" textLength="151.915" x="479.81" y="210.822">+Shape(color: String)</text><text fill="#000000" font-family="Verdana" font-size="14" font-style="italic" lengthAdjust="spacing" textLength="175.3691" x="479.81" y="227.1189">+calculateArea(): double</text><text fill="#000000" font-family="Verdana" font-size="14" font-style="italic" lengthAdjust="spacing" textLength="211.6543" x="479.81" y="243.4157">+calculatePerimeter(): double</text><text fill="#000000" font-family="Verdana" font-size="14" lengthAdjust="spacing" textLength="137.6553" x="479.81" y="259.7126">+displayInfo(): void</text><text fill="#000000" font-family="Verdana" font-size="14" lengthAdjust="spacing" textLength="213.6025" x="479.81" y="276.0095">+paint(newColor: String): void</text></g><!--class Rectangle--><g class="entity" data-entity="Rectangle" data-source-line="16" data-uid="ent0003" id="entity_Rectangle"><rect fill="#FFFFFF" height="125.4844" rx="2.5" ry="2.5" style="stroke:#000000;stroke-width:1;" width="405.2236" x="12" y="351.46"/><ellipse cx="171.3638" cy="365.46" fill="#FFFFFF" rx="9" ry="9" style="stroke:#000000;stroke-width:1;"/><path d="M174.3325,371.1006 Q173.7544,371.3975 173.1138,371.5381 Q172.4731,371.6944 171.77,371.6944 Q169.27,371.6944 167.9419,370.0538 Q166.6294,368.3975 166.6294,365.2725 Q166.6294,362.1475 167.9419,360.4913 Q169.27,358.835 171.77,358.835 Q172.4731,358.835 173.1138,358.9913 Q173.77,359.1475 174.3325,359.4444 L174.3325,362.1631 Q173.7075,361.585 173.1138,361.3194 Q172.52,361.0381 171.895,361.0381 Q170.5513,361.0381 169.8638,362.1163 Q169.1763,363.1788 169.1763,365.2725 Q169.1763,367.3663 169.8638,368.4444 Q170.5513,369.5069 171.895,369.5069 Q172.52,369.5069 173.1138,369.2413 Q173.7075,368.96 174.3325,368.3819 L174.3325,371.1006 Z " fill="#000000"/><text fill="#000000" font-family="Verdana" font-size="14" font-weight="bold" lengthAdjust="spacing" textLength="78.9961" x="188.8638" y="370.3067">Rectangle</text><line style="stroke:#000000;stroke-width:1;" x1="13" x2="416.2236" y1="379.46" y2="379.46"/><text fill="#000000" font-family="Verdana" font-size="14" lengthAdjust="spacing" textLength="100.5225" x="18" y="396.4551">-width: double</text><text fill="#000000" font-family="Verdana" font-size="14" lengthAdjust="spacing" textLength="106.5586" x="18" y="412.752">-height: double</text><line style="stroke:#000000;stroke-width:1;" x1="13" x2="416.2236" y1="420.0538" y2="420.0538"/><text fill="#000000" font-family="Verdana" font-size="14" lengthAdjust="spacing" textLength="393.2236" x="18" y="437.0489">+Rectangle(color: String, width: double, height: double)</text><text fill="#000000" font-family="Verdana" font-size="14" lengthAdjust="spacing" textLength="175.3691" x="18" y="453.3457">+calculateArea(): double</text><text fill="#000000" font-family="Verdana" font-size="14" lengthAdjust="spacing" textLength="211.6543" x="18" y="469.6426">+calculatePerimeter(): double</text></g><!--class Circle--><g class="entity" data-entity="Circle" data-source-line="25" data-uid="ent0004" id="entity_Circle"><rect fill="#FFFFFF" height="109.1875" rx="2.5" ry="2.5" style="stroke:#000000;stroke-width:1;" width="268.7578" x="452.23" y="359.61"/><ellipse cx="560.5738" cy="373.61" fill="#FFFFFF" rx="9" ry="9" style="stroke:#000000;stroke-width:1;"/><path d="M563.5425,379.2506 Q562.9644,379.5475 562.3238,379.6881 Q561.6831,379.8444 560.98,379.8444 Q558.48,379.8444 557.1519,378.2037 Q555.8394,376.5475 555.8394,373.4225 Q555.8394,370.2975 557.1519,368.6412 Q558.48,366.985 560.98,366.985 Q561.6831,366.985 562.3238,367.1412 Q562.98,367.2975 563.5425,367.5944 L563.5425,370.3131 Q562.9175,369.735 562.3238,369.4694 Q561.73,369.1881 561.105,369.1881 Q559.7613,369.1881 559.0738,370.2662 Q558.3863,371.3287 558.3863,373.4225 Q558.3863,375.5162 559.0738,376.5944 Q559.7613,377.6569 561.105,377.6569 Q561.73,377.6569 562.3238,377.3912 Q562.9175,377.11 563.5425,376.5319 L563.5425,379.2506 Z " fill="#000000"/><text fill="#000000" font-family="Verdana" font-size="14" font-weight="bold" lengthAdjust="spacing" textLength="44.5703" x="578.0738" y="378.4567">Circle</text><line style="stroke:#000000;stroke-width:1;" x1="453.23" x2="719.9878" y1="387.61" y2="387.61"/><text fill="#000000" font-family="Verdana" font-size="14" lengthAdjust="spacing" textLength="105.2119" x="458.23" y="404.6051">-radius: double</text><line style="stroke:#000000;stroke-width:1;" x1="453.23" x2="719.9878" y1="411.9069" y2="411.9069"/><text fill="#000000" font-family="Verdana" font-size="14" lengthAdjust="spacing" textLength="256.7578" x="458.23" y="428.902">+Circle(color: String, radius: double)</text><text fill="#000000" font-family="Verdana" font-size="14" lengthAdjust="spacing" textLength="175.3691" x="458.23" y="445.1989">+calculateArea(): double</text><text fill="#000000" font-family="Verdana" font-size="14" lengthAdjust="spacing" textLength="211.6543" x="458.23" y="461.4957">+calculatePerimeter(): double</text></g><!--class Triangle--><g class="entity" data-entity="Triangle" data-source-line="33" data-uid="ent0005" id="entity_Triangle"><rect fill="#FFFFFF" height="141.7813" rx="2.5" ry="2.5" style="stroke:#000000;stroke-width:1;" width="487.2344" x="755.99" y="343.31"/><ellipse cx="963.366" cy="357.31" fill="#FFFFFF" rx="9" ry="9" style="stroke:#000000;stroke-width:1;"/><path d="M966.3347,362.9506 Q965.7566,363.2475 965.116,363.3881 Q964.4754,363.5444 963.7722,363.5444 Q961.2722,363.5444 959.9441,361.9038 Q958.6316,360.2475 958.6316,357.1225 Q958.6316,353.9975 959.9441,352.3413 Q961.2722,350.685 963.7722,350.685 Q964.4754,350.685 965.116,350.8413 Q965.7722,350.9975 966.3347,351.2944 L966.3347,354.0131 Q965.7097,353.435 965.116,353.1694 Q964.5222,352.8881 963.8972,352.8881 Q962.5535,352.8881 961.866,353.9663 Q961.1785,355.0288 961.1785,357.1225 Q961.1785,359.2163 961.866,360.2944 Q962.5535,361.3569 963.8972,361.3569 Q964.5222,361.3569 965.116,361.0913 Q965.7097,360.81 966.3347,360.2319 L966.3347,362.9506 Z " fill="#000000"/><text fill="#000000" font-family="Verdana" font-size="14" font-weight="bold" lengthAdjust="spacing" textLength="64.9824" x="980.866" y="362.1567">Triangle</text><line style="stroke:#000000;stroke-width:1;" x1="756.99" x2="1242.2244" y1="371.31" y2="371.31"/><text fill="#000000" font-family="Verdana" font-size="14" lengthAdjust="spacing" textLength="99.5244" x="761.99" y="388.3051">-side1: double</text><text fill="#000000" font-family="Verdana" font-size="14" lengthAdjust="spacing" textLength="99.5244" x="761.99" y="404.602">-side2: double</text><text fill="#000000" font-family="Verdana" font-size="14" lengthAdjust="spacing" textLength="99.5244" x="761.99" y="420.8989">-side3: double</text><line style="stroke:#000000;stroke-width:1;" x1="756.99" x2="1242.2244" y1="428.2006" y2="428.2006"/><text fill="#000000" font-family="Verdana" font-size="14" lengthAdjust="spacing" textLength="475.2344" x="761.99" y="445.1957">+Triangle(color: String, side1: double, side2: double, side3: double)</text><text fill="#000000" font-family="Verdana" font-size="14" lengthAdjust="spacing" textLength="175.3691" x="761.99" y="461.4926">+calculateArea(): double</text><text fill="#000000" font-family="Verdana" font-size="14" lengthAdjust="spacing" textLength="211.6543" x="761.99" y="477.7895">+calculatePerimeter(): double</text></g><g class="entity" data-entity="GMN9" data-source-line="48" data-uid="ent0010" id="entity_GMN9"><path d="M486.42,11 L486.42,81.5313 A0,0 0 0 0 486.42,81.5313 L582.61,81.5313 L586.61,141.2 L590.61,81.5313 L686.8111,81.5313 A0,0 0 0 0 686.8111,81.5313 L686.8111,21 L676.8111,11 L486.42,11 A0,0 0 0 0 486.42,11" fill="#FFFFFF" style="stroke:#000000;stroke-width:1;"/><path d="M676.8111,11 L676.8111,21 L686.8111,21 L676.8111,11" fill="#FFFFFF" style="stroke:#000000;stroke-width:1;"/><text fill="#000000" font-family="Verdana" font-size="13" lengthAdjust="spacing" textLength="112.9502" x="492.42" y="28.0669">Classe abstraite :</text><text fill="#000000" font-family="Verdana" font-size="13" lengthAdjust="spacing" textLength="118.6885" x="492.42" y="43.1997">- D&#233;finit le contrat</text><text fill="#000000" font-family="Verdana" font-size="13" lengthAdjust="spacing" textLength="141.3623" x="492.42" y="58.3325">- M&#233;thodes abstraites</text><text fill="#000000" font-family="Verdana" font-size="13" lengthAdjust="spacing" textLength="179.3911" x="492.42" y="73.4653">- Code commun r&#233;utilisable</text></g><!--reverse link Shape to Rectangle--><g class="link" data-entity-1="Shape" data-entity-2="Rectangle" data-source-line="43" data-uid="lnk6" id="link_Shape_Rectangle"><path codeLine="43" d="M457.6231,282.6881 C412.3131,307.0281 376,326.53 330.41,351.01" fill="none" id="Shape-backto-Rectangle" style="stroke:#000000;stroke-width:1;"/><polygon fill="none" points="473.48,274.17,454.7837,277.4025,460.4625,287.9738,473.48,274.17" style="stroke:#000000;stroke-width:1;"/></g><!--reverse link Shape to Circle--><g class="link" data-entity-1="Shape" data-entity-2="Circle" data-source-line="44" data-uid="lnk7" id="link_Shape_Circle"><path codeLine="44" d="M586.61,301.57 C586.61,326.42 586.61,335.97 586.61,359.26" fill="none" id="Shape-backto-Circle" style="stroke:#000000;stroke-width:1;"/><polygon fill="none" points="586.61,283.57,580.61,301.57,592.61,301.57,586.61,283.57" style="stroke:#000000;stroke-width:1;"/></g><!--reverse link Shape to Triangle--><g class="link" data-entity-1="Shape" data-entity-2="Triangle" data-source-line="45" data-uid="lnk8" id="link_Shape_Triangle"><path codeLine="45" d="M715.9428,275.9802 C763.7028,299.0902 803.71,318.43 854.47,342.99" fill="none" id="Shape-backto-Triangle" style="stroke:#000000;stroke-width:1;"/><polygon fill="none" points="699.74,268.14,713.3294,281.3811,718.5562,270.5792,699.74,268.14" style="stroke:#000000;stroke-width:1;"/></g><!--SRC=[hLFBJiCm4BpxAnPnQKKZyRXLN50H4WSaHFa1DzusAnmxiZTKfVI3-XtzCPoObZWLlS0bXvdPySp6FkC2IuHAIp92-3SobNIoX5nBx- -O7SrgniVScYbz85ps9G_My9HN6c5cjH92pZmxcNDaOLh82c4j0CuXjzgwCKo3fra49Cl2vo9A1WavR8drtci3kTHvhINZdKCv68v1sNgcyLVPCpegaT7rj8fyQBfwD7FRCE-ML8jNeJqF32udIOnlnKQ8sEO5SvPceMEZ39QakEWSa461j2Yu2yMIXycqw2Yr6FNcunvEbJ_P-91xGYu_X7PIKUsF8qPHFr-g_gz0huwwU_Iay2hPOuDS7o4tnwdtJltSYUKezHkbPdyl5M_vxMUM_VpeBXXNsqNsiOKmbX7OLc3dyIc44oVDaX3YnQR0ZziLtE-sSpB441ON7cJWkCMVTbikh4B_C-5ROXB0e2pBse3RRMicJLuseT4eQ4uMGdm1]--></g></svg>