<svg xmlns="http://www.w3.org/2000/svg" xmlns:xlink="http://www.w3.org/1999/xlink" contentStyleType="text/css" data-diagram-type="CLASS" height="476px" preserveAspectRatio="none" style="width:1015px;height:476px;background:#FFFFFF;" version="1.1" viewBox="0 0 1015 476" width="1015px" zoomAndPan="magnify"><defs/><g><!--class Vehicle--><g class="entity" data-entity="Vehicle" data-source-line="6" data-uid="ent0002" id="entity_Vehicle"><rect fill="#FFFFFF" height="141.7813" rx="2.5" ry="2.5" style="stroke:#000000;stroke-width:1;" width="362.0752" x="330.41" y="12"/><ellipse cx="478.8534" cy="26" fill="#FFFFFF" rx="9" ry="9" style="stroke:#000000;stroke-width:1;"/><path d="M481.8221,31.6406 Q481.244,31.9375 480.6034,32.0781 Q479.9627,32.2344 479.2596,32.2344 Q476.7596,32.2344 475.4315,30.5938 Q474.119,28.9375 474.119,25.8125 Q474.119,22.6875 475.4315,21.0313 Q476.7596,19.375 479.2596,19.375 Q479.9627,19.375 480.6034,19.5313 Q481.2596,19.6875 481.8221,19.9844 L481.8221,22.7031 Q481.1971,22.125 480.6034,21.8594 Q480.0096,21.5781 479.3846,21.5781 Q478.0409,21.5781 477.3534,22.6563 Q476.6659,23.7188 476.6659,25.8125 Q476.6659,27.9063 477.3534,28.9844 Q478.0409,30.0469 479.3846,30.0469 Q480.0096,30.0469 480.6034,29.7813 Q481.1971,29.5 481.8221,28.9219 L481.8221,31.6406 Z " fill="#000000"/><text fill="#000000" font-family="Verdana" font-size="14" font-weight="bold" lengthAdjust="spacing" textLength="57.6885" x="496.3534" y="30.8467">Vehicle</text><line style="stroke:#000000;stroke-width:1;" x1="331.41" x2="691.4852" y1="40" y2="40"/><text fill="#000000" font-family="Verdana" font-size="14" lengthAdjust="spacing" textLength="148.8115" x="336.41" y="56.9951">-vin: String {private}</text><text fill="#000000" font-family="Verdana" font-size="14" lengthAdjust="spacing" textLength="193.9219" x="336.41" y="73.292">#brand: String {protected}</text><text fill="#000000" font-family="Verdana" font-size="14" lengthAdjust="spacing" textLength="170.6592" x="336.41" y="89.5889">+model: String {public}</text><line style="stroke:#000000;stroke-width:1;" x1="331.41" x2="691.4852" y1="96.8906" y2="96.8906"/><text fill="#000000" font-family="Verdana" font-size="14" lengthAdjust="spacing" textLength="350.0752" x="336.41" y="113.8857">+Vehicle(vin: String, brand: String, model: String)</text><text fill="#000000" font-family="Verdana" font-size="14" lengthAdjust="spacing" textLength="133.499" x="336.41" y="130.1826">#displayVin(): void</text><text fill="#000000" font-family="Verdana" font-size="14" lengthAdjust="spacing" textLength="137.6553" x="336.41" y="146.4795">+displayInfo(): void</text></g><!--class Car--><g class="entity" data-entity="Car" data-source-line="16" data-uid="ent0003" id="entity_Car"><rect fill="#FFFFFF" height="125.4844" rx="2.5" ry="2.5" style="stroke:#000000;stroke-width:1;" width="482.9004" x="12" y="213.78"/><ellipse cx="236.3872" cy="227.78" fill="#FFFFFF" rx="9" ry="9" style="stroke:#000000;stroke-width:1;"/><path d="M239.356,233.4206 Q238.7778,233.7175 238.1372,233.8581 Q237.4966,234.0144 236.7935,234.0144 Q234.2935,234.0144 232.9653,232.3738 Q231.6528,230.7175 231.6528,227.5925 Q231.6528,224.4675 232.9653,222.8113 Q234.2935,221.155 236.7935,221.155 Q237.4966,221.155 238.1372,221.3113 Q238.7935,221.4675 239.356,221.7644 L239.356,224.4831 Q238.731,223.905 238.1372,223.6394 Q237.5435,223.3581 236.9185,223.3581 Q235.5747,223.3581 234.8872,224.4363 Q234.1997,225.4988 234.1997,227.5925 Q234.1997,229.6863 234.8872,230.7644 Q235.5747,231.8269 236.9185,231.8269 Q237.5435,231.8269 238.1372,231.5613 Q238.731,231.28 239.356,230.7019 L239.356,233.4206 Z " fill="#000000"/><text fill="#000000" font-family="Verdana" font-size="14" font-weight="bold" lengthAdjust="spacing" textLength="26.626" x="253.8872" y="232.6267">Car</text><line style="stroke:#000000;stroke-width:1;" x1="13" x2="493.9004" y1="241.78" y2="241.78"/><text fill="#000000" font-family="Verdana" font-size="14" lengthAdjust="spacing" textLength="144.0195" x="18" y="258.7751">-numberOfDoors: int</text><line style="stroke:#000000;stroke-width:1;" x1="13" x2="493.9004" y1="266.0769" y2="266.0769"/><text fill="#000000" font-family="Verdana" font-size="14" lengthAdjust="spacing" textLength="470.9004" x="18" y="283.072">+Car(vin: String, brand: String, model: String, numberOfDoors: int)</text><text fill="#000000" font-family="Verdana" font-size="14" lengthAdjust="spacing" textLength="229.5098" x="18" y="299.3689">+displayBrandUpperCase(): void</text><text fill="#000000" font-family="Verdana" font-size="14" lengthAdjust="spacing" textLength="136.5068" x="18" y="315.6657">+testAccess(): void</text><text fill="#000000" font-family="Verdana" font-size="14" lengthAdjust="spacing" textLength="137.6553" x="18" y="331.9626">+displayInfo(): void</text></g><!--class Motorcycle--><g class="entity" data-entity="Motorcycle" data-source-line="25" data-uid="ent0004" id="entity_Motorcycle"><rect fill="#FFFFFF" height="109.1875" rx="2.5" ry="2.5" style="stroke:#000000;stroke-width:1;" width="478.6826" x="530.11" y="221.93"/><ellipse cx="722.3102" cy="235.93" fill="#FFFFFF" rx="9" ry="9" style="stroke:#000000;stroke-width:1;"/><path d="M725.2789,241.5706 Q724.7008,241.8675 724.0602,242.0081 Q723.4196,242.1644 722.7164,242.1644 Q720.2164,242.1644 718.8883,240.5238 Q717.5758,238.8675 717.5758,235.7425 Q717.5758,232.6175 718.8883,230.9613 Q720.2164,229.305 722.7164,229.305 Q723.4196,229.305 724.0602,229.4613 Q724.7164,229.6175 725.2789,229.9144 L725.2789,232.6331 Q724.6539,232.055 724.0602,231.7894 Q723.4664,231.5081 722.8414,231.5081 Q721.4977,231.5081 720.8102,232.5863 Q720.1227,233.6488 720.1227,235.7425 Q720.1227,237.8363 720.8102,238.9144 Q721.4977,239.9769 722.8414,239.9769 Q723.4664,239.9769 724.0602,239.7113 Q724.6539,239.43 725.2789,238.8519 L725.2789,241.5706 Z " fill="#000000"/><text fill="#000000" font-family="Verdana" font-size="14" font-weight="bold" lengthAdjust="spacing" textLength="86.7822" x="739.8102" y="240.7767">Motorcycle</text><line style="stroke:#000000;stroke-width:1;" x1="531.11" x2="1007.7926" y1="249.93" y2="249.93"/><text fill="#000000" font-family="Verdana" font-size="14" lengthAdjust="spacing" textLength="87.2744" x="536.11" y="266.9251">-type: String</text><line style="stroke:#000000;stroke-width:1;" x1="531.11" x2="1007.7926" y1="274.2269" y2="274.2269"/><text fill="#000000" font-family="Verdana" font-size="14" lengthAdjust="spacing" textLength="466.6826" x="536.11" y="291.222">+Motorcycle(vin: String, brand: String, model: String, type: String)</text><text fill="#000000" font-family="Verdana" font-size="14" lengthAdjust="spacing" textLength="191.29" x="536.11" y="307.5189">+displayCustomInfo(): void</text><text fill="#000000" font-family="Verdana" font-size="14" lengthAdjust="spacing" textLength="137.6553" x="536.11" y="323.8157">+displayInfo(): void</text></g><g class="entity" data-entity="GMN7" data-source-line="37" data-uid="ent0008" id="entity_GMN7"><path d="M727.73,47.63 L727.73,78.89 L692.74,82.89 L727.73,86.89 L727.73,118.1613 A0,0 0 0 0 727.73,118.1613 L989.1792,118.1613 A0,0 0 0 0 989.1792,118.1613 L989.1792,57.63 L979.1792,47.63 L727.73,47.63 A0,0 0 0 0 727.73,47.63" fill="#FFFFFF" style="stroke:#000000;stroke-width:1;"/><path d="M979.1792,47.63 L979.1792,57.63 L989.1792,57.63 L979.1792,47.63" fill="#FFFFFF" style="stroke:#000000;stroke-width:1;"/><text fill="#000000" font-family="Verdana" font-size="13" lengthAdjust="spacing" textLength="149.2905" x="733.73" y="64.6969">Modificateurs d'acc&#232;s :</text><text fill="#000000" font-family="Verdana" font-size="13" lengthAdjust="spacing" textLength="197.6406" x="733.73" y="79.8297">- private : uniquement Vehicle</text><text fill="#000000" font-family="Verdana" font-size="13" lengthAdjust="spacing" textLength="12.4033" x="733.73" y="94.9625">1.</text><text fill="#000000" font-family="Verdana" font-size="13" lengthAdjust="spacing" textLength="223.9136" x="750.2656" y="94.9625">protected : Vehicle + sous-classes</text><text fill="#000000" font-family="Verdana" font-size="13" lengthAdjust="spacing" textLength="186.145" x="733.73" y="110.0953">+ public : accessible partout</text></g><g class="entity" data-entity="GMN10" data-source-line="44" data-uid="ent0011" id="entity_GMN10"><path d="M177.7,399.27 L177.7,469.8013 A0,0 0 0 0 177.7,469.8013 L329.1951,469.8013 A0,0 0 0 0 329.1951,469.8013 L329.1951,409.27 L319.1951,399.27 L257.45,399.27 L253.45,339.63 L249.45,399.27 L177.7,399.27 A0,0 0 0 0 177.7,399.27" fill="#FFFFFF" style="stroke:#000000;stroke-width:1;"/><path d="M319.1951,399.27 L319.1951,409.27 L329.1951,409.27 L319.1951,399.27" fill="#FFFFFF" style="stroke:#000000;stroke-width:1;"/><text fill="#000000" font-family="Verdana" font-size="13" lengthAdjust="spacing" textLength="46.4712" x="183.7" y="416.3369">Acc&#232;s :</text><text fill="#000000" font-family="Verdana" font-size="13" lengthAdjust="spacing" textLength="108.894" x="183.7" y="431.4697">&#10003; model (public)</text><text fill="#000000" font-family="Verdana" font-size="13" lengthAdjust="spacing" textLength="130.4951" x="183.7" y="446.6025">&#10003; brand (protected)</text><text fill="#000000" font-family="Verdana" font-size="13" lengthAdjust="spacing" textLength="94.8086" x="183.7" y="461.7353">&#10007; vin (private)</text></g><!--reverse link Vehicle to Car--><g class="link" data-entity-1="Vehicle" data-entity-2="Car" data-source-line="33" data-uid="lnk5" id="link_Vehicle_Car"><path codeLine="33" d="M402.3985,164.891 C376.2185,184.331 362.46,194.56 336.96,213.49" fill="none" id="Vehicle-backto-Car" style="stroke:#000000;stroke-width:1;"/><polygon fill="none" points="416.85,154.16,398.8215,160.0738,405.9755,169.7082,416.85,154.16" style="stroke:#000000;stroke-width:1;"/></g><!--reverse link Vehicle to Motorcycle--><g class="link" data-entity-1="Vehicle" data-entity-2="Motorcycle" data-source-line="34" data-uid="lnk6" id="link_Vehicle_Motorcycle"><path codeLine="34" d="M620.5008,164.8919 C650.4208,187.1119 668.54,200.58 696.68,221.48" fill="none" id="Vehicle-backto-Motorcycle" style="stroke:#000000;stroke-width:1;"/><polygon fill="none" points="606.05,154.16,616.9236,169.7088,624.0781,160.0749,606.05,154.16" style="stroke:#000000;stroke-width:1;"/></g><!--SRC=[bLCxRjmm4ErvYZ5SU0Ml0DT2clK60LmOBXPsJv6pNi8IHo672wm_ft3X9WV8FNAJd2GaLxAa832SzitCc_U6ZoUymnQXQwInGlW7OplfP0kgaTwlc9sf0-EL8hinZmWNVxTy8yiRFZG8DJLQY0p27UwCYjYJ02XXRsm5cqXbx-6fSsOl6LzYvHHg9wsUreXHCUfKFOUMD3QJQgWRerAfB7EztxAOy2_dbCivHv6NQkEZtSETiOkYWZqPdTbw-CfkwHr_6GojfUlDsD3Mw6wsNucShy1O7WN5hi-BMVw3gfWgkKp3jrs7RYqzphGoUbufXTv_ti8rCJbr69-53nqEOaOFOzl_M9bopKoiWsTgPue-K3havijpMQPhpe5HcX0s9WMSkTynq7P8GgI-9cssHiM41UT1dqcbVltqK6N7VVQWWc3Dzn23RtaoUmhl0Omjm-fpy1HycO-8Fgi_9Z7soFm6fevjyKym1HPeDIHnlSIQEFfF6fCTWDMev_UFr-CPON4aB7emdpg2WvWZ_fR-KKApXsAoIFm1]--></g></svg>