<svg xmlns="http://www.w3.org/2000/svg" xmlns:xlink="http://www.w3.org/1999/xlink" contentStyleType="text/css" data-diagram-type="CLASS" height="587px" preserveAspectRatio="none" style="width:1333px;height:587px;background:#FFFFFF;" version="1.1" viewBox="0 0 1333 587" width="1333px" zoomAndPan="magnify"><defs/><g><!--class Employee--><g class="entity" data-entity="Employee" data-source-line="6" data-uid="ent0002" id="entity_Employee"><rect fill="#FFFFFF" height="190.6719" rx="2.5" ry="2.5" style="stroke:#000000;stroke-width:1;" width="479.7422" x="462.48" y="171.8"/><ellipse cx="660.2481" cy="185.8" fill="#FFFFFF" rx="9" ry="9" style="stroke:#000000;stroke-width:1;"/><path d="M660.3574,181.1437 L659.2012,186.2219 L661.5293,186.2219 L660.3574,181.1437 Z M658.8731,178.9094 L661.8574,178.9094 L665.2168,191.3 L662.7637,191.3 L661.9981,188.2375 L658.7168,188.2375 L657.9668,191.3 L655.5293,191.3 L658.8731,178.9094 Z " fill="#000000"/><text fill="#000000" font-family="Verdana" font-size="14" font-style="italic" font-weight="bold" lengthAdjust="spacing" textLength="76.7061" x="677.7481" y="190.6467">Employee</text><line style="stroke:#000000;stroke-width:1;" x1="463.48" x2="941.2222" y1="199.8" y2="199.8"/><text fill="#000000" font-family="Verdana" font-size="14" lengthAdjust="spacing" textLength="102.3818" x="468.48" y="216.7951">#name: String</text><text fill="#000000" font-family="Verdana" font-size="14" lengthAdjust="spacing" textLength="144.7988" x="468.48" y="233.092">#employeeId: String</text><text fill="#000000" font-family="Verdana" font-size="14" lengthAdjust="spacing" textLength="145.9609" x="468.48" y="249.3889">#baseSalary: double</text><line style="stroke:#000000;stroke-width:1;" x1="463.48" x2="941.2222" y1="256.6906" y2="256.6906"/><text fill="#000000" font-family="Verdana" font-size="14" lengthAdjust="spacing" textLength="467.7422" x="468.48" y="273.6857">+Employee(name: String, employeeId: String, baseSalary: double)</text><text fill="#000000" font-family="Verdana" font-size="14" lengthAdjust="spacing" textLength="137.8945" x="468.48" y="289.9826">+getName(): String</text><text fill="#000000" font-family="Verdana" font-size="14" lengthAdjust="spacing" textLength="178.9443" x="468.48" y="306.2795">+getEmployeeId(): String</text><text fill="#000000" font-family="Verdana" font-size="14" lengthAdjust="spacing" textLength="180.5918" x="468.48" y="322.5764">+getBaseSalary(): double</text><text fill="#000000" font-family="Verdana" font-size="14" font-style="italic" lengthAdjust="spacing" textLength="186.8193" x="468.48" y="338.8732">+calculateSalary(): double</text><text fill="#000000" font-family="Verdana" font-size="14" lengthAdjust="spacing" textLength="137.6553" x="468.48" y="355.1701">+displayInfo(): void</text></g><!--class Developer--><g class="entity" data-entity="Developer" data-source-line="19" data-uid="ent0003" id="entity_Developer"><rect fill="#FFFFFF" height="158.0781" rx="2.5" ry="2.5" style="stroke:#000000;stroke-width:1;" width="706.7021" x="12" y="422.47"/><ellipse cx="321.3135" cy="436.47" fill="#FFFFFF" rx="9" ry="9" style="stroke:#000000;stroke-width:1;"/><path d="M324.2822,442.1106 Q323.7041,442.4075 323.0635,442.5481 Q322.4229,442.7044 321.7197,442.7044 Q319.2197,442.7044 317.8916,441.0637 Q316.5791,439.4075 316.5791,436.2825 Q316.5791,433.1575 317.8916,431.5012 Q319.2197,429.845 321.7197,429.845 Q322.4229,429.845 323.0635,430.0012 Q323.7197,430.1575 324.2822,430.4544 L324.2822,433.1731 Q323.6572,432.595 323.0635,432.3294 Q322.4697,432.0481 321.8447,432.0481 Q320.501,432.0481 319.8135,433.1262 Q319.126,434.1887 319.126,436.2825 Q319.126,438.3762 319.8135,439.4544 Q320.501,440.5169 321.8447,440.5169 Q322.4697,440.5169 323.0635,440.2512 Q323.6572,439.97 324.2822,439.3919 L324.2822,442.1106 Z " fill="#000000"/><text fill="#000000" font-family="Verdana" font-size="14" font-weight="bold" lengthAdjust="spacing" textLength="80.5752" x="338.8135" y="441.3167">Developer</text><line style="stroke:#000000;stroke-width:1;" x1="13" x2="717.7021" y1="450.47" y2="450.47"/><text fill="#000000" font-family="Verdana" font-size="14" lengthAdjust="spacing" textLength="220.4453" x="18" y="467.4651">-programmingLanguage: String</text><text fill="#000000" font-family="Verdana" font-size="14" lengthAdjust="spacing" textLength="165.0195" x="18" y="483.762">-projectsCompleted: int</text><line style="stroke:#000000;stroke-width:1;" x1="13" x2="717.7021" y1="491.0637" y2="491.0637"/><text fill="#000000" font-family="Verdana" font-size="14" lengthAdjust="spacing" textLength="694.7021" x="18" y="508.0589">+Developer(name: String, employeeId: String, baseSalary: double, programmingLanguage: String)</text><text fill="#000000" font-family="Verdana" font-size="14" lengthAdjust="spacing" textLength="260.5928" x="18" y="524.3557">+getProgrammingLanguage(): String</text><text fill="#000000" font-family="Verdana" font-size="14" lengthAdjust="spacing" textLength="175.2939" x="18" y="540.6526">+completeProject(): void</text><text fill="#000000" font-family="Verdana" font-size="14" lengthAdjust="spacing" textLength="186.8193" x="18" y="556.9495">+calculateSalary(): double</text><text fill="#000000" font-family="Verdana" font-size="14" lengthAdjust="spacing" textLength="137.6553" x="18" y="573.2464">+displayInfo(): void</text></g><!--class Manager--><g class="entity" data-entity="Manager" data-source-line="30" data-uid="ent0004" id="entity_Manager"><rect fill="#FFFFFF" height="158.0781" rx="2.5" ry="2.5" style="stroke:#000000;stroke-width:1;" width="573.1484" x="753.78" y="422.47"/><ellipse cx="1001.9973" cy="436.47" fill="#FFFFFF" rx="9" ry="9" style="stroke:#000000;stroke-width:1;"/><path d="M1004.966,442.1106 Q1004.3879,442.4075 1003.7473,442.5481 Q1003.1067,442.7044 1002.4035,442.7044 Q999.9035,442.7044 998.5754,441.0637 Q997.2629,439.4075 997.2629,436.2825 Q997.2629,433.1575 998.5754,431.5012 Q999.9035,429.845 1002.4035,429.845 Q1003.1067,429.845 1003.7473,430.0012 Q1004.4035,430.1575 1004.966,430.4544 L1004.966,433.1731 Q1004.341,432.595 1003.7473,432.3294 Q1003.1535,432.0481 1002.5285,432.0481 Q1001.1848,432.0481 1000.4973,433.1262 Q999.8098,434.1887 999.8098,436.2825 Q999.8098,438.3762 1000.4973,439.4544 Q1001.1848,440.5169 1002.5285,440.5169 Q1003.1535,440.5169 1003.7473,440.2512 Q1004.341,439.97 1004.966,439.3919 L1004.966,442.1106 Z " fill="#000000"/><text fill="#000000" font-family="Verdana" font-size="14" font-weight="bold" lengthAdjust="spacing" textLength="69.2139" x="1019.4973" y="441.3167">Manager</text><line style="stroke:#000000;stroke-width:1;" x1="754.78" x2="1325.9284" y1="450.47" y2="450.47"/><text fill="#000000" font-family="Verdana" font-size="14" lengthAdjust="spacing" textLength="97.5283" x="759.78" y="467.4651">-teamSize: int</text><text fill="#000000" font-family="Verdana" font-size="14" lengthAdjust="spacing" textLength="104.4258" x="759.78" y="483.762">-bonus: double</text><line style="stroke:#000000;stroke-width:1;" x1="754.78" x2="1325.9284" y1="491.0637" y2="491.0637"/><text fill="#000000" font-family="Verdana" font-size="14" lengthAdjust="spacing" textLength="561.1484" x="759.78" y="508.0589">+Manager(name: String, employeeId: String, baseSalary: double, teamSize: int)</text><text fill="#000000" font-family="Verdana" font-size="14" lengthAdjust="spacing" textLength="141.1826" x="759.78" y="524.3557">+getTeamSize(): int</text><text fill="#000000" font-family="Verdana" font-size="14" lengthAdjust="spacing" textLength="225.4287" x="759.78" y="540.6526">+setBonus(bonus: double): void</text><text fill="#000000" font-family="Verdana" font-size="14" lengthAdjust="spacing" textLength="186.8193" x="759.78" y="556.9495">+calculateSalary(): double</text><text fill="#000000" font-family="Verdana" font-size="14" lengthAdjust="spacing" textLength="137.6553" x="759.78" y="573.2464">+displayInfo(): void</text></g><g class="entity" data-entity="GMN7" data-source-line="45" data-uid="ent0008" id="entity_GMN7"><path d="M594.42,11 L594.42,111.7969 A0,0 0 0 0 594.42,111.7969 L698.35,111.7969 L702.35,171.44 L706.35,111.7969 L810.2867,111.7969 A0,0 0 0 0 810.2867,111.7969 L810.2867,21 L800.2867,11 L594.42,11 A0,0 0 0 0 594.42,11" fill="#FFFFFF" style="stroke:#000000;stroke-width:1;"/><path d="M800.2867,11 L800.2867,21 L810.2867,21 L800.2867,11" fill="#FFFFFF" style="stroke:#000000;stroke-width:1;"/><text fill="#000000" font-family="Verdana" font-size="13" lengthAdjust="spacing" textLength="194.8667" x="600.42" y="28.0669">Organisation professionnelle :</text><text fill="#000000" font-family="Verdana" font-size="13" lengthAdjust="spacing" textLength="141.3369" x="600.42" y="43.1997">- Un fichier par classe</text><text fill="#000000" font-family="Verdana" font-size="13" lengthAdjust="spacing" textLength="104.5776" x="600.42" y="58.3325">- Employee.java</text><text fill="#000000" font-family="Verdana" font-size="13" lengthAdjust="spacing" textLength="107.0532" x="600.42" y="73.4653">- Developer.java</text><text fill="#000000" font-family="Verdana" font-size="13" lengthAdjust="spacing" textLength="97.1763" x="600.42" y="88.5981">- Manager.java</text><text fill="#000000" font-family="Verdana" font-size="13" lengthAdjust="spacing" textLength="71.2271" x="600.42" y="103.731">- Main.java</text></g><!--reverse link Employee to Developer--><g class="link" data-entity-1="Employee" data-entity-2="Developer" data-source-line="41" data-uid="lnk5" id="link_Employee_Developer"><path codeLine="41" d="M550.4619,372.8688 C521.8519,392.5988 506.81,402.97 479.15,422.04" fill="none" id="Employee-backto-Developer" style="stroke:#000000;stroke-width:1;"/><polygon fill="none" points="565.28,362.65,547.0556,367.9295,553.8682,377.8082,565.28,362.65" style="stroke:#000000;stroke-width:1;"/></g><!--reverse link Employee to Manager--><g class="link" data-entity-1="Employee" data-entity-2="Manager" data-source-line="42" data-uid="lnk6" id="link_Employee_Manager"><path codeLine="42" d="M854.6614,372.8495 C883.3514,392.5795 898.47,402.97 926.21,422.04" fill="none" id="Employee-backto-Manager" style="stroke:#000000;stroke-width:1;"/><polygon fill="none" points="839.83,362.65,851.2616,377.7933,858.0612,367.9057,839.83,362.65" style="stroke:#000000;stroke-width:1;"/></g><!--SRC=[fPFBRjj034NtynKiid5Wg-ZQw2RD0p2GjW7SV00bqSea8uwWeGouQVwzr4WPFv65ip7aoz7bvT7mYpnHJT0uj6nCUB7SO8ir50v3k19fRTu9BGhFI_kNuDlXaJlFifID8yYzAut1F4YBXGnLkAqRvpT4y6e0Be2nfZairPMhAD1ONvHxSew1bkYmtSoXz5tkIEKiqvzfifpicirEECrEs5n6YuhabxuykTnf6jNRP79S-v7C-bfADONNzvdVe41NT0xbzC7I1kMyMV3AzvMrjwLvCsOWTKDhShwXDgBAe6bzfPHhJN2FN7LOxPABzMSg95nxpKn2EhPbsM9AVcTncdtKFq5yE3vpmAqOqpqCQTFOiNO-h9_8skiTbH3M_UrC1FGkSXUEhyxusfb4zjea1dz6jGyvj9z2qDlI9vZivVZqx6cPll_Bikq7Fj378OrXBmJY6_2hj3Hg_xkja6r0iPxxhxoY4FIHoUaIpoE-HuQLBPwi4jPL7rOvOam-NvznZL59CRRIc61Ni3py8owXpsMC-Gy0]--></g></svg>