<svg xmlns="http://www.w3.org/2000/svg" xmlns:xlink="http://www.w3.org/1999/xlink" contentStyleType="text/css" data-diagram-type="CLASS" height="297px" preserveAspectRatio="none" style="width:1372px;height:297px;background:#FFFFFF;" version="1.1" viewBox="0 0 1372 297" width="1372px" zoomAndPan="magnify"><defs/><g><!--class Animal--><g class="entity" data-entity="Animal" data-source-line="6" data-uid="ent0002" id="entity_Animal"><rect fill="#FFFFFF" height="125.4844" rx="2.5" ry="2.5" style="stroke:#000000;stroke-width:1;" width="173.752" x="600.36" y="12"/><ellipse cx="656.2687" cy="26" fill="#FFFFFF" rx="9" ry="9" style="stroke:#000000;stroke-width:1;"/><path d="M659.2374,31.6406 Q658.6593,31.9375 658.0187,32.0781 Q657.3781,32.2344 656.6749,32.2344 Q654.1749,32.2344 652.8468,30.5938 Q651.5343,28.9375 651.5343,25.8125 Q651.5343,22.6875 652.8468,21.0313 Q654.1749,19.375 656.6749,19.375 Q657.3781,19.375 658.0187,19.5313 Q658.6749,19.6875 659.2374,19.9844 L659.2374,22.7031 Q658.6124,22.125 658.0187,21.8594 Q657.4249,21.5781 656.7999,21.5781 Q655.4562,21.5781 654.7687,22.6563 Q654.0812,23.7188 654.0812,25.8125 Q654.0812,27.9063 654.7687,28.9844 Q655.4562,30.0469 656.7999,30.0469 Q657.4249,30.0469 658.0187,29.7813 Q658.6124,29.5 659.2374,28.9219 L659.2374,31.6406 Z " fill="#000000"/><text fill="#000000" font-family="Verdana" font-size="14" font-weight="bold" lengthAdjust="spacing" textLength="54.4346" x="673.7687" y="30.8467">Animal</text><line style="stroke:#000000;stroke-width:1;" x1="601.36" x2="773.112" y1="40" y2="40"/><text fill="#000000" font-family="Verdana" font-size="14" lengthAdjust="spacing" textLength="102.3818" x="606.36" y="56.9951">#name: String</text><line style="stroke:#000000;stroke-width:1;" x1="601.36" x2="773.112" y1="64.2969" y2="64.2969"/><text fill="#000000" font-family="Verdana" font-size="14" lengthAdjust="spacing" textLength="161.752" x="606.36" y="81.292">+Animal(name: String)</text><text fill="#000000" font-family="Verdana" font-size="14" lengthAdjust="spacing" textLength="144.4707" x="606.36" y="97.5889">+makeSound(): void</text><text fill="#000000" font-family="Verdana" font-size="14" lengthAdjust="spacing" textLength="98.7451" x="606.36" y="113.8857">+sleep(): void</text><text fill="#000000" font-family="Verdana" font-size="14" lengthAdjust="spacing" textLength="128.0918" x="606.36" y="130.1826">+introduce(): void</text></g><!--class Dog--><g class="entity" data-entity="Dog" data-source-line="15" data-uid="ent0003" id="entity_Dog"><rect fill="#FFFFFF" height="92.8906" rx="2.5" ry="2.5" style="stroke:#000000;stroke-width:1;" width="156.4707" x="12" y="197.49"/><ellipse cx="70.855" cy="211.49" fill="#FFFFFF" rx="9" ry="9" style="stroke:#000000;stroke-width:1;"/><path d="M73.8237,217.1306 Q73.2456,217.4275 72.605,217.5681 Q71.9644,217.7244 71.2612,217.7244 Q68.7612,217.7244 67.4331,216.0838 Q66.1206,214.4275 66.1206,211.3025 Q66.1206,208.1775 67.4331,206.5213 Q68.7612,204.865 71.2612,204.865 Q71.9644,204.865 72.605,205.0213 Q73.2612,205.1775 73.8237,205.4744 L73.8237,208.1931 Q73.1987,207.615 72.605,207.3494 Q72.0112,207.0681 71.3862,207.0681 Q70.0425,207.0681 69.355,208.1463 Q68.6675,209.2088 68.6675,211.3025 Q68.6675,213.3963 69.355,214.4744 Q70.0425,215.5369 71.3862,215.5369 Q72.0112,215.5369 72.605,215.2713 Q73.1987,214.99 73.8237,214.4119 L73.8237,217.1306 Z " fill="#000000"/><text fill="#000000" font-family="Verdana" font-size="14" font-weight="bold" lengthAdjust="spacing" textLength="31.2607" x="88.355" y="216.3367">Dog</text><line style="stroke:#000000;stroke-width:1;" x1="13" x2="167.4707" y1="225.49" y2="225.49"/><line style="stroke:#000000;stroke-width:1;" x1="13" x2="167.4707" y1="233.49" y2="233.49"/><text fill="#000000" font-family="Verdana" font-size="14" lengthAdjust="spacing" textLength="141.5381" x="18" y="250.4851">+Dog(name: String)</text><text fill="#000000" font-family="Verdana" font-size="14" lengthAdjust="spacing" textLength="144.4707" x="18" y="266.782">+makeSound(): void</text><text fill="#000000" font-family="Verdana" font-size="14" lengthAdjust="spacing" textLength="97.0498" x="18" y="283.0789">+fetch(): void</text></g><!--class Cat--><g class="entity" data-entity="Cat" data-source-line="22" data-uid="ent0004" id="entity_Cat"><rect fill="#FFFFFF" height="92.8906" rx="2.5" ry="2.5" style="stroke:#000000;stroke-width:1;" width="156.4707" x="410" y="197.49"/><ellipse cx="471.2783" cy="211.49" fill="#FFFFFF" rx="9" ry="9" style="stroke:#000000;stroke-width:1;"/><path d="M474.2471,217.1306 Q473.6689,217.4275 473.0283,217.5681 Q472.3877,217.7244 471.6846,217.7244 Q469.1846,217.7244 467.8564,216.0838 Q466.5439,214.4275 466.5439,211.3025 Q466.5439,208.1775 467.8564,206.5213 Q469.1846,204.865 471.6846,204.865 Q472.3877,204.865 473.0283,205.0213 Q473.6846,205.1775 474.2471,205.4744 L474.2471,208.1931 Q473.6221,207.615 473.0283,207.3494 Q472.4346,207.0681 471.8096,207.0681 Q470.4658,207.0681 469.7783,208.1463 Q469.0908,209.2088 469.0908,211.3025 Q469.0908,213.3963 469.7783,214.4744 Q470.4658,215.5369 471.8096,215.5369 Q472.4346,215.5369 473.0283,215.2713 Q473.6221,214.99 474.2471,214.4119 L474.2471,217.1306 Z " fill="#000000"/><text fill="#000000" font-family="Verdana" font-size="14" font-weight="bold" lengthAdjust="spacing" textLength="26.4141" x="488.7783" y="216.3367">Cat</text><line style="stroke:#000000;stroke-width:1;" x1="411" x2="565.4707" y1="225.49" y2="225.49"/><line style="stroke:#000000;stroke-width:1;" x1="411" x2="565.4707" y1="233.49" y2="233.49"/><text fill="#000000" font-family="Verdana" font-size="14" lengthAdjust="spacing" textLength="137.1494" x="416" y="250.4851">+Cat(name: String)</text><text fill="#000000" font-family="Verdana" font-size="14" lengthAdjust="spacing" textLength="144.4707" x="416" y="266.782">+makeSound(): void</text><text fill="#000000" font-family="Verdana" font-size="14" lengthAdjust="spacing" textLength="98.7451" x="416" y="283.0789">+sleep(): void</text></g><!--class Bird--><g class="entity" data-entity="Bird" data-source-line="29" data-uid="ent0005" id="entity_Bird"><rect fill="#FFFFFF" height="92.8906" rx="2.5" ry="2.5" style="stroke:#000000;stroke-width:1;" width="156.4707" x="808" y="197.49"/><ellipse cx="866.2876" cy="211.49" fill="#FFFFFF" rx="9" ry="9" style="stroke:#000000;stroke-width:1;"/><path d="M869.2563,217.1306 Q868.6782,217.4275 868.0376,217.5681 Q867.397,217.7244 866.6938,217.7244 Q864.1938,217.7244 862.8657,216.0838 Q861.5532,214.4275 861.5532,211.3025 Q861.5532,208.1775 862.8657,206.5213 Q864.1938,204.865 866.6938,204.865 Q867.397,204.865 868.0376,205.0213 Q868.6938,205.1775 869.2563,205.4744 L869.2563,208.1931 Q868.6313,207.615 868.0376,207.3494 Q867.4438,207.0681 866.8188,207.0681 Q865.4751,207.0681 864.7876,208.1463 Q864.1001,209.2088 864.1001,211.3025 Q864.1001,213.3963 864.7876,214.4744 Q865.4751,215.5369 866.8188,215.5369 Q867.4438,215.5369 868.0376,215.2713 Q868.6313,214.99 869.2563,214.4119 L869.2563,217.1306 Z " fill="#000000"/><text fill="#000000" font-family="Verdana" font-size="14" font-weight="bold" lengthAdjust="spacing" textLength="32.3955" x="883.7876" y="216.3367">Bird</text><line style="stroke:#000000;stroke-width:1;" x1="809" x2="963.4707" y1="225.49" y2="225.49"/><line style="stroke:#000000;stroke-width:1;" x1="809" x2="963.4707" y1="233.49" y2="233.49"/><text fill="#000000" font-family="Verdana" font-size="14" lengthAdjust="spacing" textLength="141.4424" x="814" y="250.4851">+Bird(name: String)</text><text fill="#000000" font-family="Verdana" font-size="14" lengthAdjust="spacing" textLength="144.4707" x="814" y="266.782">+makeSound(): void</text><text fill="#000000" font-family="Verdana" font-size="14" lengthAdjust="spacing" textLength="128.0918" x="814" y="283.0789">+introduce(): void</text></g><g class="entity" data-entity="GMN9" data-source-line="41" data-uid="ent0010" id="entity_GMN9"><path d="M203.84,223.8 L203.84,239.93 L168.75,243.93 L203.84,247.93 L203.84,264.0656 A0,0 0 0 0 203.84,264.0656 L374.6256,264.0656 A0,0 0 0 0 374.6256,264.0656 L374.6256,233.8 L364.6256,223.8 L203.84,223.8 A0,0 0 0 0 203.84,223.8" fill="#FFFFFF" style="stroke:#000000;stroke-width:1;"/><path d="M364.6256,223.8 L364.6256,233.8 L374.6256,233.8 L364.6256,223.8" fill="#FFFFFF" style="stroke:#000000;stroke-width:1;"/><text fill="#000000" font-family="Verdana" font-size="13" lengthAdjust="spacing" textLength="149.7856" x="209.84" y="240.8669">Red&#233;finit makeSound()</text><text fill="#000000" font-family="Verdana" font-size="13" lengthAdjust="spacing" textLength="88.7339" x="209.84" y="255.9997">H&#233;rite sleep()</text></g><g class="entity" data-entity="GMN12" data-source-line="46" data-uid="ent0013" id="entity_GMN12"><path d="M601.84,223.8 L601.84,239.93 L566.75,243.93 L601.84,247.93 L601.84,264.0656 A0,0 0 0 0 601.84,264.0656 L772.6256,264.0656 A0,0 0 0 0 772.6256,264.0656 L772.6256,233.8 L762.6256,223.8 L601.84,223.8 A0,0 0 0 0 601.84,223.8" fill="#FFFFFF" style="stroke:#000000;stroke-width:1;"/><path d="M762.6256,223.8 L762.6256,233.8 L772.6256,233.8 L762.6256,223.8" fill="#FFFFFF" style="stroke:#000000;stroke-width:1;"/><text fill="#000000" font-family="Verdana" font-size="13" lengthAdjust="spacing" textLength="149.7856" x="607.84" y="240.8669">Red&#233;finit makeSound()</text><text fill="#000000" font-family="Verdana" font-size="13" lengthAdjust="spacing" textLength="107.3262" x="607.84" y="255.9997">Red&#233;finit sleep()</text></g><g class="entity" data-entity="GMN15" data-source-line="51" data-uid="ent0016" id="entity_GMN15"><path d="M999.84,223.8 L999.84,239.93 L964.75,243.93 L999.84,247.93 L999.84,264.0656 A0,0 0 0 0 999.84,264.0656 L1170.6256,264.0656 A0,0 0 0 0 1170.6256,264.0656 L1170.6256,233.8 L1160.6256,223.8 L999.84,223.8 A0,0 0 0 0 999.84,223.8" fill="#FFFFFF" style="stroke:#000000;stroke-width:1;"/><path d="M1160.6256,223.8 L1160.6256,233.8 L1170.6256,233.8 L1160.6256,223.8" fill="#FFFFFF" style="stroke:#000000;stroke-width:1;"/><text fill="#000000" font-family="Verdana" font-size="13" lengthAdjust="spacing" textLength="149.7856" x="1005.84" y="240.8669">Red&#233;finit makeSound()</text><text fill="#000000" font-family="Verdana" font-size="13" lengthAdjust="spacing" textLength="134.5767" x="1005.84" y="255.9997">Red&#233;finit introduce()</text></g><g class="entity" data-entity="GMN18" data-source-line="56" data-uid="ent0019" id="entity_GMN18"><path d="M1205.21,216.24 L1205.21,271.6384 L1365.2681,271.6384 L1365.2681,226.24 L1355.2681,216.24 L1205.21,216.24" fill="#FFFFFF" style="stroke:#000000;stroke-width:1;"/><path d="M1355.2681,216.24 L1355.2681,226.24 L1365.2681,226.24 L1355.2681,216.24" fill="#FFFFFF" style="stroke:#000000;stroke-width:1;"/><text fill="#000000" font-family="Verdana" font-size="13" lengthAdjust="spacing" textLength="109.1099" x="1211.21" y="233.3069">Polymorphisme :</text><text fill="#000000" font-family="Verdana" font-size="13" lengthAdjust="spacing" textLength="139.0581" x="1211.21" y="248.4397">makeSound() appelle</text><text fill="#000000" font-family="Verdana" font-size="13" lengthAdjust="spacing" textLength="138.4297" x="1211.21" y="263.5725">la version appropri&#233;e</text></g><!--reverse link Animal to Dog--><g class="link" data-entity-1="Animal" data-entity-2="Dog" data-source-line="36" data-uid="lnk6" id="link_Animal_Dog"><path codeLine="36" d="M582.4507,94.6928 C481.2707,114.0528 327.78,147.38 186.24,197.49 C180.5,199.52 174.65,201.78 168.8,204.18" fill="none" id="Animal-backto-Dog" style="stroke:#000000;stroke-width:1;"/><polygon fill="none" points="600.13,91.31,581.3231,88.7997,583.5783,100.5859,600.13,91.31" style="stroke:#000000;stroke-width:1;"/></g><!--reverse link Animal to Cat--><g class="link" data-entity-1="Animal" data-entity-2="Cat" data-source-line="37" data-uid="lnk7" id="link_Animal_Cat"><path codeLine="37" d="M599.6408,149.3416 C576.1908,169.0516 564.48,178.88 542.65,197.22" fill="none" id="Animal-backto-Cat" style="stroke:#000000;stroke-width:1;"/><polygon fill="none" points="613.42,137.76,595.7803,144.7485,603.5013,153.9347,613.42,137.76" style="stroke:#000000;stroke-width:1;"/></g><!--reverse link Animal to Bird--><g class="link" data-entity-1="Animal" data-entity-2="Bird" data-source-line="38" data-uid="lnk8" id="link_Animal_Bird"><path codeLine="38" d="M774.8292,149.3416 C798.2792,169.0516 810,178.88 831.82,197.22" fill="none" id="Animal-backto-Bird" style="stroke:#000000;stroke-width:1;"/><polygon fill="none" points="761.05,137.76,770.9687,153.9347,778.6897,144.7485,761.05,137.76" style="stroke:#000000;stroke-width:1;"/></g><!--link Animal to GMN18--><g class="link" data-entity-1="Animal" data-entity-2="GMN18" data-source-line="56" data-uid="lnk20" id="link_Animal_GMN18"><path d="M774.3,91.41 C875.46,110.86 1046.59,147.66 1188.24,197.49 C1202.8,202.61 1218.11,209.19 1232.16,215.74" fill="none" id="Animal-GMN18" style="stroke:#000000;stroke-width:1;stroke-dasharray:7,7;"/></g><!--SRC=[dP9DJWCn38NtEOKHcrPe9DOLcm92i4FC2TA9sx6Qn576hLH-3jHpz68amr2b1K7LpKZlsVcURSs5jEWGWjNabUgMv8EEsa5ZTTTDHIBDLe9F3VkQNX6kZriUs4ij6uimOskKwasOUdBQmfi2k0Il7KwWJYY_I4PLfS_Lq38gY-E-uFGIQrvvCnfFOCraUhUpYE708I-HpQh1lVln7N_FYpvxY4hov9mvIjF-9DvfAOb9dZdvddXBqPJ8h4zc_hhxSFIRzwhAAn_eDF21pcbAUHQ4I8jMWEVz6u0NDBljd3n9cPqAZxjjfDG_xAFG6yY0OqoE-WDJ5FuZzKEUXYeESeoRiGYxpFiwG7hup7RZE8QMklJlJv9JW467WDPYSgs6DSQEs6SpSeYqss8He3u1]--></g></svg>