<svg xmlns="http://www.w3.org/2000/svg" xmlns:xlink="http://www.w3.org/1999/xlink" contentStyleType="text/css" data-diagram-type="CLASS" height="242px" preserveAspectRatio="none" style="width:747px;height:242px;background:#FFFFFF;" version="1.1" viewBox="0 0 747 242" width="747px" zoomAndPan="magnify"><defs/><g><!--class BankAccount--><g class="entity" data-entity="BankAccount" data-source-line="6" data-uid="ent0002" id="entity_BankAccount"><rect fill="#FFFFFF" height="223.2656" rx="2.5" ry="2.5" style="stroke:#000000;stroke-width:1;" width="433.9619" x="12" y="12"/><ellipse cx="173.6948" cy="26" fill="#FFFFFF" rx="9" ry="9" style="stroke:#000000;stroke-width:1;"/><path d="M176.6636,31.6406 Q176.0854,31.9375 175.4448,32.0781 Q174.8042,32.2344 174.1011,32.2344 Q171.6011,32.2344 170.2729,30.5938 Q168.9604,28.9375 168.9604,25.8125 Q168.9604,22.6875 170.2729,21.0313 Q171.6011,19.375 174.1011,19.375 Q174.8042,19.375 175.4448,19.5313 Q176.1011,19.6875 176.6636,19.9844 L176.6636,22.7031 Q176.0386,22.125 175.4448,21.8594 Q174.8511,21.5781 174.2261,21.5781 Q172.8823,21.5781 172.1948,22.6563 Q171.5073,23.7188 171.5073,25.8125 Q171.5073,27.9063 172.1948,28.9844 Q172.8823,30.0469 174.2261,30.0469 Q174.8511,30.0469 175.4448,29.7813 Q176.0386,29.5 176.6636,28.9219 L176.6636,31.6406 Z " fill="#000000"/><text fill="#000000" font-family="Verdana" font-size="14" font-weight="bold" lengthAdjust="spacing" textLength="103.0723" x="191.1948" y="30.8467">BankAccount</text><line style="stroke:#000000;stroke-width:1;" x1="13" x2="444.9619" y1="40" y2="40"/><text fill="#000000" font-family="Verdana" font-size="14" lengthAdjust="spacing" textLength="168.0137" x="18" y="56.9951">-accountNumber: String</text><text fill="#000000" font-family="Verdana" font-size="14" lengthAdjust="spacing" textLength="140.5605" x="18" y="73.292">-ownerName: String</text><text fill="#000000" font-family="Verdana" font-size="14" lengthAdjust="spacing" textLength="117.0518" x="18" y="89.5889">-balance: double</text><line style="stroke:#000000;stroke-width:1;" x1="13" x2="444.9619" y1="96.8906" y2="96.8906"/><text fill="#000000" font-family="Verdana" font-size="14" lengthAdjust="spacing" textLength="421.9619" x="18" y="113.8857">+BankAccount(accountNumber: String, ownerName: String)</text><text fill="#000000" font-family="Verdana" font-size="14" lengthAdjust="spacing" textLength="209.6035" x="18" y="130.1826">+getAccountNumber(): String</text><text fill="#000000" font-family="Verdana" font-size="14" lengthAdjust="spacing" textLength="183.6064" x="18" y="146.4795">+getOwnerName(): String</text><text fill="#000000" font-family="Verdana" font-size="14" lengthAdjust="spacing" textLength="158.3613" x="18" y="162.7764">+getBalance(): double</text><text fill="#000000" font-family="Verdana" font-size="14" lengthAdjust="spacing" textLength="305.3682" x="18" y="179.0732">+setOwnerName(ownerName: String): void</text><text fill="#000000" font-family="Verdana" font-size="14" lengthAdjust="spacing" textLength="223.9727" x="18" y="195.3701">+deposit(amount: double): void</text><text fill="#000000" font-family="Verdana" font-size="14" lengthAdjust="spacing" textLength="236.7217" x="18" y="211.667">+withdraw(amount: double): void</text><text fill="#000000" font-family="Verdana" font-size="14" lengthAdjust="spacing" textLength="137.6553" x="18" y="227.9639">+displayInfo(): void</text></g><g class="entity" data-entity="GMN3" data-source-line="22" data-uid="ent0004" id="entity_GMN3"><path d="M481.14,88.37 L481.14,119.64 L446.09,123.64 L481.14,127.64 L481.14,158.9013 A0,0 0 0 0 481.14,158.9013 L740.8309,158.9013 A0,0 0 0 0 740.8309,158.9013 L740.8309,98.37 L730.8309,88.37 L481.14,88.37 A0,0 0 0 0 481.14,88.37" fill="#FFFFFF" style="stroke:#000000;stroke-width:1;"/><path d="M730.8309,88.37 L730.8309,98.37 L740.8309,98.37 L730.8309,88.37" fill="#FFFFFF" style="stroke:#000000;stroke-width:1;"/><text fill="#000000" font-family="Verdana" font-size="13" lengthAdjust="spacing" textLength="202.8965" x="487.14" y="105.4369">Encapsulation avec validation :</text><text fill="#000000" font-family="Verdana" font-size="13" lengthAdjust="spacing" textLength="238.6909" x="487.14" y="120.5697">- Constructeur valide les param&#232;tres</text><text fill="#000000" font-family="Verdana" font-size="13" lengthAdjust="spacing" textLength="174.0781" x="487.14" y="135.7025">- Setters avec v&#233;rifications</text><text fill="#000000" font-family="Verdana" font-size="13" lengthAdjust="spacing" textLength="222.2695" x="487.14" y="150.8353">- M&#233;thodes m&#233;tier avec validation</text></g><!--SRC=[VL5BRi8m4Dtx5DDT44NgcXrKhSIYT94JEFP0HZZZo9w0QDNxb7DmiJfEgLAekh7izvkdyPtKs22qJXCh5NV4hGww0UDqZ0kHG5Kdk3AUItf3UBYMF7kMKeuEeVBEAfL1M6hUBOpn7GkyAu0PwE6rxfeAmnpA5CpRpFW3OrZh1d-XbNQQJSAixog7FJPBntGSNVmPUd-RECdEBSfYR2WceucPVhqORwdbqASdVXfD8OuzjsFdiFTaiz9YwoEboarVu18oLXn8QXlquH-9fPW-whZYZIyk-8TIx0KXqBOMy9lnWfBfYOrkO-Uqa6VGUpImruxiy9xdNJzwZX8w8zY5WKLm625_y_bJ0iQiAr44G_nEEPy2RSZae85_EP-azZOvctGZ3DVp5BA5lgrIwWi0]--></g></svg>