<svg xmlns="http://www.w3.org/2000/svg" xmlns:xlink="http://www.w3.org/1999/xlink" contentStyleType="text/css" data-diagram-type="CLASS" height="281px" preserveAspectRatio="none" style="width:1146px;height:281px;background:#FFFFFF;" version="1.1" viewBox="0 0 1146 281" width="1146px" zoomAndPan="magnify"><defs/><g><!--class ArrayList--><g class="entity" data-entity="ArrayList" data-source-line="4" data-uid="ent0002" id="entity_ArrayList"><rect fill="#FFFFFF" height="125.4844" rx="2.5" ry="2.5" style="stroke:#000000;stroke-width:1;" width="114.0703" x="12" y="12"/><ellipse cx="35.64" cy="26" fill="#FFFFFF" rx="9" ry="9" style="stroke:#000000;stroke-width:1;"/><path d="M38.6088,31.6406 Q38.0307,31.9375 37.39,32.0781 Q36.7494,32.2344 36.0463,32.2344 Q33.5463,32.2344 32.2182,30.5938 Q30.9057,28.9375 30.9057,25.8125 Q30.9057,22.6875 32.2182,21.0313 Q33.5463,19.375 36.0463,19.375 Q36.7494,19.375 37.39,19.5313 Q38.0463,19.6875 38.6088,19.9844 L38.6088,22.7031 Q37.9838,22.125 37.39,21.8594 Q36.7963,21.5781 36.1713,21.5781 Q34.8275,21.5781 34.14,22.6563 Q33.4525,23.7188 33.4525,25.8125 Q33.4525,27.9063 34.14,28.9844 Q34.8275,30.0469 36.1713,30.0469 Q36.7963,30.0469 37.39,29.7813 Q37.9838,29.5 38.6088,28.9219 L38.6088,31.6406 Z " fill="#000000"/><text fill="#000000" font-family="Verdana" font-size="14" lengthAdjust="spacing" textLength="62.4258" x="50.0045" y="30.8467">ArrayList</text><line style="stroke:#000000;stroke-width:1;" x1="13" x2="125.0703" y1="40" y2="40"/><rect fill="none" height="6" style="stroke:#000000;stroke-width:1;" width="6" x="20" y="50.6484"/><text fill="#000000" font-family="Verdana" font-size="14" lengthAdjust="spacing" textLength="54.5645" x="30" y="56.9951">size: int</text><rect fill="none" height="6" style="stroke:#000000;stroke-width:1;" width="6" x="20" y="66.9453"/><text fill="#000000" font-family="Verdana" font-size="14" lengthAdjust="spacing" textLength="86.5225" x="30" y="73.292">capacity: int</text><line style="stroke:#000000;stroke-width:1;" x1="13" x2="125.0703" y1="80.5938" y2="80.5938"/><ellipse cx="23" cy="94.2422" fill="#FFFFFF" rx="3" ry="3" style="stroke:#000000;stroke-width:1;"/><text fill="#000000" font-family="Verdana" font-size="14" lengthAdjust="spacing" textLength="76.0703" x="30" y="97.5889">add(): void</text><ellipse cx="23" cy="110.5391" fill="#FFFFFF" rx="3" ry="3" style="stroke:#000000;stroke-width:1;"/><text fill="#000000" font-family="Verdana" font-size="14" lengthAdjust="spacing" textLength="84.2529" x="30" y="113.8857">clear(): void</text><ellipse cx="23" cy="126.8359" fill="#FFFFFF" rx="3" ry="3" style="stroke:#000000;stroke-width:1;"/><text fill="#000000" font-family="Verdana" font-size="14" lengthAdjust="spacing" textLength="90.0703" x="30" y="130.1826">getSize(): int</text></g><!--class Stack--><g class="entity" data-entity="Stack" data-source-line="13" data-uid="ent0003" id="entity_Stack"><rect fill="#FFFFFF" height="76.5938" rx="2.5" ry="2.5" style="stroke:#000000;stroke-width:1;" width="107.6445" x="15.21" y="197.49"/><ellipse cx="46.6081" cy="211.49" fill="#FFFFFF" rx="9" ry="9" style="stroke:#000000;stroke-width:1;"/><path d="M49.5769,217.1306 Q48.9988,217.4275 48.3581,217.5681 Q47.7175,217.7244 47.0144,217.7244 Q44.5144,217.7244 43.1863,216.0837 Q41.8738,214.4275 41.8738,211.3025 Q41.8738,208.1775 43.1863,206.5212 Q44.5144,204.865 47.0144,204.865 Q47.7175,204.865 48.3581,205.0212 Q49.0144,205.1775 49.5769,205.4744 L49.5769,208.1931 Q48.9519,207.615 48.3581,207.3494 Q47.7644,207.0681 47.1394,207.0681 Q45.7956,207.0681 45.1081,208.1462 Q44.4206,209.2087 44.4206,211.3025 Q44.4206,213.3962 45.1081,214.4744 Q45.7956,215.5369 47.1394,215.5369 Q47.7644,215.5369 48.3581,215.2712 Q48.9519,214.99 49.5769,214.4119 L49.5769,217.1306 Z " fill="#000000"/><text fill="#000000" font-family="Verdana" font-size="14" lengthAdjust="spacing" textLength="38.7598" x="62.6966" y="216.3367">Stack</text><line style="stroke:#000000;stroke-width:1;" x1="16.21" x2="121.8545" y1="225.49" y2="225.49"/><line style="stroke:#000000;stroke-width:1;" x1="16.21" x2="121.8545" y1="233.49" y2="233.49"/><ellipse cx="26.21" cy="247.1384" fill="#FFFFFF" rx="3" ry="3" style="stroke:#000000;stroke-width:1;"/><text fill="#000000" font-family="Verdana" font-size="14" lengthAdjust="spacing" textLength="83.6445" x="33.21" y="250.4851">push(): void</text><ellipse cx="26.21" cy="263.4353" fill="#FFFFFF" rx="3" ry="3" style="stroke:#000000;stroke-width:1;"/><text fill="#000000" font-family="Verdana" font-size="14" lengthAdjust="spacing" textLength="76.0566" x="33.21" y="266.782">pop(): void</text></g><!--class Rectangle--><g class="entity" data-entity="Rectangle" data-source-line="22" data-uid="ent0005" id="entity_Rectangle"><rect fill="#FFFFFF" height="125.4844" rx="2.5" ry="2.5" style="stroke:#000000;stroke-width:1;" width="242.9004" x="357.58" y="12"/><ellipse cx="440.0956" cy="26" fill="#FFFFFF" rx="9" ry="9" style="stroke:#000000;stroke-width:1;"/><path d="M443.0644,31.6406 Q442.4863,31.9375 441.8456,32.0781 Q441.205,32.2344 440.5019,32.2344 Q438.0019,32.2344 436.6738,30.5938 Q435.3613,28.9375 435.3613,25.8125 Q435.3613,22.6875 436.6738,21.0313 Q438.0019,19.375 440.5019,19.375 Q441.205,19.375 441.8456,19.5313 Q442.5019,19.6875 443.0644,19.9844 L443.0644,22.7031 Q442.4394,22.125 441.8456,21.8594 Q441.2519,21.5781 440.6269,21.5781 Q439.2831,21.5781 438.5956,22.6563 Q437.9081,23.7188 437.9081,25.8125 Q437.9081,27.9063 438.5956,28.9844 Q439.2831,30.0469 440.6269,30.0469 Q441.2519,30.0469 441.8456,29.7813 Q442.4394,29.5 443.0644,28.9219 L443.0644,31.6406 Z " fill="#000000"/><text fill="#000000" font-family="Verdana" font-size="14" lengthAdjust="spacing" textLength="70.3691" x="457.5956" y="30.8467">Rectangle</text><line style="stroke:#000000;stroke-width:1;" x1="358.58" x2="599.4804" y1="40" y2="40"/><polygon fill="none" points="368.58,48.6484,372.58,52.6484,368.58,56.6484,364.58,52.6484" style="stroke:#000000;stroke-width:1;"/><text fill="#000000" font-family="Verdana" font-size="14" lengthAdjust="spacing" textLength="95.4707" x="375.58" y="56.9951">width: double</text><polygon fill="none" points="368.58,64.9453,372.58,68.9453,368.58,72.9453,364.58,68.9453" style="stroke:#000000;stroke-width:1;"/><text fill="#000000" font-family="Verdana" font-size="14" lengthAdjust="spacing" textLength="101.5068" x="375.58" y="73.292">height: double</text><line style="stroke:#000000;stroke-width:1;" x1="358.58" x2="599.4804" y1="80.5938" y2="80.5938"/><ellipse cx="368.58" cy="94.2422" fill="#FFFFFF" rx="3" ry="3" style="stroke:#000000;stroke-width:1;"/><text fill="#000000" font-family="Verdana" font-size="14" lengthAdjust="spacing" textLength="207.5664" x="375.58" y="97.5889">setWidth(width: double): void</text><ellipse cx="368.58" cy="110.5391" fill="#FFFFFF" rx="3" ry="3" style="stroke:#000000;stroke-width:1;"/><text fill="#000000" font-family="Verdana" font-size="14" lengthAdjust="spacing" textLength="218.9004" x="375.58" y="113.8857">setHeight(height: double): void</text><ellipse cx="368.58" cy="126.8359" fill="#FFFFFF" rx="3" ry="3" style="stroke:#000000;stroke-width:1;"/><text fill="#000000" font-family="Verdana" font-size="14" lengthAdjust="spacing" textLength="123.3203" x="375.58" y="130.1826">getArea(): double</text></g><!--class Square--><g class="entity" data-entity="Square" data-source-line="31" data-uid="ent0006" id="entity_Square"><rect fill="#FFFFFF" height="76.5938" rx="2.5" ry="2.5" style="stroke:#000000;stroke-width:1;" width="242.9004" x="357.58" y="197.49"/><ellipse cx="450.4828" cy="211.49" fill="#FFFFFF" rx="9" ry="9" style="stroke:#000000;stroke-width:1;"/><path d="M453.4516,217.1306 Q452.8735,217.4275 452.2328,217.5681 Q451.5922,217.7244 450.8891,217.7244 Q448.3891,217.7244 447.061,216.0837 Q445.7485,214.4275 445.7485,211.3025 Q445.7485,208.1775 447.061,206.5212 Q448.3891,204.865 450.8891,204.865 Q451.5922,204.865 452.2328,205.0212 Q452.8891,205.1775 453.4516,205.4744 L453.4516,208.1931 Q452.8266,207.615 452.2328,207.3494 Q451.6391,207.0681 451.0141,207.0681 Q449.6703,207.0681 448.9828,208.1462 Q448.2953,209.2087 448.2953,211.3025 Q448.2953,213.3962 448.9828,214.4744 Q449.6703,215.5369 451.0141,215.5369 Q451.6391,215.5369 452.2328,215.2712 Q452.8266,214.99 453.4516,214.4119 L453.4516,217.1306 Z " fill="#000000"/><text fill="#000000" font-family="Verdana" font-size="14" lengthAdjust="spacing" textLength="49.5947" x="467.9828" y="216.3367">Square</text><line style="stroke:#000000;stroke-width:1;" x1="358.58" x2="599.4804" y1="225.49" y2="225.49"/><line style="stroke:#000000;stroke-width:1;" x1="358.58" x2="599.4804" y1="233.49" y2="233.49"/><ellipse cx="368.58" cy="247.1384" fill="#FFFFFF" rx="3" ry="3" style="stroke:#000000;stroke-width:1;"/><text fill="#000000" font-family="Verdana" font-size="14" lengthAdjust="spacing" textLength="207.5664" x="375.58" y="250.4851">setWidth(width: double): void</text><ellipse cx="368.58" cy="263.4353" fill="#FFFFFF" rx="3" ry="3" style="stroke:#000000;stroke-width:1;"/><text fill="#000000" font-family="Verdana" font-size="14" lengthAdjust="spacing" textLength="218.9004" x="375.58" y="266.782">setHeight(height: double): void</text></g><!--class Engine--><g class="entity" data-entity="Engine" data-source-line="40" data-uid="ent0008" id="entity_Engine"><rect fill="#FFFFFF" height="76.5938" rx="2.5" ry="2.5" style="stroke:#000000;stroke-width:1;" width="106.3252" x="819.87" y="36.45"/><ellipse cx="846.5247" cy="50.45" fill="#FFFFFF" rx="9" ry="9" style="stroke:#000000;stroke-width:1;"/><path d="M849.4934,56.0906 Q848.9153,56.3875 848.2747,56.5281 Q847.6341,56.6844 846.9309,56.6844 Q844.4309,56.6844 843.1028,55.0437 Q841.7903,53.3875 841.7903,50.2625 Q841.7903,47.1375 843.1028,45.4812 Q844.4309,43.825 846.9309,43.825 Q847.6341,43.825 848.2747,43.9812 Q848.9309,44.1375 849.4934,44.4344 L849.4934,47.1531 Q848.8684,46.575 848.2747,46.3094 Q847.6809,46.0281 847.0559,46.0281 Q845.7122,46.0281 845.0247,47.1062 Q844.3372,48.1687 844.3372,50.2625 Q844.3372,52.3562 845.0247,53.4344 Q845.7122,54.4969 847.0559,54.4969 Q847.6809,54.4969 848.2747,54.2312 Q848.8684,53.95 849.4934,53.3719 L849.4934,56.0906 Z " fill="#000000"/><text fill="#000000" font-family="Verdana" font-size="14" lengthAdjust="spacing" textLength="47.9814" x="861.5591" y="55.2967">Engine</text><line style="stroke:#000000;stroke-width:1;" x1="820.87" x2="925.1952" y1="64.45" y2="64.45"/><line style="stroke:#000000;stroke-width:1;" x1="820.87" x2="925.1952" y1="72.45" y2="72.45"/><ellipse cx="830.87" cy="86.0984" fill="#FFFFFF" rx="3" ry="3" style="stroke:#000000;stroke-width:1;"/><text fill="#000000" font-family="Verdana" font-size="14" lengthAdjust="spacing" textLength="82.3252" x="837.87" y="89.4451">start(): void</text><ellipse cx="830.87" cy="102.3953" fill="#FFFFFF" rx="3" ry="3" style="stroke:#000000;stroke-width:1;"/><text fill="#000000" font-family="Verdana" font-size="14" lengthAdjust="spacing" textLength="79.9531" x="837.87" y="105.742">stop(): void</text></g><!--class Car--><g class="entity" data-entity="Car" data-source-line="46" data-uid="ent0009" id="entity_Car"><rect fill="#FFFFFF" height="76.5938" rx="2.5" ry="2.5" style="stroke:#000000;stroke-width:1;" width="115.9297" x="815.07" y="197.49"/><ellipse cx="857.2297" cy="211.49" fill="#FFFFFF" rx="9" ry="9" style="stroke:#000000;stroke-width:1;"/><path d="M860.1984,217.1306 Q859.6203,217.4275 858.9797,217.5681 Q858.339,217.7244 857.6359,217.7244 Q855.1359,217.7244 853.8078,216.0837 Q852.4953,214.4275 852.4953,211.3025 Q852.4953,208.1775 853.8078,206.5212 Q855.1359,204.865 857.6359,204.865 Q858.339,204.865 858.9797,205.0212 Q859.6359,205.1775 860.1984,205.4744 L860.1984,208.1931 Q859.5734,207.615 858.9797,207.3494 Q858.3859,207.0681 857.7609,207.0681 Q856.4172,207.0681 855.7297,208.1462 Q855.0422,209.2087 855.0422,211.3025 Q855.0422,213.3962 855.7297,214.4744 Q856.4172,215.5369 857.7609,215.5369 Q858.3859,215.5369 858.9797,215.2712 Q859.5734,214.99 860.1984,214.4119 L860.1984,217.1306 Z " fill="#000000"/><text fill="#000000" font-family="Verdana" font-size="14" lengthAdjust="spacing" textLength="24.1104" x="874.7297" y="216.3367">Car</text><line style="stroke:#000000;stroke-width:1;" x1="816.07" x2="929.9997" y1="225.49" y2="225.49"/><rect fill="none" height="6" style="stroke:#000000;stroke-width:1;" width="6" x="823.07" y="236.1384"/><text fill="#000000" font-family="Verdana" font-size="14" lengthAdjust="spacing" textLength="91.9297" x="833.07" y="242.4851">brand: String</text><line style="stroke:#000000;stroke-width:1;" x1="816.07" x2="929.9997" y1="249.7869" y2="249.7869"/><ellipse cx="826.07" cy="263.4353" fill="#FFFFFF" rx="3" ry="3" style="stroke:#000000;stroke-width:1;"/><text fill="#000000" font-family="Verdana" font-size="14" lengthAdjust="spacing" textLength="85.1484" x="833.07" y="266.782">drive(): void</text></g><g class="entity" data-entity="GMN11" data-source-line="55" data-uid="ent0012" id="entity_GMN11"><path d="M157.55,208.08 L157.55,231.78 L123.14,235.78 L157.55,239.78 L157.55,263.4784 A0,0 0 0 0 157.55,263.4784 L322.5275,263.4784 A0,0 0 0 0 322.5275,263.4784 L322.5275,218.08 L312.5275,208.08 L157.55,208.08 A0,0 0 0 0 157.55,208.08" fill="#FFFFFF" style="stroke:#000000;stroke-width:1;"/><path d="M312.5275,208.08 L312.5275,218.08 L322.5275,218.08 L312.5275,208.08" fill="#FFFFFF" style="stroke:#000000;stroke-width:1;"/><text fill="#000000" font-family="Verdana" font-size="13" lengthAdjust="spacing" textLength="128.832" x="163.55" y="225.1469">Un Stack N'EST PAS</text><text fill="#000000" font-family="Verdana" font-size="13" lengthAdjust="spacing" textLength="78.5776" x="163.55" y="240.2797">un ArrayList</text><text fill="#000000" font-family="Verdana" font-size="13" lengthAdjust="spacing" textLength="143.9775" x="163.55" y="255.4125">&#8594; Utiliser composition</text></g><g class="entity" data-entity="GMN14" data-source-line="61" data-uid="ent0015" id="entity_GMN14"><path d="M635.5,208.08 L635.5,231.78 L600.69,235.78 L635.5,239.78 L635.5,263.4784 A0,0 0 0 0 635.5,263.4784 L780.5649,263.4784 A0,0 0 0 0 780.5649,263.4784 L780.5649,218.08 L770.5649,208.08 L635.5,208.08 A0,0 0 0 0 635.5,208.08" fill="#FFFFFF" style="stroke:#000000;stroke-width:1;"/><path d="M770.5649,208.08 L770.5649,218.08 L780.5649,218.08 L770.5649,208.08" fill="#FFFFFF" style="stroke:#000000;stroke-width:1;"/><text fill="#000000" font-family="Verdana" font-size="13" lengthAdjust="spacing" textLength="104.3999" x="641.5" y="225.1469">Viole le principe</text><text fill="#000000" font-family="Verdana" font-size="13" lengthAdjust="spacing" textLength="97.3667" x="641.5" y="240.2797">de substitution</text><text fill="#000000" font-family="Verdana" font-size="13" lengthAdjust="spacing" textLength="124.0649" x="641.5" y="255.4125">&#8594; Mod&#232;les s&#233;par&#233;s</text></g><g class="entity" data-entity="GMN17" data-source-line="67" data-uid="ent0018" id="entity_GMN17"><path d="M966.36,208.08 L966.36,231.78 L931.39,235.78 L966.36,239.78 L966.36,263.4784 A0,0 0 0 0 966.36,263.4784 L1139.7164,263.4784 A0,0 0 0 0 1139.7164,263.4784 L1139.7164,218.08 L1129.7164,208.08 L966.36,208.08 A0,0 0 0 0 966.36,208.08" fill="#FFFFFF" style="stroke:#000000;stroke-width:1;"/><path d="M1129.7164,208.08 L1129.7164,218.08 L1139.7164,218.08 L1129.7164,208.08" fill="#FFFFFF" style="stroke:#000000;stroke-width:1;"/><text fill="#000000" font-family="Verdana" font-size="13" lengthAdjust="spacing" textLength="123.2271" x="972.36" y="225.1469">Une Car N'EST PAS</text><text fill="#000000" font-family="Verdana" font-size="13" lengthAdjust="spacing" textLength="152.3564" x="972.36" y="240.2797">un Engine, elle EN A un</text><text fill="#000000" font-family="Verdana" font-size="13" lengthAdjust="spacing" textLength="143.9775" x="972.36" y="255.4125">&#8594; Utiliser composition</text></g><!--reverse link ArrayList to Stack--><g class="link" data-entity-1="ArrayList" data-entity-2="Stack" data-source-line="19" data-uid="lnk4" id="link_ArrayList_Stack"><path codeLine="19" d="M69.04,155.69 C69.04,175.75 69.04,179.38 69.04,197.12" fill="none" id="ArrayList-backto-Stack" style="stroke:#000000;stroke-width:1;"/><polygon fill="none" points="69.04,137.69,63.04,155.69,75.04,155.69,69.04,137.69" style="stroke:#000000;stroke-width:1;"/></g><!--reverse link Rectangle to Square--><g class="link" data-entity-1="Rectangle" data-entity-2="Square" data-source-line="37" data-uid="lnk7" id="link_Rectangle_Square"><path codeLine="37" d="M479.04,155.69 C479.04,175.75 479.04,179.38 479.04,197.12" fill="none" id="Rectangle-backto-Square" style="stroke:#000000;stroke-width:1;"/><polygon fill="none" points="479.04,137.69,473.04,155.69,485.04,155.69,479.04,137.69" style="stroke:#000000;stroke-width:1;"/></g><!--reverse link Engine to Car--><g class="link" data-entity-1="Engine" data-entity-2="Car" data-source-line="52" data-uid="lnk10" id="link_Engine_Car"><path codeLine="52" d="M873.04,131.43 C873.04,156.69 873.04,171.83 873.04,197.09" fill="none" id="Engine-backto-Car" style="stroke:#000000;stroke-width:1;"/><polygon fill="none" points="873.04,113.43,867.04,131.43,879.04,131.43,873.04,113.43" style="stroke:#000000;stroke-width:1;"/></g><!--SRC=[hL9BJiCm4Dtd58DOj0Yw07OLcmfLOW48KJvhDnwI4Qbjx4dv5BOSW5FGS_Gcd0Gx3aq2GcA154MQaT_Ntk0SPmYc4AIIf0VZ1voP0c4NXZ1XaTv2lbfQOWI9CB9MF1wJuoGjX7FD38i4O02Edd08fBYQKc54IloutWpyRnk4bFsj8SmroMfE2nIsiycG9vufx0Bo9Qdbefz5GsLAbtUGHflrx66DluFdmI3Yso7tGiYxKbXifpp7b8NA2gnbrtCblGdt93aVWjJbr9y9cnmfoxcrglqvvEjmkD-1j0tx4qSLkD_b-5R7oA88mMg1ff5eVl6VafwyIHnxgrJQnUtxuWw5RRSsLXcfhyhYqF75mdBdhXntBoiY0sjyJ5Chb0oFq9BA6Y9fQOvjNArLEVNe957QEx8X6kYR-j81BbNzVavxuya5d8qcVbcgrfi6-7XzWqkcWXnQIFNCQ4TCMYMe90JQ7-In6O0hqhuM_ndlDYKJThuKLquT4vSLIUG_qNBrNg03jreQOLTBzojxI1ECOzNADzynzWvWuLN7fp3oopz5-0G0]--></g></svg>