<svg xmlns="http://www.w3.org/2000/svg" xmlns:xlink="http://www.w3.org/1999/xlink" contentStyleType="text/css" data-diagram-type="CLASS" height="587px" preserveAspectRatio="none" style="width:1334px;height:587px;background:#FFFFFF;" version="1.1" viewBox="0 0 1334 587" width="1334px" zoomAndPan="magnify"><defs/><g><!--class Employee--><g class="entity" data-entity="Employee" data-source-line="3" data-uid="ent0002" id="entity_Employee"><rect fill="#FFFFFF" height="190.6719" rx="2.5" ry="2.5" style="stroke:#000000;stroke-width:1;" width="480.0117" x="462.48" y="171.8"/><ellipse cx="664.0674" cy="185.8" fill="#FFFFFF" rx="9" ry="9" style="stroke:#000000;stroke-width:1;"/><path d="M664.1768,181.1437 L663.0205,186.2219 L665.3487,186.2219 L664.1768,181.1437 Z M662.6924,178.9094 L665.6768,178.9094 L669.0362,191.3 L666.583,191.3 L665.8174,188.2375 L662.5362,188.2375 L661.7862,191.3 L659.3487,191.3 L662.6924,178.9094 Z " fill="#000000"/><text fill="#000000" font-family="Verdana" font-size="14" font-style="italic" lengthAdjust="spacing" textLength="69.3369" x="681.5674" y="190.6467">Employee</text><line style="stroke:#000000;stroke-width:1;" x1="463.48" x2="941.4917" y1="199.8" y2="199.8"/><polygon fill="none" points="473.48,208.4484,477.48,212.4484,473.48,216.4484,469.48,212.4484" style="stroke:#000000;stroke-width:1;"/><text fill="#000000" font-family="Verdana" font-size="14" lengthAdjust="spacing" textLength="90.6514" x="480.48" y="216.7951">name: String</text><polygon fill="none" points="473.48,224.7453,477.48,228.7453,473.48,232.7453,469.48,228.7453" style="stroke:#000000;stroke-width:1;"/><text fill="#000000" font-family="Verdana" font-size="14" lengthAdjust="spacing" textLength="133.0684" x="480.48" y="233.092">employeeId: String</text><polygon fill="none" points="473.48,241.0422,477.48,245.0422,473.48,249.0422,469.48,245.0422" style="stroke:#000000;stroke-width:1;"/><text fill="#000000" font-family="Verdana" font-size="14" lengthAdjust="spacing" textLength="134.2305" x="480.48" y="249.3889">baseSalary: double</text><line style="stroke:#000000;stroke-width:1;" x1="463.48" x2="941.4917" y1="256.6906" y2="256.6906"/><ellipse cx="473.48" cy="270.3391" fill="#FFFFFF" rx="3" ry="3" style="stroke:#000000;stroke-width:1;"/><text fill="#000000" font-family="Verdana" font-size="14" lengthAdjust="spacing" textLength="456.0117" x="480.48" y="273.6857">Employee(name: String, employeeId: String, baseSalary: double)</text><ellipse cx="473.48" cy="286.6359" fill="#FFFFFF" rx="3" ry="3" style="stroke:#000000;stroke-width:1;"/><text fill="#000000" font-family="Verdana" font-size="14" lengthAdjust="spacing" textLength="126.1641" x="480.48" y="289.9826">getName(): String</text><ellipse cx="473.48" cy="302.9328" fill="#FFFFFF" rx="3" ry="3" style="stroke:#000000;stroke-width:1;"/><text fill="#000000" font-family="Verdana" font-size="14" lengthAdjust="spacing" textLength="167.2139" x="480.48" y="306.2795">getEmployeeId(): String</text><ellipse cx="473.48" cy="319.2297" fill="#FFFFFF" rx="3" ry="3" style="stroke:#000000;stroke-width:1;"/><text fill="#000000" font-family="Verdana" font-size="14" lengthAdjust="spacing" textLength="168.8613" x="480.48" y="322.5764">getBaseSalary(): double</text><ellipse cx="473.48" cy="335.5266" fill="#FFFFFF" rx="3" ry="3" style="stroke:#000000;stroke-width:1;"/><text fill="#000000" font-family="Verdana" font-size="14" font-style="italic" lengthAdjust="spacing" textLength="175.0889" x="480.48" y="338.8732">calculateSalary(): double</text><ellipse cx="473.48" cy="351.8234" fill="#FFFFFF" rx="3" ry="3" style="stroke:#000000;stroke-width:1;"/><text fill="#000000" font-family="Verdana" font-size="14" lengthAdjust="spacing" textLength="125.9248" x="480.48" y="355.1701">displayInfo(): void</text></g><!--class Developer--><g class="entity" data-entity="Developer" data-source-line="16" data-uid="ent0003" id="entity_Developer"><rect fill="#FFFFFF" height="158.0781" rx="2.5" ry="2.5" style="stroke:#000000;stroke-width:1;" width="706.9717" x="12" y="422.47"/><ellipse cx="325.7344" cy="436.47" fill="#FFFFFF" rx="9" ry="9" style="stroke:#000000;stroke-width:1;"/><path d="M328.7031,442.1106 Q328.125,442.4075 327.4844,442.5481 Q326.8438,442.7044 326.1406,442.7044 Q323.6406,442.7044 322.3125,441.0637 Q321,439.4075 321,436.2825 Q321,433.1575 322.3125,431.5012 Q323.6406,429.845 326.1406,429.845 Q326.8438,429.845 327.4844,430.0012 Q328.1406,430.1575 328.7031,430.4544 L328.7031,433.1731 Q328.0781,432.595 327.4844,432.3294 Q326.8906,432.0481 326.2656,432.0481 Q324.9219,432.0481 324.2344,433.1262 Q323.5469,434.1887 323.5469,436.2825 Q323.5469,438.3762 324.2344,439.4544 Q324.9219,440.5169 326.2656,440.5169 Q326.8906,440.5169 327.4844,440.2512 Q328.0781,439.97 328.7031,439.3919 L328.7031,442.1106 Z " fill="#000000"/><text fill="#000000" font-family="Verdana" font-size="14" lengthAdjust="spacing" textLength="72.0029" x="343.2344" y="441.3167">Developer</text><line style="stroke:#000000;stroke-width:1;" x1="13" x2="717.9717" y1="450.47" y2="450.47"/><rect fill="none" height="6" style="stroke:#000000;stroke-width:1;" width="6" x="20" y="461.1184"/><text fill="#000000" font-family="Verdana" font-size="14" lengthAdjust="spacing" textLength="215.3936" x="30" y="467.4651">programmingLanguage: String</text><rect fill="none" height="6" style="stroke:#000000;stroke-width:1;" width="6" x="20" y="477.4153"/><text fill="#000000" font-family="Verdana" font-size="14" lengthAdjust="spacing" textLength="159.9678" x="30" y="483.762">projectsCompleted: int</text><line style="stroke:#000000;stroke-width:1;" x1="13" x2="717.9717" y1="491.0637" y2="491.0637"/><ellipse cx="23" cy="504.7122" fill="#FFFFFF" rx="3" ry="3" style="stroke:#000000;stroke-width:1;"/><text fill="#000000" font-family="Verdana" font-size="14" lengthAdjust="spacing" textLength="682.9717" x="30" y="508.0589">Developer(name: String, employeeId: String, baseSalary: double, programmingLanguage: String)</text><ellipse cx="23" cy="521.0091" fill="#FFFFFF" rx="3" ry="3" style="stroke:#000000;stroke-width:1;"/><text fill="#000000" font-family="Verdana" font-size="14" lengthAdjust="spacing" textLength="248.8623" x="30" y="524.3557">getProgrammingLanguage(): String</text><ellipse cx="23" cy="537.3059" fill="#FFFFFF" rx="3" ry="3" style="stroke:#000000;stroke-width:1;"/><text fill="#000000" font-family="Verdana" font-size="14" lengthAdjust="spacing" textLength="163.5635" x="30" y="540.6526">completeProject(): void</text><ellipse cx="23" cy="553.6028" fill="#FFFFFF" rx="3" ry="3" style="stroke:#000000;stroke-width:1;"/><text fill="#000000" font-family="Verdana" font-size="14" lengthAdjust="spacing" textLength="175.0889" x="30" y="556.9495">calculateSalary(): double</text><ellipse cx="23" cy="569.8997" fill="#FFFFFF" rx="3" ry="3" style="stroke:#000000;stroke-width:1;"/><text fill="#000000" font-family="Verdana" font-size="14" lengthAdjust="spacing" textLength="125.9248" x="30" y="573.2464">displayInfo(): void</text></g><!--class Manager--><g class="entity" data-entity="Manager" data-source-line="27" data-uid="ent0004" id="entity_Manager"><rect fill="#FFFFFF" height="158.0781" rx="2.5" ry="2.5" style="stroke:#000000;stroke-width:1;" width="573.418" x="753.78" y="422.47"/><ellipse cx="1006.0559" cy="436.47" fill="#FFFFFF" rx="9" ry="9" style="stroke:#000000;stroke-width:1;"/><path d="M1009.0246,442.1106 Q1008.4465,442.4075 1007.8059,442.5481 Q1007.1653,442.7044 1006.4621,442.7044 Q1003.9621,442.7044 1002.634,441.0637 Q1001.3215,439.4075 1001.3215,436.2825 Q1001.3215,433.1575 1002.634,431.5012 Q1003.9621,429.845 1006.4621,429.845 Q1007.1653,429.845 1007.8059,430.0012 Q1008.4621,430.1575 1009.0246,430.4544 L1009.0246,433.1731 Q1008.3996,432.595 1007.8059,432.3294 Q1007.2121,432.0481 1006.5871,432.0481 Q1005.2434,432.0481 1004.5559,433.1262 Q1003.8684,434.1887 1003.8684,436.2825 Q1003.8684,438.3762 1004.5559,439.4544 Q1005.2434,440.5169 1006.5871,440.5169 Q1007.2121,440.5169 1007.8059,440.2512 Q1008.3996,439.97 1009.0246,439.3919 L1009.0246,442.1106 Z " fill="#000000"/><text fill="#000000" font-family="Verdana" font-size="14" lengthAdjust="spacing" textLength="61.3662" x="1023.5559" y="441.3167">Manager</text><line style="stroke:#000000;stroke-width:1;" x1="754.78" x2="1326.198" y1="450.47" y2="450.47"/><rect fill="none" height="6" style="stroke:#000000;stroke-width:1;" width="6" x="761.78" y="461.1184"/><text fill="#000000" font-family="Verdana" font-size="14" lengthAdjust="spacing" textLength="92.4766" x="771.78" y="467.4651">teamSize: int</text><rect fill="none" height="6" style="stroke:#000000;stroke-width:1;" width="6" x="761.78" y="477.4153"/><text fill="#000000" font-family="Verdana" font-size="14" lengthAdjust="spacing" textLength="99.374" x="771.78" y="483.762">bonus: double</text><line style="stroke:#000000;stroke-width:1;" x1="754.78" x2="1326.198" y1="491.0637" y2="491.0637"/><ellipse cx="764.78" cy="504.7122" fill="#FFFFFF" rx="3" ry="3" style="stroke:#000000;stroke-width:1;"/><text fill="#000000" font-family="Verdana" font-size="14" lengthAdjust="spacing" textLength="549.418" x="771.78" y="508.0589">Manager(name: String, employeeId: String, baseSalary: double, teamSize: int)</text><ellipse cx="764.78" cy="521.0091" fill="#FFFFFF" rx="3" ry="3" style="stroke:#000000;stroke-width:1;"/><text fill="#000000" font-family="Verdana" font-size="14" lengthAdjust="spacing" textLength="129.4521" x="771.78" y="524.3557">getTeamSize(): int</text><ellipse cx="764.78" cy="537.3059" fill="#FFFFFF" rx="3" ry="3" style="stroke:#000000;stroke-width:1;"/><text fill="#000000" font-family="Verdana" font-size="14" lengthAdjust="spacing" textLength="213.6982" x="771.78" y="540.6526">setBonus(bonus: double): void</text><ellipse cx="764.78" cy="553.6028" fill="#FFFFFF" rx="3" ry="3" style="stroke:#000000;stroke-width:1;"/><text fill="#000000" font-family="Verdana" font-size="14" lengthAdjust="spacing" textLength="175.0889" x="771.78" y="556.9495">calculateSalary(): double</text><ellipse cx="764.78" cy="569.8997" fill="#FFFFFF" rx="3" ry="3" style="stroke:#000000;stroke-width:1;"/><text fill="#000000" font-family="Verdana" font-size="14" lengthAdjust="spacing" textLength="125.9248" x="771.78" y="573.2464">displayInfo(): void</text></g><g class="entity" data-entity="GMN7" data-source-line="42" data-uid="ent0008" id="entity_GMN7"><path d="M594.55,11 L594.55,111.7969 A0,0 0 0 0 594.55,111.7969 L698.49,111.7969 L702.49,171.44 L706.49,111.7969 L810.4167,111.7969 A0,0 0 0 0 810.4167,111.7969 L810.4167,21 L800.4167,11 L594.55,11 A0,0 0 0 0 594.55,11" fill="#FFFFFF" style="stroke:#000000;stroke-width:1;"/><path d="M800.4167,11 L800.4167,21 L810.4167,21 L800.4167,11" fill="#FFFFFF" style="stroke:#000000;stroke-width:1;"/><text fill="#000000" font-family="Verdana" font-size="13" lengthAdjust="spacing" textLength="194.8667" x="600.55" y="28.0669">Organisation professionnelle :</text><text fill="#000000" font-family="Verdana" font-size="13" lengthAdjust="spacing" textLength="141.3369" x="600.55" y="43.1997">- Un fichier par classe</text><text fill="#000000" font-family="Verdana" font-size="13" lengthAdjust="spacing" textLength="104.5776" x="600.55" y="58.3325">- Employee.java</text><text fill="#000000" font-family="Verdana" font-size="13" lengthAdjust="spacing" textLength="107.0532" x="600.55" y="73.4653">- Developer.java</text><text fill="#000000" font-family="Verdana" font-size="13" lengthAdjust="spacing" textLength="97.1763" x="600.55" y="88.5981">- Manager.java</text><text fill="#000000" font-family="Verdana" font-size="13" lengthAdjust="spacing" textLength="71.2271" x="600.55" y="103.731">- Main.java</text></g><!--reverse link Employee to Developer--><g class="link" data-entity-1="Employee" data-entity-2="Developer" data-source-line="38" data-uid="lnk5" id="link_Employee_Developer"><path codeLine="38" d="M550.6019,372.8688 C521.9919,392.5988 506.94,402.97 479.28,422.04" fill="none" id="Employee-backto-Developer" style="stroke:#000000;stroke-width:1;"/><polygon fill="none" points="565.42,362.65,547.1956,367.9295,554.0082,377.8082,565.42,362.65" style="stroke:#000000;stroke-width:1;"/></g><!--reverse link Employee to Manager--><g class="link" data-entity-1="Employee" data-entity-2="Manager" data-source-line="39" data-uid="lnk6" id="link_Employee_Manager"><path codeLine="39" d="M854.7931,372.8471 C883.4931,392.5771 898.61,402.97 926.35,422.04" fill="none" id="Employee-backto-Manager" style="stroke:#000000;stroke-width:1;"/><polygon fill="none" points="839.96,362.65,851.394,377.7914,858.1921,367.9027,839.96,362.65" style="stroke:#000000;stroke-width:1;"/></g><!--SRC=[fPDDRi8m48NtFiLKtO0WFG3ggYqBfFuWqHvWI2R1o1b7jeD4ANUlumGJVjG5tKJ96-VDcy_sdLjHIL0fb2m4Bgqpc3f85LeBqx9IUai4Em5m3umbJM3XZEGY2DJLPzc9l4HB2rHejXF8TBrKvEKayOzHj1pqpSPNdCPNR8R1eY3txdyU37jDWpgD9fUrfsZMr6Ag4UmEC-yXHPNM2jtrXPcqdj9snhbkAXijCx4NeYNrGXjIkY8JK2LG6LqOB4kVu1MvgB7eamlrDQNEFckVcHpviIMx8wReTnEdyL_z8yJvvPepRccNRjwcZME7sksmtf1zhmCgHrWkv3T50h3KNDlBezFzTYEHapQHmMUdDY7RzYEm_hGq2GOdEVuzUxnCZpz9SjpWCxqRKWZMZi3f2dGUBust_p05ihJefEPcbtEorhyoAKKm2VY-67APhgGdNA5fhtB067qUrhZ1eCGOHwbBq1Sajr_46JIvn2y0]--></g></svg>