<svg xmlns="http://www.w3.org/2000/svg" xmlns:xlink="http://www.w3.org/1999/xlink" contentStyleType="text/css" data-diagram-type="CLASS" height="242px" preserveAspectRatio="none" style="width:747px;height:242px;background:#FFFFFF;" version="1.1" viewBox="0 0 747 242" width="747px" zoomAndPan="magnify"><defs/><g><!--class BankAccount--><g class="entity" data-entity="BankAccount" data-source-line="3" data-uid="ent0002" id="entity_BankAccount"><rect fill="#FFFFFF" height="223.2656" rx="2.5" ry="2.5" style="stroke:#000000;stroke-width:1;" width="434.2314" x="12" y="12"/><ellipse cx="179.3975" cy="26" fill="#FFFFFF" rx="9" ry="9" style="stroke:#000000;stroke-width:1;"/><path d="M182.3662,31.6406 Q181.7881,31.9375 181.1475,32.0781 Q180.5068,32.2344 179.8037,32.2344 Q177.3037,32.2344 175.9756,30.5938 Q174.6631,28.9375 174.6631,25.8125 Q174.6631,22.6875 175.9756,21.0313 Q177.3037,19.375 179.8037,19.375 Q180.5068,19.375 181.1475,19.5313 Q181.8037,19.6875 182.3662,19.9844 L182.3662,22.7031 Q181.7412,22.125 181.1475,21.8594 Q180.5537,21.5781 179.9287,21.5781 Q178.585,21.5781 177.8975,22.6563 Q177.21,23.7188 177.21,25.8125 Q177.21,27.9063 177.8975,28.9844 Q178.585,30.0469 179.9287,30.0469 Q180.5537,30.0469 181.1475,29.7813 Q181.7412,29.5 182.3662,28.9219 L182.3662,31.6406 Z " fill="#000000"/><text fill="#000000" font-family="Verdana" font-size="14" lengthAdjust="spacing" textLength="91.9365" x="196.8975" y="30.8467">BankAccount</text><line style="stroke:#000000;stroke-width:1;" x1="13" x2="445.2314" y1="40" y2="40"/><rect fill="none" height="6" style="stroke:#000000;stroke-width:1;" width="6" x="20" y="50.6484"/><text fill="#000000" font-family="Verdana" font-size="14" lengthAdjust="spacing" textLength="162.9619" x="30" y="56.9951">accountNumber: String</text><rect fill="none" height="6" style="stroke:#000000;stroke-width:1;" width="6" x="20" y="66.9453"/><text fill="#000000" font-family="Verdana" font-size="14" lengthAdjust="spacing" textLength="135.5088" x="30" y="73.292">ownerName: String</text><rect fill="none" height="6" style="stroke:#000000;stroke-width:1;" width="6" x="20" y="83.2422"/><text fill="#000000" font-family="Verdana" font-size="14" lengthAdjust="spacing" textLength="112" x="30" y="89.5889">balance: double</text><line style="stroke:#000000;stroke-width:1;" x1="13" x2="445.2314" y1="96.8906" y2="96.8906"/><ellipse cx="23" cy="110.5391" fill="#FFFFFF" rx="3" ry="3" style="stroke:#000000;stroke-width:1;"/><text fill="#000000" font-family="Verdana" font-size="14" lengthAdjust="spacing" textLength="410.2314" x="30" y="113.8857">BankAccount(accountNumber: String, ownerName: String)</text><ellipse cx="23" cy="126.8359" fill="#FFFFFF" rx="3" ry="3" style="stroke:#000000;stroke-width:1;"/><text fill="#000000" font-family="Verdana" font-size="14" lengthAdjust="spacing" textLength="197.873" x="30" y="130.1826">getAccountNumber(): String</text><ellipse cx="23" cy="143.1328" fill="#FFFFFF" rx="3" ry="3" style="stroke:#000000;stroke-width:1;"/><text fill="#000000" font-family="Verdana" font-size="14" lengthAdjust="spacing" textLength="171.876" x="30" y="146.4795">getOwnerName(): String</text><ellipse cx="23" cy="159.4297" fill="#FFFFFF" rx="3" ry="3" style="stroke:#000000;stroke-width:1;"/><text fill="#000000" font-family="Verdana" font-size="14" lengthAdjust="spacing" textLength="146.6309" x="30" y="162.7764">getBalance(): double</text><ellipse cx="23" cy="175.7266" fill="#FFFFFF" rx="3" ry="3" style="stroke:#000000;stroke-width:1;"/><text fill="#000000" font-family="Verdana" font-size="14" lengthAdjust="spacing" textLength="293.6377" x="30" y="179.0732">setOwnerName(ownerName: String): void</text><ellipse cx="23" cy="192.0234" fill="#FFFFFF" rx="3" ry="3" style="stroke:#000000;stroke-width:1;"/><text fill="#000000" font-family="Verdana" font-size="14" lengthAdjust="spacing" textLength="212.2422" x="30" y="195.3701">deposit(amount: double): void</text><ellipse cx="23" cy="208.3203" fill="#FFFFFF" rx="3" ry="3" style="stroke:#000000;stroke-width:1;"/><text fill="#000000" font-family="Verdana" font-size="14" lengthAdjust="spacing" textLength="224.9912" x="30" y="211.667">withdraw(amount: double): void</text><ellipse cx="23" cy="224.6172" fill="#FFFFFF" rx="3" ry="3" style="stroke:#000000;stroke-width:1;"/><text fill="#000000" font-family="Verdana" font-size="14" lengthAdjust="spacing" textLength="125.9248" x="30" y="227.9639">displayInfo(): void</text></g><g class="entity" data-entity="GMN3" data-source-line="19" data-uid="ent0004" id="entity_GMN3"><path d="M481.27,88.37 L481.27,119.64 L446.6,123.64 L481.27,127.64 L481.27,158.9013 A0,0 0 0 0 481.27,158.9013 L740.9609,158.9013 A0,0 0 0 0 740.9609,158.9013 L740.9609,98.37 L730.9609,88.37 L481.27,88.37 A0,0 0 0 0 481.27,88.37" fill="#FFFFFF" style="stroke:#000000;stroke-width:1;"/><path d="M730.9609,88.37 L730.9609,98.37 L740.9609,98.37 L730.9609,88.37" fill="#FFFFFF" style="stroke:#000000;stroke-width:1;"/><text fill="#000000" font-family="Verdana" font-size="13" lengthAdjust="spacing" textLength="202.8965" x="487.27" y="105.4369">Encapsulation avec validation :</text><text fill="#000000" font-family="Verdana" font-size="13" lengthAdjust="spacing" textLength="238.6909" x="487.27" y="120.5697">- Constructeur valide les param&#232;tres</text><text fill="#000000" font-family="Verdana" font-size="13" lengthAdjust="spacing" textLength="174.0781" x="487.27" y="135.7025">- Setters avec v&#233;rifications</text><text fill="#000000" font-family="Verdana" font-size="13" lengthAdjust="spacing" textLength="222.2695" x="487.27" y="150.8353">- M&#233;thodes m&#233;tier avec validation</text></g><!--SRC=[VL1BJiCm4Dtx5CCkLUa5iciH2nQqYvvWOayI2yUEx4aYXBWFFKSkXkCG50XYOtdURvxcZcjg25g3sWeX3OO09xGlHobTPndU1C01S9xENLEGp-7ANjigCMwmvC_Oq0-qG8DMHaovhZ0qOOVuxDVHsP-Xzzl4NN9MnCUr8TkjDYRwiXYtr6dkCn7VZVOGrfxjsXnwfrLIAcfTqB5oCnLOGjQAGNEjF0x_I9GEySolJxPqsOA_2s4T4tXTrGokN1yecXwjn3Pq1bax2zYJX1wDLlESfri_E1lOTvAfypDBO2X0YnwRyOCzXQIx4ZFvy9KothmkjKn1C_yythXsAZgR-DFaV-yJP1LCRSKd]--></g></svg>