<svg xmlns="http://www.w3.org/2000/svg" xmlns:xlink="http://www.w3.org/1999/xlink" contentStyleType="text/css" data-diagram-type="CLASS" height="346px" preserveAspectRatio="none" style="width:1685px;height:346px;background:#FFFFFF;" version="1.1" viewBox="0 0 1685 346" width="1685px" zoomAndPan="magnify"><defs/><g><!--class BankAccount--><g class="entity" data-entity="BankAccount" data-source-line="3" data-uid="ent0002" id="entity_BankAccount"><rect fill="#FFFFFF" height="158.0781" rx="2.5" ry="2.5" style="stroke:#000000;stroke-width:1;" width="434.2314" x="523.87" y="12"/><ellipse cx="691.2675" cy="26" fill="#FFFFFF" rx="9" ry="9" style="stroke:#000000;stroke-width:1;"/><path d="M694.2362,31.6406 Q693.6581,31.9375 693.0175,32.0781 Q692.3768,32.2344 691.6737,32.2344 Q689.1737,32.2344 687.8456,30.5938 Q686.5331,28.9375 686.5331,25.8125 Q686.5331,22.6875 687.8456,21.0313 Q689.1737,19.375 691.6737,19.375 Q692.3768,19.375 693.0175,19.5313 Q693.6737,19.6875 694.2362,19.9844 L694.2362,22.7031 Q693.6112,22.125 693.0175,21.8594 Q692.4237,21.5781 691.7987,21.5781 Q690.455,21.5781 689.7675,22.6563 Q689.08,23.7188 689.08,25.8125 Q689.08,27.9063 689.7675,28.9844 Q690.455,30.0469 691.7987,30.0469 Q692.4237,30.0469 693.0175,29.7813 Q693.6112,29.5 694.2362,28.9219 L694.2362,31.6406 Z " fill="#000000"/><text fill="#000000" font-family="Verdana" font-size="14" lengthAdjust="spacing" textLength="91.9365" x="708.7675" y="30.8467">BankAccount</text><line style="stroke:#000000;stroke-width:1;" x1="524.87" x2="957.1014" y1="40" y2="40"/><polygon fill="none" points="534.87,48.6484,538.87,52.6484,534.87,56.6484,530.87,52.6484" style="stroke:#000000;stroke-width:1;"/><text fill="#000000" font-family="Verdana" font-size="14" lengthAdjust="spacing" textLength="162.9619" x="541.87" y="56.9951">accountNumber: String</text><polygon fill="none" points="534.87,64.9453,538.87,68.9453,534.87,72.9453,530.87,68.9453" style="stroke:#000000;stroke-width:1;"/><text fill="#000000" font-family="Verdana" font-size="14" lengthAdjust="spacing" textLength="135.5088" x="541.87" y="73.292">ownerName: String</text><polygon fill="none" points="534.87,81.2422,538.87,85.2422,534.87,89.2422,530.87,85.2422" style="stroke:#000000;stroke-width:1;"/><text fill="#000000" font-family="Verdana" font-size="14" lengthAdjust="spacing" textLength="112" x="541.87" y="89.5889">balance: double</text><line style="stroke:#000000;stroke-width:1;" x1="524.87" x2="957.1014" y1="96.8906" y2="96.8906"/><ellipse cx="534.87" cy="110.5391" fill="#FFFFFF" rx="3" ry="3" style="stroke:#000000;stroke-width:1;"/><text fill="#000000" font-family="Verdana" font-size="14" lengthAdjust="spacing" textLength="410.2314" x="541.87" y="113.8857">BankAccount(accountNumber: String, ownerName: String)</text><ellipse cx="534.87" cy="126.8359" fill="#FFFFFF" rx="3" ry="3" style="stroke:#000000;stroke-width:1;"/><text fill="#000000" font-family="Verdana" font-size="14" lengthAdjust="spacing" textLength="212.2422" x="541.87" y="130.1826">deposit(amount: double): void</text><ellipse cx="534.87" cy="143.1328" fill="#FFFFFF" rx="3" ry="3" style="stroke:#000000;stroke-width:1;"/><text fill="#000000" font-family="Verdana" font-size="14" lengthAdjust="spacing" textLength="224.9912" x="541.87" y="146.4795">withdraw(amount: double): void</text><ellipse cx="534.87" cy="159.4297" fill="#FFFFFF" rx="3" ry="3" style="stroke:#000000;stroke-width:1;"/><text fill="#000000" font-family="Verdana" font-size="14" lengthAdjust="spacing" textLength="125.9248" x="541.87" y="162.7764">displayInfo(): void</text></g><!--class SavingsAccount--><g class="entity" data-entity="SavingsAccount" data-source-line="14" data-uid="ent0003" id="entity_SavingsAccount"><rect fill="#FFFFFF" height="109.1875" rx="2.5" ry="2.5" style="stroke:#000000;stroke-width:1;" width="605.9707" x="12" y="230.08"/><ellipse cx="255.502" cy="244.08" fill="#FFFFFF" rx="9" ry="9" style="stroke:#000000;stroke-width:1;"/><path d="M258.4707,249.7206 Q257.8926,250.0175 257.252,250.1581 Q256.6113,250.3144 255.9082,250.3144 Q253.4082,250.3144 252.0801,248.6737 Q250.7676,247.0175 250.7676,243.8925 Q250.7676,240.7675 252.0801,239.1112 Q253.4082,237.455 255.9082,237.455 Q256.6113,237.455 257.252,237.6112 Q257.9082,237.7675 258.4707,238.0644 L258.4707,240.7831 Q257.8457,240.205 257.252,239.9394 Q256.6582,239.6581 256.0332,239.6581 Q254.6895,239.6581 254.002,240.7362 Q253.3145,241.7987 253.3145,243.8925 Q253.3145,245.9862 254.002,247.0644 Q254.6895,248.1269 256.0332,248.1269 Q256.6582,248.1269 257.252,247.8612 Q257.8457,247.58 258.4707,247.0019 L258.4707,249.7206 Z " fill="#000000"/><text fill="#000000" font-family="Verdana" font-size="14" lengthAdjust="spacing" textLength="111.4668" x="273.002" y="248.9267">SavingsAccount</text><line style="stroke:#000000;stroke-width:1;" x1="13" x2="616.9707" y1="258.08" y2="258.08"/><rect fill="none" height="6" style="stroke:#000000;stroke-width:1;" width="6" x="20" y="268.7284"/><text fill="#000000" font-family="Verdana" font-size="14" lengthAdjust="spacing" textLength="143.3086" x="30" y="275.0751">interestRate: double</text><line style="stroke:#000000;stroke-width:1;" x1="13" x2="616.9707" y1="282.3769" y2="282.3769"/><ellipse cx="23" cy="296.0253" fill="#FFFFFF" rx="3" ry="3" style="stroke:#000000;stroke-width:1;"/><text fill="#000000" font-family="Verdana" font-size="14" lengthAdjust="spacing" textLength="581.9707" x="30" y="299.372">SavingsAccount(accountNumber: String, ownerName: String, interestRate: double)</text><ellipse cx="23" cy="312.3222" fill="#FFFFFF" rx="3" ry="3" style="stroke:#000000;stroke-width:1;"/><text fill="#000000" font-family="Verdana" font-size="14" lengthAdjust="spacing" textLength="142.502" x="30" y="315.6689">applyInterest(): void</text><ellipse cx="23" cy="328.6191" fill="#FFFFFF" rx="3" ry="3" style="stroke:#000000;stroke-width:1;"/><text fill="#000000" font-family="Verdana" font-size="14" lengthAdjust="spacing" textLength="125.9248" x="30" y="331.9657">displayInfo(): void</text></g><!--class CheckingAccount--><g class="entity" data-entity="CheckingAccount" data-source-line="22" data-uid="ent0004" id="entity_CheckingAccount"><rect fill="#FFFFFF" height="109.1875" rx="2.5" ry="2.5" style="stroke:#000000;stroke-width:1;" width="629.1309" x="853.42" y="230.08"/><ellipse cx="1103.4913" cy="244.08" fill="#FFFFFF" rx="9" ry="9" style="stroke:#000000;stroke-width:1;"/><path d="M1106.46,249.7206 Q1105.8819,250.0175 1105.2413,250.1581 Q1104.6007,250.3144 1103.8975,250.3144 Q1101.3975,250.3144 1100.0694,248.6737 Q1098.7569,247.0175 1098.7569,243.8925 Q1098.7569,240.7675 1100.0694,239.1112 Q1101.3975,237.455 1103.8975,237.455 Q1104.6007,237.455 1105.2413,237.6112 Q1105.8975,237.7675 1106.46,238.0644 L1106.46,240.7831 Q1105.835,240.205 1105.2413,239.9394 Q1104.6475,239.6581 1104.0225,239.6581 Q1102.6788,239.6581 1101.9913,240.7362 Q1101.3038,241.7987 1101.3038,243.8925 Q1101.3038,245.9862 1101.9913,247.0644 Q1102.6788,248.1269 1104.0225,248.1269 Q1104.6475,248.1269 1105.2413,247.8612 Q1105.835,247.58 1106.46,247.0019 L1106.46,249.7206 Z " fill="#000000"/><text fill="#000000" font-family="Verdana" font-size="14" lengthAdjust="spacing" textLength="121.4883" x="1120.9913" y="248.9267">CheckingAccount</text><line style="stroke:#000000;stroke-width:1;" x1="854.42" x2="1481.5509" y1="258.08" y2="258.08"/><rect fill="none" height="6" style="stroke:#000000;stroke-width:1;" width="6" x="861.42" y="268.7284"/><text fill="#000000" font-family="Verdana" font-size="14" lengthAdjust="spacing" textLength="156.4473" x="871.42" y="275.0751">overdraftLimit: double</text><line style="stroke:#000000;stroke-width:1;" x1="854.42" x2="1481.5509" y1="282.3769" y2="282.3769"/><ellipse cx="864.42" cy="296.0253" fill="#FFFFFF" rx="3" ry="3" style="stroke:#000000;stroke-width:1;"/><text fill="#000000" font-family="Verdana" font-size="14" lengthAdjust="spacing" textLength="605.1309" x="871.42" y="299.372">CheckingAccount(accountNumber: String, ownerName: String, overdraftLimit: double)</text><ellipse cx="864.42" cy="312.3222" fill="#FFFFFF" rx="3" ry="3" style="stroke:#000000;stroke-width:1;"/><text fill="#000000" font-family="Verdana" font-size="14" lengthAdjust="spacing" textLength="224.9912" x="871.42" y="315.6689">withdraw(amount: double): void</text><ellipse cx="864.42" cy="328.6191" fill="#FFFFFF" rx="3" ry="3" style="stroke:#000000;stroke-width:1;"/><text fill="#000000" font-family="Verdana" font-size="14" lengthAdjust="spacing" textLength="125.9248" x="871.42" y="331.9657">displayInfo(): void</text></g><g class="entity" data-entity="GMN7" data-source-line="34" data-uid="ent0008" id="entity_GMN7"><path d="M653.4,264.54 L653.4,280.68 L618.4,284.68 L653.4,288.68 L653.4,304.8056 A0,0 0 0 0 653.4,304.8056 L818.5616,304.8056 A0,0 0 0 0 818.5616,304.8056 L818.5616,274.54 L808.5616,264.54 L653.4,264.54 A0,0 0 0 0 653.4,264.54" fill="#FFFFFF" style="stroke:#000000;stroke-width:1;"/><path d="M808.5616,264.54 L808.5616,274.54 L818.5616,274.54 L808.5616,264.54" fill="#FFFFFF" style="stroke:#000000;stroke-width:1;"/><text fill="#000000" font-family="Verdana" font-size="13" lengthAdjust="spacing" textLength="144.1616" x="659.4" y="281.6069">Compte &#233;pargne avec</text><text fill="#000000" font-family="Verdana" font-size="13" lengthAdjust="spacing" textLength="88.3403" x="659.4" y="296.7397">taux d'int&#233;r&#234;t</text></g><g class="entity" data-entity="GMN10" data-source-line="39" data-uid="ent0011" id="entity_GMN10"><path d="M1517.44,264.54 L1517.44,280.68 L1482.93,284.68 L1517.44,288.68 L1517.44,304.8056 A0,0 0 0 0 1517.44,304.8056 L1678.5391,304.8056 A0,0 0 0 0 1678.5391,304.8056 L1678.5391,274.54 L1668.5391,264.54 L1517.44,264.54 A0,0 0 0 0 1517.44,264.54" fill="#FFFFFF" style="stroke:#000000;stroke-width:1;"/><path d="M1668.5391,264.54 L1668.5391,274.54 L1678.5391,274.54 L1668.5391,264.54" fill="#FFFFFF" style="stroke:#000000;stroke-width:1;"/><text fill="#000000" font-family="Verdana" font-size="13" lengthAdjust="spacing" textLength="140.0991" x="1523.44" y="281.6069">Compte courant avec</text><text fill="#000000" font-family="Verdana" font-size="13" lengthAdjust="spacing" textLength="122.8398" x="1523.44" y="296.7397">d&#233;couvert autoris&#233;</text></g><!--reverse link BankAccount to SavingsAccount--><g class="link" data-entity-1="BankAccount" data-entity-2="SavingsAccount" data-source-line="30" data-uid="lnk5" id="link_BankAccount_SavingsAccount"><path codeLine="30" d="M550.0749,177.9253 C505.9549,197.7753 475.97,211.26 435.21,229.59" fill="none" id="BankAccount-backto-SavingsAccount" style="stroke:#000000;stroke-width:1;"/><polygon fill="none" points="566.49,170.54,547.6131,172.4536,552.5366,183.397,566.49,170.54" style="stroke:#000000;stroke-width:1;"/></g><!--reverse link BankAccount to CheckingAccount--><g class="link" data-entity-1="BankAccount" data-entity-2="CheckingAccount" data-source-line="31" data-uid="lnk6" id="link_BankAccount_CheckingAccount"><path codeLine="31" d="M932.312,177.91 C976.542,197.76 1006.62,211.26 1047.48,229.59" fill="none" id="BankAccount-backto-CheckingAccount" style="stroke:#000000;stroke-width:1;"/><polygon fill="none" points="915.89,170.54,929.8553,183.384,934.7687,172.436,915.89,170.54" style="stroke:#000000;stroke-width:1;"/></g><!--SRC=[fPB1JeD048RlFCKO3z9ONg3neZsPc1xi4mpi09l2BjaTg4Pz87mDNinf4MqfQMgyaEm_ytyx_onNd5D9K1MeJH0a1NeF3sWszqbYQyFm5W1S0_QdLLt6v1QmPgTDjg_OhI6tmfAEr1WBD8beojPnGQ95aNnk3z7X97H-IfpjdOegwxMuofrf8CyMq5YjzXrRpRbok3tJehINfA-F9hNXe7yCiTVOo6t-C7a4sZ0vyloCF17ds79nelaaji-9LLN8W7qvl7ZuPKx9Hj37qzk6dAmavITTQZwTV-JwGu1fykoV3t7uvzszHz5emQVrKO0WC9O9dCvo1fkExG1BMrRIqBKLkimGO4E9o8pr2wWRUPMkTTqd1sGKx51ZuFY-7w8S7SfKtq3LjQB8ZaIfsJhjk_ON-WK0]--></g></svg>