<svg xmlns="http://www.w3.org/2000/svg" xmlns:xlink="http://www.w3.org/1999/xlink" contentStyleType="text/css" data-diagram-type="CLASS" height="476px" preserveAspectRatio="none" style="width:1016px;height:476px;background:#FFFFFF;" version="1.1" viewBox="0 0 1016 476" width="1016px" zoomAndPan="magnify"><defs/><g><!--class Vehicle--><g class="entity" data-entity="Vehicle" data-source-line="3" data-uid="ent0002" id="entity_Vehicle"><rect fill="#FFFFFF" height="141.7813" rx="2.5" ry="2.5" style="stroke:#000000;stroke-width:1;" width="362.3447" x="330.41" y="12"/><ellipse cx="482.2557" cy="26" fill="#FFFFFF" rx="9" ry="9" style="stroke:#000000;stroke-width:1;"/><path d="M485.2245,31.6406 Q484.6463,31.9375 484.0057,32.0781 Q483.3651,32.2344 482.662,32.2344 Q480.162,32.2344 478.8338,30.5938 Q477.5213,28.9375 477.5213,25.8125 Q477.5213,22.6875 478.8338,21.0313 Q480.162,19.375 482.662,19.375 Q483.3651,19.375 484.0057,19.5313 Q484.662,19.6875 485.2245,19.9844 L485.2245,22.7031 Q484.5995,22.125 484.0057,21.8594 Q483.412,21.5781 482.787,21.5781 Q481.4432,21.5781 480.7557,22.6563 Q480.0682,23.7188 480.0682,25.8125 Q480.0682,27.9063 480.7557,28.9844 Q481.4432,30.0469 482.787,30.0469 Q483.412,30.0469 484.0057,29.7813 Q484.5995,29.5 485.2245,28.9219 L485.2245,31.6406 Z " fill="#000000"/><text fill="#000000" font-family="Verdana" font-size="14" lengthAdjust="spacing" textLength="51.1533" x="499.7557" y="30.8467">Vehicle</text><line style="stroke:#000000;stroke-width:1;" x1="331.41" x2="691.7547" y1="40" y2="40"/><rect fill="none" height="6" style="stroke:#000000;stroke-width:1;" width="6" x="338.41" y="50.6484"/><text fill="#000000" font-family="Verdana" font-size="14" lengthAdjust="spacing" textLength="143.7598" x="348.41" y="56.9951">vin: String {private}</text><polygon fill="none" points="341.41,64.9453,345.41,68.9453,341.41,72.9453,337.41,68.9453" style="stroke:#000000;stroke-width:1;"/><text fill="#000000" font-family="Verdana" font-size="14" lengthAdjust="spacing" textLength="182.1914" x="348.41" y="73.292">brand: String {protected}</text><ellipse cx="341.41" cy="86.2422" fill="none" rx="3" ry="3" style="stroke:#000000;stroke-width:1;"/><text fill="#000000" font-family="Verdana" font-size="14" lengthAdjust="spacing" textLength="158.9287" x="348.41" y="89.5889">model: String {public}</text><line style="stroke:#000000;stroke-width:1;" x1="331.41" x2="691.7547" y1="96.8906" y2="96.8906"/><ellipse cx="341.41" cy="110.5391" fill="#FFFFFF" rx="3" ry="3" style="stroke:#000000;stroke-width:1;"/><text fill="#000000" font-family="Verdana" font-size="14" lengthAdjust="spacing" textLength="338.3447" x="348.41" y="113.8857">Vehicle(vin: String, brand: String, model: String)</text><polygon fill="#FFFFFF" points="341.41,121.8359,345.41,125.8359,341.41,129.8359,337.41,125.8359" style="stroke:#000000;stroke-width:1;"/><text fill="#000000" font-family="Verdana" font-size="14" lengthAdjust="spacing" textLength="121.7686" x="348.41" y="130.1826">displayVin(): void</text><ellipse cx="341.41" cy="143.1328" fill="#FFFFFF" rx="3" ry="3" style="stroke:#000000;stroke-width:1;"/><text fill="#000000" font-family="Verdana" font-size="14" lengthAdjust="spacing" textLength="125.9248" x="348.41" y="146.4795">displayInfo(): void</text></g><!--class Car--><g class="entity" data-entity="Car" data-source-line="13" data-uid="ent0003" id="entity_Car"><rect fill="#FFFFFF" height="125.4844" rx="2.5" ry="2.5" style="stroke:#000000;stroke-width:1;" width="483.1699" x="12" y="213.78"/><ellipse cx="237.7798" cy="227.78" fill="#FFFFFF" rx="9" ry="9" style="stroke:#000000;stroke-width:1;"/><path d="M240.7485,233.4206 Q240.1704,233.7175 239.5298,233.8581 Q238.8892,234.0144 238.186,234.0144 Q235.686,234.0144 234.3579,232.3738 Q233.0454,230.7175 233.0454,227.5925 Q233.0454,224.4675 234.3579,222.8113 Q235.686,221.155 238.186,221.155 Q238.8892,221.155 239.5298,221.3113 Q240.186,221.4675 240.7485,221.7644 L240.7485,224.4831 Q240.1235,223.905 239.5298,223.6394 Q238.936,223.3581 238.311,223.3581 Q236.9673,223.3581 236.2798,224.4363 Q235.5923,225.4988 235.5923,227.5925 Q235.5923,229.6863 236.2798,230.7644 Q236.9673,231.8269 238.311,231.8269 Q238.936,231.8269 239.5298,231.5613 Q240.1235,231.28 240.7485,230.7019 L240.7485,233.4206 Z " fill="#000000"/><text fill="#000000" font-family="Verdana" font-size="14" lengthAdjust="spacing" textLength="24.1104" x="255.2798" y="232.6267">Car</text><line style="stroke:#000000;stroke-width:1;" x1="13" x2="494.1699" y1="241.78" y2="241.78"/><rect fill="none" height="6" style="stroke:#000000;stroke-width:1;" width="6" x="20" y="252.4284"/><text fill="#000000" font-family="Verdana" font-size="14" lengthAdjust="spacing" textLength="138.9678" x="30" y="258.7751">numberOfDoors: int</text><line style="stroke:#000000;stroke-width:1;" x1="13" x2="494.1699" y1="266.0769" y2="266.0769"/><ellipse cx="23" cy="279.7253" fill="#FFFFFF" rx="3" ry="3" style="stroke:#000000;stroke-width:1;"/><text fill="#000000" font-family="Verdana" font-size="14" lengthAdjust="spacing" textLength="459.1699" x="30" y="283.072">Car(vin: String, brand: String, model: String, numberOfDoors: int)</text><ellipse cx="23" cy="296.0222" fill="#FFFFFF" rx="3" ry="3" style="stroke:#000000;stroke-width:1;"/><text fill="#000000" font-family="Verdana" font-size="14" lengthAdjust="spacing" textLength="217.7793" x="30" y="299.3689">displayBrandUpperCase(): void</text><ellipse cx="23" cy="312.3191" fill="#FFFFFF" rx="3" ry="3" style="stroke:#000000;stroke-width:1;"/><text fill="#000000" font-family="Verdana" font-size="14" lengthAdjust="spacing" textLength="124.7764" x="30" y="315.6657">testAccess(): void</text><ellipse cx="23" cy="328.6159" fill="#FFFFFF" rx="3" ry="3" style="stroke:#000000;stroke-width:1;"/><text fill="#000000" font-family="Verdana" font-size="14" lengthAdjust="spacing" textLength="125.9248" x="30" y="331.9626">displayInfo(): void</text></g><!--class Motorcycle--><g class="entity" data-entity="Motorcycle" data-source-line="22" data-uid="ent0004" id="entity_Motorcycle"><rect fill="#FFFFFF" height="109.1875" rx="2.5" ry="2.5" style="stroke:#000000;stroke-width:1;" width="478.9521" x="530.11" y="221.93"/><ellipse cx="727.5172" cy="235.93" fill="#FFFFFF" rx="9" ry="9" style="stroke:#000000;stroke-width:1;"/><path d="M730.486,241.5706 Q729.9079,241.8675 729.2672,242.0081 Q728.6266,242.1644 727.9235,242.1644 Q725.4235,242.1644 724.0954,240.5238 Q722.7829,238.8675 722.7829,235.7425 Q722.7829,232.6175 724.0954,230.9613 Q725.4235,229.305 727.9235,229.305 Q728.6266,229.305 729.2672,229.4613 Q729.9235,229.6175 730.486,229.9144 L730.486,232.6331 Q729.861,232.055 729.2672,231.7894 Q728.6735,231.5081 728.0485,231.5081 Q726.7047,231.5081 726.0172,232.5863 Q725.3297,233.6488 725.3297,235.7425 Q725.3297,237.8363 726.0172,238.9144 Q726.7047,239.9769 728.0485,239.9769 Q728.6735,239.9769 729.2672,239.7113 Q729.861,239.43 730.486,238.8519 L730.486,241.5706 Z " fill="#000000"/><text fill="#000000" font-family="Verdana" font-size="14" lengthAdjust="spacing" textLength="76.6377" x="745.0172" y="240.7767">Motorcycle</text><line style="stroke:#000000;stroke-width:1;" x1="531.11" x2="1008.0621" y1="249.93" y2="249.93"/><rect fill="none" height="6" style="stroke:#000000;stroke-width:1;" width="6" x="538.11" y="260.5784"/><text fill="#000000" font-family="Verdana" font-size="14" lengthAdjust="spacing" textLength="82.2227" x="548.11" y="266.9251">type: String</text><line style="stroke:#000000;stroke-width:1;" x1="531.11" x2="1008.0621" y1="274.2269" y2="274.2269"/><ellipse cx="541.11" cy="287.8753" fill="#FFFFFF" rx="3" ry="3" style="stroke:#000000;stroke-width:1;"/><text fill="#000000" font-family="Verdana" font-size="14" lengthAdjust="spacing" textLength="454.9521" x="548.11" y="291.222">Motorcycle(vin: String, brand: String, model: String, type: String)</text><ellipse cx="541.11" cy="304.1722" fill="#FFFFFF" rx="3" ry="3" style="stroke:#000000;stroke-width:1;"/><text fill="#000000" font-family="Verdana" font-size="14" lengthAdjust="spacing" textLength="179.5596" x="548.11" y="307.5189">displayCustomInfo(): void</text><ellipse cx="541.11" cy="320.4691" fill="#FFFFFF" rx="3" ry="3" style="stroke:#000000;stroke-width:1;"/><text fill="#000000" font-family="Verdana" font-size="14" lengthAdjust="spacing" textLength="125.9248" x="548.11" y="323.8157">displayInfo(): void</text></g><g class="entity" data-entity="GMN7" data-source-line="34" data-uid="ent0008" id="entity_GMN7"><path d="M727.86,47.63 L727.86,78.89 L693.22,82.89 L727.86,86.89 L727.86,118.1613 A0,0 0 0 0 727.86,118.1613 L989.3092,118.1613 A0,0 0 0 0 989.3092,118.1613 L989.3092,57.63 L979.3092,47.63 L727.86,47.63 A0,0 0 0 0 727.86,47.63" fill="#FFFFFF" style="stroke:#000000;stroke-width:1;"/><path d="M979.3092,47.63 L979.3092,57.63 L989.3092,57.63 L979.3092,47.63" fill="#FFFFFF" style="stroke:#000000;stroke-width:1;"/><text fill="#000000" font-family="Verdana" font-size="13" lengthAdjust="spacing" textLength="149.2905" x="733.86" y="64.6969">Modificateurs d'acc&#232;s :</text><text fill="#000000" font-family="Verdana" font-size="13" lengthAdjust="spacing" textLength="197.6406" x="733.86" y="79.8297">- private : uniquement Vehicle</text><text fill="#000000" font-family="Verdana" font-size="13" lengthAdjust="spacing" textLength="12.4033" x="733.86" y="94.9625">1.</text><text fill="#000000" font-family="Verdana" font-size="13" lengthAdjust="spacing" textLength="223.9136" x="750.3956" y="94.9625">protected : Vehicle + sous-classes</text><text fill="#000000" font-family="Verdana" font-size="13" lengthAdjust="spacing" textLength="186.145" x="733.86" y="110.0953">+ public : accessible partout</text></g><g class="entity" data-entity="GMN10" data-source-line="41" data-uid="ent0011" id="entity_GMN10"><path d="M177.84,399.27 L177.84,469.8013 A0,0 0 0 0 177.84,469.8013 L329.3351,469.8013 A0,0 0 0 0 329.3351,469.8013 L329.3351,409.27 L319.3351,399.27 L257.58,399.27 L253.58,339.63 L249.58,399.27 L177.84,399.27 A0,0 0 0 0 177.84,399.27" fill="#FFFFFF" style="stroke:#000000;stroke-width:1;"/><path d="M319.3351,399.27 L319.3351,409.27 L329.3351,409.27 L319.3351,399.27" fill="#FFFFFF" style="stroke:#000000;stroke-width:1;"/><text fill="#000000" font-family="Verdana" font-size="13" lengthAdjust="spacing" textLength="46.4712" x="183.84" y="416.3369">Acc&#232;s :</text><text fill="#000000" font-family="Verdana" font-size="13" lengthAdjust="spacing" textLength="108.894" x="183.84" y="431.4697">&#10003; model (public)</text><text fill="#000000" font-family="Verdana" font-size="13" lengthAdjust="spacing" textLength="130.4951" x="183.84" y="446.6025">&#10003; brand (protected)</text><text fill="#000000" font-family="Verdana" font-size="13" lengthAdjust="spacing" textLength="94.8086" x="183.84" y="461.7353">&#10007; vin (private)</text></g><!--reverse link Vehicle to Car--><g class="link" data-entity-1="Vehicle" data-entity-2="Car" data-source-line="30" data-uid="lnk5" id="link_Vehicle_Car"><path codeLine="30" d="M402.5305,164.8936 C376.3605,184.3336 362.59,194.56 337.1,213.49" fill="none" id="Vehicle-backto-Car" style="stroke:#000000;stroke-width:1;"/><polygon fill="none" points="416.98,154.16,398.9526,160.0771,406.1083,169.7101,416.98,154.16" style="stroke:#000000;stroke-width:1;"/></g><!--reverse link Vehicle to Motorcycle--><g class="link" data-entity-1="Vehicle" data-entity-2="Motorcycle" data-source-line="31" data-uid="lnk6" id="link_Vehicle_Motorcycle"><path codeLine="31" d="M620.6391,164.8942 C650.5491,187.1142 668.68,200.58 696.82,221.48" fill="none" id="Vehicle-backto-Motorcycle" style="stroke:#000000;stroke-width:1;"/><polygon fill="none" points="606.19,154.16,617.0611,169.7106,624.2172,160.0778,606.19,154.16" style="stroke:#000000;stroke-width:1;"/></g><!--SRC=[bPD1JiCm44NtESMWBcZKvW8Hcr8sB2eMYEuTUz9QIknWZojLfQTWmOO3S0zkmacmdOGa4a9bEpF-y_xavuhsM2Cq5PCgINZ5h8KjxYMl44u9G0O7gN9u92FL3awDaGT6UFQT6HI6AJ7kQK9EA49t0RKMM8swhgWa3wqiY_rkotoalvnABgSQQLmgfFMmnwrKypI7WvOYgdNbUrNgd_gvDxHcfZEZN5sWUIZlj3Os1wbe0F9JbyCiVv5AnoItuV5Jqw1PCuiJLa9BAyxHsiijR3Hfmu_3Pw5ZWptCu64O-u-LiTR4nDfPqlM4w0_IFZStBraMhZaj36X9ednImCZTda2NVHAyz4OBMKhk4-QC1N7DEF_yi917nrts80UdvBFpiLKqUZk3dm3waNxr0gnsDej7H1lfsoJw6HQ_WIpyMCCCQKS9AW41haCiD7d_WJ7O0LWDF5_lh-qPOTuAfbqndjeNUvYs_XR-er2D7j9XqJS0]--></g></svg>