<svg xmlns="http://www.w3.org/2000/svg" xmlns:xlink="http://www.w3.org/1999/xlink" contentStyleType="text/css" data-diagram-type="CLASS" height="281px" preserveAspectRatio="none" style="width:1139px;height:281px;background:#FFFFFF;" version="1.1" viewBox="0 0 1139 281" width="1139px" zoomAndPan="magnify"><defs/><g><!--class ArrayList--><g class="entity" data-entity="ArrayList" data-source-line="7" data-uid="ent0002" id="entity_ArrayList"><rect fill="#FFFFFF" height="125.4844" rx="2.5" ry="2.5" style="stroke:#000000;stroke-width:1;" width="113.8008" x="12" y="12"/><ellipse cx="31.2275" cy="26" fill="#FFFFFF" rx="9" ry="9" style="stroke:#000000;stroke-width:1;"/><path d="M34.1962,31.6406 Q33.6181,31.9375 32.9775,32.0781 Q32.3369,32.2344 31.6337,32.2344 Q29.1337,32.2344 27.8056,30.5938 Q26.4931,28.9375 26.4931,25.8125 Q26.4931,22.6875 27.8056,21.0313 Q29.1337,19.375 31.6337,19.375 Q32.3369,19.375 32.9775,19.5313 Q33.6337,19.6875 34.1962,19.9844 L34.1962,22.7031 Q33.5712,22.125 32.9775,21.8594 Q32.3837,21.5781 31.7587,21.5781 Q30.415,21.5781 29.7275,22.6563 Q29.04,23.7188 29.04,25.8125 Q29.04,27.9063 29.7275,28.9844 Q30.415,30.0469 31.7587,30.0469 Q32.3837,30.0469 32.9775,29.7813 Q33.5712,29.5 34.1962,28.9219 L34.1962,31.6406 Z " fill="#000000"/><text fill="#000000" font-family="Verdana" font-size="14" font-weight="bold" lengthAdjust="spacing" textLength="71.9619" x="44.6114" y="30.8467">ArrayList</text><line style="stroke:#000000;stroke-width:1;" x1="13" x2="124.8008" y1="40" y2="40"/><text fill="#000000" font-family="Verdana" font-size="14" lengthAdjust="spacing" textLength="59.6162" x="18" y="56.9951">-size: int</text><text fill="#000000" font-family="Verdana" font-size="14" lengthAdjust="spacing" textLength="91.5742" x="18" y="73.292">-capacity: int</text><line style="stroke:#000000;stroke-width:1;" x1="13" x2="124.8008" y1="80.5938" y2="80.5938"/><text fill="#000000" font-family="Verdana" font-size="14" lengthAdjust="spacing" textLength="87.8008" x="18" y="97.5889">+add(): void</text><text fill="#000000" font-family="Verdana" font-size="14" lengthAdjust="spacing" textLength="95.9834" x="18" y="113.8857">+clear(): void</text><text fill="#000000" font-family="Verdana" font-size="14" lengthAdjust="spacing" textLength="101.8008" x="18" y="130.1826">+getSize(): int</text></g><!--class Stack--><g class="entity" data-entity="Stack" data-source-line="16" data-uid="ent0003" id="entity_Stack"><rect fill="#FFFFFF" height="76.5938" rx="2.5" ry="2.5" style="stroke:#000000;stroke-width:1;" width="107.375" x="15.21" y="197.49"/><ellipse cx="44.2043" cy="211.49" fill="#FFFFFF" rx="9" ry="9" style="stroke:#000000;stroke-width:1;"/><path d="M47.1731,217.1306 Q46.595,217.4275 45.9543,217.5681 Q45.3137,217.7244 44.6106,217.7244 Q42.1106,217.7244 40.7825,216.0837 Q39.47,214.4275 39.47,211.3025 Q39.47,208.1775 40.7825,206.5212 Q42.1106,204.865 44.6106,204.865 Q45.3137,204.865 45.9543,205.0212 Q46.6106,205.1775 47.1731,205.4744 L47.1731,208.1931 Q46.5481,207.615 45.9543,207.3494 Q45.3606,207.0681 44.7356,207.0681 Q43.3918,207.0681 42.7043,208.1462 Q42.0168,209.2087 42.0168,211.3025 Q42.0168,213.3962 42.7043,214.4744 Q43.3918,215.5369 44.7356,215.5369 Q45.3606,215.5369 45.9543,215.2712 Q46.5481,214.99 47.1731,214.4119 L47.1731,217.1306 Z " fill="#000000"/><text fill="#000000" font-family="Verdana" font-size="14" font-weight="bold" lengthAdjust="spacing" textLength="43.832" x="59.7586" y="216.3367">Stack</text><line style="stroke:#000000;stroke-width:1;" x1="16.21" x2="121.585" y1="225.49" y2="225.49"/><line style="stroke:#000000;stroke-width:1;" x1="16.21" x2="121.585" y1="233.49" y2="233.49"/><text fill="#000000" font-family="Verdana" font-size="14" lengthAdjust="spacing" textLength="95.375" x="21.21" y="250.4851">+push(): void</text><text fill="#000000" font-family="Verdana" font-size="14" lengthAdjust="spacing" textLength="87.7871" x="21.21" y="266.782">+pop(): void</text></g><!--class Rectangle--><g class="entity" data-entity="Rectangle" data-source-line="25" data-uid="ent0005" id="entity_Rectangle"><rect fill="#FFFFFF" height="125.4844" rx="2.5" ry="2.5" style="stroke:#000000;stroke-width:1;" width="242.6309" x="357.58" y="12"/><ellipse cx="435.6474" cy="26" fill="#FFFFFF" rx="9" ry="9" style="stroke:#000000;stroke-width:1;"/><path d="M438.6161,31.6406 Q438.038,31.9375 437.3974,32.0781 Q436.7568,32.2344 436.0536,32.2344 Q433.5536,32.2344 432.2255,30.5938 Q430.913,28.9375 430.913,25.8125 Q430.913,22.6875 432.2255,21.0313 Q433.5536,19.375 436.0536,19.375 Q436.7568,19.375 437.3974,19.5313 Q438.0536,19.6875 438.6161,19.9844 L438.6161,22.7031 Q437.9911,22.125 437.3974,21.8594 Q436.8036,21.5781 436.1786,21.5781 Q434.8349,21.5781 434.1474,22.6563 Q433.4599,23.7188 433.4599,25.8125 Q433.4599,27.9063 434.1474,28.9844 Q434.8349,30.0469 436.1786,30.0469 Q436.8036,30.0469 437.3974,29.7813 Q437.9911,29.5 438.6161,28.9219 L438.6161,31.6406 Z " fill="#000000"/><text fill="#000000" font-family="Verdana" font-size="14" font-weight="bold" lengthAdjust="spacing" textLength="78.9961" x="453.1474" y="30.8467">Rectangle</text><line style="stroke:#000000;stroke-width:1;" x1="358.58" x2="599.2109" y1="40" y2="40"/><text fill="#000000" font-family="Verdana" font-size="14" lengthAdjust="spacing" textLength="107.2012" x="363.58" y="56.9951">#width: double</text><text fill="#000000" font-family="Verdana" font-size="14" lengthAdjust="spacing" textLength="113.2373" x="363.58" y="73.292">#height: double</text><line style="stroke:#000000;stroke-width:1;" x1="358.58" x2="599.2109" y1="80.5938" y2="80.5938"/><text fill="#000000" font-family="Verdana" font-size="14" lengthAdjust="spacing" textLength="219.2969" x="363.58" y="97.5889">+setWidth(width: double): void</text><text fill="#000000" font-family="Verdana" font-size="14" lengthAdjust="spacing" textLength="230.6309" x="363.58" y="113.8857">+setHeight(height: double): void</text><text fill="#000000" font-family="Verdana" font-size="14" lengthAdjust="spacing" textLength="135.0508" x="363.58" y="130.1826">+getArea(): double</text></g><!--class Square--><g class="entity" data-entity="Square" data-source-line="34" data-uid="ent0006" id="entity_Square"><rect fill="#FFFFFF" height="76.5938" rx="2.5" ry="2.5" style="stroke:#000000;stroke-width:1;" width="242.6309" x="357.58" y="197.49"/><ellipse cx="447.1864" cy="211.49" fill="#FFFFFF" rx="9" ry="9" style="stroke:#000000;stroke-width:1;"/><path d="M450.1552,217.1306 Q449.5771,217.4275 448.9364,217.5681 Q448.2958,217.7244 447.5927,217.7244 Q445.0927,217.7244 443.7646,216.0837 Q442.4521,214.4275 442.4521,211.3025 Q442.4521,208.1775 443.7646,206.5212 Q445.0927,204.865 447.5927,204.865 Q448.2958,204.865 448.9364,205.0212 Q449.5927,205.1775 450.1552,205.4744 L450.1552,208.1931 Q449.5302,207.615 448.9364,207.3494 Q448.3427,207.0681 447.7177,207.0681 Q446.3739,207.0681 445.6864,208.1462 Q444.9989,209.2087 444.9989,211.3025 Q444.9989,213.3962 445.6864,214.4744 Q446.3739,215.5369 447.7177,215.5369 Q448.3427,215.5369 448.9364,215.2712 Q449.5302,214.99 450.1552,214.4119 L450.1552,217.1306 Z " fill="#000000"/><text fill="#000000" font-family="Verdana" font-size="14" font-weight="bold" lengthAdjust="spacing" textLength="55.918" x="464.6864" y="216.3367">Square</text><line style="stroke:#000000;stroke-width:1;" x1="358.58" x2="599.2109" y1="225.49" y2="225.49"/><line style="stroke:#000000;stroke-width:1;" x1="358.58" x2="599.2109" y1="233.49" y2="233.49"/><text fill="#000000" font-family="Verdana" font-size="14" lengthAdjust="spacing" textLength="219.2969" x="363.58" y="250.4851">+setWidth(width: double): void</text><text fill="#000000" font-family="Verdana" font-size="14" lengthAdjust="spacing" textLength="230.6309" x="363.58" y="266.782">+setHeight(height: double): void</text></g><!--class Engine--><g class="entity" data-entity="Engine" data-source-line="43" data-uid="ent0008" id="entity_Engine"><rect fill="#FFFFFF" height="76.5938" rx="2.5" ry="2.5" style="stroke:#000000;stroke-width:1;" width="106.0557" x="816.87" y="36.45"/><ellipse cx="840.7794" cy="50.45" fill="#FFFFFF" rx="9" ry="9" style="stroke:#000000;stroke-width:1;"/><path d="M843.7482,56.0906 Q843.17,56.3875 842.5294,56.5281 Q841.8888,56.6844 841.1857,56.6844 Q838.6857,56.6844 837.3575,55.0437 Q836.045,53.3875 836.045,50.2625 Q836.045,47.1375 837.3575,45.4812 Q838.6857,43.825 841.1857,43.825 Q841.8888,43.825 842.5294,43.9812 Q843.1857,44.1375 843.7482,44.4344 L843.7482,47.1531 Q843.1232,46.575 842.5294,46.3094 Q841.9357,46.0281 841.3107,46.0281 Q839.9669,46.0281 839.2794,47.1062 Q838.5919,48.1687 838.5919,50.2625 Q838.5919,52.3562 839.2794,53.4344 Q839.9669,54.4969 841.3107,54.4969 Q841.9357,54.4969 842.5294,54.2312 Q843.1232,53.95 843.7482,53.3719 L843.7482,56.0906 Z " fill="#000000"/><text fill="#000000" font-family="Verdana" font-size="14" font-weight="bold" lengthAdjust="spacing" textLength="53.8125" x="855.2037" y="55.2967">Engine</text><line style="stroke:#000000;stroke-width:1;" x1="817.87" x2="921.9257" y1="64.45" y2="64.45"/><line style="stroke:#000000;stroke-width:1;" x1="817.87" x2="921.9257" y1="72.45" y2="72.45"/><text fill="#000000" font-family="Verdana" font-size="14" lengthAdjust="spacing" textLength="94.0557" x="822.87" y="89.4451">+start(): void</text><text fill="#000000" font-family="Verdana" font-size="14" lengthAdjust="spacing" textLength="91.6836" x="822.87" y="105.742">+stop(): void</text></g><!--class Car--><g class="entity" data-entity="Car" data-source-line="49" data-uid="ent0009" id="entity_Car"><rect fill="#FFFFFF" height="76.5938" rx="2.5" ry="2.5" style="stroke:#000000;stroke-width:1;" width="108.9814" x="815.41" y="197.49"/><ellipse cx="852.87" cy="211.49" fill="#FFFFFF" rx="9" ry="9" style="stroke:#000000;stroke-width:1;"/><path d="M855.8387,217.1306 Q855.2606,217.4275 854.62,217.5681 Q853.9793,217.7244 853.2762,217.7244 Q850.7762,217.7244 849.4481,216.0837 Q848.1356,214.4275 848.1356,211.3025 Q848.1356,208.1775 849.4481,206.5212 Q850.7762,204.865 853.2762,204.865 Q853.9793,204.865 854.62,205.0212 Q855.2762,205.1775 855.8387,205.4744 L855.8387,208.1931 Q855.2137,207.615 854.62,207.3494 Q854.0262,207.0681 853.4012,207.0681 Q852.0575,207.0681 851.37,208.1462 Q850.6825,209.2087 850.6825,211.3025 Q850.6825,213.3962 851.37,214.4744 Q852.0575,215.5369 853.4012,215.5369 Q854.0262,215.5369 854.62,215.2712 Q855.2137,214.99 855.8387,214.4119 L855.8387,217.1306 Z " fill="#000000"/><text fill="#000000" font-family="Verdana" font-size="14" font-weight="bold" lengthAdjust="spacing" textLength="26.626" x="870.3055" y="216.3367">Car</text><line style="stroke:#000000;stroke-width:1;" x1="816.41" x2="923.3914" y1="225.49" y2="225.49"/><text fill="#000000" font-family="Verdana" font-size="14" lengthAdjust="spacing" textLength="96.9814" x="821.41" y="242.4851">-brand: String</text><line style="stroke:#000000;stroke-width:1;" x1="816.41" x2="923.3914" y1="249.7869" y2="249.7869"/><text fill="#000000" font-family="Verdana" font-size="14" lengthAdjust="spacing" textLength="96.8789" x="821.41" y="266.782">+drive(): void</text></g><g class="entity" data-entity="GMN11" data-source-line="58" data-uid="ent0012" id="entity_GMN11"><path d="M157.41,208.08 L157.41,231.78 L123.01,235.78 L157.41,239.78 L157.41,263.4784 A0,0 0 0 0 157.41,263.4784 L322.3875,263.4784 A0,0 0 0 0 322.3875,263.4784 L322.3875,218.08 L312.3875,208.08 L157.41,208.08 A0,0 0 0 0 157.41,208.08" fill="#FFFFFF" style="stroke:#000000;stroke-width:1;"/><path d="M312.3875,208.08 L312.3875,218.08 L322.3875,218.08 L312.3875,208.08" fill="#FFFFFF" style="stroke:#000000;stroke-width:1;"/><text fill="#000000" font-family="Verdana" font-size="13" lengthAdjust="spacing" textLength="128.832" x="163.41" y="225.1469">Un Stack N'EST PAS</text><text fill="#000000" font-family="Verdana" font-size="13" lengthAdjust="spacing" textLength="78.5776" x="163.41" y="240.2797">un ArrayList</text><text fill="#000000" font-family="Verdana" font-size="13" lengthAdjust="spacing" textLength="143.9775" x="163.41" y="255.4125">&#8594; Utiliser composition</text></g><g class="entity" data-entity="GMN14" data-source-line="64" data-uid="ent0015" id="entity_GMN14"><path d="M635.37,208.08 L635.37,231.78 L600.56,235.78 L635.37,239.78 L635.37,263.4784 A0,0 0 0 0 635.37,263.4784 L780.4349,263.4784 A0,0 0 0 0 780.4349,263.4784 L780.4349,218.08 L770.4349,208.08 L635.37,208.08 A0,0 0 0 0 635.37,208.08" fill="#FFFFFF" style="stroke:#000000;stroke-width:1;"/><path d="M770.4349,208.08 L770.4349,218.08 L780.4349,218.08 L770.4349,208.08" fill="#FFFFFF" style="stroke:#000000;stroke-width:1;"/><text fill="#000000" font-family="Verdana" font-size="13" lengthAdjust="spacing" textLength="104.3999" x="641.37" y="225.1469">Viole le principe</text><text fill="#000000" font-family="Verdana" font-size="13" lengthAdjust="spacing" textLength="97.3667" x="641.37" y="240.2797">de substitution</text><text fill="#000000" font-family="Verdana" font-size="13" lengthAdjust="spacing" textLength="124.0649" x="641.37" y="255.4125">&#8594; Mod&#232;les s&#233;par&#233;s</text></g><g class="entity" data-entity="GMN17" data-source-line="70" data-uid="ent0018" id="entity_GMN17"><path d="M959.22,208.08 L959.22,231.78 L924.56,235.78 L959.22,239.78 L959.22,263.4784 A0,0 0 0 0 959.22,263.4784 L1132.5764,263.4784 A0,0 0 0 0 1132.5764,263.4784 L1132.5764,218.08 L1122.5764,208.08 L959.22,208.08 A0,0 0 0 0 959.22,208.08" fill="#FFFFFF" style="stroke:#000000;stroke-width:1;"/><path d="M1122.5764,208.08 L1122.5764,218.08 L1132.5764,218.08 L1122.5764,208.08" fill="#FFFFFF" style="stroke:#000000;stroke-width:1;"/><text fill="#000000" font-family="Verdana" font-size="13" lengthAdjust="spacing" textLength="123.2271" x="965.22" y="225.1469">Une Car N'EST PAS</text><text fill="#000000" font-family="Verdana" font-size="13" lengthAdjust="spacing" textLength="152.3564" x="965.22" y="240.2797">un Engine, elle EN A un</text><text fill="#000000" font-family="Verdana" font-size="13" lengthAdjust="spacing" textLength="143.9775" x="965.22" y="255.4125">&#8594; Utiliser composition</text></g><!--reverse link ArrayList to Stack--><g class="link" data-entity-1="ArrayList" data-entity-2="Stack" data-source-line="22" data-uid="lnk4" id="link_ArrayList_Stack"><path codeLine="22" d="M68.9,155.69 C68.9,175.75 68.9,179.38 68.9,197.12" fill="none" id="ArrayList-backto-Stack" style="stroke:#000000;stroke-width:1;"/><polygon fill="none" points="68.9,137.69,62.9,155.69,74.9,155.69,68.9,137.69" style="stroke:#000000;stroke-width:1;"/></g><!--reverse link Rectangle to Square--><g class="link" data-entity-1="Rectangle" data-entity-2="Square" data-source-line="40" data-uid="lnk7" id="link_Rectangle_Square"><path codeLine="40" d="M478.9,155.69 C478.9,175.75 478.9,179.38 478.9,197.12" fill="none" id="Rectangle-backto-Square" style="stroke:#000000;stroke-width:1;"/><polygon fill="none" points="478.9,137.69,472.9,155.69,484.9,155.69,478.9,137.69" style="stroke:#000000;stroke-width:1;"/></g><!--reverse link Engine to Car--><g class="link" data-entity-1="Engine" data-entity-2="Car" data-source-line="55" data-uid="lnk10" id="link_Engine_Car"><path codeLine="55" d="M869.9,131.43 C869.9,156.69 869.9,171.83 869.9,197.09" fill="none" id="Engine-backto-Car" style="stroke:#000000;stroke-width:1;"/><polygon fill="none" points="869.9,113.43,863.9,131.43,875.9,131.43,869.9,113.43" style="stroke:#000000;stroke-width:1;"/></g><!--SRC=[hLDDZjCm5Dxx50-nc2Ac4Z-xQZOHAW89HeWmi7RiH_8qgMtibu5Is780Ja7FqPjmah7Zq2GT8R50gYAz9t-_TkznWni4rqeoGeHhCavwkG7LoX0APazLn_XIMLFILuH7fqUUMyCbRrk4ohPQY3DOVy6DY_DZM479Kbr3SzXxOWIDK7WljwyeiEZHummx0R2444LMG8RxIKad5V7sk5d6pqEGMYyUhE36akvdrQBqiqsDdEocNK9-5uDSzhCRgLmNcXdIMNUS8spqT_5jkSpuQSWdAUIdJdgSfdoBYgMfMnnaZtClVHy-a-Pc1TfsLJoJDWrItV1aDVWBo1_IuSKCCZKSJxpemOivnqaTXKUPWWq2OoFP_Ev_IaRoCN7khLUP5lSq5lTC-cbhQrEJ-LDP7cQ-M7gUtLNW-MLbP6BDZwdoqkZq23sPUYJIdcvmYXkqUgSHBOInqP5FqS1-72uTuCeCx-VoR5s-WpT56PUTcRnfWDy_Vi8LKqi1FIYxSJOGapK2ZOP4UuSyDmFmdcoi9VvSTAl8fLqi9NHLOEAk9ydyhwq-_6enG3Ziup_ni0z_PKzfad7iMpdndMEV0xPHTNq9HLp-MmHn2m00]--></g></svg>