<svg xmlns="http://www.w3.org/2000/svg" xmlns:xlink="http://www.w3.org/1999/xlink" contentStyleType="text/css" data-diagram-type="CLASS" height="492px" preserveAspectRatio="none" style="width:1250px;height:492px;background:#FFFFFF;" version="1.1" viewBox="0 0 1250 492" width="1250px" zoomAndPan="magnify"><defs/><g><!--class Shape--><g class="entity" data-entity="Shape" data-source-line="3" data-uid="ent0002" id="entity_Shape"><rect fill="#FFFFFF" height="141.7813" rx="2.5" ry="2.5" style="stroke:#000000;stroke-width:1;" width="225.8721" x="473.81" y="141.53"/><ellipse cx="561.0766" cy="155.53" fill="#FFFFFF" rx="9" ry="9" style="stroke:#000000;stroke-width:1;"/><path d="M561.186,150.8737 L560.0297,155.9519 L562.3579,155.9519 L561.186,150.8737 Z M559.7016,148.6394 L562.686,148.6394 L566.0454,161.03 L563.5922,161.03 L562.8266,157.9675 L559.5454,157.9675 L558.7954,161.03 L556.3579,161.03 L559.7016,148.6394 Z " fill="#000000"/><text fill="#000000" font-family="Verdana" font-size="14" font-style="italic" lengthAdjust="spacing" textLength="43.8389" x="578.5766" y="160.3767">Shape</text><line style="stroke:#000000;stroke-width:1;" x1="474.81" x2="698.6821" y1="169.53" y2="169.53"/><polygon fill="none" points="484.81,178.1784,488.81,182.1784,484.81,186.1784,480.81,182.1784" style="stroke:#000000;stroke-width:1;"/><text fill="#000000" font-family="Verdana" font-size="14" lengthAdjust="spacing" textLength="85.4219" x="491.81" y="186.5251">color: String</text><line style="stroke:#000000;stroke-width:1;" x1="474.81" x2="698.6821" y1="193.8269" y2="193.8269"/><ellipse cx="484.81" cy="207.4753" fill="#FFFFFF" rx="3" ry="3" style="stroke:#000000;stroke-width:1;"/><text fill="#000000" font-family="Verdana" font-size="14" lengthAdjust="spacing" textLength="140.1846" x="491.81" y="210.822">Shape(color: String)</text><ellipse cx="484.81" cy="223.7722" fill="#FFFFFF" rx="3" ry="3" style="stroke:#000000;stroke-width:1;"/><text fill="#000000" font-family="Verdana" font-size="14" font-style="italic" lengthAdjust="spacing" textLength="163.6387" x="491.81" y="227.1189">calculateArea(): double</text><ellipse cx="484.81" cy="240.0691" fill="#FFFFFF" rx="3" ry="3" style="stroke:#000000;stroke-width:1;"/><text fill="#000000" font-family="Verdana" font-size="14" font-style="italic" lengthAdjust="spacing" textLength="199.9238" x="491.81" y="243.4157">calculatePerimeter(): double</text><ellipse cx="484.81" cy="256.3659" fill="#FFFFFF" rx="3" ry="3" style="stroke:#000000;stroke-width:1;"/><text fill="#000000" font-family="Verdana" font-size="14" lengthAdjust="spacing" textLength="125.9248" x="491.81" y="259.7126">displayInfo(): void</text><ellipse cx="484.81" cy="272.6628" fill="#FFFFFF" rx="3" ry="3" style="stroke:#000000;stroke-width:1;"/><text fill="#000000" font-family="Verdana" font-size="14" lengthAdjust="spacing" textLength="201.8721" x="491.81" y="276.0095">paint(newColor: String): void</text></g><!--class Rectangle--><g class="entity" data-entity="Rectangle" data-source-line="13" data-uid="ent0003" id="entity_Rectangle"><rect fill="#FFFFFF" height="125.4844" rx="2.5" ry="2.5" style="stroke:#000000;stroke-width:1;" width="405.4932" x="12" y="351.46"/><ellipse cx="175.812" cy="365.46" fill="#FFFFFF" rx="9" ry="9" style="stroke:#000000;stroke-width:1;"/><path d="M178.7808,371.1006 Q178.2026,371.3975 177.562,371.5381 Q176.9214,371.6944 176.2183,371.6944 Q173.7183,371.6944 172.3901,370.0538 Q171.0776,368.3975 171.0776,365.2725 Q171.0776,362.1475 172.3901,360.4913 Q173.7183,358.835 176.2183,358.835 Q176.9214,358.835 177.562,358.9913 Q178.2183,359.1475 178.7808,359.4444 L178.7808,362.1631 Q178.1558,361.585 177.562,361.3194 Q176.9683,361.0381 176.3433,361.0381 Q174.9995,361.0381 174.312,362.1163 Q173.6245,363.1788 173.6245,365.2725 Q173.6245,367.3663 174.312,368.4444 Q174.9995,369.5069 176.3433,369.5069 Q176.9683,369.5069 177.562,369.2413 Q178.1558,368.96 178.7808,368.3819 L178.7808,371.1006 Z " fill="#000000"/><text fill="#000000" font-family="Verdana" font-size="14" lengthAdjust="spacing" textLength="70.3691" x="193.312" y="370.3067">Rectangle</text><line style="stroke:#000000;stroke-width:1;" x1="13" x2="416.4932" y1="379.46" y2="379.46"/><rect fill="none" height="6" style="stroke:#000000;stroke-width:1;" width="6" x="20" y="390.1084"/><text fill="#000000" font-family="Verdana" font-size="14" lengthAdjust="spacing" textLength="95.4707" x="30" y="396.4551">width: double</text><rect fill="none" height="6" style="stroke:#000000;stroke-width:1;" width="6" x="20" y="406.4053"/><text fill="#000000" font-family="Verdana" font-size="14" lengthAdjust="spacing" textLength="101.5068" x="30" y="412.752">height: double</text><line style="stroke:#000000;stroke-width:1;" x1="13" x2="416.4932" y1="420.0538" y2="420.0538"/><ellipse cx="23" cy="433.7022" fill="#FFFFFF" rx="3" ry="3" style="stroke:#000000;stroke-width:1;"/><text fill="#000000" font-family="Verdana" font-size="14" lengthAdjust="spacing" textLength="381.4932" x="30" y="437.0489">Rectangle(color: String, width: double, height: double)</text><ellipse cx="23" cy="449.9991" fill="#FFFFFF" rx="3" ry="3" style="stroke:#000000;stroke-width:1;"/><text fill="#000000" font-family="Verdana" font-size="14" lengthAdjust="spacing" textLength="163.6387" x="30" y="453.3457">calculateArea(): double</text><ellipse cx="23" cy="466.2959" fill="#FFFFFF" rx="3" ry="3" style="stroke:#000000;stroke-width:1;"/><text fill="#000000" font-family="Verdana" font-size="14" lengthAdjust="spacing" textLength="199.9238" x="30" y="469.6426">calculatePerimeter(): double</text></g><!--class Circle--><g class="entity" data-entity="Circle" data-source-line="22" data-uid="ent0004" id="entity_Circle"><rect fill="#FFFFFF" height="109.1875" rx="2.5" ry="2.5" style="stroke:#000000;stroke-width:1;" width="269.0273" x="452.23" y="359.61"/><ellipse cx="563.1831" cy="373.61" fill="#FFFFFF" rx="9" ry="9" style="stroke:#000000;stroke-width:1;"/><path d="M566.1519,379.2506 Q565.5738,379.5475 564.9331,379.6881 Q564.2925,379.8444 563.5894,379.8444 Q561.0894,379.8444 559.7613,378.2037 Q558.4488,376.5475 558.4488,373.4225 Q558.4488,370.2975 559.7613,368.6412 Q561.0894,366.985 563.5894,366.985 Q564.2925,366.985 564.9331,367.1412 Q565.5894,367.2975 566.1519,367.5944 L566.1519,370.3131 Q565.5269,369.735 564.9331,369.4694 Q564.3394,369.1881 563.7144,369.1881 Q562.3706,369.1881 561.6831,370.2662 Q560.9956,371.3287 560.9956,373.4225 Q560.9956,375.5162 561.6831,376.5944 Q562.3706,377.6569 563.7144,377.6569 Q564.3394,377.6569 564.9331,377.3912 Q565.5269,377.11 566.1519,376.5319 L566.1519,379.2506 Z " fill="#000000"/><text fill="#000000" font-family="Verdana" font-size="14" lengthAdjust="spacing" textLength="39.6211" x="580.6831" y="378.4567">Circle</text><line style="stroke:#000000;stroke-width:1;" x1="453.23" x2="720.2573" y1="387.61" y2="387.61"/><rect fill="none" height="6" style="stroke:#000000;stroke-width:1;" width="6" x="460.23" y="398.2584"/><text fill="#000000" font-family="Verdana" font-size="14" lengthAdjust="spacing" textLength="100.1602" x="470.23" y="404.6051">radius: double</text><line style="stroke:#000000;stroke-width:1;" x1="453.23" x2="720.2573" y1="411.9069" y2="411.9069"/><ellipse cx="463.23" cy="425.5553" fill="#FFFFFF" rx="3" ry="3" style="stroke:#000000;stroke-width:1;"/><text fill="#000000" font-family="Verdana" font-size="14" lengthAdjust="spacing" textLength="245.0273" x="470.23" y="428.902">Circle(color: String, radius: double)</text><ellipse cx="463.23" cy="441.8522" fill="#FFFFFF" rx="3" ry="3" style="stroke:#000000;stroke-width:1;"/><text fill="#000000" font-family="Verdana" font-size="14" lengthAdjust="spacing" textLength="163.6387" x="470.23" y="445.1989">calculateArea(): double</text><ellipse cx="463.23" cy="458.1491" fill="#FFFFFF" rx="3" ry="3" style="stroke:#000000;stroke-width:1;"/><text fill="#000000" font-family="Verdana" font-size="14" lengthAdjust="spacing" textLength="199.9238" x="470.23" y="461.4957">calculatePerimeter(): double</text></g><!--class Triangle--><g class="entity" data-entity="Triangle" data-source-line="30" data-uid="ent0005" id="entity_Triangle"><rect fill="#FFFFFF" height="141.7813" rx="2.5" ry="2.5" style="stroke:#000000;stroke-width:1;" width="487.5039" x="755.99" y="343.31"/><ellipse cx="967.4724" cy="357.31" fill="#FFFFFF" rx="9" ry="9" style="stroke:#000000;stroke-width:1;"/><path d="M970.4412,362.9506 Q969.863,363.2475 969.2224,363.3881 Q968.5818,363.5444 967.8787,363.5444 Q965.3787,363.5444 964.0505,361.9038 Q962.738,360.2475 962.738,357.1225 Q962.738,353.9975 964.0505,352.3413 Q965.3787,350.685 967.8787,350.685 Q968.5818,350.685 969.2224,350.8413 Q969.8787,350.9975 970.4412,351.2944 L970.4412,354.0131 Q969.8162,353.435 969.2224,353.1694 Q968.6287,352.8881 968.0037,352.8881 Q966.6599,352.8881 965.9724,353.9663 Q965.2849,355.0288 965.2849,357.1225 Q965.2849,359.2163 965.9724,360.2944 Q966.6599,361.3569 968.0037,361.3569 Q968.6287,361.3569 969.2224,361.0913 Q969.8162,360.81 970.4412,360.2319 L970.4412,362.9506 Z " fill="#000000"/><text fill="#000000" font-family="Verdana" font-size="14" lengthAdjust="spacing" textLength="57.0391" x="984.9724" y="362.1567">Triangle</text><line style="stroke:#000000;stroke-width:1;" x1="756.99" x2="1242.4939" y1="371.31" y2="371.31"/><rect fill="none" height="6" style="stroke:#000000;stroke-width:1;" width="6" x="763.99" y="381.9584"/><text fill="#000000" font-family="Verdana" font-size="14" lengthAdjust="spacing" textLength="94.4727" x="773.99" y="388.3051">side1: double</text><rect fill="none" height="6" style="stroke:#000000;stroke-width:1;" width="6" x="763.99" y="398.2553"/><text fill="#000000" font-family="Verdana" font-size="14" lengthAdjust="spacing" textLength="94.4727" x="773.99" y="404.602">side2: double</text><rect fill="none" height="6" style="stroke:#000000;stroke-width:1;" width="6" x="763.99" y="414.5522"/><text fill="#000000" font-family="Verdana" font-size="14" lengthAdjust="spacing" textLength="94.4727" x="773.99" y="420.8989">side3: double</text><line style="stroke:#000000;stroke-width:1;" x1="756.99" x2="1242.4939" y1="428.2006" y2="428.2006"/><ellipse cx="766.99" cy="441.8491" fill="#FFFFFF" rx="3" ry="3" style="stroke:#000000;stroke-width:1;"/><text fill="#000000" font-family="Verdana" font-size="14" lengthAdjust="spacing" textLength="463.5039" x="773.99" y="445.1957">Triangle(color: String, side1: double, side2: double, side3: double)</text><ellipse cx="766.99" cy="458.1459" fill="#FFFFFF" rx="3" ry="3" style="stroke:#000000;stroke-width:1;"/><text fill="#000000" font-family="Verdana" font-size="14" lengthAdjust="spacing" textLength="163.6387" x="773.99" y="461.4926">calculateArea(): double</text><ellipse cx="766.99" cy="474.4428" fill="#FFFFFF" rx="3" ry="3" style="stroke:#000000;stroke-width:1;"/><text fill="#000000" font-family="Verdana" font-size="14" lengthAdjust="spacing" textLength="199.9238" x="773.99" y="477.7895">calculatePerimeter(): double</text></g><g class="entity" data-entity="GMN9" data-source-line="45" data-uid="ent0010" id="entity_GMN9"><path d="M486.55,11 L486.55,81.5313 A0,0 0 0 0 486.55,81.5313 L582.75,81.5313 L586.75,141.2 L590.75,81.5313 L686.9411,81.5313 A0,0 0 0 0 686.9411,81.5313 L686.9411,21 L676.9411,11 L486.55,11 A0,0 0 0 0 486.55,11" fill="#FFFFFF" style="stroke:#000000;stroke-width:1;"/><path d="M676.9411,11 L676.9411,21 L686.9411,21 L676.9411,11" fill="#FFFFFF" style="stroke:#000000;stroke-width:1;"/><text fill="#000000" font-family="Verdana" font-size="13" lengthAdjust="spacing" textLength="112.9502" x="492.55" y="28.0669">Classe abstraite :</text><text fill="#000000" font-family="Verdana" font-size="13" lengthAdjust="spacing" textLength="118.6885" x="492.55" y="43.1997">- D&#233;finit le contrat</text><text fill="#000000" font-family="Verdana" font-size="13" lengthAdjust="spacing" textLength="141.3623" x="492.55" y="58.3325">- M&#233;thodes abstraites</text><text fill="#000000" font-family="Verdana" font-size="13" lengthAdjust="spacing" textLength="179.3911" x="492.55" y="73.4653">- Code commun r&#233;utilisable</text></g><!--reverse link Shape to Rectangle--><g class="link" data-entity-1="Shape" data-entity-2="Rectangle" data-source-line="40" data-uid="lnk6" id="link_Shape_Rectangle"><path codeLine="40" d="M457.5116,282.8254 C412.2016,307.1554 375.93,326.64 330.4,351.09" fill="none" id="Shape-backto-Rectangle" style="stroke:#000000;stroke-width:1;"/><polygon fill="none" points="473.37,274.31,454.6732,277.5393,460.3501,288.1115,473.37,274.31" style="stroke:#000000;stroke-width:1;"/></g><!--reverse link Shape to Circle--><g class="link" data-entity-1="Shape" data-entity-2="Circle" data-source-line="41" data-uid="lnk7" id="link_Shape_Circle"><path codeLine="41" d="M586.75,301.57 C586.75,326.42 586.75,335.97 586.75,359.26" fill="none" id="Shape-backto-Circle" style="stroke:#000000;stroke-width:1;"/><polygon fill="none" points="586.75,283.57,580.75,301.57,592.75,301.57,586.75,283.57" style="stroke:#000000;stroke-width:1;"/></g><!--reverse link Shape to Triangle--><g class="link" data-entity-1="Shape" data-entity-2="Triangle" data-source-line="42" data-uid="lnk8" id="link_Shape_Triangle"><path codeLine="42" d="M716.3531,276.1097 C763.9931,299.1597 803.79,318.41 854.4,342.89" fill="none" id="Shape-backto-Triangle" style="stroke:#000000;stroke-width:1;"/><polygon fill="none" points="700.15,268.27,713.7399,281.5107,718.9663,270.7086,700.15,268.27" style="stroke:#000000;stroke-width:1;"/></g><!--SRC=[hLD1JiCm4Bpx5Okuj28v0BUA2meN3aY8yW7NsJOhENPaRwXGwOFwZduC9wPjd8fUu9B3xEnuPknSSOKrGgCb6I7amhEJYa5fwJtCAzaWR0J0DIYhhPl1d1sPLK3oF7nk8cMI3AVzO7FGseAIMhLQCZuwb9Ff34hRBZJ-Idj5HpKokX6t91zyVZwRfUqc7vRA7c-2TvuON1U9ZH_6LeYOvWqLIxFICL4EQogv6XoGGuMqgdW8nP37pJHebafae_tOmwNm5nCVVHVarD6qaoMr_jnY98tzfUp_ClJkQDYZfn9lanuxvEuCkJztVL0Q-quairGlIyN-7Yg-yeUlF3zTz12CrGwHWsqXZ6K4jWtOPVmLmeb5Ln92VDWKvhE-WgVzRac6649nofemunv_sU-uiYNwquRl1qK00xEkMmDklskPD7dPcKPJGdUo-0O0]--></g></svg>