<svg xmlns="http://www.w3.org/2000/svg" xmlns:xlink="http://www.w3.org/1999/xlink" contentStyleType="text/css" data-diagram-type="CLASS" height="297px" preserveAspectRatio="none" style="width:1372px;height:297px;background:#FFFFFF;" version="1.1" viewBox="0 0 1372 297" width="1372px" zoomAndPan="magnify"><defs/><g><!--class Animal--><g class="entity" data-entity="Animal" data-source-line="3" data-uid="ent0002" id="entity_Animal"><rect fill="#FFFFFF" height="125.4844" rx="2.5" ry="2.5" style="stroke:#000000;stroke-width:1;" width="174.0215" x="600.36" y="12"/><ellipse cx="659.3976" cy="26" fill="#FFFFFF" rx="9" ry="9" style="stroke:#000000;stroke-width:1;"/><path d="M662.3663,31.6406 Q661.7882,31.9375 661.1476,32.0781 Q660.507,32.2344 659.8038,32.2344 Q657.3038,32.2344 655.9757,30.5938 Q654.6632,28.9375 654.6632,25.8125 Q654.6632,22.6875 655.9757,21.0313 Q657.3038,19.375 659.8038,19.375 Q660.507,19.375 661.1476,19.5313 Q661.8038,19.6875 662.3663,19.9844 L662.3663,22.7031 Q661.7413,22.125 661.1476,21.8594 Q660.5538,21.5781 659.9288,21.5781 Q658.5851,21.5781 657.8976,22.6563 Q657.2101,23.7188 657.2101,25.8125 Q657.2101,27.9063 657.8976,28.9844 Q658.5851,30.0469 659.9288,30.0469 Q660.5538,30.0469 661.1476,29.7813 Q661.7413,29.5 662.3663,28.9219 L662.3663,31.6406 Z " fill="#000000"/><text fill="#000000" font-family="Verdana" font-size="14" lengthAdjust="spacing" textLength="48.4463" x="676.8976" y="30.8467">Animal</text><line style="stroke:#000000;stroke-width:1;" x1="601.36" x2="773.3815" y1="40" y2="40"/><polygon fill="none" points="611.36,48.6484,615.36,52.6484,611.36,56.6484,607.36,52.6484" style="stroke:#000000;stroke-width:1;"/><text fill="#000000" font-family="Verdana" font-size="14" lengthAdjust="spacing" textLength="90.6514" x="618.36" y="56.9951">name: String</text><line style="stroke:#000000;stroke-width:1;" x1="601.36" x2="773.3815" y1="64.2969" y2="64.2969"/><ellipse cx="611.36" cy="77.9453" fill="#FFFFFF" rx="3" ry="3" style="stroke:#000000;stroke-width:1;"/><text fill="#000000" font-family="Verdana" font-size="14" lengthAdjust="spacing" textLength="150.0215" x="618.36" y="81.292">Animal(name: String)</text><ellipse cx="611.36" cy="94.2422" fill="#FFFFFF" rx="3" ry="3" style="stroke:#000000;stroke-width:1;"/><text fill="#000000" font-family="Verdana" font-size="14" lengthAdjust="spacing" textLength="132.7402" x="618.36" y="97.5889">makeSound(): void</text><ellipse cx="611.36" cy="110.5391" fill="#FFFFFF" rx="3" ry="3" style="stroke:#000000;stroke-width:1;"/><text fill="#000000" font-family="Verdana" font-size="14" lengthAdjust="spacing" textLength="87.0146" x="618.36" y="113.8857">sleep(): void</text><ellipse cx="611.36" cy="126.8359" fill="#FFFFFF" rx="3" ry="3" style="stroke:#000000;stroke-width:1;"/><text fill="#000000" font-family="Verdana" font-size="14" lengthAdjust="spacing" textLength="116.3613" x="618.36" y="130.1826">introduce(): void</text></g><!--class Dog--><g class="entity" data-entity="Dog" data-source-line="12" data-uid="ent0003" id="entity_Dog"><rect fill="#FFFFFF" height="92.8906" rx="2.5" ry="2.5" style="stroke:#000000;stroke-width:1;" width="156.7402" x="12" y="197.49"/><ellipse cx="72.5039" cy="211.49" fill="#FFFFFF" rx="9" ry="9" style="stroke:#000000;stroke-width:1;"/><path d="M75.4727,217.1306 Q74.8945,217.4275 74.2539,217.5681 Q73.6133,217.7244 72.9102,217.7244 Q70.4102,217.7244 69.082,216.0838 Q67.7695,214.4275 67.7695,211.3025 Q67.7695,208.1775 69.082,206.5213 Q70.4102,204.865 72.9102,204.865 Q73.6133,204.865 74.2539,205.0213 Q74.9102,205.1775 75.4727,205.4744 L75.4727,208.1931 Q74.8477,207.615 74.2539,207.3494 Q73.6602,207.0681 73.0352,207.0681 Q71.6914,207.0681 71.0039,208.1463 Q70.3164,209.2088 70.3164,211.3025 Q70.3164,213.3963 71.0039,214.4744 Q71.6914,215.5369 73.0352,215.5369 Q73.6602,215.5369 74.2539,215.2713 Q74.8477,214.99 75.4727,214.4119 L75.4727,217.1306 Z " fill="#000000"/><text fill="#000000" font-family="Verdana" font-size="14" lengthAdjust="spacing" textLength="28.2324" x="90.0039" y="216.3367">Dog</text><line style="stroke:#000000;stroke-width:1;" x1="13" x2="167.7402" y1="225.49" y2="225.49"/><line style="stroke:#000000;stroke-width:1;" x1="13" x2="167.7402" y1="233.49" y2="233.49"/><ellipse cx="23" cy="247.1384" fill="#FFFFFF" rx="3" ry="3" style="stroke:#000000;stroke-width:1;"/><text fill="#000000" font-family="Verdana" font-size="14" lengthAdjust="spacing" textLength="129.8076" x="30" y="250.4851">Dog(name: String)</text><ellipse cx="23" cy="263.4353" fill="#FFFFFF" rx="3" ry="3" style="stroke:#000000;stroke-width:1;"/><text fill="#000000" font-family="Verdana" font-size="14" lengthAdjust="spacing" textLength="132.7402" x="30" y="266.782">makeSound(): void</text><ellipse cx="23" cy="279.7322" fill="#FFFFFF" rx="3" ry="3" style="stroke:#000000;stroke-width:1;"/><text fill="#000000" font-family="Verdana" font-size="14" lengthAdjust="spacing" textLength="85.3193" x="30" y="283.0789">fetch(): void</text></g><!--class Cat--><g class="entity" data-entity="Cat" data-source-line="19" data-uid="ent0004" id="entity_Cat"><rect fill="#FFFFFF" height="92.8906" rx="2.5" ry="2.5" style="stroke:#000000;stroke-width:1;" width="156.7402" x="410" y="197.49"/><ellipse cx="472.6982" cy="211.49" fill="#FFFFFF" rx="9" ry="9" style="stroke:#000000;stroke-width:1;"/><path d="M475.667,217.1306 Q475.0889,217.4275 474.4482,217.5681 Q473.8076,217.7244 473.1045,217.7244 Q470.6045,217.7244 469.2764,216.0838 Q467.9639,214.4275 467.9639,211.3025 Q467.9639,208.1775 469.2764,206.5213 Q470.6045,204.865 473.1045,204.865 Q473.8076,204.865 474.4482,205.0213 Q475.1045,205.1775 475.667,205.4744 L475.667,208.1931 Q475.042,207.615 474.4482,207.3494 Q473.8545,207.0681 473.2295,207.0681 Q471.8857,207.0681 471.1982,208.1463 Q470.5107,209.2088 470.5107,211.3025 Q470.5107,213.3963 471.1982,214.4744 Q471.8857,215.5369 473.2295,215.5369 Q473.8545,215.5369 474.4482,215.2713 Q475.042,214.99 475.667,214.4119 L475.667,217.1306 Z " fill="#000000"/><text fill="#000000" font-family="Verdana" font-size="14" lengthAdjust="spacing" textLength="23.8438" x="490.1982" y="216.3367">Cat</text><line style="stroke:#000000;stroke-width:1;" x1="411" x2="565.7402" y1="225.49" y2="225.49"/><line style="stroke:#000000;stroke-width:1;" x1="411" x2="565.7402" y1="233.49" y2="233.49"/><ellipse cx="421" cy="247.1384" fill="#FFFFFF" rx="3" ry="3" style="stroke:#000000;stroke-width:1;"/><text fill="#000000" font-family="Verdana" font-size="14" lengthAdjust="spacing" textLength="125.4189" x="428" y="250.4851">Cat(name: String)</text><ellipse cx="421" cy="263.4353" fill="#FFFFFF" rx="3" ry="3" style="stroke:#000000;stroke-width:1;"/><text fill="#000000" font-family="Verdana" font-size="14" lengthAdjust="spacing" textLength="132.7402" x="428" y="266.782">makeSound(): void</text><ellipse cx="421" cy="279.7322" fill="#FFFFFF" rx="3" ry="3" style="stroke:#000000;stroke-width:1;"/><text fill="#000000" font-family="Verdana" font-size="14" lengthAdjust="spacing" textLength="87.0146" x="428" y="283.0789">sleep(): void</text></g><!--class Bird--><g class="entity" data-entity="Bird" data-source-line="26" data-uid="ent0005" id="entity_Bird"><rect fill="#FFFFFF" height="92.8906" rx="2.5" ry="2.5" style="stroke:#000000;stroke-width:1;" width="156.7402" x="808" y="197.49"/><ellipse cx="868.5518" cy="211.49" fill="#FFFFFF" rx="9" ry="9" style="stroke:#000000;stroke-width:1;"/><path d="M871.5205,217.1306 Q870.9424,217.4275 870.3018,217.5681 Q869.6611,217.7244 868.958,217.7244 Q866.458,217.7244 865.1299,216.0838 Q863.8174,214.4275 863.8174,211.3025 Q863.8174,208.1775 865.1299,206.5213 Q866.458,204.865 868.958,204.865 Q869.6611,204.865 870.3018,205.0213 Q870.958,205.1775 871.5205,205.4744 L871.5205,208.1931 Q870.8955,207.615 870.3018,207.3494 Q869.708,207.0681 869.083,207.0681 Q867.7393,207.0681 867.0518,208.1463 Q866.3643,209.2088 866.3643,211.3025 Q866.3643,213.3963 867.0518,214.4744 Q867.7393,215.5369 869.083,215.5369 Q869.708,215.5369 870.3018,215.2713 Q870.8955,214.99 871.5205,214.4119 L871.5205,217.1306 Z " fill="#000000"/><text fill="#000000" font-family="Verdana" font-size="14" lengthAdjust="spacing" textLength="28.1367" x="886.0518" y="216.3367">Bird</text><line style="stroke:#000000;stroke-width:1;" x1="809" x2="963.7402" y1="225.49" y2="225.49"/><line style="stroke:#000000;stroke-width:1;" x1="809" x2="963.7402" y1="233.49" y2="233.49"/><ellipse cx="819" cy="247.1384" fill="#FFFFFF" rx="3" ry="3" style="stroke:#000000;stroke-width:1;"/><text fill="#000000" font-family="Verdana" font-size="14" lengthAdjust="spacing" textLength="129.7119" x="826" y="250.4851">Bird(name: String)</text><ellipse cx="819" cy="263.4353" fill="#FFFFFF" rx="3" ry="3" style="stroke:#000000;stroke-width:1;"/><text fill="#000000" font-family="Verdana" font-size="14" lengthAdjust="spacing" textLength="132.7402" x="826" y="266.782">makeSound(): void</text><ellipse cx="819" cy="279.7322" fill="#FFFFFF" rx="3" ry="3" style="stroke:#000000;stroke-width:1;"/><text fill="#000000" font-family="Verdana" font-size="14" lengthAdjust="spacing" textLength="116.3613" x="826" y="283.0789">introduce(): void</text></g><g class="entity" data-entity="GMN9" data-source-line="38" data-uid="ent0010" id="entity_GMN9"><path d="M203.98,223.8 L203.98,239.93 L168.88,243.93 L203.98,247.93 L203.98,264.0656 A0,0 0 0 0 203.98,264.0656 L374.7656,264.0656 A0,0 0 0 0 374.7656,264.0656 L374.7656,233.8 L364.7656,223.8 L203.98,223.8 A0,0 0 0 0 203.98,223.8" fill="#FFFFFF" style="stroke:#000000;stroke-width:1;"/><path d="M364.7656,223.8 L364.7656,233.8 L374.7656,233.8 L364.7656,223.8" fill="#FFFFFF" style="stroke:#000000;stroke-width:1;"/><text fill="#000000" font-family="Verdana" font-size="13" lengthAdjust="spacing" textLength="149.7856" x="209.98" y="240.8669">Red&#233;finit makeSound()</text><text fill="#000000" font-family="Verdana" font-size="13" lengthAdjust="spacing" textLength="88.7339" x="209.98" y="255.9997">H&#233;rite sleep()</text></g><g class="entity" data-entity="GMN12" data-source-line="43" data-uid="ent0013" id="entity_GMN12"><path d="M601.98,223.8 L601.98,239.93 L566.88,243.93 L601.98,247.93 L601.98,264.0656 A0,0 0 0 0 601.98,264.0656 L772.7656,264.0656 A0,0 0 0 0 772.7656,264.0656 L772.7656,233.8 L762.7656,223.8 L601.98,223.8 A0,0 0 0 0 601.98,223.8" fill="#FFFFFF" style="stroke:#000000;stroke-width:1;"/><path d="M762.7656,223.8 L762.7656,233.8 L772.7656,233.8 L762.7656,223.8" fill="#FFFFFF" style="stroke:#000000;stroke-width:1;"/><text fill="#000000" font-family="Verdana" font-size="13" lengthAdjust="spacing" textLength="149.7856" x="607.98" y="240.8669">Red&#233;finit makeSound()</text><text fill="#000000" font-family="Verdana" font-size="13" lengthAdjust="spacing" textLength="107.3262" x="607.98" y="255.9997">Red&#233;finit sleep()</text></g><g class="entity" data-entity="GMN15" data-source-line="48" data-uid="ent0016" id="entity_GMN15"><path d="M999.98,223.8 L999.98,239.93 L964.88,243.93 L999.98,247.93 L999.98,264.0656 A0,0 0 0 0 999.98,264.0656 L1170.7656,264.0656 A0,0 0 0 0 1170.7656,264.0656 L1170.7656,233.8 L1160.7656,223.8 L999.98,223.8 A0,0 0 0 0 999.98,223.8" fill="#FFFFFF" style="stroke:#000000;stroke-width:1;"/><path d="M1160.7656,223.8 L1160.7656,233.8 L1170.7656,233.8 L1160.7656,223.8" fill="#FFFFFF" style="stroke:#000000;stroke-width:1;"/><text fill="#000000" font-family="Verdana" font-size="13" lengthAdjust="spacing" textLength="149.7856" x="1005.98" y="240.8669">Red&#233;finit makeSound()</text><text fill="#000000" font-family="Verdana" font-size="13" lengthAdjust="spacing" textLength="134.5767" x="1005.98" y="255.9997">Red&#233;finit introduce()</text></g><g class="entity" data-entity="GMN18" data-source-line="53" data-uid="ent0019" id="entity_GMN18"><path d="M1205.34,216.24 L1205.34,271.6384 L1365.3981,271.6384 L1365.3981,226.24 L1355.3981,216.24 L1205.34,216.24" fill="#FFFFFF" style="stroke:#000000;stroke-width:1;"/><path d="M1355.3981,216.24 L1355.3981,226.24 L1365.3981,226.24 L1355.3981,216.24" fill="#FFFFFF" style="stroke:#000000;stroke-width:1;"/><text fill="#000000" font-family="Verdana" font-size="13" lengthAdjust="spacing" textLength="109.1099" x="1211.34" y="233.3069">Polymorphisme :</text><text fill="#000000" font-family="Verdana" font-size="13" lengthAdjust="spacing" textLength="139.0581" x="1211.34" y="248.4397">makeSound() appelle</text><text fill="#000000" font-family="Verdana" font-size="13" lengthAdjust="spacing" textLength="138.4297" x="1211.34" y="263.5725">la version appropri&#233;e</text></g><!--reverse link Animal to Dog--><g class="link" data-entity-1="Animal" data-entity-2="Dog" data-source-line="33" data-uid="lnk6" id="link_Animal_Dog"><path codeLine="33" d="M582.5907,94.6925 C481.4007,114.0525 327.92,147.38 186.37,197.49 C180.72,199.49 174.96,201.71 169.2,204.07" fill="none" id="Animal-backto-Dog" style="stroke:#000000;stroke-width:1;"/><polygon fill="none" points="600.27,91.31,581.4632,88.7994,583.7182,100.5856,600.27,91.31" style="stroke:#000000;stroke-width:1;"/></g><!--reverse link Animal to Cat--><g class="link" data-entity-1="Animal" data-entity-2="Cat" data-source-line="34" data-uid="lnk7" id="link_Animal_Cat"><path codeLine="34" d="M599.7708,149.3416 C576.3208,169.0516 564.61,178.88 542.79,197.22" fill="none" id="Animal-backto-Cat" style="stroke:#000000;stroke-width:1;"/><polygon fill="none" points="613.55,137.76,595.9103,144.7485,603.6313,153.9347,613.55,137.76" style="stroke:#000000;stroke-width:1;"/></g><!--reverse link Animal to Bird--><g class="link" data-entity-1="Animal" data-entity-2="Bird" data-source-line="35" data-uid="lnk8" id="link_Animal_Bird"><path codeLine="35" d="M774.9692,149.3416 C798.4192,169.0516 810.13,178.88 831.95,197.22" fill="none" id="Animal-backto-Bird" style="stroke:#000000;stroke-width:1;"/><polygon fill="none" points="761.19,137.76,771.1087,153.9347,778.8297,144.7485,761.19,137.76" style="stroke:#000000;stroke-width:1;"/></g><!--link Animal to GMN18--><g class="link" data-entity-1="Animal" data-entity-2="GMN18" data-source-line="53" data-uid="lnk20" id="link_Animal_GMN18"><path d="M774.44,91.41 C875.59,110.86 1046.73,147.66 1188.37,197.49 C1202.93,202.61 1218.25,209.19 1232.3,215.74" fill="none" id="Animal-GMN18" style="stroke:#000000;stroke-width:1;stroke-dasharray:7,7;"/></g><!--SRC=[dP9DJiGm38NtEOKHcncXNg1Ymy-29M9E41gtjKZYACcCX803zHoz64afGpeWgDX4Ui_9zsmhPx57W-2q92j4esK8S6N9I0ql0k0Sh3HOmovwibqogYeT5_ELJLdSJWKZdt37UwissneEJ6foWqPq2uTizAps3HxTjy_uM-wcx3agoTKvBSQc_qwyaR4a9ldFpe_4Q_AgH6QzcldZxFFIBr-hAe-yqAdXXSvfGbYE29wwFWAtqnk01rJZq9AbM6QdmjquU4htvta4MWKPS8h9KRzWYi9VfAd9TQXY8QUuHuwHJUPzB20zl6VzRDYxdaBwkNLo2Z18vr1hJAwMS40VY6qsFJjFuu1V0Uy0]--></g></svg>