<svg xmlns="http://www.w3.org/2000/svg" xmlns:xlink="http://www.w3.org/1999/xlink" contentStyleType="text/css" data-diagram-type="CLASS" height="144px" preserveAspectRatio="none" style="width:621px;height:144px;background:#FFFFFF;" version="1.1" viewBox="0 0 621 144" width="621px" zoomAndPan="magnify"><defs/><g><!--class Product--><g class="entity" data-entity="Product" data-source-line="6" data-uid="ent0002" id="entity_Product"><rect fill="#FFFFFF" height="125.4844" rx="2.5" ry="2.5" style="stroke:#000000;stroke-width:1;" width="279.6406" x="12" y="12"/><ellipse cx="117.189" cy="26" fill="#FFFFFF" rx="9" ry="9" style="stroke:#000000;stroke-width:1;"/><path d="M120.1577,31.6406 Q119.5796,31.9375 118.939,32.0781 Q118.2983,32.2344 117.5952,32.2344 Q115.0952,32.2344 113.7671,30.5938 Q112.4546,28.9375 112.4546,25.8125 Q112.4546,22.6875 113.7671,21.0313 Q115.0952,19.375 117.5952,19.375 Q118.2983,19.375 118.939,19.5313 Q119.5952,19.6875 120.1577,19.9844 L120.1577,22.7031 Q119.5327,22.125 118.939,21.8594 Q118.3452,21.5781 117.7202,21.5781 Q116.3765,21.5781 115.689,22.6563 Q115.0015,23.7188 115.0015,25.8125 Q115.0015,27.9063 115.689,28.9844 Q116.3765,30.0469 117.7202,30.0469 Q118.3452,30.0469 118.939,29.7813 Q119.5327,29.5 120.1577,28.9219 L120.1577,31.6406 Z " fill="#000000"/><text fill="#000000" font-family="Verdana" font-size="14" font-weight="bold" lengthAdjust="spacing" textLength="61.7627" x="134.689" y="30.8467">Product</text><line style="stroke:#000000;stroke-width:1;" x1="13" x2="290.6406" y1="40" y2="40"/><text fill="#000000" font-family="Verdana" font-size="14" lengthAdjust="spacing" textLength="95.7031" x="18" y="56.9951">-name: String</text><text fill="#000000" font-family="Verdana" font-size="14" lengthAdjust="spacing" textLength="96.7764" x="18" y="73.292">-price: double</text><line style="stroke:#000000;stroke-width:1;" x1="13" x2="290.6406" y1="80.5938" y2="80.5938"/><text fill="#000000" font-family="Verdana" font-size="14" lengthAdjust="spacing" textLength="267.6406" x="18" y="97.5889">+Product(name: String, price: double)</text><text fill="#000000" font-family="Verdana" font-size="14" lengthAdjust="spacing" textLength="214.7988" x="18" y="113.8857">+setName(name: String): void</text><text fill="#000000" font-family="Verdana" font-size="14" lengthAdjust="spacing" textLength="208.9678" x="18" y="130.1826">+setPrice(price: double): void</text></g><g class="entity" data-entity="GMN3" data-source-line="15" data-uid="ent0004" id="entity_GMN3"><path d="M326.87,16.77 L326.87,70.74 L292.01,74.74 L326.87,78.74 L326.87,132.6997 A0,0 0 0 0 326.87,132.6997 L614.7699,132.6997 A0,0 0 0 0 614.7699,132.6997 L614.7699,26.77 L604.7699,16.77 L326.87,16.77 A0,0 0 0 0 326.87,16.77" fill="#FFFFFF" style="stroke:#000000;stroke-width:1;"/><path d="M604.7699,16.77 L604.7699,26.77 L614.7699,26.77 L604.7699,16.77" fill="#FFFFFF" style="stroke:#000000;stroke-width:1;"/><text fill="#000000" font-family="Verdana" font-size="13" lengthAdjust="spacing" textLength="208.8442" x="332.87" y="33.8369">Validation possible &#224; 2 endroits:</text><text fill="#000000" font-family="Verdana" font-size="13" lengthAdjust="spacing" textLength="152.02" x="332.87" y="48.9697">1. Dans le constructeur</text><text fill="#000000" font-family="Verdana" font-size="13" lengthAdjust="spacing" textLength="121.2529" x="332.87" y="64.1025">2. Dans les setters</text><text fill="#000000" font-family="Verdana" font-size="13" lengthAdjust="spacing" textLength="4.1323" x="332.87" y="79.2353">&#160;</text><text fill="#000000" font-family="Verdana" font-size="13" lengthAdjust="spacing" textLength="186.9448" x="332.87" y="94.3681">Meilleure pratique: les deux!</text><text fill="#000000" font-family="Verdana" font-size="13" lengthAdjust="spacing" textLength="266.8999" x="332.87" y="109.501">- Constructeur: garantit &#233;tat initial valide</text><text fill="#000000" font-family="Verdana" font-size="13" lengthAdjust="spacing" textLength="246.3716" x="332.87" y="124.6338">- Setters: garantit &#233;tat toujours valide</text></g><!--SRC=[PP2zJWCn48HxFyMaIyIF8ELr28H40Ofq4hrpNf85dttOwuWVyIwqF4TUZ7L8K0BIDRVppMWy8rbIJnYyvM1CVk8ms6HxTDxcV26IU5w4RheOMduZdFr5hcEGLbuzOHwzCsPpn2n5Lph1km5EWksfGQjHOL7_XyIT7bmiSqzwEDhIuttm60VOf7APv4wH0sxIO1NPRULPzOmFdLlWmvWGXP1uiHJ4Xrr7TTvRpyuAnu0XvipgmleJKr1mARBaHg7pKrpPaA6QZf4bgPTAKcNwgsHe1w6KzQhVBR7tokYyIUEVYvQgaAFoCgfBu78lgS52Pmt2WlMNM0475hOUgrgFDdpx4_yFbLWUOqbvnsfnrDSQOxu1]--></g></svg>