<svg xmlns="http://www.w3.org/2000/svg" xmlns:xlink="http://www.w3.org/1999/xlink" contentStyleType="text/css" data-diagram-type="CLASS" height="281px" preserveAspectRatio="none" style="width:829px;height:281px;background:#FFFFFF;" version="1.1" viewBox="0 0 829 281" width="829px" zoomAndPan="magnify"><defs/><g><!--class Shape--><g class="entity" data-entity="Shape" data-source-line="6" data-uid="ent0002" id="entity_Shape"><rect fill="#FFFFFF" height="76.5938" rx="2.5" ry="2.5" style="stroke:#000000;stroke-width:1;" width="193.7334" x="357.58" y="12"/><ellipse cx="426.1899" cy="26" fill="#FFFFFF" rx="9" ry="9" style="stroke:#000000;stroke-width:1;"/><path d="M426.2992,21.3438 L425.143,26.4219 L427.4711,26.4219 L426.2992,21.3438 Z M424.8149,19.1094 L427.7992,19.1094 L431.1586,31.5 L428.7055,31.5 L427.9399,28.4375 L424.6586,28.4375 L423.9086,31.5 L421.4711,31.5 L424.8149,19.1094 Z " fill="#000000"/><text fill="#000000" font-family="Verdana" font-size="14" font-style="italic" font-weight="bold" lengthAdjust="spacing" textLength="49.0137" x="443.6899" y="30.8467">Shape</text><line style="stroke:#000000;stroke-width:1;" x1="358.58" x2="550.3134" y1="40" y2="40"/><line style="stroke:#000000;stroke-width:1;" x1="358.58" x2="550.3134" y1="48" y2="48"/><text fill="#000000" font-family="Verdana" font-size="14" font-style="italic" lengthAdjust="spacing" textLength="175.3691" x="363.58" y="64.9951">+calculateArea(): double</text><text fill="#000000" font-family="Verdana" font-size="14" font-style="italic" lengthAdjust="spacing" textLength="181.7334" x="363.58" y="81.292">+getShapeName(): String</text></g><!--class Rectangle--><g class="entity" data-entity="Rectangle" data-source-line="11" data-uid="ent0003" id="entity_Rectangle"><rect fill="#FFFFFF" height="125.4844" rx="2.5" ry="2.5" style="stroke:#000000;stroke-width:1;" width="310.9014" x="12" y="148.6"/><ellipse cx="124.2026" cy="162.6" fill="#FFFFFF" rx="9" ry="9" style="stroke:#000000;stroke-width:1;"/><path d="M127.1714,168.2406 Q126.5933,168.5375 125.9526,168.6781 Q125.312,168.8344 124.6089,168.8344 Q122.1089,168.8344 120.7808,167.1937 Q119.4683,165.5375 119.4683,162.4125 Q119.4683,159.2875 120.7808,157.6312 Q122.1089,155.975 124.6089,155.975 Q125.312,155.975 125.9526,156.1312 Q126.6089,156.2875 127.1714,156.5844 L127.1714,159.3031 Q126.5464,158.725 125.9526,158.4594 Q125.3589,158.1781 124.7339,158.1781 Q123.3901,158.1781 122.7026,159.2562 Q122.0151,160.3187 122.0151,162.4125 Q122.0151,164.5062 122.7026,165.5844 Q123.3901,166.6469 124.7339,166.6469 Q125.3589,166.6469 125.9526,166.3812 Q126.5464,166.1 127.1714,165.5219 L127.1714,168.2406 Z " fill="#000000"/><text fill="#000000" font-family="Verdana" font-size="14" font-weight="bold" lengthAdjust="spacing" textLength="78.9961" x="141.7026" y="167.4467">Rectangle</text><line style="stroke:#000000;stroke-width:1;" x1="13" x2="321.9014" y1="176.6" y2="176.6"/><text fill="#000000" font-family="Verdana" font-size="14" lengthAdjust="spacing" textLength="100.5225" x="18" y="193.5951">-width: double</text><text fill="#000000" font-family="Verdana" font-size="14" lengthAdjust="spacing" textLength="106.5586" x="18" y="209.892">-height: double</text><line style="stroke:#000000;stroke-width:1;" x1="13" x2="321.9014" y1="217.1937" y2="217.1937"/><text fill="#000000" font-family="Verdana" font-size="14" lengthAdjust="spacing" textLength="298.9014" x="18" y="234.1889">+Rectangle(width: double, height: double)</text><text fill="#000000" font-family="Verdana" font-size="14" lengthAdjust="spacing" textLength="175.3691" x="18" y="250.4857">+calculateArea(): double</text><text fill="#000000" font-family="Verdana" font-size="14" lengthAdjust="spacing" textLength="181.7334" x="18" y="266.7826">+getShapeName(): String</text></g><!--class Circle--><g class="entity" data-entity="Circle" data-source-line="19" data-uid="ent0004" id="entity_Circle"><rect fill="#FFFFFF" height="109.1875" rx="2.5" ry="2.5" style="stroke:#000000;stroke-width:1;" width="193.7334" x="357.58" y="156.74"/><ellipse cx="428.4115" cy="170.74" fill="#FFFFFF" rx="9" ry="9" style="stroke:#000000;stroke-width:1;"/><path d="M431.3803,176.3806 Q430.8022,176.6775 430.1615,176.8181 Q429.5209,176.9744 428.8178,176.9744 Q426.3178,176.9744 424.9897,175.3337 Q423.6772,173.6775 423.6772,170.5525 Q423.6772,167.4275 424.9897,165.7712 Q426.3178,164.115 428.8178,164.115 Q429.5209,164.115 430.1615,164.2712 Q430.8178,164.4275 431.3803,164.7244 L431.3803,167.4431 Q430.7553,166.865 430.1615,166.5994 Q429.5678,166.3181 428.9428,166.3181 Q427.599,166.3181 426.9115,167.3962 Q426.224,168.4587 426.224,170.5525 Q426.224,172.6462 426.9115,173.7244 Q427.599,174.7869 428.9428,174.7869 Q429.5678,174.7869 430.1615,174.5212 Q430.7553,174.24 431.3803,173.6619 L431.3803,176.3806 Z " fill="#000000"/><text fill="#000000" font-family="Verdana" font-size="14" font-weight="bold" lengthAdjust="spacing" textLength="44.5703" x="445.9115" y="175.5867">Circle</text><line style="stroke:#000000;stroke-width:1;" x1="358.58" x2="550.3134" y1="184.74" y2="184.74"/><text fill="#000000" font-family="Verdana" font-size="14" lengthAdjust="spacing" textLength="105.2119" x="363.58" y="201.7351">-radius: double</text><line style="stroke:#000000;stroke-width:1;" x1="358.58" x2="550.3134" y1="209.0369" y2="209.0369"/><text fill="#000000" font-family="Verdana" font-size="14" lengthAdjust="spacing" textLength="162.4355" x="363.58" y="226.032">+Circle(radius: double)</text><text fill="#000000" font-family="Verdana" font-size="14" lengthAdjust="spacing" textLength="175.3691" x="363.58" y="242.3289">+calculateArea(): double</text><text fill="#000000" font-family="Verdana" font-size="14" lengthAdjust="spacing" textLength="181.7334" x="363.58" y="258.6257">+getShapeName(): String</text></g><g class="entity" data-entity="GMN7" data-source-line="30" data-uid="ent0008" id="entity_GMN7"><path d="M586.46,191.2 L586.46,231.4656 A0,0 0 0 0 586.46,231.4656 L822.4361,231.4656 A0,0 0 0 0 822.4361,231.4656 L822.4361,201.2 L812.4361,191.2 L677.74,191.2 L513.7,88.99 L669.74,191.2 L586.46,191.2 A0,0 0 0 0 586.46,191.2" fill="#FFFFFF" style="stroke:#000000;stroke-width:1;"/><path d="M812.4361,191.2 L812.4361,201.2 L822.4361,201.2 L812.4361,191.2" fill="#FFFFFF" style="stroke:#000000;stroke-width:1;"/><text fill="#000000" font-family="Verdana" font-size="13" lengthAdjust="spacing" textLength="180.5718" x="592.46" y="208.2669">Polymorphisme: un Shape[]</text><text fill="#000000" font-family="Verdana" font-size="13" lengthAdjust="spacing" textLength="214.9761" x="592.46" y="223.3997">peut contenir Rectangle et Circle</text></g><!--reverse link Shape to Rectangle--><g class="link" data-entity-1="Shape" data-entity-2="Rectangle" data-source-line="26" data-uid="lnk5" id="link_Shape_Rectangle"><path codeLine="26" d="M370.6952,97.7136 C338.7852,115.3936 315.66,128.21 279.57,148.21" fill="none" id="Shape-backto-Rectangle" style="stroke:#000000;stroke-width:1;"/><polygon fill="none" points="386.44,88.99,367.7873,92.4653,373.603,102.9618,386.44,88.99" style="stroke:#000000;stroke-width:1;"/></g><!--reverse link Shape to Circle--><g class="link" data-entity-1="Shape" data-entity-2="Circle" data-source-line="27" data-uid="lnk6" id="link_Shape_Circle"><path codeLine="27" d="M454.45,106.99 C454.45,127.11 454.45,134.21 454.45,156.36" fill="none" id="Shape-backto-Circle" style="stroke:#000000;stroke-width:1;"/><polygon fill="none" points="454.45,88.99,448.45,106.99,460.45,106.99,454.45,88.99" style="stroke:#000000;stroke-width:1;"/></g><!--SRC=[dP5FIyH03CNl-HJnraKBdXSlYo1uMSGUnKCwZPt1-LDcCiYwxdUtTQYsUr3mclVoooFlGZGxni6IyG3frVY18ZbKbbBQYKJJPk5x5NnZtXclportmKiZ1ylO1ji1K9iaafAYOgDfO3m2ukLnbaweoAfiINWNcQhD5hkGMyjdhfxbQtrFZYTJCuRnFPm02lkHbP3lRU7NRwOJlK3LcaslPGd_tgXMvYjSMpUJzvUCVmMxDL7DgI9r9gVbTb6hjV3_a-N3Dnzr_VEGvR2S0_11fev4WiFmKeePoG_17bo8WpR9yHQpByhJywWDdCSUnuBPcxXuDyjCPT_X10Q0Jm00]--></g></svg>