<svg xmlns="http://www.w3.org/2000/svg" xmlns:xlink="http://www.w3.org/1999/xlink" contentStyleType="text/css" data-diagram-type="CLASS" height="443px" preserveAspectRatio="none" style="width:956px;height:443px;background:#FFFFFF;" version="1.1" viewBox="0 0 956 443" width="956px" zoomAndPan="magnify"><defs/><g><!--class Payment--><g class="entity" data-entity="Payment" data-source-line="6" data-uid="ent0002" id="entity_Payment"><rect fill="#FFFFFF" height="125.4844" rx="2.5" ry="2.5" style="stroke:#000000;stroke-width:1;" width="219.0469" x="360.42" y="141.53"/><ellipse cx="431.4054" cy="155.53" fill="#FFFFFF" rx="9" ry="9" style="stroke:#000000;stroke-width:1;"/><path d="M431.5147,150.8737 L430.3585,155.9519 L432.6866,155.9519 L431.5147,150.8737 Z M430.0304,148.6394 L433.0147,148.6394 L436.3741,161.03 L433.921,161.03 L433.1554,157.9675 L429.8741,157.9675 L429.1241,161.03 L426.6866,161.03 L430.0304,148.6394 Z " fill="#000000"/><text fill="#000000" font-family="Verdana" font-size="14" font-style="italic" font-weight="bold" lengthAdjust="spacing" textLength="69.5762" x="448.9054" y="160.3767">Payment</text><line style="stroke:#000000;stroke-width:1;" x1="361.42" x2="578.4669" y1="169.53" y2="169.53"/><text fill="#000000" font-family="Verdana" font-size="14" lengthAdjust="spacing" textLength="122.6299" x="366.42" y="186.5251">#amount: double</text><line style="stroke:#000000;stroke-width:1;" x1="361.42" x2="578.4669" y1="193.8269" y2="193.8269"/><text fill="#000000" font-family="Verdana" font-size="14" lengthAdjust="spacing" textLength="195.4736" x="366.42" y="210.822">+Payment(amount: double)</text><text fill="#000000" font-family="Verdana" font-size="14" lengthAdjust="spacing" textLength="157.541" x="366.42" y="227.1189">+getAmount(): double</text><text fill="#000000" font-family="Verdana" font-size="14" font-style="italic" lengthAdjust="spacing" textLength="203.8203" x="366.42" y="243.4157">+processPayment(): boolean</text><text fill="#000000" font-family="Verdana" font-size="14" font-style="italic" lengthAdjust="spacing" textLength="207.0469" x="366.42" y="259.7126">+getPaymentDetails(): String</text></g><!--class CreditCardPayment--><g class="entity" data-entity="CreditCardPayment" data-source-line="14" data-uid="ent0003" id="entity_CreditCardPayment"><rect fill="#FFFFFF" height="109.1875" rx="2.5" ry="2.5" style="stroke:#000000;stroke-width:1;" width="429.8877" x="12" y="327.01"/><ellipse cx="145.9888" cy="341.01" fill="#FFFFFF" rx="9" ry="9" style="stroke:#000000;stroke-width:1;"/><path d="M148.9575,346.6506 Q148.3794,346.9475 147.7388,347.0881 Q147.0981,347.2444 146.395,347.2444 Q143.895,347.2444 142.5669,345.6038 Q141.2544,343.9475 141.2544,340.8225 Q141.2544,337.6975 142.5669,336.0413 Q143.895,334.385 146.395,334.385 Q147.0981,334.385 147.7388,334.5413 Q148.395,334.6975 148.9575,334.9944 L148.9575,337.7131 Q148.3325,337.135 147.7388,336.8694 Q147.145,336.5881 146.52,336.5881 Q145.1763,336.5881 144.4888,337.6663 Q143.8013,338.7288 143.8013,340.8225 Q143.8013,342.9163 144.4888,343.9944 Q145.1763,345.0569 146.52,345.0569 Q147.145,345.0569 147.7388,344.7913 Q148.3325,344.51 148.9575,343.9319 L148.9575,346.6506 Z " fill="#000000"/><text fill="#000000" font-family="Verdana" font-size="14" font-weight="bold" lengthAdjust="spacing" textLength="154.4102" x="163.4888" y="345.8567">CreditCardPayment</text><line style="stroke:#000000;stroke-width:1;" x1="13" x2="440.8877" y1="355.01" y2="355.01"/><text fill="#000000" font-family="Verdana" font-size="14" lengthAdjust="spacing" textLength="143.1582" x="18" y="372.0051">-cardNumber: String</text><line style="stroke:#000000;stroke-width:1;" x1="13" x2="440.8877" y1="379.3069" y2="379.3069"/><text fill="#000000" font-family="Verdana" font-size="14" lengthAdjust="spacing" textLength="417.8877" x="18" y="396.302">+CreditCardPayment(amount: double, cardNumber: String)</text><text fill="#000000" font-family="Verdana" font-size="14" lengthAdjust="spacing" textLength="203.8203" x="18" y="412.5989">+processPayment(): boolean</text><text fill="#000000" font-family="Verdana" font-size="14" lengthAdjust="spacing" textLength="207.0469" x="18" y="428.8957">+getPaymentDetails(): String</text></g><!--class BankTransferPayment--><g class="entity" data-entity="BankTransferPayment" data-source-line="21" data-uid="ent0004" id="entity_BankTransferPayment"><rect fill="#FFFFFF" height="109.1875" rx="2.5" ry="2.5" style="stroke:#000000;stroke-width:1;" width="472.8516" x="476.52" y="327.01"/><ellipse cx="621.3642" cy="341.01" fill="#FFFFFF" rx="9" ry="9" style="stroke:#000000;stroke-width:1;"/><path d="M624.333,346.6506 Q623.7549,346.9475 623.1142,347.0881 Q622.4736,347.2444 621.7705,347.2444 Q619.2705,347.2444 617.9424,345.6038 Q616.6299,343.9475 616.6299,340.8225 Q616.6299,337.6975 617.9424,336.0413 Q619.2705,334.385 621.7705,334.385 Q622.4736,334.385 623.1142,334.5413 Q623.7705,334.6975 624.333,334.9944 L624.333,337.7131 Q623.708,337.135 623.1142,336.8694 Q622.5205,336.5881 621.8955,336.5881 Q620.5517,336.5881 619.8642,337.6663 Q619.1767,338.7288 619.1767,340.8225 Q619.1767,342.9163 619.8642,343.9944 Q620.5517,345.0569 621.8955,345.0569 Q622.5205,345.0569 623.1142,344.7913 Q623.708,344.51 624.333,343.9319 L624.333,346.6506 Z " fill="#000000"/><text fill="#000000" font-family="Verdana" font-size="14" font-weight="bold" lengthAdjust="spacing" textLength="175.6631" x="638.8642" y="345.8567">BankTransferPayment</text><line style="stroke:#000000;stroke-width:1;" x1="477.52" x2="948.3716" y1="355.01" y2="355.01"/><text fill="#000000" font-family="Verdana" font-size="14" lengthAdjust="spacing" textLength="168.0137" x="482.52" y="372.0051">-accountNumber: String</text><line style="stroke:#000000;stroke-width:1;" x1="477.52" x2="948.3716" y1="379.3069" y2="379.3069"/><text fill="#000000" font-family="Verdana" font-size="14" lengthAdjust="spacing" textLength="460.8516" x="482.52" y="396.302">+BankTransferPayment(amount: double, accountNumber: String)</text><text fill="#000000" font-family="Verdana" font-size="14" lengthAdjust="spacing" textLength="203.8203" x="482.52" y="412.5989">+processPayment(): boolean</text><text fill="#000000" font-family="Verdana" font-size="14" lengthAdjust="spacing" textLength="207.0469" x="482.52" y="428.8957">+getPaymentDetails(): String</text></g><g class="entity" data-entity="GMN7" data-source-line="32" data-uid="ent0008" id="entity_GMN7"><path d="M367.48,11 L367.48,81.5313 A0,0 0 0 0 367.48,81.5313 L465.94,81.5313 L469.94,141.11 L473.94,81.5313 L572.4097,81.5313 A0,0 0 0 0 572.4097,81.5313 L572.4097,21 L562.4097,11 L367.48,11 A0,0 0 0 0 367.48,11" fill="#FFFFFF" style="stroke:#000000;stroke-width:1;"/><path d="M562.4097,11 L562.4097,21 L572.4097,21 L562.4097,11" fill="#FFFFFF" style="stroke:#000000;stroke-width:1;"/><text fill="#000000" font-family="Verdana" font-size="13" lengthAdjust="spacing" textLength="143.7554" x="373.48" y="28.0669">Classe abstraite avec:</text><text fill="#000000" font-family="Verdana" font-size="13" lengthAdjust="spacing" textLength="183.9297" x="373.48" y="43.1997">- Attribut commun (amount)</text><text fill="#000000" font-family="Verdana" font-size="13" lengthAdjust="spacing" textLength="141.3623" x="373.48" y="58.3325">- M&#233;thodes abstraites</text><text fill="#000000" font-family="Verdana" font-size="13" lengthAdjust="spacing" textLength="95.5767" x="381.7446" y="73.4653">&#224; impl&#233;menter</text></g><!--reverse link Payment to CreditCardPayment--><g class="link" data-entity-1="Payment" data-entity-2="CreditCardPayment" data-source-line="28" data-uid="lnk5" id="link_Payment_CreditCardPayment"><path codeLine="28" d="M369.3332,277.8625 C342.4332,297.2725 327.59,307.98 301.55,326.77" fill="none" id="Payment-backto-CreditCardPayment" style="stroke:#000000;stroke-width:1;"/><polygon fill="none" points="383.93,267.33,365.8224,272.9969,372.844,282.7281,383.93,267.33" style="stroke:#000000;stroke-width:1;"/></g><!--reverse link Payment to BankTransferPayment--><g class="link" data-entity-1="Payment" data-entity-2="BankTransferPayment" data-source-line="29" data-uid="lnk6" id="link_Payment_BankTransferPayment"><path codeLine="29" d="M570.5549,277.8651 C597.4449,297.2751 612.29,307.98 638.34,326.77" fill="none" id="Payment-backto-BankTransferPayment" style="stroke:#000000;stroke-width:1;"/><polygon fill="none" points="555.96,267.33,567.0433,282.73,574.0666,273.0001,555.96,267.33" style="stroke:#000000;stroke-width:1;"/></g><!--SRC=[fP9DJW9148NtTOeoRY1AufguGOo92uq9Ng2cfu0E_JFfhZ51v2vkEGSNiniO1MPYJDpMUw_gg-g-a3bRnigGTW1neLr5WImgGp6EH88kQk57vTr4lpFUd5iUl9E9B0rZuKq9G4MKG4hsAhxGqh8JN07Y9LbVEnbYwUl2SAfS7UJUgTBFqenbjAls-iU9LJDWZLNmYcDiUYHRuRrXScU-rEdWkMSXRMAsJj9cRWPhW3teE72fPKoXF4OUg5Huhct1uJkIchVCPmjSOpktM-fNv3zntf5Rl0PoSShXX9IKoWXjs8v42xSp_6_YXk_sOp1e7_XKxg04S5uOnLVefyrFIcF7-H2C-mVMoK5lh8Rv1jXyM5JUsjhXOT7-JdpQRcJkIuu_qPW4nEqdQbkPxIOFu03iIioZ0U0B]--></g></svg>