<svg xmlns="http://www.w3.org/2000/svg" xmlns:xlink="http://www.w3.org/1999/xlink" contentStyleType="text/css" data-diagram-type="CLASS" height="264px" preserveAspectRatio="none" style="width:751px;height:264px;background:#FFFFFF;" version="1.1" viewBox="0 0 751 264" width="751px" zoomAndPan="magnify"><defs/><g><!--class Animal--><g class="entity" data-entity="Animal" data-source-line="3" data-uid="ent0002" id="entity_Animal"><rect fill="#FFFFFF" height="109.1875" rx="2.5" ry="2.5" style="stroke:#000000;stroke-width:1;" width="174.0215" x="195.36" y="12"/><ellipse cx="254.3976" cy="26" fill="#FFFFFF" rx="9" ry="9" style="stroke:#000000;stroke-width:1;"/><path d="M254.507,21.3438 L253.3507,26.4219 L255.6788,26.4219 L254.507,21.3438 Z M253.0226,19.1094 L256.007,19.1094 L259.3663,31.5 L256.9132,31.5 L256.1476,28.4375 L252.8663,28.4375 L252.1163,31.5 L249.6788,31.5 L253.0226,19.1094 Z " fill="#000000"/><text fill="#000000" font-family="Verdana" font-size="14" font-style="italic" lengthAdjust="spacing" textLength="48.4463" x="271.8976" y="30.8467">Animal</text><line style="stroke:#000000;stroke-width:1;" x1="196.36" x2="368.3815" y1="40" y2="40"/><rect fill="none" height="6" style="stroke:#000000;stroke-width:1;" width="6" x="203.36" y="50.6484"/><text fill="#000000" font-family="Verdana" font-size="14" lengthAdjust="spacing" textLength="90.6514" x="213.36" y="56.9951">name: String</text><line style="stroke:#000000;stroke-width:1;" x1="196.36" x2="368.3815" y1="64.2969" y2="64.2969"/><ellipse cx="206.36" cy="77.9453" fill="#FFFFFF" rx="3" ry="3" style="stroke:#000000;stroke-width:1;"/><text fill="#000000" font-family="Verdana" font-size="14" lengthAdjust="spacing" textLength="150.0215" x="213.36" y="81.292">Animal(name: String)</text><ellipse cx="206.36" cy="94.2422" fill="#FFFFFF" rx="3" ry="3" style="stroke:#000000;stroke-width:1;"/><text fill="#000000" font-family="Verdana" font-size="14" lengthAdjust="spacing" textLength="126.1641" x="213.36" y="97.5889">getName(): String</text><ellipse cx="206.36" cy="110.5391" fill="#FFFFFF" rx="3" ry="3" style="stroke:#000000;stroke-width:1;"/><text fill="#000000" font-family="Verdana" font-size="14" font-style="italic" lengthAdjust="spacing" textLength="132.7402" x="213.36" y="113.8857">makeSound(): void</text></g><!--class Dog--><g class="entity" data-entity="Dog" data-source-line="10" data-uid="ent0003" id="entity_Dog"><rect fill="#FFFFFF" height="76.5938" rx="2.5" ry="2.5" style="stroke:#000000;stroke-width:1;" width="156.7402" x="12" y="181.19"/><ellipse cx="72.5039" cy="195.19" fill="#FFFFFF" rx="9" ry="9" style="stroke:#000000;stroke-width:1;"/><path d="M75.4727,200.8306 Q74.8945,201.1275 74.2539,201.2681 Q73.6133,201.4244 72.9102,201.4244 Q70.4102,201.4244 69.082,199.7838 Q67.7695,198.1275 67.7695,195.0025 Q67.7695,191.8775 69.082,190.2213 Q70.4102,188.565 72.9102,188.565 Q73.6133,188.565 74.2539,188.7213 Q74.9102,188.8775 75.4727,189.1744 L75.4727,191.8931 Q74.8477,191.315 74.2539,191.0494 Q73.6602,190.7681 73.0352,190.7681 Q71.6914,190.7681 71.0039,191.8463 Q70.3164,192.9088 70.3164,195.0025 Q70.3164,197.0963 71.0039,198.1744 Q71.6914,199.2369 73.0352,199.2369 Q73.6602,199.2369 74.2539,198.9713 Q74.8477,198.69 75.4727,198.1119 L75.4727,200.8306 Z " fill="#000000"/><text fill="#000000" font-family="Verdana" font-size="14" lengthAdjust="spacing" textLength="28.2324" x="90.0039" y="200.0367">Dog</text><line style="stroke:#000000;stroke-width:1;" x1="13" x2="167.7402" y1="209.19" y2="209.19"/><line style="stroke:#000000;stroke-width:1;" x1="13" x2="167.7402" y1="217.19" y2="217.19"/><ellipse cx="23" cy="230.8384" fill="#FFFFFF" rx="3" ry="3" style="stroke:#000000;stroke-width:1;"/><text fill="#000000" font-family="Verdana" font-size="14" lengthAdjust="spacing" textLength="129.8076" x="30" y="234.1851">Dog(name: String)</text><ellipse cx="23" cy="247.1353" fill="#FFFFFF" rx="3" ry="3" style="stroke:#000000;stroke-width:1;"/><text fill="#000000" font-family="Verdana" font-size="14" lengthAdjust="spacing" textLength="132.7402" x="30" y="250.482">makeSound(): void</text></g><!--class Cat--><g class="entity" data-entity="Cat" data-source-line="15" data-uid="ent0004" id="entity_Cat"><rect fill="#FFFFFF" height="76.5938" rx="2.5" ry="2.5" style="stroke:#000000;stroke-width:1;" width="156.7402" x="396" y="181.19"/><ellipse cx="458.6982" cy="195.19" fill="#FFFFFF" rx="9" ry="9" style="stroke:#000000;stroke-width:1;"/><path d="M461.667,200.8306 Q461.0889,201.1275 460.4482,201.2681 Q459.8076,201.4244 459.1045,201.4244 Q456.6045,201.4244 455.2764,199.7838 Q453.9639,198.1275 453.9639,195.0025 Q453.9639,191.8775 455.2764,190.2213 Q456.6045,188.565 459.1045,188.565 Q459.8076,188.565 460.4482,188.7213 Q461.1045,188.8775 461.667,189.1744 L461.667,191.8931 Q461.042,191.315 460.4482,191.0494 Q459.8545,190.7681 459.2295,190.7681 Q457.8857,190.7681 457.1982,191.8463 Q456.5107,192.9088 456.5107,195.0025 Q456.5107,197.0963 457.1982,198.1744 Q457.8857,199.2369 459.2295,199.2369 Q459.8545,199.2369 460.4482,198.9713 Q461.042,198.69 461.667,198.1119 L461.667,200.8306 Z " fill="#000000"/><text fill="#000000" font-family="Verdana" font-size="14" lengthAdjust="spacing" textLength="23.8438" x="476.1982" y="200.0367">Cat</text><line style="stroke:#000000;stroke-width:1;" x1="397" x2="551.7402" y1="209.19" y2="209.19"/><line style="stroke:#000000;stroke-width:1;" x1="397" x2="551.7402" y1="217.19" y2="217.19"/><ellipse cx="407" cy="230.8384" fill="#FFFFFF" rx="3" ry="3" style="stroke:#000000;stroke-width:1;"/><text fill="#000000" font-family="Verdana" font-size="14" lengthAdjust="spacing" textLength="125.4189" x="414" y="234.1851">Cat(name: String)</text><ellipse cx="407" cy="247.1353" fill="#FFFFFF" rx="3" ry="3" style="stroke:#000000;stroke-width:1;"/><text fill="#000000" font-family="Verdana" font-size="14" lengthAdjust="spacing" textLength="132.7402" x="414" y="250.482">makeSound(): void</text></g><g class="entity" data-entity="GMN7" data-source-line="24" data-uid="ent0008" id="entity_GMN7"><path d="M204.13,199.35 L204.13,215.48 L169.12,219.48 L204.13,223.48 L204.13,239.6156 A0,0 0 0 0 204.13,239.6156 L360.6144,239.6156 A0,0 0 0 0 360.6144,239.6156 L360.6144,209.35 L350.6144,199.35 L204.13,199.35 A0,0 0 0 0 204.13,199.35" fill="#FFFFFF" style="stroke:#000000;stroke-width:1;"/><path d="M350.6144,199.35 L350.6144,209.35 L360.6144,209.35 L350.6144,199.35" fill="#FFFFFF" style="stroke:#000000;stroke-width:1;"/><text fill="#000000" font-family="Verdana" font-size="13" lengthAdjust="spacing" textLength="135.4844" x="210.13" y="216.4169">makeSound() affiche</text><text fill="#000000" font-family="Verdana" font-size="13" lengthAdjust="spacing" textLength="93.1899" x="210.13" y="231.5497">"Woof! Woof!"</text></g><g class="entity" data-entity="GMN10" data-source-line="29" data-uid="ent0011" id="entity_GMN10"><path d="M588.13,199.35 L588.13,215.48 L553.12,219.48 L588.13,223.48 L588.13,239.6156 A0,0 0 0 0 588.13,239.6156 L744.6144,239.6156 A0,0 0 0 0 744.6144,239.6156 L744.6144,209.35 L734.6144,199.35 L588.13,199.35 A0,0 0 0 0 588.13,199.35" fill="#FFFFFF" style="stroke:#000000;stroke-width:1;"/><path d="M734.6144,199.35 L734.6144,209.35 L744.6144,209.35 L734.6144,199.35" fill="#FFFFFF" style="stroke:#000000;stroke-width:1;"/><text fill="#000000" font-family="Verdana" font-size="13" lengthAdjust="spacing" textLength="135.4844" x="594.13" y="216.4169">makeSound() affiche</text><text fill="#000000" font-family="Verdana" font-size="13" lengthAdjust="spacing" textLength="54.9707" x="594.13" y="231.5497">"Meow!"</text></g><!--reverse link Animal to Dog--><g class="link" data-entity-1="Animal" data-entity-2="Dog" data-source-line="20" data-uid="lnk5" id="link_Animal_Dog"><path codeLine="20" d="M199.4465,132.761 C174.4765,152.381 160.99,162.98 138.22,180.88" fill="none" id="Animal-backto-Dog" style="stroke:#000000;stroke-width:1;"/><polygon fill="none" points="213.6,121.64,195.7395,128.0432,203.1535,137.4789,213.6,121.64" style="stroke:#000000;stroke-width:1;"/></g><!--reverse link Animal to Cat--><g class="link" data-entity-1="Animal" data-entity-2="Cat" data-source-line="21" data-uid="lnk6" id="link_Animal_Cat"><path codeLine="21" d="M365.2935,132.761 C390.2635,152.381 403.75,162.98 426.52,180.88" fill="none" id="Animal-backto-Cat" style="stroke:#000000;stroke-width:1;"/><polygon fill="none" points="351.14,121.64,361.5865,137.4789,369.0005,128.0432,351.14,121.64" style="stroke:#000000;stroke-width:1;"/></g><!--SRC=[ZOyn3u8m48Nt-nK74uJm1uoBqLKN1kSJhgMHjWQg3iX_jmLDKADnQUvUt_jU6xcQDUEf8MK0wD2vbag7PKDTXokZD3NO0s9kIFC22zSg8_sUJNV9N4w3Bjdjl9QaStF_10-ewSY5FPigE2vMLJ00J7KRAyUkp0-Vu1_1DRafw8S_Wu-lBMzv7dfVTay1CDOnjahM3gqOBJX_Ev8GggpPg_7UMX7XUCR0fiAGVIS4w5V2bkrrdhq3]--></g></svg>