<svg xmlns="http://www.w3.org/2000/svg" xmlns:xlink="http://www.w3.org/1999/xlink" contentStyleType="text/css" data-diagram-type="CLASS" height="482px" preserveAspectRatio="none" style="width:1160px;height:482px;background:#FFFFFF;" version="1.1" viewBox="0 0 1160 482" width="1160px" zoomAndPan="magnify"><defs/><g><!--class PaymentMethod--><g class="entity" data-entity="PaymentMethod" data-source-line="6" data-uid="ent0002" id="entity_PaymentMethod"><rect fill="#FFFFFF" height="141.7813" rx="2.5" ry="2.5" style="stroke:#000000;stroke-width:1;" width="259.9805" x="514.05" y="148.59"/><ellipse cx="575.6394" cy="162.59" fill="#FFFFFF" rx="9" ry="9" style="stroke:#000000;stroke-width:1;"/><path d="M575.7487,157.9338 L574.5925,163.0119 L576.9206,163.0119 L575.7487,157.9338 Z M574.2644,155.6994 L577.2487,155.6994 L580.6081,168.09 L578.155,168.09 L577.3894,165.0275 L574.1081,165.0275 L573.3581,168.09 L570.9206,168.09 L574.2644,155.6994 Z " fill="#000000"/><text fill="#000000" font-family="Verdana" font-size="14" font-style="italic" font-weight="bold" lengthAdjust="spacing" textLength="129.3018" x="593.1394" y="167.4367">PaymentMethod</text><line style="stroke:#000000;stroke-width:1;" x1="515.05" x2="773.0305" y1="176.59" y2="176.59"/><text fill="#000000" font-family="Verdana" font-size="14" lengthAdjust="spacing" textLength="122.6299" x="520.05" y="193.5851">#amount: double</text><line style="stroke:#000000;stroke-width:1;" x1="515.05" x2="773.0305" y1="200.8869" y2="200.8869"/><text fill="#000000" font-family="Verdana" font-size="14" lengthAdjust="spacing" textLength="247.9805" x="520.05" y="217.882">+PaymentMethod(amount: double)</text><text fill="#000000" font-family="Verdana" font-size="14" lengthAdjust="spacing" textLength="157.541" x="520.05" y="234.1789">+getAmount(): double</text><text fill="#000000" font-family="Verdana" font-size="14" font-style="italic" lengthAdjust="spacing" textLength="203.8203" x="520.05" y="250.4757">+processPayment(): boolean</text><text fill="#000000" font-family="Verdana" font-size="14" font-style="italic" lengthAdjust="spacing" textLength="209.9521" x="520.05" y="266.7726">+getTransactionFee(): double</text><text fill="#000000" font-family="Verdana" font-size="14" lengthAdjust="spacing" textLength="192.6162" x="520.05" y="283.0695">+getTotalAmount(): double</text></g><!--class CreditCard--><g class="entity" data-entity="CreditCard" data-source-line="15" data-uid="ent0003" id="entity_CreditCard"><rect fill="#FFFFFF" height="125.4844" rx="2.5" ry="2.5" style="stroke:#000000;stroke-width:1;" width="452.084" x="12" y="350.38"/><ellipse cx="191.875" cy="364.38" fill="#FFFFFF" rx="9" ry="9" style="stroke:#000000;stroke-width:1;"/><path d="M194.8438,370.0206 Q194.2656,370.3175 193.625,370.4581 Q192.9844,370.6144 192.2813,370.6144 Q189.7813,370.6144 188.4531,368.9738 Q187.1406,367.3175 187.1406,364.1925 Q187.1406,361.0675 188.4531,359.4113 Q189.7813,357.755 192.2813,357.755 Q192.9844,357.755 193.625,357.9113 Q194.2813,358.0675 194.8438,358.3644 L194.8438,361.0831 Q194.2188,360.505 193.625,360.2394 Q193.0313,359.9581 192.4063,359.9581 Q191.0625,359.9581 190.375,361.0363 Q189.6875,362.0988 189.6875,364.1925 Q189.6875,366.2863 190.375,367.3644 Q191.0625,368.4269 192.4063,368.4269 Q193.0313,368.4269 193.625,368.1613 Q194.2188,367.88 194.8438,367.3019 L194.8438,370.0206 Z " fill="#000000"/><text fill="#000000" font-family="Verdana" font-size="14" font-weight="bold" lengthAdjust="spacing" textLength="84.834" x="209.375" y="369.2267">CreditCard</text><line style="stroke:#000000;stroke-width:1;" x1="13" x2="463.084" y1="378.38" y2="378.38"/><text fill="#000000" font-family="Verdana" font-size="14" lengthAdjust="spacing" textLength="143.1582" x="18" y="395.3751">-cardNumber: String</text><text fill="#000000" font-family="Verdana" font-size="14" lengthAdjust="spacing" textLength="80.2676" x="18" y="411.672">-cvv: String</text><line style="stroke:#000000;stroke-width:1;" x1="13" x2="463.084" y1="418.9738" y2="418.9738"/><text fill="#000000" font-family="Verdana" font-size="14" lengthAdjust="spacing" textLength="440.084" x="18" y="435.9689">+CreditCard(amount: double, cardNumber: String, cvv: String)</text><text fill="#000000" font-family="Verdana" font-size="14" lengthAdjust="spacing" textLength="203.8203" x="18" y="452.2657">+processPayment(): boolean</text><text fill="#000000" font-family="Verdana" font-size="14" lengthAdjust="spacing" textLength="209.9521" x="18" y="468.5626">+getTransactionFee(): double</text></g><!--class PayPal--><g class="entity" data-entity="PayPal" data-source-line="23" data-uid="ent0004" id="entity_PayPal"><rect fill="#FFFFFF" height="109.1875" rx="2.5" ry="2.5" style="stroke:#000000;stroke-width:1;" width="290.2295" x="498.93" y="358.52"/><ellipse cx="613.6243" cy="372.52" fill="#FFFFFF" rx="9" ry="9" style="stroke:#000000;stroke-width:1;"/><path d="M616.5931,378.1606 Q616.015,378.4575 615.3743,378.5981 Q614.7337,378.7544 614.0306,378.7544 Q611.5306,378.7544 610.2025,377.1138 Q608.89,375.4575 608.89,372.3325 Q608.89,369.2075 610.2025,367.5513 Q611.5306,365.895 614.0306,365.895 Q614.7337,365.895 615.3743,366.0513 Q616.0306,366.2075 616.5931,366.5044 L616.5931,369.2231 Q615.9681,368.645 615.3743,368.3794 Q614.7806,368.0981 614.1556,368.0981 Q612.8118,368.0981 612.1243,369.1763 Q611.4368,370.2388 611.4368,372.3325 Q611.4368,374.4263 612.1243,375.5044 Q612.8118,376.5669 614.1556,376.5669 Q614.7806,376.5669 615.3743,376.3013 Q615.9681,376.02 616.5931,375.4419 L616.5931,378.1606 Z " fill="#000000"/><text fill="#000000" font-family="Verdana" font-size="14" font-weight="bold" lengthAdjust="spacing" textLength="53.3408" x="631.1243" y="377.3667">PayPal</text><line style="stroke:#000000;stroke-width:1;" x1="499.93" x2="788.1595" y1="386.52" y2="386.52"/><text fill="#000000" font-family="Verdana" font-size="14" lengthAdjust="spacing" textLength="94.6094" x="504.93" y="403.5151">-email: String</text><line style="stroke:#000000;stroke-width:1;" x1="499.93" x2="788.1595" y1="410.8169" y2="410.8169"/><text fill="#000000" font-family="Verdana" font-size="14" lengthAdjust="spacing" textLength="278.2295" x="504.93" y="427.812">+PayPal(amount: double, email: String)</text><text fill="#000000" font-family="Verdana" font-size="14" lengthAdjust="spacing" textLength="203.8203" x="504.93" y="444.1089">+processPayment(): boolean</text><text fill="#000000" font-family="Verdana" font-size="14" lengthAdjust="spacing" textLength="209.9521" x="504.93" y="460.4057">+getTransactionFee(): double</text></g><!--class BankTransfer--><g class="entity" data-entity="BankTransfer" data-source-line="30" data-uid="ent0005" id="entity_BankTransfer"><rect fill="#FFFFFF" height="109.1875" rx="2.5" ry="2.5" style="stroke:#000000;stroke-width:1;" width="329.1465" x="824.47" y="358.52"/><ellipse cx="932.2498" cy="372.52" fill="#FFFFFF" rx="9" ry="9" style="stroke:#000000;stroke-width:1;"/><path d="M935.2185,378.1606 Q934.6404,378.4575 933.9998,378.5981 Q933.3592,378.7544 932.656,378.7544 Q930.156,378.7544 928.8279,377.1138 Q927.5154,375.4575 927.5154,372.3325 Q927.5154,369.2075 928.8279,367.5513 Q930.156,365.895 932.656,365.895 Q933.3592,365.895 933.9998,366.0513 Q934.656,366.2075 935.2185,366.5044 L935.2185,369.2231 Q934.5935,368.645 933.9998,368.3794 Q933.406,368.0981 932.781,368.0981 Q931.4373,368.0981 930.7498,369.1763 Q930.0623,370.2388 930.0623,372.3325 Q930.0623,374.4263 930.7498,375.5044 Q931.4373,376.5669 932.781,376.5669 Q933.406,376.5669 933.9998,376.3013 Q934.5935,376.02 935.2185,375.4419 L935.2185,378.1606 Z " fill="#000000"/><text fill="#000000" font-family="Verdana" font-size="14" font-weight="bold" lengthAdjust="spacing" textLength="106.0869" x="949.7498" y="377.3667">BankTransfer</text><line style="stroke:#000000;stroke-width:1;" x1="825.47" x2="1152.6165" y1="386.52" y2="386.52"/><text fill="#000000" font-family="Verdana" font-size="14" lengthAdjust="spacing" textLength="86.2285" x="830.47" y="403.5151">-iban: String</text><line style="stroke:#000000;stroke-width:1;" x1="825.47" x2="1152.6165" y1="410.8169" y2="410.8169"/><text fill="#000000" font-family="Verdana" font-size="14" lengthAdjust="spacing" textLength="317.1465" x="830.47" y="427.812">+BankTransfer(amount: double, iban: String)</text><text fill="#000000" font-family="Verdana" font-size="14" lengthAdjust="spacing" textLength="203.8203" x="830.47" y="444.1089">+processPayment(): boolean</text><text fill="#000000" font-family="Verdana" font-size="14" lengthAdjust="spacing" textLength="209.9521" x="830.47" y="460.4057">+getTransactionFee(): double</text></g><!--class PaymentProcessor--><g class="entity" data-entity="PaymentProcessor" data-source-line="37" data-uid="ent0006" id="entity_PaymentProcessor"><rect fill="#FFFFFF" height="76.5938" rx="2.5" ry="2.5" style="stroke:#000000;stroke-width:1;" width="430.3936" x="428.85" y="12"/><ellipse cx="566.6259" cy="26" fill="#FFFFFF" rx="9" ry="9" style="stroke:#000000;stroke-width:1;"/><path d="M569.5946,31.6406 Q569.0165,31.9375 568.3759,32.0781 Q567.7353,32.2344 567.0321,32.2344 Q564.5321,32.2344 563.204,30.5938 Q561.8915,28.9375 561.8915,25.8125 Q561.8915,22.6875 563.204,21.0313 Q564.5321,19.375 567.0321,19.375 Q567.7353,19.375 568.3759,19.5313 Q569.0321,19.6875 569.5946,19.9844 L569.5946,22.7031 Q568.9696,22.125 568.3759,21.8594 Q567.7821,21.5781 567.1571,21.5781 Q565.8134,21.5781 565.1259,22.6563 Q564.4384,23.7188 564.4384,25.8125 Q564.4384,27.9063 565.1259,28.9844 Q565.8134,30.0469 567.1571,30.0469 Q567.7821,30.0469 568.3759,29.7813 Q568.9696,29.5 569.5946,28.9219 L569.5946,31.6406 Z " fill="#000000"/><text fill="#000000" font-family="Verdana" font-size="14" font-weight="bold" lengthAdjust="spacing" textLength="147.3418" x="584.1259" y="30.8467">PaymentProcessor</text><line style="stroke:#000000;stroke-width:1;" x1="429.85" x2="858.2436" y1="40" y2="40"/><line style="stroke:#000000;stroke-width:1;" x1="429.85" x2="858.2436" y1="48" y2="48"/><text fill="#000000" font-family="Verdana" font-size="14" lengthAdjust="spacing" textLength="357.2119" x="434.85" y="64.9951">+executePayment(method: PaymentMethod): void</text><text fill="#000000" font-family="Verdana" font-size="14" lengthAdjust="spacing" textLength="418.3936" x="434.85" y="81.292">+displayPaymentSummary(method: PaymentMethod): void</text></g><!--reverse link PaymentMethod to CreditCard--><g class="link" data-entity-1="PaymentMethod" data-entity-2="CreditCard" data-source-line="42" data-uid="lnk7" id="link_PaymentMethod_CreditCard"><path codeLine="42" d="M497.3527,289.7243 C451.3227,311.4543 415.84,328.2 369.71,349.97" fill="none" id="PaymentMethod-backto-CreditCard" style="stroke:#000000;stroke-width:1;"/><polygon fill="none" points="513.63,282.04,494.7912,284.2985,499.9141,295.15,513.63,282.04" style="stroke:#000000;stroke-width:1;"/></g><!--reverse link PaymentMethod to PayPal--><g class="link" data-entity-1="PaymentMethod" data-entity-2="PayPal" data-source-line="43" data-uid="lnk8" id="link_PaymentMethod_PayPal"><path codeLine="43" d="M644.04,308.75 C644.04,330.97 644.04,337.17 644.04,358.07" fill="none" id="PaymentMethod-backto-PayPal" style="stroke:#000000;stroke-width:1;"/><polygon fill="none" points="644.04,290.75,638.04,308.75,650.04,308.75,644.04,290.75" style="stroke:#000000;stroke-width:1;"/></g><!--reverse link PaymentMethod to BankTransfer--><g class="link" data-entity-1="PaymentMethod" data-entity-2="BankTransfer" data-source-line="44" data-uid="lnk9" id="link_PaymentMethod_BankTransfer"><path codeLine="44" d="M786.2852,299.4909 C826.2852,321.7109 854.11,337.17 891.73,358.07" fill="none" id="PaymentMethod-backto-BankTransfer" style="stroke:#000000;stroke-width:1;"/><polygon fill="none" points="770.55,290.75,783.3716,304.736,789.1988,294.2458,770.55,290.75" style="stroke:#000000;stroke-width:1;"/></g><!--link PaymentProcessor to PaymentMethod--><g class="link" data-entity-1="PaymentProcessor" data-entity-2="PaymentMethod" data-source-line="45" data-uid="lnk10" id="link_PaymentProcessor_PaymentMethod"><path codeLine="45" d="M644.04,88.82 C644.04,106.34 644.04,121.79 644.04,142.16" fill="none" id="PaymentProcessor-to-PaymentMethod" style="stroke:#000000;stroke-width:1;"/><polygon fill="#000000" points="644.04,148.16,648.04,139.16,644.04,143.16,640.04,139.16,644.04,148.16" style="stroke:#000000;stroke-width:1;"/></g><!--SRC=[hLFBRi8m4BpxArpr0gAHUaPL9Og4r4ChfFG7ricMMlY1x0rgIldtEZ4Kco1EtEATcVNCPdr7NwYHRnH8mvXVIxC11vfN2hoV4Jaf6iBNoffI_Y1_FASihA6IMeLSM5Kp1iAJWueYofVGQZJqXlHbQxvZdD-3jesXAQzj8nI6oYGZZN9yt15MIBE-EXgdkjtniZtVE5kXzuTE7KrOgn3C6Izq-d1WV3X8QnQ8USSEjWHgSDkUiHXexh2MD0SNqnHL-7flj40tvMMObbdrrUqsEKvEehDq3toe3xMJkez_DTorHF-kWtG9AZf63LAbxY8uS9RnRkJZ1SowPtsYYswa09EQIHa3IodvTfFffClOo4PN4_p6AgpziQ_kDtEQRtDejhMoxkYrzE41jGUuRBG6rrvN1GFvstZwBOfakowXyKTTGjAfiK6aedZEJJ36_W00]--></g></svg>