<svg xmlns="http://www.w3.org/2000/svg" xmlns:xlink="http://www.w3.org/1999/xlink" contentStyleType="text/css" data-diagram-type="CLASS" height="330px" preserveAspectRatio="none" style="width:675px;height:330px;background:#FFFFFF;" version="1.1" viewBox="0 0 675 330" width="675px" zoomAndPan="magnify"><defs/><g><!--class Address--><g class="entity" data-entity="Address" data-source-line="6" data-uid="ent0002" id="entity_Address"><rect fill="#FFFFFF" height="125.4844" rx="2.5" ry="2.5" style="stroke:#000000;stroke-width:1;" width="406.7686" x="12" y="198.19"/><ellipse cx="179.6626" cy="212.19" fill="#FFFFFF" rx="9" ry="9" style="stroke:#000000;stroke-width:1;"/><path d="M182.6313,217.8306 Q182.0532,218.1275 181.4126,218.2681 Q180.772,218.4244 180.0688,218.4244 Q177.5688,218.4244 176.2407,216.7838 Q174.9282,215.1275 174.9282,212.0025 Q174.9282,208.8775 176.2407,207.2213 Q177.5688,205.565 180.0688,205.565 Q180.772,205.565 181.4126,205.7213 Q182.0688,205.8775 182.6313,206.1744 L182.6313,208.8931 Q182.0063,208.315 181.4126,208.0494 Q180.8188,207.7681 180.1938,207.7681 Q178.8501,207.7681 178.1626,208.8463 Q177.4751,209.9088 177.4751,212.0025 Q177.4751,214.0963 178.1626,215.1744 Q178.8501,216.2369 180.1938,216.2369 Q180.8188,216.2369 181.4126,215.9713 Q182.0063,215.69 182.6313,215.1119 L182.6313,217.8306 Z " fill="#000000"/><text fill="#000000" font-family="Verdana" font-size="14" font-weight="bold" lengthAdjust="spacing" textLength="63.9434" x="197.1626" y="217.0367">Address</text><line style="stroke:#000000;stroke-width:1;" x1="13" x2="417.7686" y1="226.19" y2="226.19"/><text fill="#000000" font-family="Verdana" font-size="14" lengthAdjust="spacing" textLength="97.2549" x="18" y="243.1851">-street: String</text><text fill="#000000" font-family="Verdana" font-size="14" lengthAdjust="spacing" textLength="81.3613" x="18" y="259.482">-city: String</text><text fill="#000000" font-family="Verdana" font-size="14" lengthAdjust="spacing" textLength="134.5449" x="18" y="275.7789">-postalCode: String</text><line style="stroke:#000000;stroke-width:1;" x1="13" x2="417.7686" y1="283.0806" y2="283.0806"/><text fill="#000000" font-family="Verdana" font-size="14" lengthAdjust="spacing" textLength="394.7686" x="18" y="300.0757">+Address(street: String, city: String, postalCode: String)</text><text fill="#000000" font-family="Verdana" font-size="14" lengthAdjust="spacing" textLength="129.4385" x="18" y="316.3726">+toString(): String</text></g><!--class Employee--><g class="entity" data-entity="Employee" data-source-line="14" data-uid="ent0003" id="entity_Employee"><rect fill="#FFFFFF" height="109.1875" rx="2.5" ry="2.5" style="stroke:#000000;stroke-width:1;" width="324.3271" x="53.22" y="12"/><ellipse cx="173.2805" cy="26" fill="#FFFFFF" rx="9" ry="9" style="stroke:#000000;stroke-width:1;"/><path d="M176.2493,31.6406 Q175.6712,31.9375 175.0305,32.0781 Q174.3899,32.2344 173.6868,32.2344 Q171.1868,32.2344 169.8587,30.5938 Q168.5462,28.9375 168.5462,25.8125 Q168.5462,22.6875 169.8587,21.0313 Q171.1868,19.375 173.6868,19.375 Q174.3899,19.375 175.0305,19.5313 Q175.6868,19.6875 176.2493,19.9844 L176.2493,22.7031 Q175.6243,22.125 175.0305,21.8594 Q174.4368,21.5781 173.8118,21.5781 Q172.468,21.5781 171.7805,22.6563 Q171.093,23.7188 171.093,25.8125 Q171.093,27.9063 171.7805,28.9844 Q172.468,30.0469 173.8118,30.0469 Q174.4368,30.0469 175.0305,29.7813 Q175.6243,29.5 176.2493,28.9219 L176.2493,31.6406 Z " fill="#000000"/><text fill="#000000" font-family="Verdana" font-size="14" font-weight="bold" lengthAdjust="spacing" textLength="76.7061" x="190.7805" y="30.8467">Employee</text><line style="stroke:#000000;stroke-width:1;" x1="54.22" x2="376.5471" y1="40" y2="40"/><text fill="#000000" font-family="Verdana" font-size="14" lengthAdjust="spacing" textLength="95.7031" x="59.22" y="56.9951">-name: String</text><text fill="#000000" font-family="Verdana" font-size="14" lengthAdjust="spacing" textLength="125.8359" x="59.22" y="73.292">-address: Address</text><line style="stroke:#000000;stroke-width:1;" x1="54.22" x2="376.5471" y1="80.5938" y2="80.5938"/><text fill="#000000" font-family="Verdana" font-size="14" lengthAdjust="spacing" textLength="312.3271" x="59.22" y="97.5889">+Employee(name: String, address: Address)</text><text fill="#000000" font-family="Verdana" font-size="14" lengthAdjust="spacing" textLength="137.6553" x="59.22" y="113.8857">+displayInfo(): void</text></g><g class="entity" data-entity="GMN5" data-source-line="24" data-uid="ent0006" id="entity_GMN5"><path d="M412.6,38.89 L412.6,62.59 L377.88,66.59 L412.6,70.59 L412.6,94.2884 A0,0 0 0 0 412.6,94.2884 L668.1586,94.2884 A0,0 0 0 0 668.1586,94.2884 L668.1586,48.89 L658.1586,38.89 L412.6,38.89 A0,0 0 0 0 412.6,38.89" fill="#FFFFFF" style="stroke:#000000;stroke-width:1;"/><path d="M658.1586,38.89 L658.1586,48.89 L668.1586,48.89 L658.1586,38.89" fill="#FFFFFF" style="stroke:#000000;stroke-width:1;"/><text fill="#000000" font-family="Verdana" font-size="13" lengthAdjust="spacing" textLength="234.5586" x="418.6" y="55.9569">Composition: Employee "a" Address</text><text fill="#000000" font-family="Verdana" font-size="13" lengthAdjust="spacing" textLength="169.4443" x="418.6" y="71.0897">Pr&#233;f&#233;rable &#224; l'h&#233;ritage car</text><text fill="#000000" font-family="Verdana" font-size="13" lengthAdjust="spacing" textLength="204.3501" x="418.6" y="86.2225">Employee n'est pas un Address</text></g><!--link Employee to Address--><g class="link" data-entity-1="Employee" data-entity-2="Address" data-source-line="21" data-uid="lnk4" id="link_Employee_Address"><path codeLine="21" d="M215.38,121.68 C215.38,145.35 215.38,167.25 215.38,191.77" fill="none" id="Employee-to-Address" style="stroke:#000000;stroke-width:1;"/><polygon fill="#000000" points="215.38,197.77,219.38,188.77,215.38,192.77,211.38,188.77,215.38,197.77" style="stroke:#000000;stroke-width:1;"/><text fill="#000000" font-family="Verdana" font-size="13" lengthAdjust="spacing" textLength="79.2568" x="216.38" y="164.2569">composition</text></g><!--SRC=[PL5BQiCm4Dth5DDiub0RklQY448AsHLy0jaQswAonaYJWbjwbsvp3b-iSbmhRheIRtY_6JrmYnr2RwIsGlWtRNlfP0ULaTxlcPqkpuodYcoXFn2UxYalPBdWmI2KP9GGro7ibN8Otay1a7bsY9n34SniCqqgpSCQz-HPcWCfN4qVVqsIl_eKrkeK_cjtavXf1iakMdujxOvTRsX0dEjPsQrZCpd7viiIazkYIDRa5EwfrsIbVRZcSB8rJU7lfDKK7KEpx3dU9uUAkh21PatX_9OOmUccPQ0wrWocXnihlzNVoCsgvAiRB_LuSR8Cdp5-Wzcs0McM3K8bNM14eTsYP-YbXxED3cWLJ0M443y0]--></g></svg>