<svg xmlns="http://www.w3.org/2000/svg" xmlns:xlink="http://www.w3.org/1999/xlink" contentStyleType="text/css" data-diagram-type="CLASS" height="193px" preserveAspectRatio="none" style="width:453px;height:193px;background:#FFFFFF;" version="1.1" viewBox="0 0 453 193" width="453px" zoomAndPan="magnify"><defs/><g><!--class Person--><g class="entity" data-entity="Person" data-source-line="6" data-uid="ent0002" id="entity_Person"><rect fill="#FFFFFF" height="174.375" rx="2.5" ry="2.5" style="stroke:#000000;stroke-width:1;" width="226.7988" x="12" y="12"/><ellipse cx="94.3604" cy="26" fill="#FFFFFF" rx="9" ry="9" style="stroke:#000000;stroke-width:1;"/><path d="M97.3291,31.6406 Q96.751,31.9375 96.1104,32.0781 Q95.4697,32.2344 94.7666,32.2344 Q92.2666,32.2344 90.9385,30.5938 Q89.626,28.9375 89.626,25.8125 Q89.626,22.6875 90.9385,21.0313 Q92.2666,19.375 94.7666,19.375 Q95.4697,19.375 96.1104,19.5313 Q96.7666,19.6875 97.3291,19.9844 L97.3291,22.7031 Q96.7041,22.125 96.1104,21.8594 Q95.5166,21.5781 94.8916,21.5781 Q93.5479,21.5781 92.8604,22.6563 Q92.1729,23.7188 92.1729,25.8125 Q92.1729,27.9063 92.8604,28.9844 Q93.5479,30.0469 94.8916,30.0469 Q95.5166,30.0469 96.1104,29.7813 Q96.7041,29.5 97.3291,28.9219 L97.3291,31.6406 Z " fill="#000000"/><text fill="#000000" font-family="Verdana" font-size="14" font-weight="bold" lengthAdjust="spacing" textLength="54.5781" x="111.8604" y="30.8467">Person</text><line style="stroke:#000000;stroke-width:1;" x1="13" x2="237.7988" y1="40" y2="40"/><text fill="#000000" font-family="Verdana" font-size="14" lengthAdjust="spacing" textLength="95.7031" x="18" y="56.9951">-name: String</text><text fill="#000000" font-family="Verdana" font-size="14" lengthAdjust="spacing" textLength="58.5498" x="18" y="73.292">-age: int</text><text fill="#000000" font-family="Verdana" font-size="14" lengthAdjust="spacing" textLength="94.6094" x="18" y="89.5889">-email: String</text><line style="stroke:#000000;stroke-width:1;" x1="13" x2="237.7988" y1="96.8906" y2="96.8906"/><text fill="#000000" font-family="Verdana" font-size="14" lengthAdjust="spacing" textLength="137.8945" x="18" y="113.8857">+getName(): String</text><text fill="#000000" font-family="Verdana" font-size="14" lengthAdjust="spacing" textLength="100.1396" x="18" y="130.1826">+getAge(): int</text><text fill="#000000" font-family="Verdana" font-size="14" lengthAdjust="spacing" textLength="135.4336" x="18" y="146.4795">+getEmail(): String</text><text fill="#000000" font-family="Verdana" font-size="14" lengthAdjust="spacing" textLength="214.7988" x="18" y="162.7764">+setName(name: String): void</text><text fill="#000000" font-family="Verdana" font-size="14" lengthAdjust="spacing" textLength="211.2441" x="18" y="179.0732">+setEmail(email: String): void</text></g><g class="entity" data-entity="GMN3" data-source-line="18" data-uid="ent0004" id="entity_GMN3"><path d="M274,71.49 L274,95.19 L239.23,99.19 L274,103.19 L274,126.8884 A0,0 0 0 0 274,126.8884 L446.8042,126.8884 A0,0 0 0 0 446.8042,126.8884 L446.8042,81.49 L436.8042,71.49 L274,71.49 A0,0 0 0 0 274,71.49" fill="#FFFFFF" style="stroke:#000000;stroke-width:1;"/><path d="M436.8042,71.49 L436.8042,81.49 L446.8042,81.49 L436.8042,71.49" fill="#FFFFFF" style="stroke:#000000;stroke-width:1;"/><text fill="#000000" font-family="Verdana" font-size="13" lengthAdjust="spacing" textLength="135.1479" x="280" y="88.5569">Attributs priv&#233;s avec</text><text fill="#000000" font-family="Verdana" font-size="13" lengthAdjust="spacing" textLength="117.1333" x="280" y="103.6897">getters et setters.</text><text fill="#000000" font-family="Verdana" font-size="13" lengthAdjust="spacing" textLength="151.8042" x="280" y="118.8225">Pas de setter pour age.</text></g><!--SRC=[NP11RW8n34NtFiNl3bGLiUwE1PMwgP3c1676X8YCCqhCI6tL0_KSlLWTPf20dVtzVhwT9propnYY2q9KJa46brsFDhfIDgevxC_AxssI9dmnre_8Mn9jz3CozYbsH1SHEyub2Ru9U17NyoiQUqbyxPstDeZMcdiNuitmsRD-6BzOFeWRVz4cMnMsrNcFbTbx6sZ0c48tZoVJNUWL-26If8mS_56H3lC9Phn-Gi6Gm_ZtM-16RcrWMwX1O4MPofMfErVGyQnWIESCktX5B1rg0X7z0m00]--></g></svg>