<svg xmlns="http://www.w3.org/2000/svg" xmlns:xlink="http://www.w3.org/1999/xlink" contentStyleType="text/css" data-diagram-type="CLASS" height="177px" preserveAspectRatio="none" style="width:987px;height:177px;background:#FFFFFF;" version="1.1" viewBox="0 0 987 177" width="987px" zoomAndPan="magnify"><defs/><g><!--class UserBefore--><g class="entity" data-entity="UserBefore" data-source-line="3" data-uid="ent0002" id="entity_UserBefore"><rect fill="#FFFFFF" height="92.8906" rx="2.5" ry="2.5" style="stroke:#000000;stroke-width:1;" width="145.1875" x="12" y="44.6"/><ellipse cx="38.5439" cy="58.6" fill="#FFFFFF" rx="9" ry="9" style="stroke:#000000;stroke-width:1;"/><path d="M41.5127,64.2406 Q40.9346,64.5375 40.2939,64.6781 Q39.6533,64.8344 38.9502,64.8344 Q36.4502,64.8344 35.1221,63.1938 Q33.8096,61.5375 33.8096,58.4125 Q33.8096,55.2875 35.1221,53.6313 Q36.4502,51.975 38.9502,51.975 Q39.6533,51.975 40.2939,52.1313 Q40.9502,52.2875 41.5127,52.5844 L41.5127,55.3031 Q40.8877,54.725 40.2939,54.4594 Q39.7002,54.1781 39.0752,54.1781 Q37.7314,54.1781 37.0439,55.2563 Q36.3564,56.3188 36.3564,58.4125 Q36.3564,60.5063 37.0439,61.5844 Q37.7314,62.6469 39.0752,62.6469 Q39.7002,62.6469 40.2939,62.3813 Q40.8877,62.1 41.5127,61.5219 L41.5127,64.2406 Z " fill="#000000"/><text fill="#000000" font-family="Verdana" font-size="14" lengthAdjust="spacing" textLength="87.0898" x="53.5537" y="63.4467">User (avant)</text><line style="stroke:#000000;stroke-width:1;" x1="13" x2="156.1875" y1="72.6" y2="72.6"/><ellipse cx="23" cy="86.2484" fill="none" rx="3" ry="3" style="stroke:#000000;stroke-width:1;"/><text fill="#000000" font-family="Verdana" font-size="14" lengthAdjust="spacing" textLength="121.1875" x="30" y="89.5951">username: String</text><ellipse cx="23" cy="102.5453" fill="none" rx="3" ry="3" style="stroke:#000000;stroke-width:1;"/><text fill="#000000" font-family="Verdana" font-size="14" lengthAdjust="spacing" textLength="117.6602" x="30" y="105.892">password: String</text><ellipse cx="23" cy="118.8422" fill="none" rx="3" ry="3" style="stroke:#000000;stroke-width:1;"/><text fill="#000000" font-family="Verdana" font-size="14" lengthAdjust="spacing" textLength="89.5576" x="30" y="122.1889">email: String</text><line style="stroke:#000000;stroke-width:1;" x1="13" x2="156.1875" y1="129.4906" y2="129.4906"/></g><!--class UserAfter--><g class="entity" data-entity="UserAfter" data-source-line="9" data-uid="ent0003" id="entity_UserAfter"><rect fill="#FFFFFF" height="158.0781" rx="2.5" ry="2.5" style="stroke:#000000;stroke-width:1;" width="279.042" x="424.07" y="12"/><ellipse cx="516.6345" cy="26" fill="#FFFFFF" rx="9" ry="9" style="stroke:#000000;stroke-width:1;"/><path d="M519.6032,31.6406 Q519.0251,31.9375 518.3845,32.0781 Q517.7438,32.2344 517.0407,32.2344 Q514.5407,32.2344 513.2126,30.5938 Q511.9001,28.9375 511.9001,25.8125 Q511.9001,22.6875 513.2126,21.0313 Q514.5407,19.375 517.0407,19.375 Q517.7438,19.375 518.3845,19.5313 Q519.0407,19.6875 519.6032,19.9844 L519.6032,22.7031 Q518.9782,22.125 518.3845,21.8594 Q517.7907,21.5781 517.1657,21.5781 Q515.822,21.5781 515.1345,22.6563 Q514.447,23.7188 514.447,25.8125 Q514.447,27.9063 515.1345,28.9844 Q515.822,30.0469 517.1657,30.0469 Q517.7907,30.0469 518.3845,29.7813 Q518.9782,29.5 519.6032,28.9219 L519.6032,31.6406 Z " fill="#000000"/><text fill="#000000" font-family="Verdana" font-size="14" lengthAdjust="spacing" textLength="86.4131" x="534.1345" y="30.8467">User (apr&#232;s)</text><line style="stroke:#000000;stroke-width:1;" x1="425.07" x2="702.112" y1="40" y2="40"/><rect fill="none" height="6" style="stroke:#000000;stroke-width:1;" width="6" x="432.07" y="50.6484"/><text fill="#000000" font-family="Verdana" font-size="14" lengthAdjust="spacing" textLength="121.1875" x="442.07" y="56.9951">username: String</text><rect fill="none" height="6" style="stroke:#000000;stroke-width:1;" width="6" x="432.07" y="66.9453"/><text fill="#000000" font-family="Verdana" font-size="14" lengthAdjust="spacing" textLength="117.6602" x="442.07" y="73.292">password: String</text><rect fill="none" height="6" style="stroke:#000000;stroke-width:1;" width="6" x="432.07" y="83.2422"/><text fill="#000000" font-family="Verdana" font-size="14" lengthAdjust="spacing" textLength="89.5576" x="442.07" y="89.5889">email: String</text><line style="stroke:#000000;stroke-width:1;" x1="425.07" x2="702.112" y1="96.8906" y2="96.8906"/><ellipse cx="435.07" cy="110.5391" fill="#FFFFFF" rx="3" ry="3" style="stroke:#000000;stroke-width:1;"/><text fill="#000000" font-family="Verdana" font-size="14" lengthAdjust="spacing" textLength="156.4746" x="442.07" y="113.8857">getUsername(): String</text><ellipse cx="435.07" cy="126.8359" fill="#FFFFFF" rx="3" ry="3" style="stroke:#000000;stroke-width:1;"/><text fill="#000000" font-family="Verdana" font-size="14" lengthAdjust="spacing" textLength="255.042" x="442.07" y="130.1826">setPassword(password: String): void</text><ellipse cx="435.07" cy="143.1328" fill="#FFFFFF" rx="3" ry="3" style="stroke:#000000;stroke-width:1;"/><text fill="#000000" font-family="Verdana" font-size="14" lengthAdjust="spacing" textLength="123.7031" x="442.07" y="146.4795">getEmail(): String</text><ellipse cx="435.07" cy="159.4297" fill="#FFFFFF" rx="3" ry="3" style="stroke:#000000;stroke-width:1;"/><text fill="#000000" font-family="Verdana" font-size="14" lengthAdjust="spacing" textLength="199.5137" x="442.07" y="162.7764">setEmail(email: String): void</text></g><g class="entity" data-entity="GMN4" data-source-line="20" data-uid="ent0005" id="entity_GMN4"><path d="M192.26,70.91 L192.26,87.04 L157.42,91.04 L192.26,95.04 L192.26,111.1756 A0,0 0 0 0 192.26,111.1756 L388.9314,111.1756 A0,0 0 0 0 388.9314,111.1756 L388.9314,80.91 L378.9314,70.91 L192.26,70.91 A0,0 0 0 0 192.26,70.91" fill="#FFFFFF" style="stroke:#000000;stroke-width:1;"/><path d="M378.9314,70.91 L378.9314,80.91 L388.9314,80.91 L378.9314,70.91" fill="#FFFFFF" style="stroke:#000000;stroke-width:1;"/><text fill="#000000" font-family="Verdana" font-size="13" lengthAdjust="spacing" textLength="175.6714" x="198.26" y="87.9769">Probl&#232;me: attributs publics</text><text fill="#000000" font-family="Verdana" font-size="13" lengthAdjust="spacing" textLength="151.2266" x="198.26" y="103.1097">Aucun contr&#244;le d'acc&#232;s</text></g><g class="entity" data-entity="GMN7" data-source-line="25" data-uid="ent0008" id="entity_GMN7"><path d="M738.45,63.34 L738.45,87.04 L703.5,91.04 L738.45,95.04 L738.45,118.7384 A0,0 0 0 0 738.45,118.7384 L980.7356,118.7384 A0,0 0 0 0 980.7356,118.7384 L980.7356,73.34 L970.7356,63.34 L738.45,63.34 A0,0 0 0 0 738.45,63.34" fill="#FFFFFF" style="stroke:#000000;stroke-width:1;"/><path d="M970.7356,63.34 L970.7356,73.34 L980.7356,73.34 L970.7356,63.34" fill="#FFFFFF" style="stroke:#000000;stroke-width:1;"/><text fill="#000000" font-family="Verdana" font-size="13" lengthAdjust="spacing" textLength="160.7544" x="744.45" y="80.4069">Solution: attributs priv&#233;s</text><text fill="#000000" font-family="Verdana" font-size="13" lengthAdjust="spacing" textLength="221.2856" x="744.45" y="95.5397">Acc&#232;s contr&#244;l&#233; par getters/setters</text><text fill="#000000" font-family="Verdana" font-size="13" lengthAdjust="spacing" textLength="188.6777" x="744.45" y="110.6725">Pas de setter pour username</text></g><!--SRC=[RP11ReCm44Ntd6AQJOaYr7rtgTHzf2W7C6OWbenjsMEwg7gVPDyRSB6EWIIGihByxV_-p7-XCxO8JWjbiang4G9iJW4zvA8JXhOR406Iy86rzGZV6S0kyjs85j_XI5wP9ccEhL_MLtCDMw7qNVXv3d2-luH7mhucbbD0iH9Gh0GKom1ER91EapVVpXy2qc42vCya_jXPLKt-pyJyPnxLHTxDndiPImXUDMS2My_gOlF1srBtbxIB8FQLaGAuM6eb0p_leum6f3Na-r-DKBqAARcM34q52Ri67vfYyz7gICgQ1TghhhyEw05qP_TNSC83RyZcy1R6Cqt8_LS8em3EHW-t_XzJ_040]--></g></svg>