<svg xmlns="http://www.w3.org/2000/svg" xmlns:xlink="http://www.w3.org/1999/xlink" contentStyleType="text/css" data-diagram-type="CLASS" height="482px" preserveAspectRatio="none" style="width:1160px;height:482px;background:#FFFFFF;" version="1.1" viewBox="0 0 1160 482" width="1160px" zoomAndPan="magnify"><defs/><g><!--class PaymentMethod--><g class="entity" data-entity="PaymentMethod" data-source-line="3" data-uid="ent0002" id="entity_PaymentMethod"><rect fill="#FFFFFF" height="141.7813" rx="2.5" ry="2.5" style="stroke:#000000;stroke-width:1;" width="260.25" x="514.05" y="148.59"/><ellipse cx="583.2116" cy="162.59" fill="#FFFFFF" rx="9" ry="9" style="stroke:#000000;stroke-width:1;"/><path d="M583.321,157.9338 L582.1647,163.0119 L584.4929,163.0119 L583.321,157.9338 Z M581.8366,155.6994 L584.821,155.6994 L588.1804,168.09 L585.7272,168.09 L584.9616,165.0275 L581.6804,165.0275 L580.9304,168.09 L578.4929,168.09 L581.8366,155.6994 Z " fill="#000000"/><text fill="#000000" font-family="Verdana" font-size="14" font-style="italic" lengthAdjust="spacing" textLength="114.4268" x="600.7116" y="167.4367">PaymentMethod</text><line style="stroke:#000000;stroke-width:1;" x1="515.05" x2="773.3" y1="176.59" y2="176.59"/><polygon fill="none" points="525.05,185.2384,529.05,189.2384,525.05,193.2384,521.05,189.2384" style="stroke:#000000;stroke-width:1;"/><text fill="#000000" font-family="Verdana" font-size="14" lengthAdjust="spacing" textLength="110.8994" x="532.05" y="193.5851">amount: double</text><line style="stroke:#000000;stroke-width:1;" x1="515.05" x2="773.3" y1="200.8869" y2="200.8869"/><ellipse cx="525.05" cy="214.5353" fill="#FFFFFF" rx="3" ry="3" style="stroke:#000000;stroke-width:1;"/><text fill="#000000" font-family="Verdana" font-size="14" lengthAdjust="spacing" textLength="236.25" x="532.05" y="217.882">PaymentMethod(amount: double)</text><ellipse cx="525.05" cy="230.8322" fill="#FFFFFF" rx="3" ry="3" style="stroke:#000000;stroke-width:1;"/><text fill="#000000" font-family="Verdana" font-size="14" lengthAdjust="spacing" textLength="145.8105" x="532.05" y="234.1789">getAmount(): double</text><ellipse cx="525.05" cy="247.1291" fill="#FFFFFF" rx="3" ry="3" style="stroke:#000000;stroke-width:1;"/><text fill="#000000" font-family="Verdana" font-size="14" font-style="italic" lengthAdjust="spacing" textLength="192.0898" x="532.05" y="250.4757">processPayment(): boolean</text><ellipse cx="525.05" cy="263.4259" fill="#FFFFFF" rx="3" ry="3" style="stroke:#000000;stroke-width:1;"/><text fill="#000000" font-family="Verdana" font-size="14" font-style="italic" lengthAdjust="spacing" textLength="198.2217" x="532.05" y="266.7726">getTransactionFee(): double</text><ellipse cx="525.05" cy="279.7228" fill="#FFFFFF" rx="3" ry="3" style="stroke:#000000;stroke-width:1;"/><text fill="#000000" font-family="Verdana" font-size="14" lengthAdjust="spacing" textLength="180.8857" x="532.05" y="283.0695">getTotalAmount(): double</text></g><!--class CreditCard--><g class="entity" data-entity="CreditCard" data-source-line="12" data-uid="ent0003" id="entity_CreditCard"><rect fill="#FFFFFF" height="125.4844" rx="2.5" ry="2.5" style="stroke:#000000;stroke-width:1;" width="452.3535" x="12" y="350.38"/><ellipse cx="196.7231" cy="364.38" fill="#FFFFFF" rx="9" ry="9" style="stroke:#000000;stroke-width:1;"/><path d="M199.6919,370.0206 Q199.1138,370.3175 198.4731,370.4581 Q197.8325,370.6144 197.1294,370.6144 Q194.6294,370.6144 193.3013,368.9738 Q191.9888,367.3175 191.9888,364.1925 Q191.9888,361.0675 193.3013,359.4113 Q194.6294,357.755 197.1294,357.755 Q197.8325,357.755 198.4731,357.9113 Q199.1294,358.0675 199.6919,358.3644 L199.6919,361.0831 Q199.0669,360.505 198.4731,360.2394 Q197.8794,359.9581 197.2544,359.9581 Q195.9106,359.9581 195.2231,361.0363 Q194.5356,362.0988 194.5356,364.1925 Q194.5356,366.2863 195.2231,367.3644 Q195.9106,368.4269 197.2544,368.4269 Q197.8794,368.4269 198.4731,368.1613 Q199.0669,367.88 199.6919,367.3019 L199.6919,370.0206 Z " fill="#000000"/><text fill="#000000" font-family="Verdana" font-size="14" lengthAdjust="spacing" textLength="75.4072" x="214.2231" y="369.2267">CreditCard</text><line style="stroke:#000000;stroke-width:1;" x1="13" x2="463.3535" y1="378.38" y2="378.38"/><rect fill="none" height="6" style="stroke:#000000;stroke-width:1;" width="6" x="20" y="389.0284"/><text fill="#000000" font-family="Verdana" font-size="14" lengthAdjust="spacing" textLength="138.1064" x="30" y="395.3751">cardNumber: String</text><rect fill="none" height="6" style="stroke:#000000;stroke-width:1;" width="6" x="20" y="405.3253"/><text fill="#000000" font-family="Verdana" font-size="14" lengthAdjust="spacing" textLength="75.2158" x="30" y="411.672">cvv: String</text><line style="stroke:#000000;stroke-width:1;" x1="13" x2="463.3535" y1="418.9738" y2="418.9738"/><ellipse cx="23" cy="432.6222" fill="#FFFFFF" rx="3" ry="3" style="stroke:#000000;stroke-width:1;"/><text fill="#000000" font-family="Verdana" font-size="14" lengthAdjust="spacing" textLength="428.3535" x="30" y="435.9689">CreditCard(amount: double, cardNumber: String, cvv: String)</text><ellipse cx="23" cy="448.9191" fill="#FFFFFF" rx="3" ry="3" style="stroke:#000000;stroke-width:1;"/><text fill="#000000" font-family="Verdana" font-size="14" lengthAdjust="spacing" textLength="192.0898" x="30" y="452.2657">processPayment(): boolean</text><ellipse cx="23" cy="465.2159" fill="#FFFFFF" rx="3" ry="3" style="stroke:#000000;stroke-width:1;"/><text fill="#000000" font-family="Verdana" font-size="14" lengthAdjust="spacing" textLength="198.2217" x="30" y="468.5626">getTransactionFee(): double</text></g><!--class PayPal--><g class="entity" data-entity="PayPal" data-source-line="20" data-uid="ent0004" id="entity_PayPal"><rect fill="#FFFFFF" height="109.1875" rx="2.5" ry="2.5" style="stroke:#000000;stroke-width:1;" width="290.499" x="498.93" y="358.52"/><ellipse cx="617.3206" cy="372.52" fill="#FFFFFF" rx="9" ry="9" style="stroke:#000000;stroke-width:1;"/><path d="M620.2894,378.1606 Q619.7113,378.4575 619.0706,378.5981 Q618.43,378.7544 617.7269,378.7544 Q615.2269,378.7544 613.8988,377.1138 Q612.5863,375.4575 612.5863,372.3325 Q612.5863,369.2075 613.8988,367.5513 Q615.2269,365.895 617.7269,365.895 Q618.43,365.895 619.0706,366.0513 Q619.7269,366.2075 620.2894,366.5044 L620.2894,369.2231 Q619.6644,368.645 619.0706,368.3794 Q618.4769,368.0981 617.8519,368.0981 Q616.5081,368.0981 615.8206,369.1763 Q615.1331,370.2388 615.1331,372.3325 Q615.1331,374.4263 615.8206,375.5044 Q616.5081,376.5669 617.8519,376.5669 Q618.4769,376.5669 619.0706,376.3013 Q619.6644,376.02 620.2894,375.4419 L620.2894,378.1606 Z " fill="#000000"/><text fill="#000000" font-family="Verdana" font-size="14" lengthAdjust="spacing" textLength="46.2178" x="634.8206" y="377.3667">PayPal</text><line style="stroke:#000000;stroke-width:1;" x1="499.93" x2="788.429" y1="386.52" y2="386.52"/><rect fill="none" height="6" style="stroke:#000000;stroke-width:1;" width="6" x="506.93" y="397.1684"/><text fill="#000000" font-family="Verdana" font-size="14" lengthAdjust="spacing" textLength="89.5576" x="516.93" y="403.5151">email: String</text><line style="stroke:#000000;stroke-width:1;" x1="499.93" x2="788.429" y1="410.8169" y2="410.8169"/><ellipse cx="509.93" cy="424.4653" fill="#FFFFFF" rx="3" ry="3" style="stroke:#000000;stroke-width:1;"/><text fill="#000000" font-family="Verdana" font-size="14" lengthAdjust="spacing" textLength="266.499" x="516.93" y="427.812">PayPal(amount: double, email: String)</text><ellipse cx="509.93" cy="440.7622" fill="#FFFFFF" rx="3" ry="3" style="stroke:#000000;stroke-width:1;"/><text fill="#000000" font-family="Verdana" font-size="14" lengthAdjust="spacing" textLength="192.0898" x="516.93" y="444.1089">processPayment(): boolean</text><ellipse cx="509.93" cy="457.0591" fill="#FFFFFF" rx="3" ry="3" style="stroke:#000000;stroke-width:1;"/><text fill="#000000" font-family="Verdana" font-size="14" lengthAdjust="spacing" textLength="198.2217" x="516.93" y="460.4057">getTransactionFee(): double</text></g><!--class BankTransfer--><g class="entity" data-entity="BankTransfer" data-source-line="27" data-uid="ent0005" id="entity_BankTransfer"><rect fill="#FFFFFF" height="109.1875" rx="2.5" ry="2.5" style="stroke:#000000;stroke-width:1;" width="329.416" x="824.47" y="358.52"/><ellipse cx="938.6702" cy="372.52" fill="#FFFFFF" rx="9" ry="9" style="stroke:#000000;stroke-width:1;"/><path d="M941.6389,378.1606 Q941.0608,378.4575 940.4202,378.5981 Q939.7796,378.7544 939.0764,378.7544 Q936.5764,378.7544 935.2483,377.1138 Q933.9358,375.4575 933.9358,372.3325 Q933.9358,369.2075 935.2483,367.5513 Q936.5764,365.895 939.0764,365.895 Q939.7796,365.895 940.4202,366.0513 Q941.0764,366.2075 941.6389,366.5044 L941.6389,369.2231 Q941.0139,368.645 940.4202,368.3794 Q939.8264,368.0981 939.2014,368.0981 Q937.8577,368.0981 937.1702,369.1763 Q936.4827,370.2388 936.4827,372.3325 Q936.4827,374.4263 937.1702,375.5044 Q937.8577,376.5669 939.2014,376.5669 Q939.8264,376.5669 940.4202,376.3013 Q941.0139,376.02 941.6389,375.4419 L941.6389,378.1606 Z " fill="#000000"/><text fill="#000000" font-family="Verdana" font-size="14" lengthAdjust="spacing" textLength="93.5156" x="956.1702" y="377.3667">BankTransfer</text><line style="stroke:#000000;stroke-width:1;" x1="825.47" x2="1152.886" y1="386.52" y2="386.52"/><rect fill="none" height="6" style="stroke:#000000;stroke-width:1;" width="6" x="832.47" y="397.1684"/><text fill="#000000" font-family="Verdana" font-size="14" lengthAdjust="spacing" textLength="81.1768" x="842.47" y="403.5151">iban: String</text><line style="stroke:#000000;stroke-width:1;" x1="825.47" x2="1152.886" y1="410.8169" y2="410.8169"/><ellipse cx="835.47" cy="424.4653" fill="#FFFFFF" rx="3" ry="3" style="stroke:#000000;stroke-width:1;"/><text fill="#000000" font-family="Verdana" font-size="14" lengthAdjust="spacing" textLength="305.416" x="842.47" y="427.812">BankTransfer(amount: double, iban: String)</text><ellipse cx="835.47" cy="440.7622" fill="#FFFFFF" rx="3" ry="3" style="stroke:#000000;stroke-width:1;"/><text fill="#000000" font-family="Verdana" font-size="14" lengthAdjust="spacing" textLength="192.0898" x="842.47" y="444.1089">processPayment(): boolean</text><ellipse cx="835.47" cy="457.0591" fill="#FFFFFF" rx="3" ry="3" style="stroke:#000000;stroke-width:1;"/><text fill="#000000" font-family="Verdana" font-size="14" lengthAdjust="spacing" textLength="198.2217" x="842.47" y="460.4057">getTransactionFee(): double</text></g><!--class PaymentProcessor--><g class="entity" data-entity="PaymentProcessor" data-source-line="34" data-uid="ent0006" id="entity_PaymentProcessor"><rect fill="#FFFFFF" height="76.5938" rx="2.5" ry="2.5" style="stroke:#000000;stroke-width:1;" width="430.6631" x="428.85" y="12"/><ellipse cx="575.4799" cy="26" fill="#FFFFFF" rx="9" ry="9" style="stroke:#000000;stroke-width:1;"/><path d="M578.4486,31.6406 Q577.8705,31.9375 577.2299,32.0781 Q576.5893,32.2344 575.8861,32.2344 Q573.3861,32.2344 572.058,30.5938 Q570.7455,28.9375 570.7455,25.8125 Q570.7455,22.6875 572.058,21.0313 Q573.3861,19.375 575.8861,19.375 Q576.5893,19.375 577.2299,19.5313 Q577.8861,19.6875 578.4486,19.9844 L578.4486,22.7031 Q577.8236,22.125 577.2299,21.8594 Q576.6361,21.5781 576.0111,21.5781 Q574.6674,21.5781 573.9799,22.6563 Q573.2924,23.7188 573.2924,25.8125 Q573.2924,27.9063 573.9799,28.9844 Q574.6674,30.0469 576.0111,30.0469 Q576.6361,30.0469 577.2299,29.7813 Q577.8236,29.5 578.4486,28.9219 L578.4486,31.6406 Z " fill="#000000"/><text fill="#000000" font-family="Verdana" font-size="14" lengthAdjust="spacing" textLength="129.9033" x="592.9799" y="30.8467">PaymentProcessor</text><line style="stroke:#000000;stroke-width:1;" x1="429.85" x2="858.5131" y1="40" y2="40"/><line style="stroke:#000000;stroke-width:1;" x1="429.85" x2="858.5131" y1="48" y2="48"/><ellipse cx="439.85" cy="61.6484" fill="#FFFFFF" rx="3" ry="3" style="stroke:#000000;stroke-width:1;"/><text fill="#000000" font-family="Verdana" font-size="14" lengthAdjust="spacing" textLength="345.4814" x="446.85" y="64.9951">executePayment(method: PaymentMethod): void</text><ellipse cx="439.85" cy="77.9453" fill="#FFFFFF" rx="3" ry="3" style="stroke:#000000;stroke-width:1;"/><text fill="#000000" font-family="Verdana" font-size="14" lengthAdjust="spacing" textLength="406.6631" x="446.85" y="81.292">displayPaymentSummary(method: PaymentMethod): void</text></g><!--reverse link PaymentMethod to CreditCard--><g class="link" data-entity-1="PaymentMethod" data-entity-2="CreditCard" data-source-line="39" data-uid="lnk7" id="link_PaymentMethod_CreditCard"><path codeLine="39" d="M497.4827,289.7243 C451.4527,311.4543 415.97,328.2 369.84,349.97" fill="none" id="PaymentMethod-backto-CreditCard" style="stroke:#000000;stroke-width:1;"/><polygon fill="none" points="513.76,282.04,494.9212,284.2985,500.0441,295.15,513.76,282.04" style="stroke:#000000;stroke-width:1;"/></g><!--reverse link PaymentMethod to PayPal--><g class="link" data-entity-1="PaymentMethod" data-entity-2="PayPal" data-source-line="40" data-uid="lnk8" id="link_PaymentMethod_PayPal"><path codeLine="40" d="M644.18,308.75 C644.18,330.97 644.18,337.17 644.18,358.07" fill="none" id="PaymentMethod-backto-PayPal" style="stroke:#000000;stroke-width:1;"/><polygon fill="none" points="644.18,290.75,638.18,308.75,650.18,308.75,644.18,290.75" style="stroke:#000000;stroke-width:1;"/></g><!--reverse link PaymentMethod to BankTransfer--><g class="link" data-entity-1="PaymentMethod" data-entity-2="BankTransfer" data-source-line="41" data-uid="lnk9" id="link_PaymentMethod_BankTransfer"><path codeLine="41" d="M786.4152,299.4909 C826.4152,321.7109 854.24,337.17 891.87,358.07" fill="none" id="PaymentMethod-backto-BankTransfer" style="stroke:#000000;stroke-width:1;"/><polygon fill="none" points="770.68,290.75,783.5016,304.736,789.3288,294.2458,770.68,290.75" style="stroke:#000000;stroke-width:1;"/></g><!--link PaymentProcessor to PaymentMethod--><g class="link" data-entity-1="PaymentProcessor" data-entity-2="PaymentMethod" data-source-line="42" data-uid="lnk10" id="link_PaymentProcessor_PaymentMethod"><path codeLine="42" d="M644.18,88.82 C644.18,106.34 644.18,121.79 644.18,142.16" fill="none" id="PaymentProcessor-to-PaymentMethod" style="stroke:#000000;stroke-width:1;"/><polygon fill="#000000" points="644.18,148.16,648.18,139.16,644.18,143.16,640.18,139.16,644.18,148.16" style="stroke:#000000;stroke-width:1;"/></g><!--SRC=[hLDBReCm4Dtx5AwwIKIv0AegjP6oQuMKNc20QMBLdyWUK56QkzVWfB53n2excFVnUsPue1qgv7i9GZC6bICBDV5QWdEyX5wXfdUadMduWN7-2CgqcWhUcBQIw2TPGbga-78WR95Un-bY6UiEvyEEV6zDZSwTd0PQPOn4q5Syx_HfGJl_8enU8wQE0sm8vEIq8sEXqCfY8sW5DhJ9Q__qqQeARS4tP8NUZjEkYrwpY-YgtHEVwltieXxhpvQRQ_IVsajBa24nAX0oJXV0IRA4TwSSRw2_HzONsf16LA3ZC35Z4Yact-zc1caPZ4n8bU4FrYtXsLUDcrcas-pDEYEQWTu8vzU_Fy6RLYcm_RpA1qZ_ZUVVF8-swnOQFjGj9BurDgcKvozf2FO7]--></g></svg>