<svg xmlns="http://www.w3.org/2000/svg" xmlns:xlink="http://www.w3.org/1999/xlink" contentStyleType="text/css" data-diagram-type="CLASS" height="281px" preserveAspectRatio="none" style="width:894px;height:281px;background:#FFFFFF;" version="1.1" viewBox="0 0 894 281" width="894px" zoomAndPan="magnify"><defs/><g><!--class Vehicle--><g class="entity" data-entity="Vehicle" data-source-line="3" data-uid="ent0002" id="entity_Vehicle"><rect fill="#FFFFFF" height="109.1875" rx="2.5" ry="2.5" style="stroke:#000000;stroke-width:1;" width="245.5596" x="299.41" y="12"/><ellipse cx="392.8631" cy="26" fill="#FFFFFF" rx="9" ry="9" style="stroke:#000000;stroke-width:1;"/><path d="M395.8319,31.6406 Q395.2538,31.9375 394.6131,32.0781 Q393.9725,32.2344 393.2694,32.2344 Q390.7694,32.2344 389.4413,30.5938 Q388.1288,28.9375 388.1288,25.8125 Q388.1288,22.6875 389.4413,21.0313 Q390.7694,19.375 393.2694,19.375 Q393.9725,19.375 394.6131,19.5313 Q395.2694,19.6875 395.8319,19.9844 L395.8319,22.7031 Q395.2069,22.125 394.6131,21.8594 Q394.0194,21.5781 393.3944,21.5781 Q392.0506,21.5781 391.3631,22.6563 Q390.6756,23.7188 390.6756,25.8125 Q390.6756,27.9063 391.3631,28.9844 Q392.0506,30.0469 393.3944,30.0469 Q394.0194,30.0469 394.6131,29.7813 Q395.2069,29.5 395.8319,28.9219 L395.8319,31.6406 Z " fill="#000000"/><text fill="#000000" font-family="Verdana" font-size="14" lengthAdjust="spacing" textLength="51.1533" x="410.3631" y="30.8467">Vehicle</text><line style="stroke:#000000;stroke-width:1;" x1="300.41" x2="543.9696" y1="40" y2="40"/><rect fill="none" height="6" style="stroke:#000000;stroke-width:1;" width="6" x="307.41" y="50.6484"/><text fill="#000000" font-family="Verdana" font-size="14" lengthAdjust="spacing" textLength="91.9297" x="317.41" y="56.9951">brand: String</text><rect fill="none" height="6" style="stroke:#000000;stroke-width:1;" width="6" x="307.41" y="66.9453"/><text fill="#000000" font-family="Verdana" font-size="14" lengthAdjust="spacing" textLength="58.6523" x="317.41" y="73.292">year: int</text><line style="stroke:#000000;stroke-width:1;" x1="300.41" x2="543.9696" y1="80.5938" y2="80.5938"/><ellipse cx="310.41" cy="94.2422" fill="#FFFFFF" rx="3" ry="3" style="stroke:#000000;stroke-width:1;"/><text fill="#000000" font-family="Verdana" font-size="14" lengthAdjust="spacing" textLength="221.5596" x="317.41" y="97.5889">Vehicle(brand: String, year: int)</text><ellipse cx="310.41" cy="110.5391" fill="#FFFFFF" rx="3" ry="3" style="stroke:#000000;stroke-width:1;"/><text fill="#000000" font-family="Verdana" font-size="14" lengthAdjust="spacing" textLength="125.9248" x="317.41" y="113.8857">displayInfo(): void</text></g><!--class Car--><g class="entity" data-entity="Car" data-source-line="10" data-uid="ent0003" id="entity_Car"><rect fill="#FFFFFF" height="92.8906" rx="2.5" ry="2.5" style="stroke:#000000;stroke-width:1;" width="366.3848" x="12" y="181.19"/><ellipse cx="179.3872" cy="195.19" fill="#FFFFFF" rx="9" ry="9" style="stroke:#000000;stroke-width:1;"/><path d="M182.356,200.8306 Q181.7778,201.1275 181.1372,201.2681 Q180.4966,201.4244 179.7935,201.4244 Q177.2935,201.4244 175.9653,199.7838 Q174.6528,198.1275 174.6528,195.0025 Q174.6528,191.8775 175.9653,190.2213 Q177.2935,188.565 179.7935,188.565 Q180.4966,188.565 181.1372,188.7213 Q181.7935,188.8775 182.356,189.1744 L182.356,191.8931 Q181.731,191.315 181.1372,191.0494 Q180.5435,190.7681 179.9185,190.7681 Q178.5747,190.7681 177.8872,191.8463 Q177.1997,192.9088 177.1997,195.0025 Q177.1997,197.0963 177.8872,198.1744 Q178.5747,199.2369 179.9185,199.2369 Q180.5435,199.2369 181.1372,198.9713 Q181.731,198.69 182.356,198.1119 L182.356,200.8306 Z " fill="#000000"/><text fill="#000000" font-family="Verdana" font-size="14" lengthAdjust="spacing" textLength="24.1104" x="196.8872" y="200.0367">Car</text><line style="stroke:#000000;stroke-width:1;" x1="13" x2="377.3848" y1="209.19" y2="209.19"/><rect fill="none" height="6" style="stroke:#000000;stroke-width:1;" width="6" x="20" y="219.8384"/><text fill="#000000" font-family="Verdana" font-size="14" lengthAdjust="spacing" textLength="138.9678" x="30" y="226.1851">numberOfDoors: int</text><line style="stroke:#000000;stroke-width:1;" x1="13" x2="377.3848" y1="233.4869" y2="233.4869"/><ellipse cx="23" cy="247.1353" fill="#FFFFFF" rx="3" ry="3" style="stroke:#000000;stroke-width:1;"/><text fill="#000000" font-family="Verdana" font-size="14" lengthAdjust="spacing" textLength="342.3848" x="30" y="250.482">Car(brand: String, year: int, numberOfDoors: int)</text><ellipse cx="23" cy="263.4322" fill="#FFFFFF" rx="3" ry="3" style="stroke:#000000;stroke-width:1;"/><text fill="#000000" font-family="Verdana" font-size="14" lengthAdjust="spacing" textLength="125.9248" x="30" y="266.7789">displayInfo(): void</text></g><!--class Motorcycle--><g class="entity" data-entity="Motorcycle" data-source-line="16" data-uid="ent0004" id="entity_Motorcycle"><rect fill="#FFFFFF" height="92.8906" rx="2.5" ry="2.5" style="stroke:#000000;stroke-width:1;" width="473.75" x="413.32" y="181.19"/><ellipse cx="608.1262" cy="195.19" fill="#FFFFFF" rx="9" ry="9" style="stroke:#000000;stroke-width:1;"/><path d="M611.0949,200.8306 Q610.5168,201.1275 609.8762,201.2681 Q609.2355,201.4244 608.5324,201.4244 Q606.0324,201.4244 604.7043,199.7838 Q603.3918,198.1275 603.3918,195.0025 Q603.3918,191.8775 604.7043,190.2213 Q606.0324,188.565 608.5324,188.565 Q609.2355,188.565 609.8762,188.7213 Q610.5324,188.8775 611.0949,189.1744 L611.0949,191.8931 Q610.4699,191.315 609.8762,191.0494 Q609.2824,190.7681 608.6574,190.7681 Q607.3137,190.7681 606.6262,191.8463 Q605.9387,192.9088 605.9387,195.0025 Q605.9387,197.0963 606.6262,198.1744 Q607.3137,199.2369 608.6574,199.2369 Q609.2824,199.2369 609.8762,198.9713 Q610.4699,198.69 611.0949,198.1119 L611.0949,200.8306 Z " fill="#000000"/><text fill="#000000" font-family="Verdana" font-size="14" lengthAdjust="spacing" textLength="76.6377" x="625.6262" y="200.0367">Motorcycle</text><line style="stroke:#000000;stroke-width:1;" x1="414.32" x2="886.07" y1="209.19" y2="209.19"/><rect fill="none" height="6" style="stroke:#000000;stroke-width:1;" width="6" x="421.32" y="219.8384"/><text fill="#000000" font-family="Verdana" font-size="14" lengthAdjust="spacing" textLength="193.8057" x="431.32" y="226.1851">hasPassengerSeat: boolean</text><line style="stroke:#000000;stroke-width:1;" x1="414.32" x2="886.07" y1="233.4869" y2="233.4869"/><ellipse cx="424.32" cy="247.1353" fill="#FFFFFF" rx="3" ry="3" style="stroke:#000000;stroke-width:1;"/><text fill="#000000" font-family="Verdana" font-size="14" lengthAdjust="spacing" textLength="449.75" x="431.32" y="250.482">Motorcycle(brand: String, year: int, hasPassengerSeat: boolean)</text><ellipse cx="424.32" cy="263.4322" fill="#FFFFFF" rx="3" ry="3" style="stroke:#000000;stroke-width:1;"/><text fill="#000000" font-family="Verdana" font-size="14" lengthAdjust="spacing" textLength="125.9248" x="431.32" y="266.7789">displayInfo(): void</text></g><!--reverse link Vehicle to Car--><g class="link" data-entity-1="Vehicle" data-entity-2="Car" data-source-line="22" data-uid="lnk5" id="link_Vehicle_Car"><path codeLine="22" d="M330.2789,131.9895 C302.7789,151.2595 286.83,162.43 260.43,180.93" fill="none" id="Vehicle-backto-Car" style="stroke:#000000;stroke-width:1;"/><polygon fill="none" points="345.02,121.66,326.8357,127.0758,333.722,136.9032,345.02,121.66" style="stroke:#000000;stroke-width:1;"/></g><!--reverse link Vehicle to Motorcycle--><g class="link" data-entity-1="Vehicle" data-entity-2="Motorcycle" data-source-line="23" data-uid="lnk6" id="link_Vehicle_Motorcycle"><path codeLine="23" d="M514.464,131.9568 C542.094,151.2268 558.15,162.43 584.67,180.93" fill="none" id="Vehicle-backto-Motorcycle" style="stroke:#000000;stroke-width:1;"/><polygon fill="none" points="499.7,121.66,511.0317,136.8782,517.8963,127.0355,499.7,121.66" style="stroke:#000000;stroke-width:1;"/></g><!--SRC=[XP113e8m44NtFSMuWoWNQDpfneNHXCHzWG6Qb8wPLXEYtjqI1K8CkEplwt_JMVaQ6uIhKTeAaHlb75omrhb1U0Y096Db2mcfPsshBcXHiGHjVJYilsWqeJOmC7475Tg5_lPWIufY2NVIXNZriftYZyZUcWpvLEw9s0s2S3rRle7VD_-5H_B4UJjyi5Rk77Aq5NAAoal8Y0mgspMDyC8KimrBm_HBtZwJf5l2D1YzuWq0]--></g></svg>