<svg xmlns="http://www.w3.org/2000/svg" xmlns:xlink="http://www.w3.org/1999/xlink" contentStyleType="text/css" data-diagram-type="CLASS" height="297px" preserveAspectRatio="none" style="width:416px;height:297px;background:#FFFFFF;" version="1.1" viewBox="0 0 416 297" width="416px" zoomAndPan="magnify"><defs/><g><!--class Game--><g class="entity" data-entity="Game" data-source-line="6" data-uid="ent0002" id="entity_Game"><rect fill="#FFFFFF" height="109.1875" rx="2.5" ry="2.5" style="stroke:#000000;stroke-width:1;" width="130.9043" x="53.79" y="12"/><ellipse cx="92.9814" cy="26" fill="#FFFFFF" rx="9" ry="9" style="stroke:#000000;stroke-width:1;"/><path d="M95.9502,31.6406 Q95.372,31.9375 94.7314,32.0781 Q94.0908,32.2344 93.3877,32.2344 Q90.8877,32.2344 89.5595,30.5938 Q88.247,28.9375 88.247,25.8125 Q88.247,22.6875 89.5595,21.0313 Q90.8877,19.375 93.3877,19.375 Q94.0908,19.375 94.7314,19.5313 Q95.3877,19.6875 95.9502,19.9844 L95.9502,22.7031 Q95.3252,22.125 94.7314,21.8594 Q94.1377,21.5781 93.5127,21.5781 Q92.1689,21.5781 91.4814,22.6563 Q90.7939,23.7188 90.7939,25.8125 Q90.7939,27.9063 91.4814,28.9844 Q92.1689,30.0469 93.5127,30.0469 Q94.1377,30.0469 94.7314,29.7813 Q95.3252,29.5 95.9502,28.9219 L95.9502,31.6406 Z " fill="#000000"/><text fill="#000000" font-family="Verdana" font-size="14" font-weight="bold" lengthAdjust="spacing" textLength="45.0215" x="110.4814" y="30.8467">Game</text><line style="stroke:#000000;stroke-width:1;" x1="54.79" x2="183.6943" y1="40" y2="40"/><text fill="#000000" font-family="Verdana" font-size="14" lengthAdjust="spacing" textLength="75.4688" x="59.79" y="56.9951">#coins: int</text><line style="stroke:#000000;stroke-width:1;" x1="54.79" x2="183.6943" y1="64.2969" y2="64.2969"/><text fill="#000000" font-family="Verdana" font-size="14" lengthAdjust="spacing" textLength="64.333" x="59.79" y="81.292">+Game()</text><text fill="#000000" font-family="Verdana" font-size="14" lengthAdjust="spacing" textLength="111.46" x="59.79" y="97.5889">+getCoins(): int</text><text fill="#000000" font-family="Verdana" font-size="14" lengthAdjust="spacing" textLength="118.9043" x="59.79" y="113.8857">#addCoin(): void</text></g><!--class Player--><g class="entity" data-entity="Player" data-source-line="13" data-uid="ent0003" id="entity_Player"><rect fill="#FFFFFF" height="109.1875" rx="2.5" ry="2.5" style="stroke:#000000;stroke-width:1;" width="214.4805" x="12" y="181.18"/><ellipse cx="90.4741" cy="195.18" fill="#FFFFFF" rx="9" ry="9" style="stroke:#000000;stroke-width:1;"/><path d="M93.4429,200.8206 Q92.8647,201.1175 92.2241,201.2581 Q91.5835,201.4144 90.8804,201.4144 Q88.3804,201.4144 87.0522,199.7738 Q85.7397,198.1175 85.7397,194.9925 Q85.7397,191.8675 87.0522,190.2113 Q88.3804,188.555 90.8804,188.555 Q91.5835,188.555 92.2241,188.7113 Q92.8804,188.8675 93.4429,189.1644 L93.4429,191.8831 Q92.8179,191.305 92.2241,191.0394 Q91.6304,190.7581 91.0054,190.7581 Q89.6616,190.7581 88.9741,191.8363 Q88.2866,192.8988 88.2866,194.9925 Q88.2866,197.0863 88.9741,198.1644 Q89.6616,199.2269 91.0054,199.2269 Q91.6304,199.2269 92.2241,198.9613 Q92.8179,198.68 93.4429,198.1019 L93.4429,200.8206 Z " fill="#000000"/><text fill="#000000" font-family="Verdana" font-size="14" font-weight="bold" lengthAdjust="spacing" textLength="50.0322" x="107.9741" y="200.0267">Player</text><line style="stroke:#000000;stroke-width:1;" x1="13" x2="225.4805" y1="209.18" y2="209.18"/><text fill="#000000" font-family="Verdana" font-size="14" lengthAdjust="spacing" textLength="141.3125" x="18" y="226.1751">-playerName: String</text><line style="stroke:#000000;stroke-width:1;" x1="13" x2="225.4805" y1="233.4769" y2="233.4769"/><text fill="#000000" font-family="Verdana" font-size="14" lengthAdjust="spacing" textLength="202.4805" x="18" y="250.472">+Player(playerName: String)</text><text fill="#000000" font-family="Verdana" font-size="14" lengthAdjust="spacing" textLength="138.3936" x="18" y="266.7689">+collectCoin(): void</text><text fill="#000000" font-family="Verdana" font-size="14" lengthAdjust="spacing" textLength="146.8975" x="18" y="283.0657">+displayStats(): void</text></g><g class="entity" data-entity="GMN5" data-source-line="23" data-uid="ent0006" id="entity_GMN5"><path d="M220.13,46.46 L220.13,62.59 L185,66.59 L220.13,70.59 L220.13,86.7256 A0,0 0 0 0 220.13,86.7256 L388.3575,86.7256 A0,0 0 0 0 388.3575,86.7256 L388.3575,56.46 L378.3575,46.46 L220.13,46.46 A0,0 0 0 0 220.13,46.46" fill="#FFFFFF" style="stroke:#000000;stroke-width:1;"/><path d="M378.3575,46.46 L378.3575,56.46 L388.3575,56.46 L378.3575,46.46" fill="#FFFFFF" style="stroke:#000000;stroke-width:1;"/><text fill="#000000" font-family="Verdana" font-size="13" lengthAdjust="spacing" textLength="129.3779" x="226.13" y="63.5269">coins est protected:</text><text fill="#000000" font-family="Verdana" font-size="13" lengthAdjust="spacing" textLength="147.2275" x="226.13" y="78.6597">accessible dans Player</text></g><g class="entity" data-entity="GMN8" data-source-line="28" data-uid="ent0009" id="entity_GMN8"><path d="M261.38,215.64 L261.38,231.78 L226.82,235.78 L261.38,239.78 L261.38,255.9056 A0,0 0 0 0 261.38,255.9056 L409.0919,255.9056 A0,0 0 0 0 409.0919,255.9056 L409.0919,225.64 L399.0919,215.64 L261.38,215.64 A0,0 0 0 0 261.38,215.64" fill="#FFFFFF" style="stroke:#000000;stroke-width:1;"/><path d="M399.0919,215.64 L399.0919,225.64 L409.0919,225.64 L399.0919,215.64" fill="#FFFFFF" style="stroke:#000000;stroke-width:1;"/><text fill="#000000" font-family="Verdana" font-size="13" lengthAdjust="spacing" textLength="124.668" x="267.38" y="232.7069">collectCoin() utilise</text><text fill="#000000" font-family="Verdana" font-size="13" lengthAdjust="spacing" textLength="126.7119" x="267.38" y="247.8397">addCoin() de Game</text></g><!--reverse link Game to Player--><g class="link" data-entity-1="Game" data-entity-2="Player" data-source-line="20" data-uid="lnk4" id="link_Game_Player"><path codeLine="20" d="M119.24,139.41 C119.24,158.4 119.24,161.76 119.24,180.77" fill="none" id="Game-backto-Player" style="stroke:#000000;stroke-width:1;"/><polygon fill="none" points="119.24,121.41,113.24,139.41,125.24,139.41,119.24,121.41" style="stroke:#000000;stroke-width:1;"/></g><!--SRC=[PP3FJiCm3CRlVWgZNJgXIfmhBWW9j0j2wXEuYUaiigIgFQJnvzr9iXN6k3dVP_y-ErUsvHtZ54WYWBvAd6Yc7Rf0gdTcimnxuurBiPTtnflBbeSKhRT3O1nIy01Ln4VAp0z0NBaaKJkKQFbrNVHcNQgHxRvOpNenL-HzaOhobiJ3rq9x3dJWkVBQgTPFcTDXdxUBOw4TEvh_PiroAGHszWUUPIzQ1deZq_FGklpjPzkUWW5YCiPPngrXUgd7vVbw6R8QJdFsdR7liapEiQeC-KSynMLvuEYnO2vX9xlWpfR4lKaGBJ4_luAUZz6_AFW6]--></g></svg>