<svg xmlns="http://www.w3.org/2000/svg" xmlns:xlink="http://www.w3.org/1999/xlink" contentStyleType="text/css" data-diagram-type="CLASS" height="281px" preserveAspectRatio="none" style="width:893px;height:281px;background:#FFFFFF;" version="1.1" viewBox="0 0 893 281" width="893px" zoomAndPan="magnify"><defs/><g><!--class Vehicle--><g class="entity" data-entity="Vehicle" data-source-line="6" data-uid="ent0002" id="entity_Vehicle"><rect fill="#FFFFFF" height="109.1875" rx="2.5" ry="2.5" style="stroke:#000000;stroke-width:1;" width="245.29" x="299.41" y="12"/><ellipse cx="389.4608" cy="26" fill="#FFFFFF" rx="9" ry="9" style="stroke:#000000;stroke-width:1;"/><path d="M392.4295,31.6406 Q391.8514,31.9375 391.2108,32.0781 Q390.5702,32.2344 389.867,32.2344 Q387.367,32.2344 386.0389,30.5938 Q384.7264,28.9375 384.7264,25.8125 Q384.7264,22.6875 386.0389,21.0313 Q387.367,19.375 389.867,19.375 Q390.5702,19.375 391.2108,19.5313 Q391.867,19.6875 392.4295,19.9844 L392.4295,22.7031 Q391.8045,22.125 391.2108,21.8594 Q390.617,21.5781 389.992,21.5781 Q388.6483,21.5781 387.9608,22.6563 Q387.2733,23.7188 387.2733,25.8125 Q387.2733,27.9063 387.9608,28.9844 Q388.6483,30.0469 389.992,30.0469 Q390.617,30.0469 391.2108,29.7813 Q391.8045,29.5 392.4295,28.9219 L392.4295,31.6406 Z " fill="#000000"/><text fill="#000000" font-family="Verdana" font-size="14" font-weight="bold" lengthAdjust="spacing" textLength="57.6885" x="406.9608" y="30.8467">Vehicle</text><line style="stroke:#000000;stroke-width:1;" x1="300.41" x2="543.7" y1="40" y2="40"/><text fill="#000000" font-family="Verdana" font-size="14" lengthAdjust="spacing" textLength="96.9814" x="305.41" y="56.9951">-brand: String</text><text fill="#000000" font-family="Verdana" font-size="14" lengthAdjust="spacing" textLength="63.7041" x="305.41" y="73.292">-year: int</text><line style="stroke:#000000;stroke-width:1;" x1="300.41" x2="543.7" y1="80.5938" y2="80.5938"/><text fill="#000000" font-family="Verdana" font-size="14" lengthAdjust="spacing" textLength="233.29" x="305.41" y="97.5889">+Vehicle(brand: String, year: int)</text><text fill="#000000" font-family="Verdana" font-size="14" lengthAdjust="spacing" textLength="137.6553" x="305.41" y="113.8857">+displayInfo(): void</text></g><!--class Car--><g class="entity" data-entity="Car" data-source-line="13" data-uid="ent0003" id="entity_Car"><rect fill="#FFFFFF" height="92.8906" rx="2.5" ry="2.5" style="stroke:#000000;stroke-width:1;" width="366.1152" x="12" y="181.19"/><ellipse cx="177.9946" cy="195.19" fill="#FFFFFF" rx="9" ry="9" style="stroke:#000000;stroke-width:1;"/><path d="M180.9634,200.8306 Q180.3853,201.1275 179.7446,201.2681 Q179.104,201.4244 178.4009,201.4244 Q175.9009,201.4244 174.5728,199.7838 Q173.2603,198.1275 173.2603,195.0025 Q173.2603,191.8775 174.5728,190.2213 Q175.9009,188.565 178.4009,188.565 Q179.104,188.565 179.7446,188.7213 Q180.4009,188.8775 180.9634,189.1744 L180.9634,191.8931 Q180.3384,191.315 179.7446,191.0494 Q179.1509,190.7681 178.5259,190.7681 Q177.1821,190.7681 176.4946,191.8463 Q175.8071,192.9088 175.8071,195.0025 Q175.8071,197.0963 176.4946,198.1744 Q177.1821,199.2369 178.5259,199.2369 Q179.1509,199.2369 179.7446,198.9713 Q180.3384,198.69 180.9634,198.1119 L180.9634,200.8306 Z " fill="#000000"/><text fill="#000000" font-family="Verdana" font-size="14" font-weight="bold" lengthAdjust="spacing" textLength="26.626" x="195.4946" y="200.0367">Car</text><line style="stroke:#000000;stroke-width:1;" x1="13" x2="377.1152" y1="209.19" y2="209.19"/><text fill="#000000" font-family="Verdana" font-size="14" lengthAdjust="spacing" textLength="144.0195" x="18" y="226.1851">-numberOfDoors: int</text><line style="stroke:#000000;stroke-width:1;" x1="13" x2="377.1152" y1="233.4869" y2="233.4869"/><text fill="#000000" font-family="Verdana" font-size="14" lengthAdjust="spacing" textLength="354.1152" x="18" y="250.482">+Car(brand: String, year: int, numberOfDoors: int)</text><text fill="#000000" font-family="Verdana" font-size="14" lengthAdjust="spacing" textLength="137.6553" x="18" y="266.7789">+displayInfo(): void</text></g><!--class Motorcycle--><g class="entity" data-entity="Motorcycle" data-source-line="19" data-uid="ent0004" id="entity_Motorcycle"><rect fill="#FFFFFF" height="92.8906" rx="2.5" ry="2.5" style="stroke:#000000;stroke-width:1;" width="473.4805" x="413.32" y="181.19"/><ellipse cx="602.9191" cy="195.19" fill="#FFFFFF" rx="9" ry="9" style="stroke:#000000;stroke-width:1;"/><path d="M605.8879,200.8306 Q605.3097,201.1275 604.6691,201.2681 Q604.0285,201.4244 603.3254,201.4244 Q600.8254,201.4244 599.4972,199.7838 Q598.1847,198.1275 598.1847,195.0025 Q598.1847,191.8775 599.4972,190.2213 Q600.8254,188.565 603.3254,188.565 Q604.0285,188.565 604.6691,188.7213 Q605.3254,188.8775 605.8879,189.1744 L605.8879,191.8931 Q605.2629,191.315 604.6691,191.0494 Q604.0754,190.7681 603.4504,190.7681 Q602.1066,190.7681 601.4191,191.8463 Q600.7316,192.9088 600.7316,195.0025 Q600.7316,197.0963 601.4191,198.1744 Q602.1066,199.2369 603.4504,199.2369 Q604.0754,199.2369 604.6691,198.9713 Q605.2629,198.69 605.8879,198.1119 L605.8879,200.8306 Z " fill="#000000"/><text fill="#000000" font-family="Verdana" font-size="14" font-weight="bold" lengthAdjust="spacing" textLength="86.7822" x="620.4191" y="200.0367">Motorcycle</text><line style="stroke:#000000;stroke-width:1;" x1="414.32" x2="885.8005" y1="209.19" y2="209.19"/><text fill="#000000" font-family="Verdana" font-size="14" lengthAdjust="spacing" textLength="198.8574" x="419.32" y="226.1851">-hasPassengerSeat: boolean</text><line style="stroke:#000000;stroke-width:1;" x1="414.32" x2="885.8005" y1="233.4869" y2="233.4869"/><text fill="#000000" font-family="Verdana" font-size="14" lengthAdjust="spacing" textLength="461.4805" x="419.32" y="250.482">+Motorcycle(brand: String, year: int, hasPassengerSeat: boolean)</text><text fill="#000000" font-family="Verdana" font-size="14" lengthAdjust="spacing" textLength="137.6553" x="419.32" y="266.7789">+displayInfo(): void</text></g><!--reverse link Vehicle to Car--><g class="link" data-entity-1="Vehicle" data-entity-2="Car" data-source-line="25" data-uid="lnk5" id="link_Vehicle_Car"><path codeLine="25" d="M330.1471,131.987 C302.6371,151.257 286.7,162.43 260.29,180.93" fill="none" id="Vehicle-backto-Car" style="stroke:#000000;stroke-width:1;"/><polygon fill="none" points="344.89,121.66,326.7048,127.0727,333.5894,136.9013,344.89,121.66" style="stroke:#000000;stroke-width:1;"/></g><!--reverse link Vehicle to Motorcycle--><g class="link" data-entity-1="Vehicle" data-entity-2="Motorcycle" data-source-line="26" data-uid="lnk6" id="link_Vehicle_Motorcycle"><path codeLine="26" d="M514.3322,131.9594 C541.9522,151.2294 558.02,162.43 584.54,180.93" fill="none" id="Vehicle-backto-Motorcycle" style="stroke:#000000;stroke-width:1;"/><polygon fill="none" points="499.57,121.66,510.8991,136.8801,517.7653,127.0386,499.57,121.66" style="stroke:#000000;stroke-width:1;"/></g><!--SRC=[XP1FIyD04CNlyod6MuiDU0vUH15wA0e1xvDasYnkPihiL8X_lhiRjIbLMe_xzhVllNqNtd7Fk8qK120z1zcIKOzDf9Hkt2tKE-TberA5LyQhtyYzYbS-HCPQOmlm9U8JTw79sXiW5hMHj2LMsKisep0mMOb1F1ykVz3P4RN0YPcFK1jIRZWiPQspUOal6bhus8VTadq7oQwlsHxMTwgMfe1yVT9yWN_V_1-uKbThXkc37QN7hBDis2ecB_CM6fbaT3h0PrgST3XNPZ_ozNjHZ2CS2uTS0FW4]--></g></svg>