<svg xmlns="http://www.w3.org/2000/svg" xmlns:xlink="http://www.w3.org/1999/xlink" contentStyleType="text/css" data-diagram-type="CLASS" height="443px" preserveAspectRatio="none" style="width:957px;height:443px;background:#FFFFFF;" version="1.1" viewBox="0 0 957 443" width="957px" zoomAndPan="magnify"><defs/><g><!--class Payment--><g class="entity" data-entity="Payment" data-source-line="3" data-uid="ent0002" id="entity_Payment"><rect fill="#FFFFFF" height="125.4844" rx="2.5" ry="2.5" style="stroke:#000000;stroke-width:1;" width="219.3164" x="360.42" y="141.53"/><ellipse cx="435.3682" cy="155.53" fill="#FFFFFF" rx="9" ry="9" style="stroke:#000000;stroke-width:1;"/><path d="M435.4776,150.8737 L434.3214,155.9519 L436.6495,155.9519 L435.4776,150.8737 Z M433.9932,148.6394 L436.9776,148.6394 L440.337,161.03 L437.8839,161.03 L437.1182,157.9675 L433.837,157.9675 L433.087,161.03 L430.6495,161.03 L433.9932,148.6394 Z " fill="#000000"/><text fill="#000000" font-family="Verdana" font-size="14" font-style="italic" lengthAdjust="spacing" textLength="61.9199" x="452.8682" y="160.3767">Payment</text><line style="stroke:#000000;stroke-width:1;" x1="361.42" x2="578.7364" y1="169.53" y2="169.53"/><polygon fill="none" points="371.42,178.1784,375.42,182.1784,371.42,186.1784,367.42,182.1784" style="stroke:#000000;stroke-width:1;"/><text fill="#000000" font-family="Verdana" font-size="14" lengthAdjust="spacing" textLength="110.8994" x="378.42" y="186.5251">amount: double</text><line style="stroke:#000000;stroke-width:1;" x1="361.42" x2="578.7364" y1="193.8269" y2="193.8269"/><ellipse cx="371.42" cy="207.4753" fill="#FFFFFF" rx="3" ry="3" style="stroke:#000000;stroke-width:1;"/><text fill="#000000" font-family="Verdana" font-size="14" lengthAdjust="spacing" textLength="183.7432" x="378.42" y="210.822">Payment(amount: double)</text><ellipse cx="371.42" cy="223.7722" fill="#FFFFFF" rx="3" ry="3" style="stroke:#000000;stroke-width:1;"/><text fill="#000000" font-family="Verdana" font-size="14" lengthAdjust="spacing" textLength="145.8105" x="378.42" y="227.1189">getAmount(): double</text><ellipse cx="371.42" cy="240.0691" fill="#FFFFFF" rx="3" ry="3" style="stroke:#000000;stroke-width:1;"/><text fill="#000000" font-family="Verdana" font-size="14" font-style="italic" lengthAdjust="spacing" textLength="192.0898" x="378.42" y="243.4157">processPayment(): boolean</text><ellipse cx="371.42" cy="256.3659" fill="#FFFFFF" rx="3" ry="3" style="stroke:#000000;stroke-width:1;"/><text fill="#000000" font-family="Verdana" font-size="14" font-style="italic" lengthAdjust="spacing" textLength="195.3164" x="378.42" y="259.7126">getPaymentDetails(): String</text></g><!--class CreditCardPayment--><g class="entity" data-entity="CreditCardPayment" data-source-line="11" data-uid="ent0003" id="entity_CreditCardPayment"><rect fill="#FFFFFF" height="109.1875" rx="2.5" ry="2.5" style="stroke:#000000;stroke-width:1;" width="430.1572" x="12" y="327.01"/><ellipse cx="154.665" cy="341.01" fill="#FFFFFF" rx="9" ry="9" style="stroke:#000000;stroke-width:1;"/><path d="M157.6338,346.6506 Q157.0557,346.9475 156.415,347.0881 Q155.7744,347.2444 155.0713,347.2444 Q152.5713,347.2444 151.2432,345.6038 Q149.9307,343.9475 149.9307,340.8225 Q149.9307,337.6975 151.2432,336.0413 Q152.5713,334.385 155.0713,334.385 Q155.7744,334.385 156.415,334.5413 Q157.0713,334.6975 157.6338,334.9944 L157.6338,337.7131 Q157.0088,337.135 156.415,336.8694 Q155.8213,336.5881 155.1963,336.5881 Q153.8525,336.5881 153.165,337.6663 Q152.4775,338.7288 152.4775,340.8225 Q152.4775,342.9163 153.165,343.9944 Q153.8525,345.0569 155.1963,345.0569 Q155.8213,345.0569 156.415,344.7913 Q157.0088,344.51 157.6338,343.9319 L157.6338,346.6506 Z " fill="#000000"/><text fill="#000000" font-family="Verdana" font-size="14" lengthAdjust="spacing" textLength="137.3271" x="172.165" y="345.8567">CreditCardPayment</text><line style="stroke:#000000;stroke-width:1;" x1="13" x2="441.1572" y1="355.01" y2="355.01"/><rect fill="none" height="6" style="stroke:#000000;stroke-width:1;" width="6" x="20" y="365.6584"/><text fill="#000000" font-family="Verdana" font-size="14" lengthAdjust="spacing" textLength="138.1064" x="30" y="372.0051">cardNumber: String</text><line style="stroke:#000000;stroke-width:1;" x1="13" x2="441.1572" y1="379.3069" y2="379.3069"/><ellipse cx="23" cy="392.9553" fill="#FFFFFF" rx="3" ry="3" style="stroke:#000000;stroke-width:1;"/><text fill="#000000" font-family="Verdana" font-size="14" lengthAdjust="spacing" textLength="406.1572" x="30" y="396.302">CreditCardPayment(amount: double, cardNumber: String)</text><ellipse cx="23" cy="409.2522" fill="#FFFFFF" rx="3" ry="3" style="stroke:#000000;stroke-width:1;"/><text fill="#000000" font-family="Verdana" font-size="14" lengthAdjust="spacing" textLength="192.0898" x="30" y="412.5989">processPayment(): boolean</text><ellipse cx="23" cy="425.5491" fill="#FFFFFF" rx="3" ry="3" style="stroke:#000000;stroke-width:1;"/><text fill="#000000" font-family="Verdana" font-size="14" lengthAdjust="spacing" textLength="195.3164" x="30" y="428.8957">getPaymentDetails(): String</text></g><!--class BankTransferPayment--><g class="entity" data-entity="BankTransferPayment" data-source-line="18" data-uid="ent0004" id="entity_BankTransferPayment"><rect fill="#FFFFFF" height="109.1875" rx="2.5" ry="2.5" style="stroke:#000000;stroke-width:1;" width="473.1211" x="477.52" y="327.01"/><ellipse cx="632.6128" cy="341.01" fill="#FFFFFF" rx="9" ry="9" style="stroke:#000000;stroke-width:1;"/><path d="M635.5815,346.6506 Q635.0034,346.9475 634.3628,347.0881 Q633.7221,347.2444 633.019,347.2444 Q630.519,347.2444 629.1909,345.6038 Q627.8784,343.9475 627.8784,340.8225 Q627.8784,337.6975 629.1909,336.0413 Q630.519,334.385 633.019,334.385 Q633.7221,334.385 634.3628,334.5413 Q635.019,334.6975 635.5815,334.9944 L635.5815,337.7131 Q634.9565,337.135 634.3628,336.8694 Q633.769,336.5881 633.144,336.5881 Q631.8003,336.5881 631.1128,337.6663 Q630.4253,338.7288 630.4253,340.8225 Q630.4253,342.9163 631.1128,343.9944 Q631.8003,345.0569 633.144,345.0569 Q633.769,345.0569 634.3628,344.7913 Q634.9565,344.51 635.5815,343.9319 L635.5815,346.6506 Z " fill="#000000"/><text fill="#000000" font-family="Verdana" font-size="14" lengthAdjust="spacing" textLength="155.4355" x="650.1128" y="345.8567">BankTransferPayment</text><line style="stroke:#000000;stroke-width:1;" x1="478.52" x2="949.6411" y1="355.01" y2="355.01"/><rect fill="none" height="6" style="stroke:#000000;stroke-width:1;" width="6" x="485.52" y="365.6584"/><text fill="#000000" font-family="Verdana" font-size="14" lengthAdjust="spacing" textLength="162.9619" x="495.52" y="372.0051">accountNumber: String</text><line style="stroke:#000000;stroke-width:1;" x1="478.52" x2="949.6411" y1="379.3069" y2="379.3069"/><ellipse cx="488.52" cy="392.9553" fill="#FFFFFF" rx="3" ry="3" style="stroke:#000000;stroke-width:1;"/><text fill="#000000" font-family="Verdana" font-size="14" lengthAdjust="spacing" textLength="449.1211" x="495.52" y="396.302">BankTransferPayment(amount: double, accountNumber: String)</text><ellipse cx="488.52" cy="409.2522" fill="#FFFFFF" rx="3" ry="3" style="stroke:#000000;stroke-width:1;"/><text fill="#000000" font-family="Verdana" font-size="14" lengthAdjust="spacing" textLength="192.0898" x="495.52" y="412.5989">processPayment(): boolean</text><ellipse cx="488.52" cy="425.5491" fill="#FFFFFF" rx="3" ry="3" style="stroke:#000000;stroke-width:1;"/><text fill="#000000" font-family="Verdana" font-size="14" lengthAdjust="spacing" textLength="195.3164" x="495.52" y="428.8957">getPaymentDetails(): String</text></g><g class="entity" data-entity="GMN7" data-source-line="29" data-uid="ent0008" id="entity_GMN7"><path d="M367.61,11 L367.61,81.5313 A0,0 0 0 0 367.61,81.5313 L466.08,81.5313 L470.08,141.11 L474.08,81.5313 L572.5397,81.5313 A0,0 0 0 0 572.5397,81.5313 L572.5397,21 L562.5397,11 L367.61,11 A0,0 0 0 0 367.61,11" fill="#FFFFFF" style="stroke:#000000;stroke-width:1;"/><path d="M562.5397,11 L562.5397,21 L572.5397,21 L562.5397,11" fill="#FFFFFF" style="stroke:#000000;stroke-width:1;"/><text fill="#000000" font-family="Verdana" font-size="13" lengthAdjust="spacing" textLength="143.7554" x="373.61" y="28.0669">Classe abstraite avec:</text><text fill="#000000" font-family="Verdana" font-size="13" lengthAdjust="spacing" textLength="183.9297" x="373.61" y="43.1997">- Attribut commun (amount)</text><text fill="#000000" font-family="Verdana" font-size="13" lengthAdjust="spacing" textLength="141.3623" x="373.61" y="58.3325">- M&#233;thodes abstraites</text><text fill="#000000" font-family="Verdana" font-size="13" lengthAdjust="spacing" textLength="95.5767" x="381.8746" y="73.4653">&#224; impl&#233;menter</text></g><!--reverse link Payment to CreditCardPayment--><g class="link" data-entity-1="Payment" data-entity-2="CreditCardPayment" data-source-line="25" data-uid="lnk5" id="link_Payment_CreditCardPayment"><path codeLine="25" d="M369.4651,277.8651 C342.5751,297.2751 327.73,307.98 301.68,326.77" fill="none" id="Payment-backto-CreditCardPayment" style="stroke:#000000;stroke-width:1;"/><polygon fill="none" points="384.06,267.33,365.9534,273.0001,372.9767,282.73,384.06,267.33" style="stroke:#000000;stroke-width:1;"/></g><!--reverse link Payment to BankTransferPayment--><g class="link" data-entity-1="Payment" data-entity-2="BankTransferPayment" data-source-line="26" data-uid="lnk6" id="link_Payment_BankTransferPayment"><path codeLine="26" d="M571.0653,277.8368 C598.0653,297.2468 613.02,307.98 639.17,326.77" fill="none" id="Payment-backto-BankTransferPayment" style="stroke:#000000;stroke-width:1;"/><polygon fill="none" points="556.45,267.33,567.5631,282.7086,574.5676,272.965,556.45,267.33" style="stroke:#000000;stroke-width:1;"/></g><!--SRC=[fP9DJiCm48NtFiKWDeqW5wZObB058S459iwqjV1FP4-GKEbTsFOSkHXsca3JH0YfstdlpNmpzXLloH3K6fKL0il07YM3r1W2FEE78Skm4m3NQ5nZUGcLQqfDiNBJouknaYLfGxpggeliDB4R1koXzavI24EFQ2kTquJsp1SxzPu7ObGw9EiBUsKtOY_44RJmL2akq5UdoBcCXQV6bEH_8h7vn7osm2rCSzrIVoB_Y_CUxTkhHnlMv4UaA6L2cCBE92Qui-6BYGU-kyyydnvuBCzG2c4T4x2hmQs7dnJ75kaG1CS7Lj61xoINwGQmuZYyREBlSyOq5lf5iqvyR0-yTHM5tsY80a3x1ShKkZsa0UG5sGhIQF4D]--></g></svg>