<svg xmlns="http://www.w3.org/2000/svg" xmlns:xlink="http://www.w3.org/1999/xlink" contentStyleType="text/css" data-diagram-type="CLASS" height="297px" preserveAspectRatio="none" style="width:416px;height:297px;background:#FFFFFF;" version="1.1" viewBox="0 0 416 297" width="416px" zoomAndPan="magnify"><defs/><g><!--class Game--><g class="entity" data-entity="Game" data-source-line="3" data-uid="ent0002" id="entity_Game"><rect fill="#FFFFFF" height="109.1875" rx="2.5" ry="2.5" style="stroke:#000000;stroke-width:1;" width="131.1738" x="53.79" y="12"/><ellipse cx="94.7876" cy="26" fill="#FFFFFF" rx="9" ry="9" style="stroke:#000000;stroke-width:1;"/><path d="M97.7563,31.6406 Q97.1782,31.9375 96.5376,32.0781 Q95.8969,32.2344 95.1938,32.2344 Q92.6938,32.2344 91.3657,30.5938 Q90.0532,28.9375 90.0532,25.8125 Q90.0532,22.6875 91.3657,21.0313 Q92.6938,19.375 95.1938,19.375 Q95.8969,19.375 96.5376,19.5313 Q97.1938,19.6875 97.7563,19.9844 L97.7563,22.7031 Q97.1313,22.125 96.5376,21.8594 Q95.9438,21.5781 95.3188,21.5781 Q93.9751,21.5781 93.2876,22.6563 Q92.6001,23.7188 92.6001,25.8125 Q92.6001,27.9063 93.2876,28.9844 Q93.9751,30.0469 95.3188,30.0469 Q95.9438,30.0469 96.5376,29.7813 Q97.1313,29.5 97.7563,28.9219 L97.7563,31.6406 Z " fill="#000000"/><text fill="#000000" font-family="Verdana" font-size="14" lengthAdjust="spacing" textLength="41.6787" x="112.2876" y="30.8467">Game</text><line style="stroke:#000000;stroke-width:1;" x1="54.79" x2="183.9638" y1="40" y2="40"/><polygon fill="none" points="64.79,48.6484,68.79,52.6484,64.79,56.6484,60.79,52.6484" style="stroke:#000000;stroke-width:1;"/><text fill="#000000" font-family="Verdana" font-size="14" lengthAdjust="spacing" textLength="63.7383" x="71.79" y="56.9951">coins: int</text><line style="stroke:#000000;stroke-width:1;" x1="54.79" x2="183.9638" y1="64.2969" y2="64.2969"/><ellipse cx="64.79" cy="77.9453" fill="#FFFFFF" rx="3" ry="3" style="stroke:#000000;stroke-width:1;"/><text fill="#000000" font-family="Verdana" font-size="14" lengthAdjust="spacing" textLength="52.6025" x="71.79" y="81.292">Game()</text><ellipse cx="64.79" cy="94.2422" fill="#FFFFFF" rx="3" ry="3" style="stroke:#000000;stroke-width:1;"/><text fill="#000000" font-family="Verdana" font-size="14" lengthAdjust="spacing" textLength="99.7295" x="71.79" y="97.5889">getCoins(): int</text><polygon fill="#FFFFFF" points="64.79,105.5391,68.79,109.5391,64.79,113.5391,60.79,109.5391" style="stroke:#000000;stroke-width:1;"/><text fill="#000000" font-family="Verdana" font-size="14" lengthAdjust="spacing" textLength="107.1738" x="71.79" y="113.8857">addCoin(): void</text></g><!--class Player--><g class="entity" data-entity="Player" data-source-line="10" data-uid="ent0003" id="entity_Player"><rect fill="#FFFFFF" height="109.1875" rx="2.5" ry="2.5" style="stroke:#000000;stroke-width:1;" width="214.75" x="12" y="181.18"/><ellipse cx="93.8423" cy="195.18" fill="#FFFFFF" rx="9" ry="9" style="stroke:#000000;stroke-width:1;"/><path d="M96.811,200.8206 Q96.2329,201.1175 95.5923,201.2581 Q94.9517,201.4144 94.2485,201.4144 Q91.7485,201.4144 90.4204,199.7738 Q89.1079,198.1175 89.1079,194.9925 Q89.1079,191.8675 90.4204,190.2113 Q91.7485,188.555 94.2485,188.555 Q94.9517,188.555 95.5923,188.7113 Q96.2485,188.8675 96.811,189.1644 L96.811,191.8831 Q96.186,191.305 95.5923,191.0394 Q94.9985,190.7581 94.3735,190.7581 Q93.0298,190.7581 92.3423,191.8363 Q91.6548,192.8988 91.6548,194.9925 Q91.6548,197.0863 92.3423,198.1644 Q93.0298,199.2269 94.3735,199.2269 Q94.9985,199.2269 95.5923,198.9613 Q96.186,198.68 96.811,198.1019 L96.811,200.8206 Z " fill="#000000"/><text fill="#000000" font-family="Verdana" font-size="14" lengthAdjust="spacing" textLength="43.5654" x="111.3423" y="200.0267">Player</text><line style="stroke:#000000;stroke-width:1;" x1="13" x2="225.75" y1="209.18" y2="209.18"/><rect fill="none" height="6" style="stroke:#000000;stroke-width:1;" width="6" x="20" y="219.8284"/><text fill="#000000" font-family="Verdana" font-size="14" lengthAdjust="spacing" textLength="136.2607" x="30" y="226.1751">playerName: String</text><line style="stroke:#000000;stroke-width:1;" x1="13" x2="225.75" y1="233.4769" y2="233.4769"/><ellipse cx="23" cy="247.1253" fill="#FFFFFF" rx="3" ry="3" style="stroke:#000000;stroke-width:1;"/><text fill="#000000" font-family="Verdana" font-size="14" lengthAdjust="spacing" textLength="190.75" x="30" y="250.472">Player(playerName: String)</text><ellipse cx="23" cy="263.4222" fill="#FFFFFF" rx="3" ry="3" style="stroke:#000000;stroke-width:1;"/><text fill="#000000" font-family="Verdana" font-size="14" lengthAdjust="spacing" textLength="126.6631" x="30" y="266.7689">collectCoin(): void</text><ellipse cx="23" cy="279.7191" fill="#FFFFFF" rx="3" ry="3" style="stroke:#000000;stroke-width:1;"/><text fill="#000000" font-family="Verdana" font-size="14" lengthAdjust="spacing" textLength="135.167" x="30" y="283.0657">displayStats(): void</text></g><g class="entity" data-entity="GMN5" data-source-line="20" data-uid="ent0006" id="entity_GMN5"><path d="M220.26,46.46 L220.26,62.59 L185.14,66.59 L220.26,70.59 L220.26,86.7256 A0,0 0 0 0 220.26,86.7256 L388.4875,86.7256 A0,0 0 0 0 388.4875,86.7256 L388.4875,56.46 L378.4875,46.46 L220.26,46.46 A0,0 0 0 0 220.26,46.46" fill="#FFFFFF" style="stroke:#000000;stroke-width:1;"/><path d="M378.4875,46.46 L378.4875,56.46 L388.4875,56.46 L378.4875,46.46" fill="#FFFFFF" style="stroke:#000000;stroke-width:1;"/><text fill="#000000" font-family="Verdana" font-size="13" lengthAdjust="spacing" textLength="129.3779" x="226.26" y="63.5269">coins est protected:</text><text fill="#000000" font-family="Verdana" font-size="13" lengthAdjust="spacing" textLength="147.2275" x="226.26" y="78.6597">accessible dans Player</text></g><g class="entity" data-entity="GMN8" data-source-line="25" data-uid="ent0009" id="entity_GMN8"><path d="M261.52,215.64 L261.52,231.78 L226.95,235.78 L261.52,239.78 L261.52,255.9056 A0,0 0 0 0 261.52,255.9056 L409.2319,255.9056 A0,0 0 0 0 409.2319,255.9056 L409.2319,225.64 L399.2319,215.64 L261.52,215.64 A0,0 0 0 0 261.52,215.64" fill="#FFFFFF" style="stroke:#000000;stroke-width:1;"/><path d="M399.2319,215.64 L399.2319,225.64 L409.2319,225.64 L399.2319,215.64" fill="#FFFFFF" style="stroke:#000000;stroke-width:1;"/><text fill="#000000" font-family="Verdana" font-size="13" lengthAdjust="spacing" textLength="124.668" x="267.52" y="232.7069">collectCoin() utilise</text><text fill="#000000" font-family="Verdana" font-size="13" lengthAdjust="spacing" textLength="126.7119" x="267.52" y="247.8397">addCoin() de Game</text></g><!--reverse link Game to Player--><g class="link" data-entity-1="Game" data-entity-2="Player" data-source-line="17" data-uid="lnk4" id="link_Game_Player"><path codeLine="17" d="M119.38,139.41 C119.38,158.4 119.38,161.76 119.38,180.77" fill="none" id="Game-backto-Player" style="stroke:#000000;stroke-width:1;"/><polygon fill="none" points="119.38,121.41,113.38,139.41,125.38,139.41,119.38,121.41" style="stroke:#000000;stroke-width:1;"/></g><!--SRC=[PP0n3i8m34NtdCA8fGZr0XKR0nj2uWGXCQsba5IrGKB0tOa3HGKsv__uVTipwV24q0TBqHWNB3DiR5Pk1c3k4aLkWABarrBrQg5LYx9MgrgCvjnwhv8gbqJUF4RQBjWh3eLNzwNUPau3Unaejafx_QZ-pPBbKWZev0kUPK-i3NknmjFGClpgNjVlO6DY4eI1sauW7SjokRzi1iW2_P1z9-YRB5lda9aE0S7RE0vlC7fGp2_iRIjkCYISXGAnndok0XvVqH_K4m00]--></g></svg>