<svg xmlns="http://www.w3.org/2000/svg" xmlns:xlink="http://www.w3.org/1999/xlink" contentStyleType="text/css" data-diagram-type="CLASS" height="499px" preserveAspectRatio="none" style="width:799px;height:499px;background:#FFFFFF;" version="1.1" viewBox="0 0 799 499" width="799px" zoomAndPan="magnify"><defs/><g><!--class Animal--><g class="entity" data-entity="Animal" data-source-line="6" data-uid="ent0002" id="entity_Animal"><rect fill="#FFFFFF" height="158.0781" rx="2.5" ry="2.5" style="stroke:#000000;stroke-width:1;" width="236.1504" x="270.34" y="181.19"/><ellipse cx="357.4479" cy="195.19" fill="#FFFFFF" rx="9" ry="9" style="stroke:#000000;stroke-width:1;"/><path d="M357.5573,190.5338 L356.401,195.6119 L358.7292,195.6119 L357.5573,190.5338 Z M356.0729,188.2994 L359.0573,188.2994 L362.4167,200.69 L359.9635,200.69 L359.1979,197.6275 L355.9167,197.6275 L355.1667,200.69 L352.7292,200.69 L356.0729,188.2994 Z " fill="#000000"/><text fill="#000000" font-family="Verdana" font-size="14" font-style="italic" font-weight="bold" lengthAdjust="spacing" textLength="54.4346" x="374.9479" y="200.0367">Animal</text><line style="stroke:#000000;stroke-width:1;" x1="271.34" x2="505.4904" y1="209.19" y2="209.19"/><text fill="#000000" font-family="Verdana" font-size="14" lengthAdjust="spacing" textLength="95.7031" x="276.34" y="226.1851">-name: String</text><text fill="#000000" font-family="Verdana" font-size="14" lengthAdjust="spacing" textLength="58.5498" x="276.34" y="242.482">-age: int</text><line style="stroke:#000000;stroke-width:1;" x1="271.34" x2="505.4904" y1="249.7838" y2="249.7838"/><text fill="#000000" font-family="Verdana" font-size="14" lengthAdjust="spacing" textLength="224.1504" x="276.34" y="266.7789">+Animal(name: String, age: int)</text><text fill="#000000" font-family="Verdana" font-size="14" lengthAdjust="spacing" textLength="137.8945" x="276.34" y="283.0757">+getName(): String</text><text fill="#000000" font-family="Verdana" font-size="14" lengthAdjust="spacing" textLength="100.1396" x="276.34" y="299.3726">+getAge(): int</text><text fill="#000000" font-family="Verdana" font-size="14" font-style="italic" lengthAdjust="spacing" textLength="144.4707" x="276.34" y="315.6695">+makeSound(): void</text><text fill="#000000" font-family="Verdana" font-size="14" font-style="italic" lengthAdjust="spacing" textLength="164.999" x="276.34" y="331.9664">+getFoodType(): String</text></g><!--class Lion--><g class="entity" data-entity="Lion" data-source-line="16" data-uid="ent0003" id="entity_Lion"><rect fill="#FFFFFF" height="92.8906" rx="2.5" ry="2.5" style="stroke:#000000;stroke-width:1;" width="216.832" x="12" y="399.27"/><ellipse cx="100.0137" cy="413.27" fill="#FFFFFF" rx="9" ry="9" style="stroke:#000000;stroke-width:1;"/><path d="M102.9824,418.9106 Q102.4043,419.2075 101.7637,419.3481 Q101.123,419.5044 100.4199,419.5044 Q97.9199,419.5044 96.5918,417.8638 Q95.2793,416.2075 95.2793,413.0825 Q95.2793,409.9575 96.5918,408.3013 Q97.9199,406.645 100.4199,406.645 Q101.123,406.645 101.7637,406.8013 Q102.4199,406.9575 102.9824,407.2544 L102.9824,409.9731 Q102.3574,409.395 101.7637,409.1294 Q101.1699,408.8481 100.5449,408.8481 Q99.2012,408.8481 98.5137,409.9263 Q97.8262,410.9888 97.8262,413.0825 Q97.8262,415.1763 98.5137,416.2544 Q99.2012,417.3169 100.5449,417.3169 Q101.1699,417.3169 101.7637,417.0513 Q102.3574,416.77 102.9824,416.1919 L102.9824,418.9106 Z " fill="#000000"/><text fill="#000000" font-family="Verdana" font-size="14" font-weight="bold" lengthAdjust="spacing" textLength="33.3047" x="117.5137" y="418.1167">Lion</text><line style="stroke:#000000;stroke-width:1;" x1="13" x2="227.832" y1="427.27" y2="427.27"/><line style="stroke:#000000;stroke-width:1;" x1="13" x2="227.832" y1="435.27" y2="435.27"/><text fill="#000000" font-family="Verdana" font-size="14" lengthAdjust="spacing" textLength="204.832" x="18" y="452.2651">+Lion(name: String, age: int)</text><text fill="#000000" font-family="Verdana" font-size="14" lengthAdjust="spacing" textLength="144.4707" x="18" y="468.562">+makeSound(): void</text><text fill="#000000" font-family="Verdana" font-size="14" lengthAdjust="spacing" textLength="164.999" x="18" y="484.8589">+getFoodType(): String</text></g><!--class Elephant--><g class="entity" data-entity="Elephant" data-source-line="22" data-uid="ent0004" id="entity_Elephant"><rect fill="#FFFFFF" height="92.8906" rx="2.5" ry="2.5" style="stroke:#000000;stroke-width:1;" width="249.7539" x="263.54" y="399.27"/><ellipse cx="349.6909" cy="413.27" fill="#FFFFFF" rx="9" ry="9" style="stroke:#000000;stroke-width:1;"/><path d="M352.6596,418.9106 Q352.0815,419.2075 351.4409,419.3481 Q350.8003,419.5044 350.0971,419.5044 Q347.5971,419.5044 346.269,417.8638 Q344.9565,416.2075 344.9565,413.0825 Q344.9565,409.9575 346.269,408.3013 Q347.5971,406.645 350.0971,406.645 Q350.8003,406.645 351.4409,406.8013 Q352.0971,406.9575 352.6596,407.2544 L352.6596,409.9731 Q352.0346,409.395 351.4409,409.1294 Q350.8471,408.8481 350.2221,408.8481 Q348.8784,408.8481 348.1909,409.9263 Q347.5034,410.9888 347.5034,413.0825 Q347.5034,415.1763 348.1909,416.2544 Q348.8784,417.3169 350.2221,417.3169 Q350.8471,417.3169 351.4409,417.0513 Q352.0346,416.77 352.6596,416.1919 L352.6596,418.9106 Z " fill="#000000"/><text fill="#000000" font-family="Verdana" font-size="14" font-weight="bold" lengthAdjust="spacing" textLength="69.9521" x="367.1909" y="418.1167">Elephant</text><line style="stroke:#000000;stroke-width:1;" x1="264.54" x2="512.2939" y1="427.27" y2="427.27"/><line style="stroke:#000000;stroke-width:1;" x1="264.54" x2="512.2939" y1="435.27" y2="435.27"/><text fill="#000000" font-family="Verdana" font-size="14" lengthAdjust="spacing" textLength="237.7539" x="269.54" y="452.2651">+Elephant(name: String, age: int)</text><text fill="#000000" font-family="Verdana" font-size="14" lengthAdjust="spacing" textLength="144.4707" x="269.54" y="468.562">+makeSound(): void</text><text fill="#000000" font-family="Verdana" font-size="14" lengthAdjust="spacing" textLength="164.999" x="269.54" y="484.8589">+getFoodType(): String</text></g><!--class Penguin--><g class="entity" data-entity="Penguin" data-source-line="28" data-uid="ent0005" id="entity_Penguin"><rect fill="#FFFFFF" height="92.8906" rx="2.5" ry="2.5" style="stroke:#000000;stroke-width:1;" width="244.1553" x="548.34" y="399.27"/><ellipse cx="634.4294" cy="413.27" fill="#FFFFFF" rx="9" ry="9" style="stroke:#000000;stroke-width:1;"/><path d="M637.3981,418.9106 Q636.82,419.2075 636.1794,419.3481 Q635.5387,419.5044 634.8356,419.5044 Q632.3356,419.5044 631.0075,417.8638 Q629.695,416.2075 629.695,413.0825 Q629.695,409.9575 631.0075,408.3013 Q632.3356,406.645 634.8356,406.645 Q635.5387,406.645 636.1794,406.8013 Q636.8356,406.9575 637.3981,407.2544 L637.3981,409.9731 Q636.7731,409.395 636.1794,409.1294 Q635.5856,408.8481 634.9606,408.8481 Q633.6169,408.8481 632.9294,409.9263 Q632.2419,410.9888 632.2419,413.0825 Q632.2419,415.1763 632.9294,416.2544 Q633.6169,417.3169 634.9606,417.3169 Q635.5856,417.3169 636.1794,417.0513 Q636.7731,416.77 637.3981,416.1919 L637.3981,418.9106 Z " fill="#000000"/><text fill="#000000" font-family="Verdana" font-size="14" font-weight="bold" lengthAdjust="spacing" textLength="64.4766" x="651.9294" y="418.1167">Penguin</text><line style="stroke:#000000;stroke-width:1;" x1="549.34" x2="791.4953" y1="427.27" y2="427.27"/><line style="stroke:#000000;stroke-width:1;" x1="549.34" x2="791.4953" y1="435.27" y2="435.27"/><text fill="#000000" font-family="Verdana" font-size="14" lengthAdjust="spacing" textLength="232.1553" x="554.34" y="452.2651">+Penguin(name: String, age: int)</text><text fill="#000000" font-family="Verdana" font-size="14" lengthAdjust="spacing" textLength="144.4707" x="554.34" y="468.562">+makeSound(): void</text><text fill="#000000" font-family="Verdana" font-size="14" lengthAdjust="spacing" textLength="164.999" x="554.34" y="484.8589">+getFoodType(): String</text></g><!--class Zoo--><g class="entity" data-entity="Zoo" data-source-line="34" data-uid="ent0006" id="entity_Zoo"><rect fill="#FFFFFF" height="109.1875" rx="2.5" ry="2.5" style="stroke:#000000;stroke-width:1;" width="253.3086" x="261.76" y="12"/><ellipse cx="369.9704" cy="26" fill="#FFFFFF" rx="9" ry="9" style="stroke:#000000;stroke-width:1;"/><path d="M372.9392,31.6406 Q372.3611,31.9375 371.7204,32.0781 Q371.0798,32.2344 370.3767,32.2344 Q367.8767,32.2344 366.5486,30.5938 Q365.2361,28.9375 365.2361,25.8125 Q365.2361,22.6875 366.5486,21.0313 Q367.8767,19.375 370.3767,19.375 Q371.0798,19.375 371.7204,19.5313 Q372.3767,19.6875 372.9392,19.9844 L372.9392,22.7031 Q372.3142,22.125 371.7204,21.8594 Q371.1267,21.5781 370.5017,21.5781 Q369.1579,21.5781 368.4704,22.6563 Q367.7829,23.7188 367.7829,25.8125 Q367.7829,27.9063 368.4704,28.9844 Q369.1579,30.0469 370.5017,30.0469 Q371.1267,30.0469 371.7204,29.7813 Q372.3142,29.5 372.9392,28.9219 L372.9392,31.6406 Z " fill="#000000"/><text fill="#000000" font-family="Verdana" font-size="14" font-weight="bold" lengthAdjust="spacing" textLength="29.3877" x="387.4704" y="30.8467">Zoo</text><line style="stroke:#000000;stroke-width:1;" x1="262.76" x2="514.0686" y1="40" y2="40"/><text fill="#000000" font-family="Verdana" font-size="14" lengthAdjust="spacing" textLength="128.3311" x="267.76" y="56.9951">-animals: Animal[]</text><line style="stroke:#000000;stroke-width:1;" x1="262.76" x2="514.0686" y1="64.2969" y2="64.2969"/><text fill="#000000" font-family="Verdana" font-size="14" lengthAdjust="spacing" textLength="241.3086" x="267.76" y="81.292">+addAnimal(animal: Animal): void</text><text fill="#000000" font-family="Verdana" font-size="14" lengthAdjust="spacing" textLength="165.5869" x="267.76" y="97.5889">+feedAllAnimals(): void</text><text fill="#000000" font-family="Verdana" font-size="14" lengthAdjust="spacing" textLength="169.1211" x="267.76" y="113.8857">+makeAllSounds(): void</text></g><!--reverse link Animal to Lion--><g class="link" data-entity-1="Animal" data-entity-2="Lion" data-source-line="41" data-uid="lnk7" id="link_Animal_Lion"><path codeLine="41" d="M259.1278,349.7492 C229.5378,370.0092 213.5,380.99 187.24,398.96" fill="none" id="Animal-backto-Lion" style="stroke:#000000;stroke-width:1;"/><polygon fill="none" points="273.98,339.58,255.7381,344.7984,262.5175,354.6999,273.98,339.58" style="stroke:#000000;stroke-width:1;"/></g><!--reverse link Animal to Elephant--><g class="link" data-entity-1="Animal" data-entity-2="Elephant" data-source-line="42" data-uid="lnk8" id="link_Animal_Elephant"><path codeLine="42" d="M388.42,357.58 C388.42,377.84 388.42,380.99 388.42,398.96" fill="none" id="Animal-backto-Elephant" style="stroke:#000000;stroke-width:1;"/><polygon fill="none" points="388.42,339.58,382.42,357.58,394.42,357.58,388.42,339.58" style="stroke:#000000;stroke-width:1;"/></g><!--reverse link Animal to Penguin--><g class="link" data-entity-1="Animal" data-entity-2="Penguin" data-source-line="43" data-uid="lnk9" id="link_Animal_Penguin"><path codeLine="43" d="M521.8696,348.0635 C553.5296,368.6535 571.65,380.45 599.82,398.78" fill="none" id="Animal-backto-Penguin" style="stroke:#000000;stroke-width:1;"/><polygon fill="none" points="506.78,338.25,518.5984,353.0933,525.1407,343.0336,506.78,338.25" style="stroke:#000000;stroke-width:1;"/></g><!--reverse link Zoo to Animal--><g class="link" data-entity-1="Zoo" data-entity-2="Animal" data-source-line="44" data-uid="lnk10" id="link_Zoo_Animal"><path codeLine="44" d="M388.42,133.49 C388.42,151.86 388.42,160.8 388.42,180.71" fill="none" id="Zoo-backto-Animal" style="stroke:#000000;stroke-width:1;"/><polygon fill="none" points="388.42,121.49,384.42,127.49,388.42,133.49,392.42,127.49,388.42,121.49" style="stroke:#000000;stroke-width:1;"/></g><!--SRC=[hLAnJiCm5Dpz5O-jLOd4NB5ae18IGaXX0Z6yn8_KglqSnGvIAVrtxDWHQOLWwURtxdntpkNARyaGT1eL2-5sYZliqK2ZqRdI-rxLWwVxndAbFWbkpYaRoxxoUqrGMos5mDhv7XkVK2XP6THm4005ew4rL46IspXZ6qR5FfnNYRUOKwvX8YmZeoN_6D35SYOHbsKxxhBEOV8_Wi4TLNPW6U4Fg-GP7kvkh9NF-sukUXGY9NzGbiVSgtZwAzclHl-etsdgjiW-EKpJfLsUYDj1vMVauT8UBzQcUd6iqArpvwzlyJ9AcQjDy8JEzD-9PAbrshkvSumJa37H3n2Syrzr-rKKOqydY-bZdYppuqLCQyESC274Dm00]--></g></svg>