<svg xmlns="http://www.w3.org/2000/svg" xmlns:xlink="http://www.w3.org/1999/xlink" contentStyleType="text/css" data-diagram-type="CLASS" height="499px" preserveAspectRatio="none" style="width:800px;height:499px;background:#FFFFFF;" version="1.1" viewBox="0 0 800 499" width="800px" zoomAndPan="magnify"><defs/><g><!--class Animal--><g class="entity" data-entity="Animal" data-source-line="3" data-uid="ent0002" id="entity_Animal"><rect fill="#FFFFFF" height="158.0781" rx="2.5" ry="2.5" style="stroke:#000000;stroke-width:1;" width="236.4199" x="271.34" y="181.19"/><ellipse cx="361.5768" cy="195.19" fill="#FFFFFF" rx="9" ry="9" style="stroke:#000000;stroke-width:1;"/><path d="M361.6862,190.5338 L360.5299,195.6119 L362.8581,195.6119 L361.6862,190.5338 Z M360.2018,188.2994 L363.1862,188.2994 L366.5456,200.69 L364.0924,200.69 L363.3268,197.6275 L360.0456,197.6275 L359.2956,200.69 L356.8581,200.69 L360.2018,188.2994 Z " fill="#000000"/><text fill="#000000" font-family="Verdana" font-size="14" font-style="italic" lengthAdjust="spacing" textLength="48.4463" x="379.0768" y="200.0367">Animal</text><line style="stroke:#000000;stroke-width:1;" x1="272.34" x2="506.7599" y1="209.19" y2="209.19"/><rect fill="none" height="6" style="stroke:#000000;stroke-width:1;" width="6" x="279.34" y="219.8384"/><text fill="#000000" font-family="Verdana" font-size="14" lengthAdjust="spacing" textLength="90.6514" x="289.34" y="226.1851">name: String</text><rect fill="none" height="6" style="stroke:#000000;stroke-width:1;" width="6" x="279.34" y="236.1353"/><text fill="#000000" font-family="Verdana" font-size="14" lengthAdjust="spacing" textLength="53.498" x="289.34" y="242.482">age: int</text><line style="stroke:#000000;stroke-width:1;" x1="272.34" x2="506.7599" y1="249.7838" y2="249.7838"/><ellipse cx="282.34" cy="263.4322" fill="#FFFFFF" rx="3" ry="3" style="stroke:#000000;stroke-width:1;"/><text fill="#000000" font-family="Verdana" font-size="14" lengthAdjust="spacing" textLength="212.4199" x="289.34" y="266.7789">Animal(name: String, age: int)</text><ellipse cx="282.34" cy="279.7291" fill="#FFFFFF" rx="3" ry="3" style="stroke:#000000;stroke-width:1;"/><text fill="#000000" font-family="Verdana" font-size="14" lengthAdjust="spacing" textLength="126.1641" x="289.34" y="283.0757">getName(): String</text><ellipse cx="282.34" cy="296.0259" fill="#FFFFFF" rx="3" ry="3" style="stroke:#000000;stroke-width:1;"/><text fill="#000000" font-family="Verdana" font-size="14" lengthAdjust="spacing" textLength="88.4092" x="289.34" y="299.3726">getAge(): int</text><ellipse cx="282.34" cy="312.3228" fill="#FFFFFF" rx="3" ry="3" style="stroke:#000000;stroke-width:1;"/><text fill="#000000" font-family="Verdana" font-size="14" font-style="italic" lengthAdjust="spacing" textLength="132.7402" x="289.34" y="315.6695">makeSound(): void</text><ellipse cx="282.34" cy="328.6197" fill="#FFFFFF" rx="3" ry="3" style="stroke:#000000;stroke-width:1;"/><text fill="#000000" font-family="Verdana" font-size="14" font-style="italic" lengthAdjust="spacing" textLength="153.2686" x="289.34" y="331.9664">getFoodType(): String</text></g><!--class Lion--><g class="entity" data-entity="Lion" data-source-line="13" data-uid="ent0003" id="entity_Lion"><rect fill="#FFFFFF" height="92.8906" rx="2.5" ry="2.5" style="stroke:#000000;stroke-width:1;" width="217.1016" x="12" y="399.27"/><ellipse cx="102.2368" cy="413.27" fill="#FFFFFF" rx="9" ry="9" style="stroke:#000000;stroke-width:1;"/><path d="M105.2056,418.9106 Q104.6274,419.2075 103.9868,419.3481 Q103.3462,419.5044 102.6431,419.5044 Q100.1431,419.5044 98.8149,417.8638 Q97.5024,416.2075 97.5024,413.0825 Q97.5024,409.9575 98.8149,408.3013 Q100.1431,406.645 102.6431,406.645 Q103.3462,406.645 103.9868,406.8013 Q104.6431,406.9575 105.2056,407.2544 L105.2056,409.9731 Q104.5806,409.395 103.9868,409.1294 Q103.3931,408.8481 102.7681,408.8481 Q101.4243,408.8481 100.7368,409.9263 Q100.0493,410.9888 100.0493,413.0825 Q100.0493,415.1763 100.7368,416.2544 Q101.4243,417.3169 102.7681,417.3169 Q103.3931,417.3169 103.9868,417.0513 Q104.5806,416.77 105.2056,416.1919 L105.2056,418.9106 Z " fill="#000000"/><text fill="#000000" font-family="Verdana" font-size="14" lengthAdjust="spacing" textLength="29.1279" x="119.7368" y="418.1167">Lion</text><line style="stroke:#000000;stroke-width:1;" x1="13" x2="228.1016" y1="427.27" y2="427.27"/><line style="stroke:#000000;stroke-width:1;" x1="13" x2="228.1016" y1="435.27" y2="435.27"/><ellipse cx="23" cy="448.9184" fill="#FFFFFF" rx="3" ry="3" style="stroke:#000000;stroke-width:1;"/><text fill="#000000" font-family="Verdana" font-size="14" lengthAdjust="spacing" textLength="193.1016" x="30" y="452.2651">Lion(name: String, age: int)</text><ellipse cx="23" cy="465.2153" fill="#FFFFFF" rx="3" ry="3" style="stroke:#000000;stroke-width:1;"/><text fill="#000000" font-family="Verdana" font-size="14" lengthAdjust="spacing" textLength="132.7402" x="30" y="468.562">makeSound(): void</text><ellipse cx="23" cy="481.5122" fill="#FFFFFF" rx="3" ry="3" style="stroke:#000000;stroke-width:1;"/><text fill="#000000" font-family="Verdana" font-size="14" lengthAdjust="spacing" textLength="153.2686" x="30" y="484.8589">getFoodType(): String</text></g><!--class Elephant--><g class="entity" data-entity="Elephant" data-source-line="19" data-uid="ent0004" id="entity_Elephant"><rect fill="#FFFFFF" height="92.8906" rx="2.5" ry="2.5" style="stroke:#000000;stroke-width:1;" width="250.0234" x="264.54" y="399.27"/><ellipse cx="354.7768" cy="413.27" fill="#FFFFFF" rx="9" ry="9" style="stroke:#000000;stroke-width:1;"/><path d="M357.7456,418.9106 Q357.1674,419.2075 356.5268,419.3481 Q355.8862,419.5044 355.1831,419.5044 Q352.6831,419.5044 351.3549,417.8638 Q350.0424,416.2075 350.0424,413.0825 Q350.0424,409.9575 351.3549,408.3013 Q352.6831,406.645 355.1831,406.645 Q355.8862,406.645 356.5268,406.8013 Q357.1831,406.9575 357.7456,407.2544 L357.7456,409.9731 Q357.1206,409.395 356.5268,409.1294 Q355.9331,408.8481 355.3081,408.8481 Q353.9643,408.8481 353.2768,409.9263 Q352.5893,410.9888 352.5893,413.0825 Q352.5893,415.1763 353.2768,416.2544 Q353.9643,417.3169 355.3081,417.3169 Q355.9331,417.3169 356.5268,417.0513 Q357.1206,416.77 357.7456,416.1919 L357.7456,418.9106 Z " fill="#000000"/><text fill="#000000" font-family="Verdana" font-size="14" lengthAdjust="spacing" textLength="62.0498" x="372.2768" y="418.1167">Elephant</text><line style="stroke:#000000;stroke-width:1;" x1="265.54" x2="513.5634" y1="427.27" y2="427.27"/><line style="stroke:#000000;stroke-width:1;" x1="265.54" x2="513.5634" y1="435.27" y2="435.27"/><ellipse cx="275.54" cy="448.9184" fill="#FFFFFF" rx="3" ry="3" style="stroke:#000000;stroke-width:1;"/><text fill="#000000" font-family="Verdana" font-size="14" lengthAdjust="spacing" textLength="226.0234" x="282.54" y="452.2651">Elephant(name: String, age: int)</text><ellipse cx="275.54" cy="465.2153" fill="#FFFFFF" rx="3" ry="3" style="stroke:#000000;stroke-width:1;"/><text fill="#000000" font-family="Verdana" font-size="14" lengthAdjust="spacing" textLength="132.7402" x="282.54" y="468.562">makeSound(): void</text><ellipse cx="275.54" cy="481.5122" fill="#FFFFFF" rx="3" ry="3" style="stroke:#000000;stroke-width:1;"/><text fill="#000000" font-family="Verdana" font-size="14" lengthAdjust="spacing" textLength="153.2686" x="282.54" y="484.8589">getFoodType(): String</text></g><!--class Penguin--><g class="entity" data-entity="Penguin" data-source-line="25" data-uid="ent0005" id="entity_Penguin"><rect fill="#FFFFFF" height="92.8906" rx="2.5" ry="2.5" style="stroke:#000000;stroke-width:1;" width="244.4248" x="549.34" y="399.27"/><ellipse cx="639.5768" cy="413.27" fill="#FFFFFF" rx="9" ry="9" style="stroke:#000000;stroke-width:1;"/><path d="M642.5456,418.9106 Q641.9674,419.2075 641.3268,419.3481 Q640.6862,419.5044 639.9831,419.5044 Q637.4831,419.5044 636.1549,417.8638 Q634.8424,416.2075 634.8424,413.0825 Q634.8424,409.9575 636.1549,408.3013 Q637.4831,406.645 639.9831,406.645 Q640.6862,406.645 641.3268,406.8013 Q641.9831,406.9575 642.5456,407.2544 L642.5456,409.9731 Q641.9206,409.395 641.3268,409.1294 Q640.7331,408.8481 640.1081,408.8481 Q638.7643,408.8481 638.0768,409.9263 Q637.3893,410.9888 637.3893,413.0825 Q637.3893,415.1763 638.0768,416.2544 Q638.7643,417.3169 640.1081,417.3169 Q640.7331,417.3169 641.3268,417.0513 Q641.9206,416.77 642.5456,416.1919 L642.5456,418.9106 Z " fill="#000000"/><text fill="#000000" font-family="Verdana" font-size="14" lengthAdjust="spacing" textLength="56.4512" x="657.0768" y="418.1167">Penguin</text><line style="stroke:#000000;stroke-width:1;" x1="550.34" x2="792.7648" y1="427.27" y2="427.27"/><line style="stroke:#000000;stroke-width:1;" x1="550.34" x2="792.7648" y1="435.27" y2="435.27"/><ellipse cx="560.34" cy="448.9184" fill="#FFFFFF" rx="3" ry="3" style="stroke:#000000;stroke-width:1;"/><text fill="#000000" font-family="Verdana" font-size="14" lengthAdjust="spacing" textLength="220.4248" x="567.34" y="452.2651">Penguin(name: String, age: int)</text><ellipse cx="560.34" cy="465.2153" fill="#FFFFFF" rx="3" ry="3" style="stroke:#000000;stroke-width:1;"/><text fill="#000000" font-family="Verdana" font-size="14" lengthAdjust="spacing" textLength="132.7402" x="567.34" y="468.562">makeSound(): void</text><ellipse cx="560.34" cy="481.5122" fill="#FFFFFF" rx="3" ry="3" style="stroke:#000000;stroke-width:1;"/><text fill="#000000" font-family="Verdana" font-size="14" lengthAdjust="spacing" textLength="153.2686" x="567.34" y="484.8589">getFoodType(): String</text></g><!--class Zoo--><g class="entity" data-entity="Zoo" data-source-line="31" data-uid="ent0006" id="entity_Zoo"><rect fill="#FFFFFF" height="109.1875" rx="2.5" ry="2.5" style="stroke:#000000;stroke-width:1;" width="253.5781" x="262.76" y="12"/><ellipse cx="372.4382" cy="26" fill="#FFFFFF" rx="9" ry="9" style="stroke:#000000;stroke-width:1;"/><path d="M375.407,31.6406 Q374.8288,31.9375 374.1882,32.0781 Q373.5476,32.2344 372.8445,32.2344 Q370.3445,32.2344 369.0163,30.5938 Q367.7038,28.9375 367.7038,25.8125 Q367.7038,22.6875 369.0163,21.0313 Q370.3445,19.375 372.8445,19.375 Q373.5476,19.375 374.1882,19.5313 Q374.8445,19.6875 375.407,19.9844 L375.407,22.7031 Q374.782,22.125 374.1882,21.8594 Q373.5945,21.5781 372.9695,21.5781 Q371.6257,21.5781 370.9382,22.6563 Q370.2507,23.7188 370.2507,25.8125 Q370.2507,27.9063 370.9382,28.9844 Q371.6257,30.0469 372.9695,30.0469 Q373.5945,30.0469 374.1882,29.7813 Q374.782,29.5 375.407,28.9219 L375.407,31.6406 Z " fill="#000000"/><text fill="#000000" font-family="Verdana" font-size="14" lengthAdjust="spacing" textLength="26.7217" x="389.9382" y="30.8467">Zoo</text><line style="stroke:#000000;stroke-width:1;" x1="263.76" x2="515.3381" y1="40" y2="40"/><rect fill="none" height="6" style="stroke:#000000;stroke-width:1;" width="6" x="270.76" y="50.6484"/><text fill="#000000" font-family="Verdana" font-size="14" lengthAdjust="spacing" textLength="123.2793" x="280.76" y="56.9951">animals: Animal[]</text><line style="stroke:#000000;stroke-width:1;" x1="263.76" x2="515.3381" y1="64.2969" y2="64.2969"/><ellipse cx="273.76" cy="77.9453" fill="#FFFFFF" rx="3" ry="3" style="stroke:#000000;stroke-width:1;"/><text fill="#000000" font-family="Verdana" font-size="14" lengthAdjust="spacing" textLength="229.5781" x="280.76" y="81.292">addAnimal(animal: Animal): void</text><ellipse cx="273.76" cy="94.2422" fill="#FFFFFF" rx="3" ry="3" style="stroke:#000000;stroke-width:1;"/><text fill="#000000" font-family="Verdana" font-size="14" lengthAdjust="spacing" textLength="153.8564" x="280.76" y="97.5889">feedAllAnimals(): void</text><ellipse cx="273.76" cy="110.5391" fill="#FFFFFF" rx="3" ry="3" style="stroke:#000000;stroke-width:1;"/><text fill="#000000" font-family="Verdana" font-size="14" lengthAdjust="spacing" textLength="157.3906" x="280.76" y="113.8857">makeAllSounds(): void</text></g><!--reverse link Animal to Lion--><g class="link" data-entity-1="Animal" data-entity-2="Lion" data-source-line="38" data-uid="lnk7" id="link_Animal_Lion"><path codeLine="38" d="M259.8202,349.7235 C230.1202,369.9835 213.98,380.99 187.63,398.96" fill="none" id="Animal-backto-Lion" style="stroke:#000000;stroke-width:1;"/><polygon fill="none" points="274.69,339.58,256.4391,344.7669,263.2014,354.6801,274.69,339.58" style="stroke:#000000;stroke-width:1;"/></g><!--reverse link Animal to Elephant--><g class="link" data-entity-1="Animal" data-entity-2="Elephant" data-source-line="39" data-uid="lnk8" id="link_Animal_Elephant"><path codeLine="39" d="M389.55,357.58 C389.55,377.84 389.55,380.99 389.55,398.96" fill="none" id="Animal-backto-Elephant" style="stroke:#000000;stroke-width:1;"/><polygon fill="none" points="389.55,339.58,383.55,357.58,395.55,357.58,389.55,339.58" style="stroke:#000000;stroke-width:1;"/></g><!--reverse link Animal to Penguin--><g class="link" data-entity-1="Animal" data-entity-2="Penguin" data-source-line="40" data-uid="lnk9" id="link_Animal_Penguin"><path codeLine="40" d="M523.0082,348.0657 C554.6582,368.6557 572.79,380.45 600.96,398.78" fill="none" id="Animal-backto-Penguin" style="stroke:#000000;stroke-width:1;"/><polygon fill="none" points="507.92,338.25,519.7363,353.095,526.2801,343.0363,507.92,338.25" style="stroke:#000000;stroke-width:1;"/></g><!--reverse link Zoo to Animal--><g class="link" data-entity-1="Zoo" data-entity-2="Animal" data-source-line="41" data-uid="lnk10" id="link_Zoo_Animal"><path codeLine="41" d="M389.55,133.49 C389.55,151.86 389.55,160.8 389.55,180.71" fill="none" id="Zoo-backto-Animal" style="stroke:#000000;stroke-width:1;"/><polygon fill="none" points="389.55,121.49,385.55,127.49,389.55,133.49,393.55,127.49,389.55,121.49" style="stroke:#000000;stroke-width:1;"/></g><!--SRC=[hLAxRW8n4Epz5PiEHEu74CqLf8gYIAGYebZmnbZnhK_O84M4Vu-VYecYfA7pxAndnZTtv_Sq48m6DGk1M-SFkFEmC-WSzAm7D70M01tZG7DO-ODc5J6g03NxS9xblKcxSWzrOHet5Fcdm4wcZKGSzYhDYiwv-bzWm7TQsIFBI9-ibZ_uSFV1MldoCRQY5o5oyaTjEUMUnTDVoNur-aTzQMZS8_liKD6jNPw9rL6NPnHmQu-rjRbUJ1MwUUdyTHClevIbsanNjj5_8vAzCNdkMkSO9p0fqJSHdCjVjVZikjJJrQ1-pAjXURo8QMt0cHDV]--></g></svg>