<svg xmlns="http://www.w3.org/2000/svg" xmlns:xlink="http://www.w3.org/1999/xlink" contentStyleType="text/css" data-diagram-type="CLASS" height="177px" preserveAspectRatio="none" style="width:987px;height:177px;background:#FFFFFF;" version="1.1" viewBox="0 0 987 177" width="987px" zoomAndPan="magnify"><defs/><g><!--class UserBefore--><g class="entity" data-entity="UserBefore" data-source-line="6" data-uid="ent0002" id="entity_UserBefore"><rect fill="#FFFFFF" height="92.8906" rx="2.5" ry="2.5" style="stroke:#000000;stroke-width:1;" width="144.918" x="12" y="44.6"/><ellipse cx="33.3101" cy="58.6" fill="#FFFFFF" rx="9" ry="9" style="stroke:#000000;stroke-width:1;"/><path d="M36.2788,64.2406 Q35.7007,64.5375 35.0601,64.6781 Q34.4194,64.8344 33.7163,64.8344 Q31.2163,64.8344 29.8882,63.1938 Q28.5757,61.5375 28.5757,58.4125 Q28.5757,55.2875 29.8882,53.6313 Q31.2163,51.975 33.7163,51.975 Q34.4194,51.975 35.0601,52.1313 Q35.7163,52.2875 36.2788,52.5844 L36.2788,55.3031 Q35.6538,54.725 35.0601,54.4594 Q34.4663,54.1781 33.8413,54.1781 Q32.4976,54.1781 31.8101,55.2563 Q31.1226,56.3188 31.1226,58.4125 Q31.1226,60.5063 31.8101,61.5844 Q32.4976,62.6469 33.8413,62.6469 Q34.4663,62.6469 35.0601,62.3813 Q35.6538,62.1 36.2788,61.5219 L36.2788,64.2406 Z " fill="#000000"/><text fill="#000000" font-family="Verdana" font-size="14" font-weight="bold" lengthAdjust="spacing" textLength="98.4512" x="47.1567" y="63.4467">User (avant)</text><line style="stroke:#000000;stroke-width:1;" x1="13" x2="155.918" y1="72.6" y2="72.6"/><text fill="#000000" font-family="Verdana" font-size="14" lengthAdjust="spacing" textLength="132.918" x="18" y="89.5951">+username: String</text><text fill="#000000" font-family="Verdana" font-size="14" lengthAdjust="spacing" textLength="129.3906" x="18" y="105.892">+password: String</text><text fill="#000000" font-family="Verdana" font-size="14" lengthAdjust="spacing" textLength="101.2881" x="18" y="122.1889">+email: String</text><line style="stroke:#000000;stroke-width:1;" x1="13" x2="155.918" y1="129.4906" y2="129.4906"/></g><!--class UserAfter--><g class="entity" data-entity="UserAfter" data-source-line="12" data-uid="ent0003" id="entity_UserAfter"><rect fill="#FFFFFF" height="158.0781" rx="2.5" ry="2.5" style="stroke:#000000;stroke-width:1;" width="278.7725" x="424.07" y="12"/><ellipse cx="510.7199" cy="26" fill="#FFFFFF" rx="9" ry="9" style="stroke:#000000;stroke-width:1;"/><path d="M513.6887,31.6406 Q513.1105,31.9375 512.4699,32.0781 Q511.8293,32.2344 511.1262,32.2344 Q508.6262,32.2344 507.298,30.5938 Q505.9855,28.9375 505.9855,25.8125 Q505.9855,22.6875 507.298,21.0313 Q508.6262,19.375 511.1262,19.375 Q511.8293,19.375 512.4699,19.5313 Q513.1262,19.6875 513.6887,19.9844 L513.6887,22.7031 Q513.0637,22.125 512.4699,21.8594 Q511.8762,21.5781 511.2512,21.5781 Q509.9074,21.5781 509.2199,22.6563 Q508.5324,23.7188 508.5324,25.8125 Q508.5324,27.9063 509.2199,28.9844 Q509.9074,30.0469 511.2512,30.0469 Q511.8762,30.0469 512.4699,29.7813 Q513.0637,29.5 513.6887,28.9219 L513.6887,31.6406 Z " fill="#000000"/><text fill="#000000" font-family="Verdana" font-size="14" font-weight="bold" lengthAdjust="spacing" textLength="97.9727" x="528.2199" y="30.8467">User (apr&#232;s)</text><line style="stroke:#000000;stroke-width:1;" x1="425.07" x2="701.8425" y1="40" y2="40"/><text fill="#000000" font-family="Verdana" font-size="14" lengthAdjust="spacing" textLength="126.2393" x="430.07" y="56.9951">-username: String</text><text fill="#000000" font-family="Verdana" font-size="14" lengthAdjust="spacing" textLength="122.7119" x="430.07" y="73.292">-password: String</text><text fill="#000000" font-family="Verdana" font-size="14" lengthAdjust="spacing" textLength="94.6094" x="430.07" y="89.5889">-email: String</text><line style="stroke:#000000;stroke-width:1;" x1="425.07" x2="701.8425" y1="96.8906" y2="96.8906"/><text fill="#000000" font-family="Verdana" font-size="14" lengthAdjust="spacing" textLength="168.2051" x="430.07" y="113.8857">+getUsername(): String</text><text fill="#000000" font-family="Verdana" font-size="14" lengthAdjust="spacing" textLength="266.7725" x="430.07" y="130.1826">+setPassword(password: String): void</text><text fill="#000000" font-family="Verdana" font-size="14" lengthAdjust="spacing" textLength="135.4336" x="430.07" y="146.4795">+getEmail(): String</text><text fill="#000000" font-family="Verdana" font-size="14" lengthAdjust="spacing" textLength="211.2441" x="430.07" y="162.7764">+setEmail(email: String): void</text></g><g class="entity" data-entity="GMN4" data-source-line="23" data-uid="ent0005" id="entity_GMN4"><path d="M192.12,70.91 L192.12,87.04 L157.28,91.04 L192.12,95.04 L192.12,111.1756 A0,0 0 0 0 192.12,111.1756 L388.7914,111.1756 A0,0 0 0 0 388.7914,111.1756 L388.7914,80.91 L378.7914,70.91 L192.12,70.91 A0,0 0 0 0 192.12,70.91" fill="#FFFFFF" style="stroke:#000000;stroke-width:1;"/><path d="M378.7914,70.91 L378.7914,80.91 L388.7914,80.91 L378.7914,70.91" fill="#FFFFFF" style="stroke:#000000;stroke-width:1;"/><text fill="#000000" font-family="Verdana" font-size="13" lengthAdjust="spacing" textLength="175.6714" x="198.12" y="87.9769">Probl&#232;me: attributs publics</text><text fill="#000000" font-family="Verdana" font-size="13" lengthAdjust="spacing" textLength="151.2266" x="198.12" y="103.1097">Aucun contr&#244;le d'acc&#232;s</text></g><g class="entity" data-entity="GMN7" data-source-line="28" data-uid="ent0008" id="entity_GMN7"><path d="M738.32,63.34 L738.32,87.04 L703.08,91.04 L738.32,95.04 L738.32,118.7384 A0,0 0 0 0 738.32,118.7384 L980.6056,118.7384 A0,0 0 0 0 980.6056,118.7384 L980.6056,73.34 L970.6056,63.34 L738.32,63.34 A0,0 0 0 0 738.32,63.34" fill="#FFFFFF" style="stroke:#000000;stroke-width:1;"/><path d="M970.6056,63.34 L970.6056,73.34 L980.6056,73.34 L970.6056,63.34" fill="#FFFFFF" style="stroke:#000000;stroke-width:1;"/><text fill="#000000" font-family="Verdana" font-size="13" lengthAdjust="spacing" textLength="160.7544" x="744.32" y="80.4069">Solution: attributs priv&#233;s</text><text fill="#000000" font-family="Verdana" font-size="13" lengthAdjust="spacing" textLength="221.2856" x="744.32" y="95.5397">Acc&#232;s contr&#244;l&#233; par getters/setters</text><text fill="#000000" font-family="Verdana" font-size="13" lengthAdjust="spacing" textLength="188.6777" x="744.32" y="110.6725">Pas de setter pour username</text></g><!--SRC=[RP51JiCm44NtFiNG3QbG16jsGGA9NQMe1t2IQMlXs94z3WB4VTezDyZ562TfIK9NKRxz__FykQ43rWYDbie8uT-KQQIJDPHQUfyHELK4mjVIcbnz8ZmihxnOGpbzQ8J2wag8NeJLrgE3HBRIq7e5qaCKdd1d7SAN0BWB_6zaZO-GCyFiezQmzTswQgfXBPM-2DzBGEEwe_yZP3jYEGBIAu3q2Y2T0vYuHzgEtcGzFV18cp4WMIRnnTQgQlG_nyn_va6TySusdijOGd1gVo2mkqbTRDuuM-Zk66UHuqOyDA7GglHyd8Ko6E0DaUj-U17LhInBhaMWgI36NWllcs9pRdKWPSqisgcsE_NHVT0bkpi1hnvuGZRxUpzyumkv_mfX4A2nmS6v_yahn2y0]--></g></svg>