<svg xmlns="http://www.w3.org/2000/svg" xmlns:xlink="http://www.w3.org/1999/xlink" contentStyleType="text/css" data-diagram-type="CLASS" height="281px" preserveAspectRatio="none" style="width:633px;height:281px;background:#FFFFFF;" version="1.1" viewBox="0 0 633 281" width="633px" zoomAndPan="magnify"><defs/><g><!--class Employee--><g class="entity" data-entity="Employee" data-source-line="3" data-uid="ent0002" id="entity_Employee"><rect fill="#FFFFFF" height="109.1875" rx="2.5" ry="2.5" style="stroke:#000000;stroke-width:1;" width="303.0771" x="58.7" y="12"/><ellipse cx="171.8201" cy="26" fill="#FFFFFF" rx="9" ry="9" style="stroke:#000000;stroke-width:1;"/><path d="M174.7889,31.6406 Q174.2107,31.9375 173.5701,32.0781 Q172.9295,32.2344 172.2264,32.2344 Q169.7264,32.2344 168.3982,30.5938 Q167.0857,28.9375 167.0857,25.8125 Q167.0857,22.6875 168.3982,21.0313 Q169.7264,19.375 172.2264,19.375 Q172.9295,19.375 173.5701,19.5313 Q174.2264,19.6875 174.7889,19.9844 L174.7889,22.7031 Q174.1639,22.125 173.5701,21.8594 Q172.9764,21.5781 172.3514,21.5781 Q171.0076,21.5781 170.3201,22.6563 Q169.6326,23.7188 169.6326,25.8125 Q169.6326,27.9063 170.3201,28.9844 Q171.0076,30.0469 172.3514,30.0469 Q172.9764,30.0469 173.5701,29.7813 Q174.1639,29.5 174.7889,28.9219 L174.7889,31.6406 Z " fill="#000000"/><text fill="#000000" font-family="Verdana" font-size="14" lengthAdjust="spacing" textLength="69.3369" x="189.3201" y="30.8467">Employee</text><line style="stroke:#000000;stroke-width:1;" x1="59.7" x2="360.7771" y1="40" y2="40"/><rect fill="none" height="6" style="stroke:#000000;stroke-width:1;" width="6" x="66.7" y="50.6484"/><text fill="#000000" font-family="Verdana" font-size="14" lengthAdjust="spacing" textLength="90.6514" x="76.7" y="56.9951">name: String</text><rect fill="none" height="6" style="stroke:#000000;stroke-width:1;" width="6" x="66.7" y="66.9453"/><text fill="#000000" font-family="Verdana" font-size="14" lengthAdjust="spacing" textLength="99.2646" x="76.7" y="73.292">salary: double</text><line style="stroke:#000000;stroke-width:1;" x1="59.7" x2="360.7771" y1="80.5938" y2="80.5938"/><ellipse cx="69.7" cy="94.2422" fill="#FFFFFF" rx="3" ry="3" style="stroke:#000000;stroke-width:1;"/><text fill="#000000" font-family="Verdana" font-size="14" lengthAdjust="spacing" textLength="279.0771" x="76.7" y="97.5889">Employee(name: String, salary: double)</text><ellipse cx="69.7" cy="110.5391" fill="#FFFFFF" rx="3" ry="3" style="stroke:#000000;stroke-width:1;"/><text fill="#000000" font-family="Verdana" font-size="14" lengthAdjust="spacing" textLength="125.9248" x="76.7" y="113.8857">displayInfo(): void</text></g><!--class Manager--><g class="entity" data-entity="Manager" data-source-line="10" data-uid="ent0003" id="entity_Manager"><rect fill="#FFFFFF" height="92.8906" rx="2.5" ry="2.5" style="stroke:#000000;stroke-width:1;" width="396.4834" x="12" y="181.19"/><ellipse cx="175.8086" cy="195.19" fill="#FFFFFF" rx="9" ry="9" style="stroke:#000000;stroke-width:1;"/><path d="M178.7773,200.8306 Q178.1992,201.1275 177.5586,201.2681 Q176.918,201.4244 176.2148,201.4244 Q173.7148,201.4244 172.3867,199.7838 Q171.0742,198.1275 171.0742,195.0025 Q171.0742,191.8775 172.3867,190.2213 Q173.7148,188.565 176.2148,188.565 Q176.918,188.565 177.5586,188.7213 Q178.2148,188.8775 178.7773,189.1744 L178.7773,191.8931 Q178.1523,191.315 177.5586,191.0494 Q176.9648,190.7681 176.3398,190.7681 Q174.9961,190.7681 174.3086,191.8463 Q173.6211,192.9088 173.6211,195.0025 Q173.6211,197.0963 174.3086,198.1744 Q174.9961,199.2369 176.3398,199.2369 Q176.9648,199.2369 177.5586,198.9713 Q178.1523,198.69 178.7773,198.1119 L178.7773,200.8306 Z " fill="#000000"/><text fill="#000000" font-family="Verdana" font-size="14" lengthAdjust="spacing" textLength="61.3662" x="193.3086" y="200.0367">Manager</text><line style="stroke:#000000;stroke-width:1;" x1="13" x2="407.4834" y1="209.19" y2="209.19"/><rect fill="none" height="6" style="stroke:#000000;stroke-width:1;" width="6" x="20" y="219.8384"/><text fill="#000000" font-family="Verdana" font-size="14" lengthAdjust="spacing" textLength="92.4766" x="30" y="226.1851">teamSize: int</text><line style="stroke:#000000;stroke-width:1;" x1="13" x2="407.4834" y1="233.4869" y2="233.4869"/><ellipse cx="23" cy="247.1353" fill="#FFFFFF" rx="3" ry="3" style="stroke:#000000;stroke-width:1;"/><text fill="#000000" font-family="Verdana" font-size="14" lengthAdjust="spacing" textLength="372.4834" x="30" y="250.482">Manager(name: String, salary: double, teamSize: int)</text><ellipse cx="23" cy="263.4322" fill="#FFFFFF" rx="3" ry="3" style="stroke:#000000;stroke-width:1;"/><text fill="#000000" font-family="Verdana" font-size="14" lengthAdjust="spacing" textLength="125.9248" x="30" y="266.7789">displayInfo(): void</text></g><g class="entity" data-entity="GMN5" data-source-line="19" data-uid="ent0006" id="entity_GMN5"><path d="M443.78,199.94 L443.78,223.63 L408.92,227.63 L443.78,231.63 L443.78,255.3384 A0,0 0 0 0 443.78,255.3384 L626.696,255.3384 A0,0 0 0 0 626.696,255.3384 L626.696,209.94 L616.696,199.94 L443.78,199.94 A0,0 0 0 0 443.78,199.94" fill="#FFFFFF" style="stroke:#000000;stroke-width:1;"/><path d="M616.696,199.94 L616.696,209.94 L626.696,209.94 L616.696,199.94" fill="#FFFFFF" style="stroke:#000000;stroke-width:1;"/><text fill="#000000" font-family="Verdana" font-size="13" lengthAdjust="spacing" textLength="127.626" x="449.78" y="217.0069">Constructeur utilise</text><text fill="#000000" font-family="Verdana" font-size="13" lengthAdjust="spacing" textLength="131.2378" x="449.78" y="232.1397">super(name, salary)</text><text fill="#000000" font-family="Verdana" font-size="13" lengthAdjust="spacing" textLength="161.916" x="449.78" y="247.2725">pour initialiser Employee</text></g><!--reverse link Employee to Manager--><g class="link" data-entity-1="Employee" data-entity-2="Manager" data-source-line="16" data-uid="lnk4" id="link_Employee_Manager"><path codeLine="16" d="M210.24,139.44 C210.24,158.72 210.24,162.26 210.24,180.81" fill="none" id="Employee-backto-Manager" style="stroke:#000000;stroke-width:1;"/><polygon fill="none" points="210.24,121.44,204.24,139.44,216.24,139.44,210.24,121.44" style="stroke:#000000;stroke-width:1;"/></g><!--SRC=[VP2z3e90383tUugwIPGN86x6mS799wXIeCdH8tSz4_nvTxa8H1R6jb_xjTreGor1Pv75cBl54E3KTjRrHF0o0BbWImLSrRFKAGveqVS5b2xUB0sPtSHl_z4zBC4iaIM7mTIVfNBRh827uz9y9kq51MloFwiIjbT-3kDODBMErLN77XPjQyhvniCxpoUrCUAKm7FTABXgJWCSdGJryQuKFKHboo6T7c8thZIjafoT6o0MLiR4-VcXXgI4f31V]--></g></svg>