<svg xmlns="http://www.w3.org/2000/svg" xmlns:xlink="http://www.w3.org/1999/xlink" contentStyleType="text/css" data-diagram-type="CLASS" height="264px" preserveAspectRatio="none" style="width:748px;height:264px;background:#FFFFFF;" version="1.1" viewBox="0 0 748 264" width="748px" zoomAndPan="magnify"><defs/><g><!--class Animal--><g class="entity" data-entity="Animal" data-source-line="6" data-uid="ent0002" id="entity_Animal"><rect fill="#FFFFFF" height="109.1875" rx="2.5" ry="2.5" style="stroke:#000000;stroke-width:1;" width="173.752" x="194.36" y="12"/><ellipse cx="250.2687" cy="26" fill="#FFFFFF" rx="9" ry="9" style="stroke:#000000;stroke-width:1;"/><path d="M250.3781,21.3438 L249.2218,26.4219 L251.5499,26.4219 L250.3781,21.3438 Z M248.8937,19.1094 L251.8781,19.1094 L255.2374,31.5 L252.7843,31.5 L252.0187,28.4375 L248.7374,28.4375 L247.9874,31.5 L245.5499,31.5 L248.8937,19.1094 Z " fill="#000000"/><text fill="#000000" font-family="Verdana" font-size="14" font-style="italic" font-weight="bold" lengthAdjust="spacing" textLength="54.4346" x="267.7687" y="30.8467">Animal</text><line style="stroke:#000000;stroke-width:1;" x1="195.36" x2="367.112" y1="40" y2="40"/><text fill="#000000" font-family="Verdana" font-size="14" lengthAdjust="spacing" textLength="95.7031" x="200.36" y="56.9951">-name: String</text><line style="stroke:#000000;stroke-width:1;" x1="195.36" x2="367.112" y1="64.2969" y2="64.2969"/><text fill="#000000" font-family="Verdana" font-size="14" lengthAdjust="spacing" textLength="161.752" x="200.36" y="81.292">+Animal(name: String)</text><text fill="#000000" font-family="Verdana" font-size="14" lengthAdjust="spacing" textLength="137.8945" x="200.36" y="97.5889">+getName(): String</text><text fill="#000000" font-family="Verdana" font-size="14" font-style="italic" lengthAdjust="spacing" textLength="144.4707" x="200.36" y="113.8857">+makeSound(): void</text></g><!--class Dog--><g class="entity" data-entity="Dog" data-source-line="13" data-uid="ent0003" id="entity_Dog"><rect fill="#FFFFFF" height="76.5938" rx="2.5" ry="2.5" style="stroke:#000000;stroke-width:1;" width="156.4707" x="12" y="181.19"/><ellipse cx="70.855" cy="195.19" fill="#FFFFFF" rx="9" ry="9" style="stroke:#000000;stroke-width:1;"/><path d="M73.8237,200.8306 Q73.2456,201.1275 72.605,201.2681 Q71.9644,201.4244 71.2612,201.4244 Q68.7612,201.4244 67.4331,199.7838 Q66.1206,198.1275 66.1206,195.0025 Q66.1206,191.8775 67.4331,190.2213 Q68.7612,188.565 71.2612,188.565 Q71.9644,188.565 72.605,188.7213 Q73.2612,188.8775 73.8237,189.1744 L73.8237,191.8931 Q73.1987,191.315 72.605,191.0494 Q72.0112,190.7681 71.3862,190.7681 Q70.0425,190.7681 69.355,191.8463 Q68.6675,192.9088 68.6675,195.0025 Q68.6675,197.0963 69.355,198.1744 Q70.0425,199.2369 71.3862,199.2369 Q72.0112,199.2369 72.605,198.9713 Q73.1987,198.69 73.8237,198.1119 L73.8237,200.8306 Z " fill="#000000"/><text fill="#000000" font-family="Verdana" font-size="14" font-weight="bold" lengthAdjust="spacing" textLength="31.2607" x="88.355" y="200.0367">Dog</text><line style="stroke:#000000;stroke-width:1;" x1="13" x2="167.4707" y1="209.19" y2="209.19"/><line style="stroke:#000000;stroke-width:1;" x1="13" x2="167.4707" y1="217.19" y2="217.19"/><text fill="#000000" font-family="Verdana" font-size="14" lengthAdjust="spacing" textLength="141.5381" x="18" y="234.1851">+Dog(name: String)</text><text fill="#000000" font-family="Verdana" font-size="14" lengthAdjust="spacing" textLength="144.4707" x="18" y="250.482">+makeSound(): void</text></g><!--class Cat--><g class="entity" data-entity="Cat" data-source-line="18" data-uid="ent0004" id="entity_Cat"><rect fill="#FFFFFF" height="76.5938" rx="2.5" ry="2.5" style="stroke:#000000;stroke-width:1;" width="156.4707" x="394" y="181.19"/><ellipse cx="455.2783" cy="195.19" fill="#FFFFFF" rx="9" ry="9" style="stroke:#000000;stroke-width:1;"/><path d="M458.2471,200.8306 Q457.6689,201.1275 457.0283,201.2681 Q456.3877,201.4244 455.6846,201.4244 Q453.1846,201.4244 451.8564,199.7838 Q450.5439,198.1275 450.5439,195.0025 Q450.5439,191.8775 451.8564,190.2213 Q453.1846,188.565 455.6846,188.565 Q456.3877,188.565 457.0283,188.7213 Q457.6846,188.8775 458.2471,189.1744 L458.2471,191.8931 Q457.6221,191.315 457.0283,191.0494 Q456.4346,190.7681 455.8096,190.7681 Q454.4658,190.7681 453.7783,191.8463 Q453.0908,192.9088 453.0908,195.0025 Q453.0908,197.0963 453.7783,198.1744 Q454.4658,199.2369 455.8096,199.2369 Q456.4346,199.2369 457.0283,198.9713 Q457.6221,198.69 458.2471,198.1119 L458.2471,200.8306 Z " fill="#000000"/><text fill="#000000" font-family="Verdana" font-size="14" font-weight="bold" lengthAdjust="spacing" textLength="26.4141" x="472.7783" y="200.0367">Cat</text><line style="stroke:#000000;stroke-width:1;" x1="395" x2="549.4707" y1="209.19" y2="209.19"/><line style="stroke:#000000;stroke-width:1;" x1="395" x2="549.4707" y1="217.19" y2="217.19"/><text fill="#000000" font-family="Verdana" font-size="14" lengthAdjust="spacing" textLength="137.1494" x="400" y="234.1851">+Cat(name: String)</text><text fill="#000000" font-family="Verdana" font-size="14" lengthAdjust="spacing" textLength="144.4707" x="400" y="250.482">+makeSound(): void</text></g><g class="entity" data-entity="GMN7" data-source-line="27" data-uid="ent0008" id="entity_GMN7"><path d="M202.99,199.35 L202.99,215.48 L168.95,219.48 L202.99,223.48 L202.99,239.6156 A0,0 0 0 0 202.99,239.6156 L359.4744,239.6156 A0,0 0 0 0 359.4744,239.6156 L359.4744,209.35 L349.4744,199.35 L202.99,199.35 A0,0 0 0 0 202.99,199.35" fill="#FFFFFF" style="stroke:#000000;stroke-width:1;"/><path d="M349.4744,199.35 L349.4744,209.35 L359.4744,209.35 L349.4744,199.35" fill="#FFFFFF" style="stroke:#000000;stroke-width:1;"/><text fill="#000000" font-family="Verdana" font-size="13" lengthAdjust="spacing" textLength="135.4844" x="208.99" y="216.4169">makeSound() affiche</text><text fill="#000000" font-family="Verdana" font-size="13" lengthAdjust="spacing" textLength="93.1899" x="208.99" y="231.5497">"Woof! Woof!"</text></g><g class="entity" data-entity="GMN10" data-source-line="32" data-uid="ent0011" id="entity_GMN10"><path d="M584.99,199.35 L584.99,215.48 L550.95,219.48 L584.99,223.48 L584.99,239.6156 A0,0 0 0 0 584.99,239.6156 L741.4744,239.6156 A0,0 0 0 0 741.4744,239.6156 L741.4744,209.35 L731.4744,199.35 L584.99,199.35 A0,0 0 0 0 584.99,199.35" fill="#FFFFFF" style="stroke:#000000;stroke-width:1;"/><path d="M731.4744,199.35 L731.4744,209.35 L741.4744,209.35 L731.4744,199.35" fill="#FFFFFF" style="stroke:#000000;stroke-width:1;"/><text fill="#000000" font-family="Verdana" font-size="13" lengthAdjust="spacing" textLength="135.4844" x="590.99" y="216.4169">makeSound() affiche</text><text fill="#000000" font-family="Verdana" font-size="13" lengthAdjust="spacing" textLength="54.9707" x="590.99" y="231.5497">"Meow!"</text></g><!--reverse link Animal to Dog--><g class="link" data-entity-1="Animal" data-entity-2="Dog" data-source-line="23" data-uid="lnk5" id="link_Animal_Dog"><path codeLine="23" d="M198.6969,132.7997 C173.8669,152.4197 160.49,162.98 137.84,180.88" fill="none" id="Animal-backto-Dog" style="stroke:#000000;stroke-width:1;"/><polygon fill="none" points="212.82,121.64,194.977,128.092,202.4168,137.5074,212.82,121.64" style="stroke:#000000;stroke-width:1;"/></g><!--reverse link Animal to Cat--><g class="link" data-entity-1="Animal" data-entity-2="Cat" data-source-line="24" data-uid="lnk6" id="link_Animal_Cat"><path codeLine="24" d="M363.7731,132.7997 C388.6031,152.4197 401.98,162.98 424.63,180.88" fill="none" id="Animal-backto-Cat" style="stroke:#000000;stroke-width:1;"/><polygon fill="none" points="349.65,121.64,360.0532,137.5074,367.493,128.092,349.65,121.64" style="stroke:#000000;stroke-width:1;"/></g><!--SRC=[ZOynJyD038Lt_mgtKwig4dFLfG8XCS2IWTb9dEJKExjAN10j_U_S9KLAYq0i9_lvlS- -cRKS6FUUd03qEoTxwYXWwQdljsQTAmx6JwLAxewCTxUMHnNBxSCp5keh02fwwwYqSOfRSO4ydW0n4mgynZmYfOdzQfmjfl8owGtRIzGMowdvz0q-Ow0TvtgGAZdUr5Lm1XZNFMWpx5h5uYVuZ-0zsHYCnJ-3bwzjFhCixRtg8mL0r1WxrxI6MWyMdDwELDUkR3cgyrVLUeR3EmUM2bFsbf2WlnAUMT-lil05]--></g></svg>