<svg xmlns="http://www.w3.org/2000/svg" xmlns:xlink="http://www.w3.org/1999/xlink" contentStyleType="text/css" data-diagram-type="CLASS" height="281px" preserveAspectRatio="none" style="width:830px;height:281px;background:#FFFFFF;" version="1.1" viewBox="0 0 830 281" width="830px" zoomAndPan="magnify"><defs/><g><!--class Shape--><g class="entity" data-entity="Shape" data-source-line="3" data-uid="ent0002" id="entity_Shape"><rect fill="#FFFFFF" height="76.5938" rx="2.5" ry="2.5" style="stroke:#000000;stroke-width:1;" width="194.0029" x="358.58" y="12"/><ellipse cx="429.912" cy="26" fill="#FFFFFF" rx="9" ry="9" style="stroke:#000000;stroke-width:1;"/><path d="M430.0214,21.3438 L428.8652,26.4219 L431.1933,26.4219 L430.0214,21.3438 Z M428.537,19.1094 L431.5214,19.1094 L434.8808,31.5 L432.4277,31.5 L431.662,28.4375 L428.3808,28.4375 L427.6308,31.5 L425.1933,31.5 L428.537,19.1094 Z " fill="#000000"/><text fill="#000000" font-family="Verdana" font-size="14" font-style="italic" lengthAdjust="spacing" textLength="43.8389" x="447.412" y="30.8467">Shape</text><line style="stroke:#000000;stroke-width:1;" x1="359.58" x2="551.5829" y1="40" y2="40"/><line style="stroke:#000000;stroke-width:1;" x1="359.58" x2="551.5829" y1="48" y2="48"/><ellipse cx="369.58" cy="61.6484" fill="#FFFFFF" rx="3" ry="3" style="stroke:#000000;stroke-width:1;"/><text fill="#000000" font-family="Verdana" font-size="14" font-style="italic" lengthAdjust="spacing" textLength="163.6387" x="376.58" y="64.9951">calculateArea(): double</text><ellipse cx="369.58" cy="77.9453" fill="#FFFFFF" rx="3" ry="3" style="stroke:#000000;stroke-width:1;"/><text fill="#000000" font-family="Verdana" font-size="14" font-style="italic" lengthAdjust="spacing" textLength="170.0029" x="376.58" y="81.292">getShapeName(): String</text></g><!--class Rectangle--><g class="entity" data-entity="Rectangle" data-source-line="8" data-uid="ent0003" id="entity_Rectangle"><rect fill="#FFFFFF" height="125.4844" rx="2.5" ry="2.5" style="stroke:#000000;stroke-width:1;" width="311.1709" x="12" y="148.6"/><ellipse cx="128.6509" cy="162.6" fill="#FFFFFF" rx="9" ry="9" style="stroke:#000000;stroke-width:1;"/><path d="M131.6196,168.2406 Q131.0415,168.5375 130.4009,168.6781 Q129.7603,168.8344 129.0571,168.8344 Q126.5571,168.8344 125.229,167.1937 Q123.9165,165.5375 123.9165,162.4125 Q123.9165,159.2875 125.229,157.6312 Q126.5571,155.975 129.0571,155.975 Q129.7603,155.975 130.4009,156.1312 Q131.0571,156.2875 131.6196,156.5844 L131.6196,159.3031 Q130.9946,158.725 130.4009,158.4594 Q129.8071,158.1781 129.1821,158.1781 Q127.8384,158.1781 127.1509,159.2562 Q126.4634,160.3187 126.4634,162.4125 Q126.4634,164.5062 127.1509,165.5844 Q127.8384,166.6469 129.1821,166.6469 Q129.8071,166.6469 130.4009,166.3812 Q130.9946,166.1 131.6196,165.5219 L131.6196,168.2406 Z " fill="#000000"/><text fill="#000000" font-family="Verdana" font-size="14" lengthAdjust="spacing" textLength="70.3691" x="146.1509" y="167.4467">Rectangle</text><line style="stroke:#000000;stroke-width:1;" x1="13" x2="322.1709" y1="176.6" y2="176.6"/><rect fill="none" height="6" style="stroke:#000000;stroke-width:1;" width="6" x="20" y="187.2484"/><text fill="#000000" font-family="Verdana" font-size="14" lengthAdjust="spacing" textLength="95.4707" x="30" y="193.5951">width: double</text><rect fill="none" height="6" style="stroke:#000000;stroke-width:1;" width="6" x="20" y="203.5453"/><text fill="#000000" font-family="Verdana" font-size="14" lengthAdjust="spacing" textLength="101.5068" x="30" y="209.892">height: double</text><line style="stroke:#000000;stroke-width:1;" x1="13" x2="322.1709" y1="217.1937" y2="217.1937"/><ellipse cx="23" cy="230.8422" fill="#FFFFFF" rx="3" ry="3" style="stroke:#000000;stroke-width:1;"/><text fill="#000000" font-family="Verdana" font-size="14" lengthAdjust="spacing" textLength="287.1709" x="30" y="234.1889">Rectangle(width: double, height: double)</text><ellipse cx="23" cy="247.1391" fill="#FFFFFF" rx="3" ry="3" style="stroke:#000000;stroke-width:1;"/><text fill="#000000" font-family="Verdana" font-size="14" lengthAdjust="spacing" textLength="163.6387" x="30" y="250.4857">calculateArea(): double</text><ellipse cx="23" cy="263.4359" fill="#FFFFFF" rx="3" ry="3" style="stroke:#000000;stroke-width:1;"/><text fill="#000000" font-family="Verdana" font-size="14" lengthAdjust="spacing" textLength="170.0029" x="30" y="266.7826">getShapeName(): String</text></g><!--class Circle--><g class="entity" data-entity="Circle" data-source-line="16" data-uid="ent0004" id="entity_Circle"><rect fill="#FFFFFF" height="109.1875" rx="2.5" ry="2.5" style="stroke:#000000;stroke-width:1;" width="194.0029" x="358.58" y="156.74"/><ellipse cx="432.0209" cy="170.74" fill="#FFFFFF" rx="9" ry="9" style="stroke:#000000;stroke-width:1;"/><path d="M434.9897,176.3806 Q434.4115,176.6775 433.7709,176.8181 Q433.1303,176.9744 432.4272,176.9744 Q429.9272,176.9744 428.599,175.3337 Q427.2865,173.6775 427.2865,170.5525 Q427.2865,167.4275 428.599,165.7712 Q429.9272,164.115 432.4272,164.115 Q433.1303,164.115 433.7709,164.2712 Q434.4272,164.4275 434.9897,164.7244 L434.9897,167.4431 Q434.3647,166.865 433.7709,166.5994 Q433.1772,166.3181 432.5522,166.3181 Q431.2084,166.3181 430.5209,167.3962 Q429.8334,168.4587 429.8334,170.5525 Q429.8334,172.6462 430.5209,173.7244 Q431.2084,174.7869 432.5522,174.7869 Q433.1772,174.7869 433.7709,174.5212 Q434.3647,174.24 434.9897,173.6619 L434.9897,176.3806 Z " fill="#000000"/><text fill="#000000" font-family="Verdana" font-size="14" lengthAdjust="spacing" textLength="39.6211" x="449.5209" y="175.5867">Circle</text><line style="stroke:#000000;stroke-width:1;" x1="359.58" x2="551.5829" y1="184.74" y2="184.74"/><rect fill="none" height="6" style="stroke:#000000;stroke-width:1;" width="6" x="366.58" y="195.3884"/><text fill="#000000" font-family="Verdana" font-size="14" lengthAdjust="spacing" textLength="100.1602" x="376.58" y="201.7351">radius: double</text><line style="stroke:#000000;stroke-width:1;" x1="359.58" x2="551.5829" y1="209.0369" y2="209.0369"/><ellipse cx="369.58" cy="222.6853" fill="#FFFFFF" rx="3" ry="3" style="stroke:#000000;stroke-width:1;"/><text fill="#000000" font-family="Verdana" font-size="14" lengthAdjust="spacing" textLength="150.7051" x="376.58" y="226.032">Circle(radius: double)</text><ellipse cx="369.58" cy="238.9822" fill="#FFFFFF" rx="3" ry="3" style="stroke:#000000;stroke-width:1;"/><text fill="#000000" font-family="Verdana" font-size="14" lengthAdjust="spacing" textLength="163.6387" x="376.58" y="242.3289">calculateArea(): double</text><ellipse cx="369.58" cy="255.2791" fill="#FFFFFF" rx="3" ry="3" style="stroke:#000000;stroke-width:1;"/><text fill="#000000" font-family="Verdana" font-size="14" lengthAdjust="spacing" textLength="170.0029" x="376.58" y="258.6257">getShapeName(): String</text></g><g class="entity" data-entity="GMN7" data-source-line="27" data-uid="ent0008" id="entity_GMN7"><path d="M587.6,191.2 L587.6,231.4656 A0,0 0 0 0 587.6,231.4656 L823.5761,231.4656 A0,0 0 0 0 823.5761,231.4656 L823.5761,201.2 L813.5761,191.2 L678.88,191.2 L514.83,88.99 L670.88,191.2 L587.6,191.2 A0,0 0 0 0 587.6,191.2" fill="#FFFFFF" style="stroke:#000000;stroke-width:1;"/><path d="M813.5761,191.2 L813.5761,201.2 L823.5761,201.2 L813.5761,191.2" fill="#FFFFFF" style="stroke:#000000;stroke-width:1;"/><text fill="#000000" font-family="Verdana" font-size="13" lengthAdjust="spacing" textLength="180.5718" x="593.6" y="208.2669">Polymorphisme: un Shape[]</text><text fill="#000000" font-family="Verdana" font-size="13" lengthAdjust="spacing" textLength="214.9761" x="593.6" y="223.3997">peut contenir Rectangle et Circle</text></g><!--reverse link Shape to Rectangle--><g class="link" data-entity-1="Shape" data-entity-2="Rectangle" data-source-line="23" data-uid="lnk5" id="link_Shape_Rectangle"><path codeLine="23" d="M371.5725,97.6906 C339.5525,115.3706 316.31,128.21 280.1,148.21" fill="none" id="Shape-backto-Rectangle" style="stroke:#000000;stroke-width:1;"/><polygon fill="none" points="387.33,88.99,368.6723,92.4381,374.4727,102.9431,387.33,88.99" style="stroke:#000000;stroke-width:1;"/></g><!--reverse link Shape to Circle--><g class="link" data-entity-1="Shape" data-entity-2="Circle" data-source-line="24" data-uid="lnk6" id="link_Shape_Circle"><path codeLine="24" d="M455.59,106.99 C455.59,127.11 455.59,134.21 455.59,156.36" fill="none" id="Shape-backto-Circle" style="stroke:#000000;stroke-width:1;"/><polygon fill="none" points="455.59,88.99,449.59,106.99,461.59,106.99,455.59,88.99" style="stroke:#000000;stroke-width:1;"/></g><!--SRC=[dP6zRiCm38HtFWMxEMZz0a6NedjHD6EGWPPPIu1-38b242HvzzeLdCWTMg0hx-uZSNmGpOvnj6Gy07L98Yb1PIabt6aQ6S-0-7XUf2igiYfR4dw9JCrcYtt8dUKVhe7bE_v6ZcVJJgBn0rm12lk3bP0VRE6tHzEBhb2jPZDegU6tHBCoF-7Qkfczlzpurs6l9ghbgaYzoQbE5xLP2_zVMHf-lhJjlP1wMDO1-22CNH093iDdUSn4VW_sv48SjKcEjvXzKVQ7IHivJtyCNjYRMDNDib3PzpY3uGi0]--></g></svg>