<svg xmlns="http://www.w3.org/2000/svg" xmlns:xlink="http://www.w3.org/1999/xlink" contentStyleType="text/css" data-diagram-type="CLASS" height="330px" preserveAspectRatio="none" style="width:675px;height:330px;background:#FFFFFF;" version="1.1" viewBox="0 0 675 330" width="675px" zoomAndPan="magnify"><defs/><g><!--class Address--><g class="entity" data-entity="Address" data-source-line="3" data-uid="ent0002" id="entity_Address"><rect fill="#FFFFFF" height="125.4844" rx="2.5" ry="2.5" style="stroke:#000000;stroke-width:1;" width="407.0381" x="12" y="198.19"/><ellipse cx="183.6152" cy="212.19" fill="#FFFFFF" rx="9" ry="9" style="stroke:#000000;stroke-width:1;"/><path d="M186.584,217.8306 Q186.0059,218.1275 185.3652,218.2681 Q184.7246,218.4244 184.0215,218.4244 Q181.5215,218.4244 180.1934,216.7838 Q178.8809,215.1275 178.8809,212.0025 Q178.8809,208.8775 180.1934,207.2213 Q181.5215,205.565 184.0215,205.565 Q184.7246,205.565 185.3652,205.7213 Q186.0215,205.8775 186.584,206.1744 L186.584,208.8931 Q185.959,208.315 185.3652,208.0494 Q184.7715,207.7681 184.1465,207.7681 Q182.8027,207.7681 182.1152,208.8463 Q181.4277,209.9088 181.4277,212.0025 Q181.4277,214.0963 182.1152,215.1744 Q182.8027,216.2369 184.1465,216.2369 Q184.7715,216.2369 185.3652,215.9713 Q185.959,215.69 186.584,215.1119 L186.584,217.8306 Z " fill="#000000"/><text fill="#000000" font-family="Verdana" font-size="14" lengthAdjust="spacing" textLength="56.3076" x="201.1152" y="217.0367">Address</text><line style="stroke:#000000;stroke-width:1;" x1="13" x2="418.0381" y1="226.19" y2="226.19"/><rect fill="none" height="6" style="stroke:#000000;stroke-width:1;" width="6" x="20" y="236.8384"/><text fill="#000000" font-family="Verdana" font-size="14" lengthAdjust="spacing" textLength="92.2031" x="30" y="243.1851">street: String</text><rect fill="none" height="6" style="stroke:#000000;stroke-width:1;" width="6" x="20" y="253.1353"/><text fill="#000000" font-family="Verdana" font-size="14" lengthAdjust="spacing" textLength="76.3096" x="30" y="259.482">city: String</text><rect fill="none" height="6" style="stroke:#000000;stroke-width:1;" width="6" x="20" y="269.4322"/><text fill="#000000" font-family="Verdana" font-size="14" lengthAdjust="spacing" textLength="129.4932" x="30" y="275.7789">postalCode: String</text><line style="stroke:#000000;stroke-width:1;" x1="13" x2="418.0381" y1="283.0806" y2="283.0806"/><ellipse cx="23" cy="296.7291" fill="#FFFFFF" rx="3" ry="3" style="stroke:#000000;stroke-width:1;"/><text fill="#000000" font-family="Verdana" font-size="14" lengthAdjust="spacing" textLength="383.0381" x="30" y="300.0757">Address(street: String, city: String, postalCode: String)</text><ellipse cx="23" cy="313.0259" fill="#FFFFFF" rx="3" ry="3" style="stroke:#000000;stroke-width:1;"/><text fill="#000000" font-family="Verdana" font-size="14" lengthAdjust="spacing" textLength="117.708" x="30" y="316.3726">toString(): String</text></g><!--class Employee--><g class="entity" data-entity="Employee" data-source-line="11" data-uid="ent0003" id="entity_Employee"><rect fill="#FFFFFF" height="109.1875" rx="2.5" ry="2.5" style="stroke:#000000;stroke-width:1;" width="324.5967" x="53.22" y="12"/><ellipse cx="177.0999" cy="26" fill="#FFFFFF" rx="9" ry="9" style="stroke:#000000;stroke-width:1;"/><path d="M180.0686,31.6406 Q179.4905,31.9375 178.8499,32.0781 Q178.2093,32.2344 177.5061,32.2344 Q175.0061,32.2344 173.678,30.5938 Q172.3655,28.9375 172.3655,25.8125 Q172.3655,22.6875 173.678,21.0313 Q175.0061,19.375 177.5061,19.375 Q178.2093,19.375 178.8499,19.5313 Q179.5061,19.6875 180.0686,19.9844 L180.0686,22.7031 Q179.4436,22.125 178.8499,21.8594 Q178.2561,21.5781 177.6311,21.5781 Q176.2874,21.5781 175.5999,22.6563 Q174.9124,23.7188 174.9124,25.8125 Q174.9124,27.9063 175.5999,28.9844 Q176.2874,30.0469 177.6311,30.0469 Q178.2561,30.0469 178.8499,29.7813 Q179.4436,29.5 180.0686,28.9219 L180.0686,31.6406 Z " fill="#000000"/><text fill="#000000" font-family="Verdana" font-size="14" lengthAdjust="spacing" textLength="69.3369" x="194.5999" y="30.8467">Employee</text><line style="stroke:#000000;stroke-width:1;" x1="54.22" x2="376.8167" y1="40" y2="40"/><rect fill="none" height="6" style="stroke:#000000;stroke-width:1;" width="6" x="61.22" y="50.6484"/><text fill="#000000" font-family="Verdana" font-size="14" lengthAdjust="spacing" textLength="90.6514" x="71.22" y="56.9951">name: String</text><rect fill="none" height="6" style="stroke:#000000;stroke-width:1;" width="6" x="61.22" y="66.9453"/><text fill="#000000" font-family="Verdana" font-size="14" lengthAdjust="spacing" textLength="120.7842" x="71.22" y="73.292">address: Address</text><line style="stroke:#000000;stroke-width:1;" x1="54.22" x2="376.8167" y1="80.5938" y2="80.5938"/><ellipse cx="64.22" cy="94.2422" fill="#FFFFFF" rx="3" ry="3" style="stroke:#000000;stroke-width:1;"/><text fill="#000000" font-family="Verdana" font-size="14" lengthAdjust="spacing" textLength="300.5967" x="71.22" y="97.5889">Employee(name: String, address: Address)</text><ellipse cx="64.22" cy="110.5391" fill="#FFFFFF" rx="3" ry="3" style="stroke:#000000;stroke-width:1;"/><text fill="#000000" font-family="Verdana" font-size="14" lengthAdjust="spacing" textLength="125.9248" x="71.22" y="113.8857">displayInfo(): void</text></g><g class="entity" data-entity="GMN5" data-source-line="21" data-uid="ent0006" id="entity_GMN5"><path d="M412.74,38.89 L412.74,62.59 L378.02,66.59 L412.74,70.59 L412.74,94.2884 A0,0 0 0 0 412.74,94.2884 L668.2986,94.2884 A0,0 0 0 0 668.2986,94.2884 L668.2986,48.89 L658.2986,38.89 L412.74,38.89 A0,0 0 0 0 412.74,38.89" fill="#FFFFFF" style="stroke:#000000;stroke-width:1;"/><path d="M658.2986,38.89 L658.2986,48.89 L668.2986,48.89 L658.2986,38.89" fill="#FFFFFF" style="stroke:#000000;stroke-width:1;"/><text fill="#000000" font-family="Verdana" font-size="13" lengthAdjust="spacing" textLength="234.5586" x="418.74" y="55.9569">Composition: Employee "a" Address</text><text fill="#000000" font-family="Verdana" font-size="13" lengthAdjust="spacing" textLength="169.4443" x="418.74" y="71.0897">Pr&#233;f&#233;rable &#224; l'h&#233;ritage car</text><text fill="#000000" font-family="Verdana" font-size="13" lengthAdjust="spacing" textLength="204.3501" x="418.74" y="86.2225">Employee n'est pas un Address</text></g><!--link Employee to Address--><g class="link" data-entity-1="Employee" data-entity-2="Address" data-source-line="18" data-uid="lnk4" id="link_Employee_Address"><path codeLine="18" d="M215.52,121.68 C215.52,145.35 215.52,167.25 215.52,191.77" fill="none" id="Employee-to-Address" style="stroke:#000000;stroke-width:1;"/><polygon fill="#000000" points="215.52,197.77,219.52,188.77,215.52,192.77,211.52,188.77,215.52,197.77" style="stroke:#000000;stroke-width:1;"/><text fill="#000000" font-family="Verdana" font-size="13" lengthAdjust="spacing" textLength="79.2568" x="216.52" y="164.2569">composition</text></g><!--SRC=[PL0xRiCm3Drz2ZPB7CI-W8S2HT2XMu6UWBLeMu0i6X9Jm0XobwuvXozMgQuLjPs8HxmV-I03ZGIJGMsBeZNeFJmfvIZCIm5GUt54qi2RE6txk6crp3cUs0kQ4olAjiSVa_Atle9SNS5_xI6AXLTG7fBbTMltF4w6PwArdiKnZwrnZMss8wBRfYXpSWL_gT_9IllmY_d5TXp3FrYh69r2w_en_QU1biTmWHRDuNcMXS3fVX3WBjKCfgSxgxdNt-4kA_dgbbktt1o-6uBb4yn-24WBzWGjki18GhidBp2XXxDD3cGLn0B55m00]--></g></svg>