<svg xmlns="http://www.w3.org/2000/svg" xmlns:xlink="http://www.w3.org/1999/xlink" contentStyleType="text/css" data-diagram-type="CLASS" height="82px" preserveAspectRatio="none" style="width:119px;height:82px;background:#FFFFFF;" version="1.1" viewBox="0 0 119 82" width="119px" zoomAndPan="magnify"><defs/><g><!--class MathUtils--><g class="entity" data-entity="MathUtils" data-source-line="3" data-uid="ent0002" id="entity_MathUtils"><rect fill="#FFFFFF" height="56.2656" rx="2.5" ry="2.5" style="stroke:#000000;stroke-width:1;" width="93.8301" x="12" y="12"/><ellipse cx="25" cy="32.1328" fill="#FFFFFF" rx="9" ry="9" style="stroke:#000000;stroke-width:1;"/><path d="M27.9688,37.7734 Q27.3906,38.0703 26.75,38.2109 Q26.1094,38.3672 25.4063,38.3672 Q22.9063,38.3672 21.5781,36.7266 Q20.2656,35.0703 20.2656,31.9453 Q20.2656,28.8203 21.5781,27.1641 Q22.9063,25.5078 25.4063,25.5078 Q26.1094,25.5078 26.75,25.6641 Q27.4063,25.8203 27.9688,26.1172 L27.9688,28.8359 Q27.3438,28.2578 26.75,27.9922 Q26.1563,27.7109 25.5313,27.7109 Q24.1875,27.7109 23.5,28.7891 Q22.8125,29.8516 22.8125,31.9453 Q22.8125,34.0391 23.5,35.1172 Q24.1875,36.1797 25.5313,36.1797 Q26.1563,36.1797 26.75,35.9141 Q27.3438,35.6328 27.9688,35.0547 L27.9688,37.7734 Z " fill="#000000"/><text fill="#000000" font-family="Verdana" font-size="12" font-style="italic" lengthAdjust="spacing" textLength="40.6641" x="49.583" y="28.1387">&#171;final&#187;</text><text fill="#000000" font-family="Verdana" font-size="14" lengthAdjust="spacing" textLength="65.8301" x="37" y="43.9639">MathUtils</text><line style="stroke:#000000;stroke-width:1;" x1="13" x2="104.8301" y1="52.2656" y2="52.2656"/><line style="stroke:#000000;stroke-width:1;" x1="13" x2="104.8301" y1="60.2656" y2="60.2656"/></g><!--SRC=[Kop9ICrDLIZ8ISpCu-9ApaaiBbRmJIp922t9p2bMiB59oynBpB6pKwZcgkK20000]--></g></svg>