<svg xmlns="http://www.w3.org/2000/svg" xmlns:xlink="http://www.w3.org/1999/xlink" contentStyleType="text/css" data-diagram-type="CLASS" height="86px" preserveAspectRatio="none" style="width:251px;height:86px;background:#FFFFFF;" version="1.1" viewBox="0 0 251 86" width="251px" zoomAndPan="magnify"><defs/><g><!--class Parent--><g class="entity" data-entity="Parent" data-source-line="6" data-uid="ent0002" id="entity_Parent"><rect fill="#FFFFFF" height="60.2969" rx="2.5" ry="2.5" style="stroke:#000000;stroke-width:1;" width="225.2676" x="12" y="12"/><ellipse cx="94.5005" cy="26" fill="#FFFFFF" rx="9" ry="9" style="stroke:#000000;stroke-width:1;"/><path d="M97.4692,31.6406 Q96.8911,31.9375 96.2505,32.0781 Q95.6099,32.2344 94.9067,32.2344 Q92.4067,32.2344 91.0786,30.5938 Q89.7661,28.9375 89.7661,25.8125 Q89.7661,22.6875 91.0786,21.0313 Q92.4067,19.375 94.9067,19.375 Q95.6099,19.375 96.2505,19.5313 Q96.9067,19.6875 97.4692,19.9844 L97.4692,22.7031 Q96.8442,22.125 96.2505,21.8594 Q95.6567,21.5781 95.0317,21.5781 Q93.688,21.5781 93.0005,22.6563 Q92.313,23.7188 92.313,25.8125 Q92.313,27.9063 93.0005,28.9844 Q93.688,30.0469 95.0317,30.0469 Q95.6567,30.0469 96.2505,29.7813 Q96.8442,29.5 97.4692,28.9219 L97.4692,31.6406 Z " fill="#000000"/><text fill="#000000" font-family="Verdana" font-size="14" font-weight="bold" lengthAdjust="spacing" textLength="52.7666" x="112.0005" y="30.8467">Parent</text><line style="stroke:#000000;stroke-width:1;" x1="13" x2="236.2676" y1="40" y2="40"/><line style="stroke:#000000;stroke-width:1;" x1="13" x2="236.2676" y1="48" y2="48"/><text fill="#000000" font-family="Verdana" font-size="14" lengthAdjust="spacing" textLength="213.2676" x="18" y="64.9951">+criticalMethod(): void {final}</text></g><!--SRC=[NSgn2i9030RWFK_nkoakpcvT10T1w1EaTv46qrovYuAMlhlGqVNZsyKeas0sLYTgJ_MPAqz8ngrr4LM7LyWr5U_rApZzbqlnwEDZWg5O9jeGTwxYWOM08rBLqCHsanXBtX_EU1VDM1xgR2kjHFG3]--></g></svg>