<svg xmlns="http://www.w3.org/2000/svg" xmlns:xlink="http://www.w3.org/1999/xlink" contentStyleType="text/css" data-diagram-type="CLASS" height="232px" preserveAspectRatio="none" style="width:181px;height:232px;background:#FFFFFF;" version="1.1" viewBox="0 0 181 232" width="181px" zoomAndPan="magnify"><defs/><g><!--class Parent--><g class="entity" data-entity="Parent" data-source-line="3" data-uid="ent0002" id="entity_Parent"><rect fill="#FFFFFF" height="92.8906" rx="2.5" ry="2.5" style="stroke:#000000;stroke-width:1;" width="160.0352" x="14" y="12"/><ellipse cx="67.3911" cy="26" fill="#FFFFFF" rx="9" ry="9" style="stroke:#000000;stroke-width:1;"/><path d="M70.3599,31.6406 Q69.7817,31.9375 69.1411,32.0781 Q68.5005,32.2344 67.7974,32.2344 Q65.2974,32.2344 63.9692,30.5938 Q62.6567,28.9375 62.6567,25.8125 Q62.6567,22.6875 63.9692,21.0313 Q65.2974,19.375 67.7974,19.375 Q68.5005,19.375 69.1411,19.5313 Q69.7974,19.6875 70.3599,19.9844 L70.3599,22.7031 Q69.7349,22.125 69.1411,21.8594 Q68.5474,21.5781 67.9224,21.5781 Q66.5786,21.5781 65.8911,22.6563 Q65.2036,23.7188 65.2036,25.8125 Q65.2036,27.9063 65.8911,28.9844 Q66.5786,30.0469 67.9224,30.0469 Q68.5474,30.0469 69.1411,29.7813 Q69.7349,29.5 70.3599,28.9219 L70.3599,31.6406 Z " fill="#000000"/><text fill="#000000" font-family="Verdana" font-size="14" lengthAdjust="spacing" textLength="45.7529" x="84.8911" y="30.8467">Parent</text><line style="stroke:#000000;stroke-width:1;" x1="15" x2="173.0352" y1="40" y2="40"/><rect fill="none" height="6" style="stroke:#000000;stroke-width:1;" width="6" x="22" y="50.6484"/><text fill="#000000" font-family="Verdana" font-size="14" lengthAdjust="spacing" textLength="94.4111" x="32" y="56.9951">secret: String</text><polygon fill="none" points="25,64.9453,29,68.9453,25,72.9453,21,68.9453" style="stroke:#000000;stroke-width:1;"/><text fill="#000000" font-family="Verdana" font-size="14" lengthAdjust="spacing" textLength="94.1582" x="32" y="73.292">family: String</text><ellipse cx="25" cy="86.2422" fill="none" rx="3" ry="3" style="stroke:#000000;stroke-width:1;"/><text fill="#000000" font-family="Verdana" font-size="14" lengthAdjust="spacing" textLength="136.0352" x="32" y="89.5889">forEveryone: String</text><line style="stroke:#000000;stroke-width:1;" x1="15" x2="173.0352" y1="96.8906" y2="96.8906"/></g><!--class Child--><g class="entity" data-entity="Child" data-source-line="9" data-uid="ent0003" id="entity_Child"><rect fill="#FFFFFF" height="60.2969" rx="2.5" ry="2.5" style="stroke:#000000;stroke-width:1;" width="100.6035" x="43.72" y="164.89"/><ellipse cx="73.5001" cy="178.89" fill="#FFFFFF" rx="9" ry="9" style="stroke:#000000;stroke-width:1;"/><path d="M76.4688,184.5306 Q75.8907,184.8275 75.2501,184.9681 Q74.6095,185.1244 73.9063,185.1244 Q71.4063,185.1244 70.0782,183.4838 Q68.7657,181.8275 68.7657,178.7025 Q68.7657,175.5775 70.0782,173.9213 Q71.4063,172.265 73.9063,172.265 Q74.6095,172.265 75.2501,172.4213 Q75.9063,172.5775 76.4688,172.8744 L76.4688,175.5931 Q75.8438,175.015 75.2501,174.7494 Q74.6563,174.4681 74.0313,174.4681 Q72.6876,174.4681 72.0001,175.5463 Q71.3126,176.6088 71.3126,178.7025 Q71.3126,180.7963 72.0001,181.8744 Q72.6876,182.9369 74.0313,182.9369 Q74.6563,182.9369 75.2501,182.6713 Q75.8438,182.39 76.4688,181.8119 L76.4688,184.5306 Z " fill="#000000"/><text fill="#000000" font-family="Verdana" font-size="14" lengthAdjust="spacing" textLength="35.3145" x="89.229" y="183.7367">Child</text><line style="stroke:#000000;stroke-width:1;" x1="44.72" x2="143.3235" y1="192.89" y2="192.89"/><line style="stroke:#000000;stroke-width:1;" x1="44.72" x2="143.3235" y1="200.89" y2="200.89"/><ellipse cx="54.72" cy="214.5384" fill="#FFFFFF" rx="3" ry="3" style="stroke:#000000;stroke-width:1;"/><text fill="#000000" font-family="Verdana" font-size="14" lengthAdjust="spacing" textLength="76.6035" x="61.72" y="217.8851">test(): void</text></g><!--reverse link Parent to Child--><g class="link" data-entity-1="Parent" data-entity-2="Child" data-source-line="13" data-uid="lnk4" id="link_Parent_Child"><path codeLine="13" d="M94.02,123.39 C94.02,143.04 94.02,147.4 94.02,164.74" fill="none" id="Parent-backto-Child" style="stroke:#000000;stroke-width:1;"/><polygon fill="none" points="94.02,105.39,88.02,123.39,100.02,123.39,94.02,105.39" style="stroke:#000000;stroke-width:1;"/></g><!--SRC=[Kop9ICrDLIZ8ISpCu-9ApaaiBbO8I2nApIjHgEPIKD1LA4vDBaejiL88BYdAp4i72Yahf2NcPkPK8WbfAwJb5xcMfHPLvkUbmiLhOUOvPsJcf82DqrOeIIqkqT2qKYZBpqm1gO3QPLEZgmjHnmK0]--></g></svg>