<svg xmlns="http://www.w3.org/2000/svg" xmlns:xlink="http://www.w3.org/1999/xlink" contentStyleType="text/css" data-diagram-type="CLASS" height="199px" preserveAspectRatio="none" style="width:129px;height:199px;background:#FFFFFF;" version="1.1" viewBox="0 0 129 199" width="129px" zoomAndPan="magnify"><defs/><g><!--class Parent--><g class="entity" data-entity="Parent" data-source-line="6" data-uid="ent0002" id="entity_Parent"><rect fill="#FFFFFF" height="60.2969" rx="2.5" ry="2.5" style="stroke:#000000;stroke-width:1;" width="110.8066" x="12" y="12"/><ellipse cx="38.518" cy="26" fill="#FFFFFF" rx="9" ry="9" style="stroke:#000000;stroke-width:1;"/><path d="M41.4868,31.6406 Q40.9086,31.9375 40.268,32.0781 Q39.6274,32.2344 38.9243,32.2344 Q36.4243,32.2344 35.0961,30.5938 Q33.7836,28.9375 33.7836,25.8125 Q33.7836,22.6875 35.0961,21.0313 Q36.4243,19.375 38.9243,19.375 Q39.6274,19.375 40.268,19.5313 Q40.9243,19.6875 41.4868,19.9844 L41.4868,22.7031 Q40.8618,22.125 40.268,21.8594 Q39.6743,21.5781 39.0493,21.5781 Q37.7055,21.5781 37.018,22.6563 Q36.3305,23.7188 36.3305,25.8125 Q36.3305,27.9063 37.018,28.9844 Q37.7055,30.0469 39.0493,30.0469 Q39.6743,30.0469 40.268,29.7813 Q40.8618,29.5 41.4868,28.9219 L41.4868,31.6406 Z " fill="#000000"/><text fill="#000000" font-family="Verdana" font-size="14" font-weight="bold" lengthAdjust="spacing" textLength="52.7666" x="53.522" y="30.8467">Parent</text><line style="stroke:#000000;stroke-width:1;" x1="13" x2="121.8066" y1="40" y2="40"/><line style="stroke:#000000;stroke-width:1;" x1="13" x2="121.8066" y1="48" y2="48"/><text fill="#000000" font-family="Verdana" font-size="14" lengthAdjust="spacing" textLength="98.8066" x="18" y="64.9951">+greet(): void</text></g><!--class Child--><g class="entity" data-entity="Child" data-source-line="10" data-uid="ent0003" id="entity_Child"><rect fill="#FFFFFF" height="60.2969" rx="2.5" ry="2.5" style="stroke:#000000;stroke-width:1;" width="110.8066" x="12" y="132.29"/><ellipse cx="44.3258" cy="146.29" fill="#FFFFFF" rx="9" ry="9" style="stroke:#000000;stroke-width:1;"/><path d="M47.2946,151.9306 Q46.7165,152.2275 46.0758,152.3681 Q45.4352,152.5244 44.7321,152.5244 Q42.2321,152.5244 40.904,150.8838 Q39.5915,149.2275 39.5915,146.1025 Q39.5915,142.9775 40.904,141.3213 Q42.2321,139.665 44.7321,139.665 Q45.4352,139.665 46.0758,139.8213 Q46.7321,139.9775 47.2946,140.2744 L47.2946,142.9931 Q46.6696,142.415 46.0758,142.1494 Q45.4821,141.8681 44.8571,141.8681 Q43.5133,141.8681 42.8258,142.9463 Q42.1383,144.0088 42.1383,146.1025 Q42.1383,148.1963 42.8258,149.2744 Q43.5133,150.3369 44.8571,150.3369 Q45.4821,150.3369 46.0758,150.0713 Q46.6696,149.79 47.2946,149.2119 L47.2946,151.9306 Z " fill="#000000"/><text fill="#000000" font-family="Verdana" font-size="14" font-weight="bold" lengthAdjust="spacing" textLength="39.8604" x="60.6205" y="151.1367">Child</text><line style="stroke:#000000;stroke-width:1;" x1="13" x2="121.8066" y1="160.29" y2="160.29"/><line style="stroke:#000000;stroke-width:1;" x1="13" x2="121.8066" y1="168.29" y2="168.29"/><text fill="#000000" font-family="Verdana" font-size="14" lengthAdjust="spacing" textLength="98.8066" x="18" y="185.2851">+greet(): void</text></g><!--reverse link Parent to Child--><g class="link" data-entity-1="Parent" data-entity-2="Child" data-source-line="14" data-uid="lnk4" id="link_Parent_Child"><path codeLine="14" d="M67.4,90.69 C67.4,108.76 67.4,113.79 67.4,131.86" fill="none" id="Parent-backto-Child" style="stroke:#000000;stroke-width:1;"/><polygon fill="none" points="67.4,72.69,61.4,90.69,73.4,90.69,67.4,72.69" style="stroke:#000000;stroke-width:1;"/></g><!--SRC=[TSox2i9044RXVfxYjrCaO2qs8WXsGfvWaXtCu6Gtx8w2YRwxuAKHR0yVP-QTz8B1M2DHEMiSE7EFrhYKhNlMvk9oQ5EiTHIiVia-HQ_zPe8cMI1wHHmvItHC12nnoY8-NwnnJHheyJMxJYty8v_1vbvLRqX4Jm00]--></g></svg>