<svg xmlns="http://www.w3.org/2000/svg" xmlns:xlink="http://www.w3.org/1999/xlink" contentStyleType="text/css" data-diagram-type="CLASS" height="86px" preserveAspectRatio="none" style="width:251px;height:86px;background:#FFFFFF;" version="1.1" viewBox="0 0 251 86" width="251px" zoomAndPan="magnify"><defs/><g><!--class Parent--><g class="entity" data-entity="Parent" data-source-line="3" data-uid="ent0002" id="entity_Parent"><rect fill="#FFFFFF" height="60.2969" rx="2.5" ry="2.5" style="stroke:#000000;stroke-width:1;" width="225.5371" x="12" y="12"/><ellipse cx="98.1421" cy="26" fill="#FFFFFF" rx="9" ry="9" style="stroke:#000000;stroke-width:1;"/><path d="M101.1108,31.6406 Q100.5327,31.9375 99.8921,32.0781 Q99.2515,32.2344 98.5483,32.2344 Q96.0483,32.2344 94.7202,30.5938 Q93.4077,28.9375 93.4077,25.8125 Q93.4077,22.6875 94.7202,21.0313 Q96.0483,19.375 98.5483,19.375 Q99.2515,19.375 99.8921,19.5313 Q100.5483,19.6875 101.1108,19.9844 L101.1108,22.7031 Q100.4858,22.125 99.8921,21.8594 Q99.2983,21.5781 98.6733,21.5781 Q97.3296,21.5781 96.6421,22.6563 Q95.9546,23.7188 95.9546,25.8125 Q95.9546,27.9063 96.6421,28.9844 Q97.3296,30.0469 98.6733,30.0469 Q99.2983,30.0469 99.8921,29.7813 Q100.4858,29.5 101.1108,28.9219 L101.1108,31.6406 Z " fill="#000000"/><text fill="#000000" font-family="Verdana" font-size="14" lengthAdjust="spacing" textLength="45.7529" x="115.6421" y="30.8467">Parent</text><line style="stroke:#000000;stroke-width:1;" x1="13" x2="236.5371" y1="40" y2="40"/><line style="stroke:#000000;stroke-width:1;" x1="13" x2="236.5371" y1="48" y2="48"/><ellipse cx="23" cy="61.6484" fill="#FFFFFF" rx="3" ry="3" style="stroke:#000000;stroke-width:1;"/><text fill="#000000" font-family="Verdana" font-size="14" lengthAdjust="spacing" textLength="201.5371" x="30" y="64.9951">criticalMethod(): void {final}</text></g><!--SRC=[Kop9ICrDLIZ8ISpCu-9ApaaiBbO8I2nApIjHgEPIKD1MI2xABCbCJipnJIt9o4_HqBHIAClFJ56eJilCIyofvQhb0W00]--></g></svg>