<svg xmlns="http://www.w3.org/2000/svg" xmlns:xlink="http://www.w3.org/1999/xlink" contentStyleType="text/css" data-diagram-type="CLASS" height="199px" preserveAspectRatio="none" style="width:130px;height:199px;background:#FFFFFF;" version="1.1" viewBox="0 0 130 199" width="130px" zoomAndPan="magnify"><defs/><g><!--class Parent--><g class="entity" data-entity="Parent" data-source-line="3" data-uid="ent0002" id="entity_Parent"><rect fill="#FFFFFF" height="60.2969" rx="2.5" ry="2.5" style="stroke:#000000;stroke-width:1;" width="111.0762" x="12" y="12"/><ellipse cx="41.7955" cy="26" fill="#FFFFFF" rx="9" ry="9" style="stroke:#000000;stroke-width:1;"/><path d="M44.7642,31.6406 Q44.1861,31.9375 43.5455,32.0781 Q42.9048,32.2344 42.2017,32.2344 Q39.7017,32.2344 38.3736,30.5938 Q37.0611,28.9375 37.0611,25.8125 Q37.0611,22.6875 38.3736,21.0313 Q39.7017,19.375 42.2017,19.375 Q42.9048,19.375 43.5455,19.5313 Q44.2017,19.6875 44.7642,19.9844 L44.7642,22.7031 Q44.1392,22.125 43.5455,21.8594 Q42.9517,21.5781 42.3267,21.5781 Q40.983,21.5781 40.2955,22.6563 Q39.608,23.7188 39.608,25.8125 Q39.608,27.9063 40.2955,28.9844 Q40.983,30.0469 42.3267,30.0469 Q42.9517,30.0469 43.5455,29.7813 Q44.1392,29.5 44.7642,28.9219 L44.7642,31.6406 Z " fill="#000000"/><text fill="#000000" font-family="Verdana" font-size="14" lengthAdjust="spacing" textLength="45.7529" x="57.5278" y="30.8467">Parent</text><line style="stroke:#000000;stroke-width:1;" x1="13" x2="122.0762" y1="40" y2="40"/><line style="stroke:#000000;stroke-width:1;" x1="13" x2="122.0762" y1="48" y2="48"/><ellipse cx="23" cy="61.6484" fill="#FFFFFF" rx="3" ry="3" style="stroke:#000000;stroke-width:1;"/><text fill="#000000" font-family="Verdana" font-size="14" lengthAdjust="spacing" textLength="87.0762" x="30" y="64.9951">greet(): void</text></g><!--class Child--><g class="entity" data-entity="Child" data-source-line="7" data-uid="ent0003" id="entity_Child"><rect fill="#FFFFFF" height="60.2969" rx="2.5" ry="2.5" style="stroke:#000000;stroke-width:1;" width="111.0762" x="12" y="132.29"/><ellipse cx="46.4928" cy="146.29" fill="#FFFFFF" rx="9" ry="9" style="stroke:#000000;stroke-width:1;"/><path d="M49.4615,151.9306 Q48.8834,152.2275 48.2428,152.3681 Q47.6021,152.5244 46.899,152.5244 Q44.399,152.5244 43.0709,150.8838 Q41.7584,149.2275 41.7584,146.1025 Q41.7584,142.9775 43.0709,141.3213 Q44.399,139.665 46.899,139.665 Q47.6021,139.665 48.2428,139.8213 Q48.899,139.9775 49.4615,140.2744 L49.4615,142.9931 Q48.8365,142.415 48.2428,142.1494 Q47.649,141.8681 47.024,141.8681 Q45.6803,141.8681 44.9928,142.9463 Q44.3053,144.0088 44.3053,146.1025 Q44.3053,148.1963 44.9928,149.2744 Q45.6803,150.3369 47.024,150.3369 Q47.649,150.3369 48.2428,150.0713 Q48.8365,149.79 49.4615,149.2119 L49.4615,151.9306 Z " fill="#000000"/><text fill="#000000" font-family="Verdana" font-size="14" lengthAdjust="spacing" textLength="35.3145" x="63.2689" y="151.1367">Child</text><line style="stroke:#000000;stroke-width:1;" x1="13" x2="122.0762" y1="160.29" y2="160.29"/><line style="stroke:#000000;stroke-width:1;" x1="13" x2="122.0762" y1="168.29" y2="168.29"/><ellipse cx="23" cy="181.9384" fill="#FFFFFF" rx="3" ry="3" style="stroke:#000000;stroke-width:1;"/><text fill="#000000" font-family="Verdana" font-size="14" lengthAdjust="spacing" textLength="87.0762" x="30" y="185.2851">greet(): void</text></g><!--reverse link Parent to Child--><g class="link" data-entity-1="Parent" data-entity-2="Child" data-source-line="11" data-uid="lnk4" id="link_Parent_Child"><path codeLine="11" d="M67.54,90.69 C67.54,108.76 67.54,113.79 67.54,131.86" fill="none" id="Parent-backto-Child" style="stroke:#000000;stroke-width:1;"/><polygon fill="none" points="67.54,72.69,61.54,90.69,73.54,90.69,67.54,72.69" style="stroke:#000000;stroke-width:1;"/></g><!--SRC=[Kop9ICrDLIZ8ISpCu-9ApaaiBbO8I2nApIjHgEPIKD1MI2zAJItHqBHIAClFJE6gXQbnpiZCIS6b16g0JOskBaGX5m00]--></g></svg>