<svg xmlns="http://www.w3.org/2000/svg" xmlns:xlink="http://www.w3.org/1999/xlink" contentStyleType="text/css" data-diagram-type="CLASS" height="297px" preserveAspectRatio="none" style="width:727px;height:297px;background:#FFFFFF;" version="1.1" viewBox="0 0 727 297" width="727px" zoomAndPan="magnify"><defs/><g><!--class Shape--><g class="entity" data-entity="Shape" data-source-line="6" data-uid="ent0002" id="entity_Shape"><rect fill="#FFFFFF" height="109.1875" rx="2.5" ry="2.5" style="stroke:#000000;stroke-width:1;" width="187.3691" x="238.69" y="12"/><ellipse cx="304.1177" cy="26" fill="#FFFFFF" rx="9" ry="9" style="stroke:#000000;stroke-width:1;"/><path d="M304.2271,21.3438 L303.0709,26.4219 L305.399,26.4219 L304.2271,21.3438 Z M302.7427,19.1094 L305.7271,19.1094 L309.0865,31.5 L306.6334,31.5 L305.8677,28.4375 L302.5865,28.4375 L301.8365,31.5 L299.399,31.5 L302.7427,19.1094 Z " fill="#000000"/><text fill="#000000" font-family="Verdana" font-size="14" font-style="italic" font-weight="bold" lengthAdjust="spacing" textLength="49.0137" x="321.6177" y="30.8467">Shape</text><line style="stroke:#000000;stroke-width:1;" x1="239.69" x2="425.0591" y1="40" y2="40"/><text fill="#000000" font-family="Verdana" font-size="14" lengthAdjust="spacing" textLength="97.1523" x="244.69" y="56.9951">#color: String</text><line style="stroke:#000000;stroke-width:1;" x1="239.69" x2="425.0591" y1="64.2969" y2="64.2969"/><text fill="#000000" font-family="Verdana" font-size="14" lengthAdjust="spacing" textLength="151.915" x="244.69" y="81.292">+Shape(color: String)</text><text fill="#000000" font-family="Verdana" font-size="14" font-style="italic" lengthAdjust="spacing" textLength="175.3691" x="244.69" y="97.5889">+calculateArea(): double</text><text fill="#000000" font-family="Verdana" font-size="14" lengthAdjust="spacing" textLength="147.7109" x="244.69" y="113.8857">+displayColor(): void</text></g><!--class Circle--><g class="entity" data-entity="Circle" data-source-line="14" data-uid="ent0003" id="entity_Circle"><rect fill="#FFFFFF" height="92.8906" rx="2.5" ry="2.5" style="stroke:#000000;stroke-width:1;" width="268.7578" x="12" y="189.33"/><ellipse cx="120.3438" cy="203.33" fill="#FFFFFF" rx="9" ry="9" style="stroke:#000000;stroke-width:1;"/><path d="M123.3125,208.9706 Q122.7344,209.2675 122.0938,209.4081 Q121.4531,209.5644 120.75,209.5644 Q118.25,209.5644 116.9219,207.9237 Q115.6094,206.2675 115.6094,203.1425 Q115.6094,200.0175 116.9219,198.3612 Q118.25,196.705 120.75,196.705 Q121.4531,196.705 122.0938,196.8612 Q122.75,197.0175 123.3125,197.3144 L123.3125,200.0331 Q122.6875,199.455 122.0938,199.1894 Q121.5,198.9081 120.875,198.9081 Q119.5313,198.9081 118.8438,199.9862 Q118.1563,201.0487 118.1563,203.1425 Q118.1563,205.2362 118.8438,206.3144 Q119.5313,207.3769 120.875,207.3769 Q121.5,207.3769 122.0938,207.1112 Q122.6875,206.83 123.3125,206.2519 L123.3125,208.9706 Z " fill="#000000"/><text fill="#000000" font-family="Verdana" font-size="14" font-weight="bold" lengthAdjust="spacing" textLength="44.5703" x="137.8438" y="208.1767">Circle</text><line style="stroke:#000000;stroke-width:1;" x1="13" x2="279.7578" y1="217.33" y2="217.33"/><text fill="#000000" font-family="Verdana" font-size="14" lengthAdjust="spacing" textLength="105.2119" x="18" y="234.3251">-radius: double</text><line style="stroke:#000000;stroke-width:1;" x1="13" x2="279.7578" y1="241.6269" y2="241.6269"/><text fill="#000000" font-family="Verdana" font-size="14" lengthAdjust="spacing" textLength="256.7578" x="18" y="258.622">+Circle(color: String, radius: double)</text><text fill="#000000" font-family="Verdana" font-size="14" lengthAdjust="spacing" textLength="175.3691" x="18" y="274.9189">+calculateArea(): double</text></g><!--class Rectangle--><g class="entity" data-entity="Rectangle" data-source-line="21" data-uid="ent0004" id="entity_Rectangle"><rect fill="#FFFFFF" height="109.1875" rx="2.5" ry="2.5" style="stroke:#000000;stroke-width:1;" width="405.2236" x="315.77" y="181.18"/><ellipse cx="475.1338" cy="195.18" fill="#FFFFFF" rx="9" ry="9" style="stroke:#000000;stroke-width:1;"/><path d="M478.1025,200.8206 Q477.5244,201.1175 476.8838,201.2581 Q476.2431,201.4144 475.54,201.4144 Q473.04,201.4144 471.7119,199.7738 Q470.3994,198.1175 470.3994,194.9925 Q470.3994,191.8675 471.7119,190.2113 Q473.04,188.555 475.54,188.555 Q476.2431,188.555 476.8838,188.7113 Q477.54,188.8675 478.1025,189.1644 L478.1025,191.8831 Q477.4775,191.305 476.8838,191.0394 Q476.29,190.7581 475.665,190.7581 Q474.3213,190.7581 473.6338,191.8363 Q472.9463,192.8988 472.9463,194.9925 Q472.9463,197.0863 473.6338,198.1644 Q474.3213,199.2269 475.665,199.2269 Q476.29,199.2269 476.8838,198.9613 Q477.4775,198.68 478.1025,198.1019 L478.1025,200.8206 Z " fill="#000000"/><text fill="#000000" font-family="Verdana" font-size="14" font-weight="bold" lengthAdjust="spacing" textLength="78.9961" x="492.6338" y="200.0267">Rectangle</text><line style="stroke:#000000;stroke-width:1;" x1="316.77" x2="719.9936" y1="209.18" y2="209.18"/><text fill="#000000" font-family="Verdana" font-size="14" lengthAdjust="spacing" textLength="100.5225" x="321.77" y="226.1751">-width: double</text><text fill="#000000" font-family="Verdana" font-size="14" lengthAdjust="spacing" textLength="106.5586" x="321.77" y="242.472">-height: double</text><line style="stroke:#000000;stroke-width:1;" x1="316.77" x2="719.9936" y1="249.7738" y2="249.7738"/><text fill="#000000" font-family="Verdana" font-size="14" lengthAdjust="spacing" textLength="393.2236" x="321.77" y="266.7689">+Rectangle(color: String, width: double, height: double)</text><text fill="#000000" font-family="Verdana" font-size="14" lengthAdjust="spacing" textLength="175.3691" x="321.77" y="283.0657">+calculateArea(): double</text></g><!--reverse link Shape to Circle--><g class="link" data-entity-1="Shape" data-entity-2="Circle" data-source-line="29" data-uid="lnk5" id="link_Shape_Circle"><path codeLine="29" d="M258.8625,133.6722 C234.6625,155.4222 220.44,168.21 197.26,189.04" fill="none" id="Shape-backto-Circle" style="stroke:#000000;stroke-width:1;"/><polygon fill="none" points="272.25,121.64,254.8517,129.2097,262.8732,138.1347,272.25,121.64" style="stroke:#000000;stroke-width:1;"/></g><!--reverse link Shape to Rectangle--><g class="link" data-entity-1="Shape" data-entity-2="Rectangle" data-source-line="30" data-uid="lnk6" id="link_Shape_Rectangle"><path codeLine="30" d="M405.8981,133.6716 C427.0181,152.6516 437.35,161.94 458.45,180.91" fill="none" id="Shape-backto-Rectangle" style="stroke:#000000;stroke-width:1;"/><polygon fill="none" points="392.51,121.64,401.8876,138.1343,409.9086,129.2089,392.51,121.64" style="stroke:#000000;stroke-width:1;"/></g><!--SRC=[XP51JyCm38Nl_XL6N3QnI9mdBjCa9Axq5xY9rLfaIPMue37st-cMKRL5Y4iEVi_lVLRkjEK3O-T90a1-az1HeWDQJpdlL9FKlVABZQ6IJyR7fUKv1gtqw1dhw1q0rLaJMIqgLYrrZ2T0l4SRVKnRh8RCq0mJOuRdeLXMCt5z5Ku_MMUqv6tlINcNc5RhBRhOrvwlDYTve3_kBm4NwJsAWpD00TXBihuG64pafC-JxHj2CSqPDWjtOVeBPEnxPQiKch7oGvosqqPiMPfMVqECcqkEMSHciVylLlc1fozZRcTE9sCd07m3]--></g></svg>