<svg xmlns="http://www.w3.org/2000/svg" xmlns:xlink="http://www.w3.org/1999/xlink" contentStyleType="text/css" data-diagram-type="CLASS" height="297px" preserveAspectRatio="none" style="width:728px;height:297px;background:#FFFFFF;" version="1.1" viewBox="0 0 728 297" width="728px" zoomAndPan="magnify"><defs/><g><!--class Shape--><g class="entity" data-entity="Shape" data-source-line="3" data-uid="ent0002" id="entity_Shape"><rect fill="#FFFFFF" height="109.1875" rx="2.5" ry="2.5" style="stroke:#000000;stroke-width:1;" width="187.6387" x="238.69" y="12"/><ellipse cx="306.8399" cy="26" fill="#FFFFFF" rx="9" ry="9" style="stroke:#000000;stroke-width:1;"/><path d="M306.9493,21.3438 L305.793,26.4219 L308.1212,26.4219 L306.9493,21.3438 Z M305.4649,19.1094 L308.4493,19.1094 L311.8087,31.5 L309.3555,31.5 L308.5899,28.4375 L305.3087,28.4375 L304.5587,31.5 L302.1212,31.5 L305.4649,19.1094 Z " fill="#000000"/><text fill="#000000" font-family="Verdana" font-size="14" font-style="italic" lengthAdjust="spacing" textLength="43.8389" x="324.3399" y="30.8467">Shape</text><line style="stroke:#000000;stroke-width:1;" x1="239.69" x2="425.3287" y1="40" y2="40"/><polygon fill="none" points="249.69,48.6484,253.69,52.6484,249.69,56.6484,245.69,52.6484" style="stroke:#000000;stroke-width:1;"/><text fill="#000000" font-family="Verdana" font-size="14" lengthAdjust="spacing" textLength="85.4219" x="256.69" y="56.9951">color: String</text><line style="stroke:#000000;stroke-width:1;" x1="239.69" x2="425.3287" y1="64.2969" y2="64.2969"/><ellipse cx="249.69" cy="77.9453" fill="#FFFFFF" rx="3" ry="3" style="stroke:#000000;stroke-width:1;"/><text fill="#000000" font-family="Verdana" font-size="14" lengthAdjust="spacing" textLength="140.1846" x="256.69" y="81.292">Shape(color: String)</text><ellipse cx="249.69" cy="94.2422" fill="#FFFFFF" rx="3" ry="3" style="stroke:#000000;stroke-width:1;"/><text fill="#000000" font-family="Verdana" font-size="14" font-style="italic" lengthAdjust="spacing" textLength="163.6387" x="256.69" y="97.5889">calculateArea(): double</text><ellipse cx="249.69" cy="110.5391" fill="#FFFFFF" rx="3" ry="3" style="stroke:#000000;stroke-width:1;"/><text fill="#000000" font-family="Verdana" font-size="14" lengthAdjust="spacing" textLength="135.9805" x="256.69" y="113.8857">displayColor(): void</text></g><!--class Circle--><g class="entity" data-entity="Circle" data-source-line="11" data-uid="ent0003" id="entity_Circle"><rect fill="#FFFFFF" height="92.8906" rx="2.5" ry="2.5" style="stroke:#000000;stroke-width:1;" width="269.0273" x="12" y="189.33"/><ellipse cx="122.9531" cy="203.33" fill="#FFFFFF" rx="9" ry="9" style="stroke:#000000;stroke-width:1;"/><path d="M125.9219,208.9706 Q125.3438,209.2675 124.7031,209.4081 Q124.0625,209.5644 123.3594,209.5644 Q120.8594,209.5644 119.5313,207.9237 Q118.2188,206.2675 118.2188,203.1425 Q118.2188,200.0175 119.5313,198.3612 Q120.8594,196.705 123.3594,196.705 Q124.0625,196.705 124.7031,196.8612 Q125.3594,197.0175 125.9219,197.3144 L125.9219,200.0331 Q125.2969,199.455 124.7031,199.1894 Q124.1094,198.9081 123.4844,198.9081 Q122.1406,198.9081 121.4531,199.9862 Q120.7656,201.0487 120.7656,203.1425 Q120.7656,205.2362 121.4531,206.3144 Q122.1406,207.3769 123.4844,207.3769 Q124.1094,207.3769 124.7031,207.1112 Q125.2969,206.83 125.9219,206.2519 L125.9219,208.9706 Z " fill="#000000"/><text fill="#000000" font-family="Verdana" font-size="14" lengthAdjust="spacing" textLength="39.6211" x="140.4531" y="208.1767">Circle</text><line style="stroke:#000000;stroke-width:1;" x1="13" x2="280.0273" y1="217.33" y2="217.33"/><rect fill="none" height="6" style="stroke:#000000;stroke-width:1;" width="6" x="20" y="227.9784"/><text fill="#000000" font-family="Verdana" font-size="14" lengthAdjust="spacing" textLength="100.1602" x="30" y="234.3251">radius: double</text><line style="stroke:#000000;stroke-width:1;" x1="13" x2="280.0273" y1="241.6269" y2="241.6269"/><ellipse cx="23" cy="255.2753" fill="#FFFFFF" rx="3" ry="3" style="stroke:#000000;stroke-width:1;"/><text fill="#000000" font-family="Verdana" font-size="14" lengthAdjust="spacing" textLength="245.0273" x="30" y="258.622">Circle(color: String, radius: double)</text><ellipse cx="23" cy="271.5722" fill="#FFFFFF" rx="3" ry="3" style="stroke:#000000;stroke-width:1;"/><text fill="#000000" font-family="Verdana" font-size="14" lengthAdjust="spacing" textLength="163.6387" x="30" y="274.9189">calculateArea(): double</text></g><!--class Rectangle--><g class="entity" data-entity="Rectangle" data-source-line="18" data-uid="ent0004" id="entity_Rectangle"><rect fill="#FFFFFF" height="109.1875" rx="2.5" ry="2.5" style="stroke:#000000;stroke-width:1;" width="405.4932" x="315.77" y="181.18"/><ellipse cx="479.582" cy="195.18" fill="#FFFFFF" rx="9" ry="9" style="stroke:#000000;stroke-width:1;"/><path d="M482.5508,200.8206 Q481.9726,201.1175 481.332,201.2581 Q480.6914,201.4144 479.9883,201.4144 Q477.4883,201.4144 476.1601,199.7738 Q474.8476,198.1175 474.8476,194.9925 Q474.8476,191.8675 476.1601,190.2113 Q477.4883,188.555 479.9883,188.555 Q480.6914,188.555 481.332,188.7113 Q481.9883,188.8675 482.5508,189.1644 L482.5508,191.8831 Q481.9258,191.305 481.332,191.0394 Q480.7383,190.7581 480.1133,190.7581 Q478.7695,190.7581 478.082,191.8363 Q477.3945,192.8988 477.3945,194.9925 Q477.3945,197.0863 478.082,198.1644 Q478.7695,199.2269 480.1133,199.2269 Q480.7383,199.2269 481.332,198.9613 Q481.9258,198.68 482.5508,198.1019 L482.5508,200.8206 Z " fill="#000000"/><text fill="#000000" font-family="Verdana" font-size="14" lengthAdjust="spacing" textLength="70.3691" x="497.082" y="200.0267">Rectangle</text><line style="stroke:#000000;stroke-width:1;" x1="316.77" x2="720.2632" y1="209.18" y2="209.18"/><rect fill="none" height="6" style="stroke:#000000;stroke-width:1;" width="6" x="323.77" y="219.8284"/><text fill="#000000" font-family="Verdana" font-size="14" lengthAdjust="spacing" textLength="95.4707" x="333.77" y="226.1751">width: double</text><rect fill="none" height="6" style="stroke:#000000;stroke-width:1;" width="6" x="323.77" y="236.1253"/><text fill="#000000" font-family="Verdana" font-size="14" lengthAdjust="spacing" textLength="101.5068" x="333.77" y="242.472">height: double</text><line style="stroke:#000000;stroke-width:1;" x1="316.77" x2="720.2632" y1="249.7738" y2="249.7738"/><ellipse cx="326.77" cy="263.4222" fill="#FFFFFF" rx="3" ry="3" style="stroke:#000000;stroke-width:1;"/><text fill="#000000" font-family="Verdana" font-size="14" lengthAdjust="spacing" textLength="381.4932" x="333.77" y="266.7689">Rectangle(color: String, width: double, height: double)</text><ellipse cx="326.77" cy="279.7191" fill="#FFFFFF" rx="3" ry="3" style="stroke:#000000;stroke-width:1;"/><text fill="#000000" font-family="Verdana" font-size="14" lengthAdjust="spacing" textLength="163.6387" x="333.77" y="283.0657">calculateArea(): double</text></g><!--reverse link Shape to Circle--><g class="link" data-entity-1="Shape" data-entity-2="Circle" data-source-line="26" data-uid="lnk5" id="link_Shape_Circle"><path codeLine="26" d="M258.9925,133.6722 C234.7925,155.4222 220.58,168.21 197.39,189.04" fill="none" id="Shape-backto-Circle" style="stroke:#000000;stroke-width:1;"/><polygon fill="none" points="272.38,121.64,254.9817,129.2097,263.0032,138.1347,272.38,121.64" style="stroke:#000000;stroke-width:1;"/></g><!--reverse link Shape to Rectangle--><g class="link" data-entity-1="Shape" data-entity-2="Rectangle" data-source-line="27" data-uid="lnk6" id="link_Shape_Rectangle"><path codeLine="27" d="M406.0381,133.6716 C427.1581,152.6516 437.48,161.94 458.59,180.91" fill="none" id="Shape-backto-Rectangle" style="stroke:#000000;stroke-width:1;"/><polygon fill="none" points="392.65,121.64,402.0276,138.1343,410.0486,129.2089,392.65,121.64" style="stroke:#000000;stroke-width:1;"/></g><!--SRC=[XP5B3e8m48RtFSKODn3f1OWRmmta14FRq2QLahPe379tWM836EEcYvd_yKrwy5BS1BGQLKC8LivRP1wOHkUWbDWAw0d04PZHnkPGUgkQUfnGEZwd84asotHUz9-i0HXgrcdquc859caEt7IL5hECApTsFuifO5hTZU9a82G05Ceo7GWeMEIgSoltWX14MuPifmvClq1YtrKmZqqTAn-AUxbk12bKBVqtH7JkEJOHsSx_5olymFb5wNBcUX8xoHi0]--></g></svg>