<svg xmlns="http://www.w3.org/2000/svg" xmlns:xlink="http://www.w3.org/1999/xlink" contentStyleType="text/css" data-diagram-type="CLASS" height="297px" preserveAspectRatio="none" style="width:383px;height:297px;background:#FFFFFF;" version="1.1" viewBox="0 0 383 297" width="383px" zoomAndPan="magnify"><defs/><g><!--class Car--><g class="entity" data-entity="Car" data-source-line="3" data-uid="ent0002" id="entity_Car"><rect fill="#FFFFFF" height="109.1875" rx="2.5" ry="2.5" style="stroke:#000000;stroke-width:1;" width="162.9678" x="12" y="12"/><ellipse cx="77.6787" cy="26" fill="#FFFFFF" rx="9" ry="9" style="stroke:#000000;stroke-width:1;"/><path d="M80.6475,31.6406 Q80.0693,31.9375 79.4287,32.0781 Q78.7881,32.2344 78.085,32.2344 Q75.585,32.2344 74.2568,30.5938 Q72.9443,28.9375 72.9443,25.8125 Q72.9443,22.6875 74.2568,21.0313 Q75.585,19.375 78.085,19.375 Q78.7881,19.375 79.4287,19.5313 Q80.085,19.6875 80.6475,19.9844 L80.6475,22.7031 Q80.0225,22.125 79.4287,21.8594 Q78.835,21.5781 78.21,21.5781 Q76.8662,21.5781 76.1787,22.6563 Q75.4912,23.7188 75.4912,25.8125 Q75.4912,27.9063 76.1787,28.9844 Q76.8662,30.0469 78.21,30.0469 Q78.835,30.0469 79.4287,29.7813 Q80.0225,29.5 80.6475,28.9219 L80.6475,31.6406 Z " fill="#000000"/><text fill="#000000" font-family="Verdana" font-size="14" lengthAdjust="spacing" textLength="24.1104" x="95.1787" y="30.8467">Car</text><line style="stroke:#000000;stroke-width:1;" x1="13" x2="173.9678" y1="40" y2="40"/><rect fill="none" height="6" style="stroke:#000000;stroke-width:1;" width="6" x="20" y="50.6484"/><text fill="#000000" font-family="Verdana" font-size="14" lengthAdjust="spacing" textLength="91.9297" x="30" y="56.9951">brand: String</text><rect fill="none" height="6" style="stroke:#000000;stroke-width:1;" width="6" x="20" y="66.9453"/><text fill="#000000" font-family="Verdana" font-size="14" lengthAdjust="spacing" textLength="94.541" x="30" y="73.292">model: String</text><rect fill="none" height="6" style="stroke:#000000;stroke-width:1;" width="6" x="20" y="83.2422"/><text fill="#000000" font-family="Verdana" font-size="14" lengthAdjust="spacing" textLength="58.6523" x="30" y="89.5889">year: int</text><rect fill="none" height="6" style="stroke:#000000;stroke-width:1;" width="6" x="20" y="99.5391"/><text fill="#000000" font-family="Verdana" font-size="14" lengthAdjust="spacing" textLength="138.9678" x="30" y="105.8857">numberOfDoors: int</text><line style="stroke:#000000;stroke-width:1;" x1="13" x2="173.9678" y1="113.1875" y2="113.1875"/></g><!--class Motorcycle--><g class="entity" data-entity="Motorcycle" data-source-line="10" data-uid="ent0003" id="entity_Motorcycle"><rect fill="#FFFFFF" height="109.1875" rx="2.5" ry="2.5" style="stroke:#000000;stroke-width:1;" width="166.1943" x="210.39" y="12"/><ellipse cx="251.4183" cy="26" fill="#FFFFFF" rx="9" ry="9" style="stroke:#000000;stroke-width:1;"/><path d="M254.3871,31.6406 Q253.8089,31.9375 253.1683,32.0781 Q252.5277,32.2344 251.8246,32.2344 Q249.3246,32.2344 247.9964,30.5938 Q246.6839,28.9375 246.6839,25.8125 Q246.6839,22.6875 247.9964,21.0313 Q249.3246,19.375 251.8246,19.375 Q252.5277,19.375 253.1683,19.5313 Q253.8246,19.6875 254.3871,19.9844 L254.3871,22.7031 Q253.7621,22.125 253.1683,21.8594 Q252.5746,21.5781 251.9496,21.5781 Q250.6058,21.5781 249.9183,22.6563 Q249.2308,23.7188 249.2308,25.8125 Q249.2308,27.9063 249.9183,28.9844 Q250.6058,30.0469 251.9496,30.0469 Q252.5746,30.0469 253.1683,29.7813 Q253.7621,29.5 254.3871,28.9219 L254.3871,31.6406 Z " fill="#000000"/><text fill="#000000" font-family="Verdana" font-size="14" lengthAdjust="spacing" textLength="76.6377" x="268.9183" y="30.8467">Motorcycle</text><line style="stroke:#000000;stroke-width:1;" x1="211.39" x2="375.5843" y1="40" y2="40"/><rect fill="none" height="6" style="stroke:#000000;stroke-width:1;" width="6" x="218.39" y="50.6484"/><text fill="#000000" font-family="Verdana" font-size="14" lengthAdjust="spacing" textLength="91.9297" x="228.39" y="56.9951">brand: String</text><rect fill="none" height="6" style="stroke:#000000;stroke-width:1;" width="6" x="218.39" y="66.9453"/><text fill="#000000" font-family="Verdana" font-size="14" lengthAdjust="spacing" textLength="94.541" x="228.39" y="73.292">model: String</text><rect fill="none" height="6" style="stroke:#000000;stroke-width:1;" width="6" x="218.39" y="83.2422"/><text fill="#000000" font-family="Verdana" font-size="14" lengthAdjust="spacing" textLength="58.6523" x="228.39" y="89.5889">year: int</text><rect fill="none" height="6" style="stroke:#000000;stroke-width:1;" width="6" x="218.39" y="99.5391"/><text fill="#000000" font-family="Verdana" font-size="14" lengthAdjust="spacing" textLength="142.1943" x="228.39" y="105.8857">hasSidecar: boolean</text><line style="stroke:#000000;stroke-width:1;" x1="211.39" x2="375.5843" y1="113.1875" y2="113.1875"/></g><!--class Truck--><g class="entity" data-entity="Truck" data-source-line="17" data-uid="ent0004" id="entity_Truck"><rect fill="#FFFFFF" height="109.1875" rx="2.5" ry="2.5" style="stroke:#000000;stroke-width:1;" width="145.2148" x="20.88" y="181.18"/><ellipse cx="70.2447" cy="195.18" fill="#FFFFFF" rx="9" ry="9" style="stroke:#000000;stroke-width:1;"/><path d="M73.2135,200.8206 Q72.6354,201.1175 71.9947,201.2581 Q71.3541,201.4144 70.651,201.4144 Q68.151,201.4144 66.8229,199.7738 Q65.5104,198.1175 65.5104,194.9925 Q65.5104,191.8675 66.8229,190.2113 Q68.151,188.555 70.651,188.555 Q71.3541,188.555 71.9947,188.7113 Q72.651,188.8675 73.2135,189.1644 L73.2135,191.8831 Q72.5885,191.305 71.9947,191.0394 Q71.401,190.7581 70.776,190.7581 Q69.4322,190.7581 68.7447,191.8363 Q68.0572,192.8988 68.0572,194.9925 Q68.0572,197.0863 68.7447,198.1644 Q69.4322,199.2269 70.776,199.2269 Q71.401,199.2269 71.9947,198.9613 Q72.5885,198.68 73.2135,198.1019 L73.2135,200.8206 Z " fill="#000000"/><text fill="#000000" font-family="Verdana" font-size="14" lengthAdjust="spacing" textLength="38.9854" x="87.7447" y="200.0267">Truck</text><line style="stroke:#000000;stroke-width:1;" x1="21.88" x2="165.0948" y1="209.18" y2="209.18"/><rect fill="none" height="6" style="stroke:#000000;stroke-width:1;" width="6" x="28.88" y="219.8284"/><text fill="#000000" font-family="Verdana" font-size="14" lengthAdjust="spacing" textLength="91.9297" x="38.88" y="226.1751">brand: String</text><rect fill="none" height="6" style="stroke:#000000;stroke-width:1;" width="6" x="28.88" y="236.1253"/><text fill="#000000" font-family="Verdana" font-size="14" lengthAdjust="spacing" textLength="94.541" x="38.88" y="242.472">model: String</text><rect fill="none" height="6" style="stroke:#000000;stroke-width:1;" width="6" x="28.88" y="252.4222"/><text fill="#000000" font-family="Verdana" font-size="14" lengthAdjust="spacing" textLength="58.6523" x="38.88" y="258.7689">year: int</text><rect fill="none" height="6" style="stroke:#000000;stroke-width:1;" width="6" x="28.88" y="268.7191"/><text fill="#000000" font-family="Verdana" font-size="14" lengthAdjust="spacing" textLength="121.2148" x="38.88" y="275.0657">maxLoad: double</text><line style="stroke:#000000;stroke-width:1;" x1="21.88" x2="165.0948" y1="282.3675" y2="282.3675"/></g><!--SRC=[dSmn3i8m38NXFQSm1-02NM44CPGBE8cX4OwDd4HgXRWxfGWXrexlbzwtgGDbWZjZ4kS2OocmGuE70zY2DvJOGLyjoNKfMIFnNva8hOCaTLdIiYSxNVQgLZxv-NMFMjN259XMymEMFaKAx-PLcL1-_jbQkAscCuu7nVaJjNcccNq1]--></g></svg>