<svg xmlns="http://www.w3.org/2000/svg" xmlns:xlink="http://www.w3.org/1999/xlink" contentStyleType="text/css" data-diagram-type="CLASS" height="580px" preserveAspectRatio="none" style="width:1049px;height:580px;background:#FFFFFF;" version="1.1" viewBox="0 0 1049 580" width="1049px" zoomAndPan="magnify"><defs/><g><!--class Vehicle--><g class="entity" data-entity="Vehicle" data-source-line="3" data-uid="ent0002" id="entity_Vehicle"><rect fill="#FFFFFF" height="255.8594" rx="2.5" ry="2.5" style="stroke:#000000;stroke-width:1;" width="349.001" x="357.41" y="132.3"/><ellipse cx="502.5838" cy="146.3" fill="#FFFFFF" rx="9" ry="9" style="stroke:#000000;stroke-width:1;"/><path d="M502.6932,141.6438 L501.537,146.7219 L503.8651,146.7219 L502.6932,141.6438 Z M501.2088,139.4094 L504.1932,139.4094 L507.5526,151.8 L505.0995,151.8 L504.3338,148.7375 L501.0526,148.7375 L500.3026,151.8 L497.8651,151.8 L501.2088,139.4094 Z " fill="#000000"/><text fill="#000000" font-family="Verdana" font-size="14" font-style="italic" lengthAdjust="spacing" textLength="51.1533" x="520.0838" y="151.1467">Vehicle</text><line style="stroke:#000000;stroke-width:1;" x1="358.41" x2="705.411" y1="160.3" y2="160.3"/><polygon fill="none" points="368.41,168.9484,372.41,172.9484,368.41,176.9484,364.41,172.9484" style="stroke:#000000;stroke-width:1;"/><text fill="#000000" font-family="Verdana" font-size="14" lengthAdjust="spacing" textLength="91.9297" x="375.41" y="177.2951">brand: String</text><polygon fill="none" points="368.41,185.2453,372.41,189.2453,368.41,193.2453,364.41,189.2453" style="stroke:#000000;stroke-width:1;"/><text fill="#000000" font-family="Verdana" font-size="14" lengthAdjust="spacing" textLength="94.541" x="375.41" y="193.592">model: String</text><polygon fill="none" points="368.41,201.5422,372.41,205.5422,368.41,209.5422,364.41,205.5422" style="stroke:#000000;stroke-width:1;"/><text fill="#000000" font-family="Verdana" font-size="14" lengthAdjust="spacing" textLength="58.6523" x="375.41" y="209.8889">year: int</text><polygon fill="none" points="368.41,217.8391,372.41,221.8391,368.41,225.8391,364.41,221.8391" style="stroke:#000000;stroke-width:1;"/><text fill="#000000" font-family="Verdana" font-size="14" lengthAdjust="spacing" textLength="120.3877" x="375.41" y="226.1857">fuelLevel: double</text><line style="stroke:#000000;stroke-width:1;" x1="358.41" x2="705.411" y1="233.4875" y2="233.4875"/><ellipse cx="368.41" cy="247.1359" fill="#FFFFFF" rx="3" ry="3" style="stroke:#000000;stroke-width:1;"/><text fill="#000000" font-family="Verdana" font-size="14" lengthAdjust="spacing" textLength="325.001" x="375.41" y="250.4826">Vehicle(brand: String, model: String, year: int)</text><ellipse cx="368.41" cy="263.4328" fill="#FFFFFF" rx="3" ry="3" style="stroke:#000000;stroke-width:1;"/><text fill="#000000" font-family="Verdana" font-size="14" lengthAdjust="spacing" textLength="126.5605" x="375.41" y="266.7795">getBrand(): String</text><ellipse cx="368.41" cy="279.7297" fill="#FFFFFF" rx="3" ry="3" style="stroke:#000000;stroke-width:1;"/><text fill="#000000" font-family="Verdana" font-size="14" lengthAdjust="spacing" textLength="126.8955" x="375.41" y="283.0764">getModel(): String</text><ellipse cx="368.41" cy="296.0266" fill="#FFFFFF" rx="3" ry="3" style="stroke:#000000;stroke-width:1;"/><text fill="#000000" font-family="Verdana" font-size="14" lengthAdjust="spacing" textLength="92.832" x="375.41" y="299.3732">getYear(): int</text><ellipse cx="368.41" cy="312.3234" fill="#FFFFFF" rx="3" ry="3" style="stroke:#000000;stroke-width:1;"/><text fill="#000000" font-family="Verdana" font-size="14" lengthAdjust="spacing" textLength="157.4248" x="375.41" y="315.6701">getFuelLevel(): double</text><ellipse cx="368.41" cy="328.6203" fill="#FFFFFF" rx="3" ry="3" style="stroke:#000000;stroke-width:1;"/><text fill="#000000" font-family="Verdana" font-size="14" lengthAdjust="spacing" textLength="258.1318" x="375.41" y="331.967">setFuelLevel(fuelLevel: double): void</text><ellipse cx="368.41" cy="344.9172" fill="#FFFFFF" rx="3" ry="3" style="stroke:#000000;stroke-width:1;"/><text fill="#000000" font-family="Verdana" font-size="14" lengthAdjust="spacing" textLength="201.291" x="375.41" y="348.2639">refuel(amount: double): void</text><ellipse cx="368.41" cy="361.2141" fill="#FFFFFF" rx="3" ry="3" style="stroke:#000000;stroke-width:1;"/><text fill="#000000" font-family="Verdana" font-size="14" font-style="italic" lengthAdjust="spacing" textLength="82.3252" x="375.41" y="364.5607">start(): void</text><ellipse cx="368.41" cy="377.5109" fill="#FFFFFF" rx="3" ry="3" style="stroke:#000000;stroke-width:1;"/><text fill="#000000" font-family="Verdana" font-size="14" font-style="italic" lengthAdjust="spacing" textLength="170.3516" x="375.41" y="380.8576">getVehicleType(): String</text></g><!--class Car--><g class="entity" data-entity="Car" data-source-line="20" data-uid="ent0003" id="entity_Car"><rect fill="#FFFFFF" height="125.4844" rx="2.5" ry="2.5" style="stroke:#000000;stroke-width:1;" width="469.8262" x="12" y="448.16"/><ellipse cx="231.1079" cy="462.16" fill="#FFFFFF" rx="9" ry="9" style="stroke:#000000;stroke-width:1;"/><path d="M234.0767,467.8006 Q233.4985,468.0975 232.8579,468.2381 Q232.2173,468.3944 231.5142,468.3944 Q229.0142,468.3944 227.686,466.7537 Q226.3735,465.0975 226.3735,461.9725 Q226.3735,458.8475 227.686,457.1912 Q229.0142,455.535 231.5142,455.535 Q232.2173,455.535 232.8579,455.6912 Q233.5142,455.8475 234.0767,456.1444 L234.0767,458.8631 Q233.4517,458.285 232.8579,458.0194 Q232.2642,457.7381 231.6392,457.7381 Q230.2954,457.7381 229.6079,458.8162 Q228.9204,459.8787 228.9204,461.9725 Q228.9204,464.0662 229.6079,465.1444 Q230.2954,466.2069 231.6392,466.2069 Q232.2642,466.2069 232.8579,465.9412 Q233.4517,465.66 234.0767,465.0819 L234.0767,467.8006 Z " fill="#000000"/><text fill="#000000" font-family="Verdana" font-size="14" lengthAdjust="spacing" textLength="24.1104" x="248.6079" y="467.0067">Car</text><line style="stroke:#000000;stroke-width:1;" x1="13" x2="480.8262" y1="476.16" y2="476.16"/><rect fill="none" height="6" style="stroke:#000000;stroke-width:1;" width="6" x="20" y="486.8084"/><text fill="#000000" font-family="Verdana" font-size="14" lengthAdjust="spacing" textLength="138.9678" x="30" y="493.1551">numberOfDoors: int</text><line style="stroke:#000000;stroke-width:1;" x1="13" x2="480.8262" y1="500.4569" y2="500.4569"/><ellipse cx="23" cy="514.1053" fill="#FFFFFF" rx="3" ry="3" style="stroke:#000000;stroke-width:1;"/><text fill="#000000" font-family="Verdana" font-size="14" lengthAdjust="spacing" textLength="445.8262" x="30" y="517.452">Car(brand: String, model: String, year: int, numberOfDoors: int)</text><ellipse cx="23" cy="530.4022" fill="#FFFFFF" rx="3" ry="3" style="stroke:#000000;stroke-width:1;"/><text fill="#000000" font-family="Verdana" font-size="14" lengthAdjust="spacing" textLength="174.4805" x="30" y="533.7489">getNumberOfDoors(): int</text><ellipse cx="23" cy="546.6991" fill="#FFFFFF" rx="3" ry="3" style="stroke:#000000;stroke-width:1;"/><text fill="#000000" font-family="Verdana" font-size="14" lengthAdjust="spacing" textLength="82.3252" x="30" y="550.0457">start(): void</text><ellipse cx="23" cy="562.9959" fill="#FFFFFF" rx="3" ry="3" style="stroke:#000000;stroke-width:1;"/><text fill="#000000" font-family="Verdana" font-size="14" lengthAdjust="spacing" textLength="170.3516" x="30" y="566.3426">getVehicleType(): String</text></g><!--class Motorcycle--><g class="entity" data-entity="Motorcycle" data-source-line="29" data-uid="ent0004" id="entity_Motorcycle"><rect fill="#FFFFFF" height="125.4844" rx="2.5" ry="2.5" style="stroke:#000000;stroke-width:1;" width="525.5801" x="517.12" y="448.16"/><ellipse cx="737.8412" cy="462.16" fill="#FFFFFF" rx="9" ry="9" style="stroke:#000000;stroke-width:1;"/><path d="M740.8099,467.8006 Q740.2318,468.0975 739.5912,468.2381 Q738.9506,468.3944 738.2474,468.3944 Q735.7474,468.3944 734.4193,466.7537 Q733.1068,465.0975 733.1068,461.9725 Q733.1068,458.8475 734.4193,457.1912 Q735.7474,455.535 738.2474,455.535 Q738.9506,455.535 739.5912,455.6912 Q740.2474,455.8475 740.8099,456.1444 L740.8099,458.8631 Q740.1849,458.285 739.5912,458.0194 Q738.9974,457.7381 738.3724,457.7381 Q737.0287,457.7381 736.3412,458.8162 Q735.6537,459.8787 735.6537,461.9725 Q735.6537,464.0662 736.3412,465.1444 Q737.0287,466.2069 738.3724,466.2069 Q738.9974,466.2069 739.5912,465.9412 Q740.1849,465.66 740.8099,465.0819 L740.8099,467.8006 Z " fill="#000000"/><text fill="#000000" font-family="Verdana" font-size="14" lengthAdjust="spacing" textLength="76.6377" x="755.3412" y="467.0067">Motorcycle</text><line style="stroke:#000000;stroke-width:1;" x1="518.12" x2="1041.7001" y1="476.16" y2="476.16"/><rect fill="none" height="6" style="stroke:#000000;stroke-width:1;" width="6" x="525.12" y="486.8084"/><text fill="#000000" font-family="Verdana" font-size="14" lengthAdjust="spacing" textLength="194.6191" x="535.12" y="493.1551">hasSidecar: boolean {final}</text><line style="stroke:#000000;stroke-width:1;" x1="518.12" x2="1041.7001" y1="500.4569" y2="500.4569"/><ellipse cx="528.12" cy="514.1053" fill="#FFFFFF" rx="3" ry="3" style="stroke:#000000;stroke-width:1;"/><text fill="#000000" font-family="Verdana" font-size="14" lengthAdjust="spacing" textLength="501.5801" x="535.12" y="517.452">Motorcycle(brand: String, model: String, year: int, hasSidecar: boolean)</text><ellipse cx="528.12" cy="530.4022" fill="#FFFFFF" rx="3" ry="3" style="stroke:#000000;stroke-width:1;"/><text fill="#000000" font-family="Verdana" font-size="14" lengthAdjust="spacing" textLength="153.1182" x="535.12" y="533.7489">hasSidecar(): boolean</text><ellipse cx="528.12" cy="546.6991" fill="#FFFFFF" rx="3" ry="3" style="stroke:#000000;stroke-width:1;"/><text fill="#000000" font-family="Verdana" font-size="14" lengthAdjust="spacing" textLength="82.3252" x="535.12" y="550.0457">start(): void</text><ellipse cx="528.12" cy="562.9959" fill="#FFFFFF" rx="3" ry="3" style="stroke:#000000;stroke-width:1;"/><text fill="#000000" font-family="Verdana" font-size="14" lengthAdjust="spacing" textLength="170.3516" x="535.12" y="566.3426">getVehicleType(): String</text></g><!--class VehicleDemo--><g class="entity" data-entity="VehicleDemo" data-source-line="38" data-uid="ent0005" id="entity_VehicleDemo"><rect fill="#FFFFFF" height="60.2969" rx="2.5" ry="2.5" style="stroke:#000000;stroke-width:1;" width="201.085" x="431.37" y="12"/><ellipse cx="481.7875" cy="26" fill="#FFFFFF" rx="9" ry="9" style="stroke:#000000;stroke-width:1;"/><path d="M484.7562,31.6406 Q484.1781,31.9375 483.5375,32.0781 Q482.8969,32.2344 482.1937,32.2344 Q479.6937,32.2344 478.3656,30.5938 Q477.0531,28.9375 477.0531,25.8125 Q477.0531,22.6875 478.3656,21.0313 Q479.6937,19.375 482.1937,19.375 Q482.8969,19.375 483.5375,19.5313 Q484.1937,19.6875 484.7562,19.9844 L484.7562,22.7031 Q484.1312,22.125 483.5375,21.8594 Q482.9437,21.5781 482.3187,21.5781 Q480.975,21.5781 480.2875,22.6563 Q479.6,23.7188 479.6,25.8125 Q479.6,27.9063 480.2875,28.9844 Q480.975,30.0469 482.3187,30.0469 Q482.9437,30.0469 483.5375,29.7813 Q484.1312,29.5 484.7562,28.9219 L484.7562,31.6406 Z " fill="#000000"/><text fill="#000000" font-family="Verdana" font-size="14" lengthAdjust="spacing" textLength="92.75" x="499.2875" y="30.8467">VehicleDemo</text><line style="stroke:#000000;stroke-width:1;" x1="432.37" x2="631.455" y1="40" y2="40"/><line style="stroke:#000000;stroke-width:1;" x1="432.37" x2="631.455" y1="48" y2="48"/><ellipse cx="442.37" cy="61.6484" fill="#FFFFFF" rx="3" ry="3" style="stroke:#000000;stroke-width:1;"/><text fill="#000000" font-family="Verdana" font-size="14" lengthAdjust="spacing" text-decoration="underline" textLength="177.085" x="449.37" y="64.9951">main(args: String[]): void</text></g><!--reverse link Vehicle to Car--><g class="link" data-entity-1="Vehicle" data-entity-2="Car" data-source-line="42" data-uid="lnk6" id="link_Vehicle_Car"><path codeLine="42" d="M372.507,400.314 C348.817,420.984 338.81,429.71 317.99,447.88" fill="none" id="Vehicle-backto-Car" style="stroke:#000000;stroke-width:1;"/><polygon fill="none" points="386.07,388.48,368.5623,395.793,376.4516,404.835,386.07,388.48" style="stroke:#000000;stroke-width:1;"/></g><!--reverse link Vehicle to Motorcycle--><g class="link" data-entity-1="Vehicle" data-entity-2="Motorcycle" data-source-line="43" data-uid="lnk7" id="link_Vehicle_Motorcycle"><path codeLine="43" d="M671.5325,401.2233 C692.1525,421.8933 699.95,429.71 718.07,447.88" fill="none" id="Vehicle-backto-Motorcycle" style="stroke:#000000;stroke-width:1;"/><polygon fill="none" points="658.82,388.48,667.2847,405.4608,675.7803,396.9858,658.82,388.48" style="stroke:#000000;stroke-width:1;"/></g><!--link VehicleDemo to Vehicle--><g class="link" data-entity-1="VehicleDemo" data-entity-2="Vehicle" data-source-line="44" data-uid="lnk8" id="link_VehicleDemo_Vehicle"><path codeLine="44" d="M531.91,72.74 C531.91,88.81 531.91,103.89 531.91,126.09" fill="none" id="VehicleDemo-to-Vehicle" style="stroke:#000000;stroke-width:1;stroke-dasharray:7,7;"/><polygon fill="#000000" points="531.91,132.09,535.91,123.09,531.91,127.09,527.91,123.09,531.91,132.09" style="stroke:#000000;stroke-width:1;"/></g><!--link VehicleDemo to Car--><g class="link" data-entity-1="VehicleDemo" data-entity-2="Car" data-source-line="45" data-uid="lnk9" id="link_VehicleDemo_Car"><path codeLine="45" d="M430.94,70.51 C397.68,84.11 363.27,103.92 339.91,132.3 C264.82,223.51 249.1165,360.4729 246.5865,441.8129" fill="none" id="VehicleDemo-to-Car" style="stroke:#000000;stroke-width:1;stroke-dasharray:7,7;"/><polygon fill="#000000" points="246.4,447.81,250.6779,438.9387,246.5554,442.8124,242.6817,438.69,246.4,447.81" style="stroke:#000000;stroke-width:1;"/></g><!--link VehicleDemo to Motorcycle--><g class="link" data-entity-1="VehicleDemo" data-entity-2="Motorcycle" data-source-line="46" data-uid="lnk10" id="link_VehicleDemo_Motorcycle"><path codeLine="46" d="M632.9,68.71 C666.78,82.21 701.59,102.41 723.91,132.3 C793.23,225.07 794.4902,361.1592 788.0002,441.9892" fill="none" id="VehicleDemo-to-Motorcycle" style="stroke:#000000;stroke-width:1;stroke-dasharray:7,7;"/><polygon fill="#000000" points="787.52,447.97,792.2275,439.319,787.9202,442.986,784.2531,438.6787,787.52,447.97" style="stroke:#000000;stroke-width:1;"/></g><!--SRC=[dLD1QiCm4Bpx5LjwSKYS1uJIGnjwQjf3Ig6K7jRsnX78Kf3aG4ZzzqgA5SiufQ4NWsTsHpCZ-yPigIROSMGYIJ3NHc5XeE2eDRpJbXMSu9W0t4AkK9GBM1l5HEMHMfR41yY1K2s02UFVDWtnPzgxcL8sEIUBPfbzJ8DqEX2T3HLdlTp4BrLa7jnyEeaEzV3AxOtX3xllq9CX3pq5Jmu_kvg2ZgcHSJkxbwpqaueSdM8j6s4k3Hn3ZIreWygalv3MJLV3ss57aVisIKuNy8ZAbv-1QEgSrEjcAQNI8L3NfPswjiVP1Q5pjoyn5TSsJl6tzPKqKXM7yFbai4MzPYKLpaak9ISKSDmmWRpje_HRroUw87oAr1FEO4VzEr17BwcMFf6zIYjZMD52RN-U55MbmzRdLz2sw-4lkllECdTNGw1FdCGdpEVtuSGH7ccSiKZc1m00]--></g></svg>