<svg xmlns="http://www.w3.org/2000/svg" xmlns:xlink="http://www.w3.org/1999/xlink" contentStyleType="text/css" data-diagram-type="CLASS" height="232px" preserveAspectRatio="none" style="width:543px;height:232px;background:#FFFFFF;" version="1.1" viewBox="0 0 543 232" width="543px" zoomAndPan="magnify"><defs/><g><!--class Vehicle--><g class="entity" data-entity="Vehicle" data-source-line="6" data-uid="ent0002" id="entity_Vehicle"><rect fill="#FFFFFF" height="92.8906" rx="2.5" ry="2.5" style="stroke:#000000;stroke-width:1;" width="111.5928" x="227.21" y="12"/><ellipse cx="251.8669" cy="26" fill="#FFFFFF" rx="9" ry="9" style="stroke:#000000;stroke-width:1;"/><path d="M254.8357,31.6406 Q254.2576,31.9375 253.6169,32.0781 Q252.9763,32.2344 252.2732,32.2344 Q249.7732,32.2344 248.4451,30.5938 Q247.1326,28.9375 247.1326,25.8125 Q247.1326,22.6875 248.4451,21.0313 Q249.7732,19.375 252.2732,19.375 Q252.9763,19.375 253.6169,19.5313 Q254.2732,19.6875 254.8357,19.9844 L254.8357,22.7031 Q254.2107,22.125 253.6169,21.8594 Q253.0232,21.5781 252.3982,21.5781 Q251.0544,21.5781 250.3669,22.6563 Q249.6794,23.7188 249.6794,25.8125 Q249.6794,27.9063 250.3669,28.9844 Q251.0544,30.0469 252.3982,30.0469 Q253.0232,30.0469 253.6169,29.7813 Q254.2107,29.5 254.8357,28.9219 L254.8357,31.6406 Z " fill="#000000"/><text fill="#000000" font-family="Verdana" font-size="14" font-weight="bold" lengthAdjust="spacing" textLength="57.6885" x="266.4574" y="30.8467">Vehicle</text><line style="stroke:#000000;stroke-width:1;" x1="228.21" x2="337.8028" y1="40" y2="40"/><text fill="#000000" font-family="Verdana" font-size="14" lengthAdjust="spacing" textLength="96.9814" x="233.21" y="56.9951">-brand: String</text><text fill="#000000" font-family="Verdana" font-size="14" lengthAdjust="spacing" textLength="99.5928" x="233.21" y="73.292">-model: String</text><text fill="#000000" font-family="Verdana" font-size="14" lengthAdjust="spacing" textLength="63.7041" x="233.21" y="89.5889">-year: int</text><line style="stroke:#000000;stroke-width:1;" x1="228.21" x2="337.8028" y1="96.8906" y2="96.8906"/></g><!--class Car--><g class="entity" data-entity="Car" data-source-line="12" data-uid="ent0003" id="entity_Car"><rect fill="#FFFFFF" height="60.2969" rx="2.5" ry="2.5" style="stroke:#000000;stroke-width:1;" width="156.0195" x="12" y="164.89"/><ellipse cx="72.9468" cy="178.89" fill="#FFFFFF" rx="9" ry="9" style="stroke:#000000;stroke-width:1;"/><path d="M75.9155,184.5306 Q75.3374,184.8275 74.6968,184.9681 Q74.0562,185.1244 73.353,185.1244 Q70.853,185.1244 69.5249,183.4838 Q68.2124,181.8275 68.2124,178.7025 Q68.2124,175.5775 69.5249,173.9213 Q70.853,172.265 73.353,172.265 Q74.0562,172.265 74.6968,172.4213 Q75.353,172.5775 75.9155,172.8744 L75.9155,175.5931 Q75.2905,175.015 74.6968,174.7494 Q74.103,174.4681 73.478,174.4681 Q72.1343,174.4681 71.4468,175.5463 Q70.7593,176.6088 70.7593,178.7025 Q70.7593,180.7963 71.4468,181.8744 Q72.1343,182.9369 73.478,182.9369 Q74.103,182.9369 74.6968,182.6713 Q75.2905,182.39 75.9155,181.8119 L75.9155,184.5306 Z " fill="#000000"/><text fill="#000000" font-family="Verdana" font-size="14" font-weight="bold" lengthAdjust="spacing" textLength="26.626" x="90.4468" y="183.7367">Car</text><line style="stroke:#000000;stroke-width:1;" x1="13" x2="167.0195" y1="192.89" y2="192.89"/><text fill="#000000" font-family="Verdana" font-size="14" lengthAdjust="spacing" textLength="144.0195" x="18" y="209.8851">-numberOfDoors: int</text><line style="stroke:#000000;stroke-width:1;" x1="13" x2="167.0195" y1="217.1869" y2="217.1869"/></g><!--class Motorcycle--><g class="entity" data-entity="Motorcycle" data-source-line="16" data-uid="ent0004" id="entity_Motorcycle"><rect fill="#FFFFFF" height="60.2969" rx="2.5" ry="2.5" style="stroke:#000000;stroke-width:1;" width="159.2461" x="203.39" y="164.89"/><ellipse cx="236.3987" cy="178.89" fill="#FFFFFF" rx="9" ry="9" style="stroke:#000000;stroke-width:1;"/><path d="M239.3675,184.5306 Q238.7894,184.8275 238.1487,184.9681 Q237.5081,185.1244 236.805,185.1244 Q234.305,185.1244 232.9769,183.4838 Q231.6644,181.8275 231.6644,178.7025 Q231.6644,175.5775 232.9769,173.9213 Q234.305,172.265 236.805,172.265 Q237.5081,172.265 238.1487,172.4213 Q238.805,172.5775 239.3675,172.8744 L239.3675,175.5931 Q238.7425,175.015 238.1487,174.7494 Q237.555,174.4681 236.93,174.4681 Q235.5862,174.4681 234.8987,175.5463 Q234.2112,176.6088 234.2112,178.7025 Q234.2112,180.7963 234.8987,181.8744 Q235.5862,182.9369 236.93,182.9369 Q237.555,182.9369 238.1487,182.6713 Q238.7425,182.39 239.3675,181.8119 L239.3675,184.5306 Z " fill="#000000"/><text fill="#000000" font-family="Verdana" font-size="14" font-weight="bold" lengthAdjust="spacing" textLength="86.7822" x="252.8451" y="183.7367">Motorcycle</text><line style="stroke:#000000;stroke-width:1;" x1="204.39" x2="361.6361" y1="192.89" y2="192.89"/><text fill="#000000" font-family="Verdana" font-size="14" lengthAdjust="spacing" textLength="147.2461" x="209.39" y="209.8851">-hasSidecar: boolean</text><line style="stroke:#000000;stroke-width:1;" x1="204.39" x2="361.6361" y1="217.1869" y2="217.1869"/></g><!--class Truck--><g class="entity" data-entity="Truck" data-source-line="20" data-uid="ent0005" id="entity_Truck"><rect fill="#FFFFFF" height="60.2969" rx="2.5" ry="2.5" style="stroke:#000000;stroke-width:1;" width="138.2666" x="397.88" y="164.89"/><ellipse cx="441.2482" cy="178.89" fill="#FFFFFF" rx="9" ry="9" style="stroke:#000000;stroke-width:1;"/><path d="M444.2169,184.5306 Q443.6388,184.8275 442.9982,184.9681 Q442.3575,185.1244 441.6544,185.1244 Q439.1544,185.1244 437.8263,183.4838 Q436.5138,181.8275 436.5138,178.7025 Q436.5138,175.5775 437.8263,173.9213 Q439.1544,172.265 441.6544,172.265 Q442.3575,172.265 442.9982,172.4213 Q443.6544,172.5775 444.2169,172.8744 L444.2169,175.5931 Q443.5919,175.015 442.9982,174.7494 Q442.4044,174.4681 441.7794,174.4681 Q440.4357,174.4681 439.7482,175.5463 Q439.0607,176.6088 439.0607,178.7025 Q439.0607,180.7963 439.7482,181.8744 Q440.4357,182.9369 441.7794,182.9369 Q442.4044,182.9369 442.9982,182.6713 Q443.5919,182.39 444.2169,181.8119 L444.2169,184.5306 Z " fill="#000000"/><text fill="#000000" font-family="Verdana" font-size="14" font-weight="bold" lengthAdjust="spacing" textLength="44.0303" x="458.7482" y="183.7367">Truck</text><line style="stroke:#000000;stroke-width:1;" x1="398.88" x2="535.1466" y1="192.89" y2="192.89"/><text fill="#000000" font-family="Verdana" font-size="14" lengthAdjust="spacing" textLength="126.2666" x="403.88" y="209.8851">-maxLoad: double</text><line style="stroke:#000000;stroke-width:1;" x1="398.88" x2="535.1466" y1="217.1869" y2="217.1869"/></g><!--reverse link Vehicle to Car--><g class="link" data-entity-1="Vehicle" data-entity-2="Car" data-source-line="24" data-uid="lnk6" id="link_Vehicle_Car"><path codeLine="24" d="M212.165,108.8554 C182.005,129.8854 160.17,145.11 132.41,164.47" fill="none" id="Vehicle-backto-Car" style="stroke:#000000;stroke-width:1;"/><polygon fill="none" points="226.93,98.56,208.7332,103.9337,215.5968,113.777,226.93,98.56" style="stroke:#000000;stroke-width:1;"/></g><!--reverse link Vehicle to Motorcycle--><g class="link" data-entity-1="Vehicle" data-entity-2="Motorcycle" data-source-line="25" data-uid="lnk7" id="link_Vehicle_Motorcycle"><path codeLine="25" d="M283.01,123.39 C283.01,143.04 283.01,147.4 283.01,164.74" fill="none" id="Vehicle-backto-Motorcycle" style="stroke:#000000;stroke-width:1;"/><polygon fill="none" points="283.01,105.39,277.01,123.39,289.01,123.39,283.01,105.39" style="stroke:#000000;stroke-width:1;"/></g><!--reverse link Vehicle to Truck--><g class="link" data-entity-1="Vehicle" data-entity-2="Truck" data-source-line="26" data-uid="lnk8" id="link_Vehicle_Truck"><path codeLine="26" d="M353.7469,111.1887 C381.9569,131.8287 400.97,145.74 426.61,164.49" fill="none" id="Vehicle-backto-Truck" style="stroke:#000000;stroke-width:1;"/><polygon fill="none" points="339.22,100.56,350.204,116.031,357.2898,106.3464,339.22,100.56" style="stroke:#000000;stroke-width:1;"/></g><!--SRC=[NOxBQiCm44NtynNJ3p1a7Ref2O52InSEtO-aQIqYpOIH374V_nxR91XdUpYSUvzgnvdnd2WAG3b5EPDHHf-eb9TQBRg-ygjNQUCFu-PHEQZKjWw9qMaA03F4J-wY7zal83ReZ2HiiHrZyZsJh87JYWnCjiKe5VxlaHtPBI1zTcmVNtjLAm_MkrOrFonh7PKs1lPJpwac9bdie_N-T1CpNTwKncD1UvTuakw_d_-QPjfVWsLgpUSe05m1]--></g></svg>