<svg xmlns="http://www.w3.org/2000/svg" xmlns:xlink="http://www.w3.org/1999/xlink" contentStyleType="text/css" data-diagram-type="CLASS" height="580px" preserveAspectRatio="none" style="width:1048px;height:580px;background:#FFFFFF;" version="1.1" viewBox="0 0 1048 580" width="1048px" zoomAndPan="magnify"><defs/><g><!--class Vehicle--><g class="entity" data-entity="Vehicle" data-source-line="6" data-uid="ent0002" id="entity_Vehicle"><rect fill="#FFFFFF" height="255.8594" rx="2.5" ry="2.5" style="stroke:#000000;stroke-width:1;" width="348.7314" x="328.41" y="132.3"/><ellipse cx="470.1815" cy="146.3" fill="#FFFFFF" rx="9" ry="9" style="stroke:#000000;stroke-width:1;"/><path d="M470.2909,141.6438 L469.1346,146.7219 L471.4627,146.7219 L470.2909,141.6438 Z M468.8065,139.4094 L471.7909,139.4094 L475.1502,151.8 L472.6971,151.8 L471.9315,148.7375 L468.6502,148.7375 L467.9002,151.8 L465.4627,151.8 L468.8065,139.4094 Z " fill="#000000"/><text fill="#000000" font-family="Verdana" font-size="14" font-style="italic" font-weight="bold" lengthAdjust="spacing" textLength="57.6885" x="487.6815" y="151.1467">Vehicle</text><line style="stroke:#000000;stroke-width:1;" x1="329.41" x2="676.1414" y1="160.3" y2="160.3"/><text fill="#000000" font-family="Verdana" font-size="14" lengthAdjust="spacing" textLength="103.6602" x="334.41" y="177.2951">#brand: String</text><text fill="#000000" font-family="Verdana" font-size="14" lengthAdjust="spacing" textLength="106.2715" x="334.41" y="193.592">#model: String</text><text fill="#000000" font-family="Verdana" font-size="14" lengthAdjust="spacing" textLength="70.3828" x="334.41" y="209.8889">#year: int</text><text fill="#000000" font-family="Verdana" font-size="14" lengthAdjust="spacing" textLength="132.1182" x="334.41" y="226.1857">#fuelLevel: double</text><line style="stroke:#000000;stroke-width:1;" x1="329.41" x2="676.1414" y1="233.4875" y2="233.4875"/><text fill="#000000" font-family="Verdana" font-size="14" lengthAdjust="spacing" textLength="336.7314" x="334.41" y="250.4826">+Vehicle(brand: String, model: String, year: int)</text><text fill="#000000" font-family="Verdana" font-size="14" lengthAdjust="spacing" textLength="138.291" x="334.41" y="266.7795">+getBrand(): String</text><text fill="#000000" font-family="Verdana" font-size="14" lengthAdjust="spacing" textLength="138.626" x="334.41" y="283.0764">+getModel(): String</text><text fill="#000000" font-family="Verdana" font-size="14" lengthAdjust="spacing" textLength="104.5625" x="334.41" y="299.3732">+getYear(): int</text><text fill="#000000" font-family="Verdana" font-size="14" lengthAdjust="spacing" textLength="169.1553" x="334.41" y="315.6701">+getFuelLevel(): double</text><text fill="#000000" font-family="Verdana" font-size="14" lengthAdjust="spacing" textLength="269.8623" x="334.41" y="331.967">+setFuelLevel(fuelLevel: double): void</text><text fill="#000000" font-family="Verdana" font-size="14" lengthAdjust="spacing" textLength="213.0215" x="334.41" y="348.2639">+refuel(amount: double): void</text><text fill="#000000" font-family="Verdana" font-size="14" font-style="italic" lengthAdjust="spacing" textLength="94.0557" x="334.41" y="364.5607">+start(): void</text><text fill="#000000" font-family="Verdana" font-size="14" font-style="italic" lengthAdjust="spacing" textLength="182.082" x="334.41" y="380.8576">+getVehicleType(): String</text></g><!--class Car--><g class="entity" data-entity="Car" data-source-line="23" data-uid="ent0003" id="entity_Car"><rect fill="#FFFFFF" height="125.4844" rx="2.5" ry="2.5" style="stroke:#000000;stroke-width:1;" width="469.5566" x="12" y="448.16"/><ellipse cx="229.7153" cy="462.16" fill="#FFFFFF" rx="9" ry="9" style="stroke:#000000;stroke-width:1;"/><path d="M232.6841,467.8006 Q232.106,468.0975 231.4653,468.2381 Q230.8247,468.3944 230.1216,468.3944 Q227.6216,468.3944 226.2935,466.7537 Q224.981,465.0975 224.981,461.9725 Q224.981,458.8475 226.2935,457.1912 Q227.6216,455.535 230.1216,455.535 Q230.8247,455.535 231.4653,455.6912 Q232.1216,455.8475 232.6841,456.1444 L232.6841,458.8631 Q232.0591,458.285 231.4653,458.0194 Q230.8716,457.7381 230.2466,457.7381 Q228.9028,457.7381 228.2153,458.8162 Q227.5278,459.8787 227.5278,461.9725 Q227.5278,464.0662 228.2153,465.1444 Q228.9028,466.2069 230.2466,466.2069 Q230.8716,466.2069 231.4653,465.9412 Q232.0591,465.66 232.6841,465.0819 L232.6841,467.8006 Z " fill="#000000"/><text fill="#000000" font-family="Verdana" font-size="14" font-weight="bold" lengthAdjust="spacing" textLength="26.626" x="247.2153" y="467.0067">Car</text><line style="stroke:#000000;stroke-width:1;" x1="13" x2="480.5566" y1="476.16" y2="476.16"/><text fill="#000000" font-family="Verdana" font-size="14" lengthAdjust="spacing" textLength="144.0195" x="18" y="493.1551">-numberOfDoors: int</text><line style="stroke:#000000;stroke-width:1;" x1="13" x2="480.5566" y1="500.4569" y2="500.4569"/><text fill="#000000" font-family="Verdana" font-size="14" lengthAdjust="spacing" textLength="457.5566" x="18" y="517.452">+Car(brand: String, model: String, year: int, numberOfDoors: int)</text><text fill="#000000" font-family="Verdana" font-size="14" lengthAdjust="spacing" textLength="186.2109" x="18" y="533.7489">+getNumberOfDoors(): int</text><text fill="#000000" font-family="Verdana" font-size="14" lengthAdjust="spacing" textLength="94.0557" x="18" y="550.0457">+start(): void</text><text fill="#000000" font-family="Verdana" font-size="14" lengthAdjust="spacing" textLength="182.082" x="18" y="566.3426">+getVehicleType(): String</text></g><!--class Motorcycle--><g class="entity" data-entity="Motorcycle" data-source-line="32" data-uid="ent0004" id="entity_Motorcycle"><rect fill="#FFFFFF" height="125.4844" rx="2.5" ry="2.5" style="stroke:#000000;stroke-width:1;" width="525.3105" x="516.12" y="448.16"/><ellipse cx="731.6342" cy="462.16" fill="#FFFFFF" rx="9" ry="9" style="stroke:#000000;stroke-width:1;"/><path d="M734.6029,467.8006 Q734.0248,468.0975 733.3842,468.2381 Q732.7435,468.3944 732.0404,468.3944 Q729.5404,468.3944 728.2123,466.7537 Q726.8998,465.0975 726.8998,461.9725 Q726.8998,458.8475 728.2123,457.1912 Q729.5404,455.535 732.0404,455.535 Q732.7435,455.535 733.3842,455.6912 Q734.0404,455.8475 734.6029,456.1444 L734.6029,458.8631 Q733.9779,458.285 733.3842,458.0194 Q732.7904,457.7381 732.1654,457.7381 Q730.8217,457.7381 730.1342,458.8162 Q729.4467,459.8787 729.4467,461.9725 Q729.4467,464.0662 730.1342,465.1444 Q730.8217,466.2069 732.1654,466.2069 Q732.7904,466.2069 733.3842,465.9412 Q733.9779,465.66 734.6029,465.0819 L734.6029,467.8006 Z " fill="#000000"/><text fill="#000000" font-family="Verdana" font-size="14" font-weight="bold" lengthAdjust="spacing" textLength="86.7822" x="749.1342" y="467.0067">Motorcycle</text><line style="stroke:#000000;stroke-width:1;" x1="517.12" x2="1040.4305" y1="476.16" y2="476.16"/><text fill="#000000" font-family="Verdana" font-size="14" lengthAdjust="spacing" textLength="199.6709" x="522.12" y="493.1551">-hasSidecar: boolean {final}</text><line style="stroke:#000000;stroke-width:1;" x1="517.12" x2="1040.4305" y1="500.4569" y2="500.4569"/><text fill="#000000" font-family="Verdana" font-size="14" lengthAdjust="spacing" textLength="513.3105" x="522.12" y="517.452">+Motorcycle(brand: String, model: String, year: int, hasSidecar: boolean)</text><text fill="#000000" font-family="Verdana" font-size="14" lengthAdjust="spacing" textLength="164.8486" x="522.12" y="533.7489">+hasSidecar(): boolean</text><text fill="#000000" font-family="Verdana" font-size="14" lengthAdjust="spacing" textLength="94.0557" x="522.12" y="550.0457">+start(): void</text><text fill="#000000" font-family="Verdana" font-size="14" lengthAdjust="spacing" textLength="182.082" x="522.12" y="566.3426">+getVehicleType(): String</text></g><!--class VehicleDemo--><g class="entity" data-entity="VehicleDemo" data-source-line="41" data-uid="ent0005" id="entity_VehicleDemo"><rect fill="#FFFFFF" height="60.2969" rx="2.5" ry="2.5" style="stroke:#000000;stroke-width:1;" width="200.8154" x="402.37" y="12"/><ellipse cx="447.5223" cy="26" fill="#FFFFFF" rx="9" ry="9" style="stroke:#000000;stroke-width:1;"/><path d="M450.4911,31.6406 Q449.913,31.9375 449.2723,32.0781 Q448.6317,32.2344 447.9286,32.2344 Q445.4286,32.2344 444.1005,30.5938 Q442.788,28.9375 442.788,25.8125 Q442.788,22.6875 444.1005,21.0313 Q445.4286,19.375 447.9286,19.375 Q448.6317,19.375 449.2723,19.5313 Q449.9286,19.6875 450.4911,19.9844 L450.4911,22.7031 Q449.8661,22.125 449.2723,21.8594 Q448.6786,21.5781 448.0536,21.5781 Q446.7098,21.5781 446.0223,22.6563 Q445.3348,23.7188 445.3348,25.8125 Q445.3348,27.9063 446.0223,28.9844 Q446.7098,30.0469 448.0536,30.0469 Q448.6786,30.0469 449.2723,29.7813 Q449.8661,29.5 450.4911,28.9219 L450.4911,31.6406 Z " fill="#000000"/><text fill="#000000" font-family="Verdana" font-size="14" font-weight="bold" lengthAdjust="spacing" textLength="103.0107" x="465.0223" y="30.8467">VehicleDemo</text><line style="stroke:#000000;stroke-width:1;" x1="403.37" x2="602.1854" y1="40" y2="40"/><line style="stroke:#000000;stroke-width:1;" x1="403.37" x2="602.1854" y1="48" y2="48"/><text fill="#000000" font-family="Verdana" font-size="14" lengthAdjust="spacing" text-decoration="underline" textLength="188.8154" x="408.37" y="64.9951">+main(args: String[]): void</text></g><!--reverse link Vehicle to Car--><g class="link" data-entity-1="Vehicle" data-entity-2="Car" data-source-line="45" data-uid="lnk6" id="link_Vehicle_Car"><path codeLine="45" d="M358.8684,401.0215 C337.5884,421.6915 329.33,429.71 310.62,447.88" fill="none" id="Vehicle-backto-Car" style="stroke:#000000;stroke-width:1;"/><polygon fill="none" points="371.78,388.48,354.6879,396.7176,363.0489,405.3254,371.78,388.48" style="stroke:#000000;stroke-width:1;"/></g><!--reverse link Vehicle to Motorcycle--><g class="link" data-entity-1="Vehicle" data-entity-2="Motorcycle" data-source-line="46" data-uid="lnk7" id="link_Vehicle_Motorcycle"><path codeLine="46" d="M657.3849,400.5262 C680.3349,421.1962 689.78,429.71 709.95,447.88" fill="none" id="Vehicle-backto-Motorcycle" style="stroke:#000000;stroke-width:1;"/><polygon fill="none" points="644.01,388.48,653.3695,404.9845,661.4003,396.0679,644.01,388.48" style="stroke:#000000;stroke-width:1;"/></g><!--link VehicleDemo to Vehicle--><g class="link" data-entity-1="VehicleDemo" data-entity-2="Vehicle" data-source-line="47" data-uid="lnk8" id="link_VehicleDemo_Vehicle"><path codeLine="47" d="M502.78,72.74 C502.78,88.81 502.78,103.89 502.78,126.09" fill="none" id="VehicleDemo-to-Vehicle" style="stroke:#000000;stroke-width:1;stroke-dasharray:7,7;"/><polygon fill="#000000" points="502.78,132.09,506.78,123.09,502.78,127.09,498.78,123.09,502.78,132.09" style="stroke:#000000;stroke-width:1;"/></g><!--link VehicleDemo to Car--><g class="link" data-entity-1="VehicleDemo" data-entity-2="Car" data-source-line="48" data-uid="lnk9" id="link_VehicleDemo_Car"><path codeLine="48" d="M401.87,69.07 C368.11,82.59 333.36,102.72 310.78,132.3 C240.28,224.65 235.8656,360.8793 240.3856,441.8493" fill="none" id="VehicleDemo-to-Car" style="stroke:#000000;stroke-width:1;stroke-dasharray:7,7;"/><polygon fill="#000000" points="240.72,447.84,244.2122,438.631,240.4413,442.8478,236.2246,439.0769,240.72,447.84" style="stroke:#000000;stroke-width:1;"/></g><!--link VehicleDemo to Motorcycle--><g class="link" data-entity-1="VehicleDemo" data-entity-2="Motorcycle" data-source-line="49" data-uid="lnk10" id="link_VehicleDemo_Motorcycle"><path codeLine="49" d="M603.61,70.01 C637.06,83.6 671.63,103.52 694.78,132.3 C768.45,223.87 780.6241,360.7001 780.9741,441.9101" fill="none" id="VehicleDemo-to-Motorcycle" style="stroke:#000000;stroke-width:1;stroke-dasharray:7,7;"/><polygon fill="#000000" points="781,447.91,784.9612,438.8928,780.9785,442.91,776.9612,438.9273,781,447.91" style="stroke:#000000;stroke-width:1;"/></g><!--SRC=[dLFHIiCm57tFLrpnfSDr-3n4KCT0SFfG4KHyIDkxBPWc8qa7TVRVJTfbJUt4uKkXvznxSiv9UsRMM21iE6M24Ft1n8OgMa36gTOtnYYMbWRlCoaIzebm-NDaBeL9JCKHKibpGcYgZQAPQLbumJNBBBaZ0EUGAYhoAIHMLQmQf90vyXvI8LLJOC8qRyiI-GDktKmkovIZHUFOFYwyTDGJ7VSLnvtSg5bQeRbryz4eEBI15svl2B_QVOUsXXfexZqv_E3g0dH83OpRsQraUJEfqD4HBMGfpB61dQ-n1cseCj4lf7Mph-6vsc3WlYQalO0xgfhoOn1baQ9wMiwaLDe7sdTffqxjSNn4wD3jOqY5jGrJ_6rz8OrKMUK_dnZML2SinymvIQNaI0NibanGNdTHkgtJ4nqHRYDrX3Euf_uTQ4_Fi91D8dkLLiQmh8R2_duHLIljjzxUlRPTzt_HrLSSkxlg0rrY4fumcLpx4mTue7700Xb2lW40]--></g></svg>