<svg xmlns="http://www.w3.org/2000/svg" xmlns:xlink="http://www.w3.org/1999/xlink" contentStyleType="text/css" data-diagram-type="CLASS" height="297px" preserveAspectRatio="none" style="width:369px;height:297px;background:#FFFFFF;" version="1.1" viewBox="0 0 369 297" width="369px" zoomAndPan="magnify"><defs/><g><!--class Car--><g class="entity" data-entity="Car" data-source-line="6" data-uid="ent0002" id="entity_Car"><rect fill="#FFFFFF" height="109.1875" rx="2.5" ry="2.5" style="stroke:#000000;stroke-width:1;" width="156.0195" x="12" y="12"/><ellipse cx="72.9468" cy="26" fill="#FFFFFF" rx="9" ry="9" style="stroke:#000000;stroke-width:1;"/><path d="M75.9155,31.6406 Q75.3374,31.9375 74.6968,32.0781 Q74.0562,32.2344 73.353,32.2344 Q70.853,32.2344 69.5249,30.5938 Q68.2124,28.9375 68.2124,25.8125 Q68.2124,22.6875 69.5249,21.0313 Q70.853,19.375 73.353,19.375 Q74.0562,19.375 74.6968,19.5313 Q75.353,19.6875 75.9155,19.9844 L75.9155,22.7031 Q75.2905,22.125 74.6968,21.8594 Q74.103,21.5781 73.478,21.5781 Q72.1343,21.5781 71.4468,22.6563 Q70.7593,23.7188 70.7593,25.8125 Q70.7593,27.9063 71.4468,28.9844 Q72.1343,30.0469 73.478,30.0469 Q74.103,30.0469 74.6968,29.7813 Q75.2905,29.5 75.9155,28.9219 L75.9155,31.6406 Z " fill="#000000"/><text fill="#000000" font-family="Verdana" font-size="14" font-weight="bold" lengthAdjust="spacing" textLength="26.626" x="90.4468" y="30.8467">Car</text><line style="stroke:#000000;stroke-width:1;" x1="13" x2="167.0195" y1="40" y2="40"/><text fill="#000000" font-family="Verdana" font-size="14" lengthAdjust="spacing" textLength="96.9814" x="18" y="56.9951">-brand: String</text><text fill="#000000" font-family="Verdana" font-size="14" lengthAdjust="spacing" textLength="99.5928" x="18" y="73.292">-model: String</text><text fill="#000000" font-family="Verdana" font-size="14" lengthAdjust="spacing" textLength="63.7041" x="18" y="89.5889">-year: int</text><text fill="#000000" font-family="Verdana" font-size="14" lengthAdjust="spacing" textLength="144.0195" x="18" y="105.8857">-numberOfDoors: int</text><line style="stroke:#000000;stroke-width:1;" x1="13" x2="167.0195" y1="113.1875" y2="113.1875"/></g><!--class Motorcycle--><g class="entity" data-entity="Motorcycle" data-source-line="13" data-uid="ent0003" id="entity_Motorcycle"><rect fill="#FFFFFF" height="109.1875" rx="2.5" ry="2.5" style="stroke:#000000;stroke-width:1;" width="159.2461" x="203.39" y="12"/><ellipse cx="236.3987" cy="26" fill="#FFFFFF" rx="9" ry="9" style="stroke:#000000;stroke-width:1;"/><path d="M239.3675,31.6406 Q238.7894,31.9375 238.1487,32.0781 Q237.5081,32.2344 236.805,32.2344 Q234.305,32.2344 232.9769,30.5938 Q231.6644,28.9375 231.6644,25.8125 Q231.6644,22.6875 232.9769,21.0313 Q234.305,19.375 236.805,19.375 Q237.5081,19.375 238.1487,19.5313 Q238.805,19.6875 239.3675,19.9844 L239.3675,22.7031 Q238.7425,22.125 238.1487,21.8594 Q237.555,21.5781 236.93,21.5781 Q235.5862,21.5781 234.8987,22.6563 Q234.2112,23.7188 234.2112,25.8125 Q234.2112,27.9063 234.8987,28.9844 Q235.5862,30.0469 236.93,30.0469 Q237.555,30.0469 238.1487,29.7813 Q238.7425,29.5 239.3675,28.9219 L239.3675,31.6406 Z " fill="#000000"/><text fill="#000000" font-family="Verdana" font-size="14" font-weight="bold" lengthAdjust="spacing" textLength="86.7822" x="252.8451" y="30.8467">Motorcycle</text><line style="stroke:#000000;stroke-width:1;" x1="204.39" x2="361.6361" y1="40" y2="40"/><text fill="#000000" font-family="Verdana" font-size="14" lengthAdjust="spacing" textLength="96.9814" x="209.39" y="56.9951">-brand: String</text><text fill="#000000" font-family="Verdana" font-size="14" lengthAdjust="spacing" textLength="99.5928" x="209.39" y="73.292">-model: String</text><text fill="#000000" font-family="Verdana" font-size="14" lengthAdjust="spacing" textLength="63.7041" x="209.39" y="89.5889">-year: int</text><text fill="#000000" font-family="Verdana" font-size="14" lengthAdjust="spacing" textLength="147.2461" x="209.39" y="105.8857">-hasSidecar: boolean</text><line style="stroke:#000000;stroke-width:1;" x1="204.39" x2="361.6361" y1="113.1875" y2="113.1875"/></g><!--class Truck--><g class="entity" data-entity="Truck" data-source-line="20" data-uid="ent0004" id="entity_Truck"><rect fill="#FFFFFF" height="109.1875" rx="2.5" ry="2.5" style="stroke:#000000;stroke-width:1;" width="138.2666" x="20.88" y="181.18"/><ellipse cx="64.2482" cy="195.18" fill="#FFFFFF" rx="9" ry="9" style="stroke:#000000;stroke-width:1;"/><path d="M67.2169,200.8206 Q66.6388,201.1175 65.9982,201.2581 Q65.3575,201.4144 64.6544,201.4144 Q62.1544,201.4144 60.8263,199.7738 Q59.5138,198.1175 59.5138,194.9925 Q59.5138,191.8675 60.8263,190.2113 Q62.1544,188.555 64.6544,188.555 Q65.3575,188.555 65.9982,188.7113 Q66.6544,188.8675 67.2169,189.1644 L67.2169,191.8831 Q66.5919,191.305 65.9982,191.0394 Q65.4044,190.7581 64.7794,190.7581 Q63.4357,190.7581 62.7482,191.8363 Q62.0607,192.8988 62.0607,194.9925 Q62.0607,197.0863 62.7482,198.1644 Q63.4357,199.2269 64.7794,199.2269 Q65.4044,199.2269 65.9982,198.9613 Q66.5919,198.68 67.2169,198.1019 L67.2169,200.8206 Z " fill="#000000"/><text fill="#000000" font-family="Verdana" font-size="14" font-weight="bold" lengthAdjust="spacing" textLength="44.0303" x="81.7482" y="200.0267">Truck</text><line style="stroke:#000000;stroke-width:1;" x1="21.88" x2="158.1466" y1="209.18" y2="209.18"/><text fill="#000000" font-family="Verdana" font-size="14" lengthAdjust="spacing" textLength="96.9814" x="26.88" y="226.1751">-brand: String</text><text fill="#000000" font-family="Verdana" font-size="14" lengthAdjust="spacing" textLength="99.5928" x="26.88" y="242.472">-model: String</text><text fill="#000000" font-family="Verdana" font-size="14" lengthAdjust="spacing" textLength="63.7041" x="26.88" y="258.7689">-year: int</text><text fill="#000000" font-family="Verdana" font-size="14" lengthAdjust="spacing" textLength="126.2666" x="26.88" y="275.0657">-maxLoad: double</text><line style="stroke:#000000;stroke-width:1;" x1="21.88" x2="158.1466" y1="282.3675" y2="282.3675"/></g><!--SRC=[dSt12i8m383XUvyYFe3WUJTH147nC5yWRQChjib8Et2Ax-us4T6Zn_maNsQbeKJGHWniJBu4Rb4nWOkOyx8K3ROhj7N2TRWHB7vNDiAbBdqai1AzCLE45IhS3S0Sh2Bx2ke1ulDKadYANwKdr0e2bsdYBbdImsajelcL7sztBqNKzMvuzo_VOAw39pSsAn89-UCVjNENl-c4rvtWSEEbiv56rZm1]--></g></svg>