<svg xmlns="http://www.w3.org/2000/svg" xmlns:xlink="http://www.w3.org/1999/xlink" contentStyleType="text/css" data-diagram-type="CLASS" height="232px" preserveAspectRatio="none" style="width:564px;height:232px;background:#FFFFFF;" version="1.1" viewBox="0 0 564 232" width="564px" zoomAndPan="magnify"><defs/><g><!--class Vehicle--><g class="entity" data-entity="Vehicle" data-source-line="3" data-uid="ent0002" id="entity_Vehicle"><rect fill="#FFFFFF" height="92.8906" rx="2.5" ry="2.5" style="stroke:#000000;stroke-width:1;" width="118.541" x="234.21" y="12"/><ellipse cx="264.9345" cy="26" fill="#FFFFFF" rx="9" ry="9" style="stroke:#000000;stroke-width:1;"/><path d="M267.9032,31.6406 Q267.3251,31.9375 266.6845,32.0781 Q266.0438,32.2344 265.3407,32.2344 Q262.8407,32.2344 261.5126,30.5938 Q260.2001,28.9375 260.2001,25.8125 Q260.2001,22.6875 261.5126,21.0313 Q262.8407,19.375 265.3407,19.375 Q266.0438,19.375 266.6845,19.5313 Q267.3407,19.6875 267.9032,19.9844 L267.9032,22.7031 Q267.2782,22.125 266.6845,21.8594 Q266.0907,21.5781 265.4657,21.5781 Q264.122,21.5781 263.4345,22.6563 Q262.747,23.7188 262.747,25.8125 Q262.747,27.9063 263.4345,28.9844 Q264.122,30.0469 265.4657,30.0469 Q266.0907,30.0469 266.6845,29.7813 Q267.2782,29.5 267.9032,28.9219 L267.9032,31.6406 Z " fill="#000000"/><text fill="#000000" font-family="Verdana" font-size="14" lengthAdjust="spacing" textLength="51.1533" x="280.8732" y="30.8467">Vehicle</text><line style="stroke:#000000;stroke-width:1;" x1="235.21" x2="351.751" y1="40" y2="40"/><rect fill="none" height="6" style="stroke:#000000;stroke-width:1;" width="6" x="242.21" y="50.6484"/><text fill="#000000" font-family="Verdana" font-size="14" lengthAdjust="spacing" textLength="91.9297" x="252.21" y="56.9951">brand: String</text><rect fill="none" height="6" style="stroke:#000000;stroke-width:1;" width="6" x="242.21" y="66.9453"/><text fill="#000000" font-family="Verdana" font-size="14" lengthAdjust="spacing" textLength="94.541" x="252.21" y="73.292">model: String</text><rect fill="none" height="6" style="stroke:#000000;stroke-width:1;" width="6" x="242.21" y="83.2422"/><text fill="#000000" font-family="Verdana" font-size="14" lengthAdjust="spacing" textLength="58.6523" x="252.21" y="89.5889">year: int</text><line style="stroke:#000000;stroke-width:1;" x1="235.21" x2="351.751" y1="96.8906" y2="96.8906"/></g><!--class Car--><g class="entity" data-entity="Car" data-source-line="9" data-uid="ent0003" id="entity_Car"><rect fill="#FFFFFF" height="60.2969" rx="2.5" ry="2.5" style="stroke:#000000;stroke-width:1;" width="162.9678" x="12" y="164.89"/><ellipse cx="77.6787" cy="178.89" fill="#FFFFFF" rx="9" ry="9" style="stroke:#000000;stroke-width:1;"/><path d="M80.6475,184.5306 Q80.0693,184.8275 79.4287,184.9681 Q78.7881,185.1244 78.085,185.1244 Q75.585,185.1244 74.2568,183.4838 Q72.9443,181.8275 72.9443,178.7025 Q72.9443,175.5775 74.2568,173.9213 Q75.585,172.265 78.085,172.265 Q78.7881,172.265 79.4287,172.4213 Q80.085,172.5775 80.6475,172.8744 L80.6475,175.5931 Q80.0225,175.015 79.4287,174.7494 Q78.835,174.4681 78.21,174.4681 Q76.8662,174.4681 76.1787,175.5463 Q75.4912,176.6088 75.4912,178.7025 Q75.4912,180.7963 76.1787,181.8744 Q76.8662,182.9369 78.21,182.9369 Q78.835,182.9369 79.4287,182.6713 Q80.0225,182.39 80.6475,181.8119 L80.6475,184.5306 Z " fill="#000000"/><text fill="#000000" font-family="Verdana" font-size="14" lengthAdjust="spacing" textLength="24.1104" x="95.1787" y="183.7367">Car</text><line style="stroke:#000000;stroke-width:1;" x1="13" x2="173.9678" y1="192.89" y2="192.89"/><rect fill="none" height="6" style="stroke:#000000;stroke-width:1;" width="6" x="20" y="203.5384"/><text fill="#000000" font-family="Verdana" font-size="14" lengthAdjust="spacing" textLength="138.9678" x="30" y="209.8851">numberOfDoors: int</text><line style="stroke:#000000;stroke-width:1;" x1="13" x2="173.9678" y1="217.1869" y2="217.1869"/></g><!--class Motorcycle--><g class="entity" data-entity="Motorcycle" data-source-line="13" data-uid="ent0004" id="entity_Motorcycle"><rect fill="#FFFFFF" height="60.2969" rx="2.5" ry="2.5" style="stroke:#000000;stroke-width:1;" width="166.1943" x="210.39" y="164.89"/><ellipse cx="251.4183" cy="178.89" fill="#FFFFFF" rx="9" ry="9" style="stroke:#000000;stroke-width:1;"/><path d="M254.3871,184.5306 Q253.8089,184.8275 253.1683,184.9681 Q252.5277,185.1244 251.8246,185.1244 Q249.3246,185.1244 247.9964,183.4838 Q246.6839,181.8275 246.6839,178.7025 Q246.6839,175.5775 247.9964,173.9213 Q249.3246,172.265 251.8246,172.265 Q252.5277,172.265 253.1683,172.4213 Q253.8246,172.5775 254.3871,172.8744 L254.3871,175.5931 Q253.7621,175.015 253.1683,174.7494 Q252.5746,174.4681 251.9496,174.4681 Q250.6058,174.4681 249.9183,175.5463 Q249.2308,176.6088 249.2308,178.7025 Q249.2308,180.7963 249.9183,181.8744 Q250.6058,182.9369 251.9496,182.9369 Q252.5746,182.9369 253.1683,182.6713 Q253.7621,182.39 254.3871,181.8119 L254.3871,184.5306 Z " fill="#000000"/><text fill="#000000" font-family="Verdana" font-size="14" lengthAdjust="spacing" textLength="76.6377" x="268.9183" y="183.7367">Motorcycle</text><line style="stroke:#000000;stroke-width:1;" x1="211.39" x2="375.5843" y1="192.89" y2="192.89"/><rect fill="none" height="6" style="stroke:#000000;stroke-width:1;" width="6" x="218.39" y="203.5384"/><text fill="#000000" font-family="Verdana" font-size="14" lengthAdjust="spacing" textLength="142.1943" x="228.39" y="209.8851">hasSidecar: boolean</text><line style="stroke:#000000;stroke-width:1;" x1="211.39" x2="375.5843" y1="217.1869" y2="217.1869"/></g><!--class Truck--><g class="entity" data-entity="Truck" data-source-line="17" data-uid="ent0005" id="entity_Truck"><rect fill="#FFFFFF" height="60.2969" rx="2.5" ry="2.5" style="stroke:#000000;stroke-width:1;" width="145.2148" x="411.88" y="164.89"/><ellipse cx="461.2447" cy="178.89" fill="#FFFFFF" rx="9" ry="9" style="stroke:#000000;stroke-width:1;"/><path d="M464.2135,184.5306 Q463.6354,184.8275 462.9947,184.9681 Q462.3541,185.1244 461.651,185.1244 Q459.151,185.1244 457.8229,183.4838 Q456.5104,181.8275 456.5104,178.7025 Q456.5104,175.5775 457.8229,173.9213 Q459.151,172.265 461.651,172.265 Q462.3541,172.265 462.9947,172.4213 Q463.651,172.5775 464.2135,172.8744 L464.2135,175.5931 Q463.5885,175.015 462.9947,174.7494 Q462.401,174.4681 461.776,174.4681 Q460.4322,174.4681 459.7447,175.5463 Q459.0572,176.6088 459.0572,178.7025 Q459.0572,180.7963 459.7447,181.8744 Q460.4322,182.9369 461.776,182.9369 Q462.401,182.9369 462.9947,182.6713 Q463.5885,182.39 464.2135,181.8119 L464.2135,184.5306 Z " fill="#000000"/><text fill="#000000" font-family="Verdana" font-size="14" lengthAdjust="spacing" textLength="38.9854" x="478.7447" y="183.7367">Truck</text><line style="stroke:#000000;stroke-width:1;" x1="412.88" x2="556.0948" y1="192.89" y2="192.89"/><rect fill="none" height="6" style="stroke:#000000;stroke-width:1;" width="6" x="419.88" y="203.5384"/><text fill="#000000" font-family="Verdana" font-size="14" lengthAdjust="spacing" textLength="121.2148" x="429.88" y="209.8851">maxLoad: double</text><line style="stroke:#000000;stroke-width:1;" x1="412.88" x2="556.0948" y1="217.1869" y2="217.1869"/></g><!--reverse link Vehicle to Car--><g class="link" data-entity-1="Vehicle" data-entity-2="Car" data-source-line="21" data-uid="lnk6" id="link_Vehicle_Car"><path codeLine="21" d="M218.8178,109.7013 C187.8578,130.5413 165.64,145.48 137.35,164.52" fill="none" id="Vehicle-backto-Car" style="stroke:#000000;stroke-width:1;"/><polygon fill="none" points="233.75,99.65,215.4673,104.7239,222.1682,114.6787,233.75,99.65" style="stroke:#000000;stroke-width:1;"/></g><!--reverse link Vehicle to Motorcycle--><g class="link" data-entity-1="Vehicle" data-entity-2="Motorcycle" data-source-line="22" data-uid="lnk7" id="link_Vehicle_Motorcycle"><path codeLine="22" d="M293.48,123.39 C293.48,143.04 293.48,147.4 293.48,164.74" fill="none" id="Vehicle-backto-Motorcycle" style="stroke:#000000;stroke-width:1;"/><polygon fill="none" points="293.48,105.39,287.48,123.39,299.48,123.39,293.48,105.39" style="stroke:#000000;stroke-width:1;"/></g><!--reverse link Vehicle to Truck--><g class="link" data-entity-1="Vehicle" data-entity-2="Truck" data-source-line="23" data-uid="lnk8" id="link_Vehicle_Truck"><path codeLine="23" d="M367.8444,111.8475 C396.8544,132.2875 416.31,146 442.52,164.47" fill="none" id="Vehicle-backto-Truck" style="stroke:#000000;stroke-width:1;"/><polygon fill="none" points="353.13,101.48,364.3886,116.7524,371.3003,106.9427,353.13,101.48" style="stroke:#000000;stroke-width:1;"/></g><!--SRC=[NOv12i8m44NtESLuW5oWkDEbugBYVfACDfXaP9A2HRsxjhIKk7qytl-Rqb4aU0JqIIaRC6UuKETj87Wf00r6CBa6sY8-tIOIsL6eo40e3VXKr6U9x53cGEgZ8JbTzyoI_wmZ5nOxh6iTvjOxicFFC0V2jDfdwUrz5YC-3uo_Ouvx4sYKbj_RjzRZVWtMgPfFKVK5]--></g></svg>