<svg xmlns="http://www.w3.org/2000/svg" xmlns:xlink="http://www.w3.org/1999/xlink" contentStyleType="text/css" data-diagram-type="CLASS" height="1276px" preserveAspectRatio="none" style="width:3066px;height:1276px;background:#FFFFFF;" version="1.1" viewBox="0 0 3066 1276" width="3066px" zoomAndPan="magnify"><defs/><g><!--class Harvestable--><g class="entity" data-entity="Harvestable" data-source-line="7" data-uid="ent0002" id="entity_Harvestable"><rect fill="#FFFFFF" height="88.8594" rx="2.5" ry="2.5" style="stroke:#000000;stroke-width:1;" width="226.7305" x="360.24" y="1180.76"/><ellipse cx="422.1165" cy="1200.8928" fill="#FFFFFF" rx="9" ry="9" style="stroke:#000000;stroke-width:1;"/><path d="M418.0383,1196.6584 L418.0383,1194.5022 L425.429,1194.5022 L425.429,1196.6584 L422.9602,1196.6584 L422.9602,1204.7366 L425.429,1204.7366 L425.429,1206.8928 L418.0383,1206.8928 L418.0383,1204.7366 L420.5071,1204.7366 L420.5071,1196.6584 L418.0383,1196.6584 Z " fill="#000000"/><text fill="#000000" font-family="Verdana" font-size="12" font-style="italic" lengthAdjust="spacing" textLength="68.332" x="453.1892" y="1196.8987">&#171;interface&#187;</text><text fill="#000000" font-family="Verdana" font-size="14" font-style="italic" font-weight="bold" lengthAdjust="spacing" textLength="95.4775" x="439.6165" y="1212.7239">Harvestable</text><line style="stroke:#000000;stroke-width:1;" x1="361.24" x2="585.9705" y1="1221.0256" y2="1221.0256"/><line style="stroke:#000000;stroke-width:1;" x1="361.24" x2="585.9705" y1="1229.0256" y2="1229.0256"/><text fill="#000000" font-family="Verdana" font-size="14" lengthAdjust="spacing" textLength="132.4258" x="366.24" y="1246.0207">+harvest(): double</text><text fill="#000000" font-family="Verdana" font-size="14" lengthAdjust="spacing" textLength="214.7305" x="366.24" y="1262.3176">+isReadyToHarvest(): boolean</text></g><!--class Waterable--><g class="entity" data-entity="Waterable" data-source-line="12" data-uid="ent0003" id="entity_Waterable"><rect fill="#FFFFFF" height="88.8594" rx="2.5" ry="2.5" style="stroke:#000000;stroke-width:1;" width="262.6738" x="930.27" y="1180.76"/><ellipse cx="1016.9848" cy="1200.8928" fill="#FFFFFF" rx="9" ry="9" style="stroke:#000000;stroke-width:1;"/><path d="M1012.9067,1196.6584 L1012.9067,1194.5022 L1020.2973,1194.5022 L1020.2973,1196.6584 L1017.8286,1196.6584 L1017.8286,1204.7366 L1020.2973,1204.7366 L1020.2973,1206.8928 L1012.9067,1206.8928 L1012.9067,1204.7366 L1015.3755,1204.7366 L1015.3755,1196.6584 L1012.9067,1196.6584 Z " fill="#000000"/><text fill="#000000" font-family="Verdana" font-size="12" font-style="italic" lengthAdjust="spacing" textLength="68.332" x="1041.1909" y="1196.8987">&#171;interface&#187;</text><text fill="#000000" font-family="Verdana" font-size="14" font-style="italic" font-weight="bold" lengthAdjust="spacing" textLength="81.7441" x="1034.4848" y="1212.7239">Waterable</text><line style="stroke:#000000;stroke-width:1;" x1="931.27" x2="1191.9438" y1="1221.0256" y2="1221.0256"/><line style="stroke:#000000;stroke-width:1;" x1="931.27" x2="1191.9438" y1="1229.0256" y2="1229.0256"/><text fill="#000000" font-family="Verdana" font-size="14" lengthAdjust="spacing" textLength="193.1494" x="936.27" y="1246.0207">+water(liters: double): void</text><text fill="#000000" font-family="Verdana" font-size="14" lengthAdjust="spacing" textLength="250.6738" x="936.27" y="1262.3176">+getWaterNeedsPerWeek(): double</text></g><!--class Growable--><g class="entity" data-entity="Growable" data-source-line="17" data-uid="ent0004" id="entity_Growable"><rect fill="#FFFFFF" height="88.8594" rx="2.5" ry="2.5" style="stroke:#000000;stroke-width:1;" width="248.9541" x="1468.13" y="1180.76"/><ellipse cx="1551.5021" cy="1200.8928" fill="#FFFFFF" rx="9" ry="9" style="stroke:#000000;stroke-width:1;"/><path d="M1547.4239,1196.6584 L1547.4239,1194.5022 L1554.8146,1194.5022 L1554.8146,1196.6584 L1552.3458,1196.6584 L1552.3458,1204.7366 L1554.8146,1204.7366 L1554.8146,1206.8928 L1547.4239,1206.8928 L1547.4239,1204.7366 L1549.8927,1204.7366 L1549.8927,1196.6584 L1547.4239,1196.6584 Z " fill="#000000"/><text fill="#000000" font-family="Verdana" font-size="12" font-style="italic" lengthAdjust="spacing" textLength="68.332" x="1572.191" y="1196.8987">&#171;interface&#187;</text><text fill="#000000" font-family="Verdana" font-size="14" font-style="italic" font-weight="bold" lengthAdjust="spacing" textLength="74.71" x="1569.0021" y="1212.7239">Growable</text><line style="stroke:#000000;stroke-width:1;" x1="1469.13" x2="1716.0841" y1="1221.0256" y2="1221.0256"/><line style="stroke:#000000;stroke-width:1;" x1="1469.13" x2="1716.0841" y1="1229.0256" y2="1229.0256"/><text fill="#000000" font-family="Verdana" font-size="14" lengthAdjust="spacing" textLength="236.9541" x="1474.13" y="1246.0207">+grow(centimeters: double): void</text><text fill="#000000" font-family="Verdana" font-size="14" lengthAdjust="spacing" textLength="185.917" x="1474.13" y="1262.3176">+getGrowthRate(): double</text></g><!--class PlantBase--><g class="entity" data-entity="PlantBase" data-source-line="23" data-uid="ent0005" id="entity_PlantBase"><rect fill="#FFFFFF" height="321.0469" rx="2.5" ry="2.5" style="stroke:#000000;stroke-width:1;" width="550.4121" x="1099.4" y="449.56"/><ellipse cx="1331.2999" cy="463.56" fill="#FFFFFF" rx="9" ry="9" style="stroke:#000000;stroke-width:1;"/><path d="M1331.4093,458.9037 L1330.253,463.9819 L1332.5812,463.9819 L1331.4093,458.9037 Z M1329.9249,456.6694 L1332.9093,456.6694 L1336.2687,469.06 L1333.8155,469.06 L1333.0499,465.9975 L1329.7687,465.9975 L1329.0187,469.06 L1326.5812,469.06 L1329.9249,456.6694 Z " fill="#000000"/><text fill="#000000" font-family="Verdana" font-size="14" font-style="italic" font-weight="bold" lengthAdjust="spacing" textLength="79.1123" x="1348.7999" y="468.4067">PlantBase</text><line style="stroke:#000000;stroke-width:1;" x1="1100.4" x2="1648.8121" y1="477.56" y2="477.56"/><text fill="#000000" font-family="Verdana" font-size="14" lengthAdjust="spacing" textLength="95.7031" x="1105.4" y="494.5551">-name: String</text><text fill="#000000" font-family="Verdana" font-size="14" lengthAdjust="spacing" textLength="108.2881" x="1105.4" y="510.852">-species: String</text><text fill="#000000" font-family="Verdana" font-size="14" lengthAdjust="spacing" textLength="146.8291" x="1105.4" y="527.1489">-plantingDate: String</text><text fill="#000000" font-family="Verdana" font-size="14" lengthAdjust="spacing" textLength="89.0791" x="1105.4" y="543.4457">-size: double</text><line style="stroke:#000000;stroke-width:1;" x1="1100.4" x2="1648.8121" y1="550.7475" y2="550.7475"/><text fill="#000000" font-family="Verdana" font-size="14" lengthAdjust="spacing" textLength="538.4121" x="1105.4" y="567.7426">+PlantBase(name: String, species: String, plantingDate: String, size: double)</text><text fill="#000000" font-family="Verdana" font-size="14" lengthAdjust="spacing" textLength="137.8945" x="1105.4" y="584.0395">+getName(): String</text><text fill="#000000" font-family="Verdana" font-size="14" lengthAdjust="spacing" textLength="214.7988" x="1105.4" y="600.3364">+setName(name: String): void</text><text fill="#000000" font-family="Verdana" font-size="14" lengthAdjust="spacing" textLength="150.4727" x="1105.4" y="616.6332">+getSpecies(): String</text><text fill="#000000" font-family="Verdana" font-size="14" lengthAdjust="spacing" textLength="239.9619" x="1105.4" y="632.9301">+setSpecies(species: String): void</text><text fill="#000000" font-family="Verdana" font-size="14" lengthAdjust="spacing" textLength="186.9766" x="1105.4" y="649.227">+getPlantingDate(): String</text><text fill="#000000" font-family="Verdana" font-size="14" lengthAdjust="spacing" textLength="315.0068" x="1105.4" y="665.5239">+setPlantingDate(plantingDate: String): void</text><text fill="#000000" font-family="Verdana" font-size="14" lengthAdjust="spacing" textLength="131.2637" x="1105.4" y="681.8207">+getSize(): double</text><text fill="#000000" font-family="Verdana" font-size="14" lengthAdjust="spacing" textLength="195.6104" x="1105.4" y="698.1176">+setSize(size: double): void</text><text fill="#000000" font-family="Verdana" font-size="14" lengthAdjust="spacing" textLength="129.4385" x="1105.4" y="714.4145">+toString(): String</text><text fill="#000000" font-family="Verdana" font-size="14" lengthAdjust="spacing" textLength="210.0342" x="1105.4" y="730.7114">+equals(obj: Object): boolean</text><text fill="#000000" font-family="Verdana" font-size="14" lengthAdjust="spacing" textLength="119.5332" x="1105.4" y="747.0082">+hashCode(): int</text><text fill="#000000" font-family="Verdana" font-size="14" lengthAdjust="spacing" textLength="137.6553" x="1105.4" y="763.3051">+displayInfo(): void</text></g><!--class VegetablePlant--><g class="entity" data-entity="VegetablePlant" data-source-line="45" data-uid="ent0006" id="entity_VegetablePlant"><rect fill="#FFFFFF" height="255.8594" rx="2.5" ry="2.5" style="stroke:#000000;stroke-width:1;" width="743.7666" x="101.73" y="855.75"/><ellipse cx="409.1294" cy="869.75" fill="#FFFFFF" rx="9" ry="9" style="stroke:#000000;stroke-width:1;"/><path d="M412.0982,875.3906 Q411.52,875.6875 410.8794,875.8281 Q410.2388,875.9844 409.5357,875.9844 Q407.0357,875.9844 405.7075,874.3437 Q404.395,872.6875 404.395,869.5625 Q404.395,866.4375 405.7075,864.7812 Q407.0357,863.125 409.5357,863.125 Q410.2388,863.125 410.8794,863.2812 Q411.5357,863.4375 412.0982,863.7344 L412.0982,866.4531 Q411.4732,865.875 410.8794,865.6094 Q410.2857,865.3281 409.6607,865.3281 Q408.3169,865.3281 407.6294,866.4062 Q406.9419,867.4687 406.9419,869.5625 Q406.9419,871.6562 407.6294,872.7344 Q408.3169,873.7969 409.6607,873.7969 Q410.2857,873.7969 410.8794,873.5312 Q411.4732,873.25 412.0982,872.6719 L412.0982,875.3906 Z " fill="#000000"/><text fill="#000000" font-family="Verdana" font-size="14" font-weight="bold" lengthAdjust="spacing" textLength="121.4678" x="426.6294" y="874.5967">VegetablePlant</text><line style="stroke:#000000;stroke-width:1;" x1="102.73" x2="844.4966" y1="883.75" y2="883.75"/><text fill="#000000" font-family="Verdana" font-size="14" lengthAdjust="spacing" textLength="152.4482" x="107.73" y="900.7451">-daysUntilHarvest: int</text><text fill="#000000" font-family="Verdana" font-size="14" lengthAdjust="spacing" textLength="202.6855" x="107.73" y="917.042">-hasBeenHarvested: boolean</text><line style="stroke:#000000;stroke-width:1;" x1="102.73" x2="844.4966" y1="924.3437" y2="924.3437"/><text fill="#000000" font-family="Verdana" font-size="14" lengthAdjust="spacing" textLength="731.7666" x="107.73" y="941.3389">+VegetablePlant(name: String, species: String, plantingDate: String, size: double, daysUntilHarvest: int)</text><text fill="#000000" font-family="Verdana" font-size="14" lengthAdjust="spacing" textLength="194.9336" x="107.73" y="957.6357">+getDaysUntilHarvest(): int</text><text fill="#000000" font-family="Verdana" font-size="14" lengthAdjust="spacing" textLength="352.1123" x="107.73" y="973.9326">+setDaysUntilHarvest(daysUntilHarvest: int): void</text><text fill="#000000" font-family="Verdana" font-size="14" lengthAdjust="spacing" textLength="132.4258" x="107.73" y="990.2295">+harvest(): double</text><text fill="#000000" font-family="Verdana" font-size="14" lengthAdjust="spacing" textLength="214.7305" x="107.73" y="1006.5264">+isReadyToHarvest(): boolean</text><text fill="#000000" font-family="Verdana" font-size="14" lengthAdjust="spacing" textLength="193.1494" x="107.73" y="1022.8232">+water(liters: double): void</text><text fill="#000000" font-family="Verdana" font-size="14" lengthAdjust="spacing" textLength="250.6738" x="107.73" y="1039.1201">+getWaterNeedsPerWeek(): double</text><text fill="#000000" font-family="Verdana" font-size="14" lengthAdjust="spacing" textLength="236.9541" x="107.73" y="1055.417">+grow(centimeters: double): void</text><text fill="#000000" font-family="Verdana" font-size="14" lengthAdjust="spacing" textLength="185.917" x="107.73" y="1071.7139">+getGrowthRate(): double</text><text fill="#000000" font-family="Verdana" font-size="14" lengthAdjust="spacing" textLength="137.6553" x="107.73" y="1088.0107">+displayInfo(): void</text><text fill="#000000" font-family="Verdana" font-size="14" lengthAdjust="spacing" textLength="129.4385" x="107.73" y="1104.3076">+toString(): String</text></g><!--class FlowerPlant--><g class="entity" data-entity="FlowerPlant" data-source-line="62" data-uid="ent0007" id="entity_FlowerPlant"><rect fill="#FFFFFF" height="255.8594" rx="2.5" ry="2.5" style="stroke:#000000;stroke-width:1;" width="656.9707" x="1833.12" y="855.75"/><ellipse cx="2110.6156" cy="869.75" fill="#FFFFFF" rx="9" ry="9" style="stroke:#000000;stroke-width:1;"/><path d="M2113.5844,875.3906 Q2113.0062,875.6875 2112.3656,875.8281 Q2111.725,875.9844 2111.0219,875.9844 Q2108.5219,875.9844 2107.1937,874.3437 Q2105.8812,872.6875 2105.8812,869.5625 Q2105.8812,866.4375 2107.1937,864.7812 Q2108.5219,863.125 2111.0219,863.125 Q2111.725,863.125 2112.3656,863.2812 Q2113.0219,863.4375 2113.5844,863.7344 L2113.5844,866.4531 Q2112.9594,865.875 2112.3656,865.6094 Q2111.7719,865.3281 2111.1469,865.3281 Q2109.8031,865.3281 2109.1156,866.4062 Q2108.4281,867.4687 2108.4281,869.5625 Q2108.4281,871.6562 2109.1156,872.7344 Q2109.8031,873.7969 2111.1469,873.7969 Q2111.7719,873.7969 2112.3656,873.5312 Q2112.9594,873.25 2113.5844,872.6719 L2113.5844,875.3906 Z " fill="#000000"/><text fill="#000000" font-family="Verdana" font-size="14" font-weight="bold" lengthAdjust="spacing" textLength="94.4795" x="2128.1156" y="874.5967">FlowerPlant</text><line style="stroke:#000000;stroke-width:1;" x1="1834.12" x2="2489.0907" y1="883.75" y2="883.75"/><text fill="#000000" font-family="Verdana" font-size="14" lengthAdjust="spacing" textLength="90.4736" x="1839.12" y="900.7451">-color: String</text><text fill="#000000" font-family="Verdana" font-size="14" lengthAdjust="spacing" textLength="138.6396" x="1839.12" y="917.042">-isInBloom: boolean</text><line style="stroke:#000000;stroke-width:1;" x1="1834.12" x2="2489.0907" y1="924.3437" y2="924.3437"/><text fill="#000000" font-family="Verdana" font-size="14" lengthAdjust="spacing" textLength="644.9707" x="1839.12" y="941.3389">+FlowerPlant(name: String, species: String, plantingDate: String, size: double, color: String)</text><text fill="#000000" font-family="Verdana" font-size="14" lengthAdjust="spacing" textLength="133.1436" x="1839.12" y="957.6357">+getColor(): String</text><text fill="#000000" font-family="Verdana" font-size="14" lengthAdjust="spacing" textLength="204.8184" x="1839.12" y="973.9326">+setColor(color: String): void</text><text fill="#000000" font-family="Verdana" font-size="14" lengthAdjust="spacing" textLength="156.2422" x="1839.12" y="990.2295">+isInBloom(): boolean</text><text fill="#000000" font-family="Verdana" font-size="14" lengthAdjust="spacing" textLength="104.9932" x="1839.12" y="1006.5264">+bloom(): void</text><text fill="#000000" font-family="Verdana" font-size="14" lengthAdjust="spacing" textLength="193.1494" x="1839.12" y="1022.8232">+water(liters: double): void</text><text fill="#000000" font-family="Verdana" font-size="14" lengthAdjust="spacing" textLength="250.6738" x="1839.12" y="1039.1201">+getWaterNeedsPerWeek(): double</text><text fill="#000000" font-family="Verdana" font-size="14" lengthAdjust="spacing" textLength="236.9541" x="1839.12" y="1055.417">+grow(centimeters: double): void</text><text fill="#000000" font-family="Verdana" font-size="14" lengthAdjust="spacing" textLength="185.917" x="1839.12" y="1071.7139">+getGrowthRate(): double</text><text fill="#000000" font-family="Verdana" font-size="14" lengthAdjust="spacing" textLength="137.6553" x="1839.12" y="1088.0107">+displayInfo(): void</text><text fill="#000000" font-family="Verdana" font-size="14" lengthAdjust="spacing" textLength="129.4385" x="1839.12" y="1104.3076">+toString(): String</text></g><!--class TreePlant--><g class="entity" data-entity="TreePlant" data-source-line="79" data-uid="ent0008" id="entity_TreePlant"><rect fill="#FFFFFF" height="272.1563" rx="2.5" ry="2.5" style="stroke:#000000;stroke-width:1;" width="846.4287" x="951.39" y="847.6"/><ellipse cx="1332.5492" cy="861.6" fill="#FFFFFF" rx="9" ry="9" style="stroke:#000000;stroke-width:1;"/><path d="M1335.5179,867.2406 Q1334.9398,867.5375 1334.2992,867.6781 Q1333.6586,867.8344 1332.9554,867.8344 Q1330.4554,867.8344 1329.1273,866.1937 Q1327.8148,864.5375 1327.8148,861.4125 Q1327.8148,858.2875 1329.1273,856.6312 Q1330.4554,854.975 1332.9554,854.975 Q1333.6586,854.975 1334.2992,855.1312 Q1334.9554,855.2875 1335.5179,855.5844 L1335.5179,858.3031 Q1334.8929,857.725 1334.2992,857.4594 Q1333.7054,857.1781 1333.0804,857.1781 Q1331.7367,857.1781 1331.0492,858.2562 Q1330.3617,859.3187 1330.3617,861.4125 Q1330.3617,863.5062 1331.0492,864.5844 Q1331.7367,865.6469 1333.0804,865.6469 Q1333.7054,865.6469 1334.2992,865.3812 Q1334.8929,865.1 1335.5179,864.5219 L1335.5179,867.2406 Z " fill="#000000"/><text fill="#000000" font-family="Verdana" font-size="14" font-weight="bold" lengthAdjust="spacing" textLength="76.6104" x="1350.0492" y="866.4467">TreePlant</text><line style="stroke:#000000;stroke-width:1;" x1="952.39" x2="1796.8187" y1="875.6" y2="875.6"/><text fill="#000000" font-family="Verdana" font-size="14" lengthAdjust="spacing" textLength="110.3457" x="957.39" y="892.5951">-ageInYears: int</text><text fill="#000000" font-family="Verdana" font-size="14" lengthAdjust="spacing" textLength="180.5303" x="957.39" y="908.892">-minimumHarvestAge: int</text><line style="stroke:#000000;stroke-width:1;" x1="952.39" x2="1796.8187" y1="916.1937" y2="916.1937"/><text fill="#000000" font-family="Verdana" font-size="14" lengthAdjust="spacing" textLength="834.4287" x="957.39" y="933.1889">+TreePlant(name: String, species: String, plantingDate: String, size: double, ageInYears: int, minimumHarvestAge: int)</text><text fill="#000000" font-family="Verdana" font-size="14" lengthAdjust="spacing" textLength="151.9355" x="957.39" y="949.4857">+getAgeInYears(): int</text><text fill="#000000" font-family="Verdana" font-size="14" lengthAdjust="spacing" textLength="267.0117" x="957.39" y="965.7826">+setAgeInYears(ageInYears: int): void</text><text fill="#000000" font-family="Verdana" font-size="14" lengthAdjust="spacing" textLength="219.5635" x="957.39" y="982.0795">+getMinimumHarvestAge(): int</text><text fill="#000000" font-family="Verdana" font-size="14" lengthAdjust="spacing" textLength="132.4258" x="957.39" y="998.3764">+harvest(): double</text><text fill="#000000" font-family="Verdana" font-size="14" lengthAdjust="spacing" textLength="214.7305" x="957.39" y="1014.6732">+isReadyToHarvest(): boolean</text><text fill="#000000" font-family="Verdana" font-size="14" lengthAdjust="spacing" textLength="193.1494" x="957.39" y="1030.9701">+water(liters: double): void</text><text fill="#000000" font-family="Verdana" font-size="14" lengthAdjust="spacing" textLength="250.6738" x="957.39" y="1047.267">+getWaterNeedsPerWeek(): double</text><text fill="#000000" font-family="Verdana" font-size="14" lengthAdjust="spacing" textLength="236.9541" x="957.39" y="1063.5639">+grow(centimeters: double): void</text><text fill="#000000" font-family="Verdana" font-size="14" lengthAdjust="spacing" textLength="185.917" x="957.39" y="1079.8607">+getGrowthRate(): double</text><text fill="#000000" font-family="Verdana" font-size="14" lengthAdjust="spacing" textLength="137.6553" x="957.39" y="1096.1576">+displayInfo(): void</text><text fill="#000000" font-family="Verdana" font-size="14" lengthAdjust="spacing" textLength="129.4385" x="957.39" y="1112.4545">+toString(): String</text></g><!--class GardenTask--><g class="entity" data-entity="GardenTask" data-source-line="98" data-uid="ent0009" id="entity_GardenTask"><rect fill="#FFFFFF" height="121.4531" rx="2.5" ry="2.5" style="stroke:#000000;stroke-width:1;" width="396.0566" x="1176.58" y="200.2"/><ellipse cx="1323.8749" cy="220.3328" fill="#FFFFFF" rx="9" ry="9" style="stroke:#000000;stroke-width:1;"/><path d="M1326.8437,225.9734 Q1326.2655,226.2703 1325.6249,226.4109 Q1324.9843,226.5672 1324.2812,226.5672 Q1321.7812,226.5672 1320.453,224.9266 Q1319.1405,223.2703 1319.1405,220.1453 Q1319.1405,217.0203 1320.453,215.3641 Q1321.7812,213.7078 1324.2812,213.7078 Q1324.9843,213.7078 1325.6249,213.8641 Q1326.2812,214.0203 1326.8437,214.3172 L1326.8437,217.0359 Q1326.2187,216.4578 1325.6249,216.1922 Q1325.0312,215.9109 1324.4062,215.9109 Q1323.0624,215.9109 1322.3749,216.9891 Q1321.6874,218.0516 1321.6874,220.1453 Q1321.6874,222.2391 1322.3749,223.3172 Q1323.0624,224.3797 1324.4062,224.3797 Q1325.0312,224.3797 1325.6249,224.1141 Q1326.2187,223.8328 1326.8437,223.2547 L1326.8437,225.9734 Z " fill="#000000"/><text fill="#000000" font-family="Verdana" font-size="12" font-style="italic" lengthAdjust="spacing" textLength="48.9316" x="1363.8925" y="216.3387">&#171;utility&#187;</text><text fill="#000000" font-family="Verdana" font-size="14" font-weight="bold" lengthAdjust="spacing" textLength="93.9668" x="1341.3749" y="232.1639">GardenTask</text><line style="stroke:#000000;stroke-width:1;" x1="1177.58" x2="1571.6366" y1="240.4656" y2="240.4656"/><line style="stroke:#000000;stroke-width:1;" x1="1177.58" x2="1571.6366" y1="248.4656" y2="248.4656"/><text fill="#000000" font-family="Verdana" font-size="14" lengthAdjust="spacing" text-decoration="underline" textLength="296.6113" x="1182.58" y="265.4607">+waterAllPlants(plants: Waterable[]): void</text><text fill="#000000" font-family="Verdana" font-size="14" lengthAdjust="spacing" text-decoration="underline" textLength="384.0566" x="1182.58" y="281.7576">+harvestAllReadyPlants(plants: Harvestable[]): double</text><text fill="#000000" font-family="Verdana" font-size="14" lengthAdjust="spacing" text-decoration="underline" textLength="341.5645" x="1182.58" y="298.0545">+simulateWeekGrowth(plants: Growable[]): void</text><text fill="#000000" font-family="Verdana" font-size="14" lengthAdjust="spacing" text-decoration="underline" textLength="339.6504" x="1182.58" y="314.3514">+generatePlantReport(plants: PlantBase[]): void</text></g><!--class Plot--><g class="entity" data-entity="Plot" data-source-line="106" data-uid="ent0010" id="entity_Plot"><rect fill="#FFFFFF" height="223.2656" rx="2.5" ry="2.5" style="stroke:#000000;stroke-width:1;" width="351.4248" x="2214.9" y="149.29"/><ellipse cx="2371.1773" cy="163.29" fill="#FFFFFF" rx="9" ry="9" style="stroke:#000000;stroke-width:1;"/><path d="M2374.1461,168.9306 Q2373.568,169.2275 2372.9273,169.3681 Q2372.2867,169.5244 2371.5836,169.5244 Q2369.0836,169.5244 2367.7555,167.8837 Q2366.443,166.2275 2366.443,163.1025 Q2366.443,159.9775 2367.7555,158.3212 Q2369.0836,156.665 2371.5836,156.665 Q2372.2867,156.665 2372.9273,156.8212 Q2373.5836,156.9775 2374.1461,157.2744 L2374.1461,159.9931 Q2373.5211,159.415 2372.9273,159.1494 Q2372.3336,158.8681 2371.7086,158.8681 Q2370.3648,158.8681 2369.6773,159.9462 Q2368.9898,161.0087 2368.9898,163.1025 Q2368.9898,165.1962 2369.6773,166.2744 Q2370.3648,167.3369 2371.7086,167.3369 Q2372.3336,167.3369 2372.9273,167.0712 Q2373.5211,166.79 2374.1461,166.2119 L2374.1461,168.9306 Z " fill="#000000"/><text fill="#000000" font-family="Verdana" font-size="14" font-weight="bold" lengthAdjust="spacing" textLength="31.3701" x="2388.6773" y="168.1367">Plot</text><line style="stroke:#000000;stroke-width:1;" x1="2215.9" x2="2565.3248" y1="177.29" y2="177.29"/><text fill="#000000" font-family="Verdana" font-size="14" lengthAdjust="spacing" textLength="87.1104" x="2220.9" y="194.2851">-number: int</text><text fill="#000000" font-family="Verdana" font-size="14" lengthAdjust="spacing" textLength="89.0791" x="2220.9" y="210.582">-size: double</text><text fill="#000000" font-family="Verdana" font-size="14" lengthAdjust="spacing" textLength="111.5488" x="2220.9" y="226.8789">-location: String</text><line style="stroke:#000000;stroke-width:1;" x1="2215.9" x2="2565.3248" y1="234.1806" y2="234.1806"/><text fill="#000000" font-family="Verdana" font-size="14" lengthAdjust="spacing" textLength="339.4248" x="2220.9" y="251.1757">+Plot(number: int, size: double, location: String)</text><text fill="#000000" font-family="Verdana" font-size="14" lengthAdjust="spacing" textLength="129.3018" x="2220.9" y="267.4726">+getNumber(): int</text><text fill="#000000" font-family="Verdana" font-size="14" lengthAdjust="spacing" textLength="221.1426" x="2220.9" y="283.7695">+setNumber(number: int): void</text><text fill="#000000" font-family="Verdana" font-size="14" lengthAdjust="spacing" textLength="131.2637" x="2220.9" y="300.0664">+getSize(): double</text><text fill="#000000" font-family="Verdana" font-size="14" lengthAdjust="spacing" textLength="195.6104" x="2220.9" y="316.3632">+setSize(size: double): void</text><text fill="#000000" font-family="Verdana" font-size="14" lengthAdjust="spacing" textLength="156.0508" x="2220.9" y="332.6601">+getLocation(): String</text><text fill="#000000" font-family="Verdana" font-size="14" lengthAdjust="spacing" textLength="248.8008" x="2220.9" y="348.957">+setLocation(location: String): void</text><text fill="#000000" font-family="Verdana" font-size="14" lengthAdjust="spacing" textLength="137.6553" x="2220.9" y="365.2539">+displayInfo(): void</text></g><!--class Gardener--><g class="entity" data-entity="Gardener" data-source-line="121" data-uid="ent0011" id="entity_Gardener"><rect fill="#FFFFFF" height="223.2656" rx="2.5" ry="2.5" style="stroke:#000000;stroke-width:1;" width="458.5576" x="2601.33" y="149.29"/><ellipse cx="2789.996" cy="163.29" fill="#FFFFFF" rx="9" ry="9" style="stroke:#000000;stroke-width:1;"/><path d="M2792.9648,168.9306 Q2792.3866,169.2275 2791.746,169.3681 Q2791.1054,169.5244 2790.4023,169.5244 Q2787.9023,169.5244 2786.5741,167.8837 Q2785.2616,166.2275 2785.2616,163.1025 Q2785.2616,159.9775 2786.5741,158.3212 Q2787.9023,156.665 2790.4023,156.665 Q2791.1054,156.665 2791.746,156.8212 Q2792.4023,156.9775 2792.9648,157.2744 L2792.9648,159.9931 Q2792.3398,159.415 2791.746,159.1494 Q2791.1523,158.8681 2790.5273,158.8681 Q2789.1835,158.8681 2788.496,159.9462 Q2787.8085,161.0087 2787.8085,163.1025 Q2787.8085,165.1962 2788.496,166.2744 Q2789.1835,167.3369 2790.5273,167.3369 Q2791.1523,167.3369 2791.746,167.0712 Q2792.3398,166.79 2792.9648,166.2119 L2792.9648,168.9306 Z " fill="#000000"/><text fill="#000000" font-family="Verdana" font-size="14" font-weight="bold" lengthAdjust="spacing" textLength="73.7256" x="2807.496" y="168.1367">Gardener</text><line style="stroke:#000000;stroke-width:1;" x1="2602.33" x2="3058.8876" y1="177.29" y2="177.29"/><text fill="#000000" font-family="Verdana" font-size="14" lengthAdjust="spacing" textLength="95.7031" x="2607.33" y="194.2851">-name: String</text><text fill="#000000" font-family="Verdana" font-size="14" lengthAdjust="spacing" textLength="94.6094" x="2607.33" y="210.582">-email: String</text><text fill="#000000" font-family="Verdana" font-size="14" lengthAdjust="spacing" textLength="165.0195" x="2607.33" y="226.8789">-yearsOfExperience: int</text><line style="stroke:#000000;stroke-width:1;" x1="2602.33" x2="3058.8876" y1="234.1806" y2="234.1806"/><text fill="#000000" font-family="Verdana" font-size="14" lengthAdjust="spacing" textLength="446.5576" x="2607.33" y="251.1757">+Gardener(name: String, email: String, yearsOfExperience: int)</text><text fill="#000000" font-family="Verdana" font-size="14" lengthAdjust="spacing" textLength="137.8945" x="2607.33" y="267.4726">+getName(): String</text><text fill="#000000" font-family="Verdana" font-size="14" lengthAdjust="spacing" textLength="214.7988" x="2607.33" y="283.7695">+setName(name: String): void</text><text fill="#000000" font-family="Verdana" font-size="14" lengthAdjust="spacing" textLength="135.4336" x="2607.33" y="300.0664">+getEmail(): String</text><text fill="#000000" font-family="Verdana" font-size="14" lengthAdjust="spacing" textLength="211.2441" x="2607.33" y="316.3632">+setEmail(email: String): void</text><text fill="#000000" font-family="Verdana" font-size="14" lengthAdjust="spacing" textLength="205.8779" x="2607.33" y="332.6601">+getYearsOfExperience(): int</text><text fill="#000000" font-family="Verdana" font-size="14" lengthAdjust="spacing" textLength="375.6279" x="2607.33" y="348.957">+setYearsOfExperience(yearsOfExperience: int): void</text><text fill="#000000" font-family="Verdana" font-size="14" lengthAdjust="spacing" textLength="137.6553" x="2607.33" y="365.2539">+displayInfo(): void</text></g><!--class GardenManagementSystem--><g class="entity" data-entity="GardenManagementSystem" data-source-line="136" data-uid="ent0012" id="entity_GardenManagementSystem"><rect fill="#FFFFFF" height="60.2969" rx="2.5" ry="2.5" style="stroke:#000000;stroke-width:1;" width="246.6953" x="1993.26" y="12"/><ellipse cx="2006.26" cy="26" fill="#FFFFFF" rx="9" ry="9" style="stroke:#000000;stroke-width:1;"/><path d="M2009.2288,31.6406 Q2008.6506,31.9375 2008.01,32.0781 Q2007.3694,32.2344 2006.6663,32.2344 Q2004.1663,32.2344 2002.8381,30.5938 Q2001.5256,28.9375 2001.5256,25.8125 Q2001.5256,22.6875 2002.8381,21.0313 Q2004.1663,19.375 2006.6663,19.375 Q2007.3694,19.375 2008.01,19.5313 Q2008.6663,19.6875 2009.2288,19.9844 L2009.2288,22.7031 Q2008.6038,22.125 2008.01,21.8594 Q2007.4163,21.5781 2006.7913,21.5781 Q2005.4475,21.5781 2004.76,22.6563 Q2004.0725,23.7188 2004.0725,25.8125 Q2004.0725,27.9063 2004.76,28.9844 Q2005.4475,30.0469 2006.7913,30.0469 Q2007.4163,30.0469 2008.01,29.7813 Q2008.6038,29.5 2009.2288,28.9219 L2009.2288,31.6406 Z " fill="#000000"/><text fill="#000000" font-family="Verdana" font-size="14" font-weight="bold" lengthAdjust="spacing" textLength="218.6953" x="2018.26" y="30.8467">GardenManagementSystem</text><line style="stroke:#000000;stroke-width:1;" x1="1994.26" x2="2238.9553" y1="40" y2="40"/><line style="stroke:#000000;stroke-width:1;" x1="1994.26" x2="2238.9553" y1="48" y2="48"/><text fill="#000000" font-family="Verdana" font-size="14" lengthAdjust="spacing" text-decoration="underline" textLength="188.8154" x="1999.26" y="64.9951">+main(args: String[]): void</text></g><!--reverse link PlantBase to VegetablePlant--><g class="link" data-entity-1="PlantBase" data-entity-2="VegetablePlant" data-source-line="141" data-uid="lnk13" id="link_PlantBase_VegetablePlant"><path codeLine="141" d="M1082.7302,753.9621 C1029.5702,778.6121 990.35,795.82 937.61,817.6 C906.79,830.33 874.59,843.01 842.15,855.37" fill="none" id="PlantBase-backto-VegetablePlant" style="stroke:#000000;stroke-width:1;"/><polygon fill="none" points="1099.06,746.39,1080.2061,748.5188,1085.2542,759.4053,1099.06,746.39" style="stroke:#000000;stroke-width:1;"/></g><!--reverse link PlantBase to FlowerPlant--><g class="link" data-entity-1="PlantBase" data-entity-2="FlowerPlant" data-source-line="142" data-uid="lnk14" id="link_PlantBase_FlowerPlant"><path codeLine="142" d="M1666.4166,748.8659 C1744.8566,785.9059 1813.91,818.51 1892,855.38" fill="none" id="PlantBase-backto-FlowerPlant" style="stroke:#000000;stroke-width:1;"/><polygon fill="none" points="1650.14,741.18,1663.8546,754.2914,1668.9785,743.4404,1650.14,741.18" style="stroke:#000000;stroke-width:1;"/></g><!--reverse link PlantBase to TreePlant--><g class="link" data-entity-1="PlantBase" data-entity-2="TreePlant" data-source-line="143" data-uid="lnk15" id="link_PlantBase_TreePlant"><path codeLine="143" d="M1374.61,789.1 C1374.61,814.46 1374.61,822.47 1374.61,847.19" fill="none" id="PlantBase-backto-TreePlant" style="stroke:#000000;stroke-width:1;"/><polygon fill="none" points="1374.61,771.1,1368.61,789.1,1380.61,789.1,1374.61,771.1" style="stroke:#000000;stroke-width:1;"/></g><!--link VegetablePlant to Harvestable--><g class="link" data-entity-1="VegetablePlant" data-entity-2="Harvestable" data-source-line="146" data-uid="lnk16" id="link_VegetablePlant_Harvestable"><path codeLine="146" d="M473.61,1111.8 C473.61,1136.54 473.61,1142.87 473.61,1162.52" fill="none" id="VegetablePlant-to-Harvestable" style="stroke:#000000;stroke-width:1;stroke-dasharray:7,7;"/><polygon fill="none" points="473.61,1180.52,479.61,1162.52,467.61,1162.52,473.61,1180.52" style="stroke:#000000;stroke-width:1;"/></g><!--link VegetablePlant to Waterable--><g class="link" data-entity-1="VegetablePlant" data-entity-2="Waterable" data-source-line="147" data-uid="lnk17" id="link_VegetablePlant_Waterable"><path codeLine="147" d="M682.27,1111.93 C710.07,1126.2 738.64,1139.6 766.61,1150.76 C818.57,1171.5 860.5187,1183.6661 912.4187,1195.4761" fill="none" id="VegetablePlant-to-Waterable" style="stroke:#000000;stroke-width:1;stroke-dasharray:7,7;"/><polygon fill="none" points="929.97,1199.47,913.75,1189.6257,911.0874,1201.3266,929.97,1199.47" style="stroke:#000000;stroke-width:1;"/></g><!--link VegetablePlant to Growable--><g class="link" data-entity-1="VegetablePlant" data-entity-2="Growable" data-source-line="148" data-uid="lnk18" id="link_VegetablePlant_Growable"><path codeLine="148" d="M845.68,1098.33 C875.31,1106.04 904.88,1113.3 933.61,1119.76 C1117.82,1161.22 1316.7557,1189.9348 1449.9657,1206.9848" fill="none" id="VegetablePlant-to-Growable" style="stroke:#000000;stroke-width:1;stroke-dasharray:7,7;"/><polygon fill="none" points="1467.82,1209.27,1450.7274,1201.0333,1449.2039,1212.9362,1467.82,1209.27" style="stroke:#000000;stroke-width:1;"/></g><!--link FlowerPlant to Waterable--><g class="link" data-entity-1="FlowerPlant" data-entity-2="Waterable" data-source-line="150" data-uid="lnk19" id="link_FlowerPlant_Waterable"><path codeLine="150" d="M1843.44,1112.08 C1834.1,1114.79 1824.81,1117.36 1815.61,1119.76 C1700.99,1149.63 1395.1054,1186.8425 1211.2654,1207.6825" fill="none" id="FlowerPlant-to-Waterable" style="stroke:#000000;stroke-width:1;stroke-dasharray:7,7;"/><polygon fill="none" points="1193.38,1209.71,1211.9413,1213.6443,1210.5896,1201.7207,1193.38,1209.71" style="stroke:#000000;stroke-width:1;"/></g><!--link FlowerPlant to Growable--><g class="link" data-entity-1="FlowerPlant" data-entity-2="Growable" data-source-line="151" data-uid="lnk20" id="link_FlowerPlant_Growable"><path codeLine="151" d="M1859.2,1111.98 C1800.75,1136.58 1759.8906,1153.7777 1713.3906,1173.3477" fill="none" id="FlowerPlant-to-Growable" style="stroke:#000000;stroke-width:1;stroke-dasharray:7,7;"/><polygon fill="none" points="1696.8,1180.33,1715.718,1178.8779,1711.0631,1167.8175,1696.8,1180.33" style="stroke:#000000;stroke-width:1;"/></g><!--link TreePlant to Harvestable--><g class="link" data-entity-1="TreePlant" data-entity-2="Harvestable" data-source-line="153" data-uid="lnk21" id="link_TreePlant_Harvestable"><path codeLine="153" d="M951.15,1097.25 C817.07,1132.89 697.1858,1164.7554 604.4258,1189.4154" fill="none" id="TreePlant-to-Harvestable" style="stroke:#000000;stroke-width:1;stroke-dasharray:7,7;"/><polygon fill="none" points="587.03,1194.04,605.9673,1195.214,602.8842,1183.6168,587.03,1194.04" style="stroke:#000000;stroke-width:1;"/></g><!--link TreePlant to Waterable--><g class="link" data-entity-1="TreePlant" data-entity-2="Waterable" data-source-line="154" data-uid="lnk22" id="link_TreePlant_Waterable"><path codeLine="154" d="M1197.53,1120.18 C1169.03,1141.99 1155.7654,1152.1419 1132.9854,1169.5719" fill="none" id="TreePlant-to-Waterable" style="stroke:#000000;stroke-width:1;stroke-dasharray:7,7;"/><polygon fill="none" points="1118.69,1180.51,1136.6314,1174.3371,1129.3394,1164.8068,1118.69,1180.51" style="stroke:#000000;stroke-width:1;"/></g><!--link TreePlant to Growable--><g class="link" data-entity-1="TreePlant" data-entity-2="Growable" data-source-line="155" data-uid="lnk23" id="link_TreePlant_Growable"><path codeLine="155" d="M1497.94,1120.18 C1517.79,1141.99 1524.8758,1149.7666 1540.7358,1167.1966" fill="none" id="TreePlant-to-Growable" style="stroke:#000000;stroke-width:1;stroke-dasharray:7,7;"/><polygon fill="none" points="1552.85,1180.51,1545.1736,1163.1585,1536.298,1171.2347,1552.85,1180.51" style="stroke:#000000;stroke-width:1;"/></g><!--link GardenTask to Harvestable--><g class="link" data-entity-1="GardenTask" data-entity-2="Harvestable" data-source-line="158" data-uid="lnk24" id="link_GardenTask_Harvestable"><path codeLine="158" d="M1176.31,285.42 C878.71,332.58 325.82,469.05 84.61,847.6 C19.61,949.61 11,1023.78 84.61,1119.76 C118.12,1163.46 251.7137,1191.9724 354.1137,1208.1724" fill="none" id="GardenTask-to-Harvestable" style="stroke:#000000;stroke-width:1;stroke-dasharray:7,7;"/><polygon fill="#000000" points="360.04,1209.11,351.7756,1203.7528,355.1014,1208.3287,350.5255,1211.6545,360.04,1209.11" style="stroke:#000000;stroke-width:1;"/><text fill="#000000" font-family="Verdana" font-size="13" lengthAdjust="spacing" textLength="29.7832" x="109.99" y="813.6669">uses</text></g><!--link GardenTask to Waterable--><g class="link" data-entity-1="GardenTask" data-entity-2="Waterable" data-source-line="159" data-uid="lnk25" id="link_GardenTask_Waterable"><path codeLine="159" d="M1243.32,322 C1187.11,353.26 1124.64,396.19 1081.61,449.56 C963.14,596.49 967.03,661.84 933.61,847.6 C912.19,966.65 881.73,1010.49 933.61,1119.76 C945.05,1143.86 960.3287,1160.553 981.1787,1176.723" fill="none" id="GardenTask-to-Waterable" style="stroke:#000000;stroke-width:1;stroke-dasharray:7,7;"/><polygon fill="#000000" points="985.92,1180.4,981.2595,1171.7236,981.969,1177.3358,976.3568,1178.0453,985.92,1180.4" style="stroke:#000000;stroke-width:1;"/><text fill="#000000" font-family="Verdana" font-size="13" lengthAdjust="spacing" textLength="29.7832" x="942.71" y="813.6669">uses</text></g><!--link GardenTask to Growable--><g class="link" data-entity-1="GardenTask" data-entity-2="Growable" data-source-line="160" data-uid="lnk26" id="link_GardenTask_Growable"><path codeLine="160" d="M1572.91,299.05 C1839.55,360.79 2303.66,512.6 2507.61,847.6 C2570.51,950.92 2588.14,1029.51 2507.61,1119.76 C2455.88,1177.73 1961.1934,1207.589 1723.1434,1218.749" fill="none" id="GardenTask-to-Growable" style="stroke:#000000;stroke-width:1;stroke-dasharray:7,7;"/><polygon fill="#000000" points="1717.15,1219.03,1726.3274,1222.6041,1722.1445,1218.7959,1725.9528,1214.6129,1717.15,1219.03" style="stroke:#000000;stroke-width:1;"/><text fill="#000000" font-family="Verdana" font-size="13" lengthAdjust="spacing" textLength="29.7832" x="2487.35" y="813.6669">uses</text></g><!--link GardenTask to PlantBase--><g class="link" data-entity-1="GardenTask" data-entity-2="PlantBase" data-source-line="161" data-uid="lnk27" id="link_GardenTask_PlantBase"><path codeLine="161" d="M1374.61,322 C1374.61,357.42 1374.61,398.06 1374.61,443.42" fill="none" id="GardenTask-to-PlantBase" style="stroke:#000000;stroke-width:1;stroke-dasharray:7,7;"/><polygon fill="#000000" points="1374.61,449.42,1378.61,440.42,1374.61,444.42,1370.61,440.42,1374.61,449.42" style="stroke:#000000;stroke-width:1;"/><text fill="#000000" font-family="Verdana" font-size="13" lengthAdjust="spacing" textLength="29.7832" x="1375.61" y="415.6269">uses</text></g><!--link GardenManagementSystem to VegetablePlant--><g class="link" data-entity-1="GardenManagementSystem" data-entity-2="VegetablePlant" data-source-line="163" data-uid="lnk28" id="link_GardenManagementSystem_VegetablePlant"><path codeLine="163" d="M1992.96,45.39 C1767.49,51.34 1299.76,72.81 1158.61,149.29 C858.5,311.91 641.3526,660.0808 539.5126,850.2408" fill="none" id="GardenManagementSystem-to-VegetablePlant" style="stroke:#000000;stroke-width:1;stroke-dasharray:7,7;"/><polygon fill="#000000" points="536.68,855.53,544.4551,849.4846,539.0405,851.1223,537.4028,845.7077,536.68,855.53" style="stroke:#000000;stroke-width:1;"/><text fill="#000000" font-family="Verdana" font-size="13" lengthAdjust="spacing" textLength="48.3247" x="848.01" y="415.6269">creates</text></g><!--link GardenManagementSystem to FlowerPlant--><g class="link" data-entity-1="GardenManagementSystem" data-entity-2="FlowerPlant" data-source-line="164" data-uid="lnk29" id="link_GardenManagementSystem_FlowerPlant"><path codeLine="164" d="M2118.02,72.55 C2123.67,190.59 2144.6329,628.2169 2155.2329,849.5169" fill="none" id="GardenManagementSystem-to-FlowerPlant" style="stroke:#000000;stroke-width:1;stroke-dasharray:7,7;"/><polygon fill="#000000" points="2155.52,855.51,2159.0848,846.3289,2155.2808,850.5157,2151.094,846.7117,2155.52,855.51" style="stroke:#000000;stroke-width:1;"/><text fill="#000000" font-family="Verdana" font-size="13" lengthAdjust="spacing" textLength="48.3247" x="2135.47" y="415.6269">creates</text></g><!--link GardenManagementSystem to TreePlant--><g class="link" data-entity-1="GardenManagementSystem" data-entity-2="TreePlant" data-source-line="165" data-uid="lnk30" id="link_GardenManagementSystem_TreePlant"><path codeLine="165" d="M2103.62,72.58 C2056.62,176.84 1886.56,534.93 1667.61,770.6 C1642.5,797.63 1618.176,819.6853 1588.376,843.3853" fill="none" id="GardenManagementSystem-to-TreePlant" style="stroke:#000000;stroke-width:1;stroke-dasharray:7,7;"/><polygon fill="#000000" points="1583.68,847.12,1593.2137,844.6486,1587.5933,844.0077,1588.2341,838.3873,1583.68,847.12" style="stroke:#000000;stroke-width:1;"/><text fill="#000000" font-family="Verdana" font-size="13" lengthAdjust="spacing" textLength="48.3247" x="1929.77" y="415.6269">creates</text></g><!--link GardenManagementSystem to Plot--><g class="link" data-entity-1="GardenManagementSystem" data-entity-2="Plot" data-source-line="166" data-uid="lnk31" id="link_GardenManagementSystem_Plot"><path codeLine="166" d="M2153.85,72.61 C2179.23,92.69 2209.8952,116.9465 2245.5652,145.1765" fill="none" id="GardenManagementSystem-to-Plot" style="stroke:#000000;stroke-width:1;stroke-dasharray:7,7;"/><polygon fill="#000000" points="2250.27,148.9,2245.6951,140.1782,2246.3493,145.7971,2240.7304,146.4513,2250.27,148.9" style="stroke:#000000;stroke-width:1;"/><text fill="#000000" font-family="Verdana" font-size="13" lengthAdjust="spacing" textLength="48.3247" x="2206.24" y="115.3569">creates</text></g><!--link GardenManagementSystem to Gardener--><g class="link" data-entity-1="GardenManagementSystem" data-entity-2="Gardener" data-source-line="167" data-uid="lnk32" id="link_GardenManagementSystem_Gardener"><path codeLine="167" d="M2240.36,64.35 C2335.55,82.32 2469.65,111.24 2583.61,149.29 C2589.4,151.23 2589.5895,151.232 2595.4695,153.332" fill="none" id="GardenManagementSystem-to-Gardener" style="stroke:#000000;stroke-width:1;stroke-dasharray:7,7;"/><polygon fill="#000000" points="2601.12,155.35,2593.9897,148.556,2596.4113,153.6683,2591.299,156.0899,2601.12,155.35" style="stroke:#000000;stroke-width:1;"/><text fill="#000000" font-family="Verdana" font-size="13" lengthAdjust="spacing" textLength="48.3247" x="2484.19" y="115.3569">creates</text></g><!--link GardenManagementSystem to GardenTask--><g class="link" data-entity-1="GardenManagementSystem" data-entity-2="GardenTask" data-source-line="168" data-uid="lnk33" id="link_GardenManagementSystem_GardenTask"><path codeLine="168" d="M2015.38,72.72 C1902.06,105.83 1721.3992,158.6074 1578.7692,200.2774" fill="none" id="GardenManagementSystem-to-GardenTask" style="stroke:#000000;stroke-width:1;stroke-dasharray:7,7;"/><polygon fill="#000000" points="1573.01,201.96,1582.7706,203.2756,1577.8094,200.5578,1580.5271,195.5966,1573.01,201.96" style="stroke:#000000;stroke-width:1;"/><text fill="#000000" font-family="Verdana" font-size="13" lengthAdjust="spacing" textLength="29.7832" x="1898.36" y="115.3569">uses</text></g><!--SRC=[vLVDRjms4BxhATYJDyYkqVF2CB1s_XPe4iFhDWYA7YXflCkO8hSa5NURv7sIv_2BTKH953MI2XlsfUZ5MCzmlcyuVnh-v7PG0DjBBbIIs1kXzjpmWcMIMxjopeYqTB3EjDg8lu7zJ8-yqifjt442IxNCa-I8hPK3Syqpi8beVx8tt7m6wtYA1qzEWlpqb7r967lEThL-zcp9SbtYAIyLzX9uVhZIRpfrghK4hf9lIGJ_WUElIV3RIZkJ0l_Q5X-HFckHU_qMd0Tu1v3R2p0V06uYJtfChus-dIJQedAMWNAYW7yXgp3SxX8f-on7xBmAAJ2UMcSu-ijoZ2ktaDIIpDL1PnUIAtU62a-yO8eNi6GRp9RQUe7TGoR0zcJxoWZ_UO74_SEOsIZktit0C8knvnHuFeewxq4-Q-_z3f6g6mVgvymsqfY4H6jJCmuDMmLnYPXVHFuDCNhQiQjGP_1Uf4Xj8-rTER9okaOYvF1doQMTwVJJahrFFq7cekAkMyBkpdNkwR3Kl2mN5fqyhDMrdhKSKU5OXdsQcRll3fklhfJV0Bsk2jRVj2cNd1_ihtXLsVHLIx2eICy0L2E7F7R9Uz37UtnnpCUT2JNpWcZZQDWHzJXQb8w7Jved626F7GvJkP-eBoo9ElklfBu54wS-qrARNlSBkrPdKkjYaEl8-YaItQCE2JwlfCF6hCLza-ZImMcQgBGLXgF_qTHT6UZrBD_2Mdq4Nh6ttLe89OgoQ6fsjOLMvT43mbCaZz3F9xX3MbVXFEdOI44mIJJVKe8Ow7_InM4ZA76Y2SU5WQOyNdEJWxhYzWOtaLfx27l85zoqdCY-rHTUIUdBmDOVE7Gvh4k__n7x4CoQwAAXZoUnZdOvRn_TBY1OJ9r4bYg2TIo2URj1JN1lGQ5lhgxSIzXhuu9fM4ewMn-aLUbCzV5hFe9voUp1khllHHkj2wdRFb9baOBfUeWiFmicTOQUQ1LDf6OZqjX9dJNj46hNhJtUXhH18upm7hzfeDKlZHF3WHeq0pyZX8dz8YuvC5Cx9nHSo9xaKFNs- -kNV-t1251PVpwrU6GyzM3c4nYFt2bVLXn3irhSSu0OVgJUaBGEzHF-FopeRxd2OLdWsDbWOKD1-nmzLZDkjc6eamQv1EbpZhrnjBlxON2KR27fNX4dNnSBijfHRRGCK5NuqFZdNx6NTpygLpqZlc0i4zsJaEoZnyTVJ-E1CgeFusfKsywJ98ct7M8uK7LMtOTsu0nHTN14qO7rG-tdilN_9j70FZxkqR0bAt5iqHFTctPS7rwYu-ekHuq-cIYbwZ29wv9b1hWBeACsSKZlPT05xLx7_So-ryamc1vmsiUfYSm_]--></g></svg>