<svg xmlns="http://www.w3.org/2000/svg" xmlns:xlink="http://www.w3.org/1999/xlink" contentStyleType="text/css" data-diagram-type="CLASS" height="378px" preserveAspectRatio="none" style="width:950px;height:378px;background:#FFFFFF;" version="1.1" viewBox="0 0 950 378" width="950px" zoomAndPan="magnify"><defs/><g><!--class Plant--><g class="entity" data-entity="Plant" data-source-line="6" data-uid="ent0002" id="entity_Plant"><rect fill="#FFFFFF" height="174.375" rx="2.5" ry="2.5" style="stroke:#000000;stroke-width:1;" width="516.3213" x="12" y="12"/><ellipse cx="245.8276" cy="26" fill="#FFFFFF" rx="9" ry="9" style="stroke:#000000;stroke-width:1;"/><path d="M248.7964,31.6406 Q248.2183,31.9375 247.5776,32.0781 Q246.937,32.2344 246.2339,32.2344 Q243.7339,32.2344 242.4058,30.5938 Q241.0933,28.9375 241.0933,25.8125 Q241.0933,22.6875 242.4058,21.0313 Q243.7339,19.375 246.2339,19.375 Q246.937,19.375 247.5776,19.5313 Q248.2339,19.6875 248.7964,19.9844 L248.7964,22.7031 Q248.1714,22.125 247.5776,21.8594 Q246.9839,21.5781 246.3589,21.5781 Q245.0151,21.5781 244.3276,22.6563 Q243.6401,23.7188 243.6401,25.8125 Q243.6401,27.9063 244.3276,28.9844 Q245.0151,30.0469 246.3589,30.0469 Q246.9839,30.0469 247.5776,29.7813 Q248.1714,29.5 248.7964,28.9219 L248.7964,31.6406 Z " fill="#000000"/><text fill="#000000" font-family="Verdana" font-size="14" font-weight="bold" lengthAdjust="spacing" textLength="41.166" x="263.3276" y="30.8467">Plant</text><line style="stroke:#000000;stroke-width:1;" x1="13" x2="527.3213" y1="40" y2="40"/><text fill="#000000" font-family="Verdana" font-size="14" lengthAdjust="spacing" textLength="102.3818" x="18" y="56.9951">+name: String</text><text fill="#000000" font-family="Verdana" font-size="14" lengthAdjust="spacing" textLength="114.9668" x="18" y="73.292">+species: String</text><text fill="#000000" font-family="Verdana" font-size="14" lengthAdjust="spacing" textLength="153.5078" x="18" y="89.5889">+plantingDate: String</text><text fill="#000000" font-family="Verdana" font-size="14" lengthAdjust="spacing" textLength="95.7578" x="18" y="105.8857">+size: double</text><text fill="#000000" font-family="Verdana" font-size="14" lengthAdjust="spacing" textLength="160.0977" x="18" y="122.1826">+isHarvested: boolean</text><line style="stroke:#000000;stroke-width:1;" x1="13" x2="527.3213" y1="129.4844" y2="129.4844"/><text fill="#000000" font-family="Verdana" font-size="14" lengthAdjust="spacing" textLength="504.3213" x="18" y="146.4795">+Plant(name: String, species: String, plantingDate: String, size: double)</text><text fill="#000000" font-family="Verdana" font-size="14" lengthAdjust="spacing" textLength="137.6553" x="18" y="162.7764">+displayInfo(): void</text><text fill="#000000" font-family="Verdana" font-size="14" lengthAdjust="spacing" textLength="114.3379" x="18" y="179.0732">+harvest(): void</text></g><!--class Plot--><g class="entity" data-entity="Plot" data-source-line="18" data-uid="ent0003" id="entity_Plot"><rect fill="#FFFFFF" height="125.4844" rx="2.5" ry="2.5" style="stroke:#000000;stroke-width:1;" width="379.8555" x="563.23" y="36.45"/><ellipse cx="733.7227" cy="50.45" fill="#FFFFFF" rx="9" ry="9" style="stroke:#000000;stroke-width:1;"/><path d="M736.6914,56.0906 Q736.1133,56.3875 735.4727,56.5281 Q734.8321,56.6844 734.1289,56.6844 Q731.6289,56.6844 730.3008,55.0437 Q728.9883,53.3875 728.9883,50.2625 Q728.9883,47.1375 730.3008,45.4812 Q731.6289,43.825 734.1289,43.825 Q734.8321,43.825 735.4727,43.9812 Q736.1289,44.1375 736.6914,44.4344 L736.6914,47.1531 Q736.0664,46.575 735.4727,46.3094 Q734.8789,46.0281 734.2539,46.0281 Q732.9102,46.0281 732.2227,47.1062 Q731.5352,48.1687 731.5352,50.2625 Q731.5352,52.3562 732.2227,53.4344 Q732.9102,54.4969 734.2539,54.4969 Q734.8789,54.4969 735.4727,54.2312 Q736.0664,53.95 736.6914,53.3719 L736.6914,56.0906 Z " fill="#000000"/><text fill="#000000" font-family="Verdana" font-size="14" font-weight="bold" lengthAdjust="spacing" textLength="31.3701" x="751.2227" y="55.2967">Plot</text><line style="stroke:#000000;stroke-width:1;" x1="564.23" x2="942.0855" y1="64.45" y2="64.45"/><text fill="#000000" font-family="Verdana" font-size="14" lengthAdjust="spacing" textLength="122.2197" x="569.23" y="81.4451">+plotNumber: int</text><text fill="#000000" font-family="Verdana" font-size="14" lengthAdjust="spacing" textLength="95.7578" x="569.23" y="97.742">+size: double</text><text fill="#000000" font-family="Verdana" font-size="14" lengthAdjust="spacing" textLength="118.2275" x="569.23" y="114.0389">+location: String</text><line style="stroke:#000000;stroke-width:1;" x1="564.23" x2="942.0855" y1="121.3406" y2="121.3406"/><text fill="#000000" font-family="Verdana" font-size="14" lengthAdjust="spacing" textLength="367.8555" x="569.23" y="138.3357">+Plot(plotNumber: int, size: double, location: String)</text><text fill="#000000" font-family="Verdana" font-size="14" lengthAdjust="spacing" textLength="137.6553" x="569.23" y="154.6326">+displayInfo(): void</text></g><!--class Gardener--><g class="entity" data-entity="Gardener" data-source-line="27" data-uid="ent0004" id="entity_Gardener"><rect fill="#FFFFFF" height="125.4844" rx="2.5" ry="2.5" style="stroke:#000000;stroke-width:1;" width="442.6436" x="48.84" y="246.38"/><ellipse cx="229.549" cy="260.38" fill="#FFFFFF" rx="9" ry="9" style="stroke:#000000;stroke-width:1;"/><path d="M232.5177,266.0206 Q231.9396,266.3175 231.299,266.4581 Q230.6584,266.6144 229.9552,266.6144 Q227.4552,266.6144 226.1271,264.9738 Q224.8146,263.3175 224.8146,260.1925 Q224.8146,257.0675 226.1271,255.4113 Q227.4552,253.755 229.9552,253.755 Q230.6584,253.755 231.299,253.9113 Q231.9552,254.0675 232.5177,254.3644 L232.5177,257.0831 Q231.8927,256.505 231.299,256.2394 Q230.7052,255.9581 230.0802,255.9581 Q228.7365,255.9581 228.049,257.0363 Q227.3615,258.0988 227.3615,260.1925 Q227.3615,262.2863 228.049,263.3644 Q228.7365,264.4269 230.0802,264.4269 Q230.7052,264.4269 231.299,264.1613 Q231.8927,263.88 232.5177,263.3019 L232.5177,266.0206 Z " fill="#000000"/><text fill="#000000" font-family="Verdana" font-size="14" font-weight="bold" lengthAdjust="spacing" textLength="73.7256" x="247.049" y="265.2267">Gardener</text><line style="stroke:#000000;stroke-width:1;" x1="49.84" x2="490.4836" y1="274.38" y2="274.38"/><text fill="#000000" font-family="Verdana" font-size="14" lengthAdjust="spacing" textLength="102.3818" x="54.84" y="291.3751">+name: String</text><text fill="#000000" font-family="Verdana" font-size="14" lengthAdjust="spacing" textLength="101.2881" x="54.84" y="307.672">+email: String</text><text fill="#000000" font-family="Verdana" font-size="14" lengthAdjust="spacing" textLength="155.7842" x="54.84" y="323.9689">+experienceYears: int</text><line style="stroke:#000000;stroke-width:1;" x1="49.84" x2="490.4836" y1="331.2706" y2="331.2706"/><text fill="#000000" font-family="Verdana" font-size="14" lengthAdjust="spacing" textLength="430.6436" x="54.84" y="348.2657">+Gardener(name: String, email: String, experienceYears: int)</text><text fill="#000000" font-family="Verdana" font-size="14" lengthAdjust="spacing" textLength="137.6553" x="54.84" y="364.5626">+displayInfo(): void</text></g><!--SRC=[VL4zJyCm4DtpAuuj5Qd4d0q90Lqgf4oCb_YW9vopPLyg2kA_OmmfJKZPx7VlteTzeJlg2Rn5bgA8BomU0_RGMOpnMZLmEoXjEYSDln5SpIctJhJHWoLedJL5aK5ui2WAxmN09GZsL4EJbEGv0z5JnnGdcFzQI9SRr1avkTPWtD1QoW37UmnxYagcJfxE4aeQhDTvcetBKyjgxbSjcbKJfrKMCnmJzR2H9rUkQjWxDXdVVGSuOX-_jTtOsgVZTkXR2ZMmw78NwpfKTdBI-DZ3QJdJc4Qi_coV3tqCU8V1a50uzpNK8zifykefC4b7ZuGXZcL-OevwinUVo5IB6l-5_GG0]--></g></svg>