<svg xmlns="http://www.w3.org/2000/svg" xmlns:xlink="http://www.w3.org/1999/xlink" contentStyleType="text/css" data-diagram-type="CLASS" height="199px" preserveAspectRatio="none" style="width:797px;height:199px;background:#FFFFFF;" version="1.1" viewBox="0 0 797 199" width="797px" zoomAndPan="magnify"><defs/><g><!--class Exception--><g class="entity" data-entity="Exception" data-source-line="8" data-uid="ent0002" id="entity_Exception"><rect fill="#FFFFFF" height="44" rx="2.5" ry="2.5" style="stroke:#000000;stroke-width:1;" width="105.4854" x="216.42" y="12"/><ellipse cx="229.42" cy="26" fill="#ADD8E6" rx="9" ry="9" style="stroke:#000000;stroke-width:1;"/><path d="M232.3888,31.6406 Q231.8106,31.9375 231.17,32.0781 Q230.5294,32.2344 229.8263,32.2344 Q227.3263,32.2344 225.9981,30.5938 Q224.6856,28.9375 224.6856,25.8125 Q224.6856,22.6875 225.9981,21.0313 Q227.3263,19.375 229.8263,19.375 Q230.5294,19.375 231.17,19.5313 Q231.8263,19.6875 232.3888,19.9844 L232.3888,22.7031 Q231.7638,22.125 231.17,21.8594 Q230.5763,21.5781 229.9513,21.5781 Q228.6075,21.5781 227.92,22.6563 Q227.2325,23.7188 227.2325,25.8125 Q227.2325,27.9063 227.92,28.9844 Q228.6075,30.0469 229.9513,30.0469 Q230.5763,30.0469 231.17,29.7813 Q231.7638,29.5 232.3888,28.9219 L232.3888,31.6406 Z " fill="#000000"/><text fill="#000000" font-family="Verdana" font-size="14" font-weight="bold" lengthAdjust="spacing" textLength="77.4854" x="241.42" y="30.8467">Exception</text><line style="stroke:#000000;stroke-width:1;" x1="217.42" x2="320.9054" y1="40" y2="40"/><line style="stroke:#000000;stroke-width:1;" x1="217.42" x2="320.9054" y1="48" y2="48"/></g><!--class InvalidPhException--><g class="entity" data-entity="InvalidPhException" data-source-line="10" data-uid="ent0003" id="entity_InvalidPhException"><rect fill="#FFFFFF" height="76.5938" rx="2.5" ry="2.5" style="stroke:#000000;stroke-width:1;" width="514.3184" x="12" y="116"/><ellipse cx="189.8687" cy="130" fill="#FFFFFF" rx="9" ry="9" style="stroke:#000000;stroke-width:1;"/><path d="M192.8374,135.6406 Q192.2593,135.9375 191.6187,136.0781 Q190.978,136.2344 190.2749,136.2344 Q187.7749,136.2344 186.4468,134.5938 Q185.1343,132.9375 185.1343,129.8125 Q185.1343,126.6875 186.4468,125.0313 Q187.7749,123.375 190.2749,123.375 Q190.978,123.375 191.6187,123.5313 Q192.2749,123.6875 192.8374,123.9844 L192.8374,126.7031 Q192.2124,126.125 191.6187,125.8594 Q191.0249,125.5781 190.3999,125.5781 Q189.0562,125.5781 188.3687,126.6563 Q187.6812,127.7188 187.6812,129.8125 Q187.6812,131.9063 188.3687,132.9844 Q189.0562,134.0469 190.3999,134.0469 Q191.0249,134.0469 191.6187,133.7813 Q192.2124,133.5 192.8374,132.9219 L192.8374,135.6406 Z " fill="#000000"/><text fill="#000000" font-family="Verdana" font-size="14" font-weight="bold" lengthAdjust="spacing" textLength="151.0811" x="207.3687" y="134.8467">InvalidPhException</text><line style="stroke:#000000;stroke-width:1;" x1="13" x2="525.3184" y1="144" y2="144"/><line style="stroke:#000000;stroke-width:1;" x1="13" x2="525.3184" y1="152" y2="152"/><text fill="#000000" font-family="Verdana" font-size="14" lengthAdjust="spacing" textLength="370.0293" x="18" y="168.9951">+InvalidPhException(sensorId: String, value: double)</text><text fill="#000000" font-family="Verdana" font-size="14" lengthAdjust="spacing" textLength="502.3184" x="18" y="185.292">+InvalidPhException(sensorId: String, value: double, cause: Throwable)</text></g><g class="entity" data-entity="GMN5" data-source-line="18" data-uid="ent0006" id="entity_GMN5"><path d="M561.66,119.03 L561.66,150.29 L526.71,154.29 L561.66,158.29 L561.66,189.5613 A0,0 0 0 0 561.66,189.5613 L790.66,189.5613 A0,0 0 0 0 790.66,189.5613 L790.66,129.03 L780.66,119.03 L561.66,119.03 A0,0 0 0 0 561.66,119.03" fill="#FFFFFF" style="stroke:#000000;stroke-width:1;"/><path d="M780.66,119.03 L780.66,129.03 L790.66,129.03 L780.66,119.03" fill="#FFFFFF" style="stroke:#000000;stroke-width:1;"/><text fill="#000000" font-family="Verdana" font-size="13" lengthAdjust="spacing" textLength="189.8901" x="567.66" y="136.0969">Exception v&#233;rifi&#233;e (checked).</text><text fill="#000000" font-family="Verdana" font-size="13" lengthAdjust="spacing" textLength="207.8096" x="567.66" y="151.2297">Lanc&#233;e quand une valeur de pH</text><text fill="#000000" font-family="Verdana" font-size="13" lengthAdjust="spacing" textLength="199.4561" x="567.66" y="166.3625">est hors de la plage 0.0 - 14.0,</text><text fill="#000000" font-family="Verdana" font-size="13" lengthAdjust="spacing" textLength="208" x="567.66" y="181.4953">ou quand le format est invalide.</text></g><!--reverse link Exception to InvalidPhException--><g class="link" data-entity-1="Exception" data-entity-2="InvalidPhException" data-source-line="15" data-uid="lnk4" id="link_Exception_InvalidPhException"><path codeLine="15" d="M269.16,74.42 C269.16,90.93 269.16,96.18 269.16,115.76" fill="none" id="Exception-backto-InvalidPhException" style="stroke:#000000;stroke-width:1;"/><polygon fill="none" points="269.16,56.42,263.16,74.42,275.16,74.42,269.16,56.42" style="stroke:#000000;stroke-width:1;"/></g><!--SRC=[dP7TJW8n48Nl-nHZl13Yii7464C82H4C95wOu0jqsu5jwBPhfqNnvttaENWnPr4YKQwyd3FVcPoPEOabLWYrbSO9GKlZQXba1SfAec6CmHGfubHvDpCl2DtVoArtSHRN5g7mLWjn1XEptGGPL6aGD1BWiy8w6ky8QWpadPFMq7R3BPs0rXIt7nKAiHi7upqD_Nxh9ZiTZaRNuwlsOB07fcx5VdrV_f2l0k3yhzuYTEJ3LFTWndkuHGQC9Eo1zgcmsFwVBGCb4t7vK0R_97U3teKu2FxMwHo9AOJp4I6OHHd1puyHSB3-YgzevdnBX9OgKIrHjtCcxgHJZVYOfDEG73RfC0M-DTGJ1f0Yb3vG8rZPV7R1Vykxq86BoxoRCUBJjvtVDlUXad7dCb-9C1V8lIQj-0G0]--></g></svg>