<svg xmlns="http://www.w3.org/2000/svg" xmlns:xlink="http://www.w3.org/1999/xlink" contentStyleType="text/css" data-diagram-type="CLASS" height="467px" preserveAspectRatio="none" style="width:1523px;height:467px;background:#FFFFFF;" version="1.1" viewBox="0 0 1523 467" width="1523px" zoomAndPan="magnify"><defs/><g><!--class Throwable--><g class="entity" data-entity="Throwable" data-source-line="8" data-uid="ent0002" id="entity_Throwable"><rect fill="#FFFFFF" height="125.4844" rx="2.5" ry="2.5" style="stroke:#000000;stroke-width:1;" width="184.2998" x="393.91" y="12"/><ellipse cx="440.9422" cy="26" fill="#FFFFFF" rx="9" ry="9" style="stroke:#000000;stroke-width:1;"/><path d="M443.911,31.6406 Q443.3329,31.9375 442.6922,32.0781 Q442.0516,32.2344 441.3485,32.2344 Q438.8485,32.2344 437.5204,30.5938 Q436.2079,28.9375 436.2079,25.8125 Q436.2079,22.6875 437.5204,21.0313 Q438.8485,19.375 441.3485,19.375 Q442.0516,19.375 442.6922,19.5313 Q443.3485,19.6875 443.911,19.9844 L443.911,22.7031 Q443.286,22.125 442.6922,21.8594 Q442.0985,21.5781 441.4735,21.5781 Q440.1297,21.5781 439.4422,22.6563 Q438.7547,23.7188 438.7547,25.8125 Q438.7547,27.9063 439.4422,28.9844 Q440.1297,30.0469 441.4735,30.0469 Q442.0985,30.0469 442.6922,29.7813 Q443.286,29.5 443.911,28.9219 L443.911,31.6406 Z " fill="#000000"/><text fill="#000000" font-family="Verdana" font-size="14" font-weight="bold" lengthAdjust="spacing" textLength="82.7354" x="458.4422" y="30.8467">Throwable</text><line style="stroke:#000000;stroke-width:1;" x1="394.91" x2="577.2098" y1="40" y2="40"/><text fill="#000000" font-family="Verdana" font-size="14" lengthAdjust="spacing" textLength="118.918" x="399.91" y="56.9951">-message: String</text><text fill="#000000" font-family="Verdana" font-size="14" lengthAdjust="spacing" textLength="128.4404" x="399.91" y="73.292">-cause: Throwable</text><line style="stroke:#000000;stroke-width:1;" x1="394.91" x2="577.2098" y1="80.5938" y2="80.5938"/><text fill="#000000" font-family="Verdana" font-size="14" lengthAdjust="spacing" textLength="157.9512" x="399.91" y="97.5889">+getMessage(): String</text><text fill="#000000" font-family="Verdana" font-size="14" lengthAdjust="spacing" textLength="171.1104" x="399.91" y="113.8857">+getCause(): Throwable</text><text fill="#000000" font-family="Verdana" font-size="14" lengthAdjust="spacing" textLength="172.2998" x="399.91" y="130.1826">+printStackTrace(): void</text></g><!--class Error--><g class="entity" data-entity="Error" data-source-line="16" data-uid="ent0003" id="entity_Error"><rect fill="#FFFFFF" height="44" rx="2.5" ry="2.5" style="stroke:#000000;stroke-width:1;" width="67.8945" x="282.11" y="197.48"/><ellipse cx="295.11" cy="211.48" fill="#FFFFFF" rx="9" ry="9" style="stroke:#000000;stroke-width:1;"/><path d="M298.0788,217.1206 Q297.5006,217.4175 296.86,217.5581 Q296.2194,217.7144 295.5163,217.7144 Q293.0163,217.7144 291.6881,216.0738 Q290.3756,214.4175 290.3756,211.2925 Q290.3756,208.1675 291.6881,206.5113 Q293.0163,204.855 295.5163,204.855 Q296.2194,204.855 296.86,205.0113 Q297.5163,205.1675 298.0788,205.4644 L298.0788,208.1831 Q297.4538,207.605 296.86,207.3394 Q296.2663,207.0581 295.6413,207.0581 Q294.2975,207.0581 293.61,208.1363 Q292.9225,209.1988 292.9225,211.2925 Q292.9225,213.3863 293.61,214.4644 Q294.2975,215.5269 295.6413,215.5269 Q296.2663,215.5269 296.86,215.2613 Q297.4538,214.98 298.0788,214.4019 L298.0788,217.1206 Z " fill="#000000"/><text fill="#000000" font-family="Verdana" font-size="14" font-weight="bold" lengthAdjust="spacing" textLength="39.8945" x="307.11" y="216.3267">Error</text><line style="stroke:#000000;stroke-width:1;" x1="283.11" x2="349.0045" y1="225.48" y2="225.48"/><line style="stroke:#000000;stroke-width:1;" x1="283.11" x2="349.0045" y1="233.48" y2="233.48"/></g><!--class Exception--><g class="entity" data-entity="Exception" data-source-line="17" data-uid="ent0004" id="entity_Exception"><rect fill="#FFFFFF" height="44" rx="2.5" ry="2.5" style="stroke:#000000;stroke-width:1;" width="105.4854" x="750.31" y="197.48"/><ellipse cx="763.31" cy="211.48" fill="#FFFFFF" rx="9" ry="9" style="stroke:#000000;stroke-width:1;"/><path d="M766.2788,217.1206 Q765.7006,217.4175 765.06,217.5581 Q764.4194,217.7144 763.7163,217.7144 Q761.2163,217.7144 759.8881,216.0738 Q758.5756,214.4175 758.5756,211.2925 Q758.5756,208.1675 759.8881,206.5113 Q761.2163,204.855 763.7163,204.855 Q764.4194,204.855 765.06,205.0113 Q765.7163,205.1675 766.2788,205.4644 L766.2788,208.1831 Q765.6538,207.605 765.06,207.3394 Q764.4663,207.0581 763.8413,207.0581 Q762.4975,207.0581 761.81,208.1363 Q761.1225,209.1988 761.1225,211.2925 Q761.1225,213.3863 761.81,214.4644 Q762.4975,215.5269 763.8413,215.5269 Q764.4663,215.5269 765.06,215.2613 Q765.6538,214.98 766.2788,214.4019 L766.2788,217.1206 Z " fill="#000000"/><text fill="#000000" font-family="Verdana" font-size="14" font-weight="bold" lengthAdjust="spacing" textLength="77.4854" x="775.31" y="216.3267">Exception</text><line style="stroke:#000000;stroke-width:1;" x1="751.31" x2="854.7954" y1="225.48" y2="225.48"/><line style="stroke:#000000;stroke-width:1;" x1="751.31" x2="854.7954" y1="233.48" y2="233.48"/></g><!--class OutOfMemoryError--><g class="entity" data-entity="OutOfMemoryError" data-source-line="19" data-uid="ent0005" id="entity_OutOfMemoryError"><rect fill="#FFFFFF" height="44" rx="2.5" ry="2.5" style="stroke:#000000;stroke-width:1;" width="178.1104" x="12" y="307.18"/><ellipse cx="25" cy="321.18" fill="#FFFFFF" rx="9" ry="9" style="stroke:#000000;stroke-width:1;"/><path d="M27.9688,326.8206 Q27.3906,327.1175 26.75,327.2581 Q26.1094,327.4144 25.4063,327.4144 Q22.9063,327.4144 21.5781,325.7738 Q20.2656,324.1175 20.2656,320.9925 Q20.2656,317.8675 21.5781,316.2113 Q22.9063,314.555 25.4063,314.555 Q26.1094,314.555 26.75,314.7113 Q27.4063,314.8675 27.9688,315.1644 L27.9688,317.8831 Q27.3438,317.305 26.75,317.0394 Q26.1563,316.7581 25.5313,316.7581 Q24.1875,316.7581 23.5,317.8363 Q22.8125,318.8988 22.8125,320.9925 Q22.8125,323.0863 23.5,324.1644 Q24.1875,325.2269 25.5313,325.2269 Q26.1563,325.2269 26.75,324.9613 Q27.3438,324.68 27.9688,324.1019 L27.9688,326.8206 Z " fill="#000000"/><text fill="#000000" font-family="Verdana" font-size="14" font-weight="bold" lengthAdjust="spacing" textLength="150.1104" x="37" y="326.0267">OutOfMemoryError</text><line style="stroke:#000000;stroke-width:1;" x1="13" x2="189.1104" y1="335.18" y2="335.18"/><line style="stroke:#000000;stroke-width:1;" x1="13" x2="189.1104" y1="343.18" y2="343.18"/></g><!--class StackOverflowError--><g class="entity" data-entity="StackOverflowError" data-source-line="20" data-uid="ent0006" id="entity_StackOverflowError"><rect fill="#FFFFFF" height="44" rx="2.5" ry="2.5" style="stroke:#000000;stroke-width:1;" width="182.5947" x="224.76" y="307.18"/><ellipse cx="237.76" cy="321.18" fill="#FFFFFF" rx="9" ry="9" style="stroke:#000000;stroke-width:1;"/><path d="M240.7288,326.8206 Q240.1506,327.1175 239.51,327.2581 Q238.8694,327.4144 238.1663,327.4144 Q235.6663,327.4144 234.3381,325.7738 Q233.0256,324.1175 233.0256,320.9925 Q233.0256,317.8675 234.3381,316.2113 Q235.6663,314.555 238.1663,314.555 Q238.8694,314.555 239.51,314.7113 Q240.1663,314.8675 240.7288,315.1644 L240.7288,317.8831 Q240.1038,317.305 239.51,317.0394 Q238.9163,316.7581 238.2913,316.7581 Q236.9475,316.7581 236.26,317.8363 Q235.5725,318.8988 235.5725,320.9925 Q235.5725,323.0863 236.26,324.1644 Q236.9475,325.2269 238.2913,325.2269 Q238.9163,325.2269 239.51,324.9613 Q240.1038,324.68 240.7288,324.1019 L240.7288,326.8206 Z " fill="#000000"/><text fill="#000000" font-family="Verdana" font-size="14" font-weight="bold" lengthAdjust="spacing" textLength="154.5947" x="249.76" y="326.0267">StackOverflowError</text><line style="stroke:#000000;stroke-width:1;" x1="225.76" x2="406.3547" y1="335.18" y2="335.18"/><line style="stroke:#000000;stroke-width:1;" x1="225.76" x2="406.3547" y1="343.18" y2="343.18"/></g><!--class RuntimeException--><g class="entity" data-entity="RuntimeException" data-source-line="22" data-uid="ent0007" id="entity_RuntimeException"><rect fill="#FFFFFF" height="44" rx="2.5" ry="2.5" style="stroke:#000000;stroke-width:1;" width="171.7734" x="864.17" y="307.18"/><ellipse cx="877.17" cy="321.18" fill="#FFFFFF" rx="9" ry="9" style="stroke:#000000;stroke-width:1;"/><path d="M880.1388,326.8206 Q879.5606,327.1175 878.92,327.2581 Q878.2794,327.4144 877.5763,327.4144 Q875.0763,327.4144 873.7481,325.7738 Q872.4356,324.1175 872.4356,320.9925 Q872.4356,317.8675 873.7481,316.2113 Q875.0763,314.555 877.5763,314.555 Q878.2794,314.555 878.92,314.7113 Q879.5763,314.8675 880.1388,315.1644 L880.1388,317.8831 Q879.5138,317.305 878.92,317.0394 Q878.3263,316.7581 877.7013,316.7581 Q876.3575,316.7581 875.67,317.8363 Q874.9825,318.8988 874.9825,320.9925 Q874.9825,323.0863 875.67,324.1644 Q876.3575,325.2269 877.7013,325.2269 Q878.3263,325.2269 878.92,324.9613 Q879.5138,324.68 880.1388,324.1019 L880.1388,326.8206 Z " fill="#000000"/><text fill="#000000" font-family="Verdana" font-size="14" font-weight="bold" lengthAdjust="spacing" textLength="143.7734" x="889.17" y="326.0267">RuntimeException</text><line style="stroke:#000000;stroke-width:1;" x1="865.17" x2="1034.9434" y1="335.18" y2="335.18"/><line style="stroke:#000000;stroke-width:1;" x1="865.17" x2="1034.9434" y1="343.18" y2="343.18"/></g><!--class IOException--><g class="entity" data-entity="IOException" data-source-line="23" data-uid="ent0008" id="entity_IOException"><rect fill="#FFFFFF" height="44" rx="2.5" ry="2.5" style="stroke:#000000;stroke-width:1;" width="122.5957" x="442.76" y="307.18"/><ellipse cx="455.76" cy="321.18" fill="#FFFFFF" rx="9" ry="9" style="stroke:#000000;stroke-width:1;"/><path d="M458.7288,326.8206 Q458.1506,327.1175 457.51,327.2581 Q456.8694,327.4144 456.1663,327.4144 Q453.6663,327.4144 452.3381,325.7738 Q451.0256,324.1175 451.0256,320.9925 Q451.0256,317.8675 452.3381,316.2113 Q453.6663,314.555 456.1663,314.555 Q456.8694,314.555 457.51,314.7113 Q458.1663,314.8675 458.7288,315.1644 L458.7288,317.8831 Q458.1038,317.305 457.51,317.0394 Q456.9163,316.7581 456.2913,316.7581 Q454.9475,316.7581 454.26,317.8363 Q453.5725,318.8988 453.5725,320.9925 Q453.5725,323.0863 454.26,324.1644 Q454.9475,325.2269 456.2913,325.2269 Q456.9163,325.2269 457.51,324.9613 Q458.1038,324.68 458.7288,324.1019 L458.7288,326.8206 Z " fill="#000000"/><text fill="#000000" font-family="Verdana" font-size="14" font-weight="bold" lengthAdjust="spacing" textLength="94.5957" x="467.76" y="326.0267">IOException</text><line style="stroke:#000000;stroke-width:1;" x1="443.76" x2="564.3557" y1="335.18" y2="335.18"/><line style="stroke:#000000;stroke-width:1;" x1="443.76" x2="564.3557" y1="343.18" y2="343.18"/></g><!--class SQLException--><g class="entity" data-entity="SQLException" data-source-line="24" data-uid="ent0009" id="entity_SQLException"><rect fill="#FFFFFF" height="44" rx="2.5" ry="2.5" style="stroke:#000000;stroke-width:1;" width="136.3906" x="1379.86" y="307.18"/><ellipse cx="1392.86" cy="321.18" fill="#FFFFFF" rx="9" ry="9" style="stroke:#000000;stroke-width:1;"/><path d="M1395.8288,326.8206 Q1395.2506,327.1175 1394.61,327.2581 Q1393.9694,327.4144 1393.2663,327.4144 Q1390.7663,327.4144 1389.4381,325.7738 Q1388.1256,324.1175 1388.1256,320.9925 Q1388.1256,317.8675 1389.4381,316.2113 Q1390.7663,314.555 1393.2663,314.555 Q1393.9694,314.555 1394.61,314.7113 Q1395.2663,314.8675 1395.8288,315.1644 L1395.8288,317.8831 Q1395.2038,317.305 1394.61,317.0394 Q1394.0163,316.7581 1393.3913,316.7581 Q1392.0475,316.7581 1391.36,317.8363 Q1390.6725,318.8988 1390.6725,320.9925 Q1390.6725,323.0863 1391.36,324.1644 Q1392.0475,325.2269 1393.3913,325.2269 Q1394.0163,325.2269 1394.61,324.9613 Q1395.2038,324.68 1395.8288,324.1019 L1395.8288,326.8206 Z " fill="#000000"/><text fill="#000000" font-family="Verdana" font-size="14" font-weight="bold" lengthAdjust="spacing" textLength="108.3906" x="1404.86" y="326.0267">SQLException</text><line style="stroke:#000000;stroke-width:1;" x1="1380.86" x2="1515.2506" y1="335.18" y2="335.18"/><line style="stroke:#000000;stroke-width:1;" x1="1380.86" x2="1515.2506" y1="343.18" y2="343.18"/></g><!--class NullPointerException--><g class="entity" data-entity="NullPointerException" data-source-line="26" data-uid="ent0010" id="entity_NullPointerException"><rect fill="#FFFFFF" height="44" rx="2.5" ry="2.5" style="stroke:#000000;stroke-width:1;" width="194.5029" x="459.8" y="416.88"/><ellipse cx="472.8" cy="430.88" fill="#FFFFFF" rx="9" ry="9" style="stroke:#000000;stroke-width:1;"/><path d="M475.7688,436.5206 Q475.1906,436.8175 474.55,436.9581 Q473.9094,437.1144 473.2063,437.1144 Q470.7063,437.1144 469.3781,435.4738 Q468.0656,433.8175 468.0656,430.6925 Q468.0656,427.5675 469.3781,425.9113 Q470.7063,424.255 473.2063,424.255 Q473.9094,424.255 474.55,424.4113 Q475.2063,424.5675 475.7688,424.8644 L475.7688,427.5831 Q475.1438,427.005 474.55,426.7394 Q473.9563,426.4581 473.3313,426.4581 Q471.9875,426.4581 471.3,427.5363 Q470.6125,428.5988 470.6125,430.6925 Q470.6125,432.7863 471.3,433.8644 Q471.9875,434.9269 473.3313,434.9269 Q473.9563,434.9269 474.55,434.6613 Q475.1438,434.38 475.7688,433.8019 L475.7688,436.5206 Z " fill="#000000"/><text fill="#000000" font-family="Verdana" font-size="14" font-weight="bold" lengthAdjust="spacing" textLength="166.5029" x="484.8" y="435.7267">NullPointerException</text><line style="stroke:#000000;stroke-width:1;" x1="460.8" x2="653.3029" y1="444.88" y2="444.88"/><line style="stroke:#000000;stroke-width:1;" x1="460.8" x2="653.3029" y1="452.88" y2="452.88"/></g><!--class NumberFormatException--><g class="entity" data-entity="NumberFormatException" data-source-line="27" data-uid="ent0011" id="entity_NumberFormatException"><rect fill="#FFFFFF" height="44" rx="2.5" ry="2.5" style="stroke:#000000;stroke-width:1;" width="224.9912" x="689.56" y="416.88"/><ellipse cx="702.56" cy="430.88" fill="#FFFFFF" rx="9" ry="9" style="stroke:#000000;stroke-width:1;"/><path d="M705.5288,436.5206 Q704.9506,436.8175 704.31,436.9581 Q703.6694,437.1144 702.9663,437.1144 Q700.4663,437.1144 699.1381,435.4738 Q697.8256,433.8175 697.8256,430.6925 Q697.8256,427.5675 699.1381,425.9113 Q700.4663,424.255 702.9663,424.255 Q703.6694,424.255 704.31,424.4113 Q704.9663,424.5675 705.5288,424.8644 L705.5288,427.5831 Q704.9038,427.005 704.31,426.7394 Q703.7163,426.4581 703.0913,426.4581 Q701.7475,426.4581 701.06,427.5363 Q700.3725,428.5988 700.3725,430.6925 Q700.3725,432.7863 701.06,433.8644 Q701.7475,434.9269 703.0913,434.9269 Q703.7163,434.9269 704.31,434.6613 Q704.9038,434.38 705.5288,433.8019 L705.5288,436.5206 Z " fill="#000000"/><text fill="#000000" font-family="Verdana" font-size="14" font-weight="bold" lengthAdjust="spacing" textLength="196.9912" x="714.56" y="435.7267">NumberFormatException</text><line style="stroke:#000000;stroke-width:1;" x1="690.56" x2="913.5512" y1="444.88" y2="444.88"/><line style="stroke:#000000;stroke-width:1;" x1="690.56" x2="913.5512" y1="452.88" y2="452.88"/></g><!--class ArrayIndexOutOfBoundsException--><g class="entity" data-entity="ArrayIndexOutOfBoundsException" data-source-line="28" data-uid="ent0012" id="entity_ArrayIndexOutOfBoundsException"><rect fill="#FFFFFF" height="44" rx="2.5" ry="2.5" style="stroke:#000000;stroke-width:1;" width="297.5547" x="949.28" y="416.88"/><ellipse cx="962.28" cy="430.88" fill="#FFFFFF" rx="9" ry="9" style="stroke:#000000;stroke-width:1;"/><path d="M965.2488,436.5206 Q964.6706,436.8175 964.03,436.9581 Q963.3894,437.1144 962.6863,437.1144 Q960.1863,437.1144 958.8581,435.4738 Q957.5456,433.8175 957.5456,430.6925 Q957.5456,427.5675 958.8581,425.9113 Q960.1863,424.255 962.6863,424.255 Q963.3894,424.255 964.03,424.4113 Q964.6863,424.5675 965.2488,424.8644 L965.2488,427.5831 Q964.6238,427.005 964.03,426.7394 Q963.4363,426.4581 962.8113,426.4581 Q961.4675,426.4581 960.78,427.5363 Q960.0925,428.5988 960.0925,430.6925 Q960.0925,432.7863 960.78,433.8644 Q961.4675,434.9269 962.8113,434.9269 Q963.4363,434.9269 964.03,434.6613 Q964.6238,434.38 965.2488,433.8019 L965.2488,436.5206 Z " fill="#000000"/><text fill="#000000" font-family="Verdana" font-size="14" font-weight="bold" lengthAdjust="spacing" textLength="269.5547" x="974.28" y="435.7267">ArrayIndexOutOfBoundsException</text><line style="stroke:#000000;stroke-width:1;" x1="950.28" x2="1245.8347" y1="444.88" y2="444.88"/><line style="stroke:#000000;stroke-width:1;" x1="950.28" x2="1245.8347" y1="452.88" y2="452.88"/></g><!--class IllegalArgumentException--><g class="entity" data-entity="IllegalArgumentException" data-source-line="29" data-uid="ent0013" id="entity_IllegalArgumentException"><rect fill="#FFFFFF" height="44" rx="2.5" ry="2.5" style="stroke:#000000;stroke-width:1;" width="232.5244" x="1281.79" y="416.88"/><ellipse cx="1294.79" cy="430.88" fill="#FFFFFF" rx="9" ry="9" style="stroke:#000000;stroke-width:1;"/><path d="M1297.7588,436.5206 Q1297.1806,436.8175 1296.54,436.9581 Q1295.8994,437.1144 1295.1963,437.1144 Q1292.6963,437.1144 1291.3681,435.4738 Q1290.0556,433.8175 1290.0556,430.6925 Q1290.0556,427.5675 1291.3681,425.9113 Q1292.6963,424.255 1295.1963,424.255 Q1295.8994,424.255 1296.54,424.4113 Q1297.1963,424.5675 1297.7588,424.8644 L1297.7588,427.5831 Q1297.1338,427.005 1296.54,426.7394 Q1295.9463,426.4581 1295.3213,426.4581 Q1293.9775,426.4581 1293.29,427.5363 Q1292.6025,428.5988 1292.6025,430.6925 Q1292.6025,432.7863 1293.29,433.8644 Q1293.9775,434.9269 1295.3213,434.9269 Q1295.9463,434.9269 1296.54,434.6613 Q1297.1338,434.38 1297.7588,433.8019 L1297.7588,436.5206 Z " fill="#000000"/><text fill="#000000" font-family="Verdana" font-size="14" font-weight="bold" lengthAdjust="spacing" textLength="204.5244" x="1306.79" y="435.7267">IllegalArgumentException</text><line style="stroke:#000000;stroke-width:1;" x1="1282.79" x2="1513.3144" y1="444.88" y2="444.88"/><line style="stroke:#000000;stroke-width:1;" x1="1282.79" x2="1513.3144" y1="452.88" y2="452.88"/></g><g class="entity" data-entity="GMN25" data-source-line="47" data-uid="ent0026" id="entity_GMN25"><path d="M384.7,199.35 L384.7,215.48 L350.33,219.48 L384.7,223.48 L384.7,239.6156 A0,0 0 0 0 384.7,239.6156 L569.4188,239.6156 A0,0 0 0 0 569.4188,239.6156 L569.4188,209.35 L559.4188,199.35 L384.7,199.35 A0,0 0 0 0 384.7,199.35" fill="#FFFFFF" style="stroke:#000000;stroke-width:1;"/><path d="M559.4188,199.35 L559.4188,209.35 L569.4188,209.35 L559.4188,199.35" fill="#FFFFFF" style="stroke:#000000;stroke-width:1;"/><text fill="#000000" font-family="Verdana" font-size="13" lengthAdjust="spacing" textLength="163.7188" x="390.7" y="216.4169">Erreurs graves de la JVM.</text><text fill="#000000" font-family="Verdana" font-size="13" lengthAdjust="spacing" textLength="108.5005" x="390.7" y="231.5497">Ne pas capturer.</text></g><g class="entity" data-entity="GMN28" data-source-line="52" data-uid="ent0029" id="entity_GMN28"><path d="M600.65,301.48 L600.65,325.18 L565.46,329.18 L600.65,333.18 L600.65,356.8784 A0,0 0 0 0 600.65,356.8784 L829.4659,356.8784 A0,0 0 0 0 829.4659,356.8784 L829.4659,311.48 L819.4659,301.48 L600.65,301.48 A0,0 0 0 0 600.65,301.48" fill="#FFFFFF" style="stroke:#000000;stroke-width:1;"/><path d="M819.4659,301.48 L819.4659,311.48 L829.4659,311.48 L819.4659,301.48" fill="#FFFFFF" style="stroke:#000000;stroke-width:1;"/><text fill="#000000" font-family="Verdana" font-size="13" lengthAdjust="spacing" textLength="207.8159" x="606.65" y="318.5469">Exceptions v&#233;rifi&#233;es (checked) :</text><text fill="#000000" font-family="Verdana" font-size="13" lengthAdjust="spacing" textLength="137.4395" x="606.65" y="333.6797">le compilateur oblige</text><text fill="#000000" font-family="Verdana" font-size="13" lengthAdjust="spacing" textLength="73.6836" x="606.65" y="348.8125">&#224; les g&#233;rer.</text></g><g class="entity" data-entity="GMN31" data-source-line="58" data-uid="ent0032" id="entity_GMN31"><path d="M1071.13,301.48 L1071.13,325.18 L1036.22,329.18 L1071.13,333.18 L1071.13,356.8784 A0,0 0 0 0 1071.13,356.8784 L1344.9889,356.8784 A0,0 0 0 0 1344.9889,356.8784 L1344.9889,311.48 L1334.9889,301.48 L1071.13,301.48 A0,0 0 0 0 1071.13,301.48" fill="#FFFFFF" style="stroke:#000000;stroke-width:1;"/><path d="M1334.9889,301.48 L1334.9889,311.48 L1344.9889,311.48 L1334.9889,301.48" fill="#FFFFFF" style="stroke:#000000;stroke-width:1;"/><text fill="#000000" font-family="Verdana" font-size="13" lengthAdjust="spacing" textLength="252.8589" x="1077.13" y="318.5469">Exceptions non v&#233;rifi&#233;es (unchecked) :</text><text fill="#000000" font-family="Verdana" font-size="13" lengthAdjust="spacing" textLength="172.8657" x="1077.13" y="333.6797">erreurs de programmation</text><text fill="#000000" font-family="Verdana" font-size="13" lengthAdjust="spacing" textLength="68.8911" x="1077.13" y="348.8125">courantes.</text></g><!--reverse link Throwable to Error--><g class="link" data-entity-1="Throwable" data-entity-2="Error" data-source-line="31" data-uid="lnk14" id="link_Throwable_Error"><path codeLine="31" d="M398.2042,149.5037 C372.9642,170.6937 360.21,181.4 341.46,197.15" fill="none" id="Throwable-backto-Error" style="stroke:#000000;stroke-width:1;"/><polygon fill="none" points="411.99,137.93,394.3463,144.9085,402.0621,154.099,411.99,137.93" style="stroke:#000000;stroke-width:1;"/></g><!--reverse link Throwable to Exception--><g class="link" data-entity-1="Throwable" data-entity-2="Exception" data-source-line="32" data-uid="lnk15" id="link_Throwable_Exception"><path codeLine="32" d="M595.0123,124.8016 C652.9423,150.8916 708.77,176.02 755.39,197.02" fill="none" id="Throwable-backto-Exception" style="stroke:#000000;stroke-width:1;"/><polygon fill="none" points="578.6,117.41,592.5484,130.2724,597.4762,119.3309,578.6,117.41" style="stroke:#000000;stroke-width:1;"/></g><!--reverse link Error to OutOfMemoryError--><g class="link" data-entity-1="Error" data-entity-2="OutOfMemoryError" data-source-line="34" data-uid="lnk16" id="link_Error_OutOfMemoryError"><path codeLine="34" d="M265.8955,245.6102 C228.4755,264.3502 184.42,286.42 143.85,306.74" fill="none" id="Error-backto-OutOfMemoryError" style="stroke:#000000;stroke-width:1;"/><polygon fill="none" points="281.99,237.55,263.2088,240.2453,268.5822,250.975,281.99,237.55" style="stroke:#000000;stroke-width:1;"/></g><!--reverse link Error to StackOverflowError--><g class="link" data-entity-1="Error" data-entity-2="StackOverflowError" data-source-line="35" data-uid="lnk17" id="link_Error_StackOverflowError"><path codeLine="35" d="M316.06,259.76 C316.06,278.64 316.06,288.08 316.06,306.95" fill="none" id="Error-backto-StackOverflowError" style="stroke:#000000;stroke-width:1;"/><polygon fill="none" points="316.06,241.76,310.06,259.76,322.06,259.76,316.06,241.76" style="stroke:#000000;stroke-width:1;"/></g><!--reverse link Exception to RuntimeException--><g class="link" data-entity-1="Exception" data-entity-2="RuntimeException" data-source-line="37" data-uid="lnk18" id="link_Exception_RuntimeException"><path codeLine="37" d="M846.6205,252.3974 C872.3105,271.2174 895.08,287.9 920.82,306.76" fill="none" id="Exception-backto-RuntimeException" style="stroke:#000000;stroke-width:1;"/><polygon fill="none" points="832.1,241.76,843.0747,257.2376,850.1663,247.5573,832.1,241.76" style="stroke:#000000;stroke-width:1;"/></g><!--reverse link Exception to IOException--><g class="link" data-entity-1="Exception" data-entity-2="IOException" data-source-line="38" data-uid="lnk19" id="link_Exception_IOException"><path codeLine="38" d="M733.0053,245.7106 C680.7353,264.5406 617.99,287.14 563.6,306.73" fill="none" id="Exception-backto-IOException" style="stroke:#000000;stroke-width:1;"/><polygon fill="none" points="749.94,239.61,730.9718,240.0657,735.0389,251.3555,749.94,239.61" style="stroke:#000000;stroke-width:1;"/></g><!--reverse link Exception to SQLException--><g class="link" data-entity-1="Exception" data-entity-2="SQLException" data-source-line="39" data-uid="lnk20" id="link_Exception_SQLException"><path codeLine="39" d="M873.8839,227.1086 C973.7139,236.9086 1178.42,259.94 1362.06,301.48 C1368.76,303 1375.71,304.78 1382.61,306.7" fill="none" id="Exception-backto-SQLException" style="stroke:#000000;stroke-width:1;"/><polygon fill="none" points="855.97,225.35,873.2977,233.0798,874.4701,221.1373,855.97,225.35" style="stroke:#000000;stroke-width:1;"/></g><!--reverse link RuntimeException to NullPointerException--><g class="link" data-entity-1="RuntimeException" data-entity-2="NullPointerException" data-source-line="41" data-uid="lnk21" id="link_RuntimeException_NullPointerException"><path codeLine="41" d="M854.5799,356.3469 C785.9699,375.1469 704.02,397.6 635.36,416.42" fill="none" id="RuntimeException-backto-NullPointerException" style="stroke:#000000;stroke-width:1;"/><polygon fill="none" points="871.94,351.59,852.9943,350.5602,856.1656,362.1336,871.94,351.59" style="stroke:#000000;stroke-width:1;"/></g><!--reverse link RuntimeException to NumberFormatException--><g class="link" data-entity-1="RuntimeException" data-entity-2="NumberFormatException" data-source-line="42" data-uid="lnk22" id="link_RuntimeException_NumberFormatException"><path codeLine="42" d="M906.2642,362.0491 C880.3942,380.8691 857.41,397.6 831.49,416.46" fill="none" id="RuntimeException-backto-NumberFormatException" style="stroke:#000000;stroke-width:1;"/><polygon fill="none" points="920.82,351.46,902.7345,357.1972,909.7939,366.901,920.82,351.46" style="stroke:#000000;stroke-width:1;"/></g><!--reverse link RuntimeException to ArrayIndexOutOfBoundsException--><g class="link" data-entity-1="RuntimeException" data-entity-2="ArrayIndexOutOfBoundsException" data-source-line="43" data-uid="lnk23" id="link_RuntimeException_ArrayIndexOutOfBoundsException"><path codeLine="43" d="M993.8538,362.0518 C1019.7138,380.8718 1042.7,397.6 1068.62,416.46" fill="none" id="RuntimeException-backto-ArrayIndexOutOfBoundsException" style="stroke:#000000;stroke-width:1;"/><polygon fill="none" points="979.3,351.46,990.3232,366.9031,997.3844,357.2005,979.3,351.46" style="stroke:#000000;stroke-width:1;"/></g><!--reverse link RuntimeException to IllegalArgumentException--><g class="link" data-entity-1="RuntimeException" data-entity-2="IllegalArgumentException" data-source-line="44" data-uid="lnk24" id="link_RuntimeException_IllegalArgumentException"><path codeLine="44" d="M1050.6338,356.0805 C1057.6938,357.8605 1047.27,355.21 1054.06,356.88 C1138.66,377.7 1235.24,400.34 1304.49,416.38" fill="none" id="RuntimeException-backto-IllegalArgumentException" style="stroke:#000000;stroke-width:1;"/><polygon fill="none" points="1033.18,351.68,1049.167,361.8985,1052.1006,350.2626,1033.18,351.68" style="stroke:#000000;stroke-width:1;"/></g><!--SRC=[XLFBRjj03BphAzXJ4nGEUWvwSOi4TL3RRHtqJgreUU7Lhi3TLU8-_gNNVaT-h9HantgbFKcO6GwvG_1Ls551K1hKDadyNjiI6GjG1hsVXy0wZO4MojcD_axmTYYvTJPimi4GfCvaIV8QFkgdFuoiTfeW8m_qgAWCsbaFTrXXaZHrSBzZzu2f5Fv806O5UOyvNSD6MjgyXXH6By2pKB0tEOLbgxoux6Xh_4Cjhz5UGIaA6H3L_fvHDNpbT9RyEirnm-puz7yQzKIkOrXlbrGuFdHrZT-w8juQzz0IH-Phj44NT3PguSLwY6o-V1frMqLZFZkPbtWeNyKY9RvrN60OSdDcF2niHe_DkEzTj9aVJM0CvMZcdCU2RCSZEI_YtS_Px9Z743pB6xv5H-bqkAc8dbrQoIYh0TyDRK3rqniQjPh9D5-IJgKxhVrFsjD5BwTlNI1WdUy2kEqnVAY_5Db3pbZ92MK41k7ks_9Ak9LSAtfGM8R8n5S9sGngcw5PDpyuhz139GUgjtAcOdsXTgJsb5t2jOXatyeLfJOOf3-urEYyFgEdtqB9E5BuhuwZZVRQMacZrphQNdCwFbfUMxAJfnUoZjP5kSWec_ITtdy1]--></g></svg>