<svg xmlns="http://www.w3.org/2000/svg" xmlns:xlink="http://www.w3.org/1999/xlink" contentStyleType="text/css" data-diagram-type="CLASS" height="298px" preserveAspectRatio="none" style="width:296px;height:298px;background:#FFFFFF;" version="1.1" viewBox="0 0 296 298" width="296px" zoomAndPan="magnify"><defs/><g><!--class WaterSensor--><g class="entity" data-entity="WaterSensor" data-source-line="8" data-uid="ent0002" id="entity_WaterSensor"><rect fill="#FFFFFF" height="141.7813" rx="2.5" ry="2.5" style="stroke:#000000;stroke-width:1;" width="277.8975" x="12" y="149.3"/><ellipse cx="96.0078" cy="163.3" fill="#FFFFFF" rx="9" ry="9" style="stroke:#000000;stroke-width:1;"/><path d="M98.9766,168.9406 Q98.3984,169.2375 97.7578,169.3781 Q97.1172,169.5344 96.4141,169.5344 Q93.9141,169.5344 92.5859,167.8937 Q91.2734,166.2375 91.2734,163.1125 Q91.2734,159.9875 92.5859,158.3312 Q93.9141,156.675 96.4141,156.675 Q97.1172,156.675 97.7578,156.8312 Q98.4141,156.9875 98.9766,157.2844 L98.9766,160.0031 Q98.3516,159.425 97.7578,159.1594 Q97.1641,158.8781 96.5391,158.8781 Q95.1953,158.8781 94.5078,159.9562 Q93.8203,161.0187 93.8203,163.1125 Q93.8203,165.2062 94.5078,166.2844 Q95.1953,167.3469 96.5391,167.3469 Q97.1641,167.3469 97.7578,167.0812 Q98.3516,166.8 98.9766,166.2219 L98.9766,168.9406 Z " fill="#000000"/><text fill="#000000" font-family="Verdana" font-size="14" font-weight="bold" lengthAdjust="spacing" textLength="102.3818" x="113.5078" y="168.1467">WaterSensor</text><line style="stroke:#000000;stroke-width:1;" x1="13" x2="288.8975" y1="177.3" y2="177.3"/><text fill="#000000" font-family="Verdana" font-size="14" lengthAdjust="spacing" textLength="68.7764" x="18" y="194.2951">-id: String</text><text fill="#000000" font-family="Verdana" font-size="14" lengthAdjust="spacing" textLength="79.6934" x="18" y="210.592">-ph: double</text><line style="stroke:#000000;stroke-width:1;" x1="13" x2="288.8975" y1="217.8937" y2="217.8937"/><text fill="#000000" font-family="Verdana" font-size="14" lengthAdjust="spacing" textLength="260.1895" x="18" y="234.8889">+WaterSensor(id: String, ph: double)</text><text fill="#000000" font-family="Verdana" font-size="14" lengthAdjust="spacing" textLength="109.6074" x="18" y="251.1857">+getId(): String</text><text fill="#000000" font-family="Verdana" font-size="14" lengthAdjust="spacing" textLength="119.8408" x="18" y="267.4826">+getPh(): double</text><text fill="#000000" font-family="Verdana" font-size="14" lengthAdjust="spacing" textLength="265.8975" x="18" y="283.7795">+readFromString(raw: String): double</text></g><!--class Main--><g class="entity" data-entity="Main" data-source-line="17" data-uid="ent0003" id="entity_Main"><rect fill="#FFFFFF" height="60.2969" rx="2.5" ry="2.5" style="stroke:#000000;stroke-width:1;" width="200.8154" x="50.54" y="12"/><ellipse cx="128.1254" cy="26" fill="#FFFFFF" rx="9" ry="9" style="stroke:#000000;stroke-width:1;"/><path d="M131.0942,31.6406 Q130.5161,31.9375 129.8754,32.0781 Q129.2348,32.2344 128.5317,32.2344 Q126.0317,32.2344 124.7036,30.5938 Q123.3911,28.9375 123.3911,25.8125 Q123.3911,22.6875 124.7036,21.0313 Q126.0317,19.375 128.5317,19.375 Q129.2348,19.375 129.8754,19.5313 Q130.5317,19.6875 131.0942,19.9844 L131.0942,22.7031 Q130.4692,22.125 129.8754,21.8594 Q129.2817,21.5781 128.6567,21.5781 Q127.3129,21.5781 126.6254,22.6563 Q125.9379,23.7188 125.9379,25.8125 Q125.9379,27.9063 126.6254,28.9844 Q127.3129,30.0469 128.6567,30.0469 Q129.2817,30.0469 129.8754,29.7813 Q130.4692,29.5 131.0942,28.9219 L131.0942,31.6406 Z " fill="#000000"/><text fill="#000000" font-family="Verdana" font-size="14" font-weight="bold" lengthAdjust="spacing" textLength="38.1445" x="145.6254" y="30.8467">Main</text><line style="stroke:#000000;stroke-width:1;" x1="51.54" x2="250.3554" y1="40" y2="40"/><line style="stroke:#000000;stroke-width:1;" x1="51.54" x2="250.3554" y1="48" y2="48"/><text fill="#000000" font-family="Verdana" font-size="14" lengthAdjust="spacing" text-decoration="underline" textLength="188.8154" x="56.54" y="64.9951">+main(args: String[]): void</text></g><!--link Main to WaterSensor--><g class="link" data-entity-1="Main" data-entity-2="WaterSensor" data-source-line="21" data-uid="lnk4" id="link_Main_WaterSensor"><path codeLine="21" d="M150.95,72.62 C150.95,93.46 150.95,116.33 150.95,142.94" fill="none" id="Main-to-WaterSensor" style="stroke:#000000;stroke-width:1;stroke-dasharray:7,7;"/><polygon fill="#000000" points="150.95,148.94,154.95,139.94,150.95,143.94,146.95,139.94,150.95,148.94" style="stroke:#000000;stroke-width:1;"/><text fill="#000000" font-family="Verdana" font-size="13" lengthAdjust="spacing" textLength="38.9429" x="151.95" y="115.3669">utilise</text></g><!--SRC=[NP2nQiD044Jx-ufDPGd79hMAG1g32uD1HOgGOgLRf2MdE-LkJy4n_f_aE_nZEIa8EIbdU3FCxfsqr17q1jag5TxOzkYnWzfW24yYdgiejA-TBVcJuE4_idDMIZaPWiePhTGAobEGwrVgr0GX-e7O6BJrf0t2UqJ3SlsUv8emGZQG3-mii6LXD9GhDNN3Cmhvacnm7iuAOCEwW39jiise-hO0xM9bAAdr3Pmjt3qiL3vY3SbUP_bDpsWTsz5QoZoXtddN_KAPnuyvi62NUUOX_MxQjpu7GU7w0bsoClHDc6ClhoauEDPZR0fijuz_3YmW2XiEf7u0]--></g></svg>