<svg xmlns="http://www.w3.org/2000/svg" xmlns:xlink="http://www.w3.org/1999/xlink" contentStyleType="text/css" data-diagram-type="CLASS" height="404px" preserveAspectRatio="none" style="width:828px;height:404px;background:#FFFFFF;" version="1.1" viewBox="0 0 828 404" width="828px" zoomAndPan="magnify"><defs/><g><!--class Collection--><g class="entity" data-entity="Collection" data-source-line="6" data-uid="ent0002" id="entity_Collection"><rect fill="#FFFFFF" height="125.4844" rx="2.5" ry="2.5" style="stroke:#000000;stroke-width:1;" width="222.3828" x="230.58" y="23.14"/><ellipse cx="293.0502" cy="37.14" fill="#FFFFFF" rx="9" ry="9" style="stroke:#000000;stroke-width:1;"/><path d="M288.9721,32.9056 L288.9721,30.7494 L296.3627,30.7494 L296.3627,32.9056 L293.894,32.9056 L293.894,40.9837 L296.3627,40.9837 L296.3627,43.14 L288.9721,43.14 L288.9721,40.9837 L291.4408,40.9837 L291.4408,32.9056 L288.9721,32.9056 Z " fill="#000000"/><text fill="#000000" font-family="Verdana" font-size="14" font-style="italic" font-weight="bold" lengthAdjust="spacing" textLength="78.3604" x="310.5502" y="41.9867">Collection</text><rect fill="#FFFFFF" height="15.9688" style="stroke:#000000;stroke-width:1;stroke-dasharray:2,2;" width="9.582" x="446.3808" y="20.14"/><text fill="#000000" font-family="Verdana" font-size="12" font-style="italic" lengthAdjust="spacing" textLength="7.582" x="447.3808" y="32.2787">E</text><line style="stroke:#000000;stroke-width:1;" x1="231.58" x2="451.9628" y1="51.14" y2="51.14"/><line style="stroke:#000000;stroke-width:1;" x1="231.58" x2="451.9628" y1="59.14" y2="59.14"/><text fill="#000000" font-family="Verdana" font-size="14" lengthAdjust="spacing" textLength="140.7725" x="236.58" y="76.1351">+add(e: E): boolean</text><text fill="#000000" font-family="Verdana" font-size="14" lengthAdjust="spacing" textLength="204.5928" x="236.58" y="92.432">+remove(o: Object): boolean</text><text fill="#000000" font-family="Verdana" font-size="14" lengthAdjust="spacing" textLength="210.3828" x="236.58" y="108.7289">+contains(o: Object): boolean</text><text fill="#000000" font-family="Verdana" font-size="14" lengthAdjust="spacing" textLength="77.2188" x="236.58" y="125.0257">+size(): int</text><text fill="#000000" font-family="Verdana" font-size="14" lengthAdjust="spacing" textLength="168.6426" x="236.58" y="141.3226">+iterator(): Iterator&lt;E&gt;</text></g><!--class List--><g class="entity" data-entity="List" data-source-line="14" data-uid="ent0003" id="entity_List"><rect fill="#FFFFFF" height="76.5938" rx="2.5" ry="2.5" style="stroke:#000000;stroke-width:1;" width="201.2939" x="112.12" y="216.78"/><ellipse cx="188.8534" cy="230.78" fill="#FFFFFF" rx="9" ry="9" style="stroke:#000000;stroke-width:1;"/><path d="M184.7753,226.5456 L184.7753,224.3894 L192.1659,224.3894 L192.1659,226.5456 L189.6971,226.5456 L189.6971,234.6238 L192.1659,234.6238 L192.1659,236.78 L184.7753,236.78 L184.7753,234.6238 L187.244,234.6238 L187.244,226.5456 L184.7753,226.5456 Z " fill="#000000"/><text fill="#000000" font-family="Verdana" font-size="14" font-style="italic" font-weight="bold" lengthAdjust="spacing" textLength="28.7451" x="206.3534" y="235.6267">List</text><rect fill="#FFFFFF" height="15.9688" style="stroke:#000000;stroke-width:1;stroke-dasharray:2,2;" width="9.582" x="306.8319" y="213.78"/><text fill="#000000" font-family="Verdana" font-size="12" font-style="italic" lengthAdjust="spacing" textLength="7.582" x="307.8319" y="225.9187">E</text><line style="stroke:#000000;stroke-width:1;" x1="113.12" x2="312.4139" y1="244.78" y2="244.78"/><line style="stroke:#000000;stroke-width:1;" x1="113.12" x2="312.4139" y1="252.78" y2="252.78"/><text fill="#000000" font-family="Verdana" font-size="14" lengthAdjust="spacing" textLength="129.623" x="118.12" y="269.7751">+get(index: int): E</text><text fill="#000000" font-family="Verdana" font-size="14" lengthAdjust="spacing" textLength="189.2939" x="118.12" y="286.072">+add(index: int, e: E): void</text></g><!--class Set--><g class="entity" data-entity="Set" data-source-line="19" data-uid="ent0004" id="entity_Set"><rect fill="#FFFFFF" height="44" rx="2.5" ry="2.5" style="stroke:#000000;stroke-width:1;" width="65.8525" x="348.85" y="233.07"/><ellipse cx="361.85" cy="247.07" fill="#FFFFFF" rx="9" ry="9" style="stroke:#000000;stroke-width:1;"/><path d="M357.7719,242.8356 L357.7719,240.6794 L365.1625,240.6794 L365.1625,242.8356 L362.6938,242.8356 L362.6938,250.9138 L365.1625,250.9138 L365.1625,253.07 L357.7719,253.07 L357.7719,250.9138 L360.2406,250.9138 L360.2406,242.8356 L357.7719,242.8356 Z " fill="#000000"/><text fill="#000000" font-family="Verdana" font-size="14" font-style="italic" font-weight="bold" lengthAdjust="spacing" textLength="26.2705" x="373.85" y="251.9167">Set</text><rect fill="#FFFFFF" height="15.9688" style="stroke:#000000;stroke-width:1;stroke-dasharray:2,2;" width="9.582" x="408.1205" y="230.07"/><text fill="#000000" font-family="Verdana" font-size="12" font-style="italic" lengthAdjust="spacing" textLength="7.582" x="409.1205" y="242.2087">E</text><line style="stroke:#000000;stroke-width:1;" x1="349.85" x2="413.7025" y1="261.07" y2="261.07"/><line style="stroke:#000000;stroke-width:1;" x1="349.85" x2="413.7025" y1="269.07" y2="269.07"/></g><!--class Map--><g class="entity" data-entity="Map" data-source-line="21" data-uid="ent0005" id="entity_Map"><rect fill="#FFFFFF" height="141.7813" rx="2.5" ry="2.5" style="stroke:#000000;stroke-width:1;" width="264.9023" x="499.32" y="15"/><ellipse cx="597.4675" cy="29" fill="#FFFFFF" rx="9" ry="9" style="stroke:#000000;stroke-width:1;"/><path d="M593.3893,24.7656 L593.3893,22.6094 L600.78,22.6094 L600.78,24.7656 L598.3112,24.7656 L598.3112,32.8438 L600.78,32.8438 L600.78,35 L593.3893,35 L593.3893,32.8438 L595.8581,32.8438 L595.8581,24.7656 L593.3893,24.7656 Z " fill="#000000"/><text fill="#000000" font-family="Verdana" font-size="14" font-style="italic" font-weight="bold" lengthAdjust="spacing" textLength="33.4004" x="614.9675" y="33.8467">Map</text><rect fill="#FFFFFF" height="15.9688" style="stroke:#000000;stroke-width:1;stroke-dasharray:2,2;" width="25.707" x="741.5153" y="12"/><text fill="#000000" font-family="Verdana" font-size="12" font-style="italic" lengthAdjust="spacing" textLength="23.707" x="742.5153" y="24.1387">K, V</text><line style="stroke:#000000;stroke-width:1;" x1="500.32" x2="763.2223" y1="43" y2="43"/><line style="stroke:#000000;stroke-width:1;" x1="500.32" x2="763.2223" y1="51" y2="51"/><text fill="#000000" font-family="Verdana" font-size="14" lengthAdjust="spacing" textLength="173.8857" x="505.32" y="67.9951">+put(key: K, value: V): V</text><text fill="#000000" font-family="Verdana" font-size="14" lengthAdjust="spacing" textLength="144.1563" x="505.32" y="84.292">+get(key: Object): V</text><text fill="#000000" font-family="Verdana" font-size="14" lengthAdjust="spacing" textLength="252.9023" x="505.32" y="100.5889">+containsKey(key: Object): boolean</text><text fill="#000000" font-family="Verdana" font-size="14" lengthAdjust="spacing" textLength="174.6377" x="505.32" y="116.8857">+remove(key: Object): V</text><text fill="#000000" font-family="Verdana" font-size="14" lengthAdjust="spacing" textLength="135.4473" x="505.32" y="133.1826">+keySet(): Set&lt;K&gt;</text><text fill="#000000" font-family="Verdana" font-size="14" lengthAdjust="spacing" textLength="179.6416" x="505.32" y="149.4795">+values(): Collection&lt;V&gt;</text></g><!--class ArrayList--><g class="entity" data-entity="ArrayList" data-source-line="30" data-uid="ent0006" id="entity_ArrayList"><rect fill="#FFFFFF" height="44" rx="2.5" ry="2.5" style="stroke:#000000;stroke-width:1;" width="111.5439" x="12" y="353.37"/><ellipse cx="25" cy="367.37" fill="#FFFFFF" rx="9" ry="9" style="stroke:#000000;stroke-width:1;"/><path d="M27.9688,373.0106 Q27.3906,373.3075 26.75,373.4481 Q26.1094,373.6044 25.4063,373.6044 Q22.9063,373.6044 21.5781,371.9638 Q20.2656,370.3075 20.2656,367.1825 Q20.2656,364.0575 21.5781,362.4013 Q22.9063,360.745 25.4063,360.745 Q26.1094,360.745 26.75,360.9013 Q27.4063,361.0575 27.9688,361.3544 L27.9688,364.0731 Q27.3438,363.495 26.75,363.2294 Q26.1563,362.9481 25.5313,362.9481 Q24.1875,362.9481 23.5,364.0263 Q22.8125,365.0888 22.8125,367.1825 Q22.8125,369.2763 23.5,370.3544 Q24.1875,371.4169 25.5313,371.4169 Q26.1563,371.4169 26.75,371.1513 Q27.3438,370.87 27.9688,370.2919 L27.9688,373.0106 Z " fill="#000000"/><text fill="#000000" font-family="Verdana" font-size="14" font-weight="bold" lengthAdjust="spacing" textLength="71.9619" x="37" y="372.2167">ArrayList</text><rect fill="#FFFFFF" height="15.9688" style="stroke:#000000;stroke-width:1;stroke-dasharray:2,2;" width="9.582" x="116.9619" y="350.37"/><text fill="#000000" font-family="Verdana" font-size="12" font-style="italic" lengthAdjust="spacing" textLength="7.582" x="117.9619" y="362.5087">E</text><line style="stroke:#000000;stroke-width:1;" x1="13" x2="122.5439" y1="381.37" y2="381.37"/><line style="stroke:#000000;stroke-width:1;" x1="13" x2="122.5439" y1="389.37" y2="389.37"/></g><!--class LinkedList--><g class="entity" data-entity="LinkedList" data-source-line="31" data-uid="ent0007" id="entity_LinkedList"><rect fill="#FFFFFF" height="44" rx="2.5" ry="2.5" style="stroke:#000000;stroke-width:1;" width="120.8408" x="158.35" y="353.37"/><ellipse cx="171.35" cy="367.37" fill="#FFFFFF" rx="9" ry="9" style="stroke:#000000;stroke-width:1;"/><path d="M174.3188,373.0106 Q173.7406,373.3075 173.1,373.4481 Q172.4594,373.6044 171.7563,373.6044 Q169.2563,373.6044 167.9281,371.9638 Q166.6156,370.3075 166.6156,367.1825 Q166.6156,364.0575 167.9281,362.4013 Q169.2563,360.745 171.7563,360.745 Q172.4594,360.745 173.1,360.9013 Q173.7563,361.0575 174.3188,361.3544 L174.3188,364.0731 Q173.6938,363.495 173.1,363.2294 Q172.5063,362.9481 171.8813,362.9481 Q170.5375,362.9481 169.85,364.0263 Q169.1625,365.0888 169.1625,367.1825 Q169.1625,369.2763 169.85,370.3544 Q170.5375,371.4169 171.8813,371.4169 Q172.5063,371.4169 173.1,371.1513 Q173.6938,370.87 174.3188,370.2919 L174.3188,373.0106 Z " fill="#000000"/><text fill="#000000" font-family="Verdana" font-size="14" font-weight="bold" lengthAdjust="spacing" textLength="81.2588" x="183.35" y="372.2167">LinkedList</text><rect fill="#FFFFFF" height="15.9688" style="stroke:#000000;stroke-width:1;stroke-dasharray:2,2;" width="9.582" x="272.6088" y="350.37"/><text fill="#000000" font-family="Verdana" font-size="12" font-style="italic" lengthAdjust="spacing" textLength="7.582" x="273.6088" y="362.5087">E</text><line style="stroke:#000000;stroke-width:1;" x1="159.35" x2="278.1908" y1="381.37" y2="381.37"/><line style="stroke:#000000;stroke-width:1;" x1="159.35" x2="278.1908" y1="389.37" y2="389.37"/></g><!--class HashSet--><g class="entity" data-entity="HashSet" data-source-line="32" data-uid="ent0008" id="entity_HashSet"><rect fill="#FFFFFF" height="44" rx="2.5" ry="2.5" style="stroke:#000000;stroke-width:1;" width="105.3164" x="324.11" y="353.37"/><ellipse cx="337.11" cy="367.37" fill="#FFFFFF" rx="9" ry="9" style="stroke:#000000;stroke-width:1;"/><path d="M340.0788,373.0106 Q339.5006,373.3075 338.86,373.4481 Q338.2194,373.6044 337.5163,373.6044 Q335.0163,373.6044 333.6881,371.9638 Q332.3756,370.3075 332.3756,367.1825 Q332.3756,364.0575 333.6881,362.4013 Q335.0163,360.745 337.5163,360.745 Q338.2194,360.745 338.86,360.9013 Q339.5163,361.0575 340.0788,361.3544 L340.0788,364.0731 Q339.4538,363.495 338.86,363.2294 Q338.2663,362.9481 337.6413,362.9481 Q336.2975,362.9481 335.61,364.0263 Q334.9225,365.0888 334.9225,367.1825 Q334.9225,369.2763 335.61,370.3544 Q336.2975,371.4169 337.6413,371.4169 Q338.2663,371.4169 338.86,371.1513 Q339.4538,370.87 340.0788,370.2919 L340.0788,373.0106 Z " fill="#000000"/><text fill="#000000" font-family="Verdana" font-size="14" font-weight="bold" lengthAdjust="spacing" textLength="65.7344" x="349.11" y="372.2167">HashSet</text><rect fill="#FFFFFF" height="15.9688" style="stroke:#000000;stroke-width:1;stroke-dasharray:2,2;" width="9.582" x="422.8444" y="350.37"/><text fill="#000000" font-family="Verdana" font-size="12" font-style="italic" lengthAdjust="spacing" textLength="7.582" x="423.8444" y="362.5087">E</text><line style="stroke:#000000;stroke-width:1;" x1="325.11" x2="428.4264" y1="381.37" y2="381.37"/><line style="stroke:#000000;stroke-width:1;" x1="325.11" x2="428.4264" y1="389.37" y2="389.37"/></g><!--class TreeSet--><g class="entity" data-entity="TreeSet" data-source-line="33" data-uid="ent0009" id="entity_TreeSet"><rect fill="#FFFFFF" height="44" rx="2.5" ry="2.5" style="stroke:#000000;stroke-width:1;" width="101.2969" x="464.12" y="353.37"/><ellipse cx="477.12" cy="367.37" fill="#FFFFFF" rx="9" ry="9" style="stroke:#000000;stroke-width:1;"/><path d="M480.0888,373.0106 Q479.5106,373.3075 478.87,373.4481 Q478.2294,373.6044 477.5263,373.6044 Q475.0263,373.6044 473.6981,371.9638 Q472.3856,370.3075 472.3856,367.1825 Q472.3856,364.0575 473.6981,362.4013 Q475.0263,360.745 477.5263,360.745 Q478.2294,360.745 478.87,360.9013 Q479.5263,361.0575 480.0888,361.3544 L480.0888,364.0731 Q479.4638,363.495 478.87,363.2294 Q478.2763,362.9481 477.6513,362.9481 Q476.3075,362.9481 475.62,364.0263 Q474.9325,365.0888 474.9325,367.1825 Q474.9325,369.2763 475.62,370.3544 Q476.3075,371.4169 477.6513,371.4169 Q478.2763,371.4169 478.87,371.1513 Q479.4638,370.87 480.0888,370.2919 L480.0888,373.0106 Z " fill="#000000"/><text fill="#000000" font-family="Verdana" font-size="14" font-weight="bold" lengthAdjust="spacing" textLength="61.7148" x="489.12" y="372.2167">TreeSet</text><rect fill="#FFFFFF" height="15.9688" style="stroke:#000000;stroke-width:1;stroke-dasharray:2,2;" width="9.582" x="558.8348" y="350.37"/><text fill="#000000" font-family="Verdana" font-size="12" font-style="italic" lengthAdjust="spacing" textLength="7.582" x="559.8348" y="362.5087">E</text><line style="stroke:#000000;stroke-width:1;" x1="465.12" x2="564.4169" y1="381.37" y2="381.37"/><line style="stroke:#000000;stroke-width:1;" x1="465.12" x2="564.4169" y1="389.37" y2="389.37"/></g><!--class HashMap--><g class="entity" data-entity="HashMap" data-source-line="34" data-uid="ent0010" id="entity_HashMap"><rect fill="#FFFFFF" height="44" rx="2.5" ry="2.5" style="stroke:#000000;stroke-width:1;" width="128.5713" x="528.49" y="233.07"/><ellipse cx="541.49" cy="247.07" fill="#FFFFFF" rx="9" ry="9" style="stroke:#000000;stroke-width:1;"/><path d="M544.4588,252.7106 Q543.8806,253.0075 543.24,253.1481 Q542.5994,253.3044 541.8963,253.3044 Q539.3963,253.3044 538.0681,251.6638 Q536.7556,250.0075 536.7556,246.8825 Q536.7556,243.7575 538.0681,242.1013 Q539.3963,240.445 541.8963,240.445 Q542.5994,240.445 543.24,240.6013 Q543.8963,240.7575 544.4588,241.0544 L544.4588,243.7731 Q543.8338,243.195 543.24,242.9294 Q542.6463,242.6481 542.0213,242.6481 Q540.6775,242.6481 539.99,243.7263 Q539.3025,244.7888 539.3025,246.8825 Q539.3025,248.9763 539.99,250.0544 Q540.6775,251.1169 542.0213,251.1169 Q542.6463,251.1169 543.24,250.8513 Q543.8338,250.57 544.4588,249.9919 L544.4588,252.7106 Z " fill="#000000"/><text fill="#000000" font-family="Verdana" font-size="14" font-weight="bold" lengthAdjust="spacing" textLength="72.8643" x="553.49" y="251.9167">HashMap</text><rect fill="#FFFFFF" height="15.9688" style="stroke:#000000;stroke-width:1;stroke-dasharray:2,2;" width="25.707" x="634.3543" y="230.07"/><text fill="#000000" font-family="Verdana" font-size="12" font-style="italic" lengthAdjust="spacing" textLength="23.707" x="635.3543" y="242.2087">K, V</text><line style="stroke:#000000;stroke-width:1;" x1="529.49" x2="656.0613" y1="261.07" y2="261.07"/><line style="stroke:#000000;stroke-width:1;" x1="529.49" x2="656.0613" y1="269.07" y2="269.07"/></g><!--class TreeMap--><g class="entity" data-entity="TreeMap" data-source-line="35" data-uid="ent0011" id="entity_TreeMap"><rect fill="#FFFFFF" height="44" rx="2.5" ry="2.5" style="stroke:#000000;stroke-width:1;" width="124.5518" x="692.5" y="233.07"/><ellipse cx="705.5" cy="247.07" fill="#FFFFFF" rx="9" ry="9" style="stroke:#000000;stroke-width:1;"/><path d="M708.4688,252.7106 Q707.8906,253.0075 707.25,253.1481 Q706.6094,253.3044 705.9063,253.3044 Q703.4063,253.3044 702.0781,251.6638 Q700.7656,250.0075 700.7656,246.8825 Q700.7656,243.7575 702.0781,242.1013 Q703.4063,240.445 705.9063,240.445 Q706.6094,240.445 707.25,240.6013 Q707.9063,240.7575 708.4688,241.0544 L708.4688,243.7731 Q707.8438,243.195 707.25,242.9294 Q706.6563,242.6481 706.0313,242.6481 Q704.6875,242.6481 704,243.7263 Q703.3125,244.7888 703.3125,246.8825 Q703.3125,248.9763 704,250.0544 Q704.6875,251.1169 706.0313,251.1169 Q706.6563,251.1169 707.25,250.8513 Q707.8438,250.57 708.4688,249.9919 L708.4688,252.7106 Z " fill="#000000"/><text fill="#000000" font-family="Verdana" font-size="14" font-weight="bold" lengthAdjust="spacing" textLength="68.8447" x="717.5" y="251.9167">TreeMap</text><rect fill="#FFFFFF" height="15.9688" style="stroke:#000000;stroke-width:1;stroke-dasharray:2,2;" width="25.707" x="794.3447" y="230.07"/><text fill="#000000" font-family="Verdana" font-size="12" font-style="italic" lengthAdjust="spacing" textLength="23.707" x="795.3447" y="242.2087">K, V</text><line style="stroke:#000000;stroke-width:1;" x1="693.5" x2="816.0518" y1="261.07" y2="261.07"/><line style="stroke:#000000;stroke-width:1;" x1="693.5" x2="816.0518" y1="269.07" y2="269.07"/></g><!--reverse link Collection to List--><g class="link" data-entity-1="Collection" data-entity-2="List" data-source-line="37" data-uid="lnk12" id="link_Collection_List"><path codeLine="37" d="M283.1031,162.9202 C265.5931,185.6102 257.3,196.36 241.9,216.32" fill="none" id="Collection-backto-List" style="stroke:#000000;stroke-width:1;"/><polygon fill="none" points="294.1,148.67,278.353,159.2545,287.8531,166.5858,294.1,148.67" style="stroke:#000000;stroke-width:1;"/></g><!--reverse link Collection to Set--><g class="link" data-entity-1="Collection" data-entity-2="Set" data-source-line="38" data-uid="lnk13" id="link_Collection_Set"><path codeLine="38" d="M360.7413,166.1752 C367.8213,195.7452 371.64,211.74 376.7,232.88" fill="none" id="Collection-backto-Set" style="stroke:#000000;stroke-width:1;"/><polygon fill="none" points="356.55,148.67,354.9062,167.5723,366.5764,164.7781,356.55,148.67" style="stroke:#000000;stroke-width:1;"/></g><!--reverse link List to ArrayList--><g class="link" data-entity-1="List" data-entity-2="ArrayList" data-source-line="39" data-uid="lnk14" id="link_List_ArrayList"><path codeLine="39" d="M152.5443,305.2106 C128.5143,324.8206 113.98,336.67 93.8,353.13" fill="none" id="List-backto-ArrayList" style="stroke:#000000;stroke-width:1;stroke-dasharray:7,7;"/><polygon fill="none" points="166.49,293.83,148.7508,300.562,156.3378,309.8591,166.49,293.83" style="stroke:#000000;stroke-width:1;"/></g><!--reverse link List to LinkedList--><g class="link" data-entity-1="List" data-entity-2="LinkedList" data-source-line="40" data-uid="lnk15" id="link_List_LinkedList"><path codeLine="40" d="M215.5976,311.8071 C216.5876,331.4171 216.86,336.67 217.69,353.13" fill="none" id="List-backto-LinkedList" style="stroke:#000000;stroke-width:1;stroke-dasharray:7,7;"/><polygon fill="none" points="214.69,293.83,209.6052,312.1096,221.5899,311.5046,214.69,293.83" style="stroke:#000000;stroke-width:1;"/></g><!--reverse link Set to HashSet--><g class="link" data-entity-1="Set" data-entity-2="HashSet" data-source-line="41" data-uid="lnk16" id="link_Set_HashSet"><path codeLine="41" d="M380.1067,295.4838 C379.1967,316.9238 378.57,331.72 377.67,353.11" fill="none" id="Set-backto-HashSet" style="stroke:#000000;stroke-width:1;stroke-dasharray:7,7;"/><polygon fill="none" points="380.87,277.5,374.1121,295.2294,386.1013,295.7382,380.87,277.5" style="stroke:#000000;stroke-width:1;"/></g><!--reverse link Set to TreeSet--><g class="link" data-entity-1="Set" data-entity-2="TreeSet" data-source-line="42" data-uid="lnk17" id="link_Set_TreeSet"><path codeLine="42" d="M419.3084,289.4641 C443.4084,310.9041 466.83,331.72 490.87,353.11" fill="none" id="Set-backto-TreeSet" style="stroke:#000000;stroke-width:1;stroke-dasharray:7,7;"/><polygon fill="none" points="405.86,277.5,415.3204,293.9469,423.2965,284.9813,405.86,277.5" style="stroke:#000000;stroke-width:1;"/></g><!--reverse link Map to HashMap--><g class="link" data-entity-1="Map" data-entity-2="HashMap" data-source-line="43" data-uid="lnk18" id="link_Map_HashMap"><path codeLine="43" d="M611.3691,174.349 C604.9791,201.729 602.22,213.59 597.73,232.81" fill="none" id="Map-backto-HashMap" style="stroke:#000000;stroke-width:1;stroke-dasharray:7,7;"/><polygon fill="none" points="615.46,156.82,605.5261,172.9853,617.212,175.7126,615.46,156.82" style="stroke:#000000;stroke-width:1;"/></g><!--reverse link Map to TreeMap--><g class="link" data-entity-1="Map" data-entity-2="TreeMap" data-source-line="44" data-uid="lnk19" id="link_Map_TreeMap"><path codeLine="44" d="M693.8891,171.3173 C714.0391,198.6973 724.99,213.59 739.13,232.81" fill="none" id="Map-backto-TreeMap" style="stroke:#000000;stroke-width:1;stroke-dasharray:7,7;"/><polygon fill="none" points="683.22,156.82,689.0567,174.8736,698.7215,167.7609,683.22,156.82" style="stroke:#000000;stroke-width:1;"/></g><!--SRC=[TP5FJm8n4CNl_HJZROr2F6y82J4O2HWFcBsNtL4gfTsq0t7zyzsTBeNkWjxQtqpVUpEzeZLk4MejbH72RvIffPDRABNqVaBar6f7E2kjMQfFXBlpbWThQ4cDHbXPNGcX3A5xbIN2lTKQIrBMZAPZ-180DxAgCinXUfrpjzKeJQ0EjtQFcStXUVNEB_fLTYREvl-hUuwLCMBZS5LiBycwW6RnpFxYfnjjeJoTGhqXPSfK-D5gyBFfCMgYjn1Zxwsg-bfB359TyYJhqVmMYgXVxoZRO9C3ixtKErOgMAauUhUrqsH5T-OvDcVboxNzyPmHfmeR2E7cuy1QPnzOvr-ATY_jFyB4ETd4nKIqK6Q3LPyzIh-E8n_0YqFiWT1nMa6dAJ6H8i3eUp1e_-C2igW81RuDXobUXwLyWfiFBEPB8EOJR9yw-99032T-0G00]--></g></svg>