<svg xmlns="http://www.w3.org/2000/svg" xmlns:xlink="http://www.w3.org/1999/xlink" contentStyleType="text/css" data-diagram-type="CLASS" height="687px" preserveAspectRatio="none" style="width:548px;height:687px;background:#FFFFFF;" version="1.1" viewBox="0 0 548 687" width="548px" zoomAndPan="magnify"><defs/><g><!--cluster sans--><g class="cluster" data-entity="sans" data-source-line="8" data-uid="ent0002" id="cluster_sans"><path d="M13.5,373.7 L145.7021,373.7 A3.75,3.75 0 0 1 148.2021,376.2 L155.2021,395.9969 L538.53,395.9969 A2.5,2.5 0 0 1 541.03,398.4969 L541.03,678.2 A2.5,2.5 0 0 1 538.53,680.7 L13.5,680.7 A2.5,2.5 0 0 1 11,678.2 L11,376.2 A2.5,2.5 0 0 1 13.5,373.7" fill="#FFFFFF" style="stroke:#000000;stroke-width:1;"/><line style="stroke:#000000;stroke-width:1;" x1="11" x2="155.2021" y1="395.9969" y2="395.9969"/><text fill="#000000" font-family="Verdana" font-size="14" font-weight="bold" lengthAdjust="spacing" textLength="131.2021" x="15" y="388.6951">Sans g&#233;n&#233;riques</text></g><!--cluster avec--><g class="cluster" data-entity="avec" data-source-line="28" data-uid="ent0006" id="cluster_avec"><path d="M34.4,90.7 L166.527,90.7 A3.75,3.75 0 0 1 169.027,93.2 L176.027,112.9969 L237.11,112.9969 A2.5,2.5 0 0 1 239.61,115.4969 L239.61,267.2 A2.5,2.5 0 0 1 237.11,269.7 L34.4,269.7 A2.5,2.5 0 0 1 31.9,267.2 L31.9,93.2 A2.5,2.5 0 0 1 34.4,90.7" fill="#FFFFFF" style="stroke:#000000;stroke-width:1;"/><line style="stroke:#000000;stroke-width:1;" x1="31.9" x2="176.027" y1="112.9969" y2="112.9969"/><text fill="#000000" font-family="Verdana" font-size="14" font-weight="bold" lengthAdjust="spacing" textLength="131.127" x="35.9" y="105.6951">Avec g&#233;n&#233;riques</text></g><!--class StringBox--><g class="entity" data-entity="StringBox" data-source-line="9" data-uid="ent0003" id="entity_StringBox"><rect fill="#FFFFFF" height="92.8906" rx="2.5" ry="2.5" style="stroke:#000000;stroke-width:1;" width="192.9336" x="39.29" y="564.25"/><ellipse cx="93.1137" cy="578.25" fill="#FFFFFF" rx="9" ry="9" style="stroke:#000000;stroke-width:1;"/><path d="M96.0825,583.8906 Q95.5044,584.1875 94.8637,584.3281 Q94.2231,584.4844 93.52,584.4844 Q91.02,584.4844 89.6919,582.8438 Q88.3794,581.1875 88.3794,578.0625 Q88.3794,574.9375 89.6919,573.2813 Q91.02,571.625 93.52,571.625 Q94.2231,571.625 94.8637,571.7813 Q95.52,571.9375 96.0825,572.2344 L96.0825,574.9531 Q95.4575,574.375 94.8637,574.1094 Q94.27,573.8281 93.645,573.8281 Q92.3012,573.8281 91.6137,574.9063 Q90.9262,575.9688 90.9262,578.0625 Q90.9262,580.1563 91.6137,581.2344 Q92.3012,582.2969 93.645,582.2969 Q94.27,582.2969 94.8637,582.0313 Q95.4575,581.75 96.0825,581.1719 L96.0825,583.8906 Z " fill="#000000"/><text fill="#000000" font-family="Verdana" font-size="14" font-weight="bold" lengthAdjust="spacing" textLength="77.7861" x="110.6137" y="583.0967">StringBox</text><line style="stroke:#000000;stroke-width:1;" x1="40.29" x2="231.2236" y1="592.25" y2="592.25"/><text fill="#000000" font-family="Verdana" font-size="14" lengthAdjust="spacing" textLength="98.6904" x="45.29" y="609.2451">-value : String</text><line style="stroke:#000000;stroke-width:1;" x1="40.29" x2="231.2236" y1="616.5469" y2="616.5469"/><text fill="#000000" font-family="Verdana" font-size="14" lengthAdjust="spacing" textLength="180.9336" x="45.29" y="633.542">+set(value : String) : void</text><text fill="#000000" font-family="Verdana" font-size="14" lengthAdjust="spacing" textLength="101.042" x="45.29" y="649.8389">+get() : String</text></g><!--class IntegerBox--><g class="entity" data-entity="IntegerBox" data-source-line="15" data-uid="ent0004" id="entity_IntegerBox"><rect fill="#FFFFFF" height="92.8906" rx="2.5" ry="2.5" style="stroke:#000000;stroke-width:1;" width="201.5127" x="35" y="436.25"/><ellipse cx="88.4546" cy="450.25" fill="#FFFFFF" rx="9" ry="9" style="stroke:#000000;stroke-width:1;"/><path d="M91.4233,455.8906 Q90.8452,456.1875 90.2046,456.3281 Q89.564,456.4844 88.8608,456.4844 Q86.3608,456.4844 85.0327,454.8438 Q83.7202,453.1875 83.7202,450.0625 Q83.7202,446.9375 85.0327,445.2813 Q86.3608,443.625 88.8608,443.625 Q89.564,443.625 90.2046,443.7813 Q90.8608,443.9375 91.4233,444.2344 L91.4233,446.9531 Q90.7983,446.375 90.2046,446.1094 Q89.6108,445.8281 88.9858,445.8281 Q87.6421,445.8281 86.9546,446.9063 Q86.2671,447.9688 86.2671,450.0625 Q86.2671,452.1563 86.9546,453.2344 Q87.6421,454.2969 88.9858,454.2969 Q89.6108,454.2969 90.2046,454.0313 Q90.7983,453.75 91.4233,453.1719 L91.4233,455.8906 Z " fill="#000000"/><text fill="#000000" font-family="Verdana" font-size="14" font-weight="bold" lengthAdjust="spacing" textLength="87.1035" x="105.9546" y="455.0967">IntegerBox</text><line style="stroke:#000000;stroke-width:1;" x1="36" x2="235.5127" y1="464.25" y2="464.25"/><text fill="#000000" font-family="Verdana" font-size="14" lengthAdjust="spacing" textLength="107.2695" x="41" y="481.2451">-value : Integer</text><line style="stroke:#000000;stroke-width:1;" x1="36" x2="235.5127" y1="488.5469" y2="488.5469"/><text fill="#000000" font-family="Verdana" font-size="14" lengthAdjust="spacing" textLength="189.5127" x="41" y="505.542">+set(value : Integer) : void</text><text fill="#000000" font-family="Verdana" font-size="14" lengthAdjust="spacing" textLength="109.6211" x="41" y="521.8389">+get() : Integer</text></g><!--class PlantBaseBox--><g class="entity" data-entity="PlantBaseBox" data-source-line="21" data-uid="ent0005" id="entity_PlantBaseBox"><rect fill="#FFFFFF" height="92.8906" rx="2.5" ry="2.5" style="stroke:#000000;stroke-width:1;" width="220.5166" x="296.51" y="564.25"/><ellipse cx="348.8025" cy="578.25" fill="#FFFFFF" rx="9" ry="9" style="stroke:#000000;stroke-width:1;"/><path d="M351.7712,583.8906 Q351.1931,584.1875 350.5525,584.3281 Q349.9119,584.4844 349.2087,584.4844 Q346.7087,584.4844 345.3806,582.8438 Q344.0681,581.1875 344.0681,578.0625 Q344.0681,574.9375 345.3806,573.2813 Q346.7087,571.625 349.2087,571.625 Q349.9119,571.625 350.5525,571.7813 Q351.2087,571.9375 351.7712,572.2344 L351.7712,574.9531 Q351.1462,574.375 350.5525,574.1094 Q349.9587,573.8281 349.3337,573.8281 Q347.99,573.8281 347.3025,574.9063 Q346.615,575.9688 346.615,578.0625 Q346.615,580.1563 347.3025,581.2344 Q347.99,582.2969 349.3337,582.2969 Q349.9587,582.2969 350.5525,582.0313 Q351.1462,581.75 351.7712,581.1719 L351.7712,583.8906 Z " fill="#000000"/><text fill="#000000" font-family="Verdana" font-size="14" font-weight="bold" lengthAdjust="spacing" textLength="108.4316" x="366.3025" y="583.0967">PlantBaseBox</text><line style="stroke:#000000;stroke-width:1;" x1="297.51" x2="516.0266" y1="592.25" y2="592.25"/><text fill="#000000" font-family="Verdana" font-size="14" lengthAdjust="spacing" textLength="126.2734" x="302.51" y="609.2451">-value : PlantBase</text><line style="stroke:#000000;stroke-width:1;" x1="297.51" x2="516.0266" y1="616.5469" y2="616.5469"/><text fill="#000000" font-family="Verdana" font-size="14" lengthAdjust="spacing" textLength="208.5166" x="302.51" y="633.542">+set(value : PlantBase) : void</text><text fill="#000000" font-family="Verdana" font-size="14" lengthAdjust="spacing" textLength="128.625" x="302.51" y="649.8389">+get() : PlantBase</text></g><!--class BoxT--><g class="entity" data-entity="BoxT" data-source-line="29" data-uid="ent0007" id="entity_BoxT"><rect fill="#FFFFFF" height="92.8906" rx="2.5" ry="2.5" style="stroke:#000000;stroke-width:1;" width="159.7041" x="55.9" y="153.25"/><ellipse cx="111.6773" cy="167.25" fill="#FFFFFF" rx="9" ry="9" style="stroke:#000000;stroke-width:1;"/><path d="M114.6461,172.8906 Q114.068,173.1875 113.4273,173.3281 Q112.7867,173.4844 112.0836,173.4844 Q109.5836,173.4844 108.2555,171.8438 Q106.943,170.1875 106.943,167.0625 Q106.943,163.9375 108.2555,162.2813 Q109.5836,160.625 112.0836,160.625 Q112.7867,160.625 113.4273,160.7813 Q114.0836,160.9375 114.6461,161.2344 L114.6461,163.9531 Q114.0211,163.375 113.4273,163.1094 Q112.8336,162.8281 112.2086,162.8281 Q110.8648,162.8281 110.1773,163.9063 Q109.4898,164.9688 109.4898,167.0625 Q109.4898,169.1563 110.1773,170.2344 Q110.8648,171.2969 112.2086,171.2969 Q112.8336,171.2969 113.4273,171.0313 Q114.0211,170.75 114.6461,170.1719 L114.6461,172.8906 Z " fill="#000000"/><text fill="#000000" font-family="Verdana" font-size="14" font-weight="bold" lengthAdjust="spacing" textLength="29.3193" x="129.1773" y="172.0967">Box</text><rect fill="#FFFFFF" height="15.9688" style="stroke:#000000;stroke-width:1;stroke-dasharray:2,2;" width="9.3301" x="209.274" y="150.25"/><text fill="#000000" font-family="Verdana" font-size="12" font-style="italic" lengthAdjust="spacing" textLength="7.3301" x="210.274" y="162.3887">T</text><line style="stroke:#000000;stroke-width:1;" x1="56.9" x2="214.6041" y1="181.25" y2="181.25"/><text fill="#000000" font-family="Verdana" font-size="14" lengthAdjust="spacing" textLength="65.4609" x="61.9" y="198.2451">-value : T</text><line style="stroke:#000000;stroke-width:1;" x1="56.9" x2="214.6041" y1="205.5469" y2="205.5469"/><text fill="#000000" font-family="Verdana" font-size="14" lengthAdjust="spacing" textLength="147.7041" x="61.9" y="222.542">+set(value : T) : void</text><text fill="#000000" font-family="Verdana" font-size="14" lengthAdjust="spacing" textLength="67.8125" x="61.9" y="238.8389">+get() : T</text></g><g class="entity" data-entity="GMN8" data-source-line="37" data-uid="ent0009" id="entity_GMN8"><path d="M48.82,294 L48.82,349.3984 L222.6906,349.3984 L222.6906,304 L212.6906,294 L48.82,294" fill="#FFFFFF" style="stroke:#000000;stroke-width:1;"/><path d="M212.6906,294 L212.6906,304 L222.6906,304 L212.6906,294" fill="#FFFFFF" style="stroke:#000000;stroke-width:1;"/><text fill="#000000" font-family="Verdana" font-size="13" lengthAdjust="spacing" textLength="102.3813" x="54.82" y="311.0669">Code dupliqu&#233; :</text><text fill="#000000" font-family="Verdana" font-size="13" lengthAdjust="spacing" textLength="131.6504" x="54.82" y="326.1997">3 classes identiques</text><text fill="#000000" font-family="Verdana" font-size="13" lengthAdjust="spacing" textLength="152.8706" x="54.82" y="341.3325">pour 3 types diff&#233;rents.</text></g><g class="entity" data-entity="GMN11" data-source-line="43" data-uid="ent0012" id="entity_GMN11"><path d="M60.97,11 L60.97,66.3984 L210.5481,66.3984 L210.5481,21 L200.5481,11 L60.97,11" fill="#FFFFFF" style="stroke:#000000;stroke-width:1;"/><path d="M200.5481,11 L200.5481,21 L210.5481,21 L200.5481,11" fill="#FFFFFF" style="stroke:#000000;stroke-width:1;"/><text fill="#000000" font-family="Verdana" font-size="13" lengthAdjust="spacing" textLength="118.041" x="66.97" y="28.0669">Code r&#233;utilisable :</text><text fill="#000000" font-family="Verdana" font-size="13" lengthAdjust="spacing" textLength="91.4253" x="66.97" y="43.1997">1 seule classe</text><text fill="#000000" font-family="Verdana" font-size="13" lengthAdjust="spacing" textLength="128.5781" x="66.97" y="58.3325">pour tous les types.</text></g><!--link sans to GMN8--><g class="link" data-entity-1="sans" data-entity-2="GMN8" data-source-line="37" data-uid="lnk10" id="link_sans_GMN8"><path d="M135.76,373.6022 C135.76,373.5368 135.76,373.4715 135.76,373.4061 C135.76,372.8831 135.76,372.3602 135.76,371.8372 C135.76,370.7912 135.76,369.7453 135.76,368.6993 C135.76,366.6074 135.76,364.5155 135.76,362.4234 C135.76,358.2394 135.76,354.055 135.76,349.87" fill="none" id="sans-GMN8" style="stroke:#000000;stroke-width:1;stroke-dasharray:7,7;"/></g><!--link avec to GMN11--><g class="link" data-entity-1="avec" data-entity-2="GMN11" data-source-line="43" data-uid="lnk13" id="link_avec_GMN11"><path d="M135.76,90.6022 C135.76,90.5368 135.76,90.4715 135.76,90.4061 C135.76,89.8831 135.76,89.3602 135.76,88.8372 C135.76,87.7912 135.76,86.7453 135.76,85.6993 C135.76,83.6074 135.76,81.5155 135.76,79.4234 C135.76,75.2394 135.76,71.055 135.76,66.87" fill="none" id="avec-GMN11" style="stroke:#000000;stroke-width:1;stroke-dasharray:7,7;"/></g><!--SRC=[VPB1JiCm38RlUGgp4nC2WRXD26b3GjeDgNs1h75Bj2mfYJCnq1wepz4Nm-swqJAwd2p_Zh_Vig_e7JS8fP7Q2X7MsfRIomraHeOm9_9w5GcNcRE9_aAu_rlowYmbj3C8AsUK40Pp0dBWTV5EeBJ7ZBJZrgNCrh90c2JI1YZgojQLrnyHmmHaWD1almNmQ_j2mcXRBDndbstUBMobYGYpJZq9Dn2GheVYbAEjqwfNL73HTFXxBthCfIKiq8z1Etc4sgaNiFt_0-wRaPOMCk0O-LGmmZxf5-Z37dknx-raliNiV2UooVPtCc5_J-bpAtAO_kir7V6ONl2M_dgoZffR8d8RS7bx5oo-E8MWOcdONLt1Z5EF1rCOG2kqrDhcTEcYPurs9IjAvpcFn7Au4sWLDDtF6CsSHuQlgqZQw21NVDCDvu6dY1mVQ4S2kHZ0CA85zPh_0000]--></g></svg>