<svg xmlns="http://www.w3.org/2000/svg" xmlns:xlink="http://www.w3.org/1999/xlink" contentStyleType="text/css" data-diagram-type="ACTIVITY" height="432px" preserveAspectRatio="none" style="width:314px;height:432px;background:#FFFFFF;" version="1.1" viewBox="0 0 314 432" width="314px" zoomAndPan="magnify"><defs/><g><ellipse cx="144.3452" cy="15" fill="#FFFFFF" rx="10" ry="10" style="stroke:#000000;stroke-width:1;"/><rect fill="#FFFFFF" height="47.9375" rx="12.5" ry="12.5" style="stroke:#000000;stroke-width:1;" width="164.0645" x="62.313" y="45"/><text fill="#000000" font-family="Verdana" font-size="12" lengthAdjust="spacing" textLength="106.3887" x="72.313" y="66.1387">D&#233;clarer une liste</text><text fill="#000000" font-family="Verdana" font-size="12" lengthAdjust="spacing" textLength="144.0645" x="72.313" y="80.1074">sans param&#232;tre de type</text><rect fill="#FFFFFF" height="33.9688" rx="12.5" ry="12.5" style="stroke:#000000;stroke-width:1;" width="177.5703" x="55.5601" y="112.9375"/><text fill="#000000" font-family="Verdana" font-size="12" lengthAdjust="spacing" textLength="157.5703" x="65.5601" y="134.0762">Ajouter un VegetablePlant</text><rect fill="#FFFFFF" height="47.9375" rx="12.5" ry="12.5" style="stroke:#000000;stroke-width:1;" width="195.3711" x="46.6597" y="166.9063"/><text fill="#000000" font-family="Verdana" font-size="12" lengthAdjust="spacing" textLength="102.1641" x="56.6597" y="188.0449">Ajouter un String</text><text fill="#000000" font-family="Verdana" font-size="12" lengthAdjust="spacing" textLength="175.3711" x="56.6597" y="202.0137">(pas d'erreur de compilation)</text><rect fill="#FFFFFF" height="47.9375" rx="12.5" ry="12.5" style="stroke:#000000;stroke-width:1;" width="168.8164" x="59.937" y="234.8438"/><text fill="#000000" font-family="Verdana" font-size="12" lengthAdjust="spacing" textLength="122.1035" x="69.937" y="255.9824">R&#233;cup&#233;rer l'&#233;l&#233;ment</text><text fill="#000000" font-family="Verdana" font-size="12" lengthAdjust="spacing" textLength="148.8164" x="69.937" y="269.9512">avec un cast (PlantBase)</text><polygon fill="#FFFFFF" points="71.1318,302.7813,217.5586,302.7813,229.5586,314.7813,217.5586,326.7813,71.1318,326.7813,59.1318,314.7813,71.1318,302.7813" style="stroke:#000000;stroke-width:1;"/><text fill="#000000" font-family="Verdana" font-size="11" lengthAdjust="spacing" textLength="146.4268" x="71.1318" y="318.5894">L'objet est-il du bon type ?</text><text fill="#000000" font-family="Verdana" font-size="11" lengthAdjust="spacing" textLength="22.5747" x="36.5571" y="312.187">true</text><text fill="#000000" font-family="Verdana" font-size="11" lengthAdjust="spacing" textLength="26.168" x="229.5586" y="312.187">false</text><rect fill="#FFFFFF" height="33.9688" rx="12.5" ry="12.5" style="stroke:#000000;stroke-width:1;" width="86.2637" x="6" y="336.7813"/><text fill="#000000" font-family="Verdana" font-size="12" lengthAdjust="spacing" textLength="66.2637" x="16" y="357.9199">Cast r&#233;ussi</text><rect fill="#FFC0CB" height="47.9375" rx="12.5" ry="12.5" style="stroke:#000000;stroke-width:1;" width="137.5273" x="170.7949" y="336.7813"/><text fill="#000000" font-family="Verdana" font-size="12" lengthAdjust="spacing" textLength="117.5273" x="180.7949" y="357.9199">ClassCastException</text><text fill="#000000" font-family="Verdana" font-size="12" lengthAdjust="spacing" textLength="85.4824" x="180.7949" y="371.8887">&#224; l'ex&#233;cution !</text><ellipse cx="144.3452" cy="415.7188" fill="none" rx="11" ry="11" style="stroke:#000000;stroke-width:1;"/><ellipse cx="144.3452" cy="415.7188" fill="#FFFFFF" rx="6" ry="6" style="stroke:#000000;stroke-width:1;"/><line style="stroke:#000000;stroke-width:1;" x1="144.3452" x2="144.3452" y1="25" y2="45"/><polygon fill="#000000" points="140.3452,35,144.3452,45,148.3452,35,144.3452,39" style="stroke:#000000;stroke-width:1;"/><line style="stroke:#000000;stroke-width:1;" x1="144.3452" x2="144.3452" y1="92.9375" y2="112.9375"/><polygon fill="#000000" points="140.3452,102.9375,144.3452,112.9375,148.3452,102.9375,144.3452,106.9375" style="stroke:#000000;stroke-width:1;"/><line style="stroke:#000000;stroke-width:1;" x1="144.3452" x2="144.3452" y1="146.9063" y2="166.9063"/><polygon fill="#000000" points="140.3452,156.9063,144.3452,166.9063,148.3452,156.9063,144.3452,160.9063" style="stroke:#000000;stroke-width:1;"/><line style="stroke:#000000;stroke-width:1;" x1="144.3452" x2="144.3452" y1="214.8438" y2="234.8438"/><polygon fill="#000000" points="140.3452,224.8438,144.3452,234.8438,148.3452,224.8438,144.3452,228.8438" style="stroke:#000000;stroke-width:1;"/><line style="stroke:#000000;stroke-width:1;" x1="59.1318" x2="49.1318" y1="314.7813" y2="314.7813"/><line style="stroke:#000000;stroke-width:1;" x1="49.1318" x2="49.1318" y1="314.7813" y2="336.7813"/><polygon fill="#000000" points="45.1318,326.7813,49.1318,336.7813,53.1318,326.7813,49.1318,330.7813" style="stroke:#000000;stroke-width:1;"/><line style="stroke:#000000;stroke-width:1;" x1="229.5586" x2="239.5586" y1="314.7813" y2="314.7813"/><line style="stroke:#000000;stroke-width:1;" x1="239.5586" x2="239.5586" y1="314.7813" y2="336.7813"/><polygon fill="#000000" points="235.5586,326.7813,239.5586,336.7813,243.5586,326.7813,239.5586,330.7813" style="stroke:#000000;stroke-width:1;"/><line style="stroke:#000000;stroke-width:1;" x1="49.1318" x2="49.1318" y1="370.75" y2="389.7188"/><line style="stroke:#000000;stroke-width:1;" x1="49.1318" x2="144.3452" y1="389.7188" y2="389.7188"/><line style="stroke:#000000;stroke-width:1;" x1="144.3452" x2="144.3452" y1="389.7188" y2="404.7188"/><polygon fill="#000000" points="140.3452,394.7188,144.3452,404.7188,148.3452,394.7188,144.3452,398.7188" style="stroke:#000000;stroke-width:1;"/><line style="stroke:#000000;stroke-width:1;" x1="144.3452" x2="144.3452" y1="282.7813" y2="302.7813"/><polygon fill="#000000" points="140.3452,292.7813,144.3452,302.7813,148.3452,292.7813,144.3452,296.7813" style="stroke:#000000;stroke-width:1;"/><!--SRC=[NL2zJWCn3Dxp5AuOUXsGcDi1bG8I4WEY4hllpctJ-fmeyQ6Mfs7adYClHjonKoH_l_bcUg21839wSIwVl4HCE437cFDQDVbsL7hhWcpz3y73BUKrY6xrmWHjuBuwA2PrRlbSfeedIZ0A0Vkiv39AXgks_6aYw0dq4cbLwUjZg356XY_QasBBzC4eUWDkQo7PkoPYXdvEAT6OpASBG_ICweCiJF9PuyTO9Yl0yp9ncGOITVXDdVbqc1MQQy8JPZADtq7pFW_jaHGewxrdwCVwAxcMXCS5rAa46aqZBHp0ScCUgKnZpdxbY3D1iyFw67eNlPoM6vl8U2_dZgArgr3vhPNeR0tj0hDLFPuyioFf_Sus3D7z0m00]--></g></svg>