<svg xmlns="http://www.w3.org/2000/svg" xmlns:xlink="http://www.w3.org/1999/xlink" contentStyleType="text/css" data-diagram-type="CLASS" height="368px" preserveAspectRatio="none" style="width:965px;height:368px;background:#FFFFFF;" version="1.1" viewBox="0 0 965 368" width="965px" zoomAndPan="magnify"><defs/><g><!--class Object--><g class="entity" data-entity="Object" data-source-line="6" data-uid="ent0002" id="entity_Object"><rect fill="#FFFFFF" height="92.8906" rx="2.5" ry="2.5" style="stroke:#000000;stroke-width:1;" width="230.9346" x="413.98" y="12"/><ellipse cx="500.0933" cy="26" fill="#FFFFFF" rx="9" ry="9" style="stroke:#000000;stroke-width:1;"/><path d="M503.062,31.6406 Q502.4839,31.9375 501.8433,32.0781 Q501.2027,32.2344 500.4995,32.2344 Q497.9995,32.2344 496.6714,30.5938 Q495.3589,28.9375 495.3589,25.8125 Q495.3589,22.6875 496.6714,21.0313 Q497.9995,19.375 500.4995,19.375 Q501.2027,19.375 501.8433,19.5313 Q502.4995,19.6875 503.062,19.9844 L503.062,22.7031 Q502.437,22.125 501.8433,21.8594 Q501.2495,21.5781 500.6245,21.5781 Q499.2808,21.5781 498.5933,22.6563 Q497.9058,23.7188 497.9058,25.8125 Q497.9058,27.9063 498.5933,28.9844 Q499.2808,30.0469 500.6245,30.0469 Q501.2495,30.0469 501.8433,29.7813 Q502.437,29.5 503.062,28.9219 L503.062,31.6406 Z " fill="#000000"/><text fill="#000000" font-family="Verdana" font-size="14" font-weight="bold" lengthAdjust="spacing" textLength="51.208" x="517.5933" y="30.8467">Object</text><line style="stroke:#000000;stroke-width:1;" x1="414.98" x2="643.9146" y1="40" y2="40"/><line style="stroke:#000000;stroke-width:1;" x1="414.98" x2="643.9146" y1="48" y2="48"/><text fill="#000000" font-family="Verdana" font-size="14" lengthAdjust="spacing" textLength="133.8887" x="419.98" y="64.9951">+toString() : String</text><text fill="#000000" font-family="Verdana" font-size="14" lengthAdjust="spacing" textLength="218.9346" x="419.98" y="81.292">+equals(obj : Object) : boolean</text><text fill="#000000" font-family="Verdana" font-size="14" lengthAdjust="spacing" textLength="123.9834" x="419.98" y="97.5889">+hashCode() : int</text></g><!--class PlantBase--><g class="entity" data-entity="PlantBase" data-source-line="12" data-uid="ent0003" id="entity_PlantBase"><rect fill="#FFFFFF" height="76.5938" rx="2.5" ry="2.5" style="stroke:#000000;stroke-width:1;" width="124.7383" x="215.08" y="164.89"/><ellipse cx="236.0117" cy="178.89" fill="#FFFFFF" rx="9" ry="9" style="stroke:#000000;stroke-width:1;"/><path d="M236.1211,174.2338 L234.9648,179.3119 L237.2929,179.3119 L236.1211,174.2338 Z M234.6367,171.9994 L237.6211,171.9994 L240.9804,184.39 L238.5273,184.39 L237.7617,181.3275 L234.4804,181.3275 L233.7304,184.39 L231.2929,184.39 L234.6367,171.9994 Z " fill="#000000"/><text fill="#000000" font-family="Verdana" font-size="14" font-style="italic" font-weight="bold" lengthAdjust="spacing" textLength="79.1123" x="249.7743" y="183.7367">PlantBase</text><line style="stroke:#000000;stroke-width:1;" x1="216.08" x2="338.8183" y1="192.89" y2="192.89"/><text fill="#000000" font-family="Verdana" font-size="14" lengthAdjust="spacing" textLength="100.1533" x="221.08" y="209.8851">-name : String</text><text fill="#000000" font-family="Verdana" font-size="14" lengthAdjust="spacing" textLength="112.7383" x="221.08" y="226.182">-species : String</text><line style="stroke:#000000;stroke-width:1;" x1="216.08" x2="338.8183" y1="233.4838" y2="233.4838"/></g><!--class VegetablePlant--><g class="entity" data-entity="VegetablePlant" data-source-line="17" data-uid="ent0004" id="entity_VegetablePlant"><rect fill="#FFFFFF" height="60.2969" rx="2.5" ry="2.5" style="stroke:#000000;stroke-width:1;" width="168.8984" x="12" y="301.48"/><ellipse cx="33.7438" cy="315.48" fill="#FFFFFF" rx="9" ry="9" style="stroke:#000000;stroke-width:1;"/><path d="M36.7125,321.1206 Q36.1344,321.4175 35.4938,321.5581 Q34.8532,321.7144 34.15,321.7144 Q31.65,321.7144 30.3219,320.0737 Q29.0094,318.4175 29.0094,315.2925 Q29.0094,312.1675 30.3219,310.5112 Q31.65,308.855 34.15,308.855 Q34.8532,308.855 35.4938,309.0112 Q36.15,309.1675 36.7125,309.4644 L36.7125,312.1831 Q36.0875,311.605 35.4938,311.3394 Q34.9,311.0581 34.275,311.0581 Q32.9313,311.0581 32.2438,312.1362 Q31.5563,313.1987 31.5563,315.2925 Q31.5563,317.3862 32.2438,318.4644 Q32.9313,319.5269 34.275,319.5269 Q34.9,319.5269 35.4938,319.2612 Q36.0875,318.98 36.7125,318.4019 L36.7125,321.1206 Z " fill="#000000"/><text fill="#000000" font-family="Verdana" font-size="14" font-weight="bold" lengthAdjust="spacing" textLength="121.4678" x="47.6869" y="320.3267">VegetablePlant</text><line style="stroke:#000000;stroke-width:1;" x1="13" x2="179.8984" y1="329.48" y2="329.48"/><text fill="#000000" font-family="Verdana" font-size="14" lengthAdjust="spacing" textLength="156.8984" x="18" y="346.4751">-daysUntilHarvest : int</text><line style="stroke:#000000;stroke-width:1;" x1="13" x2="179.8984" y1="353.7769" y2="353.7769"/></g><!--class FlowerPlant--><g class="entity" data-entity="FlowerPlant" data-source-line="21" data-uid="ent0005" id="entity_FlowerPlant"><rect fill="#FFFFFF" height="60.2969" rx="2.5" ry="2.5" style="stroke:#000000;stroke-width:1;" width="122.4795" x="216.21" y="301.48"/><ellipse cx="229.21" cy="315.48" fill="#FFFFFF" rx="9" ry="9" style="stroke:#000000;stroke-width:1;"/><path d="M232.1788,321.1206 Q231.6006,321.4175 230.96,321.5581 Q230.3194,321.7144 229.6163,321.7144 Q227.1163,321.7144 225.7881,320.0737 Q224.4756,318.4175 224.4756,315.2925 Q224.4756,312.1675 225.7881,310.5112 Q227.1163,308.855 229.6163,308.855 Q230.3194,308.855 230.96,309.0112 Q231.6163,309.1675 232.1788,309.4644 L232.1788,312.1831 Q231.5538,311.605 230.96,311.3394 Q230.3663,311.0581 229.7413,311.0581 Q228.3975,311.0581 227.71,312.1362 Q227.0225,313.1987 227.0225,315.2925 Q227.0225,317.3862 227.71,318.4644 Q228.3975,319.5269 229.7413,319.5269 Q230.3663,319.5269 230.96,319.2612 Q231.5538,318.98 232.1788,318.4019 L232.1788,321.1206 Z " fill="#000000"/><text fill="#000000" font-family="Verdana" font-size="14" font-weight="bold" lengthAdjust="spacing" textLength="94.4795" x="241.21" y="320.3267">FlowerPlant</text><line style="stroke:#000000;stroke-width:1;" x1="217.21" x2="337.6895" y1="329.48" y2="329.48"/><text fill="#000000" font-family="Verdana" font-size="14" lengthAdjust="spacing" textLength="94.9238" x="222.21" y="346.4751">-color : String</text><line style="stroke:#000000;stroke-width:1;" x1="217.21" x2="337.6895" y1="353.7769" y2="353.7769"/></g><!--class TreePlant--><g class="entity" data-entity="TreePlant" data-source-line="25" data-uid="ent0006" id="entity_TreePlant"><rect fill="#FFFFFF" height="60.2969" rx="2.5" ry="2.5" style="stroke:#000000;stroke-width:1;" width="126.7959" x="374.05" y="301.48"/><ellipse cx="397.0335" cy="315.48" fill="#FFFFFF" rx="9" ry="9" style="stroke:#000000;stroke-width:1;"/><path d="M400.0022,321.1206 Q399.4241,321.4175 398.7835,321.5581 Q398.1429,321.7144 397.4397,321.7144 Q394.9397,321.7144 393.6116,320.0737 Q392.2991,318.4175 392.2991,315.2925 Q392.2991,312.1675 393.6116,310.5112 Q394.9397,308.855 397.4397,308.855 Q398.1429,308.855 398.7835,309.0112 Q399.4397,309.1675 400.0022,309.4644 L400.0022,312.1831 Q399.3772,311.605 398.7835,311.3394 Q398.1897,311.0581 397.5647,311.0581 Q396.221,311.0581 395.5335,312.1362 Q394.846,313.1987 394.846,315.2925 Q394.846,317.3862 395.5335,318.4644 Q396.221,319.5269 397.5647,319.5269 Q398.1897,319.5269 398.7835,319.2612 Q399.3772,318.98 400.0022,318.4019 L400.0022,321.1206 Z " fill="#000000"/><text fill="#000000" font-family="Verdana" font-size="14" font-weight="bold" lengthAdjust="spacing" textLength="76.6104" x="411.2521" y="320.3267">TreePlant</text><line style="stroke:#000000;stroke-width:1;" x1="375.05" x2="499.8459" y1="329.48" y2="329.48"/><text fill="#000000" font-family="Verdana" font-size="14" lengthAdjust="spacing" textLength="114.7959" x="380.05" y="346.4751">-ageInYears : int</text><line style="stroke:#000000;stroke-width:1;" x1="375.05" x2="499.8459" y1="353.7769" y2="353.7769"/></g><!--class String--><g class="entity" data-entity="String" data-source-line="29" data-uid="ent0007" id="entity_String"><rect fill="#FFFFFF" height="44" rx="2.5" ry="2.5" style="stroke:#000000;stroke-width:1;" width="76.4668" x="375.22" y="181.19"/><ellipse cx="388.22" cy="195.19" fill="#FFFFFF" rx="9" ry="9" style="stroke:#000000;stroke-width:1;"/><path d="M391.1888,200.8306 Q390.6106,201.1275 389.97,201.2681 Q389.3294,201.4244 388.6263,201.4244 Q386.1263,201.4244 384.7981,199.7837 Q383.4856,198.1275 383.4856,195.0025 Q383.4856,191.8775 384.7981,190.2212 Q386.1263,188.565 388.6263,188.565 Q389.3294,188.565 389.97,188.7212 Q390.6263,188.8775 391.1888,189.1744 L391.1888,191.8931 Q390.5638,191.315 389.97,191.0494 Q389.3763,190.7681 388.7513,190.7681 Q387.4075,190.7681 386.72,191.8462 Q386.0325,192.9087 386.0325,195.0025 Q386.0325,197.0962 386.72,198.1744 Q387.4075,199.2369 388.7513,199.2369 Q389.3763,199.2369 389.97,198.9712 Q390.5638,198.69 391.1888,198.1119 L391.1888,200.8306 Z " fill="#000000"/><text fill="#000000" font-family="Verdana" font-size="14" font-weight="bold" lengthAdjust="spacing" textLength="48.4668" x="400.22" y="200.0367">String</text><line style="stroke:#000000;stroke-width:1;" x1="376.22" x2="450.6868" y1="209.19" y2="209.19"/><line style="stroke:#000000;stroke-width:1;" x1="376.22" x2="450.6868" y1="217.19" y2="217.19"/></g><!--class Integer--><g class="entity" data-entity="Integer" data-source-line="32" data-uid="ent0008" id="entity_Integer"><rect fill="#FFFFFF" height="44" rx="2.5" ry="2.5" style="stroke:#000000;stroke-width:1;" width="85.7842" x="486.56" y="181.19"/><ellipse cx="499.56" cy="195.19" fill="#FFFFFF" rx="9" ry="9" style="stroke:#000000;stroke-width:1;"/><path d="M502.5288,200.8306 Q501.9506,201.1275 501.31,201.2681 Q500.6694,201.4244 499.9663,201.4244 Q497.4663,201.4244 496.1381,199.7837 Q494.8256,198.1275 494.8256,195.0025 Q494.8256,191.8775 496.1381,190.2212 Q497.4663,188.565 499.9663,188.565 Q500.6694,188.565 501.31,188.7212 Q501.9663,188.8775 502.5288,189.1744 L502.5288,191.8931 Q501.9038,191.315 501.31,191.0494 Q500.7163,190.7681 500.0913,190.7681 Q498.7475,190.7681 498.06,191.8462 Q497.3725,192.9087 497.3725,195.0025 Q497.3725,197.0962 498.06,198.1744 Q498.7475,199.2369 500.0913,199.2369 Q500.7163,199.2369 501.31,198.9712 Q501.9038,198.69 502.5288,198.1119 L502.5288,200.8306 Z " fill="#000000"/><text fill="#000000" font-family="Verdana" font-size="14" font-weight="bold" lengthAdjust="spacing" textLength="57.7842" x="511.56" y="200.0367">Integer</text><line style="stroke:#000000;stroke-width:1;" x1="487.56" x2="571.3442" y1="209.19" y2="209.19"/><line style="stroke:#000000;stroke-width:1;" x1="487.56" x2="571.3442" y1="217.19" y2="217.19"/></g><!--class ArrayList--><g class="entity" data-entity="ArrayList" data-source-line="35" data-uid="ent0009" id="entity_ArrayList"><rect fill="#FFFFFF" height="44" rx="2.5" ry="2.5" style="stroke:#000000;stroke-width:1;" width="99.9619" x="607.47" y="181.19"/><ellipse cx="620.47" cy="195.19" fill="#FFFFFF" rx="9" ry="9" style="stroke:#000000;stroke-width:1;"/><path d="M623.4388,200.8306 Q622.8606,201.1275 622.22,201.2681 Q621.5794,201.4244 620.8763,201.4244 Q618.3763,201.4244 617.0481,199.7837 Q615.7356,198.1275 615.7356,195.0025 Q615.7356,191.8775 617.0481,190.2212 Q618.3763,188.565 620.8763,188.565 Q621.5794,188.565 622.22,188.7212 Q622.8763,188.8775 623.4388,189.1744 L623.4388,191.8931 Q622.8138,191.315 622.22,191.0494 Q621.6263,190.7681 621.0013,190.7681 Q619.6575,190.7681 618.97,191.8462 Q618.2825,192.9087 618.2825,195.0025 Q618.2825,197.0962 618.97,198.1744 Q619.6575,199.2369 621.0013,199.2369 Q621.6263,199.2369 622.22,198.9712 Q622.8138,198.69 623.4388,198.1119 L623.4388,200.8306 Z " fill="#000000"/><text fill="#000000" font-family="Verdana" font-size="14" font-weight="bold" lengthAdjust="spacing" textLength="71.9619" x="632.47" y="200.0367">ArrayList</text><line style="stroke:#000000;stroke-width:1;" x1="608.47" x2="706.4319" y1="209.19" y2="209.19"/><line style="stroke:#000000;stroke-width:1;" x1="608.47" x2="706.4319" y1="217.19" y2="217.19"/></g><g class="entity" data-entity="GMN17" data-source-line="47" data-uid="ent0018" id="entity_GMN17"><path d="M742.88,167.92 L742.88,238.4512 A0,0 0 0 0 742.88,238.4512 L958.0231,238.4512 A0,0 0 0 0 958.0231,238.4512 L958.0231,177.92 L948.0231,167.92 L776.3,167.92 L632.34,105.2 L768.3,167.92 L742.88,167.92 A0,0 0 0 0 742.88,167.92" fill="#FFFFFF" style="stroke:#000000;stroke-width:1;"/><path d="M948.0231,167.92 L948.0231,177.92 L958.0231,177.92 L948.0231,167.92" fill="#FFFFFF" style="stroke:#000000;stroke-width:1;"/><text fill="#000000" font-family="Verdana" font-size="13" lengthAdjust="spacing" textLength="149.2842" x="748.88" y="184.9869">Toutes les classes Java</text><text fill="#000000" font-family="Verdana" font-size="13" lengthAdjust="spacing" textLength="122.6113" x="748.88" y="200.1197">h&#233;ritent de Object.</text><text fill="#000000" font-family="Verdana" font-size="13" lengthAdjust="spacing" textLength="194.1431" x="748.88" y="215.2525">C'est pourquoi une ObjectBox</text><text fill="#000000" font-family="Verdana" font-size="13" lengthAdjust="spacing" textLength="191.8833" x="748.88" y="230.3853">accepte n'importe quel objet.</text></g><!--reverse link Object to PlantBase--><g class="link" data-entity-1="Object" data-entity-2="PlantBase" data-source-line="38" data-uid="lnk10" id="link_Object_PlantBase"><path codeLine="38" d="M433.0164,114.0685 C397.8864,133.9585 373.01,148.05 340.2,166.64" fill="none" id="Object-backto-PlantBase" style="stroke:#000000;stroke-width:1;"/><polygon fill="none" points="448.68,105.2,430.0602,108.8473,435.9725,119.2897,448.68,105.2" style="stroke:#000000;stroke-width:1;"/></g><!--reverse link Object to String--><g class="link" data-entity-1="Object" data-entity-2="String" data-source-line="39" data-uid="lnk11" id="link_Object_String"><path codeLine="39" d="M481.0781,118.969 C460.3881,144.429 446.94,160.98 430.72,180.94" fill="none" id="Object-backto-String" style="stroke:#000000;stroke-width:1;"/><polygon fill="none" points="492.43,105,476.4217,115.1851,485.7344,122.753,492.43,105" style="stroke:#000000;stroke-width:1;"/></g><!--reverse link Object to Integer--><g class="link" data-entity-1="Object" data-entity-2="Integer" data-source-line="40" data-uid="lnk12" id="link_Object_Integer"><path codeLine="40" d="M529.45,123 C529.45,148.46 529.45,160.98 529.45,180.94" fill="none" id="Object-backto-Integer" style="stroke:#000000;stroke-width:1;"/><polygon fill="none" points="529.45,105,523.45,123,535.45,123,529.45,105" style="stroke:#000000;stroke-width:1;"/></g><!--reverse link Object to ArrayList--><g class="link" data-entity-1="Object" data-entity-2="ArrayList" data-source-line="41" data-uid="lnk13" id="link_Object_ArrayList"><path codeLine="41" d="M582.3169,118.4013 C605.1469,143.8613 620.5,160.98 638.39,180.94" fill="none" id="Object-backto-ArrayList" style="stroke:#000000;stroke-width:1;"/><polygon fill="none" points="570.3,105,577.8498,122.4069,586.784,114.3956,570.3,105" style="stroke:#000000;stroke-width:1;"/></g><!--reverse link PlantBase to VegetablePlant--><g class="link" data-entity-1="PlantBase" data-entity-2="VegetablePlant" data-source-line="42" data-uid="lnk14" id="link_PlantBase_VegetablePlant"><path codeLine="42" d="M208.8754,252.0903 C181.7854,271.0203 164.17,283.33 138.86,301" fill="none" id="PlantBase-backto-VegetablePlant" style="stroke:#000000;stroke-width:1;"/><polygon fill="none" points="223.63,241.78,205.4386,247.1721,212.3121,257.0085,223.63,241.78" style="stroke:#000000;stroke-width:1;"/></g><!--reverse link PlantBase to FlowerPlant--><g class="link" data-entity-1="PlantBase" data-entity-2="FlowerPlant" data-source-line="43" data-uid="lnk15" id="link_PlantBase_FlowerPlant"><path codeLine="43" d="M277.45,259.78 C277.45,278.71 277.45,283.33 277.45,301" fill="none" id="PlantBase-backto-FlowerPlant" style="stroke:#000000;stroke-width:1;"/><polygon fill="none" points="277.45,241.78,271.45,259.78,283.45,259.78,277.45,241.78" style="stroke:#000000;stroke-width:1;"/></g><!--reverse link PlantBase to TreePlant--><g class="link" data-entity-1="PlantBase" data-entity-2="TreePlant" data-source-line="44" data-uid="lnk16" id="link_PlantBase_TreePlant"><path codeLine="44" d="M339.1415,252.9416 C363.0915,271.8716 377.59,283.33 399.96,301" fill="none" id="PlantBase-backto-TreePlant" style="stroke:#000000;stroke-width:1;"/><polygon fill="none" points="325.02,241.78,335.421,257.6488,342.8621,248.2344,325.02,241.78" style="stroke:#000000;stroke-width:1;"/></g><!--SRC=[RLBBJiCm4BpxAvPJYr0HPyIbhLHHX0HI2nB7JRAqBgutjJU50lqWleCVOvkaZqH4icBDxCwinpwJEIq9SeVM6nFVhCynu19IXp7sHO9D2g5nodvYFmcksYKZzZAHZID8s6N6b20y90jA1RuCw7S1mXCLyhFkELn3jQqPMXNeOfUJXJ9LrwucONQ4lYwQOvmFEQEotNenMsCmYH9GFIh3HuTU1XYfzko1HprMmwq7CQVKKZp2s_t0ppGZmSHHANGGoN0JdxnOTujXJL6E_bNRoF4xXMPFoex3FnRJG2rrdD7Oln26sDQjUhNmW8ozw8ZX5Eg7W9jx6wK2wynlldkzOnmDj9xe5Afb6zX1rnnJBObcI6ts98isTJYwCPvbzrH4U0dyMb-vvZ5bVMOHdAxoTFg_mpKgC__z2LP8SykehhzKUDZPtKVEHLWLRA7mUtB07qfZcbAkLhvZbpa7tQqASg0FZRITV0QxISmV]--></g></svg>