<svg xmlns="http://www.w3.org/2000/svg" xmlns:xlink="http://www.w3.org/1999/xlink" contentStyleType="text/css" data-diagram-type="CLASS" height="433px" preserveAspectRatio="none" style="width:1355px;height:433px;background:#FFFFFF;" version="1.1" viewBox="0 0 1355 433" width="1355px" zoomAndPan="magnify"><defs/><g><!--class Object--><g class="entity" data-entity="Object" data-source-line="6" data-uid="ent0002" id="entity_Object"><rect fill="#FFFFFF" height="92.8906" rx="2.5" ry="2.5" style="stroke:#000000;stroke-width:1;" width="230.9346" x="844.82" y="12"/><ellipse cx="930.9333" cy="26" fill="#FFFFFF" rx="9" ry="9" style="stroke:#000000;stroke-width:1;"/><path d="M931.0427,21.3438 L929.8864,26.4219 L932.2145,26.4219 L931.0427,21.3438 Z M929.5583,19.1094 L932.5427,19.1094 L935.902,31.5 L933.4489,31.5 L932.6833,28.4375 L929.402,28.4375 L928.652,31.5 L926.2145,31.5 L929.5583,19.1094 Z " fill="#000000"/><text fill="#000000" font-family="Verdana" font-size="14" font-style="italic" font-weight="bold" lengthAdjust="spacing" textLength="51.208" x="948.4333" y="30.8467">Object</text><line style="stroke:#000000;stroke-width:1;" x1="845.82" x2="1074.7546" y1="40" y2="40"/><line style="stroke:#000000;stroke-width:1;" x1="845.82" x2="1074.7546" y1="48" y2="48"/><text fill="#000000" font-family="Verdana" font-size="14" lengthAdjust="spacing" textLength="218.9346" x="850.82" y="64.9951">+equals(obj : Object) : boolean</text><text fill="#000000" font-family="Verdana" font-size="14" lengthAdjust="spacing" textLength="123.9834" x="850.82" y="81.292">+hashCode() : int</text><text fill="#000000" font-family="Verdana" font-size="14" lengthAdjust="spacing" textLength="133.8887" x="850.82" y="97.5889">+toString() : String</text></g><!--class Number--><g class="entity" data-entity="Number" data-source-line="12" data-uid="ent0003" id="entity_Number"><rect fill="#FFFFFF" height="92.8906" rx="2.5" ry="2.5" style="stroke:#000000;stroke-width:1;" width="183.2334" x="400.67" y="164.89"/><ellipse cx="457.1905" cy="178.89" fill="#FFFFFF" rx="9" ry="9" style="stroke:#000000;stroke-width:1;"/><path d="M457.2999,174.2338 L456.1436,179.3119 L458.4718,179.3119 L457.2999,174.2338 Z M455.8155,171.9994 L458.7999,171.9994 L462.1593,184.39 L459.7061,184.39 L458.9405,181.3275 L455.6593,181.3275 L454.9093,184.39 L452.4718,184.39 L455.8155,171.9994 Z " fill="#000000"/><text fill="#000000" font-family="Verdana" font-size="14" font-style="italic" font-weight="bold" lengthAdjust="spacing" textLength="62.6924" x="474.6905" y="183.7367">Number</text><line style="stroke:#000000;stroke-width:1;" x1="401.67" x2="582.9034" y1="192.89" y2="192.89"/><line style="stroke:#000000;stroke-width:1;" x1="401.67" x2="582.9034" y1="200.89" y2="200.89"/><text fill="#000000" font-family="Verdana" font-size="14" lengthAdjust="spacing" textLength="112.3076" x="406.67" y="217.8851">+intValue() : int</text><text fill="#000000" font-family="Verdana" font-size="14" lengthAdjust="spacing" textLength="171.2334" x="406.67" y="234.182">+doubleValue() : double</text><text fill="#000000" font-family="Verdana" font-size="14" lengthAdjust="spacing" textLength="136.2334" x="406.67" y="250.4789">+longValue() : long</text></g><!--class Integer--><g class="entity" data-entity="Integer" data-source-line="18" data-uid="ent0004" id="entity_Integer"><rect fill="#FFFFFF" height="109.1875" rx="2.5" ry="2.5" style="stroke:#000000;stroke-width:1;" width="188.5791" x="12" y="317.78"/><ellipse cx="73.6475" cy="331.78" fill="#FFFFFF" rx="9" ry="9" style="stroke:#000000;stroke-width:1;"/><path d="M76.6162,337.4206 Q76.0381,337.7175 75.3975,337.8581 Q74.7568,338.0144 74.0537,338.0144 Q71.5537,338.0144 70.2256,336.3738 Q68.9131,334.7175 68.9131,331.5925 Q68.9131,328.4675 70.2256,326.8113 Q71.5537,325.155 74.0537,325.155 Q74.7568,325.155 75.3975,325.3113 Q76.0537,325.4675 76.6162,325.7644 L76.6162,328.4831 Q75.9912,327.905 75.3975,327.6394 Q74.8037,327.3581 74.1787,327.3581 Q72.835,327.3581 72.1475,328.4363 Q71.46,329.4988 71.46,331.5925 Q71.46,333.6863 72.1475,334.7644 Q72.835,335.8269 74.1787,335.8269 Q74.8037,335.8269 75.3975,335.5613 Q75.9912,335.28 76.6162,334.7019 L76.6162,337.4206 Z " fill="#000000"/><text fill="#000000" font-family="Verdana" font-size="14" font-weight="bold" lengthAdjust="spacing" textLength="57.7842" x="91.1475" y="336.6267">Integer</text><line style="stroke:#000000;stroke-width:1;" x1="13" x2="199.5791" y1="345.78" y2="345.78"/><text fill="#000000" font-family="Verdana" font-size="14" lengthAdjust="spacing" text-decoration="underline" textLength="127.8936" x="18" y="362.7751">+MAX_VALUE : int</text><text fill="#000000" font-family="Verdana" font-size="14" lengthAdjust="spacing" text-decoration="underline" textLength="123.3271" x="18" y="379.072">+MIN_VALUE : int</text><line style="stroke:#000000;stroke-width:1;" x1="13" x2="199.5791" y1="386.3738" y2="386.3738"/><text fill="#000000" font-family="Verdana" font-size="14" lengthAdjust="spacing" text-decoration="underline" textLength="174.8359" x="18" y="403.3689">+parseInt(s : String) : int</text><text fill="#000000" font-family="Verdana" font-size="14" lengthAdjust="spacing" text-decoration="underline" textLength="176.5791" x="18" y="419.6657">+valueOf(i : int) : Integer</text></g><!--class Double--><g class="entity" data-entity="Double" data-source-line="25" data-uid="ent0005" id="entity_Double"><rect fill="#FFFFFF" height="76.5938" rx="2.5" ry="2.5" style="stroke:#000000;stroke-width:1;" width="247.416" x="235.58" y="334.08"/><ellipse cx="327.7773" cy="348.08" fill="#FFFFFF" rx="9" ry="9" style="stroke:#000000;stroke-width:1;"/><path d="M330.746,353.7206 Q330.1679,354.0175 329.5273,354.1581 Q328.8866,354.3144 328.1835,354.3144 Q325.6835,354.3144 324.3554,352.6738 Q323.0429,351.0175 323.0429,347.8925 Q323.0429,344.7675 324.3554,343.1113 Q325.6835,341.455 328.1835,341.455 Q328.8866,341.455 329.5273,341.6113 Q330.1835,341.7675 330.746,342.0644 L330.746,344.7831 Q330.121,344.205 329.5273,343.9394 Q328.9335,343.6581 328.3085,343.6581 Q326.9648,343.6581 326.2773,344.7363 Q325.5898,345.7988 325.5898,347.8925 Q325.5898,349.9863 326.2773,351.0644 Q326.9648,352.1269 328.3085,352.1269 Q328.9335,352.1269 329.5273,351.8613 Q330.121,351.58 330.746,351.0019 L330.746,353.7206 Z " fill="#000000"/><text fill="#000000" font-family="Verdana" font-size="14" font-weight="bold" lengthAdjust="spacing" textLength="55.5215" x="345.2773" y="352.9267">Double</text><line style="stroke:#000000;stroke-width:1;" x1="236.58" x2="481.996" y1="362.08" y2="362.08"/><line style="stroke:#000000;stroke-width:1;" x1="236.58" x2="481.996" y1="370.08" y2="370.08"/><text fill="#000000" font-family="Verdana" font-size="14" lengthAdjust="spacing" text-decoration="underline" textLength="235.416" x="241.58" y="387.0751">+parseDouble(s : String) : double</text><text fill="#000000" font-family="Verdana" font-size="14" lengthAdjust="spacing" text-decoration="underline" textLength="210.2871" x="241.58" y="403.372">+valueOf(d : double) : Double</text></g><!--class Long--><g class="entity" data-entity="Long" data-source-line="30" data-uid="ent0006" id="entity_Long"><rect fill="#FFFFFF" height="60.2969" rx="2.5" ry="2.5" style="stroke:#000000;stroke-width:1;" width="214.4326" x="518.07" y="342.23"/><ellipse cx="602.2726" cy="356.23" fill="#FFFFFF" rx="9" ry="9" style="stroke:#000000;stroke-width:1;"/><path d="M605.2414,361.8706 Q604.6633,362.1675 604.0226,362.3081 Q603.382,362.4644 602.6789,362.4644 Q600.1789,362.4644 598.8508,360.8238 Q597.5383,359.1675 597.5383,356.0425 Q597.5383,352.9175 598.8508,351.2613 Q600.1789,349.605 602.6789,349.605 Q603.382,349.605 604.0226,349.7613 Q604.6789,349.9175 605.2414,350.2144 L605.2414,352.9331 Q604.6164,352.355 604.0226,352.0894 Q603.4289,351.8081 602.8039,351.8081 Q601.4601,351.8081 600.7726,352.8863 Q600.0851,353.9488 600.0851,356.0425 Q600.0851,358.1363 600.7726,359.2144 Q601.4601,360.2769 602.8039,360.2769 Q603.4289,360.2769 604.0226,360.0113 Q604.6164,359.73 605.2414,359.1519 L605.2414,361.8706 Z " fill="#000000"/><text fill="#000000" font-family="Verdana" font-size="14" font-weight="bold" lengthAdjust="spacing" textLength="38.5273" x="619.7726" y="361.0767">Long</text><line style="stroke:#000000;stroke-width:1;" x1="519.07" x2="731.5026" y1="370.23" y2="370.23"/><line style="stroke:#000000;stroke-width:1;" x1="519.07" x2="731.5026" y1="378.23" y2="378.23"/><text fill="#000000" font-family="Verdana" font-size="14" lengthAdjust="spacing" text-decoration="underline" textLength="202.4326" x="524.07" y="395.2251">+parseLong(s : String) : long</text></g><!--class Float--><g class="entity" data-entity="Float" data-source-line="34" data-uid="ent0007" id="entity_Float"><rect fill="#FFFFFF" height="60.2969" rx="2.5" ry="2.5" style="stroke:#000000;stroke-width:1;" width="216.1211" x="767.23" y="342.23"/><ellipse cx="851.4805" cy="356.23" fill="#FFFFFF" rx="9" ry="9" style="stroke:#000000;stroke-width:1;"/><path d="M854.4492,361.8706 Q853.8711,362.1675 853.2305,362.3081 Q852.5899,362.4644 851.8867,362.4644 Q849.3867,362.4644 848.0586,360.8238 Q846.7461,359.1675 846.7461,356.0425 Q846.7461,352.9175 848.0586,351.2613 Q849.3867,349.605 851.8867,349.605 Q852.5899,349.605 853.2305,349.7613 Q853.8867,349.9175 854.4492,350.2144 L854.4492,352.9331 Q853.8242,352.355 853.2305,352.0894 Q852.6367,351.8081 852.0117,351.8081 Q850.668,351.8081 849.9805,352.8863 Q849.293,353.9488 849.293,356.0425 Q849.293,358.1363 849.9805,359.2144 Q850.668,360.2769 852.0117,360.2769 Q852.6367,360.2769 853.2305,360.0113 Q853.8242,359.73 854.4492,359.1519 L854.4492,361.8706 Z " fill="#000000"/><text fill="#000000" font-family="Verdana" font-size="14" font-weight="bold" lengthAdjust="spacing" textLength="40.1201" x="868.9805" y="361.0767">Float</text><line style="stroke:#000000;stroke-width:1;" x1="768.23" x2="982.3511" y1="370.23" y2="370.23"/><line style="stroke:#000000;stroke-width:1;" x1="768.23" x2="982.3511" y1="378.23" y2="378.23"/><text fill="#000000" font-family="Verdana" font-size="14" lengthAdjust="spacing" text-decoration="underline" textLength="204.1211" x="773.23" y="395.2251">+parseFloat(s : String) : float</text></g><!--class Boolean--><g class="entity" data-entity="Boolean" data-source-line="38" data-uid="ent0008" id="entity_Boolean"><rect fill="#FFFFFF" height="76.5938" rx="2.5" ry="2.5" style="stroke:#000000;stroke-width:1;" width="262.7559" x="828.91" y="173.04"/><ellipse cx="924.7303" cy="187.04" fill="#FFFFFF" rx="9" ry="9" style="stroke:#000000;stroke-width:1;"/><path d="M927.6991,192.6806 Q927.1209,192.9775 926.4803,193.1181 Q925.8397,193.2744 925.1366,193.2744 Q922.6366,193.2744 921.3084,191.6338 Q919.9959,189.9775 919.9959,186.8525 Q919.9959,183.7275 921.3084,182.0713 Q922.6366,180.415 925.1366,180.415 Q925.8397,180.415 926.4803,180.5713 Q927.1366,180.7275 927.6991,181.0244 L927.6991,183.7431 Q927.0741,183.165 926.4803,182.8994 Q925.8866,182.6181 925.2616,182.6181 Q923.9178,182.6181 923.2303,183.6963 Q922.5428,184.7588 922.5428,186.8525 Q922.5428,188.9463 923.2303,190.0244 Q923.9178,191.0869 925.2616,191.0869 Q925.8866,191.0869 926.4803,190.8213 Q927.0741,190.54 927.6991,189.9619 L927.6991,192.6806 Z " fill="#000000"/><text fill="#000000" font-family="Verdana" font-size="14" font-weight="bold" lengthAdjust="spacing" textLength="63.6152" x="942.2303" y="191.8867">Boolean</text><line style="stroke:#000000;stroke-width:1;" x1="829.91" x2="1090.6659" y1="201.04" y2="201.04"/><line style="stroke:#000000;stroke-width:1;" x1="829.91" x2="1090.6659" y1="209.04" y2="209.04"/><text fill="#000000" font-family="Verdana" font-size="14" lengthAdjust="spacing" text-decoration="underline" textLength="250.7559" x="834.91" y="226.0351">+parseBoolean(s : String) : boolean</text><text fill="#000000" font-family="Verdana" font-size="14" lengthAdjust="spacing" text-decoration="underline" textLength="225.627" x="834.91" y="242.332">+valueOf(b : boolean) : Boolean</text></g><!--class Character--><g class="entity" data-entity="Character" data-source-line="43" data-uid="ent0009" id="entity_Character"><rect fill="#FFFFFF" height="92.8906" rx="2.5" ry="2.5" style="stroke:#000000;stroke-width:1;" width="222.1025" x="1126.24" y="164.89"/><ellipse cx="1194.8259" cy="178.89" fill="#FFFFFF" rx="9" ry="9" style="stroke:#000000;stroke-width:1;"/><path d="M1197.7947,184.5306 Q1197.2166,184.8275 1196.5759,184.9681 Q1195.9353,185.1244 1195.2322,185.1244 Q1192.7322,185.1244 1191.4041,183.4838 Q1190.0916,181.8275 1190.0916,178.7025 Q1190.0916,175.5775 1191.4041,173.9213 Q1192.7322,172.265 1195.2322,172.265 Q1195.9353,172.265 1196.5759,172.4213 Q1197.2322,172.5775 1197.7947,172.8744 L1197.7947,175.5931 Q1197.1697,175.015 1196.5759,174.7494 Q1195.9822,174.4681 1195.3572,174.4681 Q1194.0134,174.4681 1193.3259,175.5463 Q1192.6384,176.6088 1192.6384,178.7025 Q1192.6384,180.7963 1193.3259,181.8744 Q1194.0134,182.9369 1195.3572,182.9369 Q1195.9822,182.9369 1196.5759,182.6713 Q1197.1697,182.39 1197.7947,181.8119 L1197.7947,184.5306 Z " fill="#000000"/><text fill="#000000" font-family="Verdana" font-size="14" font-weight="bold" lengthAdjust="spacing" textLength="77.4307" x="1212.3259" y="183.7367">Character</text><line style="stroke:#000000;stroke-width:1;" x1="1127.24" x2="1347.3425" y1="192.89" y2="192.89"/><line style="stroke:#000000;stroke-width:1;" x1="1127.24" x2="1347.3425" y1="200.89" y2="200.89"/><text fill="#000000" font-family="Verdana" font-size="14" lengthAdjust="spacing" text-decoration="underline" textLength="197.4082" x="1132.24" y="217.8851">+isLetter(c : char) : boolean</text><text fill="#000000" font-family="Verdana" font-size="14" lengthAdjust="spacing" text-decoration="underline" textLength="188.583" x="1132.24" y="234.182">+isDigit(c : char) : boolean</text><text fill="#000000" font-family="Verdana" font-size="14" lengthAdjust="spacing" text-decoration="underline" textLength="210.1025" x="1132.24" y="250.4789">+toUpperCase(c : char) : char</text></g><g class="entity" data-entity="GMN17" data-source-line="58" data-uid="ent0018" id="entity_GMN17"><path d="M618.45,191.2 L618.45,207.34 L584.24,211.34 L618.45,215.34 L618.45,231.4656 A0,0 0 0 0 618.45,231.4656 L794.1297,231.4656 A0,0 0 0 0 794.1297,231.4656 L794.1297,201.2 L784.1297,191.2 L618.45,191.2 A0,0 0 0 0 618.45,191.2" fill="#FFFFFF" style="stroke:#000000;stroke-width:1;"/><path d="M784.1297,191.2 L784.1297,201.2 L794.1297,201.2 L784.1297,191.2" fill="#FFFFFF" style="stroke:#000000;stroke-width:1;"/><text fill="#000000" font-family="Verdana" font-size="13" lengthAdjust="spacing" textLength="154.6797" x="624.45" y="208.2669">Les classes num&#233;riques</text><text fill="#000000" font-family="Verdana" font-size="13" lengthAdjust="spacing" textLength="132.4946" x="624.45" y="223.3997">h&#233;ritent de Number.</text></g><g class="entity" data-entity="GMN20" data-source-line="63" data-uid="ent0021" id="entity_GMN20"><path d="M1110.82,38.31 L1110.82,54.45 L1076.19,58.45 L1110.82,62.45 L1110.82,78.5756 A0,0 0 0 0 1110.82,78.5756 L1325.7599,78.5756 A0,0 0 0 0 1325.7599,78.5756 L1325.7599,48.31 L1315.7599,38.31 L1110.82,38.31 A0,0 0 0 0 1110.82,38.31" fill="#FFFFFF" style="stroke:#000000;stroke-width:1;"/><path d="M1315.7599,38.31 L1315.7599,48.31 L1325.7599,48.31 L1315.7599,38.31" fill="#FFFFFF" style="stroke:#000000;stroke-width:1;"/><text fill="#000000" font-family="Verdana" font-size="13" lengthAdjust="spacing" textLength="193.9399" x="1116.82" y="55.3769">Boolean et Character h&#233;ritent</text><text fill="#000000" font-family="Verdana" font-size="13" lengthAdjust="spacing" textLength="150.4331" x="1116.82" y="70.5097">directement de Object.</text></g><!--reverse link Object to Number--><g class="link" data-entity-1="Object" data-entity-2="Number" data-source-line="49" data-uid="lnk10" id="link_Object_Number"><path codeLine="49" d="M827.118,94.7863 C756.278,114.3263 681.5,136.49 601.29,164.89 C595.68,166.88 589.95,168.99 584.19,171.19" fill="none" id="Object-backto-Number" style="stroke:#000000;stroke-width:1;"/><polygon fill="none" points="844.47,90,825.5226,89.0023,828.7134,100.5703,844.47,90" style="stroke:#000000;stroke-width:1;"/></g><!--reverse link Object to Boolean--><g class="link" data-entity-1="Object" data-entity-2="Boolean" data-source-line="50" data-uid="lnk11" id="link_Object_Boolean"><path codeLine="50" d="M960.29,123.13 C960.29,144.81 960.29,152.41 960.29,172.92" fill="none" id="Object-backto-Boolean" style="stroke:#000000;stroke-width:1;"/><polygon fill="none" points="960.29,105.13,954.29,123.13,966.29,123.13,960.29,105.13" style="stroke:#000000;stroke-width:1;"/></g><!--reverse link Object to Character--><g class="link" data-entity-1="Object" data-entity-2="Character" data-source-line="51" data-uid="lnk12" id="link_Object_Character"><path codeLine="51" d="M1060.3365,113.9413 C1094.7165,132.6713 1118.59,145.68 1152.98,164.41" fill="none" id="Object-backto-Character" style="stroke:#000000;stroke-width:1;"/><polygon fill="none" points="1044.53,105.33,1057.4661,119.2101,1063.2069,108.6724,1044.53,105.33" style="stroke:#000000;stroke-width:1;"/></g><!--reverse link Number to Integer--><g class="link" data-entity-1="Number" data-entity-2="Integer" data-source-line="52" data-uid="lnk13" id="link_Number_Integer"><path codeLine="52" d="M383.3585,251.9732 C329.8385,271.8732 278.21,291.97 218.29,317.78 C212.65,320.21 206.87,322.77 201.07,325.39" fill="none" id="Number-backto-Integer" style="stroke:#000000;stroke-width:1;"/><polygon fill="none" points="400.23,245.7,381.2675,246.3494,385.4496,257.597,400.23,245.7" style="stroke:#000000;stroke-width:1;"/></g><!--reverse link Number to Double--><g class="link" data-entity-1="Number" data-entity-2="Double" data-source-line="53" data-uid="lnk14" id="link_Number_Double"><path codeLine="53" d="M442.6335,271.7187 C422.5235,295.7687 409.69,311.11 390.68,333.84" fill="none" id="Number-backto-Double" style="stroke:#000000;stroke-width:1;"/><polygon fill="none" points="454.18,257.91,438.0307,267.8698,447.2364,275.5675,454.18,257.91" style="stroke:#000000;stroke-width:1;"/></g><!--reverse link Number to Long--><g class="link" data-entity-1="Number" data-entity-2="Long" data-source-line="54" data-uid="lnk15" id="link_Number_Long"><path codeLine="54" d="M541.947,271.7183 C564.517,298.7083 580.91,318.3 600.61,341.86" fill="none" id="Number-backto-Long" style="stroke:#000000;stroke-width:1;"/><polygon fill="none" points="530.4,257.91,537.3442,275.5672,546.5497,267.8693,530.4,257.91" style="stroke:#000000;stroke-width:1;"/></g><!--reverse link Number to Float--><g class="link" data-entity-1="Number" data-entity-2="Float" data-source-line="55" data-uid="lnk16" id="link_Number_Float"><path codeLine="55" d="M600.7824,257.5878 C606.5824,259.9778 595.69,255.49 601.29,257.78 C667.35,284.85 684.37,290.38 750.29,317.78 C768.71,325.44 788.59,333.88 806.96,341.76" fill="none" id="Number-backto-Float" style="stroke:#000000;stroke-width:1;"/><polygon fill="none" points="584.14,250.73,598.4965,263.1353,603.0684,252.0404,584.14,250.73" style="stroke:#000000;stroke-width:1;"/></g><!--SRC=[ZLJBJiCm4BpxAymj5G9nHbnA0QbIeOUg5JTa9zl4uDebtY3n-Y2-WnzZ7RjvbI9wYRqpExDhhtk41Mo0RxLGXZ7tfCnMb6B3KosS6oEMIbO8qzIQXNe3VZQat5Y32tpLmANL6MD2EYn5YW7bS_a8j7bdd7x779uheLrYvIC_ZzY8Lj9Q3S94KY5SCR4P91vI1cCOxOAgCNaT3alskMTuLsqab8qXfQ-4hePQcQsaXXO9-mXgQ_8MyZll4-Id1Y7lwByx5AZIJtuxldzOZMVBwvvF2q_l_eBfG1sGTkAQtaQ_CrzyOVDreWBiMR6cjiYhkflz6ckN00wCUltlUMKDmtE3GEisemCwuEMXWLF_E6-q5NWWkSO6sMiVQzClmzmS48ZeGA8_QtkzofRYsL6ZjPmKma_RRoEWt0oGa2Ibn9HuVzWfTwLoXV-Xebrkjr1EX8CUtNzzNV69NNoSdCJfxuLs7NHZJHCiFfSwkfkZRYnUTZVaBxKNg2-ACMCHUAdo0hbTxohXV0OkF4twcchp_LMgvmeS8OLV8nZa6KJ-AGEJSQyqr0lbKzRkpW4xTz584I5J9J7fJoq8XyIEy0y0]--></g></svg>