<svg xmlns="http://www.w3.org/2000/svg" xmlns:xlink="http://www.w3.org/1999/xlink" contentStyleType="text/css" data-diagram-type="CLASS" height="415px" preserveAspectRatio="none" style="width:816px;height:415px;background:#FFFFFF;" version="1.1" viewBox="0 0 816 415" width="816px" zoomAndPan="magnify"><defs/><g><!--class Comparable--><g class="entity" data-entity="Comparable" data-source-line="6" data-uid="ent0002" id="entity_Comparable"><rect fill="#FFFFFF" height="60.2969" rx="2.5" ry="2.5" style="stroke:#000000;stroke-width:1;" width="237.7227" x="147.32" y="15"/><ellipse cx="195.3664" cy="29" fill="#FFFFFF" rx="9" ry="9" style="stroke:#000000;stroke-width:1;"/><path d="M191.2883,24.7656 L191.2883,22.6094 L198.6789,22.6094 L198.6789,24.7656 L196.2101,24.7656 L196.2101,32.8438 L198.6789,32.8438 L198.6789,35 L191.2883,35 L191.2883,32.8438 L193.757,32.8438 L193.757,24.7656 L191.2883,24.7656 Z " fill="#000000"/><text fill="#000000" font-family="Verdana" font-size="14" font-style="italic" font-weight="bold" lengthAdjust="spacing" textLength="94.6162" x="212.8664" y="33.8467">Comparable</text><rect fill="#FFFFFF" height="15.9688" style="stroke:#000000;stroke-width:1;stroke-dasharray:2,2;" width="37.5137" x="350.529" y="12"/><text fill="#000000" font-family="Verdana" font-size="12" font-style="italic" lengthAdjust="spacing" textLength="35.5137" x="351.529" y="24.1387">Movie</text><line style="stroke:#000000;stroke-width:1;" x1="148.32" x2="384.0427" y1="43" y2="43"/><line style="stroke:#000000;stroke-width:1;" x1="148.32" x2="384.0427" y1="51" y2="51"/><text fill="#000000" font-family="Verdana" font-size="14" lengthAdjust="spacing" textLength="225.7227" x="153.32" y="67.9951">+compareTo(other : Movie) : int</text></g><!--class Movie--><g class="entity" data-entity="Movie" data-source-line="10" data-uid="ent0003" id="entity_Movie"><rect fill="#FFFFFF" height="255.8594" rx="2.5" ry="2.5" style="stroke:#000000;stroke-width:1;" width="508.3574" x="12" y="152.3"/><ellipse cx="238.9438" cy="166.3" fill="#FFFFFF" rx="9" ry="9" style="stroke:#000000;stroke-width:1;"/><path d="M241.9126,171.9406 Q241.3345,172.2375 240.6938,172.3781 Q240.0532,172.5344 239.3501,172.5344 Q236.8501,172.5344 235.522,170.8938 Q234.2095,169.2375 234.2095,166.1125 Q234.2095,162.9875 235.522,161.3313 Q236.8501,159.675 239.3501,159.675 Q240.0532,159.675 240.6938,159.8313 Q241.3501,159.9875 241.9126,160.2844 L241.9126,163.0031 Q241.2876,162.425 240.6938,162.1594 Q240.1001,161.8781 239.4751,161.8781 Q238.1313,161.8781 237.4438,162.9563 Q236.7563,164.0188 236.7563,166.1125 Q236.7563,168.2063 237.4438,169.2844 Q238.1313,170.3469 239.4751,170.3469 Q240.1001,170.3469 240.6938,170.0813 Q241.2876,169.8 241.9126,169.2219 L241.9126,171.9406 Z " fill="#000000"/><text fill="#000000" font-family="Verdana" font-size="14" font-weight="bold" lengthAdjust="spacing" textLength="46.9697" x="256.4438" y="171.1467">Movie</text><line style="stroke:#000000;stroke-width:1;" x1="13" x2="519.3574" y1="180.3" y2="180.3"/><text fill="#000000" font-family="Verdana" font-size="14" lengthAdjust="spacing" textLength="87.8213" x="18" y="197.2951">-title : String</text><text fill="#000000" font-family="Verdana" font-size="14" lengthAdjust="spacing" textLength="100.2627" x="18" y="213.592">-year : Integer</text><text fill="#000000" font-family="Verdana" font-size="14" lengthAdjust="spacing" textLength="127.9414" x="18" y="229.8889">-duration : Integer</text><text fill="#000000" font-family="Verdana" font-size="14" lengthAdjust="spacing" textLength="109.751" x="18" y="246.1857">-rating : Double</text><line style="stroke:#000000;stroke-width:1;" x1="13" x2="519.3574" y1="253.4875" y2="253.4875"/><text fill="#000000" font-family="Verdana" font-size="14" lengthAdjust="spacing" textLength="496.3574" x="18" y="270.4826">+Movie(title : String, year : Integer, duration : Integer, rating : Double)</text><text fill="#000000" font-family="Verdana" font-size="14" lengthAdjust="spacing" textLength="131.4756" x="18" y="286.7795">+getTitle() : String</text><text fill="#000000" font-family="Verdana" font-size="14" lengthAdjust="spacing" textLength="141.1211" x="18" y="303.0764">+getYear() : Integer</text><text fill="#000000" font-family="Verdana" font-size="14" lengthAdjust="spacing" textLength="170.4268" x="18" y="319.3732">+getDuration() : Integer</text><text fill="#000000" font-family="Verdana" font-size="14" lengthAdjust="spacing" textLength="154.3145" x="18" y="335.6701">+getRating() : Double</text><text fill="#000000" font-family="Verdana" font-size="14" lengthAdjust="spacing" textLength="225.7227" x="18" y="351.967">+compareTo(other : Movie) : int</text><text fill="#000000" font-family="Verdana" font-size="14" lengthAdjust="spacing" textLength="218.9346" x="18" y="368.2639">+equals(obj : Object) : boolean</text><text fill="#000000" font-family="Verdana" font-size="14" lengthAdjust="spacing" textLength="123.9834" x="18" y="384.5607">+hashCode() : int</text><text fill="#000000" font-family="Verdana" font-size="14" lengthAdjust="spacing" textLength="133.8887" x="18" y="400.8576">+toString() : String</text></g><g class="entity" data-entity="GMN5" data-source-line="30" data-uid="ent0006" id="entity_GMN5"><path d="M555.19,244.96 L555.19,276.23 L520.49,280.23 L555.19,284.23 L555.19,315.4913 A0,0 0 0 0 555.19,315.4913 L809.168,315.4913 A0,0 0 0 0 809.168,315.4913 L809.168,254.96 L799.168,244.96 L555.19,244.96 A0,0 0 0 0 555.19,244.96" fill="#FFFFFF" style="stroke:#000000;stroke-width:1;"/><path d="M799.168,244.96 L799.168,254.96 L809.168,254.96 L799.168,244.96" fill="#FFFFFF" style="stroke:#000000;stroke-width:1;"/><text fill="#000000" font-family="Verdana" font-size="13" lengthAdjust="spacing" textLength="202.7061" x="561.19" y="262.0269">compareTo() compare les films</text><text fill="#000000" font-family="Verdana" font-size="13" lengthAdjust="spacing" textLength="146.4023" x="561.19" y="277.1597">par note d&#233;croissante.</text><text fill="#000000" font-family="Verdana" font-size="13" lengthAdjust="spacing" textLength="209.4536" x="561.19" y="292.2925">equals() compare titre + ann&#233;e.</text><text fill="#000000" font-family="Verdana" font-size="13" lengthAdjust="spacing" textLength="232.978" x="561.19" y="307.4253">hashCode() coh&#233;rent avec equals().</text></g><!--reverse link Comparable to Movie--><g class="link" data-entity-1="Comparable" data-entity-2="Movie" data-source-line="27" data-uid="lnk4" id="link_Comparable_Movie"><path codeLine="27" d="M266.18,93.67 C266.18,113.58 266.18,123.35 266.18,152" fill="none" id="Comparable-backto-Movie" style="stroke:#000000;stroke-width:1;stroke-dasharray:7,7;"/><polygon fill="none" points="266.18,75.67,260.18,93.67,272.18,93.67,266.18,75.67" style="stroke:#000000;stroke-width:1;"/><text fill="#000000" font-family="Verdana" font-size="13" lengthAdjust="spacing" textLength="78.1333" x="267.18" y="118.3669">impl&#233;mente</text></g><!--SRC=[XL7BRi8m4BpxAxQSY7YePuGgLQ1A7AfAXKkFJh8afewNsWuIVNmGty6FTUEu9L2avX15CxCpizaRNsA5iDLI6I7Sgp9RQMK5cPREtNjlLLfxN6HabkeTuVPIya36B_rU8wIaSo6KyMZNCaFepQXgXAd6wIFj5DxrG3eueV0XW9y1P0725VM9srYOGD0d_C5suak84DMYSMe4NddscC2IEveYWdkKpVo2MnHe8vZNLdf5vW_HmAPWU4ur5shHKMmLqlhdASEBWE4Lx-6bRH8D2_IhngsVdBSEp0lx1gBRC33pc72TVGvPWUiiyUy_RKNuLalj-fHk67vADvZvHf0IQPGcYahfoXdbRUtJhATsXUusVAdEUQUVut6y6GzMMtqyLCZzXJ3a4QmgIW-qRYNiUggS_7o3HWThfIl7F0CG9lFZ8REad9FiDcOcxd4QuwlnUm3IcECXI3fRP5GU3vQRWDnXzZiy5cZo422-0G00]--></g></svg>